<svg width="17" height="18" viewBox="0 0 17 18" fill="none" xmlns="http://www.w3.org/2000/svg">
<path d="M16.442 15.7514L12.3262 11.4707C13.3845 10.2127 13.9643 8.62993 13.9643 6.98214C13.9643 3.13225 10.832 0 6.98214 0C3.13225 0 0 3.13225 0 6.98214C0 10.832 3.13225 13.9643 6.98214 13.9643C8.42745 13.9643 9.80475 13.5284 10.9823 12.7008L15.1294 17.014C15.3027 17.194 15.5359 17.2932 15.7857 17.2932C16.0222 17.2932 16.2465 17.2031 16.4168 17.0392C16.7787 16.691 16.7902 16.1136 16.442 15.7514ZM6.98214 1.82143C9.82782 1.82143 12.1429 4.13646 12.1429 6.98214C12.1429 9.82782 9.82782 12.1429 6.98214 12.1429C4.13646 12.1429 1.82143 9.82782 1.82143 6.98214C1.82143 4.13646 4.13646 1.82143 6.98214 1.82143Z" fill="#D6DCE0"/>
</svg>
