<svg width="52" height="52" viewBox="0 0 52 52" fill="none" xmlns="http://www.w3.org/2000/svg">
<circle cx="26" cy="26" r="26" fill="#F2F8FF"/>
<path fill-rule="evenodd" clip-rule="evenodd" d="M22 15.25C22.4142 15.25 22.75 15.5858 22.75 16V19C22.75 19.4142 22.4142 19.75 22 19.75C21.5858 19.75 21.25 19.4142 21.25 19V16C21.25 15.5858 21.5858 15.25 22 15.25Z" fill="#2C6DF9"/>
<path fill-rule="evenodd" clip-rule="evenodd" d="M30 15.25C30.4142 15.25 30.75 15.5858 30.75 16V19C30.75 19.4142 30.4142 19.75 30 19.75C29.5858 19.75 29.25 19.4142 29.25 19V16C29.25 15.5858 29.5858 15.25 30 15.25Z" fill="#2C6DF9"/>
<path opacity="0.4" d="M17 21.5C17 19.2909 18.7909 17.5 21 17.5H31C33.2091 17.5 35 19.2909 35 21.5V32C35 34.2091 33.2091 36 31 36H21C18.7909 36 17 34.2091 17 32V21.5Z" fill="#2C6DF9"/>
<path d="M33.1427 26.4902C33.7963 25.8366 34.8561 25.8366 35.5098 26.4902C36.1634 27.1439 36.1634 28.2037 35.5098 28.8573L30.495 33.8721C30.3743 33.9928 30.2249 34.0806 30.0608 34.1274L27.8643 34.7536C27.4873 34.8611 27.1389 34.5127 27.2464 34.1357L27.8726 31.9392C27.9194 31.7751 28.0072 31.6257 28.1279 31.505L33.1427 26.4902Z" fill="#2C6DF9"/>
<path fill-rule="evenodd" clip-rule="evenodd" d="M30.75 23C30.75 23.4142 30.4142 23.75 30 23.75H22C21.5858 23.75 21.25 23.4142 21.25 23C21.25 22.5858 21.5858 22.25 22 22.25H30C30.4142 22.25 30.75 22.5858 30.75 23Z" fill="#2C6DF9"/>
<path fill-rule="evenodd" clip-rule="evenodd" d="M28.75 27C28.75 27.4142 28.4142 27.75 28 27.75H22C21.5858 27.75 21.25 27.4142 21.25 27C21.25 26.5858 21.5858 26.25 22 26.25H28C28.4142 26.25 28.75 26.5858 28.75 27Z" fill="#2C6DF9"/>
<path fill-rule="evenodd" clip-rule="evenodd" d="M24.75 31C24.75 31.4142 24.4142 31.75 24 31.75H22C21.5858 31.75 21.25 31.4142 21.25 31C21.25 30.5858 21.5858 30.25 22 30.25H24C24.4142 30.25 24.75 30.5858 24.75 31Z" fill="#2C6DF9"/>
</svg>
