<svg width="13" height="14" viewBox="0 0 13 14" fill="none" xmlns="http://www.w3.org/2000/svg">
<g opacity="0.5">
<path d="M10.3327 4.66667C10.3327 3.69421 9.94637 2.76157 9.25874 2.07394C8.57111 1.38631 7.63848 1 6.66602 1C5.69356 1 4.76092 1.38631 4.07329 2.07394C3.38566 2.76157 2.99935 3.69421 2.99935 4.66667C2.99935 8.94444 1.16602 10.1667 1.16602 10.1667H12.166C12.166 10.1667 10.3327 8.94444 10.3327 4.66667Z" stroke="black" stroke-linecap="round" stroke-linejoin="round"/>
<path d="M7.72333 12.6102C7.61589 12.7954 7.46168 12.9491 7.27614 13.056C7.09059 13.1629 6.88023 13.2191 6.66611 13.2191C6.45199 13.2191 6.24162 13.1629 6.05608 13.056C5.87054 12.9491 5.71633 12.7954 5.60889 12.6102" stroke="black" stroke-linecap="round" stroke-linejoin="round"/>
</g>
</svg>
