<svg width="52" height="52" viewBox="0 0 52 52" fill="none" xmlns="http://www.w3.org/2000/svg">
<circle cx="26" cy="26" r="26" fill="#EBF3FF"/>
<path d="M26 17C21.0294 17 17 21.0294 17 26C17 30.9705 21.0294 35 26 35C30.9705 35 35 30.9705 35 26C34.9947 21.0317 30.9683 17.0053 26 17ZM26.6428 26C26.6428 26.355 26.355 26.6428 26 26.6428H20.8571C20.5021 26.6428 20.2143 26.355 20.2143 26C20.2143 25.6449 20.5021 25.3571 20.8571 25.3571H25.3571V20.8571C25.3571 20.5021 25.645 20.2143 26 20.2143C26.3551 20.2143 26.6428 20.5021 26.6428 20.8571V26Z" fill="#3185FC"/>
</svg>
