<svg width="17" height="16" viewBox="0 0 17 16" fill="none" xmlns="http://www.w3.org/2000/svg">
<g clip-path="url(#clip0)">
<path d="M9.16602 8.00005L10.5877 9.62505L12.4993 10.8467L12.8327 8.01088L12.4993 5.23755L10.551 6.31088L9.16602 8.00005Z" fill="#00832D"/>
<path d="M0.916016 10.5835V13.0002C0.916016 13.5527 1.36352 14.0002 1.91602 14.0002H4.33268L4.83268 12.1735L4.33268 10.5835L2.67435 10.0835L0.916016 10.5835Z" fill="#0066DA"/>
<path d="M4.33268 2L0.916016 5.41667L2.67435 5.91667L4.33268 5.41667L4.82435 3.8475L4.33268 2Z" fill="#E94235"/>
<path d="M0.916016 5.4165H4.33268V10.5832H0.916016V5.4165Z" fill="#2684FC"/>
<path d="M14.6817 3.44673L12.4992 5.23756V10.8467L14.6909 12.6442C15.0192 12.9009 15.4992 12.6667 15.4992 12.2501V3.8334C15.4992 3.4109 15.0084 3.17923 14.6817 3.44673ZM9.16585 8.00006V10.5834H4.33252V14.0001H11.4992C12.0517 14.0001 12.4992 13.5526 12.4992 13.0001V10.8467L9.16585 8.00006Z" fill="#00AC47"/>
<path d="M11.4992 2H4.33252V5.41667H9.16585V8L12.4992 5.2375V3C12.4992 2.4475 12.0517 2 11.4992 2Z" fill="#FFBA00"/>
</g>
<defs>
<clipPath id="clip0">
<rect width="16" height="16" fill="white" transform="translate(0.166016)"/>
</clipPath>
</defs>
</svg>
