<svg width="21" height="21" viewBox="0 0 21 21" fill="none" xmlns="http://www.w3.org/2000/svg">
<path d="M21 14.2119C21 11.606 19.505 9.28028 17.2659 8.14899C17.1964 13.1455 13.1455 17.1965 8.14893 17.266C9.28022 19.505 11.6059 21 14.2119 21C15.4337 21 16.6219 20.6746 17.6658 20.0563L20.9703 20.9704L20.0563 17.6659C20.6746 16.6219 21 15.4337 21 14.2119Z" fill="#2C6DF9"/>
<path d="M16.0371 8.01855C16.0371 3.59704 12.4401 0 8.01855 0C3.59704 0 0 3.59704 0 8.01855C0 9.45955 0.38356 10.8626 1.11191 12.0943L0.02948 16.0075L3.94279 14.9252C5.17454 15.6535 6.57756 16.0371 8.01855 16.0371C12.4401 16.0371 16.0371 12.4401 16.0371 8.01855ZM6.78809 6.15234H5.55762C5.55762 4.7953 6.66151 3.69141 8.01855 3.69141C9.3756 3.69141 10.4795 4.7953 10.4795 6.15234C10.4795 6.84112 10.1879 7.50314 9.67921 7.96841L8.63379 8.92522V9.88477H7.40332V8.38337L8.84848 7.06062C9.10675 6.8243 9.24902 6.50178 9.24902 6.15234C9.24902 5.47382 8.69707 4.92188 8.01855 4.92188C7.34003 4.92188 6.78809 5.47382 6.78809 6.15234ZM7.40332 11.1152H8.63379V12.3457H7.40332V11.1152Z" fill="#2C6DF9"/>
</svg>
