<svg width="20" height="19" viewBox="0 0 20 19" fill="none" xmlns="http://www.w3.org/2000/svg">
<path d="M16.6668 8.16667C16.6668 6.39856 15.9645 4.70286 14.7142 3.45262C13.464 2.20238 11.7683 1.5 10.0002 1.5C8.23205 1.5 6.53636 2.20238 5.28612 3.45262C4.03588 4.70286 3.3335 6.39856 3.3335 8.16667" stroke="#2C6DF9" stroke-width="1.5" stroke-linecap="round" stroke-linejoin="round"/>
<path d="M16.6667 13.9998V14.4165C16.6667 14.8585 16.4912 15.2824 16.1786 15.595C15.866 15.9075 15.4421 16.0831 15.0001 16.0831H12.0834M1.66675 11.8648V10.3015C1.6668 9.9298 1.79108 9.56883 2.01984 9.2759C2.24859 8.98298 2.56868 8.77492 2.92925 8.68479L4.37925 8.32146C4.45293 8.30311 4.52982 8.30178 4.60409 8.31758C4.67836 8.33337 4.74806 8.36588 4.80789 8.41262C4.86773 8.45937 4.91613 8.51912 4.94943 8.58736C4.98273 8.6556 5.00005 8.73053 5.00008 8.80646V13.359C5.00021 13.4351 4.98298 13.5102 4.94968 13.5786C4.91639 13.647 4.86792 13.7069 4.80797 13.7538C4.74801 13.8006 4.67815 13.8332 4.60371 13.849C4.52928 13.8647 4.45222 13.8633 4.37841 13.8448L2.92841 13.4823C2.568 13.392 2.2481 13.1839 2.01951 12.891C1.79092 12.5981 1.66676 12.2372 1.66675 11.8656V11.8648ZM18.3334 11.8648V10.3015C18.3334 9.9298 18.2091 9.56883 17.9803 9.2759C17.7516 8.98298 17.4315 8.77492 17.0709 8.68479L15.6209 8.32146C15.5472 8.30311 15.4703 8.30178 15.3961 8.31758C15.3218 8.33337 15.2521 8.36588 15.1923 8.41262C15.1324 8.45937 15.084 8.51912 15.0507 8.58736C15.0174 8.6556 15.0001 8.73053 15.0001 8.80646V13.359C15 13.435 15.0172 13.51 15.0505 13.5783C15.0837 13.6467 15.1321 13.7065 15.1919 13.7534C15.2518 13.8002 15.3215 13.8328 15.3959 13.8486C15.4702 13.8645 15.5472 13.8632 15.6209 13.8448L17.0709 13.4823C17.4315 13.3922 17.7516 13.1841 17.9803 12.8912C18.2091 12.5983 18.3334 12.2373 18.3334 11.8656V11.8648Z" stroke="#2C6DF9" stroke-width="1.5"/>
<path d="M11.25 17.3335H8.75C8.41848 17.3335 8.10054 17.2018 7.86612 16.9674C7.6317 16.733 7.5 16.415 7.5 16.0835C7.5 15.752 7.6317 15.434 7.86612 15.1996C8.10054 14.9652 8.41848 14.8335 8.75 14.8335H11.25C11.5815 14.8335 11.8995 14.9652 12.1339 15.1996C12.3683 15.434 12.5 15.752 12.5 16.0835C12.5 16.415 12.3683 16.733 12.1339 16.9674C11.8995 17.2018 11.5815 17.3335 11.25 17.3335Z" stroke="#2C6DF9" stroke-width="1.5"/>
</svg>
