<svg width="22" height="22" viewBox="0 0 22 22" fill="none" xmlns="http://www.w3.org/2000/svg">
<path d="M10.9999 11.9166C11.5062 11.9166 11.9166 11.5062 11.9166 11C11.9166 10.4937 11.5062 10.0833 10.9999 10.0833C10.4937 10.0833 10.0833 10.4937 10.0833 11C10.0833 11.5062 10.4937 11.9166 10.9999 11.9166Z" fill="#21295C"/>
<path d="M14.6667 11.9166C15.1729 11.9166 15.5833 11.5062 15.5833 11C15.5833 10.4937 15.1729 10.0833 14.6667 10.0833C14.1604 10.0833 13.75 10.4937 13.75 11C13.75 11.5062 14.1604 11.9166 14.6667 11.9166Z" fill="#21295C"/>
<path d="M7.33341 11.9166C7.83968 11.9166 8.25008 11.5062 8.25008 11C8.25008 10.4937 7.83968 10.0833 7.33341 10.0833C6.82715 10.0833 6.41675 10.4937 6.41675 11C6.41675 11.5062 6.82715 11.9166 7.33341 11.9166Z" fill="#21295C"/>
<path d="M17.4811 4.51965C15.977 3.00578 13.9919 2.0641 11.868 1.85696C9.74404 1.64982 7.61438 2.1902 5.84617 3.38494C4.07795 4.57968 2.78198 6.35391 2.18168 8.40175C1.58138 10.4496 1.71437 12.6427 2.55773 14.603C2.64563 14.7852 2.67447 14.9903 2.64023 15.1897L1.83356 19.0672C1.80249 19.2158 1.80883 19.3699 1.85203 19.5155C1.89523 19.6611 1.97393 19.7937 2.08106 19.9013C2.16888 19.9885 2.27345 20.057 2.38845 20.1027C2.50346 20.1484 2.62652 20.1703 2.75023 20.1672H2.93356L6.8569 19.3788C7.0563 19.3548 7.25851 19.3833 7.44356 19.4613C9.40386 20.3047 11.597 20.4377 13.6448 19.8374C15.6926 19.2371 17.4669 17.9411 18.6616 16.1729C19.8563 14.4047 20.3967 12.275 20.1896 10.1511C19.9825 8.02715 19.0408 6.04204 17.5269 4.53799L17.4811 4.51965ZM18.2419 12.183C18.0627 13.2775 17.6375 14.317 16.9985 15.2235C16.3594 16.1299 15.5231 16.8796 14.5525 17.4161C13.5818 17.9526 12.5021 18.262 11.3946 18.3209C10.2871 18.3798 9.18067 18.1868 8.15856 17.7563C7.79606 17.6021 7.40665 17.5211 7.01273 17.518C6.84065 17.5192 6.66897 17.5345 6.4994 17.5638L3.9144 18.0863L4.4369 15.5013C4.54096 14.9415 4.47388 14.3633 4.2444 13.8422C3.81392 12.82 3.62089 11.7136 3.67982 10.6061C3.73874 9.49863 4.0481 8.41892 4.58461 7.44827C5.12112 6.47761 5.8708 5.64129 6.77724 5.00223C7.68367 4.36318 8.72325 3.93804 9.81773 3.75882C10.9666 3.57028 12.1438 3.65796 13.252 4.01463C14.3602 4.37129 15.3676 4.98668 16.1908 5.8099C17.014 6.63311 17.6294 7.64049 17.9861 8.74872C18.3428 9.85694 18.4304 11.0342 18.2419 12.183Z" fill="#21295C"/>
</svg>
