<svg width="12" height="17" viewBox="0 0 12 17" fill="none" xmlns="http://www.w3.org/2000/svg">
<path d="M3.18589 4.14159H8.74341C8.9558 4.14159 9.13279 3.9646 9.13279 3.75221V2.17699C9.13279 1.9646 8.9558 1.78761 8.74341 1.78761H7.82306C7.76996 0.79646 6.9735 0 5.96465 0C4.9558 0 4.15934 0.79646 4.10624 1.78761H3.18589C2.9735 1.78761 2.79651 1.9646 2.79651 2.17699V3.75221C2.79651 3.9646 2.9735 4.14159 3.18589 4.14159ZM5.96465 1.15044C6.35403 1.15044 6.67261 1.46903 6.67261 1.85841C6.67261 2.24779 6.35403 2.56637 5.96465 2.56637C5.57527 2.56637 5.25669 2.24779 5.25669 1.85841C5.25669 1.46903 5.57527 1.15044 5.96465 1.15044Z" fill="#2C6DF9"/>
<path d="M11.1327 2.86737H10.177V3.75233C10.177 4.54879 9.53982 5.18595 8.74336 5.18595H3.18584C2.38938 5.18595 1.75221 4.54879 1.75221 3.75233V2.86737H0.867257C0.38938 2.86737 0 3.25675 0 3.73463V15.947C0 16.4249 0.38938 16.8143 0.867257 16.8143H11.1327C11.6106 16.8143 12 16.4249 12 15.947V3.73463C12 3.25675 11.6106 2.86737 11.1327 2.86737ZM8.95575 10.6196C8.95575 12.5665 6.92035 13.947 6.21239 14.3718C6.0708 14.4603 5.87611 14.4603 5.73451 14.3718C5.02655 13.947 2.99115 12.5665 2.99115 10.6196V8.90277C2.99115 8.67268 3.15044 8.47799 3.38053 8.44259C4.56637 8.2479 5.27434 7.71693 5.62832 7.32755C5.82301 7.11516 6.14159 7.11516 6.33628 7.32755C6.70796 7.71693 7.39823 8.2479 8.58407 8.44259C8.81416 8.47799 8.97345 8.67268 8.97345 8.90277V10.6196H8.95575Z" fill="#2C6DF9"/>
<path d="M6.84954 9.59283L5.5752 10.8672L5.07963 10.3716C4.88494 10.1769 4.54865 10.1769 4.33626 10.3716C4.14157 10.5663 4.14157 10.9026 4.33626 11.115L5.18582 11.9645C5.29202 12.0707 5.41591 12.1238 5.5575 12.1238C5.6991 12.1238 5.82299 12.0707 5.92918 11.9645L7.5752 10.3185C7.76989 10.1238 7.76989 9.78752 7.5752 9.57513C7.38051 9.39814 7.04423 9.39814 6.84954 9.59283Z" fill="#2C6DF9"/>
</svg>
