<svg width="24" height="24" viewBox="0 0 24 24" fill="none" xmlns="http://www.w3.org/2000/svg">
<path d="M12 15.9375C11.2751 15.9375 10.6875 16.5251 10.6875 17.25C10.6875 17.9749 11.2751 18.5625 12 18.5625C12.7249 18.5625 13.3125 17.9749 13.3125 17.25C13.3125 16.5251 12.7249 15.9375 12 15.9375ZM12.3595 14.8125H11.6095C11.2989 14.8125 11.047 14.5606 11.047 14.25V14.2321C11.047 10.9348 14.677 11.25 14.677 9.19739C14.677 8.25914 13.8445 7.3125 11.9845 7.3125C10.6184 7.3125 9.90961 7.7648 9.20902 8.65744C9.02583 8.89087 8.69086 8.93845 8.44739 8.76881L7.83173 8.33991C7.56806 8.1562 7.51017 7.78814 7.70775 7.53473C8.70272 6.25847 9.88322 5.4375 11.9845 5.4375C14.437 5.4375 16.552 6.83208 16.552 9.19739C16.552 12.3574 12.922 12.1903 12.922 14.2321V14.25C12.922 14.5606 12.6702 14.8125 12.3595 14.8125ZM12 1.875C17.5604 1.875 22.125 6.37852 22.125 12C22.125 17.5918 17.5964 22.125 12 22.125C6.41044 22.125 1.875 17.5987 1.875 12C1.875 6.41236 6.40322 1.875 12 1.875ZM12 0.375C5.58014 0.375 0.375 5.58202 0.375 12C0.375 18.4217 5.58014 23.625 12 23.625C18.4199 23.625 23.625 18.4217 23.625 12C23.625 5.58202 18.4199 0.375 12 0.375Z" fill="#21295C"/>
</svg>
