<svg width="16" height="16" viewBox="0 0 16 16" fill="none" xmlns="http://www.w3.org/2000/svg">
<g clip-path="url(#clip0)">
<path d="M9.81968 6.18027C11.4163 7.77686 11.519 10.3142 10.1244 12.029C9.9293 12.2706 10.0374 12.1498 7.46999 14.7171C5.76074 16.4264 2.99293 16.4279 1.2828 14.7171C-0.426916 13.0081 -0.427635 10.2404 1.2828 8.52996C2.30696 7.5058 2.90265 6.90811 3.26433 6.54693C3.49755 6.31405 3.89968 6.47336 3.90452 6.80293C3.91034 7.20122 3.96007 7.59766 4.05283 7.98505C4.08302 8.11096 4.04433 8.24346 3.95277 8.33499L2.51999 9.76746C1.4964 10.7917 1.49227 12.4516 2.51999 13.48C3.54421 14.5036 5.20412 14.5077 6.23249 13.48L8.58218 11.13C9.60462 10.1073 9.60646 8.44205 8.58218 7.41777C8.37468 7.2099 8.13367 7.03845 7.86924 6.91061C7.72477 6.84083 7.6448 6.68405 7.66421 6.5248C7.70658 6.17724 7.86096 5.8409 8.12718 5.57465L8.2639 5.43793C8.37718 5.32461 8.55068 5.29436 8.6939 5.36624C9.10011 5.57011 9.48099 5.84158 9.81968 6.18027ZM14.7177 1.28215C13.0076 -0.428636 10.2397 -0.427104 8.53049 1.28215C5.96311 3.84952 6.07118 3.72871 5.87612 3.97027C4.48152 5.68505 4.58421 8.22243 6.1808 9.81902C6.51949 10.1577 6.90037 10.4292 7.30658 10.6331C7.44977 10.7049 7.62327 10.6746 7.73658 10.5614L7.8733 10.4246C8.13955 10.1584 8.2939 9.82205 8.33627 9.47449C8.35568 9.31524 8.27571 9.15846 8.13124 9.08868C7.86681 8.96085 7.62579 8.7894 7.4183 8.58152C6.39402 7.55724 6.39587 5.89199 7.4183 4.86933L9.76799 2.51933C10.7964 1.49161 12.4563 1.49574 13.4805 2.51933C14.5082 3.54771 14.5041 5.20761 13.4805 6.23183L12.0477 7.66433C11.9562 7.75586 11.9175 7.88836 11.9477 8.01427C12.0404 8.40166 12.0902 8.7981 12.096 9.19639C12.1008 9.52596 12.503 9.68527 12.7362 9.4524C13.0979 9.09121 13.6936 8.49352 14.7177 7.46936C16.4281 5.7589 16.4274 2.99124 14.7177 1.28215Z" fill="#2C6DF9"/>
</g>
<defs>
<clipPath id="clip0">
<rect width="16" height="16" fill="white"/>
</clipPath>
</defs>
</svg>
