<svg width="19" height="19" viewBox="0 0 19 19" fill="none" xmlns="http://www.w3.org/2000/svg">
<g clip-path="url(#clip0)">
<path d="M13.7888 12.7279L14.3191 13.2583L16.1753 11.4021C16.6146 10.9628 16.6146 10.2505 16.1753 9.81112L8.2203 1.85616C7.78095 1.41682 7.06865 1.41682 6.62931 1.85616L4.77315 3.71232L5.30348 4.24265C5.59638 4.53554 5.59638 5.01042 5.30348 5.30331C5.01059 5.5962 4.53572 5.5962 4.24282 5.30331L3.71249 4.77298L1.85634 6.62913C1.41699 7.06848 1.41699 7.78078 1.85634 8.22012L9.81129 16.1751C10.2506 16.6144 10.9629 16.6144 11.4023 16.1751L13.2584 14.3189L12.7281 13.7886C12.4352 13.4957 12.4352 13.0208 12.7281 12.7279C13.021 12.435 13.4959 12.435 13.7888 12.7279Z" fill="#2C6DF9"/>
</g>
<defs>
<clipPath id="clip0">
<rect width="13.5" height="12" fill="white" transform="translate(8.48535) rotate(45)"/>
</clipPath>
</defs>
</svg>
