<svg width="52" height="52" viewBox="0 0 52 52" fill="none" xmlns="http://www.w3.org/2000/svg">
<circle cx="26" cy="26" r="26" fill="#FCE4EC"/>
<g clip-path="url(#clip0)">
<path d="M29.8571 20.2143H18.9286C17.8634 20.2143 17 21.0777 17 22.1428V33.0714C17 34.1365 17.8634 35 18.9286 35H29.8571C30.9222 35 31.7857 34.1365 31.7857 33.0714V22.1428C31.7857 21.0777 30.9222 20.2143 29.8571 20.2143Z" fill="#E91E63"/>
<path d="M33.0715 17H21.5001C20.4407 17 19.5797 17.8544 19.5715 18.9138C19.5715 18.9189 19.5715 18.9234 19.5715 18.9286H29.8573C31.6316 18.9307 33.0694 20.3685 33.0715 22.1428V32.4286C33.0767 32.4286 33.0812 32.4286 33.0863 32.4286C34.1457 32.4204 35.0001 31.5593 35.0001 30.5V18.9286C35.0001 17.8634 34.1366 17 33.0715 17Z" fill="#E91E63"/>
</g>
<defs>
<clipPath id="clip0">
<rect width="18" height="18" fill="white" transform="translate(17 17)"/>
</clipPath>
</defs>
</svg>
