<svg width="20" height="20" viewBox="0 0 20 20" fill="none" xmlns="http://www.w3.org/2000/svg">
<path d="M19.4002 12.1916L17.5619 10.7541C17.6189 10.2524 17.6189 9.74585 17.5619 9.24413L19.4019 7.80582C19.7467 7.52812 19.8388 7.04117 19.6194 6.65664L17.7069 3.35084C17.4866 2.96388 17.0175 2.7949 16.6011 2.95252L14.4344 3.82419C14.0273 3.5288 13.5911 3.27556 13.1327 3.06838L12.8002 0.766706C12.7403 0.324833 12.3612 -0.00360296 11.9152 2.98427e-05H8.08192C7.6397 -0.0026264 7.26365 0.322138 7.20193 0.760027L6.86861 3.06834C6.41162 3.27752 5.97619 3.53095 5.56861 3.82501L3.39608 2.95166C2.98398 2.7892 2.51527 2.95615 2.29859 3.34248L0.384415 6.65414C0.159064 7.0393 0.251837 7.5316 0.601914 7.80832L2.44023 9.24581C2.38269 9.74749 2.38269 10.2541 2.44023 10.7558L0.600234 12.1933C0.254845 12.4706 0.162267 12.9578 0.381915 13.3425L2.29359 16.6491C2.51359 17.0364 2.983 17.2055 3.3994 17.0475L5.56607 16.1758C5.97357 16.4713 6.40998 16.7248 6.86857 16.9325L7.20189 19.2325C7.26056 19.6732 7.63732 20.0017 8.08188 19.9999H11.9152C12.3582 20.0035 12.7355 19.6786 12.7977 19.24L13.131 16.9316C13.588 16.7224 14.0233 16.4689 14.431 16.175L16.606 17.0491C17.0181 17.2112 17.4866 17.0444 17.7035 16.6583L19.6235 13.3333C19.8384 12.9494 19.7439 12.4663 19.4002 12.1916ZM9.99856 14.1666C7.69739 14.1666 5.83189 12.3012 5.83189 9.99995C5.83189 7.69875 7.69736 5.83329 9.99856 5.83329C12.2998 5.83329 14.1652 7.69875 14.1652 9.99995C14.1624 12.3 12.2986 14.1639 9.99856 14.1666Z" fill="#2C6DF9"/>
</svg>
