<svg width="52" height="52" viewBox="0 0 52 52" fill="none" xmlns="http://www.w3.org/2000/svg">
<circle cx="26" cy="26" r="26" fill="#F2F2FF"/>
<rect width="18" height="18" transform="translate(17 17)" fill="#EBF1FE"/>
<path d="M34.3571 21.5H31.1429V17.6429C31.1429 17.2878 30.855 17 30.5 17H17.6429C17.2878 17 17 17.2878 17 17.6429V32.4286C17 33.8487 18.1513 35 19.5714 35H32.4286C33.8487 35 35 33.8487 35 32.4286V22.1428C35 21.7878 34.7122 21.5 34.3571 21.5ZM22.1428 20.2143H26C26.355 20.2143 26.6428 20.5021 26.6428 20.8571C26.6428 21.2122 26.355 21.5 26 21.5H22.1428C21.7878 21.5 21.5 21.2122 21.5 20.8571C21.5 20.5021 21.7878 20.2143 22.1428 20.2143ZM27.9286 32.4286H20.2143C19.8592 32.4286 19.5714 32.1407 19.5714 31.7857C19.5714 31.4306 19.8592 31.1428 20.2143 31.1428H27.9286C28.2836 31.1428 28.5714 31.4306 28.5714 31.7857C28.5714 32.1407 28.2836 32.4286 27.9286 32.4286ZM27.9286 29.8571H20.2143C19.8592 29.8571 19.5714 29.5693 19.5714 29.2143C19.5714 28.8592 19.8592 28.5714 20.2143 28.5714H27.9286C28.2836 28.5714 28.5714 28.8592 28.5714 29.2143C28.5714 29.5693 28.2836 29.8571 27.9286 29.8571ZM27.9286 27.2857H20.2143C19.8592 27.2857 19.5714 26.9979 19.5714 26.6428C19.5714 26.2878 19.8592 26 20.2143 26H27.9286C28.2836 26 28.5714 26.2878 28.5714 26.6428C28.5714 26.9979 28.2836 27.2857 27.9286 27.2857ZM27.9286 24.7143H20.2143C19.8592 24.7143 19.5714 24.4265 19.5714 24.0714C19.5714 23.7164 19.8592 23.4285 20.2143 23.4285H27.9286C28.2836 23.4285 28.5714 23.7164 28.5714 24.0714C28.5714 24.4265 28.2836 24.7143 27.9286 24.7143ZM33.7143 32.4286C33.7143 33.1386 33.1386 33.7143 32.4286 33.7143C31.7185 33.7143 31.1429 33.1386 31.1429 32.4286V22.7857H33.7143L33.7143 32.4286Z" fill="#2A2A72"/>
</svg>
