<svg width="52" height="52" viewBox="0 0 52 52" fill="none" xmlns="http://www.w3.org/2000/svg">
<circle cx="26" cy="26" r="26" fill="#E3FFF9"/>
<g clip-path="url(#clip0)">
<path d="M21.5001 17C21.145 17 20.8572 17.2878 20.8572 17.6429V18.9286H22.1429V17.6429C22.1429 17.2878 21.8551 17 21.5001 17Z" fill="#1AB88F"/>
<path d="M30.5 17C30.145 17 29.8572 17.2878 29.8572 17.6429V18.9286H31.1429V17.6429C31.1429 17.2878 30.8551 17 30.5 17Z" fill="#1AB88F"/>
<path d="M33.0714 18.9286H31.1429V21.5C31.1429 21.8551 30.855 22.1429 30.5 22.1429C30.1449 22.1429 29.8571 21.8551 29.8571 21.5V18.9286H22.1428V21.5C22.1428 21.8551 21.855 22.1429 21.5 22.1429C21.1449 22.1429 20.8571 21.8551 20.8571 21.5V18.9286H18.9286C17.8634 18.9286 17 19.792 17 20.8571V33.0714C17 34.1366 17.8634 35 18.9286 35H33.0714C34.1365 35 35 34.1366 35 33.0714V20.8571C35 19.792 34.1365 18.9286 33.0714 18.9286ZM33.7143 33.0714C33.7143 33.4265 33.4264 33.7143 33.0714 33.7143H18.9286C18.5735 33.7143 18.2857 33.4265 18.2857 33.0714V24.7143H33.7143V33.0714Z" fill="#1AB88F"/>
<rect x="21.0908" y="27.6364" width="3.27273" height="3.27273" fill="#1AB88F"/>
<rect x="26.8181" y="27.6364" width="3.27273" height="3.27273" fill="#1AB88F"/>
</g>
<defs>
<clipPath id="clip0">
<rect width="18" height="18" fill="white" transform="translate(17 17)"/>
</clipPath>
</defs>
</svg>
