<svg width="34" height="34" viewBox="0 0 34 34" fill="none" xmlns="http://www.w3.org/2000/svg">
<g filter="url(#filter0_d_6620_7060)">
<circle cx="17" cy="17" r="12" fill="white"/>
</g>
<path fill-rule="evenodd" clip-rule="evenodd" d="M17.8868 17.0612L20.9991 13.9489C21.2285 13.7195 21.2285 13.3488 20.9991 13.1194C20.7696 12.8899 20.399 12.8899 20.1695 13.1194L17.0573 16.2317L13.945 13.1135C13.7155 12.884 13.3449 12.884 13.1154 13.1135C12.886 13.3429 12.886 13.7136 13.1154 13.943L16.2277 17.0612L13.1154 20.1735C12.886 20.4029 12.886 20.7736 13.1154 21.003C13.2272 21.1207 13.3743 21.1795 13.5273 21.1795C13.6802 21.1795 13.8273 21.1207 13.945 21.0089L17.0573 17.8908L20.1695 21.003C20.2872 21.1207 20.4343 21.1795 20.5873 21.1795C20.7402 21.1795 20.8873 21.1207 21.005 21.0089C21.2344 20.7795 21.2344 20.4088 21.005 20.1794L17.8868 17.0612Z" fill="#FD4546"/>
<defs>
<filter id="filter0_d_6620_7060" x="0" y="0" width="34" height="34" filterUnits="userSpaceOnUse" color-interpolation-filters="sRGB">
<feFlood flood-opacity="0" result="BackgroundImageFix"/>
<feColorMatrix in="SourceAlpha" type="matrix" values="0 0 0 0 0 0 0 0 0 0 0 0 0 0 0 0 0 0 127 0" result="hardAlpha"/>
<feOffset/>
<feGaussianBlur stdDeviation="2.5"/>
<feColorMatrix type="matrix" values="0 0 0 0 0 0 0 0 0 0 0 0 0 0 0 0 0 0 0.23 0"/>
<feBlend mode="normal" in2="BackgroundImageFix" result="effect1_dropShadow_6620_7060"/>
<feBlend mode="normal" in="SourceGraphic" in2="effect1_dropShadow_6620_7060" result="shape"/>
</filter>
</defs>
</svg>
