<svg width="35" height="34" viewBox="0 0 35 34" fill="none" xmlns="http://www.w3.org/2000/svg">
<g filter="url(#filter0_d_6547_7171)">
<ellipse cx="17.0837" cy="17" rx="12.0837" ry="12" fill="white"/>
</g>
<path d="M12.3906 12.4688H12.5859C12.7154 12.4688 12.8203 12.5737 12.8203 12.7031V14.5513C13.664 13.1142 15.2273 12.1507 17.0155 12.1563C19.6793 12.1646 21.8479 14.3439 21.8438 17.0077C21.8396 19.6793 19.6725 21.8438 17 21.8438C15.7514 21.8438 14.6132 21.3714 13.7543 20.5956C13.6545 20.5054 13.6498 20.3502 13.7449 20.2551L13.883 20.117C13.9709 20.029 14.1125 20.0249 14.2049 20.1081C14.945 20.7742 15.9245 21.1797 17 21.1797C19.2997 21.1797 21.1797 19.3178 21.1797 17C21.1797 14.7003 19.3178 12.8203 17 12.8203C15.3816 12.8203 13.9778 13.7398 13.2834 15.0859H15.2031C15.3326 15.0859 15.4375 15.1909 15.4375 15.3203V15.5156C15.4375 15.6451 15.3326 15.75 15.2031 15.75H12.3906C12.2612 15.75 12.1562 15.6451 12.1562 15.5156V12.7031C12.1562 12.5737 12.2612 12.4688 12.3906 12.4688ZM18.6728 18.6257L18.7647 18.4993C18.8408 18.3946 18.8177 18.2481 18.713 18.1719L17.3125 17.1534V14.2656C17.3125 14.1362 17.2076 14.0313 17.0781 14.0313H16.9219C16.7924 14.0313 16.6875 14.1362 16.6875 14.2656V17.4716L18.3454 18.6774C18.4501 18.7535 18.5967 18.7304 18.6728 18.6257Z" fill="#2C6DF9"/>
<defs>
<filter id="filter0_d_6547_7171" x="0" y="0" width="34.168" height="34" filterUnits="userSpaceOnUse" color-interpolation-filters="sRGB">
<feFlood flood-opacity="0" result="BackgroundImageFix"/>
<feColorMatrix in="SourceAlpha" type="matrix" values="0 0 0 0 0 0 0 0 0 0 0 0 0 0 0 0 0 0 127 0" result="hardAlpha"/>
<feOffset/>
<feGaussianBlur stdDeviation="2.5"/>
<feColorMatrix type="matrix" values="0 0 0 0 0 0 0 0 0 0 0 0 0 0 0 0 0 0 0.23 0"/>
<feBlend mode="normal" in2="BackgroundImageFix" result="effect1_dropShadow_6547_7171"/>
<feBlend mode="normal" in="SourceGraphic" in2="effect1_dropShadow_6547_7171" result="shape"/>
</filter>
</defs>
</svg>
