<svg xmlns="http://www.w3.org/2000/svg" width="10.56" height="13.001" viewBox="0 0 10.56 13.001">
  <defs>
    <style>
      .cls-1 {
        fill: #e81010;
      }
    </style>
  </defs>
  <g id="bin" transform="translate(0.003 0.001)">
    <path id="Path_51" data-name="Path 51" class="cls-1" d="M222.7,154.7a.3.3,0,0,0-.3.3v5.755a.3.3,0,1,0,.609,0v-5.755A.3.3,0,0,0,222.7,154.7Zm0,0" transform="translate(-215.63 -149.994)"/>
    <path id="Path_52" data-name="Path 52" class="cls-1" d="M104.7,154.7a.3.3,0,0,0-.3.3v5.755a.3.3,0,1,0,.609,0v-5.755A.3.3,0,0,0,104.7,154.7Zm0,0" transform="translate(-101.223 -149.994)"/>
    <path id="Path_53" data-name="Path 53" class="cls-1" d="M.861,3.869v7.5a1.68,1.68,0,0,0,.447,1.159A1.5,1.5,0,0,0,2.4,13H8.157a1.5,1.5,0,0,0,1.088-.47,1.68,1.68,0,0,0,.447-1.159v-7.5a1.163,1.163,0,0,0-.3-2.287H7.834V1.2A1.2,1.2,0,0,0,6.628,0h-2.7A1.2,1.2,0,0,0,2.719,1.2v.381H1.16a1.163,1.163,0,0,0-.3,2.287Zm7.3,8.522H2.4a.964.964,0,0,1-.926-1.02V3.9H9.082v7.475a.964.964,0,0,1-.926,1.02ZM3.328,1.2a.587.587,0,0,1,.6-.594h2.7a.587.587,0,0,1,.6.594v.381h-3.9Zm-2.168.99H9.393a.548.548,0,1,1,0,1.1H1.16a.548.548,0,0,1,0-1.1Zm0,0" transform="translate(0)"/>
    <path id="Path_54" data-name="Path 54" class="cls-1" d="M163.7,154.7a.3.3,0,0,0-.3.3v5.755a.3.3,0,1,0,.609,0v-5.755A.3.3,0,0,0,163.7,154.7Zm0,0" transform="translate(-158.426 -149.994)"/>
  </g>
</svg>
