<svg width="24" height="24" viewBox="0 0 24 24" fill="none" xmlns="http://www.w3.org/2000/svg">
<g clip-path="url(#clip0_15249_8688)">
<ellipse cx="12.0837" cy="12" rx="12.0837" ry="12" fill="#F3F6FC"/>
<path d="M11 7.5C11 8.32843 11.6716 9 12.5 9C13.3284 9 14 8.32843 14 7.5C14 6.67157 13.3284 6 12.5 6C11.6716 6 11 6.67157 11 7.5Z" fill="#2C6DF9"/>
<path d="M11 12.5C11 13.3284 11.6716 14 12.5 14C13.3284 14 14 13.3284 14 12.5C14 11.6716 13.3284 11 12.5 11C11.6716 11 11 11.6716 11 12.5Z" fill="#2C6DF9"/>
<path d="M11 17.5C11 18.3284 11.6716 19 12.5 19C13.3284 19 14 18.3284 14 17.5C14 16.6716 13.3284 16 12.5 16C11.6716 16 11 16.6716 11 17.5Z" fill="#2C6DF9"/>
</g>
<defs>
<clipPath id="clip0_15249_8688">
<rect width="24" height="24" fill="white"/>
</clipPath>
</defs>
</svg>
