<svg width="43" height="43" viewBox="0 0 43 43" fill="none" xmlns="http://www.w3.org/2000/svg">
<circle cx="21.5" cy="21.5" r="21.5" fill="#E6EDFE"/>
<path d="M17.5 13C17.1449 13 16.8571 13.2878 16.8571 13.6429V14.9286H18.1428V13.6429C18.1428 13.2878 17.855 13 17.5 13Z" fill="#2C6DF9"/>
<path d="M26.5 13C26.1449 13 25.8571 13.2878 25.8571 13.6429V14.9286H27.1428V13.6429C27.1429 13.2878 26.855 13 26.5 13Z" fill="#2C6DF9"/>
<path d="M29.0714 14.9277H27.1429V17.4992C27.1429 17.8542 26.855 18.142 26.5 18.142C26.1449 18.142 25.8571 17.8542 25.8571 17.4992V14.9277H18.1428V17.4992C18.1428 17.8542 17.855 18.142 17.5 18.142C17.1449 18.142 16.8571 17.8542 16.8571 17.4992V14.9277H14.9286C13.8634 14.9277 13 15.7912 13 16.8563V29.0706C13 30.1357 13.8634 30.9992 14.9286 30.9992H29.0714C30.1365 30.9992 31 30.1357 31 29.0706V16.8563C31 15.7912 30.1365 14.9277 29.0714 14.9277ZM29.7143 29.0706C29.7143 29.4257 29.4264 29.7135 29.0714 29.7135H14.9286C14.5735 29.7135 14.2857 29.4257 14.2857 29.0706V20.7134H29.7143V29.0706Z" fill="#2C6DF9"/>
<rect x="17.0908" y="23.6367" width="3.27273" height="3.27273" fill="#2C6DF9"/>
<rect x="22.8181" y="23.6367" width="3.27273" height="3.27273" fill="#2C6DF9"/>
</svg>
