<svg width="43" height="43" viewBox="0 0 43 43" fill="none" xmlns="http://www.w3.org/2000/svg">
<circle opacity="0.2" cx="21.5" cy="21.5" r="21.5" fill="#00C2FF"/>
<circle cx="21.5" cy="21.5" r="15.5" fill="#00C2FF"/>
<path d="M20.6406 26H19.1641V22.209H15.3496V26H13.8672V17.4688H15.3496V21.0195H19.1641V17.4688H20.6406V26ZM25.5332 22.7129H23.8809V26H22.3984V17.4688H25.3984C26.3828 17.4688 27.1426 17.6895 27.6777 18.1309C28.2129 18.5723 28.4805 19.2109 28.4805 20.0469C28.4805 20.6172 28.3418 21.0957 28.0645 21.4824C27.791 21.8652 27.4082 22.1602 26.916 22.3672L28.832 25.9238V26H27.2441L25.5332 22.7129ZM23.8809 21.5234H25.4043C25.9043 21.5234 26.2949 21.3984 26.5762 21.1484C26.8574 20.8945 26.998 20.5488 26.998 20.1113C26.998 19.6543 26.8672 19.3008 26.6055 19.0508C26.3477 18.8008 25.9609 18.6719 25.4453 18.6641H23.8809V21.5234Z" fill="white"/>
</svg>
