<svg width="16" height="16" viewBox="0 0 16 16" fill="none" xmlns="http://www.w3.org/2000/svg">
<path d="M15.3392 0.660806L13.6565 2.34355C12.2089 0.89571 10.2092 0 8.00003 0C3.59161 0 -0.00322364 3.59758 2.1693e-06 8.00597C0.00322798 12.4215 3.58371 16 8 16C10.0621 16 11.942 15.2198 13.3606 13.9384C13.5255 13.7895 13.5333 13.5333 13.3761 13.3761L12.7394 12.7394C12.5943 12.5943 12.3603 12.585 12.2071 12.7216C11.0899 13.7176 9.61629 14.3226 8 14.3226C4.50578 14.3226 1.67742 11.4948 1.67742 8C1.67742 4.50577 4.50523 1.67742 8 1.67742C9.74719 1.67742 11.3276 2.38461 12.4714 3.52858L10.7254 5.27468C10.4815 5.51855 10.6542 5.93548 10.9991 5.93548H15.6129C15.8267 5.93548 16 5.76216 16 5.54839V0.934548C16 0.589677 15.583 0.416968 15.3392 0.660806V0.660806Z" fill="#FF6C6C"/>
</svg>
