<svg width="23" height="22" viewBox="0 0 23 22" fill="none" xmlns="http://www.w3.org/2000/svg">
<path d="M5.74447 9.78867H6.21114" stroke="#231F20" stroke-width="1.5" stroke-linecap="round" stroke-linejoin="round"/>
<path d="M5.74447 14.7664H6.21114" stroke="#231F20" stroke-width="1.5" stroke-linecap="round" stroke-linejoin="round"/>
<path d="M10.7222 9.78867H11.1889" stroke="#231F20" stroke-width="1.5" stroke-linecap="round" stroke-linejoin="round"/>
<path d="M10.7222 14.7664H11.1889" stroke="#231F20" stroke-width="1.5" stroke-linecap="round" stroke-linejoin="round"/>
<path d="M15.7778 9.78867H16.1667" stroke="#231F20" stroke-width="1.5" stroke-linecap="round" stroke-linejoin="round"/>
<circle cx="17.7222" cy="16.7887" r="4.2" stroke="#231F20" stroke-width="1.5" stroke-linecap="round" stroke-linejoin="round"/>
<path d="M13.7556 17.8776H2.94447C2.08892 17.8776 1.38892 17.1776 1.38892 16.322V4.03312C1.38892 3.17756 2.08892 2.47756 2.94447 2.47756H19.2778C20.1334 2.47756 20.8334 3.17756 20.8334 4.03312V11.1109" stroke="#231F20" stroke-width="1.5" stroke-linecap="round" stroke-linejoin="round"/>
<path d="M5.74447 1.38867V3.72201" stroke="#231F20" stroke-width="1.5" stroke-linecap="round" stroke-linejoin="round"/>
<path d="M16.9445 1.38867V3.72201" stroke="#231F20" stroke-width="1.5" stroke-linecap="round" stroke-linejoin="round"/>
<path d="M1.38892 6.59978C1.7778 6.52201 18.8889 6.59978 18.8889 6.59978" stroke="#231F20" stroke-width="1.5" stroke-linecap="round" stroke-linejoin="round"/>
<path d="M17.8778 15.1553V18.3442" stroke="#231F20" stroke-width="1.5" stroke-linecap="round" stroke-linejoin="round"/>
<path d="M16.3223 16.7887H19.3556" stroke="#231F20" stroke-width="1.5" stroke-linecap="round" stroke-linejoin="round"/>
</svg>
