<svg width="14" height="18" viewBox="0 0 14 18" fill="none" xmlns="http://www.w3.org/2000/svg">
<path d="M0 9C0 9.23869 0.0921874 9.46761 0.256282 9.6364C0.420376 9.80518 0.642936 9.9 0.875 9.9H7.51625L5.50375 11.961C5.42174 12.0447 5.35664 12.1442 5.31222 12.2539C5.2678 12.3636 5.24493 12.4812 5.24493 12.6C5.24493 12.7188 5.2678 12.8364 5.31222 12.9461C5.35664 13.0558 5.42174 13.1553 5.50375 13.239C5.58509 13.3234 5.68187 13.3903 5.7885 13.436C5.89512 13.4817 6.00949 13.5052 6.125 13.5052C6.24051 13.5052 6.35488 13.4817 6.4615 13.436C6.56813 13.3903 6.66491 13.3234 6.74625 13.239L10.2463 9.639C10.3259 9.55341 10.3884 9.45248 10.43 9.342C10.5175 9.12288 10.5175 8.87711 10.43 8.658C10.3884 8.54752 10.3259 8.44659 10.2463 8.361L6.74625 4.761C6.66467 4.67709 6.56781 4.61052 6.46122 4.56511C6.35462 4.51969 6.24038 4.49632 6.125 4.49632C6.00962 4.49632 5.89538 4.51969 5.78878 4.56511C5.68219 4.61052 5.58533 4.67709 5.50375 4.761C5.42217 4.84491 5.35745 4.94454 5.3133 5.05418C5.26914 5.16382 5.24642 5.28133 5.24642 5.4C5.24642 5.51867 5.26914 5.63618 5.3133 5.74582C5.35745 5.85546 5.42217 5.95509 5.50375 6.039L7.51625 8.1H0.875C0.642936 8.1 0.420376 8.19482 0.256282 8.3636C0.0921874 8.53239 0 8.7613 0 9V9ZM11.375 0H2.625C1.92881 0 1.26113 0.284464 0.768845 0.790812C0.276562 1.29716 0 1.98392 0 2.7V5.4C0 5.63869 0.0921874 5.86761 0.256282 6.0364C0.420376 6.20518 0.642936 6.3 0.875 6.3C1.10706 6.3 1.32962 6.20518 1.49372 6.0364C1.65781 5.86761 1.75 5.63869 1.75 5.4V2.7C1.75 2.46131 1.84219 2.23239 2.00628 2.0636C2.17038 1.89482 2.39294 1.8 2.625 1.8H11.375C11.6071 1.8 11.8296 1.89482 11.9937 2.0636C12.1578 2.23239 12.25 2.46131 12.25 2.7V15.3C12.25 15.5387 12.1578 15.7676 11.9937 15.9364C11.8296 16.1052 11.6071 16.2 11.375 16.2H2.625C2.39294 16.2 2.17038 16.1052 2.00628 15.9364C1.84219 15.7676 1.75 15.5387 1.75 15.3V12.6C1.75 12.3613 1.65781 12.1324 1.49372 11.9636C1.32962 11.7948 1.10706 11.7 0.875 11.7C0.642936 11.7 0.420376 11.7948 0.256282 11.9636C0.0921874 12.1324 0 12.3613 0 12.6V15.3C0 16.0161 0.276562 16.7028 0.768845 17.2092C1.26113 17.7155 1.92881 18 2.625 18H11.375C12.0712 18 12.7389 17.7155 13.2312 17.2092C13.7234 16.7028 14 16.0161 14 15.3V2.7C14 1.98392 13.7234 1.29716 13.2312 0.790812C12.7389 0.284464 12.0712 0 11.375 0Z" fill="black"/>
</svg>
