<svg width="22" height="22" viewBox="0 0 22 22" fill="none" xmlns="http://www.w3.org/2000/svg">
<path d="M11 11.9167C11.5063 11.9167 11.9167 11.5063 11.9167 11C11.9167 10.4937 11.5063 10.0833 11 10.0833C10.4937 10.0833 10.0833 10.4937 10.0833 11C10.0833 11.5063 10.4937 11.9167 11 11.9167Z" fill="black"/>
<path d="M14.6667 11.9167C15.1729 11.9167 15.5833 11.5063 15.5833 11C15.5833 10.4937 15.1729 10.0833 14.6667 10.0833C14.1604 10.0833 13.75 10.4937 13.75 11C13.75 11.5063 14.1604 11.9167 14.6667 11.9167Z" fill="black"/>
<path d="M7.33333 11.9167C7.83959 11.9167 8.25 11.5063 8.25 11C8.25 10.4937 7.83959 10.0833 7.33333 10.0833C6.82707 10.0833 6.41667 10.4937 6.41667 11C6.41667 11.5063 6.82707 11.9167 7.33333 11.9167Z" fill="black"/>
<path d="M17.4809 4.51963C15.9769 3.00576 13.9918 2.06408 11.8678 1.85694C9.74391 1.6498 7.61426 2.19018 5.84605 3.38492C4.07783 4.57966 2.78186 6.35389 2.18156 8.40173C1.58126 10.4496 1.71425 12.6427 2.55761 14.603C2.64551 14.7852 2.67435 14.9903 2.64011 15.1896L1.83344 19.0671C1.80236 19.2158 1.80871 19.3699 1.85191 19.5155C1.89511 19.6611 1.97381 19.7936 2.08094 19.9013C2.16876 19.9885 2.27333 20.057 2.38833 20.1027C2.50334 20.1484 2.6264 20.1703 2.75011 20.1671H2.93344L6.85678 19.3788C7.05618 19.3548 7.25838 19.3833 7.44344 19.4613C9.40373 20.3047 11.5968 20.4376 13.6447 19.8373C15.6925 19.237 17.4667 17.9411 18.6615 16.1729C19.8562 14.4046 20.3966 12.275 20.1895 10.1511C19.9823 8.02713 19.0407 6.04202 17.5268 4.53797L17.4809 4.51963ZM18.2418 12.183C18.0626 13.2774 17.6374 14.317 16.9984 15.2235C16.3593 16.1299 15.523 16.8796 14.5523 17.4161C13.5817 17.9526 12.502 18.262 11.3945 18.3209C10.287 18.3798 9.18055 18.1868 8.15844 17.7563C7.79594 17.6021 7.40653 17.5211 7.01261 17.518C6.84053 17.5192 6.66884 17.5345 6.49928 17.5638L3.91428 18.0863L4.43678 15.5013C4.54084 14.9415 4.47376 14.3633 4.24428 13.8421C3.8138 12.82 3.62076 11.7136 3.67969 10.6061C3.73862 9.4986 4.04798 8.4189 4.58449 7.44825C5.121 6.47759 5.87068 5.64126 6.77711 5.00221C7.68355 4.36316 8.72313 3.93802 9.81761 3.7588C10.9664 3.57025 12.1437 3.65794 13.2519 4.0146C14.3601 4.37127 15.3675 4.98666 16.1907 5.80987C17.0139 6.63309 17.6293 7.64047 17.986 8.74869C18.3426 9.85692 18.4303 11.0341 18.2418 12.183V12.183Z" fill="black"/>
</svg>
