<svg width="43" height="43" viewBox="0 0 43 43" fill="none" xmlns="http://www.w3.org/2000/svg">
<circle cx="21.5" cy="21.5" r="21.5" fill="#E6EDFE"/>
<path fill-rule="evenodd" clip-rule="evenodd" d="M16.2578 15.2739C16.6014 14.9087 17.1587 14.9087 17.5024 15.2739L22.116 20.1773L22.1163 20.1769L22.7386 20.8383C22.7493 20.8497 22.7596 20.8612 22.7696 20.873C23.0849 21.2363 23.0766 21.8024 22.7448 22.155L22.1163 22.8231L22.116 22.8228L17.5024 27.7261C17.1587 28.0913 16.6014 28.0913 16.2578 27.7261C15.9141 27.3608 15.9141 26.7686 16.2578 26.4033L20.8714 21.5L16.2578 16.5967C15.9141 16.2314 15.9141 15.6392 16.2578 15.2739Z" fill="#2C6DF9"/>
<path fill-rule="evenodd" clip-rule="evenodd" d="M21.2578 15.2739C21.6014 14.9087 22.1587 14.9087 22.5024 15.2739L27.116 20.1773L27.1163 20.1769L27.7386 20.8383C27.7493 20.8497 27.7596 20.8612 27.7696 20.873C28.0849 21.2363 28.0766 21.8024 27.7448 22.155L27.1163 22.8231L27.116 22.8228L22.5024 27.7261C22.1587 28.0913 21.6014 28.0913 21.2578 27.7261C20.9141 27.3608 20.9141 26.7686 21.2578 26.4033L25.8714 21.5L21.2578 16.5967C20.9141 16.2314 20.9141 15.6392 21.2578 15.2739Z" fill="#2C6DF9"/>
</svg>
