<svg width="17" height="18" viewBox="0 0 17 18" fill="none" xmlns="http://www.w3.org/2000/svg">
<path d="M14.2211 2.77889L12.7947 4.20527C11.5677 2.978 9.87264 2.21875 8.00003 2.21875C4.26321 2.21875 1.21602 5.26826 1.21875 9.00506C1.22149 12.7479 4.25651 15.7812 8 15.7812C9.74798 15.7812 11.3415 15.1199 12.5439 14.0338C12.6837 13.9075 12.6903 13.6903 12.5571 13.5571L12.0174 13.0174C11.8944 12.8944 11.696 12.8865 11.5662 13.0023C10.6192 13.8466 9.37006 14.3594 8 14.3594C5.0381 14.3594 2.64063 11.9624 2.64063 9C2.64063 6.0381 5.03763 3.64062 8 3.64062C9.48102 3.64062 10.8207 4.24008 11.7902 5.20977L10.3102 6.68986C10.1034 6.89658 10.2498 7.25 10.5422 7.25H14.4531C14.6343 7.25 14.7813 7.10308 14.7813 6.92188V3.01093C14.7813 2.71859 14.4278 2.5722 14.2211 2.77889Z" fill="#FFA100"/>
</svg>
