<svg width="24" height="13" viewBox="0 0 24 13" fill="none" xmlns="http://www.w3.org/2000/svg">
<path d="M6.41002 11.9481L6.23324 11.7713L0.945292 6.48285C0.945247 6.4828 0.945203 6.48276 0.945159 6.48272C0.684998 6.22325 0.684947 5.80189 0.945006 5.54236C1.20451 5.28233 1.62581 5.28235 1.88528 5.54243C1.88535 5.5425 1.88542 5.54257 1.88549 5.54265L6.41054 10.0682L15.5322 0.945021L15.5322 0.945006C15.7919 0.685245 16.2127 0.684745 16.4724 0.945024C16.7324 1.2045 16.7324 1.62573 16.4724 1.8852L6.41002 11.9481ZM6.41002 11.9481L6.5868 11.7713L16.4721 1.88549L6.41002 11.9481Z" fill="#00C598" stroke="#00C598" stroke-width="0.5"/>
<path d="M12.9931 10.0682L22.115 0.945292C22.115 0.945268 22.115 0.945245 22.115 0.945222C22.3748 0.684745 22.7956 0.685179 23.0555 0.945006C23.3147 1.20423 23.3152 1.62547 23.0555 1.88468L12.9931 10.0682ZM12.9931 10.0682L11.3801 8.45519L11.2033 8.27841L11.0265 8.45519L10.4399 9.04184L10.2631 9.21863L10.4399 9.39541L12.8163 11.7713L12.9931 11.9481L13.1699 11.7713L23.0552 1.88497L12.9931 10.0682Z" fill="#00C598" stroke="#00C598" stroke-width="0.5"/>
</svg>
