<svg width="16" height="16" viewBox="0 0 16 16" fill="none" xmlns="http://www.w3.org/2000/svg">
<path fill-rule="evenodd" clip-rule="evenodd" d="M5.86971 5.4885H3.12219C2.90835 5.4885 2.73339 5.31354 2.73339 5.0997V2.35218C2.73339 2.13834 2.90835 1.96338 3.12219 1.96338C3.33603 1.96338 3.51099 2.13834 3.51099 2.35218V4.03824C4.54499 3.02659 5.94123 2.44305 7.41195 2.44305C8.95419 2.44305 10.3928 3.05865 11.4684 4.18617C12.4469 5.22297 12.9848 6.58375 12.9848 8.01583C12.9848 11.0874 10.4835 13.5886 7.41195 13.5886C5.97988 13.5886 4.61908 13.0508 3.5758 12.0658C3.42028 11.9168 3.4138 11.6706 3.56284 11.515C3.71188 11.3595 3.95812 11.353 4.11364 11.5021C5.00788 12.3445 6.18076 12.811 7.41195 12.811C10.0558 12.811 12.2072 10.6597 12.2072 8.01583C12.2072 6.77815 11.7406 5.61177 10.9047 4.71753C9.97803 3.75201 8.74035 3.22065 7.41195 3.22065C6.08756 3.22065 4.83531 3.7663 3.93359 4.71089H5.86971C6.08355 4.71089 6.25851 4.88586 6.25851 5.0997C6.25851 5.31354 6.08355 5.4885 5.86971 5.4885Z" fill="#FF6C6C" stroke="#FF6C6C" stroke-width="0.6"/>
</svg>
