<svg width="35" height="34" viewBox="0 0 35 34" fill="none" xmlns="http://www.w3.org/2000/svg">
<g filter="url(#filter0_d_7682_7686)">
<ellipse cx="17.0837" cy="17" rx="12.0837" ry="12" fill="white"/>
</g>
<path d="M10 17.2273C10 17.2273 12.6136 12 17.1875 12C21.7614 12 24.375 17.2273 24.375 17.2273C24.375 17.2273 21.7614 22.4545 17.1875 22.4545C12.6136 22.4545 10 17.2273 10 17.2273Z" stroke="#2C6DF9" stroke-linecap="round" stroke-linejoin="round"/>
<path d="M17.1868 19.188C18.2694 19.188 19.147 18.3104 19.147 17.2278C19.147 16.1452 18.2694 15.2676 17.1868 15.2676C16.1042 15.2676 15.2266 16.1452 15.2266 17.2278C15.2266 18.3104 16.1042 19.188 17.1868 19.188Z" stroke="#2C6DF9" stroke-linecap="round" stroke-linejoin="round"/>
<defs>
<filter id="filter0_d_7682_7686" x="0" y="0" width="34.168" height="34" filterUnits="userSpaceOnUse" color-interpolation-filters="sRGB">
<feFlood flood-opacity="0" result="BackgroundImageFix"/>
<feColorMatrix in="SourceAlpha" type="matrix" values="0 0 0 0 0 0 0 0 0 0 0 0 0 0 0 0 0 0 127 0" result="hardAlpha"/>
<feOffset/>
<feGaussianBlur stdDeviation="2.5"/>
<feColorMatrix type="matrix" values="0 0 0 0 0 0 0 0 0 0 0 0 0 0 0 0 0 0 0.23 0"/>
<feBlend mode="normal" in2="BackgroundImageFix" result="effect1_dropShadow_7682_7686"/>
<feBlend mode="normal" in="SourceGraphic" in2="effect1_dropShadow_7682_7686" result="shape"/>
</filter>
</defs>
</svg>
