<?xml version="1.0" encoding="utf-8"?>
<!-- Generator: Adobe Illustrator 23.0.4, SVG Export Plug-In . SVG Version: 6.00 Build 0)  -->
<svg version="1.1" id="Layer_1" xmlns="http://www.w3.org/2000/svg" xmlns:xlink="http://www.w3.org/1999/xlink" x="0px" y="0px"
	 viewBox="0 0 18 18" style="enable-background:new 0 0 18 18;" xml:space="preserve">
<style type="text/css">
	.st0{fill:#00C598;}
</style>
<g>
	<g>
		<path class="st0" d="M0.5,8.7C0,8.7-0.2,8,0.2,7.7l8.5-7.4c0.3-0.2,0.8-0.2,1.1,0l8,7.4c0.3,0.3,0.1,1-0.3,1H0.5z"/>
		<path class="st0" d="M6.1,17.9H2.6c-0.4,0-0.8-0.3-0.8-0.8v-9v-1L16,6.2v10.9c0,0.5-0.3,0.8-0.8,0.8h-4.3v-3.8
			c0-0.4-0.3-0.8-0.8-0.8H7.6c-0.5,0-0.8,0.3-0.8,0.8v3.8L6.1,17.9L6.1,17.9z"/>
	</g>
</g>
</svg>
