<?xml version="1.0" encoding="utf-8"?>
<!-- Generator: Adobe Illustrator 23.0.4, SVG Export Plug-In . SVG Version: 6.00 Build 0)  -->
<svg version="1.1" id="Layer_1" xmlns="http://www.w3.org/2000/svg" xmlns:xlink="http://www.w3.org/1999/xlink" x="0px" y="0px"
	 viewBox="0 0 18 18" style="enable-background:new 0 0 18 18;" xml:space="preserve">
<style type="text/css">
	.st0{fill:#00C598;}
</style>
<g>
	<g>
		<path class="st0" d="M14.1,17.5l3.5-3c0.2-0.2,0.4-0.5,0.4-0.8s-0.2-0.7-0.4-0.8l-3.5-2.9C13.7,9.5,13,9.6,12.5,10
			c-0.2,0.2-0.2,0.5-0.2,0.7c0,0.3,0.1,0.7,0.4,0.8l1.1,1h-5c-0.7,0-1.1,0.5-1.1,1.1s0.5,1.1,1.1,1.1h5l-1.2,1.1
			c-0.4,0.4-0.5,1.1-0.1,1.5C12.9,17.8,13.5,17.9,14.1,17.5z"/>
		<path class="st0" d="M9.2,6.3c1.5-1.5,1.5-3.7,0-5.2S5.5-0.4,4,1S2.5,4.9,4,6.3S7.7,7.7,9.2,6.3z"/>
		<path class="st0" d="M11.2,15.9H8.8c-1.2,0-2.3-1-2.3-2.3s1-2.2,2.2-2.2h2.4c-0.1-0.2-0.1-0.4-0.1-0.7s0.1-0.6,0.2-0.8
			c-1.1-1-2.9-1.6-4.8-1.6C2.9,8.3,0,10.4,0,13.1v3.7c0,0.7,0.5,1.1,1.1,1.1h10.3C11,17.3,11,16.6,11.2,15.9z"/>
	</g>
</g>
</svg>
