<svg width="35" height="34" viewBox="0 0 35 34" fill="none" xmlns="http://www.w3.org/2000/svg">
<g filter="url(#filter0_d_16118_13907)">
<ellipse cx="17.3181" cy="17" rx="12.0837" ry="12" fill="white"/>
</g>
<path d="M13.2891 14.5H21.3449" stroke="#FD4546" stroke-width="0.75" stroke-linecap="round" stroke-linejoin="round"/>
<path d="M16.3105 16.5V19.5" stroke="#FD4546" stroke-width="0.75" stroke-linecap="round" stroke-linejoin="round"/>
<path d="M18.3242 16.5V19.5" stroke="#FD4546" stroke-width="0.75" stroke-linecap="round" stroke-linejoin="round"/>
<path d="M13.793 14.5L14.2965 20.5C14.2965 20.7652 14.4026 21.0196 14.5914 21.2071C14.7802 21.3946 15.0364 21.5 15.3034 21.5H19.3314C19.5984 21.5 19.8546 21.3946 20.0434 21.2071C20.2322 21.0196 20.3383 20.7652 20.3383 20.5L20.8418 14.5" stroke="#FD4546" stroke-width="0.75" stroke-linecap="round" stroke-linejoin="round"/>
<path d="M15.8066 14.5V13C15.8066 12.8674 15.8597 12.7402 15.9541 12.6464C16.0485 12.5527 16.1766 12.5 16.3101 12.5H18.3241C18.4576 12.5 18.5857 12.5527 18.6801 12.6464C18.7745 12.7402 18.8276 12.8674 18.8276 13V14.5" stroke="#FD4546" stroke-width="0.75" stroke-linecap="round" stroke-linejoin="round"/>
<defs>
<filter id="filter0_d_16118_13907" x="0.234375" y="0" width="34.168" height="34" filterUnits="userSpaceOnUse" color-interpolation-filters="sRGB">
<feFlood flood-opacity="0" result="BackgroundImageFix"/>
<feColorMatrix in="SourceAlpha" type="matrix" values="0 0 0 0 0 0 0 0 0 0 0 0 0 0 0 0 0 0 127 0" result="hardAlpha"/>
<feOffset/>
<feGaussianBlur stdDeviation="2.5"/>
<feColorMatrix type="matrix" values="0 0 0 0 0 0 0 0 0 0 0 0 0 0 0 0 0 0 0.23 0"/>
<feBlend mode="normal" in2="BackgroundImageFix" result="effect1_dropShadow_16118_13907"/>
<feBlend mode="normal" in="SourceGraphic" in2="effect1_dropShadow_16118_13907" result="shape"/>
</filter>
</defs>
</svg>
