<svg width="35" height="34" viewBox="0 0 35 34" fill="none" xmlns="http://www.w3.org/2000/svg">
<g filter="url(#filter0_d_4901_9196)">
<ellipse cx="17.3201" cy="17" rx="12.0837" ry="12" fill="white"/>
</g>
<path d="M13.291 14.5H21.3468" stroke="#FD4546" stroke-width="0.75" stroke-linecap="round" stroke-linejoin="round"/>
<path d="M16.3125 16.5V19.5" stroke="#FD4546" stroke-width="0.75" stroke-linecap="round" stroke-linejoin="round"/>
<path d="M18.3262 16.5V19.5" stroke="#FD4546" stroke-width="0.75" stroke-linecap="round" stroke-linejoin="round"/>
<path d="M13.7949 14.5L14.2984 20.5C14.2984 20.7652 14.4045 21.0196 14.5933 21.2071C14.7822 21.3946 15.0383 21.5 15.3054 21.5H19.3333C19.6004 21.5 19.8565 21.3946 20.0453 21.2071C20.2342 21.0196 20.3403 20.7652 20.3403 20.5L20.8438 14.5" stroke="#FD4546" stroke-width="0.75" stroke-linecap="round" stroke-linejoin="round"/>
<path d="M15.8086 14.5V13C15.8086 12.8674 15.8616 12.7402 15.9561 12.6464C16.0505 12.5527 16.1785 12.5 16.3121 12.5H18.326C18.4596 12.5 18.5876 12.5527 18.6821 12.6464C18.7765 12.7402 18.8295 12.8674 18.8295 13V14.5" stroke="#FD4546" stroke-width="0.75" stroke-linecap="round" stroke-linejoin="round"/>
<defs>
<filter id="filter0_d_4901_9196" x="0.236328" y="0" width="34.168" height="34" filterUnits="userSpaceOnUse" color-interpolation-filters="sRGB">
<feFlood flood-opacity="0" result="BackgroundImageFix"/>
<feColorMatrix in="SourceAlpha" type="matrix" values="0 0 0 0 0 0 0 0 0 0 0 0 0 0 0 0 0 0 127 0" result="hardAlpha"/>
<feOffset/>
<feGaussianBlur stdDeviation="2.5"/>
<feColorMatrix type="matrix" values="0 0 0 0 0 0 0 0 0 0 0 0 0 0 0 0 0 0 0.23 0"/>
<feBlend mode="normal" in2="BackgroundImageFix" result="effect1_dropShadow_4901_9196"/>
<feBlend mode="normal" in="SourceGraphic" in2="effect1_dropShadow_4901_9196" result="shape"/>
</filter>
</defs>
</svg>
