<svg width="12" height="17" viewBox="0 0 12 17" fill="none" xmlns="http://www.w3.org/2000/svg">
<path d="M7.49975 0H1.12457C0.525326 0 0 0.524666 0 1.12523V15.3744C0 15.9743 0.524666 16.4996 1.12523 16.4996H10.8748C11.4747 16.4996 12 15.9749 12 15.3744V4.49959L9.37535 2.62465L7.49975 0Z" fill="#4285F4"/>
<path d="M3 11.9989H8.99967V11.2492H3.00066L3 11.9989ZM3 13.499H7.49959V12.7493H3V13.499ZM3 8.24902V8.99873H8.99967V8.24902H3ZM3 10.4988H8.99967V9.74911H3.00066L3 10.4988Z" fill="#F1F1F1"/>
<path d="M7.5 0V3.37502C7.5 3.97492 8.02467 4.49959 8.62457 4.49959H11.9996L7.5 0Z" fill="#A1C2FA"/>
</svg>
