<svg width="23" height="24" viewBox="0 0 23 24" fill="none" xmlns="http://www.w3.org/2000/svg">
<g id="pdf-2">
<path id="Path" d="M3.88716 0L0 3.88716V24H17.6V0H3.88716Z" fill="#E2574C"/>
<path id="Shape" fill-rule="evenodd" clip-rule="evenodd" d="M15.4134 16.56C15.0201 16.1109 14.4453 15.7994 13.7956 15.6829C12.7682 15.4988 11.7928 15.431 10.876 15.4479C10.0416 14.6052 9.23479 13.6105 8.68422 12.5179C9.16581 10.9295 9.42058 9.55587 9.56392 8.782C9.63772 8.3842 9.52743 7.96097 9.26867 7.64978C9.02416 7.35597 8.67048 7.18756 8.2983 7.18756H8.29743C7.93551 7.18771 7.62801 7.33562 7.4083 7.61519C6.67276 8.55178 7.17547 10.819 7.28407 11.2652C7.39523 11.7171 7.55308 12.1571 7.74716 12.5836C7.3653 13.7874 6.85034 15.0947 6.15329 16.3315C3.82674 17.18 2.44064 18.346 2.32691 18.444C1.94075 18.8196 1.74984 19.1968 1.75983 19.5652C1.76552 19.774 1.8405 20.0826 2.16594 20.3667C2.41527 20.5842 2.7342 20.6929 3.0582 20.6929C3.38676 20.6929 3.72076 20.5811 3.99208 20.3578C5.11517 19.4336 6.01512 18.2867 6.73723 17.0687C7.81814 16.7005 9.09796 16.4097 10.5382 16.3408C11.5741 17.3437 12.6066 18.1093 13.2541 18.5537C13.9417 19.0256 14.8608 18.9644 15.4401 18.4089C15.982 17.8887 15.972 17.1975 15.4134 16.56ZM3.43691 19.6831C3.22857 19.8547 2.92307 19.8661 2.74273 19.7085C2.67349 19.6478 2.63756 19.5922 2.63613 19.5431C2.635 19.5027 2.6535 19.3498 2.91826 19.0912C2.93763 19.0748 3.80683 18.3438 5.32516 17.6376C4.78427 18.3912 4.15933 19.0886 3.43691 19.6831ZM8.29797 8.06425C8.19111 8.06425 8.14181 8.09987 8.09676 8.15716C7.74477 8.60524 7.90667 10.1233 8.13407 11.0584C8.14181 11.0893 8.14975 11.1201 8.15774 11.1509C8.43099 10.09 8.59689 9.19636 8.70182 8.63112L8.7032 8.62369V8.62354C8.73 8.4786 8.68982 8.32429 8.59547 8.21087C8.54991 8.15614 8.45069 8.06425 8.29797 8.06425ZM7.3436 15.9528C7.72746 15.1797 8.04808 14.3974 8.31652 13.6406C8.73232 14.3133 9.2236 14.9412 9.73999 15.5129C8.87653 15.5972 8.07544 15.754 7.3436 15.9528ZM13.7496 17.832C14.0969 18.0701 14.5532 18.0476 14.8339 17.7776C14.9445 17.6714 15.0958 17.5261 14.7553 17.137C14.4919 16.8366 14.0964 16.6263 13.6413 16.5448C13.0163 16.4328 12.4108 16.3672 11.8271 16.34C12.5743 16.9936 13.2725 17.5046 13.7496 17.832Z" fill="white"/>
<path id="Path_2" d="M3.88716 3.88716V0L0 3.88716H3.88716Z" fill="#B53629"/>
<path id="Path_3" d="M21.7618 6.58426H13.4419C13.0884 6.58426 12.8018 6.29772 12.8018 5.94425V2.38171C12.8018 2.02824 13.0884 1.7417 13.4419 1.7417H21.7618C22.1153 1.7417 22.4018 2.02824 22.4018 2.38171V5.94425C22.4018 6.29772 22.1153 6.58426 21.7618 6.58426Z" fill="#27A2DB"/>
<g id="Group">
<path id="Shape_2" fill-rule="evenodd" clip-rule="evenodd" d="M15.9779 3.77519C15.9779 3.45006 15.8844 3.20944 15.6976 3.05334C15.5107 2.89707 15.2138 2.81897 14.8067 2.81897H13.8851V5.50319H14.3382V4.71599H14.8145C15.2085 4.71599 15.501 4.6405 15.6917 4.48941C15.8826 4.33833 15.9779 4.10032 15.9779 3.77519ZM15.5119 3.73707C15.5119 3.9227 15.4665 4.06349 15.3756 4.15958C15.2847 4.25552 15.1137 4.30349 14.8628 4.30349H14.3369V3.22832H14.7975C15.0435 3.22832 15.2238 3.26675 15.3391 3.34348C15.4544 3.42035 15.5119 3.5516 15.5119 3.73707Z" fill="#EBF0F3"/>
<path id="Shape_3" fill-rule="evenodd" clip-rule="evenodd" d="M18.9312 4.14773C18.9312 3.7304 18.8021 3.4046 18.5434 3.17039C18.2849 2.93618 17.9149 2.81897 17.4337 2.81897H16.5121V5.50319H17.4031C17.92 5.50319 18.304 5.38162 18.555 5.13834C18.8059 4.89521 18.9312 4.5649 18.9312 4.14773ZM17.417 3.23603C18.1211 3.23603 18.473 3.54322 18.473 4.15761C18.473 4.45983 18.3867 4.68825 18.2139 4.84303C18.0411 4.99806 17.792 5.07539 17.4671 5.07539H16.9639V3.23603H17.417Z" fill="#EBF0F3"/>
<path id="Path_4" d="M19.9715 3.24349V3.98067H21.1619V4.39928H19.9715V5.5052H19.5184V2.82098H21.3078L21.3041 3.24349H19.9715Z" fill="#EBF0F3"/>
</g>
</g>
</svg>
