<svg width="15" height="15" viewBox="0 0 15 15" fill="none" xmlns="http://www.w3.org/2000/svg">
<g id="pdf-2">
<path id="Path" d="M2.42948 0L0 2.42948V15H11V0H2.42948Z" fill="#E2574C"/>
<path id="Shape" fill-rule="evenodd" clip-rule="evenodd" d="M9.63332 10.35C9.38752 10.0693 9.02829 9.87459 8.62219 9.80175C7.98009 9.6867 7.37044 9.64432 6.79744 9.65489C6.27593 9.12823 5.7717 8.50654 5.42759 7.82366C5.72858 6.83089 5.88781 5.97238 5.9774 5.48871C6.02353 5.24009 5.9546 4.97557 5.79287 4.78108C5.64005 4.59744 5.419 4.49219 5.18639 4.49219H5.18585C4.95964 4.49228 4.76745 4.58473 4.63014 4.75946C4.17042 5.34483 4.48462 6.76186 4.55249 7.04069C4.62197 7.32317 4.72062 7.59816 4.84193 7.86473C4.60326 8.61708 4.28141 9.43413 3.84575 10.2071C2.39166 10.7375 1.52535 11.4662 1.45427 11.5275C1.21291 11.7622 1.0936 11.9979 1.09984 12.2283C1.1034 12.3587 1.15026 12.5516 1.35366 12.7292C1.50949 12.8651 1.70882 12.933 1.91132 12.933C2.11667 12.933 2.32542 12.8631 2.495 12.7236C3.19693 12.146 3.7594 11.4292 4.21072 10.6679C4.88629 10.4378 5.68617 10.256 6.58635 10.2129C7.23377 10.8398 7.87907 11.3183 8.28375 11.596C8.71355 11.891 9.28793 11.8527 9.65004 11.5056C9.98868 11.1804 9.98243 10.7484 9.63332 10.35ZM2.14798 12.3019C2.01777 12.4091 1.82683 12.4163 1.71411 12.3178C1.67084 12.2798 1.64839 12.2451 1.64749 12.2144C1.64678 12.1892 1.65835 12.0936 1.82382 11.932C1.83593 11.9217 2.37918 11.4648 3.32814 11.0234C2.99008 11.4944 2.59949 11.9303 2.14798 12.3019ZM5.18636 5.04004C5.11957 5.04004 5.08876 5.0623 5.0606 5.09811C4.84061 5.37816 4.9418 6.32696 5.08392 6.9114C5.08876 6.93072 5.09372 6.94994 5.09872 6.96919C5.26949 6.30617 5.37317 5.74766 5.43876 5.39438L5.43876 5.39434V5.39434L5.43963 5.38969V5.3896C5.45638 5.29901 5.43127 5.20257 5.3723 5.13168C5.34382 5.09747 5.28181 5.04004 5.18636 5.04004ZM4.58984 9.97048C4.82976 9.48735 5.03015 8.99836 5.19793 8.52539C5.45779 8.94583 5.76485 9.33828 6.08759 9.69559C5.54793 9.74828 5.04725 9.84623 4.58984 9.97048ZM8.59313 11.1454C8.81023 11.2942 9.09541 11.2801 9.27084 11.1114C9.33997 11.045 9.43452 10.9542 9.22168 10.711C9.0571 10.5232 8.80988 10.3918 8.52544 10.3409C8.13485 10.2709 7.75637 10.2299 7.3916 10.2129C7.85859 10.6214 8.29498 10.9407 8.59313 11.1454Z" fill="white"/>
<path id="Path_2" d="M2.42948 2.42948V0L0 2.42948H2.42948Z" fill="#B53629"/>
<path id="Path_3" d="M13.6 4.11547H8.40001C8.17909 4.11547 8 3.93638 8 3.71546V1.48887C8 1.26795 8.17909 1.08887 8.40001 1.08887H13.6C13.8209 1.08887 14 1.26795 14 1.48887V3.71546C14 3.93638 13.8209 4.11547 13.6 4.11547Z" fill="#27A2DB"/>
<g id="Group">
<path id="Shape_2" fill-rule="evenodd" clip-rule="evenodd" d="M9.98573 2.35936C9.98573 2.15615 9.92731 2.00576 9.81052 1.9082C9.69373 1.81053 9.50818 1.76172 9.25372 1.76172H8.67773V3.43936H8.96092V2.94736H9.25859C9.50488 2.94736 9.68768 2.90017 9.80684 2.80575C9.92615 2.71132 9.98573 2.56256 9.98573 2.35936ZM9.69434 2.33555C9.69434 2.45157 9.66599 2.53956 9.60917 2.59962C9.55235 2.65958 9.44549 2.68956 9.28867 2.68956H8.95996V2.01758H9.24786C9.40158 2.01758 9.51426 2.0416 9.58633 2.08955C9.6584 2.1376 9.69434 2.21963 9.69434 2.33555Z" fill="#EBF0F3"/>
<path id="Shape_3" fill-rule="evenodd" clip-rule="evenodd" d="M11.8322 2.59219C11.8322 2.33136 11.7516 2.12774 11.5898 1.98136C11.4283 1.83497 11.197 1.76172 10.8963 1.76172H10.3203V3.43936H10.8771C11.2002 3.43936 11.4403 3.36338 11.5971 3.21133C11.7539 3.05937 11.8322 2.85293 11.8322 2.59219ZM10.8857 2.02246C11.3258 2.02246 11.5457 2.21446 11.5457 2.59845C11.5457 2.78734 11.4918 2.9301 11.3838 3.02683C11.2758 3.12373 11.1201 3.17206 10.917 3.17206H10.6025V2.02246H10.8857Z" fill="#EBF0F3"/>
<path id="Path_4" d="M12.4824 2.02676V2.4875H13.2264V2.74913H12.4824V3.44033H12.1992V1.7627H13.3176L13.3153 2.02676H12.4824Z" fill="#EBF0F3"/>
</g>
</g>
</svg>
