<svg width="74" height="74" viewBox="0 0 74 74" fill="none" xmlns="http://www.w3.org/2000/svg">
<circle opacity="0.25" cx="37" cy="37" r="37" fill="#E4EDFF"/>
<circle cx="37" cy="37" r="25" fill="#E4EDFF"/>
<path d="M44.5188 31.702C44.2622 30.1771 43.5071 28.7853 42.3523 27.7292C41.0691 26.5546 39.401 25.9081 37.6638 25.9081C36.3214 25.9081 35.0136 26.293 33.8933 27.0185C32.9605 27.6206 32.1857 28.4349 31.6379 29.3923C31.401 29.3479 31.1542 29.3233 30.9075 29.3233C28.81 29.3233 27.1024 31.0308 27.1024 33.1283C27.1024 33.3998 27.132 33.6613 27.1814 33.918C25.8242 34.905 25 36.4941 25 38.1869C25 39.554 25.5083 40.8816 26.4362 41.9328C27.3886 43.0086 28.6471 43.6453 29.9895 43.7193C30.0043 43.7193 30.0142 43.7193 30.029 43.7193H34.2733C34.6434 43.7193 34.9395 43.4232 34.9395 43.0531C34.9395 42.6829 34.6434 42.3868 34.2733 42.3868H30.0487C28.0302 42.2634 26.3325 40.3436 26.3325 38.182C26.3325 36.7853 27.0827 35.4824 28.2918 34.7767C28.5731 34.6138 28.6915 34.2733 28.583 33.9673C28.4843 33.7008 28.4349 33.4195 28.4349 33.1184C28.4349 31.7563 29.5453 30.6459 30.9075 30.6459C31.1986 30.6459 31.4849 30.6952 31.7514 30.794C32.0771 30.9124 32.4374 30.7643 32.5854 30.4534C33.5083 28.4941 35.5022 27.2307 37.6687 27.2307C40.5805 27.2307 42.984 29.4121 43.2603 32.3041C43.2899 32.6052 43.517 32.847 43.8131 32.8964C46.0093 33.2714 47.6675 35.2998 47.6675 37.6144C47.6675 40.0672 45.7378 42.1993 43.359 42.3819H39.7218C39.3516 42.3819 39.0555 42.678 39.0555 43.0481C39.0555 43.4183 39.3516 43.7144 39.7218 43.7144H43.3837C43.3985 43.7144 43.4133 43.7144 43.4331 43.7144C44.9383 43.6058 46.3449 42.9149 47.3911 41.76C48.4325 40.6151 49 39.1444 49 37.6144C48.9951 34.8458 47.1049 32.3831 44.5188 31.702Z" fill="#2C6DF9"/>
<path d="M40.9998 38.8186C41.2614 38.5571 41.2614 38.1376 40.9998 37.876L37.4711 34.3473C37.3478 34.2239 37.175 34.1499 37.0023 34.1499C36.8296 34.1499 36.6568 34.219 36.5335 34.3473L33.0048 37.876C32.7432 38.1376 32.7432 38.5571 33.0048 38.8186C33.1331 38.9469 33.3058 39.016 33.4736 39.016C33.6414 39.016 33.8141 38.9519 33.9425 38.8186L36.336 36.425V47.4257C36.336 47.7958 36.6322 48.0919 37.0023 48.0919C37.3724 48.0919 37.6686 47.7958 37.6686 47.4257V36.425L40.0621 38.8186C40.3188 39.0802 40.7383 39.0802 40.9998 38.8186Z" fill="#2C6DF9"/>
</svg>
