<svg width="36" height="36" viewBox="0 0 36 36" fill="none" xmlns="http://www.w3.org/2000/svg">
<g filter="url(#filter0_d_16172_18426)">
<path d="M18 30C24.6274 30 30 24.6274 30 18C30 11.3726 24.6274 6 18 6C11.3726 6 6 11.3726 6 18C6 24.6274 11.3726 30 18 30Z" fill="white"/>
</g>
<path d="M24.5361 17.8512C24.0215 16.5202 23.1282 15.3691 21.9665 14.5403C20.8049 13.7114 19.4258 13.2411 17.9998 13.1875C16.5738 13.2411 15.1947 13.7114 14.0331 14.5403C12.8714 15.3691 11.9781 16.5202 11.4636 17.8512C11.4288 17.9474 11.4288 18.0526 11.4636 18.1488C11.9781 19.4798 12.8714 20.6309 14.0331 21.4597C15.1947 22.2886 16.5738 22.7589 17.9998 22.8125C19.4258 22.7589 20.8049 22.2886 21.9665 21.4597C23.1282 20.6309 24.0215 19.4798 24.5361 18.1488C24.5708 18.0526 24.5708 17.9474 24.5361 17.8512ZM17.9998 21.9375C15.6811 21.9375 13.2311 20.2181 12.3429 18C13.2311 15.7819 15.6811 14.0625 17.9998 14.0625C20.3186 14.0625 22.7686 15.7819 23.6567 18C22.7686 20.2181 20.3186 21.9375 17.9998 21.9375Z" fill="#2C6DF9"/>
<path d="M18 15.375C17.4808 15.375 16.9733 15.529 16.5416 15.8174C16.11 16.1058 15.7735 16.5158 15.5748 16.9955C15.3761 17.4751 15.3242 18.0029 15.4254 18.5121C15.5267 19.0213 15.7767 19.489 16.1438 19.8562C16.511 20.2233 16.9787 20.4733 17.4879 20.5746C17.9971 20.6758 18.5249 20.6239 19.0045 20.4252C19.4842 20.2265 19.8942 19.8901 20.1826 19.4584C20.471 19.0267 20.625 18.5192 20.625 18C20.625 17.3038 20.3484 16.6361 19.8562 16.1438C19.3639 15.6516 18.6962 15.375 18 15.375ZM18 19.75C17.6539 19.75 17.3155 19.6474 17.0278 19.4551C16.74 19.2628 16.5157 18.9895 16.3832 18.6697C16.2508 18.3499 16.2161 17.9981 16.2836 17.6586C16.3512 17.3191 16.5178 17.0073 16.7626 16.7626C17.0073 16.5178 17.3191 16.3511 17.6586 16.2836C17.9981 16.2161 18.3499 16.2508 18.6697 16.3832C18.9895 16.5157 19.2628 16.74 19.4551 17.0278C19.6474 17.3155 19.75 17.6539 19.75 18C19.75 18.4641 19.5656 18.9092 19.2374 19.2374C18.9092 19.5656 18.4641 19.75 18 19.75Z" fill="#2C6DF9"/>
<defs>
<filter id="filter0_d_16172_18426" x="1" y="1" width="34" height="34" filterUnits="userSpaceOnUse" color-interpolation-filters="sRGB">
<feFlood flood-opacity="0" result="BackgroundImageFix"/>
<feColorMatrix in="SourceAlpha" type="matrix" values="0 0 0 0 0 0 0 0 0 0 0 0 0 0 0 0 0 0 127 0" result="hardAlpha"/>
<feOffset/>
<feGaussianBlur stdDeviation="2.5"/>
<feColorMatrix type="matrix" values="0 0 0 0 0 0 0 0 0 0 0 0 0 0 0 0 0 0 0.23 0"/>
<feBlend mode="normal" in2="BackgroundImageFix" result="effect1_dropShadow_16172_18426"/>
<feBlend mode="normal" in="SourceGraphic" in2="effect1_dropShadow_16172_18426" result="shape"/>
</filter>
</defs>
</svg>
