<svg width="18" height="16" viewBox="0 0 18 16" fill="none" xmlns="http://www.w3.org/2000/svg">
<g clip-path="url(#clip0_9678_19701)">
<path d="M17.8096 13.7844C17.794 13.7719 17.1033 13.0281 16.6252 12.0688C17.4846 11.2219 18.0002 10.1594 18.0002 9C18.0002 6.5 15.6096 4.43438 12.494 4.06563C11.5127 2.26563 9.19709 1 6.50021 1C2.90959 1 0.000210473 3.2375 0.000210473 6C0.000210473 7.15625 0.515836 8.21875 1.37521 9.06875C0.897086 10.0281 0.209585 10.7719 0.197085 10.7844C0.000210479 10.9938 -0.0560395 11.3 0.0595855 11.5656C0.172085 11.8313 0.434585 12.0031 0.722085 12.0031C2.39396 12.0031 3.74396 11.3719 4.63459 10.7906C4.91896 10.8562 5.20959 10.9062 5.50959 10.9406C6.49396 12.7375 8.80646 14.0031 11.5033 14.0031C12.1533 14.0031 12.7783 13.9281 13.3721 13.7906C14.2627 14.3687 15.6096 15.0031 17.2846 15.0031C17.5721 15.0031 17.8315 14.8313 17.9471 14.5656C18.0596 14.3 18.0065 13.9938 17.8096 13.7844ZM4.85646 9.8125L4.44396 9.71875L4.08771 9.95C3.45959 10.3594 2.50959 10.8313 1.34709 10.9656C1.62209 10.6125 1.97834 10.1031 2.26896 9.51562L2.59396 8.86563L2.07834 8.35625C1.58459 7.87187 1.00021 7.06875 1.00021 6C1.00021 3.79375 3.46896 2 6.50021 2C9.53146 2 12.0002 3.79375 12.0002 6C12.0002 8.20625 9.53146 10 6.50021 10C5.94709 10 5.39396 9.9375 4.85646 9.8125ZM13.9127 12.95L13.5565 12.7188L13.144 12.8156C12.6065 12.9406 12.0533 13.0031 11.5002 13.0031C9.46584 13.0031 7.68771 12.1937 6.73771 10.9937C10.2158 10.8937 13.0002 8.7 13.0002 6C13.0002 5.70312 12.9596 5.41563 12.8971 5.13438C15.2533 5.5875 17.0002 7.14687 17.0002 9C17.0002 10.0688 16.4158 10.8719 15.9221 11.3562L15.4065 11.8656L15.7283 12.5125C16.0221 13.1031 16.3783 13.6125 16.6502 13.9625C15.4908 13.8312 14.5408 13.3562 13.9127 12.95Z" fill="#58667E"/>
</g>
<defs>
<clipPath id="clip0_9678_19701">
<rect width="18" height="16" fill="white"/>
</clipPath>
</defs>
</svg>
