<svg width="14" height="15" viewBox="0 0 14 15" fill="none" xmlns="http://www.w3.org/2000/svg">
<path d="M13.5804 6.68835C13.8519 7.04038 14 7.5 14 8.06142C14 9.09157 13.123 10.0458 12.0114 10.0458H10.0932C10.3316 10.5207 10.6591 11.1098 10.6591 11.9548C10.6591 13.5519 10.022 14.5 8.39207 14.5C7.57189 14.5 7.26753 13.4632 7.11159 12.6617C7.01843 12.1829 6.93041 11.7306 6.65973 11.4599C6.01524 10.8154 5.03125 9.25 4.44013 8.93213C4.38028 8.90692 4.3038 8.88707 4.22051 8.87134C4.06265 9.10005 3.79889 9.25 3.5 9.25H0.875C0.391754 9.25 0 8.85825 0 8.375V1.375C0 0.891754 0.391754 0.5 0.875 0.5H3.5C3.98325 0.5 4.375 0.891754 4.375 1.375V1.61398C5.26354 1.61398 7.12816 0.499809 9.22728 0.500383C9.37781 0.500301 10.2568 0.499562 10.3487 0.500383C11.9697 0.5 12.8713 1.48167 12.8188 2.95566C13.2325 3.44038 13.4351 4.14066 13.3172 4.79056C13.6578 5.32448 13.7308 6.07763 13.5804 6.68835ZM0.875 1.375V8.375H3.5V1.375H0.875ZM12.4692 6.9435C12.9062 6.625 12.9062 5.3125 12.3159 5.01125C12.6856 4.38891 12.3529 3.55613 11.9053 3.31605C12.1321 1.87941 11.3869 1.38542 10.3409 1.37536C10.2504 1.37454 9.32247 1.37536 9.22731 1.37536C7.23316 1.37536 5.54296 2.48898 4.37503 2.48898V8.05713C5.40611 8.05713 6.35212 9.91484 7.27847 10.8412C8.11368 11.6764 7.83527 13.0685 8.3921 13.6253C9.78414 13.6253 9.78414 12.6541 9.78414 11.9548C9.78414 10.8012 8.94893 10.2844 8.94893 9.17076H12.0114C12.6329 9.17076 13.1223 8.61393 13.125 8.05713C13.1277 7.50033 12.9062 7.0625 12.4692 6.9435ZM2.84375 2.6875C2.84375 2.32506 2.54994 2.03125 2.1875 2.03125C1.82506 2.03125 1.53125 2.32506 1.53125 2.6875C1.53125 3.04994 1.82506 3.34375 2.1875 3.34375C2.54994 3.34375 2.84375 3.04994 2.84375 2.6875Z" fill="#58667E"/>
</svg>
