<svg width="14" height="15" viewBox="0 0 14 15" fill="none" xmlns="http://www.w3.org/2000/svg">
<path d="M14 8.06142C14 7.50002 13.8519 7.04043 13.5804 6.68837C13.7308 6.07766 13.6578 5.32448 13.3172 4.79055C13.4351 4.14065 13.2325 3.44045 12.8188 2.95571C12.8713 1.48171 11.9697 0.500021 10.3487 0.500387C10.2694 0.499654 9.60486 0.500143 9.32687 0.500387H9.22729C7.95535 0.500021 6.76953 0.908956 5.83478 1.23134L5.83115 1.23244C5.59875 1.31264 5.3819 1.38747 5.18314 1.44924C4.96118 1.51809 4.80078 1.71975 4.80078 1.95217V9.01113C4.80078 9.10561 4.82794 9.19704 4.87592 9.27724C4.89569 9.31032 4.91901 9.34157 4.94543 9.37026C5.12283 9.56301 5.31219 9.79616 5.5036 10.0401C5.55643 10.1073 5.60944 10.1754 5.66238 10.2438L5.78159 10.3978L5.78351 10.4004L5.78479 10.4019C6.09924 10.8091 6.40582 11.2061 6.65973 11.46C6.93042 11.7306 7.01843 12.1829 7.1116 12.6618C7.26752 13.4632 7.5719 14.5 8.39206 14.5C10.022 14.5 10.6591 13.5519 10.6591 11.9549C10.6591 11.1638 10.3722 10.5971 10.1399 10.1383L10.0932 10.0458H12.0114C13.123 10.0458 14 9.09157 14 8.06142Z" fill="#2C6DF9"/>
<path fill-rule="evenodd" clip-rule="evenodd" d="M3.5 0.912618C3.60568 0.912618 3.77344 0.982931 3.80078 1.1437V9.08596C3.75781 9.21987 3.60568 9.25002 3.5 9.25002H0.875C0.391754 9.25002 0 8.8583 0 8.37502V1.78762C0 1.30434 0.391754 0.912618 0.875 0.912618H3.5ZM1.92642 1.86928C2.30002 1.86928 2.60287 2.17214 2.60287 2.5458C2.60287 2.91933 2.30002 3.22219 1.92642 3.22219C1.55286 3.22219 1.25 2.91933 1.25 2.5458C1.25 2.17214 1.55286 1.86928 1.92642 1.86928Z" fill="#2C6DF9"/>
</svg>
