<svg width="24" height="24" viewBox="0 0 24 24" fill="none" xmlns="http://www.w3.org/2000/svg">
<path d="M11.9984 15.6754C11.3219 15.6754 10.7734 16.2238 10.7734 16.9004C10.7734 17.5769 11.3219 18.1254 11.9984 18.1254C12.675 18.1254 13.2234 17.5769 13.2234 16.9004C13.2234 16.2238 12.675 15.6754 11.9984 15.6754ZM12.334 14.6254H11.634C11.3441 14.6254 11.109 14.3903 11.109 14.1004V14.0837C11.109 11.0062 14.497 11.3004 14.497 9.38462C14.497 8.50892 13.72 7.62539 11.984 7.62539C10.709 7.62539 10.0474 8.04754 9.39352 8.88067C9.22255 9.09854 8.90991 9.14295 8.68267 8.98462L8.10806 8.5843C7.86196 8.41285 7.80793 8.06932 7.99234 7.83281C8.92098 6.64163 10.0228 5.87539 11.984 5.87539C14.273 5.87539 16.247 7.177 16.247 9.38462C16.247 12.334 12.859 12.178 12.859 14.0837V14.1004C12.859 14.3903 12.6239 14.6254 12.334 14.6254ZM11.9984 2.55039C17.1881 2.55039 21.4484 6.75367 21.4484 12.0004C21.4484 17.2194 17.2218 21.4504 11.9984 21.4504C6.78151 21.4504 2.54844 17.2258 2.54844 12.0004C2.54844 6.78526 6.77478 2.55039 11.9984 2.55039ZM11.9984 1.15039C6.00657 1.15039 1.14844 6.01027 1.14844 12.0004C1.14844 17.994 6.00657 22.8504 11.9984 22.8504C17.9903 22.8504 22.8484 17.994 22.8484 12.0004C22.8484 6.01027 17.9903 1.15039 11.9984 1.15039Z" fill="#FFA100"/>
</svg>
