<svg width="29" height="28" viewBox="0 0 29 28" fill="none" xmlns="http://www.w3.org/2000/svg">
<path d="M28.7461 14C28.7461 21.732 22.4781 28 14.7461 28C7.01411 28 0.746094 21.732 0.746094 14C0.746094 6.26801 7.01411 0 14.7461 0C22.4781 0 28.7461 6.26801 28.7461 14Z" fill="#FEF3F2"/>
<path d="M10.1797 21.1673C9.90635 21.1673 9.67969 20.9407 9.67969 20.6673V7.33398C9.67969 7.06065 9.90635 6.83398 10.1797 6.83398C10.453 6.83398 10.6797 7.06065 10.6797 7.33398V20.6673C10.6797 20.9407 10.453 21.1673 10.1797 21.1673Z" fill="#F04438"/>
<path d="M17.6464 17.166H10.1797C9.90635 17.166 9.67969 16.9393 9.67969 16.666C9.67969 16.3927 9.90635 16.166 10.1797 16.166H17.6464C18.373 16.166 18.713 15.9727 18.7797 15.806C18.8464 15.6393 18.7464 15.266 18.2264 14.7527L17.4264 13.9527C17.0997 13.666 16.8997 13.2327 16.8797 12.7527C16.8597 12.246 17.0597 11.746 17.4264 11.3793L18.2264 10.5793C18.7197 10.086 18.873 9.68602 18.7997 9.51268C18.7264 9.33935 18.3464 9.16602 17.6464 9.16602H10.1797C9.89969 9.16602 9.67969 8.93935 9.67969 8.66602C9.67969 8.39268 9.90635 8.16602 10.1797 8.16602H17.6464C19.1064 8.16602 19.573 8.77268 19.7264 9.13268C19.873 9.49268 19.973 10.2527 18.933 11.2927L18.133 12.0927C17.9664 12.2593 17.873 12.4927 17.8797 12.726C17.8864 12.926 17.9664 13.106 18.1064 13.2327L18.933 14.0527C19.953 15.0727 19.853 15.8327 19.7064 16.1993C19.553 16.5527 19.0797 17.166 17.6464 17.166Z" fill="#F04438"/>
</svg>
