<svg width="29" height="28" viewBox="0 0 29 28" fill="none" xmlns="http://www.w3.org/2000/svg">
<path d="M28.2539 14C28.2539 21.732 21.9859 28 14.2539 28C6.52192 28 0.253906 21.732 0.253906 14C0.253906 6.26801 6.52192 0 14.2539 0C21.9859 0 28.2539 6.26801 28.2539 14Z" fill="#FEFBE8"/>
<path d="M12.8211 16.1866C12.6944 16.1866 12.5678 16.1399 12.4678 16.0399C11.9211 15.4933 11.6211 14.7666 11.6211 13.9999C11.6211 12.4066 12.9144 11.1133 14.5078 11.1133C15.2744 11.1133 16.0011 11.4133 16.5478 11.9599C16.6411 12.0533 16.6944 12.1799 16.6944 12.3133C16.6944 12.4466 16.6411 12.5733 16.5478 12.6666L13.1744 16.0399C13.0744 16.1399 12.9478 16.1866 12.8211 16.1866ZM14.5078 12.1133C13.4678 12.1133 12.6211 12.9599 12.6211 13.9999C12.6211 14.3333 12.7078 14.6533 12.8678 14.9333L15.4411 12.3599C15.1611 12.1999 14.8411 12.1133 14.5078 12.1133Z" fill="#EAAA08"/>
<path d="M10.241 18.3397C10.1277 18.3397 10.0077 18.2997 9.91438 18.2197C9.20104 17.613 8.56104 16.8663 8.01437 15.9997C7.30771 14.8997 7.30771 13.1063 8.01437 11.9997C9.64104 9.45299 12.0077 7.98633 14.5077 7.98633C15.9744 7.98633 17.421 8.49299 18.6877 9.44633C18.9077 9.61299 18.9544 9.92633 18.7877 10.1463C18.621 10.3663 18.3077 10.413 18.0877 10.2463C16.9944 9.41966 15.7544 8.98633 14.5077 8.98633C12.3544 8.98633 10.2944 10.2797 8.85437 12.5397C8.35437 13.3197 8.35437 14.6797 8.85437 15.4597C9.35437 16.2397 9.92771 16.913 10.561 17.4597C10.7677 17.6397 10.7944 17.953 10.6144 18.1663C10.521 18.2797 10.381 18.3397 10.241 18.3397Z" fill="#EAAA08"/>
<path d="M14.5095 20.0137C13.6228 20.0137 12.7561 19.8337 11.9228 19.4803C11.6695 19.3737 11.5495 19.0803 11.6561 18.827C11.7628 18.5737 12.0561 18.4537 12.3095 18.5603C13.0161 18.8603 13.7561 19.0137 14.5028 19.0137C16.6561 19.0137 18.7161 17.7203 20.1561 15.4603C20.6561 14.6803 20.6561 13.3203 20.1561 12.5403C19.9495 12.2137 19.7228 11.9003 19.4828 11.607C19.3095 11.3937 19.3428 11.0803 19.5561 10.9003C19.7695 10.727 20.0828 10.7537 20.2628 10.9737C20.5228 11.2937 20.7761 11.6403 21.0028 12.0003C21.7095 13.1003 21.7095 14.8937 21.0028 16.0003C19.3761 18.547 17.0095 20.0137 14.5095 20.0137Z" fill="#EAAA08"/>
<path d="M14.9675 16.8469C14.7342 16.8469 14.5209 16.6802 14.4742 16.4402C14.4209 16.1669 14.6009 15.9069 14.8742 15.8602C15.6075 15.7269 16.2209 15.1136 16.3542 14.3802C16.4075 14.1069 16.6675 13.9336 16.9409 13.9802C17.2142 14.0336 17.3942 14.2936 17.3409 14.5669C17.1275 15.7202 16.2075 16.6336 15.0609 16.8469C15.0275 16.8402 15.0009 16.8469 14.9675 16.8469Z" fill="#EAAA08"/>
<path d="M7.84208 21.1658C7.71542 21.1658 7.58875 21.1192 7.48875 21.0192C7.29542 20.8258 7.29542 20.5058 7.48875 20.3125L12.4688 15.3325C12.6621 15.1392 12.9821 15.1392 13.1754 15.3325C13.3688 15.5258 13.3688 15.8458 13.1754 16.0392L8.19542 21.0192C8.09542 21.1192 7.96875 21.1658 7.84208 21.1658Z" fill="#EAAA08"/>
<path d="M16.1936 12.8143C16.067 12.8143 15.9403 12.7676 15.8403 12.6676C15.647 12.4743 15.647 12.1543 15.8403 11.9609L20.8203 6.98094C21.0136 6.7876 21.3336 6.7876 21.527 6.98094C21.7203 7.17427 21.7203 7.49427 21.527 7.6876L16.547 12.6676C16.447 12.7676 16.3203 12.8143 16.1936 12.8143Z" fill="#EAAA08"/>
</svg>
