<svg width="38" height="38" viewBox="0 0 38 38" fill="none" xmlns="http://www.w3.org/2000/svg">
<g filter="url(#filter0_d_19642_27345)">
<rect x="5" y="5" width="28" height="28" rx="14" fill="white" shape-rendering="crispEdges"/>
<path d="M17.3133 21.1866C17.1866 21.1866 17.0599 21.1399 16.9599 21.0399C16.4133 20.4933 16.1133 19.7666 16.1133 18.9999C16.1133 17.4066 17.4066 16.1133 18.9999 16.1133C19.7666 16.1133 20.4933 16.4133 21.0399 16.9599C21.1333 17.0533 21.1866 17.1799 21.1866 17.3133C21.1866 17.4466 21.1333 17.5733 21.0399 17.6666L17.6666 21.0399C17.5666 21.1399 17.4399 21.1866 17.3133 21.1866ZM18.9999 17.1133C17.9599 17.1133 17.1133 17.9599 17.1133 18.9999C17.1133 19.3333 17.1999 19.6533 17.3599 19.9333L19.9333 17.3599C19.6533 17.1999 19.3333 17.1133 18.9999 17.1133Z" fill="#F5BA31"/>
<path d="M14.7332 23.3397C14.6199 23.3397 14.4999 23.2997 14.4066 23.2197C13.6932 22.613 13.0532 21.8663 12.5066 20.9997C11.7999 19.8997 11.7999 18.1063 12.5066 16.9997C14.1332 14.453 16.4999 12.9863 18.9999 12.9863C20.4666 12.9863 21.9132 13.493 23.1799 14.4463C23.3999 14.613 23.4466 14.9263 23.2799 15.1463C23.1132 15.3663 22.7999 15.413 22.5799 15.2463C21.4866 14.4197 20.2466 13.9863 18.9999 13.9863C16.8466 13.9863 14.7866 15.2797 13.3466 17.5397C12.8466 18.3197 12.8466 19.6797 13.3466 20.4597C13.8466 21.2397 14.4199 21.913 15.0532 22.4597C15.2599 22.6397 15.2866 22.953 15.1066 23.1663C15.0132 23.2797 14.8732 23.3397 14.7332 23.3397Z" fill="#F5BA31"/>
<path d="M19.0017 25.0137C18.115 25.0137 17.2483 24.8337 16.415 24.4803C16.1617 24.3737 16.0417 24.0803 16.1483 23.827C16.255 23.5737 16.5483 23.4537 16.8017 23.5603C17.5083 23.8603 18.2483 24.0137 18.995 24.0137C21.1483 24.0137 23.2083 22.7203 24.6483 20.4603C25.1483 19.6803 25.1483 18.3203 24.6483 17.5403C24.4417 17.2137 24.215 16.9003 23.975 16.607C23.8017 16.3937 23.835 16.0803 24.0483 15.9003C24.2617 15.727 24.575 15.7537 24.755 15.9737C25.015 16.2937 25.2683 16.6403 25.495 17.0003C26.2017 18.1003 26.2017 19.8937 25.495 21.0003C23.8683 23.547 21.5017 25.0137 19.0017 25.0137Z" fill="#F5BA31"/>
<path d="M19.4597 21.8469C19.2264 21.8469 19.0131 21.6802 18.9664 21.4402C18.9131 21.1669 19.0931 20.9069 19.3664 20.8602C20.0997 20.7269 20.7131 20.1136 20.8464 19.3802C20.8997 19.1069 21.1597 18.9336 21.4331 18.9802C21.7064 19.0336 21.8864 19.2936 21.8331 19.5669C21.6197 20.7202 20.6997 21.6336 19.5531 21.8469C19.5197 21.8402 19.4931 21.8469 19.4597 21.8469Z" fill="#F5BA31"/>
<path d="M12.3343 26.1658C12.2076 26.1658 12.0809 26.1192 11.9809 26.0192C11.7876 25.8258 11.7876 25.5058 11.9809 25.3125L16.9609 20.3325C17.1543 20.1392 17.4743 20.1392 17.6676 20.3325C17.8609 20.5258 17.8609 20.8458 17.6676 21.0392L12.6876 26.0192C12.5876 26.1192 12.4609 26.1658 12.3343 26.1658Z" fill="#F5BA31"/>
<path d="M20.6858 17.8143C20.5592 17.8143 20.4325 17.7676 20.3325 17.6676C20.1392 17.4743 20.1392 17.1543 20.3325 16.9609L25.3125 11.9809C25.5058 11.7876 25.8258 11.7876 26.0192 11.9809C26.2125 12.1743 26.2125 12.4943 26.0192 12.6876L21.0392 17.6676C20.9392 17.7676 20.8125 17.8143 20.6858 17.8143Z" fill="#F5BA31"/>
</g>
<defs>
<filter id="filter0_d_19642_27345" x="0" y="0" width="38" height="38" filterUnits="userSpaceOnUse" color-interpolation-filters="sRGB">
<feFlood flood-opacity="0" result="BackgroundImageFix"/>
<feColorMatrix in="SourceAlpha" type="matrix" values="0 0 0 0 0 0 0 0 0 0 0 0 0 0 0 0 0 0 127 0" result="hardAlpha"/>
<feOffset/>
<feGaussianBlur stdDeviation="2.5"/>
<feComposite in2="hardAlpha" operator="out"/>
<feColorMatrix type="matrix" values="0 0 0 0 0 0 0 0 0 0 0 0 0 0 0 0 0 0 0.23 0"/>
<feBlend mode="normal" in2="BackgroundImageFix" result="effect1_dropShadow_19642_27345"/>
<feBlend mode="normal" in="SourceGraphic" in2="effect1_dropShadow_19642_27345" result="shape"/>
</filter>
</defs>
</svg>
