<svg width="16" height="16" viewBox="0 0 16 16" fill="none" xmlns="http://www.w3.org/2000/svg">
<path d="M15.5205 8.92759C15.8307 8.52528 16 8 16 7.35838C16 6.18106 14.9977 5.09053 13.7273 5.09053H11.5351C11.8076 4.54778 12.1818 3.87456 12.1818 2.90875C12.1818 1.0835 11.4537 0 9.59094 0C8.65359 0 8.30575 1.18494 8.12753 2.10087C8.02106 2.64809 7.92047 3.165 7.61112 3.47434C6.87456 4.21094 5.75 6 5.07444 6.36328C5.00603 6.39209 4.91863 6.41478 4.82344 6.43275C4.64303 6.17138 4.34159 6 4 6H1C0.447719 6 0 6.44772 0 7V15C0 15.5523 0.447719 16 1 16H4C4.55228 16 5 15.5523 5 15V14.7269C6.01547 14.7269 8.14647 16.0002 10.5455 15.9996C10.7175 15.9997 11.722 16.0005 11.8271 15.9996C13.6797 16 14.7101 14.8781 14.6501 13.1935C15.1228 12.6396 15.3544 11.8393 15.2196 11.0965C15.6089 10.4863 15.6923 9.62556 15.5205 8.92759ZM1 15V7H4V15H1ZM14.2505 8.636C14.75 9 14.75 10.5 14.0753 10.8443C14.4979 11.5555 14.1176 12.5073 13.6061 12.7817C13.8652 14.4235 13.0136 14.9881 11.8182 14.9996C11.7147 15.0005 10.6543 14.9996 10.5455 14.9996C8.26647 14.9996 6.33481 13.7269 5.00003 13.7269V7.36328C6.17841 7.36328 7.25956 5.24019 8.31825 4.18147C9.27278 3.22694 8.95459 1.63603 9.59097 0.999687C11.1819 0.999687 11.1819 2.10959 11.1819 2.90878C11.1819 4.22719 10.2273 4.81784 10.2273 6.09056H13.7273C14.4376 6.09056 14.9969 6.72694 15 7.36328C15.0031 7.99963 14.75 8.5 14.2505 8.636ZM3.25 13.5C3.25 13.9142 2.91422 14.25 2.5 14.25C2.08578 14.25 1.75 13.9142 1.75 13.5C1.75 13.0858 2.08578 12.75 2.5 12.75C2.91422 12.75 3.25 13.0858 3.25 13.5Z" fill="#58667E"/>
</svg>
