<svg width="14" height="15" viewBox="0 0 14 15" fill="none" xmlns="http://www.w3.org/2000/svg">
<path d="M14 6.9386C14 7.5 13.8519 7.95959 13.5804 8.31165C13.7308 8.92236 13.6578 9.67554 13.3172 10.2095C13.4351 10.8594 13.2325 11.5596 12.8188 12.0443C12.8713 13.5183 11.9697 14.5 10.3487 14.4996C10.2694 14.5004 9.60486 14.4999 9.32687 14.4996H9.22729C7.95535 14.5 6.76953 14.0911 5.83478 13.7687L5.83115 13.7676C5.59875 13.6874 5.3819 13.6125 5.18314 13.5508C4.96118 13.4819 4.80078 13.2803 4.80078 13.0479V5.98889C4.80078 5.89441 4.82794 5.80298 4.87592 5.72278C4.89569 5.6897 4.91901 5.65845 4.94543 5.62976C5.12283 5.43701 5.31219 5.20386 5.5036 4.95996C5.55643 4.8927 5.60944 4.82458 5.66238 4.75623L5.78159 4.60217L5.78351 4.59961L5.78479 4.59814C6.09924 4.19092 6.40582 3.79395 6.65973 3.54004C6.93042 3.26941 7.01843 2.81714 7.1116 2.33826C7.26752 1.53687 7.5719 0.5 8.39206 0.5C10.022 0.5 10.6591 1.44812 10.6591 3.04517C10.6591 3.83618 10.3722 4.40295 10.1399 4.86169L10.0932 4.95422H12.0114C13.123 4.95422 14 5.90845 14 6.9386Z" fill="#2C6DF9"/>
<path fill-rule="evenodd" clip-rule="evenodd" d="M3.5 14.0874C3.60568 14.0874 3.77344 14.0171 3.80078 13.8563V5.91406C3.75781 5.78015 3.60568 5.75 3.5 5.75H0.875C0.391754 5.75 0 6.14172 0 6.625V13.2124C0 13.6957 0.391754 14.0874 0.875 14.0874H3.5ZM1.92642 13.1307C2.30002 13.1307 2.60287 12.8279 2.60287 12.4542C2.60287 12.0807 2.30002 11.7778 1.92642 11.7778C1.55286 11.7778 1.25 12.0807 1.25 12.4542C1.25 12.8279 1.55286 13.1307 1.92642 13.1307Z" fill="#2C6DF9"/>
</svg>
