<svg width="14" height="15" viewBox="0 0 14 15" fill="none" xmlns="http://www.w3.org/2000/svg">
<path d="M13.5804 8.31165C13.8519 7.95962 14 7.5 14 6.93858C14 5.90843 13.123 4.95422 12.0114 4.95422H10.0932C10.3316 4.47931 10.6591 3.89024 10.6591 3.04516C10.6591 1.44806 10.022 0.5 8.39207 0.5C7.57189 0.5 7.26753 1.53682 7.11159 2.33827C7.01843 2.81708 6.93041 3.26938 6.65973 3.54005C6.01524 4.18457 5.03125 5.75 4.44013 6.06787C4.38028 6.09308 4.3038 6.11293 4.22051 6.12866C4.06265 5.89995 3.79889 5.75 3.5 5.75H0.875C0.391754 5.75 0 6.14175 0 6.625V13.625C0 14.1082 0.391754 14.5 0.875 14.5H3.5C3.98325 14.5 4.375 14.1082 4.375 13.625V13.386C5.26354 13.386 7.12816 14.5002 9.22728 14.4996C9.37781 14.4997 10.2568 14.5004 10.3487 14.4996C11.9697 14.5 12.8713 13.5183 12.8188 12.0443C13.2325 11.5596 13.4351 10.8593 13.3172 10.2094C13.6578 9.67552 13.7308 8.92237 13.5804 8.31165ZM0.875 13.625V6.625H3.5V13.625H0.875ZM12.4692 8.0565C12.9062 8.375 12.9062 9.6875 12.3159 9.98875C12.6856 10.6111 12.3529 11.4439 11.9053 11.6839C12.1321 13.1206 11.3869 13.6146 10.3409 13.6246C10.2504 13.6255 9.32247 13.6246 9.22731 13.6246C7.23316 13.6246 5.54296 12.511 4.37503 12.511V6.94287C5.40611 6.94287 6.35212 5.08516 7.27847 4.15879C8.11368 3.32357 7.83527 1.93153 8.3921 1.37473C9.78414 1.37473 9.78414 2.34589 9.78414 3.04518C9.78414 4.19879 8.94893 4.71561 8.94893 5.82924H12.0114C12.6329 5.82924 13.1223 6.38607 13.125 6.94287C13.1277 7.49967 12.9062 7.9375 12.4692 8.0565ZM2.84375 12.3125C2.84375 12.6749 2.54994 12.9688 2.1875 12.9688C1.82506 12.9688 1.53125 12.6749 1.53125 12.3125C1.53125 11.9501 1.82506 11.6562 2.1875 11.6562C2.54994 11.6562 2.84375 11.9501 2.84375 12.3125Z" fill="#58667E"/>
</svg>
