<svg width="4" height="14" viewBox="0 0 4 14" fill="none" xmlns="http://www.w3.org/2000/svg">
<path d="M0.75 2C0.75 2.69036 1.30964 3.25 2 3.25C2.69036 3.25 3.25 2.69036 3.25 2C3.25 1.30964 2.69036 0.75 2 0.75C1.30964 0.75 0.75 1.30964 0.75 2Z" fill="#787878"/>
<path d="M0.75 7C0.75 7.69036 1.30964 8.25 2 8.25C2.69036 8.25 3.25 7.69036 3.25 7C3.25 6.30964 2.69036 5.75 2 5.75C1.30964 5.75 0.75 6.30964 0.75 7Z" fill="#787878"/>
<path d="M0.75 12C0.75 12.6904 1.30964 13.25 2 13.25C2.69036 13.25 3.25 12.6904 3.25 12C3.25 11.3096 2.69036 10.75 2 10.75C1.30964 10.75 0.75 11.3096 0.75 12Z" fill="#787878"/>
</svg>
