<svg width="25" height="24" viewBox="0 0 25 24" fill="none" xmlns="http://www.w3.org/2000/svg">
<path d="M20.75 10C20.75 10.4142 21.0858 10.75 21.5 10.75C21.9142 10.75 22.25 10.4142 22.25 10H20.75ZM9.5 22.75C9.91421 22.75 10.25 22.4142 10.25 22C10.25 21.5858 9.91421 21.25 9.5 21.25V22.75ZM9.25 2C9.25 1.58579 8.91421 1.25 8.5 1.25C8.08579 1.25 7.75 1.58579 7.75 2H9.25ZM7.75 5C7.75 5.41421 8.08579 5.75 8.5 5.75C8.91421 5.75 9.25 5.41421 9.25 5H7.75ZM16.5 9.75C16.9142 9.75 17.25 9.41421 17.25 9C17.25 8.58579 16.9142 8.25 16.5 8.25V9.75ZM8.5 8.25C8.08579 8.25 7.75 8.58579 7.75 9C7.75 9.41421 8.08579 9.75 8.5 9.75V8.25ZM14.5 13.75C14.9142 13.75 15.25 13.4142 15.25 13C15.25 12.5858 14.9142 12.25 14.5 12.25V13.75ZM8.5 12.25C8.08579 12.25 7.75 12.5858 7.75 13C7.75 13.4142 8.08579 13.75 8.5 13.75V12.25ZM12.5 22L11.7787 21.7944L11.4091 23.0909L12.7056 22.7213L12.5 22ZM13.6279 18.505L14.1582 19.0354L14.1582 19.0354L13.6279 18.505ZM13.3726 18.9392L12.6513 18.7336L12.6513 18.7336L13.3726 18.9392ZM15.5608 21.1274L15.7664 21.8487L15.7664 21.8487L15.5608 21.1274ZM18.6427 13.4902L18.1124 12.9599L18.1124 12.9599L18.6427 13.4902ZM10.5 17.75C10.9142 17.75 11.25 17.4142 11.25 17C11.25 16.5858 10.9142 16.25 10.5 16.25V17.75ZM8.5 16.25C8.08579 16.25 7.75 16.5858 7.75 17C7.75 17.4142 8.08579 17.75 8.5 17.75V16.25ZM17.25 2C17.25 1.58579 16.9142 1.25 16.5 1.25C16.0858 1.25 15.75 1.58579 15.75 2H17.25ZM15.75 5C15.75 5.41421 16.0858 5.75 16.5 5.75C16.9142 5.75 17.25 5.41421 17.25 5H15.75ZM7.5 4.25H17.5V2.75H7.5V4.25ZM4.25 18V7.5H2.75V18H4.25ZM20.75 7.5V10H22.25V7.5H20.75ZM9.5 21.25H7.5V22.75H9.5V21.25ZM2.75 18C2.75 20.6234 4.87665 22.75 7.5 22.75V21.25C5.70507 21.25 4.25 19.7949 4.25 18H2.75ZM17.5 4.25C19.2949 4.25 20.75 5.70507 20.75 7.5H22.25C22.25 4.87665 20.1234 2.75 17.5 2.75V4.25ZM7.5 2.75C4.87665 2.75 2.75 4.87665 2.75 7.5H4.25C4.25 5.70507 5.70507 4.25 7.5 4.25V2.75ZM7.75 2V5H9.25V2H7.75ZM16.5 8.25H8.5V9.75H16.5V8.25ZM14.5 12.25H8.5V13.75H14.5V12.25ZM20.4794 15.327L15.4646 20.3418L16.5253 21.4024L21.5401 16.3876L20.4794 15.327ZM14.1582 19.0354L19.173 14.0206L18.1124 12.9599L13.0976 17.9747L14.1582 19.0354ZM15.3551 20.4062L12.2944 21.2787L12.7056 22.7213L15.7664 21.8487L15.3551 20.4062ZM13.2213 22.2056L14.0938 19.1449L12.6513 18.7336L11.7787 21.7944L13.2213 22.2056ZM13.0976 17.9747C12.8867 18.1856 12.7331 18.4468 12.6513 18.7336L14.0938 19.1449C14.1056 19.1035 14.1278 19.0658 14.1582 19.0354L13.0976 17.9747ZM15.4646 20.3418C15.4342 20.3722 15.3965 20.3944 15.3551 20.4062L15.7664 21.8487C16.0532 21.7669 16.3144 21.6133 16.5253 21.4024L15.4646 20.3418ZM20.4794 14.0206C20.8402 14.3813 20.8402 14.9662 20.4794 15.327L21.5401 16.3876C22.4866 15.4411 22.4866 13.9064 21.5401 12.9599L20.4794 14.0206ZM21.5401 12.9599C20.5936 12.0134 19.0589 12.0134 18.1124 12.9599L19.173 14.0206C19.5338 13.6598 20.1187 13.6598 20.4794 14.0206L21.5401 12.9599ZM10.5 16.25H8.5V17.75H10.5V16.25ZM15.75 2V5H17.25V2H15.75Z" fill="white"/>
</svg>
