<svg width="18" height="24" viewBox="0 0 18 24" fill="none" xmlns="http://www.w3.org/2000/svg">
<g clip-path="url(#clip0_9678_19750)">
<path d="M16.8789 4.58984L13.0504 0.657031C12.6397 0.235156 12.0831 -0.00390625 11.5035 -0.00390625H2.19028C0.981063 0.000781251 0 1.00859 0 2.25078V21.7508C0 22.993 0.981063 24.0008 2.19028 24.0008H15.332C16.5412 24.0008 17.5222 22.993 17.5222 21.7508V6.18359C17.5222 5.58828 17.2895 5.01172 16.8789 4.58984ZM15.8476 5.65391C15.9434 5.75234 16.0073 5.86953 16.0392 6.00078H11.6815V1.52422C11.8093 1.55703 11.9233 1.62266 12.0192 1.72109L15.8476 5.65391ZM15.332 22.5008H2.19028C1.78873 22.5008 1.46019 22.1633 1.46019 21.7508V2.25078C1.46019 1.83828 1.78873 1.50078 2.19028 1.50078H10.2213V6.37578C10.2213 6.99922 10.7096 7.50078 11.3165 7.50078H16.0621V21.7508C16.0621 22.1633 15.7335 22.5008 15.332 22.5008ZM14.3281 14.4758C13.7121 13.8523 11.8184 14.0445 10.9651 14.1617C9.99772 13.5617 9.35889 12.7367 8.90714 11.5086C9.10336 10.6648 9.45471 9.29609 9.19918 8.46641C8.9984 7.14922 7.38764 7.30859 7.16404 8.14766C6.93589 9.00547 7.15035 10.2289 7.54734 11.7945C7.00434 13.1258 6.19211 14.9305 5.62628 15.9477C4.67716 16.4492 3.15766 17.3211 2.94319 18.4039C2.78348 19.1914 3.98814 20.2508 5.36619 18.7039C5.78143 18.2398 6.24686 17.5414 6.79443 16.5711C8.01278 16.1586 9.35432 15.643 10.5362 15.4461C11.5355 16.0086 12.7082 16.3789 13.4839 16.3789C14.7479 16.3836 14.8026 14.9633 14.3281 14.4758ZM3.8695 18.6477C4.13872 17.9023 5.17454 17.0352 5.48939 16.7352C4.48095 18.3898 3.8695 18.6805 3.8695 18.6477ZM8.21355 8.22734C8.61054 8.22734 8.56947 9.98516 8.30938 10.4586C8.0721 9.69453 8.08122 8.22734 8.21355 8.22734ZM6.91764 15.6945C7.43327 14.7664 7.87589 13.6695 8.23181 12.7086C8.67443 13.5383 9.24025 14.1945 9.83345 14.6539C8.72462 14.8742 7.76181 15.3617 6.91764 15.6945ZM13.9174 15.418C13.9174 15.418 13.6528 15.7461 11.9325 14.9914C13.8033 14.8508 14.1091 15.2914 13.9174 15.418Z" fill="#FFA100"/>
</g>
<defs>
<clipPath id="clip0_9678_19750">
<rect width="17.5222" height="24" fill="white"/>
</clipPath>
</defs>
</svg>
