<svg width="35" height="34" viewBox="0 0 35 34" fill="none" xmlns="http://www.w3.org/2000/svg">
<g filter="url(#filter0_d_9829_8213)">
<ellipse cx="17.3181" cy="17" rx="12.0837" ry="12" fill="white"/>
</g>
<g clip-path="url(#clip0_9829_8213)">
<path d="M13.293 14.5H21.3488" stroke="#FD4546" stroke-width="0.75" stroke-linecap="round" stroke-linejoin="round"/>
<path d="M16.3125 16.5V19.5" stroke="#FD4546" stroke-width="0.75" stroke-linecap="round" stroke-linejoin="round"/>
<path d="M18.3281 16.5V19.5" stroke="#FD4546" stroke-width="0.75" stroke-linecap="round" stroke-linejoin="round"/>
<path d="M13.793 14.5L14.2965 20.5C14.2965 20.7652 14.4026 21.0196 14.5914 21.2071C14.7802 21.3946 15.0364 21.5 15.3034 21.5H19.3314C19.5984 21.5 19.8546 21.3946 20.0434 21.2071C20.2322 21.0196 20.3383 20.7652 20.3383 20.5L20.8418 14.5" stroke="#FD4546" stroke-width="0.75" stroke-linecap="round" stroke-linejoin="round"/>
<path d="M15.8086 14.5V13C15.8086 12.8674 15.8616 12.7402 15.9561 12.6464C16.0505 12.5527 16.1785 12.5 16.3121 12.5H18.326C18.4596 12.5 18.5876 12.5527 18.6821 12.6464C18.7765 12.7402 18.8295 12.8674 18.8295 13V14.5" stroke="#FD4546" stroke-width="0.75" stroke-linecap="round" stroke-linejoin="round"/>
</g>
<defs>
<filter id="filter0_d_9829_8213" x="0.234375" y="0" width="34.168" height="34" filterUnits="userSpaceOnUse" color-interpolation-filters="sRGB">
<feFlood flood-opacity="0" result="BackgroundImageFix"/>
<feColorMatrix in="SourceAlpha" type="matrix" values="0 0 0 0 0 0 0 0 0 0 0 0 0 0 0 0 0 0 127 0" result="hardAlpha"/>
<feOffset/>
<feGaussianBlur stdDeviation="2.5"/>
<feColorMatrix type="matrix" values="0 0 0 0 0 0 0 0 0 0 0 0 0 0 0 0 0 0 0.23 0"/>
<feBlend mode="normal" in2="BackgroundImageFix" result="effect1_dropShadow_9829_8213"/>
<feBlend mode="normal" in="SourceGraphic" in2="effect1_dropShadow_9829_8213" result="shape"/>
</filter>
<clipPath id="clip0_9829_8213">
<rect width="12.0837" height="12" fill="white" transform="translate(11.2773 11)"/>
</clipPath>
</defs>
</svg>
