<svg width="22" height="22" viewBox="0 0 22 22" fill="none" xmlns="http://www.w3.org/2000/svg">
<path d="M9.24434 12C9.67379 12.5741 10.2217 13.0491 10.8509 13.3929C11.4801 13.7367 12.1758 13.9411 12.891 13.9923C13.6061 14.0435 14.3239 13.9403 14.9957 13.6897C15.6674 13.4392 16.2775 13.047 16.7843 12.54L19.7843 9.53997C20.6951 8.59695 21.1991 7.33394 21.1877 6.02296C21.1763 4.71198 20.6505 3.45791 19.7234 2.53087C18.7964 1.60383 17.5423 1.07799 16.2313 1.0666C14.9204 1.0552 13.6574 1.55918 12.7143 2.46997L10.9943 4.17997M13.2443 9.99996C12.8149 9.42584 12.267 8.95078 11.6378 8.60703C11.0086 8.26327 10.3128 8.05885 9.59769 8.00763C8.88255 7.95641 8.16475 8.0596 7.49299 8.31018C6.82124 8.56077 6.21123 8.9529 5.70434 9.45996L2.70434 12.46C1.79355 13.403 1.28958 14.666 1.30097 15.977C1.31236 17.288 1.83821 18.542 2.76525 19.4691C3.69229 20.3961 4.94635 20.9219 6.25733 20.9333C7.56832 20.9447 8.83133 20.4408 9.77434 19.53L11.4843 17.82" stroke="#667085" stroke-width="1.25" stroke-linecap="round" stroke-linejoin="round"/>
</svg>
