<svg xmlns="http://www.w3.org/2000/svg" width="64" height="64" viewBox="0 0 64 64">
    <g fill="none" fill-rule="evenodd">
        <g>
            <g>
                <g transform="translate(-1080 -553) translate(1048 521) translate(32 32)">
                    <circle cx="32" cy="32" r="32" fill="#E9F0FF" opacity=".547"/>
                    <circle cx="32" cy="32" r="23" fill="#E4EDFF"/>
                    <g>
                        <path d="M1.099 0H27.499V26.4H1.099z" transform="translate(18 18)"/>
                        <path fill="#2C6DF9" d="M17.685 5.958c.644-.644 1.69-.644 2.334 0 .645.645.645 1.69 0 2.335l-7.147 7.148-2.18-2.49 6.993-6.993zM7.843 15.8l-.522.523-4.436-5.063c-.628-.717-1.73-.753-2.404-.08-.613.614-.646 1.598-.074 2.25l5.237 5.979c.081.203.203.393.368.557.614.614 1.591.643 2.24.088.057-.044.112-.093.165-.145.042-.043.082-.087.119-.132l1.488-1.488L7.843 15.8zm15.738-9.842c.644-.644 1.69-.644 2.334 0 .645.645.645 1.69 0 2.335L14.432 19.777c-.037.045-.077.09-.119.132-.053.052-.108.1-.165.145-.649.555-1.626.526-2.24-.088-.165-.164-.287-.354-.368-.557L6.303 13.43c-.572-.653-.54-1.637.074-2.25.674-.674 1.776-.638 2.404.079l4.436 5.063L23.58 5.958z" transform="translate(18 18)"/>
                    </g>
                </g>
            </g>
        </g>
    </g>
</svg>
