<svg xmlns="http://www.w3.org/2000/svg" width="20.623" height="13.477" viewBox="0 0 20.623 13.477">
  <g id="CC" transform="translate(-1.3 -6.91)">
    <path id="Path_247" data-name="Path 247" d="M18.5,17.242H2.239A.936.936,0,0,1,1.3,16.3V7.849a.936.936,0,0,1,.939-.939H18.5a.936.936,0,0,1,.939.939V16.3A.945.945,0,0,1,18.5,17.242Z" transform="translate(0 0)" fill="#fff"/>
    <path id="Path_248" data-name="Path 248" d="M21.208,20.945H4.361a.889.889,0,0,1-.891-.891V11.161a.889.889,0,0,1,.891-.891H21.215a.889.889,0,0,1,.891.891v8.893A.9.9,0,0,1,21.208,20.945Z" transform="translate(-0.683 -1.058)" fill="none" stroke="#2b6df8" stroke-linecap="round" stroke-linejoin="round" stroke-miterlimit="10" stroke-width="1"/>
    <path id="Path_249" data-name="Path 249" d="M21.007,21.1H4.749a.936.936,0,0,1-.939-.939V11.709a.936.936,0,0,1,.939-.939H21.007a.936.936,0,0,1,.939.939v8.455A.94.94,0,0,1,21.007,21.1Z" transform="translate(-0.79 -1.215)" fill="#fff"/>
    <line id="Line_41" data-name="Line 41" x2="17.375" transform="translate(3.02 12.076)" fill="none" stroke="#2b6df8" stroke-linecap="round" stroke-linejoin="round" stroke-miterlimit="10" stroke-width="0.5"/>
    <circle id="Ellipse_14" data-name="Ellipse 14" cx="1.336" cy="1.336" r="1.336" transform="translate(4.568 14.09)" stroke-width="0.5" stroke="#2b6df8" stroke-linecap="round" stroke-linejoin="round" stroke-miterlimit="10" fill="none"/>
    <circle id="Ellipse_15" data-name="Ellipse 15" cx="0.774" cy="0.774" r="0.774" transform="translate(18.209 17.057)" stroke-width="0.5" stroke="#2b6df8" stroke-linecap="round" stroke-linejoin="round" stroke-miterlimit="10" fill="none"/>
    <path id="Path_250" data-name="Path 250" d="M10.25,17.541a1.352,1.352,0,0,1,.623-.151,1.336,1.336,0,0,1,0,2.672,1.352,1.352,0,0,1-.623-.151" transform="translate(-2.818 -3.3)" fill="none" stroke="#2b6df8" stroke-linecap="round" stroke-linejoin="round" stroke-miterlimit="10" stroke-width="0.5"/>
    <line id="Line_42" data-name="Line 42" x2="3.145" transform="translate(13.838 17.831)" fill="none" stroke="#2b6df8" stroke-linecap="round" stroke-linejoin="round" stroke-miterlimit="10" stroke-width="0.5"/>
  </g>
</svg>
