<?xml version="1.0" encoding="UTF-8"?>
<svg width="31px" height="33px" viewBox="0 0 31 33" version="1.1" xmlns="http://www.w3.org/2000/svg" xmlns:xlink="http://www.w3.org/1999/xlink">
    <!-- Generator: Sketch 59.1 (86144) - https://sketch.com -->
    <title>currencies</title>
    <desc>Created with Sketch.</desc>
    <g id="Team-Report" stroke="none" stroke-width="1" fill="none" fill-rule="evenodd">
        <g id="8.5-The-Financier-View-the-queue-of-payment" transform="translate(-25.000000, -409.000000)" fill="#FFFFFF" fill-rule="nonzero">
            <g id="Left-Menu" transform="translate(0.000000, 80.000000)">
                <g id="currencies" transform="translate(25.000000, 329.000000)">
                    <path d="M9.71333333,32.55 C9.3,32.4466667 8.88666667,32.4466667 8.37,32.3433333 C6.51,31.93 4.85666667,31 3.51333333,29.5533333 C2.06666667,28.1066667 1.13666667,26.4533333 0.826666667,24.3866667 C0.103333333,20.3566667 1.34333333,17.05 4.54666667,14.4666667 C6.09666667,13.2266667 7.85333333,12.5033333 9.81666667,12.4 C13.4333333,12.09 16.43,13.4333333 18.7033333,16.2233333 C19.84,17.67 20.5633333,19.4266667 20.77,21.2866667 C21.08,24.5933333 20.0466667,27.4866667 17.67,29.76 C16.3266667,31.1033333 14.6733333,31.93 12.9166667,32.3433333 C12.5033333,32.4466667 12.09,32.4466667 11.6766667,32.55 C11.0566667,32.55 10.4366667,32.55 9.71333333,32.55 Z M9.61,20.46 C9.61,19.6333333 10.23,19.1166667 11.0566667,19.22 C11.3666667,19.22 11.5733333,19.4266667 11.8833333,19.6333333 C12.1933333,19.9433333 12.6066667,19.9433333 12.9166667,19.6333333 C13.2266667,19.3233333 13.2266667,18.8066667 12.9166667,18.4966667 C12.6066667,18.1866667 12.2966667,17.98 11.8833333,17.7733333 C11.78,17.7733333 11.6766667,17.67 11.6766667,17.4633333 C11.6766667,17.36 11.6766667,17.1533333 11.6766667,17.05 C11.6766667,16.6366667 11.2633333,16.3266667 10.85,16.3266667 C10.4366667,16.3266667 10.1266667,16.6366667 10.0233333,17.05 C10.0233333,17.1533333 10.0233333,17.2566667 10.0233333,17.4633333 C10.0233333,17.67 9.92,17.7733333 9.81666667,17.7733333 C8.68,18.1866667 7.95666667,19.3233333 8.06,20.5633333 C8.16333333,22.01 9.3,23.25 10.7466667,23.3533333 C10.9533333,23.3533333 11.16,23.3533333 11.3666667,23.4566667 C11.8833333,23.6633333 12.1933333,24.2833333 12.1933333,24.8 C12.09,25.42 11.6766667,25.8333333 11.0566667,25.9366667 C10.6433333,25.9366667 10.3333333,25.8333333 10.0233333,25.5233333 C9.81666667,25.3166667 9.50666667,25.2133333 9.3,25.3166667 C8.68,25.5233333 8.47333333,26.1433333 8.99,26.66 C9.3,26.97 9.61,27.1766667 10.0233333,27.3833333 C10.23,27.4866667 10.23,27.59 10.23,27.6933333 C10.23,27.7966667 10.23,27.9 10.23,28.1066667 C10.23,28.52 10.6433333,28.83 11.0566667,28.83 C11.47,28.83 11.8833333,28.52 11.8833333,28.0033333 C11.8833333,27.9 11.8833333,27.7966667 11.8833333,27.6933333 C11.8833333,27.4866667 11.9866667,27.3833333 12.09,27.3833333 C13.33,26.8666667 13.95,25.8333333 13.8466667,24.3866667 C13.7433333,23.6633333 13.4333333,23.0433333 12.9166667,22.63 C12.4,22.1133333 11.6766667,21.9066667 10.9533333,21.9066667 C10.0233333,21.5966667 9.61,21.08 9.61,20.46 Z" id="Shape"></path>
                    <path d="M30.8966667,11.3666667 C30.8966667,15.3966667 28.1066667,19.0133333 24.18,20.0466667 C23.6633333,20.15 23.0433333,20.2533333 22.4233333,20.3566667 C22.01,20.3566667 22.01,20.3566667 21.9066667,19.9433333 C21.5966667,18.3933333 20.8733333,17.05 19.9433333,15.81 C18.29,13.5366667 16.0166667,12.09 13.2266667,11.47 C12.9166667,11.3666667 12.9166667,11.3666667 12.9166667,11.0566667 C13.1233333,7.13 15.9133333,3.61666667 19.84,2.79 C22.7333333,2.17 25.42,2.79 27.6933333,4.75333333 C29.45,6.2 30.4833333,8.16333333 30.7933333,10.4366667 C30.7933333,10.6433333 30.8966667,11.0566667 30.8966667,11.3666667 Z M19.9433333,11.2633333 C19.7366667,11.2633333 19.53,11.2633333 19.3233333,11.2633333 C19.0133333,11.2633333 18.8066667,11.47 18.8066667,11.78 C18.8066667,12.09 19.0133333,12.2966667 19.3233333,12.2966667 C19.53,12.2966667 19.7366667,12.2966667 19.84,12.2966667 C20.0466667,12.2966667 20.15,12.4 20.2533333,12.6066667 C20.8733333,13.8466667 21.8033333,14.57 23.1466667,14.7766667 C23.56,14.88 24.0766667,14.7766667 24.49,14.6733333 C24.8,14.57 24.9033333,14.26 24.8,13.95 C24.6966667,13.7433333 24.49,13.64 24.0766667,13.7433333 C22.94,14.0533333 22.01,13.5366667 21.39,12.71 C21.39,12.6066667 21.2866667,12.6066667 21.2866667,12.5033333 C21.39,12.5033333 21.4933333,12.5033333 21.5966667,12.5033333 C22.2166667,12.5033333 22.7333333,12.5033333 23.3533333,12.5033333 C23.4566667,12.5033333 23.6633333,12.5033333 23.7666667,12.4 C23.9733333,12.2966667 24.0766667,12.1933333 24.0766667,11.8833333 C24.0766667,11.6766667 23.9733333,11.47 23.6633333,11.3666667 C23.56,11.3666667 23.4566667,11.3666667 23.3533333,11.3666667 C22.63,11.3666667 21.9066667,11.3666667 21.1833333,11.3666667 C21.08,11.3666667 20.9766667,11.3666667 20.8733333,11.3666667 C20.8733333,11.2633333 20.8733333,11.0566667 20.8733333,10.9533333 C20.8733333,10.54 20.8733333,10.54 21.2866667,10.54 C21.4933333,10.54 21.8033333,10.54 22.01,10.54 C22.4233333,10.54 22.94,10.54 23.3533333,10.54 C23.4566667,10.54 23.56,10.54 23.6633333,10.54 C23.9733333,10.54 24.18,10.23 24.0766667,10.0233333 C24.0766667,9.71333333 23.87,9.50666667 23.56,9.50666667 C22.94,9.50666667 22.2166667,9.50666667 21.5966667,9.50666667 C21.4933333,9.50666667 21.39,9.50666667 21.2866667,9.50666667 C21.2866667,9.40333333 21.2866667,9.40333333 21.2866667,9.40333333 C21.7,8.57666667 22.8366667,8.06 23.6633333,8.16333333 C23.87,8.16333333 24.0766667,8.26666667 24.2833333,8.26666667 C24.5933333,8.37 24.8,8.16333333 24.9033333,7.95666667 C25.0066667,7.64666667 24.9033333,7.44 24.5933333,7.33666667 C23.87,7.02666667 23.0433333,7.02666667 22.32,7.33666667 C21.2866667,7.64666667 20.5633333,8.37 20.15,9.3 C20.0466667,9.50666667 19.9433333,9.50666667 19.7366667,9.50666667 C19.53,9.50666667 19.3233333,9.50666667 19.0133333,9.50666667 C18.7033333,9.50666667 18.6,9.71333333 18.4966667,9.92 C18.4966667,10.23 18.6,10.4366667 19.0133333,10.54 C19.22,10.54 19.4266667,10.54 19.6333333,10.54 C19.9433333,10.6433333 19.9433333,10.9533333 19.9433333,11.2633333 Z" id="Shape"></path>
                    <path d="M11.6766667,11.16 C8.47333333,10.9533333 5.78666667,11.8833333 3.30666667,13.95 C2.79,13.64 2.37666667,13.1233333 1.96333333,12.71 C1.03333333,11.5733333 0.413333333,10.23 0.206666667,8.78333333 C-4.99600361e-16,6.2 0.723333333,4.13333333 2.68666667,2.37666667 C4.23666667,1.03333333 5.99333333,0.413333333 8.06,0.516666667 C9.71333333,0.62 11.16,1.24 12.2966667,2.27333333 C13.02,2.89333333 13.5366667,3.51333333 13.95,4.34 C14.0533333,4.54666667 14.0533333,4.65 13.95,4.85666667 C12.9166667,6.2 12.1933333,7.64666667 11.8833333,9.3 C11.78,9.71333333 11.78,10.23 11.6766667,10.6433333 C11.6766667,10.85 11.6766667,10.9533333 11.6766667,11.16 Z M6.09666667,6.51 C5.89,6.51 5.78666667,6.51 5.68333333,6.51 C5.58,6.51 5.47666667,6.51 5.37333333,6.51 C5.06333333,6.61333333 4.96,6.82 4.96,7.02666667 C4.96,7.23333333 5.16666667,7.44 5.37333333,7.44 C5.68333333,7.44 5.99333333,7.44 6.30333333,7.44 C6.40666667,7.44 6.51,7.44 6.51,7.54333333 C6.51,7.64666667 6.51,7.85333333 6.51,7.95666667 C6.51,7.95666667 6.40666667,8.06 6.30333333,8.06 C5.99333333,8.06 5.68333333,8.06 5.37333333,8.06 C5.16666667,8.06 5.06333333,8.16333333 4.96,8.37 C4.75333333,8.68 4.96,9.09333333 5.37333333,9.09333333 C5.68333333,9.09333333 5.99333333,9.09333333 6.30333333,9.09333333 C6.51,9.09333333 6.51,9.19666667 6.51,9.3 C6.51,9.40333333 6.51,9.61 6.51,9.71333333 C6.51,10.0233333 6.71666667,10.23 7.02666667,10.23 C7.33666667,10.23 7.54333333,10.0233333 7.54333333,9.71333333 C7.54333333,9.61 7.54333333,9.40333333 7.54333333,9.3 C7.54333333,9.09333333 7.64666667,8.99 7.75,9.09333333 C8.06,9.09333333 8.37,9.09333333 8.68,9.09333333 C8.99,9.09333333 9.19666667,8.88666667 9.19666667,8.57666667 C9.19666667,8.26666667 8.99,8.06 8.68,8.06 C8.37,8.06 8.06,8.06 7.75,8.06 C7.54333333,8.06 7.44,8.06 7.44,7.85333333 C7.44,7.54333333 7.44,7.54333333 7.75,7.54333333 C8.06,7.54333333 8.37,7.54333333 8.68,7.54333333 C8.88666667,7.54333333 9.09333333,7.33666667 9.09333333,7.13 C9.09333333,6.92333333 8.99,6.71666667 8.68,6.61333333 C8.57666667,6.61333333 8.47333333,6.61333333 8.26666667,6.61333333 C8.16333333,6.61333333 8.06,6.61333333 7.85333333,6.61333333 C8.37,6.2 8.57666667,5.99333333 8.68,5.68333333 C8.88666667,5.37333333 9.19666667,4.96 9.40333333,4.65 C9.61,4.34 9.50666667,4.03 9.3,3.92666667 C8.99,3.72 8.68,3.82333333 8.47333333,4.13333333 C8.47333333,4.13333333 8.47333333,4.23666667 8.37,4.23666667 C8.06,4.75333333 7.75,5.37333333 7.33666667,5.89 C7.33666667,5.99333333 7.23333333,5.99333333 7.13,6.09666667 C7.13,6.09666667 7.02666667,5.99333333 7.02666667,5.89 C6.71666667,5.37333333 6.40666667,4.85666667 6.09666667,4.34 C5.99333333,4.34 5.89,4.13333333 5.78666667,4.03 C5.47666667,3.72 5.06333333,3.82333333 4.85666667,4.13333333 C4.75333333,4.34 4.85666667,4.44333333 4.96,4.65 C5.27,5.16666667 5.58,5.68333333 5.89,6.2 C5.99333333,6.2 5.99333333,6.30333333 6.09666667,6.51 Z" id="Shape"></path>
                </g>
            </g>
        </g>
    </g>
</svg>