<?xml version="1.0" encoding="UTF-8"?>
<svg width="35px" height="21px" viewBox="0 0 35 21" version="1.1" xmlns="http://www.w3.org/2000/svg" xmlns:xlink="http://www.w3.org/1999/xlink">
    <!-- Generator: Sketch 59.1 (86144) - https://sketch.com -->
    <title>noun_group_2334501</title>
    <desc>Created with Sketch.</desc>
    <g id="Web" stroke="none" stroke-width="1" fill="none" fill-rule="evenodd">
        <g id="7.2.1-The-Employee-Add-New-Report" transform="translate(-22.000000, -348.000000)" fill="#FFFFFF" fill-rule="nonzero">
            <g id="noun_group_2334501" transform="translate(22.000000, 348.000000)">
                <g id="Group">
                    <circle id="Oval" cx="6.62399992" cy="4.21199995" r="4.21199995"></circle>
                    <path d="M11.9879999,11.6999999 C11.1959999,10.4039999 9.79199989,9.53999989 8.17199991,9.53999989 L5.03999994,9.53999989 C2.77199997,9.53999989 0.86399999,11.2319999 0.611999993,13.4639998 L0.179999998,17.1359998 C0.107999999,17.6039998 0.431999995,18.0359998 0.89999999,18.1439998 C2.69999997,18.5399999 4.60799995,18.7199998 6.62399992,18.7199998 C7.63199991,18.7199998 8.6039999,18.6839998 9.57599989,18.5759998 L9.97199988,15.4439998 C10.1519999,13.9679998 10.9079999,12.6359999 11.9879999,11.6999999 Z" id="Path"></path>
                    <circle id="Oval" cx="27.9359997" cy="4.21199995" r="4.21199995"></circle>
                    <path d="M33.9479996,13.4999998 C33.6959996,11.2679999 31.7879996,9.57599989 29.5199997,9.57599989 L26.3879997,9.57599989 C24.7679997,9.57599989 23.3639997,10.4399999 22.5719997,11.7359999 C23.6879997,12.6359999 24.4439997,13.9679998 24.6239997,15.4799998 L25.0199997,18.6119998 C25.9919997,18.7199998 26.9639997,18.7559998 27.9719997,18.7559998 C29.9519997,18.7559998 31.8959996,18.5399998 33.6959996,18.1799998 C34.1639996,18.0719998 34.4519996,17.6399998 34.4159996,17.1719998 L33.9479996,13.4999998 Z" id="Path"></path>
                    <path d="M18.8279998,11.6999999 L15.6959998,11.6999999 C13.4279998,11.6999999 11.5199999,13.3919998 11.2679999,15.6239998 L10.8359999,19.2599998 C10.7639999,19.7279998 11.0879999,20.1959998 11.5559999,20.2679998 C13.3559998,20.6639998 15.2999998,20.8439998 17.2799998,20.8439998 C19.2599998,20.8439998 21.2039998,20.6279998 23.0039997,20.2679998 C23.4719997,20.1599998 23.7599997,19.7279998 23.7239997,19.2599998 L23.2919997,15.6239998 C23.0039997,13.3919998 21.0959998,11.6999999 18.8279998,11.6999999 Z" id="Path"></path>
                    <circle id="Oval" cx="17.2799998" cy="6.33599993" r="4.21199995"></circle>
                </g>
            </g>
        </g>
    </g>
</svg>