<?xml version="1.0" encoding="UTF-8"?>
<svg width="980px" height="980px" viewBox="0 0 980 980" version="1.1" xmlns="http://www.w3.org/2000/svg" xmlns:xlink="http://www.w3.org/1999/xlink">
    <!-- Generator: Sketch 59.1 (86144) - https://sketch.com -->
    <title>223b1a50b34e4908daa8f38d3a363a43</title>
    <desc>Created with Sketch.</desc>
    <g id="App-Logo" stroke="none" stroke-width="1" fill="none" fill-rule="evenodd">
        <g id="223b1a50b34e4908daa8f38d3a363a43" transform="translate(-1.000000, -1.000000)" fill="#FFFFFF" fill-rule="nonzero">
            <path d="M838.2,143.7 C745.9,51.4 622.9,0.7 492,0.998676231 C361.2,1.3 238.1,52.5 145.3,145.3 C52.6,238 1.3,361.2 0.998676234,492 C0.7,622.9 51.4,745.9 143.8,838.2 C236.2,930.6 359.1,981.3 490,981.001324 C620.8,980.7 744,929.4 836.7,836.7 C929.4,744 980.7,620.8 980.902349,490 C981.3,359.1 930.6,236.1 838.2,143.7 Z M787.1,787.1 C707.6,866.6 602,910.6 489.8,910.801545 C377.7,911.1 272.4,867.7 193.4,788.6 C114.3,709.5 70.9,604.2 71.1984551,492.1 C71.4,379.9 115.4,274.4 194.9,194.8 C274.4,115.3 380,71.3 492.2,71.0984551 C604.3,70.8 709.5,114.2 788.6,193.3 C867.7,272.4 911.1,377.6 910.801545,489.8 C910.6,602 866.6,707.6 787.1,787.1 Z" id="Shape"></path>
            <path d="M620.5,285.1 C588.4,256.7 545.3,238 491,237.799592 C439.3,237.7 397.6,256 365.8,284 C334,312 316.8,348.8 314.2,389 L395.5,400 C401.6,372 418.3,351.1 434.5,337.5 C450.7,323.8 470.7,317 494.8,317.1 C519.7,317.2 539.4,323.8 554.1,336.9 C568.7,350.1 576.1,365.9 576.1,384.3 C576.1,397.6 571.8,409.7 563.6,420.6 C558.2,427.5 541.7,442.2 514,464.6 C486.4,487 467.9,507.2 458.6,525.1 C449.3,543.1 444.7,565.9 444.6,593.8 C444.6,596.5 444.7,604 444.9,616.3 L530.8,616.5 C530.3,590.5 532.6,572.4 537.5,562.3 C542.3,552.2 554.7,538.9 574.8,522.3 C613.5,490.3 638.8,465 650.6,446.4 C662.4,427.8 668.400466,408 668.400466,387.2 C668.5,349.4 652.5,313.6 620.5,285.1 Z" id="Path"></path>
            <polygon id="Path" points="537.8 743.7 443.2 743.5 443.4 648.9 538 649.1"></polygon>
        </g>
    </g>
</svg>