<?xml version="1.0" encoding="UTF-8"?>
<svg width="21px" height="22px" viewBox="0 0 21 22" version="1.1" xmlns="http://www.w3.org/2000/svg" xmlns:xlink="http://www.w3.org/1999/xlink">
    <!-- Generator: Sketch 59.1 (86144) - https://sketch.com -->
    <title>noun_notification_2335160</title>
    <desc>Created with Sketch.</desc>
    <g id="Web" stroke="none" stroke-width="1" fill="none" fill-rule="evenodd">
        <g id="7.2.1-The-Employee-Add-New-Report" transform="translate(-28.000000, -409.000000)" fill="#FFFFFF">
            <g id="noun_notification_2335160" transform="translate(28.000000, 409.000000)">
                <path d="M10.9627011,18.2225599 L0.961538462,18.2225599 L0.961538462,16.0811584 C0.961538462,16.0811584 5.14012235,14.8030032 4.44485436,9.41115481 C4.04955148,5.62978191 5.34940034,3.16195924 8.66296853,2.34197354 L8.66296853,1.94476225 C8.66296853,1.40990347 8.92107805,0.922238112 9.33730872,0.570253843 C9.75353939,0.218269575 10.3302165,0 10.9627011,0 C11.5951857,0 12.1695375,0.218269575 12.5857682,0.570253843 C13.0019989,0.922238112 13.2624337,1.40990347 13.2624337,1.94476225 L13.2624337,2.34197354 C16.5736766,3.16195924 17.8758508,5.62978191 17.4805479,9.41115481 C16.7829546,14.8030032 20.9615385,16.0811584 20.9615385,16.0811584 L20.9615385,18.2225599 L10.9627011,18.2225599 Z M10.0256008,2.10993922 C10.3255659,2.07847694 10.6371576,2.05881301 10.9627011,2.04898105 C11.2882447,2.05881301 11.5998363,2.07847694 11.8998015,2.10993922 L11.8998015,1.94476225 C11.8998015,1.72649267 11.7928371,1.52985341 11.6230894,1.38630676 C11.4533417,1.24079371 11.2184853,1.15230604 10.9627011,1.15230604 C10.7045916,1.15230604 10.4720605,1.24079371 10.3023128,1.38630676 C10.1302398,1.52985341 10.0256008,1.72649267 10.0256008,1.94476225 L10.0256008,2.10993922 Z M13.9530511,19.0681087 C13.9739789,19.190025 13.9856054,19.3158742 13.9856054,19.4436897 C13.9856054,20.8555595 12.6322744,22 10.9627011,22 C9.29312781,22 7.9397968,20.8555595 7.9397968,19.4436897 C7.9397968,19.3158742 7.95142336,19.190025 7.97235116,19.0681087 L10.9627011,19.0681087 L13.9530511,19.0681087 Z" id="Shape"></path>
            </g>
        </g>
    </g>
</svg>