<?xml version="1.0" encoding="UTF-8"?>
<svg width="20px" height="26px" viewBox="0 0 20 26" version="1.1" xmlns="http://www.w3.org/2000/svg" xmlns:xlink="http://www.w3.org/1999/xlink">
    <!-- Generator: Sketch 59.1 (86144) - https://sketch.com -->
    <title>noun_report_362506</title>
    <desc>Created with Sketch.</desc>
    <g id="Web" stroke="none" stroke-width="1" fill="none" fill-rule="evenodd">
        <g id="2.3-WebApp---Dashboard-Recent-Expenses" transform="translate(-30.000000, -282.000000)" fill-rule="nonzero">
            <g id="noun_report_362506" transform="translate(27.000000, 282.000000)">
                <g id="Group" transform="translate(3.196800, 0.000000)">
                    <polygon id="Path" fill="#FFFFFF" points="16.2505332 25.5744 0 25.5744 0 0 19.1808 0 19.1808 22.6441332"></polygon>
                    <polygon id="Path" fill="#2B6DF8" points="5.96442961 14.0095764 4.15424161 16.2093744 3.3934032 15.4693152 2.8915056 16.0135704 4.21298281 17.298684 6.52147201 14.493492"></polygon>
                    <polygon id="Path" fill="#2B6DF8" points="5.96442961 18.2892924 4.15424161 20.4890904 3.3934032 19.7490312 2.8915056 20.2932864 4.21298281 21.5784 6.52147201 18.773208"></polygon>
                    <line x1="7.94244961" y1="14.9502348" x2="16.2892944" y2="14.9502348" id="Path" stroke="#2B6DF8" stroke-width="0.5"></line>
                    <line x1="7.94244961" y1="16.3520316" x2="16.2892944" y2="16.3520316" id="Path" stroke="#2B6DF8" stroke-width="0.5"></line>
                    <line x1="7.94244961" y1="19.2299508" x2="16.2892944" y2="19.2299508" id="Path" stroke="#2B6DF8" stroke-width="0.5"></line>
                    <line x1="7.94244961" y1="20.6317476" x2="16.2892944" y2="20.6317476" id="Path" stroke="#2B6DF8" stroke-width="0.5"></line>
                    <g transform="translate(2.797200, 3.996000)" fill="#2B6DF8" id="Rectangle">
                        <rect x="0.3320676" y="0.1022976" width="13.1212656" height="1.6531452"></rect>
                        <rect x="0.3320676" y="4.89110401" width="13.1212656" height="1.6531452"></rect>
                        <rect x="0.3320676" y="2.4967008" width="13.1212656" height="1.6531452"></rect>
                    </g>
                    <polygon id="Path" fill="#A6A6A6" points="16.2505332 25.5744 16.2505332 22.6441332 19.1808 22.6441332"></polygon>
                </g>
                <path d="M3.1968,25.5744 L19.4473332,25.5744 L22.3776,22.6441332 L22.3776,0 L3.1968,0 L3.1968,25.5744 Z M19.4860944,20.9114676 L11.1392496,20.9114676 L11.1392496,20.3520276 L19.4860944,20.3520276 L19.4860944,20.9114676 Z M19.4860944,19.5096708 L11.1392496,19.5096708 L11.1392496,18.9502308 L19.4860944,18.9502308 L19.4860944,19.5096708 Z M19.4860944,16.6317516 L11.1392496,16.6317516 L11.1392496,16.0723116 L19.4860944,16.0723116 L19.4860944,16.6317516 Z M19.532448,22.7288484 L21.5016768,22.7288484 L19.532448,24.6980772 L19.532448,22.7288484 Z M19.4860944,15.2299548 L11.1392496,15.2299548 L11.1392496,14.6705148 L19.4860944,14.6705148 L19.4860944,15.2299548 Z M6.32606761,4.09829761 L19.4473332,4.09829761 L19.4473332,5.75144281 L6.32606761,5.75144281 L6.32606761,4.09829761 Z M6.32606761,6.49270081 L19.4473332,6.49270081 L19.4473332,8.14584601 L6.32606761,8.14584601 L6.32606761,6.49270081 Z M6.32606761,8.88710401 L19.4473332,8.88710401 L19.4473332,10.5402492 L6.32606761,10.5402492 L6.32606761,8.88710401 Z M6.59020321,15.4693152 L7.35104161,16.2093744 L9.16122961,14.0095764 L9.71827201,14.493492 L7.40978281,17.298684 L6.08870521,16.01397 L6.59020321,15.4693152 Z M6.59020321,19.7490312 L7.35104161,20.4890904 L9.16122961,18.2892924 L9.71827201,18.773208 L7.40978281,21.5784 L6.08870521,20.293686 L6.59020321,19.7490312 Z" id="Shape"></path>
            </g>
        </g>
    </g>
</svg>