<?xml version="1.0" encoding="UTF-8"?>
<svg width="20px" height="20px" viewBox="0 0 20 20" version="1.1" xmlns="http://www.w3.org/2000/svg" xmlns:xlink="http://www.w3.org/1999/xlink">
    <!-- Generator: Sketch 59.1 (86144) - https://sketch.com -->
    <title>noun_dashboard_1943893</title>
    <desc>Created with Sketch.</desc>
    <g id="Web" stroke="none" stroke-width="1" fill="none" fill-rule="evenodd">
        <g id="7.2.1-The-Employee-Add-New-Report" transform="translate(-30.000000, -100.000000)" fill="#FFFFFF" fill-rule="nonzero">
            <g id="noun_dashboard_1943893" transform="translate(30.000000, 100.000000)">
                <g id="Group">
                    <path d="M9.23076923,0.769230769 C9.23076923,0.346153846 8.88461538,0 8.46153846,0 L0.769230769,0 C0.346153846,0 0,0.346153846 0,0.769230769 L0,8.46153846 C0,8.88461538 0.346153846,9.23076923 0.769230769,9.23076923 L8.46153846,9.23076923 C8.88461538,9.23076923 9.23076923,8.88461538 9.23076923,8.46153846 L9.23076923,0.769230769 Z" id="Path"></path>
                    <path d="M20,0.769230769 C20,0.346153846 19.6538462,0 19.2307692,0 L11.5384615,0 C11.1153846,0 10.7692308,0.346153846 10.7692308,0.769230769 L10.7692308,8.46153846 C10.7692308,8.88461538 11.1153846,9.23076923 11.5384615,9.23076923 L19.2307692,9.23076923 C19.6538462,9.23076923 20,8.88461538 20,8.46153846 L20,0.769230769 Z" id="Path"></path>
                    <path d="M11.5384615,20 L19.2307692,20 C19.6538462,20 20,19.6538462 20,19.2307692 L20,11.5384615 C20,11.1153846 19.6538462,10.7692308 19.2307692,10.7692308 L11.5384615,10.7692308 C11.1153846,10.7692308 10.7692308,11.1153846 10.7692308,11.5384615 L10.7692308,19.2307692 C10.7692308,19.6538462 11.1153846,20 11.5384615,20 Z" id="Path"></path>
                    <path d="M8.46153846,10.7692308 L0.769230769,10.7692308 C0.346153846,10.7692308 0,11.1153846 0,11.5384615 L0,19.2307692 C0,19.6538462 0.346153846,20 0.769230769,20 L8.46153846,20 C8.88461538,20 9.23076923,19.6538462 9.23076923,19.2307692 L9.23076923,11.5384615 C9.23076923,11.1153846 8.88461538,10.7692308 8.46153846,10.7692308 Z" id="Path"></path>
                </g>
            </g>
        </g>
    </g>
</svg>