<svg xmlns="http://www.w3.org/2000/svg" width="24" height="24" viewBox="0 0 24 24">
    <g fill="none" fill-rule="evenodd">
        <g>
            <g>
                <g>
                    <g>
                        <path d="M0 0H24V24H0z" transform="translate(-1333 -794) translate(1048 521) translate(32 264) translate(253 9)"/>
                        <path fill="#2C6DF9" d="M8 2c-1.105 0-2 .895-2 2v1H5c-1.105 0-2 .895-2 2v13c0 1.105.895 2 2 2h9c1.105 0 2-.895 2-2v-1h1c1.105 0 2-.895 2-2V4c0-1.105-.895-2-2-2H8zm8 5v10.8h.8c.552 0 1-.448 1-1V4.2c0-.552-.448-1-1-1H8.2c-.552 0-1 .448-1 1V5H14c1.105 0 2 .895 2 2zM5.2 6.2c-.552 0-1 .448-1 1v12.6c0 .552.448 1 1 1h8.6c.552 0 1-.448 1-1V7.2c0-.552-.448-1-1-1H5.2z" transform="translate(-1333 -794) translate(1048 521) translate(32 264) translate(253 9)"/>
                    </g>
                </g>
            </g>
        </g>
    </g>
</svg>
