<svg width="25" height="24" viewBox="0 0 25 24" fill="none" xmlns="http://www.w3.org/2000/svg">
<path d="M14.1367 3V7C14.1367 7.26522 14.2428 7.51957 14.4317 7.70711C14.6205 7.89464 14.8766 8 15.1437 8H19.1716" stroke="#2C6DF9" stroke-width="1.5" stroke-linecap="round" stroke-linejoin="round"/>
<path d="M17.158 21H7.08818C6.55404 21 6.04178 20.7893 5.66409 20.4142C5.2864 20.0391 5.07422 19.5304 5.07422 19V5C5.07422 4.46957 5.2864 3.96086 5.66409 3.58579C6.04178 3.21071 6.55404 3 7.08818 3H14.137L19.1719 8V19C19.1719 19.5304 18.9597 20.0391 18.5821 20.4142C18.2044 20.7893 17.6921 21 17.158 21Z" stroke="#2C6DF9" stroke-width="1.5" stroke-linecap="round" stroke-linejoin="round"/>
<path d="M9.10156 7H10.1085" stroke="#2C6DF9" stroke-width="1.5" stroke-linecap="round" stroke-linejoin="round"/>
<path d="M9.10156 13H15.1434" stroke="#2C6DF9" stroke-width="1.5" stroke-linecap="round" stroke-linejoin="round"/>
<path d="M13.1289 17H15.1429" stroke="#2C6DF9" stroke-width="1.5" stroke-linecap="round" stroke-linejoin="round"/>
</svg>
