<?xml version="1.0" encoding="UTF-8"?>
<svg width="112px" height="115px" viewBox="0 0 112 115" version="1.1" xmlns="http://www.w3.org/2000/svg" xmlns:xlink="http://www.w3.org/1999/xlink">
    <!-- Generator: Sketch 59.1 (86144) - https://sketch.com -->
    <title>Group 6</title>
    <desc>Created with Sketch.</desc>
    <g id="Web" stroke="none" stroke-width="1" fill="none" fill-rule="evenodd">
        <g id="3.1-WebApp---My-Profile" transform="translate(-140.000000, -175.000000)">
            <g id="Group-4" transform="translate(115.000000, 156.000000)">
                <g id="Group-6" transform="translate(25.000000, 19.000000)">
                    <rect id="Rectangle" fill-opacity="0.5" fill="#9B9B9B" x="0" y="0" width="112" height="115" rx="2"></rect>
                    <g id="001-businessman" transform="translate(32.000000, 33.000000)" fill="#4A4A4A" fill-opacity="0.6" fill-rule="nonzero">
                        <path d="M42.168303,28.5856798 C36.333517,27.101688 31.58924,23.7627064 31.58924,23.7627064 L27.8905026,35.4660058 L27.1934762,37.6695088 L27.1822338,37.6357816 L26.5751462,39.5020138 L24.6189752,33.9595292 C29.419464,27.259081 23.652132,27.3265352 23.3261034,27.3377776 C23.000075,27.3265352 17.232743,27.259081 22.0332318,33.9595292 L20.0770606,39.5020138 L19.4699731,37.6357816 L19.4587308,37.6695088 L18.7617043,35.4660058 L15.062967,23.7627064 C15.062967,23.7627064 10.31869,27.101688 4.48390386,28.5856798 C0.133109572,29.6874314 -0.0804953156,34.7127674 0.0993824848,37.2085718 C0.0768977596,37.2085718 0.335472098,40.5812806 0.582804074,42.0652726 C0.582804074,42.0652726 9.08203014,47.5852726 23.314861,47.5965148 C37.547692,47.5965148 46.0469182,42.0652726 46.0469182,42.0652726 C46.3054924,40.5812806 46.5528244,37.2085718 46.5528244,37.2085718 C46.7327022,34.7240098 46.5190974,29.6986738 42.168303,28.5856798 Z" id="Path"></path>
                        <circle id="Oval" cx="24.1411052" cy="11.659782" r="10.340218"></circle>
                    </g>
                </g>
            </g>
        </g>
    </g>
</svg>