<?xml version="1.0" encoding="utf-8"?>
<!-- Generator: Adobe Illustrator 24.1.1, SVG Export Plug-In . SVG Version: 6.00 Build 0)  -->
<svg version="1.1" id="Layer_1" xmlns="http://www.w3.org/2000/svg" xmlns:xlink="http://www.w3.org/1999/xlink" x="0px" y="0px"
	 viewBox="0 0 580 730" style="enable-background:new 0 0 580 730;" xml:space="preserve">
<style type="text/css">
	.st0{fill:none;stroke:#3C94F6;stroke-linecap:round;stroke-miterlimit:10;}
	.st1{fill:none;stroke:#3C94F6;stroke-linecap:round;stroke-miterlimit:10;stroke-dasharray:2.8956,2.8956;}
	.st2{fill:#FFEEC0;}
	.st3{fill:#FFE180;}
	.st4{fill:#F9F0DC;}
	.st5{fill:#FFFFFF;}
	.st6{fill:none;stroke:#94E1FF;stroke-width:1.8281;stroke-miterlimit:10;}
	.st7{fill:#C7F2FF;}
	.st8{opacity:0.44;fill:#79D6F2;}
	.st9{fill:#94E1FF;}
	.st10{fill:#E1F8FF;}
	.st11{fill:none;stroke:#DBE3ED;stroke-miterlimit:10;}
	.st12{fill:#91A0C4;}
	.st13{fill:#68CCEA;}
	.st14{fill:#C4C7CC;}
	.st15{opacity:0.47;fill:#AEB2B7;}
	.st16{fill:#AEB2B7;}
	.st17{fill:#4B4951;}
	.st18{fill:none;stroke:#231F20;stroke-width:1.1958;stroke-miterlimit:10;}
	.st19{fill:#FFB243;}
	.st20{fill:#D6D6D6;}
	.st21{opacity:0.27;fill:#74717C;}
	.st22{fill:#E1E3EA;}
	.st23{fill:#3A8DD8;}
	.st24{fill:#187DC9;}
	.st25{fill:#FFEBB3;}
	.st26{fill:#F4D487;}
	.st27{fill:#FCA00A;}
	.st28{fill:#231F20;}
	.st29{fill:#452866;}
	.st30{fill:#FFEEC5;}
	.st31{fill:#3C94F6;}
	.st32{fill:#2C6FF8;}
	.st33{fill:#ED68A3;}
	.st34{fill:#FFC700;}
	.st35{fill:none;stroke:#94E1FF;stroke-width:2;stroke-miterlimit:10;}
	.st36{fill:none;stroke:#3C94F6;stroke-linecap:round;stroke-miterlimit:10;stroke-dasharray:3;}
	.st37{fill:#7BB8EF;}
	.st38{fill:url(#SVGID_1_);}
	.st39{fill:url(#SVGID_2_);}
	.st40{fill:url(#SVGID_3_);}
	.st41{fill:#4DBDF4;}
	.st42{opacity:0.39;}
	.st43{fill:#5B278C;}
	.st44{fill:#08041C;}
	.st45{fill:#3F3F3F;}
	.st46{fill:#55CFFF;}
	.st47{fill:url(#SVGID_4_);}
	.st48{opacity:0.45;}
	.st49{fill:#FF80C3;}
	.st50{fill:#E9EBF7;}
	.st51{fill:#E22B73;}
	.st52{fill:url(#SVGID_5_);}
	.st53{fill:url(#SVGID_6_);}
	.st54{fill:url(#SVGID_7_);}
	.st55{fill:url(#SVGID_8_);}
	.st56{fill:url(#SVGID_9_);}
	.st57{fill:url(#SVGID_10_);}
	.st58{fill:#E7EBF6;}
	.st59{fill:none;stroke:#B9C4DC;stroke-width:1.8281;stroke-miterlimit:10;}
	.st60{opacity:0.65;fill:#B9C4DC;}
	.st61{fill:#B4BFDA;}
	.st62{opacity:0.38;fill:#91A0C4;}
	.st63{fill:#D9E0EA;}
	.st64{fill:#F2F5FA;}
	.st65{fill:#B4BFDC;}
	.st66{fill:#352055;}
	.st67{fill:#B9C5DA;}
	.st68{fill:#CCD4E5;}
	.st69{fill:#91A1C1;}
	.st70{fill:#3D2768;}
	.st71{fill:#F7F8FC;}
	.st72{fill:#7436A5;}
	.st73{opacity:0.47;fill:#E12572;}
	.st74{fill:#95A7C1;}
	.st75{fill:#AFBAD4;}
	.st76{fill:#5D2E93;}
	.st77{fill:#DEE3EF;}
	.st78{opacity:0.54;fill:#8D4FC9;}
	.st79{fill:#E7498C;}
	.st80{fill:#CAD5E6;}
	.st81{fill:#B9C4DC;}
	.st82{fill:none;stroke:#B9C4DC;stroke-width:2;stroke-miterlimit:10;}
	.st83{fill:none;stroke:#7436A5;stroke-width:2.0741;stroke-miterlimit:10;}
	.st84{opacity:0.53;fill:url(#SVGID_11_);}
	.st85{opacity:0.53;fill:url(#SVGID_12_);}
	.st86{fill:url(#SVGID_13_);}
	.st87{fill:url(#SVGID_14_);}
	.st88{fill:#FF4591;}
	.st89{fill:#C14491;}
	.st90{fill:#4F3D7C;}
	.st91{fill:#E055A4;}
	.st92{fill:#CAD5E7;}
	.st93{fill:#EF65B4;}
	.st94{fill:#F7A1D6;}
	.st95{opacity:0.34;fill:#FFFFFF;}
	.st96{opacity:0.45;fill:url(#SVGID_15_);}
	.st97{opacity:0.45;fill:url(#SVGID_16_);}
	.st98{opacity:0.45;fill:url(#SVGID_17_);}
	.st99{fill:url(#SVGID_18_);}
	.st100{fill:url(#SVGID_19_);}
	.st101{fill:none;stroke:#FF80C3;stroke-miterlimit:10;}
	.st102{fill:none;stroke:#FF80C3;stroke-miterlimit:10;stroke-dasharray:4.5,4.5;}
	.st103{fill:none;stroke:#FF80C3;stroke-miterlimit:10;stroke-dasharray:4.0603,4.0603;}
	.st104{fill:#2E4E7C;stroke:#2E4E7C;stroke-width:5;stroke-miterlimit:10;}
	.st105{fill:url(#SVGID_20_);}
	.st106{fill:url(#SVGID_21_);}
	.st107{fill:url(#SVGID_22_);}
</style>
<g>
	<g>
		<line class="st0" x1="468" y1="256.5" x2="469.5" y2="256.5"/>
		<path class="st1" d="M472.4,256.5h19.53c1.42,0,2.57-1.15,2.57-2.57v-44.48"/>
		<line class="st0" x1="494.5" y1="208" x2="494.5" y2="206.5"/>
	</g>
</g>
<g>
	<g id="zvA1mW.tif">
		<g>
			<path class="st2" d="M250.84,588.05c-0.26,0.54-0.43,1.06-0.73,1.46c-1.39,1.85-2.8,3.67-4.24,5.48
				c-0.45,0.57-0.58,1.03-0.21,1.73c0.55,1.07,0.92,2.23,1.43,3.33c0.12,0.26,0.45,0.56,0.72,0.6c2.66,0.44,5.33,0.82,8,1.23
				c1.11,0.17,1.66,0.77,1.66,1.88c0.01,3.41,0.02,6.82-0.01,10.24c-0.01,1.61-0.44,2.04-2,2.27c-2.59,0.38-5.17,0.77-7.75,1.19
				c-0.26,0.04-0.57,0.33-0.68,0.58c-0.53,1.12-1.03,2.25-1.47,3.41c-0.1,0.27-0.07,0.73,0.1,0.96c1.47,1.96,2.98,3.9,4.5,5.81
				c1.04,1.3,1.16,1.89,0.02,3.09c-2.33,2.48-4.71,4.93-7.19,7.25c-1.56,1.46-2.14,1.33-3.8,0.01c-1.83-1.46-3.68-2.89-5.54-4.3
				c-0.19-0.15-0.57-0.21-0.8-0.12c-1.21,0.46-2.4,0.96-3.58,1.5c-0.21,0.1-0.42,0.41-0.46,0.65c-0.42,2.55-0.76,5.12-1.2,7.66
				c-0.33,1.89-0.66,2.13-2.59,2.14c-3.3,0.02-6.6,0.01-9.9-0.01c-1.23-0.01-1.71-0.45-1.9-1.67c-0.4-2.61-0.8-5.22-1.19-7.83
				c-0.08-0.57-0.27-0.92-0.91-1.12c-1.05-0.32-2.03-0.85-3.06-1.21c-0.3-0.1-0.78-0.07-1.02,0.11c-2.04,1.5-4.05,3.06-6.06,4.59
				c-1.17,0.89-1.84,0.92-2.89-0.12c-2.54-2.51-5.06-5.06-7.52-7.64c-0.82-0.86-0.78-1.73-0.07-2.67c1.47-1.96,2.97-3.9,4.49-5.82
				c0.34-0.43,0.38-0.77,0.13-1.28c-0.55-1.14-1.03-2.31-1.46-3.5c-0.16-0.43-0.3-0.64-0.78-0.7c-2.53-0.36-5.05-0.78-7.59-1.12
				c-1.61-0.22-2.08-0.71-2.07-2.36c0.01-3.16,0.01-6.32-0.02-9.48c-0.02-1.78,0.57-2.47,2.2-2.65c2.48-0.27,4.94-0.74,7.42-1.08
				c0.49-0.07,0.72-0.25,0.9-0.71c0.42-1.11,0.86-2.21,1.38-3.26c0.25-0.5,0.19-0.81-0.13-1.21c-1.54-1.95-3.05-3.91-4.58-5.86
				c-0.87-1.12-0.99-1.66-0.03-2.68c2.45-2.6,4.95-5.16,7.55-7.6c1.33-1.25,1.79-1.14,3.24-0.03c1.93,1.47,3.84,2.96,5.74,4.46
				c0.35,0.28,0.62,0.34,1.05,0.14c1.1-0.51,2.22-0.96,3.35-1.4c0.39-0.15,0.54-0.32,0.6-0.76c0.36-2.59,0.74-5.18,1.18-7.75
				c0.28-1.67,0.74-2.02,2.45-2.02c3.33-0.01,6.65-0.01,9.98,0c1.26,0,1.75,0.44,1.95,1.72c0.4,2.58,0.8,5.16,1.18,7.75
				c0.09,0.59,0.27,0.98,0.95,1.17c0.99,0.29,1.96,0.72,2.89,1.18c0.52,0.26,0.85,0.2,1.28-0.13c2.05-1.58,4.13-3.14,6.2-4.7
				c0.88-0.66,1.66-0.71,2.43,0.06c2.58,2.56,5.12,5.15,7.64,7.77C250.39,586.99,250.56,587.53,250.84,588.05z M207.99,608.88
				c-0.28,6.61,5.55,12.3,11.95,12.47c7.04,0.19,12.53-5.59,12.79-11.85c0.3-7.38-6.01-12.97-12.38-12.95
				C213.7,596.57,207.82,602.26,207.99,608.88z"/>
		</g>
	</g>
	<g id="zvA1mW.tif_1_">
		<g>
			<path class="st3" d="M257.46,603.76c0-1.11-0.55-1.71-1.66-1.88c-2.67-0.41-5.34-0.79-8-1.23c-0.27-0.04-0.6-0.34-0.72-0.6
				c-0.51-1.1-0.87-2.26-1.43-3.33c-0.36-0.7-0.24-1.16,0.21-1.73c1.44-1.8,2.85-3.63,4.24-5.48c0.31-0.41,0.47-0.93,0.73-1.46
				c-0.28-0.52-0.45-1.05-0.79-1.41c-0.6-0.62-1.21-1.24-1.81-1.86c-0.19,0.18-0.38,0.35-0.56,0.54c-0.26,0.27-0.51,0.55-0.77,0.82
				c-0.3,0.5-1.16,1.75-1.23,1.86c-0.22,0.39-0.4,0.79-0.61,1.18c-0.55,1.05,0.08-0.37,0.16-0.4c-0.56,0.16-1.08,3.74-1.18,4.28
				c-0.01,0.07-0.06,0.24-0.1,0.43c0,0.03,0,0.07-0.01,0.12c-0.04,0.8-0.15,1.6-0.2,2.4c-0.74,12,0.59,25.1-8.88,34.25
				c-1.9,1.84-4.08,3.4-6.26,4.89c-0.9,0.61-1.81,1.21-2.71,1.83c-0.38,0.26-0.76,0.53-1.14,0.79c-0.6,0.74-1.63,1.33-2.29,2.02
				c-0.21,0.22-0.52,0.7-0.8,0.99c-0.03,0.05-0.07,0.1-0.1,0.15c-0.24,0.39-0.43,0.93-0.67,1.36c-0.05,0.13-0.09,0.26-0.13,0.39
				c-0.16,0.55-0.27,1.1-0.39,1.65c-0.01,0.03-0.01,0.05-0.02,0.07c-0.01,0.27-0.02,0.53-0.02,0.51c-0.03,0.4-0.08,0.78-0.15,1.16
				c1.62,0,3.23,0,4.85-0.01c1.93-0.01,2.26-0.25,2.59-2.14c0.45-2.55,0.79-5.11,1.2-7.66c0.04-0.24,0.25-0.56,0.46-0.65
				c1.18-0.54,2.37-1.04,3.58-1.5c0.22-0.09,0.6-0.03,0.8,0.12c1.86,1.41,3.72,2.84,5.54,4.3c1.65,1.32,2.24,1.45,3.8-0.01
				c2.48-2.33,4.86-4.77,7.19-7.25c1.14-1.21,1.01-1.79-0.02-3.09c-1.53-1.92-3.03-3.85-4.5-5.81c-0.17-0.23-0.21-0.68-0.1-0.96
				c0.44-1.16,0.94-2.29,1.47-3.41c0.12-0.25,0.43-0.53,0.68-0.58c2.58-0.42,5.16-0.81,7.75-1.19c1.56-0.23,1.98-0.66,2-2.27
				C257.48,610.58,257.47,607.17,257.46,603.76z"/>
		</g>
	</g>
</g>
<g>
	<g>
		<path class="st4" d="M462.94,328.03H347.4c-3.31,0-5.99-2.68-5.99-5.99v-28.75c0-3.31,2.68-5.99,5.99-5.99h115.54
			c3.31,0,5.99,2.68,5.99,5.99v28.75C468.93,325.35,466.25,328.03,462.94,328.03z"/>
		<circle class="st3" cx="362.11" cy="304.66" r="9.3"/>
		<path class="st5" d="M454.32,304.89h-64.09c-1.96,0-3.54-1.59-3.54-3.54l0,0c0-1.96,1.59-3.54,3.54-3.54h64.09
			c1.96,0,3.54,1.59,3.54,3.54l0,0C457.86,303.3,456.28,304.89,454.32,304.89z"/>
		<path class="st5" d="M453.32,316.29h-64.09c-1.96,0-3.54-1.59-3.54-3.54l0,0c0-1.96,1.59-3.54,3.54-3.54h64.09
			c1.96,0,3.54,1.59,3.54,3.54l0,0C456.86,314.7,455.28,316.29,453.32,316.29z"/>
	</g>
	<g>
		<path class="st4" d="M462.94,274.81H347.4c-3.31,0-5.99-2.68-5.99-5.99v-28.75c0-3.31,2.68-5.99,5.99-5.99h115.54
			c3.31,0,5.99,2.68,5.99,5.99v28.75C468.93,272.13,466.25,274.81,462.94,274.81z"/>
		<path class="st5" d="M453.32,249.67h-64.09c-1.96,0-3.54-1.59-3.54-3.54l0,0c0-1.96,1.59-3.54,3.54-3.54h64.09
			c1.96,0,3.54,1.59,3.54,3.54l0,0C456.86,248.09,455.28,249.67,453.32,249.67z"/>
		<path class="st5" d="M453.32,265.07h-64.09c-1.96,0-3.54-1.59-3.54-3.54l0,0c0-1.96,1.59-3.54,3.54-3.54h64.09
			c1.96,0,3.54,1.59,3.54,3.54l0,0C456.86,263.48,455.28,265.07,453.32,265.07z"/>
	</g>
	<circle class="st3" cx="364.91" cy="251.57" r="9.3"/>
</g>
<g>
	<g>
		<path class="st4" d="M462.94,219.62H347.4c-3.31,0-5.99-2.68-5.99-5.99v-28.75c0-3.31,2.68-5.99,5.99-5.99h115.54
			c3.31,0,5.99,2.68,5.99,5.99v28.75C468.93,216.94,466.25,219.62,462.94,219.62z"/>
		<circle class="st3" cx="363.11" cy="199.25" r="9.3"/>
		<path class="st5" d="M453.32,197.48h-64.09c-1.96,0-3.54-1.59-3.54-3.54v0c0-1.96,1.59-3.54,3.54-3.54h64.09
			c1.96,0,3.54,1.59,3.54,3.54v0C456.86,195.9,455.28,197.48,453.32,197.48z"/>
		<path class="st5" d="M453.32,209.88h-64.09c-1.96,0-3.54-1.59-3.54-3.54v0c0-1.96,1.59-3.54,3.54-3.54h64.09
			c1.96,0,3.54,1.59,3.54,3.54v0C456.86,208.29,455.28,209.88,453.32,209.88z"/>
	</g>
</g>
<rect x="99.76" y="428.88" class="st4" width="146.84" height="9.86"/>
<path class="st6" d="M184.51,373.14h163.62c18.32,0,33.17,17.78,33.17,39.7v64.32"/>
<path class="st7" d="M281.94,513.89h-57.92c-0.65,0-1.22-0.49-1.42-1.23l-12.04-43.1c-0.33-1.17,0.4-2.37,1.42-2.37h57.92
	c0.65,0,1.22,0.49,1.42,1.23l12.04,43.1C283.69,512.68,282.96,513.89,281.94,513.89z"/>
<path class="st8" d="M222.61,486.97H184.4c-0.43,0-0.8-0.33-0.94-0.83l-7.94-29.02c-0.21-0.79,0.26-1.6,0.94-1.6h38.21
	c0.43,0,0.8,0.33,0.94,0.83l7.94,29.02C223.76,486.16,223.28,486.97,222.61,486.97z"/>
<path class="st9" d="M183.2,373.14c0,0,16.75,0,16.75,0c-0.63-4.22-4.71-8.27-9.17-7.55C186.77,366.24,184.04,369.23,183.2,373.14z"
	/>
<path class="st10" d="M193.22,365.37c-5.35,0.35-9.66,4.51-10.19,9.84l-2.59,25.92c-0.74,5.47-5.41,9.55-10.92,9.55
	c-5.35,0-11.48,0.02-14.26,0.11c-0.78,0.02-1.38-0.67-1.25-1.44l5.92-35.19c0.85-5.08,5.25-8.8,10.41-8.8H193.22L193.22,365.37z"/>
<g>
	<polygon class="st9" points="164.87,378.98 163.21,389.42 176.02,389.42 177.68,378.98 	"/>
	<polygon class="st9" points="166,373 165.14,376.33 177.96,376.33 178.81,373 	"/>
	<polygon class="st9" points="162.6,394.46 161.75,397.8 174.56,397.8 175.42,394.46 	"/>
	<polygon class="st9" points="161.84,399.61 160.98,402.94 173.79,402.94 174.65,399.61 	"/>
</g>
<polygon class="st13" points="175.65,391.99 162.73,391.99 163.05,390.88 175.97,390.88 "/>
<g>
	<path class="st14" d="M385.59,470.04c58.62-17.1,72.5,26.75,72.5,26.75c4.29,10.82,0.81,32.12-5.93,46.98
		c-11.36,25.03-17.37,52.16-18.24,79.63l-0.04,1.22c-0.27,8.55-7.28,15.35-15.84,15.35h0l-66.58,0.56
		c-8.64,0.07-15.31-7.6-14.02-16.15l4.53-30.12"/>
	<path class="st15" d="M426.4,474.08c1.33,2.2,2.41,4.58,3,7.08c0.71,2.99,0.71,6.09,0.71,9.16c0,9.95-0.01,19.89-0.01,29.84
		c0,2.97-0.01,5.99-0.82,8.84c-1.32,4.67-4.69,8.64-5.49,13.43c-0.99,5.91,2.15,11.82,1.8,17.81c-0.06,0.98-0.22,1.99-0.77,2.81
		c-0.97,1.47-2.89,1.95-4.65,2.09c-3.74,0.29-7.47-0.47-11.15-1.22c-1.3-0.27-2.67-0.57-3.61-1.51c-0.83-0.83-1.19-2.01-1.5-3.15
		c-2.26-7.99-4.53-16.38-2.76-24.49c0.82-3.78,2.49-7.31,4.15-10.8c4.43-9.34,8.85-18.67,13.28-28.01c1.16-2.46,2.35-4.97,2.61-7.68
		c0.67-7.02-4.54-12.73-6.25-19.2c-1.02-3.87,0.25-6.52,3.97-3.64C421.91,467.77,424.45,470.85,426.4,474.08z"/>
	<path class="st16" d="M369.27,618.63c1.92,4.66,3.83,9.32,5.75,13.98c0.28,0.68,0.61,1.41,1.28,1.71c0.43,0.19,0.93,0.16,1.4,0.12
		c2.13-0.17,4.26-0.35,6.38-0.52c-0.14-1.65-0.52-3.28-1.13-4.81c-2.24-5.58-7.29-9.53-10.36-14.7c-1.41-2.38-2.38-4.99-3.34-7.58
		c-5.05-13.63-10.11-27.27-15.16-40.9c-1.23-3.3-2.03-1.37-1.63,1.21c0.4,2.54,0.94,5.07,1.51,7.58c1.18,5.13,2.64,10.18,4.29,15.18
		C361.47,599.64,365.37,609.14,369.27,618.63z"/>
	<path class="st14" d="M459.62,497.96c0,0-4.69-14.38-18.51-24.63c6.8,18.59,5.7,38.67-1.01,57.95
		c-11.33,34.8-24.89,68.85-26.25,105.59l3.9-0.03c8.56,0,15.57-6.79,15.84-15.35l0.04-1.22c0.87-27.47,6.88-54.6,18.24-79.63
		C458.61,525.78,463.91,508.79,459.62,497.96z"/>
	<path class="st16" d="M459.62,497.96c0,0-3.91-11.99-15.11-21.88c3.53,7.03,5.48,14.48,5.83,22.37c1.04,22.96-8.7,44.14-15.8,65.43
		c-7.75,23.24-9.34,47.37-10.66,71.71c5.55-2.33,9.5-7.73,9.7-14.11l0.04-1.22c0.87-27.47,6.88-54.6,18.24-79.63
		C458.61,525.78,463.91,508.79,459.62,497.96z"/>
	<path class="st17" d="M412.44,577.4l-0.39-13.23h-33l0.13,0.25l-18.33,0.14c0,0,10.55,5,22.84,8.88l0.08,0.15l8.25,47.93h18.86
		l0.9-44C411.99,577.49,412.22,577.45,412.44,577.4z"/>
	<path class="st18" d="M366.61,451.43c0,0,7.86,13.62,20.95,0.52"/>
	<path class="st19" d="M418.33,534.98l-4.58,2.75c7.76,21.42,1.34,25.7-11.57,24.8l-52.59-7.51l-27.5-60.76l2.97-13.1l0.78-2.24
		c3.34-9.63,10.9-17.19,20.52-20.55l20.25-7.06c2.23-0.79,2.1-3.67,2.1-3.67c9.04,3.04,16.63,0,16.63,0s0.39,3.4,2.23,4.19
		l19.37,5.93c9.83,3.01,17.03,11.44,18.47,21.63l0.4,2.81v34.63c0,8.03-3.8,15.59-10.24,20.37L379,550.06
		c-2.68,1.99-6.47,1.38-8.39-1.34l-0.13,0.3c-1.62-2.29-1.28-5.71,0.63-7.76l31.89-21.21l-1.57-29.46"/>
	<g>
		<rect x="250.59" y="554.82" class="st20" width="189.34" height="9.91"/>
		<rect x="257.66" y="564.17" class="st20" width="10.61" height="77"/>
		<polyline class="st14" points="257.66,564.17 268.27,564.17 268.27,582.91 		"/>
		<rect x="410.51" y="564.17" class="st20" width="10.61" height="77"/>
		<polyline class="st16" points="410.51,564.17 421.12,564.17 421.12,581.06 		"/>
	</g>
	<polyline class="st17" points="315.55,564.78 353.51,621.53 371.19,621.92 355.41,564.71 	"/>
	<path class="st21" d="M395.25,597.46c-0.13-6.25,2.59-12.52-0.19-18.55c-2.66-5.77-8.1-10.97-14.34-12.38
		c-1.14-0.26-1.84-0.92-2.18-1.73h-17.19c2.23,1.03,11.62,5.26,22.34,8.65l0.08,0.15l8.25,47.93h15.28
		C401.3,614.48,395.46,607.24,395.25,597.46z"/>
	<path class="st21" d="M350.91,598.83c-1.15-3.71-2.11-7.46-4.41-10.66c-2.32-3.23-5.57-5.43-8.7-7.81
		c-6.52-4.98-11.92-10.92-18.64-15.64l-3.64,0.02l38,57.2l7.28,0.16C356.32,615.06,353.46,607.05,350.91,598.83z"/>
	<path class="st22" d="M354.02,620.94c0,0-1.57,5.11-11.78,9.04c-10.21,3.93-7.86,12.18-7.86,12.18h43.6v-7.46l-6.29-13.36
		L354.02,620.94z"/>
	<path class="st22" d="M392.01,621.53c0,0-8.64,14.14-4.32,20.03h23.18v-20.03H392.01z"/>
	<path class="st16" d="M386.49,636.94c-0.04,1.77,0.29,3.38,1.2,4.63h23.18v-4.63H386.49z"/>
	
		<ellipse transform="matrix(0.8101 -0.5863 0.5863 0.8101 -246.8008 290.6105)" class="st18" cx="325.16" cy="526.25" rx="6.12" ry="8.38"/>
	<path class="st23" d="M369.49,555.43h-89.22c-1.16,0-2.19-0.74-2.56-1.84l-18.46-55.13c-0.59-1.75,0.72-3.55,2.56-3.55h89.22
		c1.16,0,2.19,0.74,2.56,1.84l18.46,55.13C372.64,553.62,371.34,555.43,369.49,555.43z"/>
	<path class="st24" d="M372.05,551.88l-18.46-55.13c-0.09-0.28-0.23-0.53-0.4-0.76c-3.23,6.38-4.38,13.55-3.19,20.64
		c0.86,5.07,3.09,9.79,3.6,14.94c1,10.14-6.53,14.64-15.53,15.73c-4.62,0.56-9.26,0.44-13.9,0.6c-4.77,0.17-9.52,1.06-14.18,2.06
		c-5.6,1.2-11.31,2.85-16.42,5.48h75.92C371.34,555.43,372.64,553.62,372.05,551.88z"/>
	<path class="st25" d="M368.73,447.48c0,0,1.18,3.46-7.56,5.92c0,0,11.98,14.53,31.13,0.1c0,0-6.29-1.15-6.97-5.73L368.73,447.48z"
		/>
	<path class="st26" d="M368.81,447.5h16.63c0.69,4.58,6.83,5.96,6.83,5.96c1.9,1.31-0.12,3.26-3.6,2.68
		c-1.14-0.19-19.05-6.67-20.03-7.27l-0.42,0.66C368.22,449.54,368.91,448.76,368.81,447.5z"/>
	<path class="st27" d="M343.96,492.88l-0.86,2.04h2.75l-0.2-8.52l-0.37,2.01C345.01,489.94,344.57,491.44,343.96,492.88z"/>
	<path class="st27" d="M395.55,525.28c0,0,5.7-31.03,5.89-32.21l1.57,27.11L395.55,525.28z"/>
	<path class="st27" d="M372.4,552.72l44.13-11.63l-0.98-5.5C415.55,535.59,395.58,543.49,372.4,552.72z"/>
	<path class="st27" d="M420.29,467.73c0,0,3.92,4.12,5.1,11.78l0.2,40.27c0,0-1.18,9.23-7.27,15.12c0,0,4.32-7.86,4.91-16.3
		C423.24,518.61,425.79,479.72,420.29,467.73z"/>
	<path class="st27" d="M335.05,465.18c0,0-9.23,6.15-12.77,29.2h2.36C324.64,494.38,325.23,477.95,335.05,465.18z"/>
	<path class="st27" d="M363.53,455.95c0,0,11.98,10.41,28.77-2.46l4.22,1.28C396.53,454.77,378.26,468.13,363.53,455.95z"/>
	<path class="st25" d="M392.21,437.29c0,0.06,0,0.13,0,0.19c-0.04,5.22-3.75,9.72-8.86,10.82c-3.16,0.68-7.46,1.32-12.55,0.19
		c-10.87-2.42-7.07-27.04-7.07-27.04l9.43-4.19l25.53,2.16l-0.98,12.18L392.21,437.29z"/>
	<path class="st28" d="M390.83,442.79c7.89-6.12,13.06-18.34,10.21-25.27c-2.22-5.43-8.36-9.9-14.14-10.34
		c-4.44-0.35-9.06,1.65-12.83-0.13c-0.46-0.22-2.3-1.14-4.98-1.96c-0.66-0.2-1.71-0.52-2.49-0.65c-3.55-0.6-8.8,1.48-9.97,5.02
		c-0.62,1.87-0.03,4.44,2.9,7.94c9.95,11.92,24.22,6.68,25.93,7.2c1.7,0.52,3.01,5.89,3.01,5.89c-0.13-1.05,1.57-3.4,1.57-3.4
		s2.36-2.62,4.32,0.65c1.2,2,0.13,3.51-0.89,4.39c-0.83,0.72-1.27,1.79-1.27,2.89v2.48"/>
	<polygon class="st16" points="334.26,637.63 377.99,637.63 377.99,642.47 333.87,642.74 	"/>
	
		<ellipse transform="matrix(0.8798 -0.4754 0.4754 0.8798 -211.7261 213.2234)" class="st5" cx="315.65" cy="525.17" rx="5.55" ry="8.99"/>
</g>
<g>
	<path class="st25" d="M90.72,379.11l19.64,11.78c1.28,0.77,2.8,1.05,4.28,0.79l39.54-5.07c0,0,3.27-5.44,7.68-4.78
		c0.68,0.1,1.19,0.69,1.19,1.38l0,0c0,0.24-0.55,0.63-1.22,1.02c-1.7,1-3.18,2.34-4.37,3.91l0,0l-0.66,5.04l-42.57,13.72
		c-2.49,0.8-5.22,0.36-7.33-1.21l-5.95-4.41"/>
	<path class="st26" d="M128.86,400.93c-5.23,2.32-13.62,5.5-19.25,3.97c-6.8-1.85-8.74-9.41-11.01-15.6
		c-0.79-2.17-1.08-4.5-2.73-6.99c-0.03-0.05-0.06-0.1-0.09-0.15l-5.06-3.04l10.24,22.17l5.95,4.41c2.11,1.56,4.83,2.01,7.33,1.21
		l31.95-10.3C140.31,397.81,133.86,398.72,128.86,400.93z"/>
	<path class="st29" d="M126.38,410.64l5.51-34.98c0.1-0.63,0.64-1.09,1.28-1.09h16.44c0.79,0,1.4,0.71,1.28,1.49l-5.73,37.27
		c-0.1,0.63-0.64,1.1-1.28,1.1h-16.35c-0.74,0-1.34-0.63-1.29-1.37l0.13-2.29C126.37,410.72,126.37,410.68,126.38,410.64z"/>
	<path class="st5" d="M128.68,408.82l4.99-31.16c0.1-0.6,0.62-1.05,1.25-1.05h12.45c0.77,0,1.36,0.68,1.25,1.43l-5.19,33.11
		c-0.09,0.6-0.62,1.05-1.25,1.05h-12.39c-0.73,0-1.31-0.61-1.26-1.33l0.14-1.95C128.67,408.89,128.67,408.86,128.68,408.82z"/>
	<path class="st3" d="M49.06,459.1c0,0-6.02,29.13,21.13,37.45s45.99,130.53,45.99,130.53h12.7c0,0,3.5-105.56-25.4-141.92
		l-14.73-27.43L49.06,459.1z"/>
	<path class="st30" d="M114,609.78c-2.58-15.94-6.86-31.68-10.08-47.5c-2.94-14.46-6.2-28.84-11.5-42.61
		c-2.25-4.88-4.76-9.6-7.39-14.29c-1.36-2.44-2.77-4.85-4.29-7.19c-0.23-0.35-0.46-0.73-0.69-1.12c-0.15-0.16-0.32-0.34-0.53-0.56
		c-0.16-0.18-0.45-0.44-0.76-0.73c-0.17-0.11-0.33-0.2-0.45-0.26c-1.92-1.02-3.96-1.8-5.94-2.71c-7.62-3.52-14.94-9.69-18.71-17.31
		c-2.51-5.08-3.65-10.36-3.44-15.43l-1.27,0c0,0-5.92,28.18,21.24,36.51c22.39,6.86,39.13,91.15,44.31,120.51
		C114.41,614.63,114.24,612.2,114,609.78z"/>
	<path class="st28" d="M113.06,621.3l-1.75,17.08h40.84c0,0,0-8.32-6.24-10.95l-20.15-6.13H113.06z"/>
	<rect x="71.73" y="494.2" class="st14" width="4.38" height="139.23"/>
	<path class="st20" d="M71.21,630.13L43,637.9c-1.19,0.33-2.01,1.41-2.01,2.64l0,0c0,1.51,1.22,2.73,2.73,2.73h60.24
		c1.51,0,2.73-1.22,2.73-2.73l0,0c0-1.23-0.83-2.31-2.02-2.63l-29.08-7.78H71.21z"/>
	<path class="st3" d="M108.19,456.04l40.29,40.25c7.87,8.21,8.16,21.07,0.67,29.62l-48.52,55.4l-12.92-12.92l33.51-54.97
		l-34.17-24.09l-15.88-32.85L108.19,456.04z"/>
	<path class="st30" d="M121.22,513.42l-33.51,54.97l1.9,1.9c3.51-5.58,7.35-10.85,11.58-15.78c2.45-5.1,4.8-10.28,7.91-15.01
		c5.83-8.88,13.09-16.82,18-26.26c0.04-0.12,0.08-0.24,0.12-0.36c-0.96-1.07-1.87-2.16-2.19-2.45c-2.99-2.73-6.15-5.28-9.2-7.94
		c-9.23-8.05-17.33-16.25-24.4-26.34c-3.7-5.29-4.65-11.42-3.66-17.34l-14.3,1.18l13.58,29.35L121.22,513.42z"/>
	<path class="st31" d="M115.64,464.58L115.64,464.58c-7.55-7.84-12.5-17.82-14.16-28.58l-8.61-55.74c0,0-31.97-17.08-47.31-14.89
		c-10.4,1.49-7.39,30.19-2.63,47.52c2.84,10.35,6.8,19.57,6.47,30.3l-0.12,3.87c0,0-9.2,43.14,28.03,40.08L115.64,464.58z"/>
	<path class="st32" d="M116.18,463.81c-7.55-7.84-13.05-17.05-14.71-27.81l-8.61-55.74c0,0-30.58-16.33-46.26-15
		c3.13,2.47,4.94,6.48,3.51,11.49c-1.05,3.68-1.11,5.82-0.01,9.64c1.07,3.7,2.59,6.42,5.08,10.6c4.78,8.01,10.1,15.53,13.33,24.36
		c7.76,21.2-2.81,41.19-12.46,59.75c4.37,4.25,11.08,6.87,21.26,6.03l38.33-22.56L116.18,463.81z"/>
	<path class="st25" d="M92.86,380.26c0,0-12.26,5.48-10.95,25.84c1.31,20.37,11.83,40.95,14.67,41.61
		c2.85,0.66,19.05-8.98,42.71-34.6c0,0,2.58-0.99,4.93-1.93c2.29-0.92,3.99-2.88,4.58-5.28c0.47-1.91,1-4.24,1.34-6.22
		c0.31-1.83-1-3.53-2.85-3.67l-2.52-0.19l0.18-7.67c0.02-0.91-0.79-1.61-1.68-1.46l0,0c-0.55,0.09-1,0.49-1.15,1.03l-2.38,8.32
		l-4.16,8.76l-27.81,22.12c0,0-2.19,1.53-2.85-0.66C104.9,426.25,99.65,382.45,92.86,380.26z"/>
	<path class="st26" d="M96.58,447.72c-2.85-0.66-13.36-21.24-14.67-41.61c-0.46-7.21,0.77-12.54,2.56-16.44
		c-1.48,11.32-1.55,24.25,2.51,34.59c1.72,4.39,5.59,12.44,7.88,17.11c2.18,4.46,8.66-0.57,11.09-2.23
		c5.63-3.84,12-6.61,17.77-10.29c-4.45,3.8-8.82,7.72-13.49,11.25c-3.87,2.93-8.29,6.46-13.1,7.66"/>
	<path class="st25" d="M90.23,325.29c0,0,5.48,27.16-1.97,31.97c0,0-12.48,5.04-21.9-2.19l-5.26-1.75l11.39-29.78L90.23,325.29z"/>
	<path class="st25" d="M80.38,358.09c0,0-2.85,13.2,1.53,16.7c0,0-21.46-8.98-27.38-8.98c0,0,8.32-4.82,8.32-12.05"/>
	<path class="st26" d="M81.32,374.2c-2.53-1.96-5.47-3.29-8.43-4.48c-4.8-1.93-11.61-2.77-12.87-8.75c-2.41,3.04-5.5,4.84-5.5,4.84
		c5.91,0,27.38,8.98,27.38,8.98C81.69,374.62,81.5,374.41,81.32,374.2z"/>
	<path class="st28" d="M88.04,343.03c0,0,0.22-14.24,2.41-16.64c0,0,8.54-5.91-10.07-12.26c-18.62-6.35-25.4,16.21-25.4,16.21
		s-2.75,25.98,11.47,25.87c0.46,0,0.91-0.01,1.37,0.03c2.73,0.26,14.44,0.7,17.33-10.3c0,0-2.57-5.09,0.71-5.75
		C85.85,340.18,87.82,339.96,88.04,343.03z"/>
	<path class="st28" d="M66.14,317.63c-2.63-5.73-13.44-8.59-20.59-4.82c-5.98,3.16-9.6,11.07-9.2,16.21
		c0.05,0.67,0.19,1.48-0.22,2.41c-1.45,3.31-6.9,1.67-11.39,4.38c-6.36,3.84-8.44,15.01-5.04,18.83c1.05,1.18,2.01,0.97,2.63,2.19
		c1.5,2.97-3.06,6.46-5.04,11.61c-2.81,7.33-0.28,17.79,5.48,22.56c5.19,4.3,12.59,3.63,12.92,6.79c0.19,1.84-2.23,2.95-1.75,5.04
		c0.41,1.78,2.68,3.15,4.6,3.29c4.89,0.34,11.33-7.12,10.73-13.58c-0.51-5.48-5.8-7.12-5.48-12.05c0.12-1.78,0.99-2.09,5.26-7.67
		c6.71-8.75,6.84-10.61,6.79-11.61c-0.2-3.9-3.68-4.3-4.38-8.32c-0.78-4.42,2.84-7.33,7.01-13.58
		C62.68,333,68.91,323.66,66.14,317.63z"/>
	<g>
		<path class="st33" d="M65.1,315.71c0.78,1.35,1.24,2.84,1.53,4.35c0.28,1.52,0.41,3.08,0.25,4.65c-0.16,1.56-0.54,3.14-1.29,4.57
			c-0.76,1.42-1.89,2.65-3.28,3.35c0.83-1.33,1.42-2.6,1.84-3.95c0.4-1.35,0.59-2.74,0.74-4.15
			C65.18,321.69,65.05,318.79,65.1,315.71z"/>
	</g>
	<path class="st20" d="M102.84,496.99c1.07-0.4,2.04-0.83,2.91-1.27c4.23-2.12,4.45-8.08,0.43-10.57
		c-16.72-10.34-57.95-33.6-61.25-13.98c-1.37,8.13-0.96,18.27,3.23,22.36c1.53,1.49,3.34,2.61,5.28,3.46H102.84z"/>
	<path class="st14" d="M49.82,467.01c11.88,1.52,22.66,3.96,33.74,8.51c8.34,3.43,16.46,7.2,24.43,11.35
		c-0.46-0.66-1.06-1.25-1.81-1.71c-15.27-9.44-50.97-29.65-59.57-18.15C47.72,466.89,48.8,466.88,49.82,467.01z"/>
	<path class="st28" d="M87.71,568.39l-7.99,7.49c-3.55,3.33-5.9,6.26-3.28,10.36c3.35,5.24,12.62,17.25,20.64,24.8
		c0,0,11.77-1.48,5.75-15.28l-5.15-11.17l3.39-4.27L87.71,568.39z"/>
	<path class="st20" d="M92.31,594.01H52.89c-1.21,0-2.19-0.98-2.19-2.19l0,0c0-1.21,0.98-2.19,2.19-2.19h39.42
		c1.21,0,2.19,0.98,2.19,2.19l0,0C94.5,593.03,93.52,594.01,92.31,594.01z"/>
	<path class="st26" d="M80.05,358.74c0,0-11.5,0-14.45-2.3c-2.96-2.3,5.09,5.26,14.29,4.6L80.05,358.74z"/>
	<polygon class="st34" points="124.83,553.06 106,575.4 106.88,579.34 	"/>
</g>
<g>
	<path class="st9" d="M203.58,416.07c0,0.11-0.02,0.22-0.02,0.33c0,6.89,5.59,12.48,12.48,12.48s12.48-5.59,12.48-12.48
		c0-0.11-0.01-0.22-0.02-0.33H203.58z"/>
	<path class="st35" d="M228.78,424.39h-3.49v-6.22h3.49c1.72,0,3.11,1.39,3.11,3.11l0,0C231.89,423,230.5,424.39,228.78,424.39z"/>
</g>
<g>
	<line class="st36" x1="186.75" y1="258.2" x2="217.92" y2="176.59"/>
	<g>
		<path class="st37" d="M488.25,183.56H214.57c-3.13,0-5.67-2.54-5.67-5.67v-59.53c0-3.13,2.54-5.67,5.67-5.67h273.68
			c3.13,0,5.67,2.54,5.67,5.67v59.53C493.91,181.02,491.38,183.56,488.25,183.56z"/>
		<linearGradient id="SVGID_1_" gradientUnits="userSpaceOnUse" x1="278.6927" y1="138.3045" x2="440.2015" y2="138.3045">
			<stop  offset="0" style="stop-color:#FFFFFF"/>
			<stop  offset="1" style="stop-color:#B8EBFF"/>
		</linearGradient>
		<path class="st38" d="M435.31,143.58H283.59c-2.7,0-4.89-2.19-4.89-4.89v-0.77c0-2.7,2.19-4.89,4.89-4.89h151.72
			c2.7,0,4.89,2.19,4.89,4.89v0.77C440.2,141.39,438.01,143.58,435.31,143.58z"/>
		<linearGradient id="SVGID_2_" gradientUnits="userSpaceOnUse" x1="282.1889" y1="158.6814" x2="443.6978" y2="158.6814">
			<stop  offset="0" style="stop-color:#FFFFFF"/>
			<stop  offset="1" style="stop-color:#B8EBFF"/>
		</linearGradient>
		<path class="st39" d="M438.8,163.96H287.08c-2.7,0-4.89-2.19-4.89-4.89v-0.77c0-2.7,2.19-4.89,4.89-4.89H438.8
			c2.7,0,4.89,2.19,4.89,4.89v0.77C443.7,161.77,441.51,163.96,438.8,163.96z"/>
		<circle class="st34" cx="241.5" cy="148.5" r="15.5"/>
	</g>
	<g>
		<path class="st3" d="M160.35,308H99.41c-3.13,0-5.67-2.54-5.67-5.67v-117.5c0-3.13,2.54-5.67,5.67-5.67h60.93
			c3.13,0,5.67,2.54,5.67,5.67v117.5C166.02,305.46,163.48,308,160.35,308z"/>
		<linearGradient id="SVGID_3_" gradientUnits="userSpaceOnUse" x1="93.7423" y1="245.1536" x2="166.0158" y2="245.1536">
			<stop  offset="0" style="stop-color:#FFFFFF"/>
			<stop  offset="1" style="stop-color:#B8EBFF"/>
		</linearGradient>
		<rect x="93.74" y="198.02" class="st40" width="72.27" height="94.27"/>
		<g>
			<path class="st5" d="M151.43,216.05h-43.11c-2.03,0-3.67-1.64-3.67-3.67v-1.12c0-2.03,1.64-3.67,3.67-3.67h43.11
				c2.03,0,3.67,1.64,3.67,3.67v1.12C155.11,214.41,153.46,216.05,151.43,216.05z"/>
			<path class="st5" d="M151.43,230.88h-43.11c-2.03,0-3.67-1.64-3.67-3.67v-1.12c0-2.03,1.64-3.67,3.67-3.67h43.11
				c2.03,0,3.67,1.64,3.67,3.67v1.12C155.11,229.23,153.46,230.88,151.43,230.88z"/>
		</g>
	</g>
	<path class="st9" d="M185.61,268.54h-34.52c-3.76,0-6.81-3.05-6.81-6.81l0,0c0-3.76,3.05-6.81,6.81-6.81h34.52
		c3.76,0,6.81,3.05,6.81,6.81l0,0C192.43,265.49,189.37,268.54,185.61,268.54z"/>
	<circle class="st5" cx="184.36" cy="261.61" r="3.75"/>
</g>
<polygon class="st25" points="535.07,458.86 531.68,468.51 529.25,459.89 532.25,455.12 "/>
<g>
	<path class="st41" d="M535.89,459.89l12.64-25.92c2.62-5.9,2.77-12.79,0.41-18.83l-10.24-26.17c-2.88-7.37-10.6-10.75-17.24-7.55
		l-4.44,2.14l15.87,40.56l-0.65,31.16L535.89,459.89z"/>
</g>
<g class="st42">
	<path class="st43" d="M534.38,391.61c0.84,4.62,1.86,8.01,1.84,12.69c-0.02,6.01-1.94,14.1-3.21,19.69l-16-40.41l4.44-2.14
		c2.48-1.2,5.11-1.47,7.58-0.97C530.96,384.21,533.6,387.29,534.38,391.61z"/>
</g>
<path class="st44" d="M508.16,631.69l-2.96,10.64v2.84c0,0,27.61-3.44,34.08-8.47c0,0,5.18-2.83-12.87-2.77
	c0,0-10.11,0.73-11.17-2.31L508.16,631.69z"/>
<path class="st14" d="M527.96,456.69c0,0,8.13,36.06-5.62,88.82l-5.02,87.12l-7.98-0.25l-2.36-32.27l-3.84-123.9l0.59-17.54
	L527.96,456.69z"/>
<path class="st45" d="M493.89,633.17l-2.96,10.64v2.84c0,0,30.47,2.71,36.95-2.31c0,0,2.31-8.99-15.73-8.92
	c0,0-10.11,0.73-11.17-2.31L493.89,633.17z"/>
<path class="st20" d="M511.71,459.44c0,0,8.87,74.3,9.31,85.16c0.44,10.86-19.36,88.91-19.36,88.91l-6.8-0.04
	c0,0-10.34-55.24,0.74-90.01c0,0,0.89-7.03-1.33-11.58s-21.72-40.28-15.66-74.17L511.71,459.44z"/>
<path class="st44" d="M542.06,332.31c0,0,7.57,22.7-11.6,26.23l-1.51-12.78L542.06,332.31z"/>
<path class="st25" d="M533.82,341.55l-3.86,22.31c-0.86,5-6.54,10.9-11.6,10.57l-15.25-1.31l-5.43-25.51L533.82,341.55z"/>
<path class="st45" d="M542.06,332.31c-4.23,0.28-10.62,0.27-17.99-1.68c-6.97-1.85-8.07-3.64-13.28-4.37
	c-0.79-0.11-15.57-2-22.36,6.56c-5.92,7.47-5.12,22.08-5.04,23.54c0.02,0.33,0.08,1.22-0.17,2.35c-0.83,3.83-4.14,6.03-4.88,6.56
	c-5.04,3.64-32.51,32.92-30.43,50.95c1.7,14.74,20.31,30.21,33.46,27.57c15.86-3.18,24.8-28.63,21.91-71.67
	c0,0-0.22-16.94,2.81-21.98C506.08,350.13,532.65,353.66,542.06,332.31z"/>
<path class="st41" d="M482.88,402.42l-8.46-13.46l16.85-6.85c7.08-3.44,14.89-5.1,22.75-4.82c4.77,0.17,9.49,1.04,14,2.6l1.08,0.37
	c0.18,0.3,0.37,0.6,0.58,0.89c0.8,1.07,1.55,2.16,2.2,3.33c0.26,0.47,0.49,0.94,0.73,1.42c0.62,2.04,2.02,5,1.82,7.2
	c-0.23-1.86-0.25-2-0.08-0.42c0.07,0.72,0.12,1.44,0.16,2.16c0.08,1.44,0.1,2.88,0.06,4.32c-0.03,1.06-0.09,2.12-0.17,3.18
	c-0.02,0.29-0.06,0.58-0.09,0.87c-0.03,0.15-0.06,0.33-0.1,0.57c-1.28,5.48-2.7,10.91-3.37,16.51c-0.23,1.94-0.28,3.8-0.15,5.6
	c-1.24,7.88-2.57,37.38,3.97,45.99c11.86,15.63-34.69,12.87-52.12,11.34c-3.51-0.31-6.11-3.4-5.82-6.92L482.88,402.42z"/>
<path class="st46" d="M482.88,402.42l-8.46-13.46l5.51-2.24c20.23,18.79-1.1,44.53,3.86,67.29c2.01,9.2,9.17,15.03,17.91,17.62
	c5.75,1.71,11.64,1.72,17.2,4.2c4.54,2.02,8.74,4.2,13.31,5.55c-8.5,4.75-21.5,4-49.67,1.84c-3.52-0.27-6.11-3.4-5.82-6.92
	L482.88,402.42z"/>
<path class="st25" d="M503.32,372.82l2.58,0.23c5.27,1.03,6.12,0.66,10.7,1.2c0.74,0.09,1.75,0.08,2.47,0
	c-0.09,0.64-0.45,3.89,1.32,5.41c0.42,0.36,0.42,0.98,0,1.33c-2.32,1.92-9.08,6.1-18.06-0.48c-0.58-0.43-0.75-1.23-0.37-1.84
	C502.93,377.05,504.8,376.59,503.32,372.82z"/>
<path class="st26" d="M519.01,374.72c0-0.05,0.01-0.09,0.01-0.14c-5.15,0.06-10.16,0.64-15.65-1.53c0.55,2.53-0.58,4.23-1.42,5.62
	c-0.38,0.62-0.21,1.42,0.37,1.84c0.47,0.35,0.94,0.66,1.4,0.95C503.73,381.45,503.23,377.43,519.01,374.72z"/>
<path class="st45" d="M535.01,397.26l1.92-7.72c0.33-1.32-0.71-2.59-2.08-2.54l-16.39,0.6c-0.93,0.03-1.73,0.69-1.94,1.59
	l-7.47,32.3c-0.3,1.28,0.69,2.51,2.01,2.51h15.69c0.95,0,1.78-0.64,2.01-1.56L535.01,397.26z"/>
<path class="st25" d="M506.08,413.85l3.19-4.37l1.7-12.08c0.09-0.62,0.56-1.12,1.18-1.24l0,0c0.82-0.16,1.61,0.38,1.75,1.2
	l0.79,4.67c0.16,0.93,1.08,1.53,2,1.3l18.3-4.61l-3.5,12.54c-1.05,2.24-3.4,3.56-5.86,3.31l-6.01-0.17
	c-3.14-0.33-6.18,1.18-7.81,3.88l-0.69,1.13L506.08,413.85z"/>
<path class="st26" d="M509.21,409.57c0.1,0.26,0.21,0.53,0.32,0.78c-0.02,2.92,0.76,5.7,2.13,8.16l-0.53,0.88l-5.04-5.55
	L509.21,409.57z"/>
<path class="st26" d="M533.53,343.34c0,0-10.99,12.71-24.55,10.3l-5.49,13.74c0,0,0.36-14.5,2.75-17
	C508.62,347.89,518.25,353.13,533.53,343.34z"/>
<path class="st41" d="M495.49,424.95c0,0,0.5-38.84-18.66-36.32c-15.47,2.03-2.69,42.16,2.82,57.59c2.1,5.89,8.32,9.43,14.37,7.88
	c4.86-1.24,9.92-5.57,12.57-17.05l4.54-17.65l-5.04-5.55L495.49,424.95z"/>
<path class="st46" d="M476.82,388.63c0.05-0.01,0.09-0.01,0.14-0.01c-0.81,4.74-1.83,9.57-1.31,14.39c0.43,4.03,2.25,7.5,4.21,10.98
	c2.2,3.88,4.75,7.88,5.34,12.41c0.42,3.22-0.13,6.59-0.11,9.83c0.04,5.88,1.27,12.78,7.93,14.37c2.46,0.59,5.01,0.31,7.46-0.47
	c-2.04,2.21-4.28,3.41-6.48,3.98c-6.05,1.55-12.27-2-14.37-7.88C474.13,430.8,461.36,390.67,476.82,388.63z"/>
<g>
	<path class="st9" d="M530.76,205.27h-72.54c-3.13,0-5.67-2.54-5.67-5.67V75.68c0-3.13,2.54-5.67,5.67-5.67h72.54
		c3.13,0,5.67,2.54,5.67,5.67V199.6C536.43,202.73,533.89,205.27,530.76,205.27z"/>
	<linearGradient id="SVGID_4_" gradientUnits="userSpaceOnUse" x1="452.5477" y1="137.6383" x2="536.431" y2="137.6383">
		<stop  offset="0" style="stop-color:#FFFFFF"/>
		<stop  offset="1" style="stop-color:#B8EBFF"/>
	</linearGradient>
	<rect x="452.55" y="82.07" class="st47" width="83.88" height="111.15"/>
	<g>
		<path class="st9" d="M511.09,150.75h-38.1c-1.67,0-3.03-1.36-3.03-3.03v0c0-1.67,1.36-3.03,3.03-3.03h38.1
			c1.67,0,3.03,1.36,3.03,3.03v0C514.12,149.39,512.77,150.75,511.09,150.75z"/>
		<path class="st9" d="M511.09,167.06h-38.1c-1.67,0-3.03-1.36-3.03-3.03l0,0c0-1.67,1.36-3.03,3.03-3.03h38.1
			c1.67,0,3.03,1.36,3.03,3.03l0,0C514.12,165.7,512.77,167.06,511.09,167.06z"/>
		<path class="st9" d="M511.09,181.37h-38.1c-1.67,0-3.03-1.36-3.03-3.03v0c0-1.67,1.36-3.03,3.03-3.03h38.1
			c1.67,0,3.03,1.36,3.03,3.03v0C514.12,180.01,512.77,181.37,511.09,181.37z"/>
	</g>
	<path class="st5" d="M498.92,109.68h22.93c-0.4-12.55-10.61-22.62-23.22-22.77v22.84C498.71,109.71,498.8,109.68,498.92,109.68z"/>
	<path class="st5" d="M496.24,113.64c-0.21,0-0.37-0.08-0.47-0.21c-0.35,0.34-1.1,0.2-1.1-0.43V89.61
		c-12.54,0.52-22.54,10.84-22.54,23.51c0,13,10.54,23.53,23.53,23.53c12.82,0,23.24-10.26,23.52-23.01H496.24z"/>
</g>
</svg>
