<?xml version="1.0" encoding="UTF-8"?>
<svg width="156px" height="186px" viewBox="0 0 156 186" version="1.1" xmlns="http://www.w3.org/2000/svg" xmlns:xlink="http://www.w3.org/1999/xlink">
    <!-- Generator: Sketch 59.1 (86144) - https://sketch.com -->
    <title>Group_205</title>
    <desc>Created with Sketch.</desc>
    <g id="Web" stroke="none" stroke-width="1" fill="none" fill-rule="evenodd">
        <g id="1.2-WebApp---Forgot-Password" transform="translate(-1124.000000, 0.000000)" fill-rule="nonzero">
            <g id="Group_205" transform="translate(1232.000000, 68.000000) rotate(308.000000) translate(-1232.000000, -68.000000) translate(1138.000000, -66.000000)">
                <path d="M-35.2346702,221.303307 C-8.8973246,217.295481 34.4226955,214.671691 83.4000516,214.671691 C126.733405,214.671691 165.63609,216.722362 192.269436,219.972708 C206.536109,207.927856 219.940115,194.581796 225.858784,177.342802 C234.692122,151.615232 222.74945,120.610692 198.737439,106.938662 C172.765426,92.1431054 139.514744,97.6872644 111.310731,87.5194104 C94.6440568,81.5076717 80.5653836,70.3111424 65.1440431,61.694317 C49.7227026,53.0774916 31.198694,46.9415104 14.3066862,52.3253563 C-0.395987313,57.0118406 -11.282659,69.9691413 -16.1066613,84.3118138 C-22.5586643,103.501284 -19.3333294,124.309915 -17.1466618,144.39313 C-14.9599941,164.476345 -14.2026604,186.053143 -24.7119986,203.451115 C-28.3013336,209.382697 -33.1613359,214.781238 -35.2346702,221.303307" id="Fill_1" fill="#2B6DF8" opacity="0.04" transform="translate(96.765330, 135.803307) rotate(-90.000000) translate(-96.765330, -135.803307) "></path>
                <path d="M191.282459,202.956156 L191.028794,202.723446 C212.001517,180.291551 217.062793,166.819648 219.252319,156.597703 C221.908636,143.278967 219.773218,129.453923 213.220442,117.546339 C206.851775,105.387758 196.475603,95.7829887 183.8354,90.3458872 C168.252383,83.8406508 150.785572,84.0294782 133.895515,84.2116567 C120.802416,84.3539422 107.264736,84.5002169 94.5000665,81.5827008 C82.9569919,78.9457663 72.102817,73.8088636 61.6051076,68.8408418 C56.3302189,66.3448629 50.8764299,63.7651085 45.3972744,61.5271051 C37.1358164,58.0233404 28.4119001,55.719704 19.492778,54.6867666 C10.7554111,53.5975225 1.88454884,54.8550292 -6.20077629,58.3290075 C-13.1118286,61.5706341 -19.0568602,66.5479845 -23.4513045,72.7716428 C-27.8818443,78.9780387 -30.9617902,86.0378795 -32.4937801,93.4987726 C-36.209299,111.413438 -31.8022103,129.818789 -27.5393098,147.609786 C-27.1067449,149.4165 -26.6781853,151.217896 -26.2536308,153.013972 C-23.2096556,165.975244 -20.3258895,181.151912 -22.0227722,195.448273 L-22.3672221,195.40838 C-20.6756797,181.16521 -23.5567756,166.024445 -26.5914053,153.089769 C-27.0132896,151.292806 -27.4418492,149.491854 -27.8770843,147.686913 C-32.1493303,129.854693 -36.5644295,111.417427 -32.8328896,93.432284 C-31.2907278,85.9253742 -28.1912429,78.8220859 -23.7330057,72.5774963 C-19.304124,66.3005359 -13.3105871,61.2804031 -6.34229444,58.0111924 C1.79747866,54.5114228 10.7287924,53.2433469 19.5261549,54.3383668 C28.479199,55.3776569 37.2359406,57.6924899 45.528112,61.2119495 C51.0152779,63.4499529 56.4757423,66.0336966 61.7546362,68.5256862 C72.2336545,73.4857294 83.0718085,78.6133237 94.577501,81.2422796 C107.302119,84.1491575 120.817102,84.0028828 133.891509,83.8619271 C150.817614,83.6784188 168.319137,83.4909212 183.968908,90.022753 C209.646441,100.740702 225.294877,130.012935 219.591429,156.661532 C215.676983,174.956512 203.083203,190.325997 191.287799,202.949507" id="Fill_3" fill="#1DEDED" transform="translate(93.262563, 128.456156) rotate(-90.000000) translate(-93.262563, -128.456156) "></path>
                <path d="M-6.33466529,232.901696 C18.6897139,230.669673 50.7408855,229.329659 85.6711919,229.329659 C124.473622,229.329659 159.715402,230.983009 185.738094,233.675037 C196.178256,221.340906 204.06285,207.048363 208.932232,191.63061 C216.519411,166.805025 214.671867,138.687407 201.435567,116.35118 C191.286052,99.2243397 175.346321,86.4348766 159.772638,74.0374175 C148.362586,64.9706589 136.125931,55.5412299 121.643737,53.9212135 C106.650407,52.2411965 91.9419286,59.3772688 80.0846323,68.7013634 C68.227336,78.025458 58.3187467,89.6095755 46.5839102,99.091005 C22.0746605,118.896539 -11.2037706,130.581991 -25.3718287,158.718276 C-38.4897192,184.729795 -30.3505835,216.451129 -6.33732746,232.903029" id="Fill_5" fill="#2B6DF8" opacity="0.04" transform="translate(90.888608, 143.675037) rotate(-90.000000) translate(-90.888608, -143.675037) "></path>
                <g id="Group_9" transform="translate(93.965113, 140.064619) rotate(-90.000000) translate(-93.965113, -140.064619) translate(-30.034887, 46.564619)" fill="#477CE3" opacity="0.3">
                    <path d="M212.061333,186.198571 L211.82,185.954136 C223.464038,174.833925 232.768167,161.491134 239.184,146.712186 C244.249327,134.763901 246.96043,121.947076 247.168,108.967571 C247.404322,96.0548391 244.762391,83.2519032 239.434667,71.4914357 C230.990667,53.2843143 215.757333,38.4538786 202.318667,25.3678857 C192.890667,16.1875214 181.154667,4.76182143 166.510667,1.59217143 C150.362667,-1.90205714 134.341333,5.31347143 123.746667,11.9813571 C117.22432,16.2439416 110.922415,20.8358154 104.865333,25.7392143 C99.224,30.1470714 93.3906667,34.71655 87.2773333,38.6769429 C78.4651602,44.12926 69.3420067,49.060243 59.9546667,53.4446 C40.8226667,62.8386786 21.04,72.5453143 9.57733333,90.38645 C-5.55363093,113.86514 -1.63300812,144.844217 18.868,163.797307 L18.6306667,164.047086 C-1.99024585,144.981082 -5.93329156,113.819474 9.28666667,90.2021214 C20.8,72.2861857 40.628,62.5528357 59.8026667,53.13605 C69.1781918,48.7590567 78.2901901,43.8365613 87.092,38.3937714 C93.192,34.4413929 99.02,29.8826 104.654667,25.4734071 C110.720884,20.5618042 117.032119,15.9619163 123.564,11.6915071 C134.214667,4.98889286 150.325333,-2.26136429 166.586667,1.25690714 C181.329333,4.44525714 193.102667,15.9096929 202.562667,25.1207786 C216.029333,38.2254714 231.28,53.07995 239.750667,71.3445071 C245.099214,83.1515433 247.751174,96.0051673 247.513333,108.968907 C247.306095,121.993144 244.585434,134.8542 239.501333,146.843086 C233.069033,161.664778 223.738915,175.045932 212.061333,186.198571" id="Fill_7"></path>
                </g>
                <path d="M47.1175438,183.637235 C46.5529268,183.657371 46.1056092,184.120926 46.1056092,184.685902 C46.1056092,185.250878 46.5529268,185.714433 47.1175438,185.734569 C47.6821608,185.714433 48.1294784,185.250878 48.1294784,184.685902 C48.1294784,184.120926 47.6821608,183.657371 47.1175438,183.637235" id="Fill_1141" fill="#629FF9" transform="translate(47.117544, 184.685902) rotate(22.000000) translate(-47.117544, -184.685902) "></path>
                <path d="M31.7162105,129.033235 C31.1515935,129.053371 30.7042759,129.516926 30.7042759,130.081902 C30.7042759,130.646878 31.1515935,131.110433 31.7162105,131.130569 C32.2808274,131.110433 32.728145,130.646878 32.728145,130.081902 C32.728145,129.516926 32.2808274,129.053371 31.7162105,129.033235" id="Fill_1143" fill="#1DEDED" transform="translate(31.716210, 130.081902) rotate(22.000000) translate(-31.716210, -130.081902) "></path>
                <path d="M116.766877,92.9319019 C116.20226,92.9520379 115.754943,93.4155926 115.754943,93.9805685 C115.754943,94.5455444 116.20226,95.0090992 116.766877,95.0292352 C117.331494,95.0090992 117.778812,94.5455444 117.778812,93.9805685 C117.778812,93.4155926 117.331494,92.9520379 116.766877,92.9319019" id="Fill_1143-2" fill="#1DEDED" transform="translate(116.766877, 93.980569) rotate(22.000000) translate(-116.766877, -93.980569) "></path>
                <path d="M54.7415438,57.8052352 C54.1769268,57.8253712 53.7296092,58.2889259 53.7296092,58.8539019 C53.7296092,59.4188778 54.1769268,59.8824325 54.7415438,59.9025685 C55.3061608,59.8824325 55.7534784,59.4188778 55.7534784,58.8539019 C55.7534784,58.2889259 55.3061608,57.8253712 54.7415438,57.8052352" id="Fill_1143-3" fill="#1DEDED" transform="translate(54.741544, 58.853902) rotate(22.000000) translate(-54.741544, -58.853902) "></path>
            </g>
        </g>
    </g>
</svg>