<svg width="14" height="13" viewBox="0 0 14 13" fill="none" xmlns="http://www.w3.org/2000/svg">
<path d="M12 3.69446H2.22222C1.54721 3.69446 1 4.24167 1 4.91668V11.0278C1 11.7028 1.54721 12.25 2.22222 12.25H12C12.675 12.25 13.2222 11.7028 13.2222 11.0278V4.91668C13.2222 4.24167 12.675 3.69446 12 3.69446Z" stroke="#2C6DF9" stroke-linecap="round" stroke-linejoin="round"/>
<path d="M9.55588 12.25V2.47222C9.55588 2.14807 9.42711 1.83719 9.1979 1.60798C8.96869 1.37877 8.65781 1.25 8.33366 1.25H5.88921C5.56506 1.25 5.25418 1.37877 5.02497 1.60798C4.79576 1.83719 4.66699 2.14807 4.66699 2.47222V12.25" stroke="#2C6DF9" stroke-linecap="round" stroke-linejoin="round"/>
</svg>
