<svg width="60" height="60" viewBox="0 0 60 60" fill="none" xmlns="http://www.w3.org/2000/svg">
<circle opacity="0.25" cx="30" cy="30" r="30" fill="#E4EDFF"/>
<circle cx="30" cy="30" r="20" fill="#E4EDFF"/>
<path fill-rule="evenodd" clip-rule="evenodd" d="M25.81 20H34.191C37.28 20 39 21.78 39 24.83V35.16C39 38.26 37.28 40 34.191 40H25.81C22.77 40 21 38.26 21 35.16V24.83C21 21.78 22.77 20 25.81 20ZM26.08 24.66V24.65H29.069C29.5 24.65 29.85 25 29.85 25.429C29.85 25.87 29.5 26.22 29.069 26.22H26.08C25.649 26.22 25.3 25.87 25.3 25.44C25.3 25.01 25.649 24.66 26.08 24.66ZM26.08 30.74H33.92C34.35 30.74 34.7 30.39 34.7 29.96C34.7 29.53 34.35 29.179 33.92 29.179H26.08C25.649 29.179 25.3 29.53 25.3 29.96C25.3 30.39 25.649 30.74 26.08 30.74ZM26.08 35.31H33.92C34.319 35.27 34.62 34.929 34.62 34.53C34.62 34.12 34.319 33.78 33.92 33.74H26.08C25.78 33.71 25.49 33.85 25.33 34.11C25.17 34.36 25.17 34.69 25.33 34.95C25.49 35.2 25.78 35.35 26.08 35.31Z" fill="#2C6DF9"/>
</svg>
