<?xml version="1.0" encoding="utf-8"?>
<!-- Generator: Adobe Illustrator 23.0.4, SVG Export Plug-In . SVG Version: 6.00 Build 0)  -->
<svg version="1.1" id="Layer_1" xmlns="http://www.w3.org/2000/svg" xmlns:xlink="http://www.w3.org/1999/xlink" x="0px" y="0px"
	 viewBox="0 0 18 18" style="enable-background:new 0 0 18 18;" xml:space="preserve">
<style type="text/css">
	.st0{fill:#00C598;}
</style>
<path class="st0" d="M16.3,1h-0.8v1.5c0,1.2-1,2.3-2.3,2.3s-2.3-1-2.3-2.3V1H7.1v1.5c0,1.2-1,2.3-2.2,2.3S2.6,3.7,2.6,2.5V1H1.7
	C0.7,1,0,1.7,0,2.7v12.5c0,1,0.7,1.7,1.7,1.7h14.5c0.9,0,1.7-0.7,1.7-1.7V2.7C18,1.7,17.3,1,16.3,1z M10.2,14.7
	c-0.1,0.1-0.2,0.2-0.4,0.2C9.7,15,9.5,15,9.3,15s-0.6-0.1-0.8-0.3c-0.2-0.2-0.3-0.5-0.3-0.8c0-0.2,0.1-0.6,0.3-0.8
	c0.1-0.1,0.1-0.1,0.2-0.2c0.1-0.1,0.1-0.1,0.2-0.1c0.1,0,0.2-0.1,0.2-0.1c0.3-0.1,0.7,0.1,1,0.2c0.2,0.2,0.3,0.5,0.3,0.8
	C10.5,14.2,10.5,14.4,10.2,14.7z M10.5,10.2c0,0.7-0.5,1.2-1.2,1.2c-0.7,0-1.2-0.5-1.2-1.2V6.6c0-0.7,0.5-1.2,1.2-1.2
	s1.2,0.5,1.2,1.2V10.2z"/>
</svg>
