<?xml version="1.0" encoding="utf-8"?>
<!-- Generator: Adobe Illustrator 23.0.4, SVG Export Plug-In . SVG Version: 6.00 Build 0)  -->
<svg version="1.1" id="Layer_1" xmlns="http://www.w3.org/2000/svg" xmlns:xlink="http://www.w3.org/1999/xlink" x="0px" y="0px"
	 viewBox="0 0 18 18" style="enable-background:new 0 0 18 18;" xml:space="preserve">
<style type="text/css">
	.st0{fill:#00C598;}
</style>
<g>
	<g>
		<path class="st0" d="M17.8,11.6l-3-3.5c-0.2-0.2-0.5-0.4-0.8-0.4c-0.3,0-0.7,0.2-0.8,0.4l-2.9,3.5c-0.4,0.4-0.3,1.1,0.1,1.6
			c0.2,0.2,0.5,0.2,0.7,0.2c0.3,0,0.7-0.1,0.8-0.4l1-1.1v5c0,0.7,0.5,1.1,1.1,1.1c0.7,0,1.1-0.5,1.1-1.1v-5.2l1.1,1.2
			c0.4,0.5,1.1,0.5,1.6,0.1C18.1,12.8,18.1,12,17.8,11.6z"/>
		<path class="st0" d="M6.6,7.4c2,0,3.7-1.6,3.7-3.7S8.7,0,6.6,0S2.9,1.6,2.9,3.7S4.6,7.4,6.6,7.4z"/>
		<path class="st0" d="M11.5,14.5c-0.2,0.1-0.5,0.1-0.7,0.1c-0.5,0-1.1-0.2-1.5-0.5c-1-0.8-1.1-2.2-0.2-3.2l1.3-1.6
			c-1.1-0.7-2.5-1-3.9-1C2.9,8.3,0,10.5,0,13.2v3.7C0,17.5,0.5,18,1.1,18h10.7c-0.2-0.3-0.2-0.7-0.2-1.1L11.5,14.5L11.5,14.5z"/>
	</g>
</g>
</svg>
