<svg width="23" height="13" viewBox="0 0 23 13" fill="none" xmlns="http://www.w3.org/2000/svg">
<path d="M2.625 9.125C2.51562 9.125 2.42188 9.09375 2.34375 9.03125C2.28125 8.95312 2.25 8.85938 2.25 8.75V6.5C2.25 6.39062 2.28125 6.30469 2.34375 6.24219C2.42188 6.16406 2.51562 6.125 2.625 6.125H4.875C4.98438 6.125 5.07031 6.16406 5.13281 6.24219C5.21094 6.30469 5.25 6.39062 5.25 6.5V8.75C5.25 8.85938 5.21094 8.95312 5.13281 9.03125C5.07031 9.09375 4.98438 9.125 4.875 9.125H2.625ZM9.375 2C9.6875 2 9.95312 2.10938 10.1719 2.32812C10.3906 2.54687 10.5 2.8125 10.5 3.125V11.375C10.5 11.6875 10.3906 11.9531 10.1719 12.1719C9.95312 12.3906 9.6875 12.5 9.375 12.5H1.125C0.8125 12.5 0.546875 12.3906 0.328125 12.1719C0.109375 11.9531 0 11.6875 0 11.375V3.125C0 2.8125 0.109375 2.54687 0.328125 2.32812C0.546875 2.10938 0.8125 2 1.125 2H2.25V0.875C2.25 0.765625 2.28125 0.679688 2.34375 0.617188C2.42188 0.539063 2.51562 0.5 2.625 0.5H3.375C3.48438 0.5 3.57031 0.539063 3.63281 0.617188C3.71094 0.679688 3.75 0.765625 3.75 0.875V2H6.75V0.875C6.75 0.765625 6.78125 0.679688 6.84375 0.617188C6.92188 0.539063 7.01562 0.5 7.125 0.5H7.875C7.98438 0.5 8.07031 0.539063 8.13281 0.617188C8.21094 0.679688 8.25 0.765625 8.25 0.875V2H9.375ZM9.375 11.2344V4.25H1.125V11.2344C1.125 11.3281 1.17188 11.375 1.26562 11.375H9.23438C9.32812 11.375 9.375 11.3281 9.375 11.2344Z" fill="#2C6DF9"/>
</svg>
