<svg width="60" height="60" viewBox="0 0 60 60" fill="none" xmlns="http://www.w3.org/2000/svg">
<circle opacity="0.25" cx="30" cy="30" r="30" fill="#E4EDFF"/>
<circle cx="30" cy="30" r="20" fill="#E4EDFF"/>
<path fill-rule="evenodd" clip-rule="evenodd" d="M25.81 20H34.191C37.28 20 39 21.78 39 24.83V35.16C39 38.26 37.28 40 34.191 40H25.81C22.77 40 21 38.26 21 35.16V24.83C21 21.78 22.77 20 25.81 20ZM26.08 24.6604V24.6504H29.069C29.5 24.6504 29.85 25.0004 29.85 25.4294C29.85 25.8704 29.5 26.2204 29.069 26.2204H26.08C25.649 26.2204 25.3 25.8704 25.3 25.4404C25.3 25.0104 25.649 24.6604 26.08 24.6604ZM26.0798 30.7407H33.9198C34.3498 30.7407 34.6998 30.3907 34.6998 29.9607C34.6998 29.5307 34.3498 29.1797 33.9198 29.1797H26.0798C25.6488 29.1797 25.2998 29.5307 25.2998 29.9607C25.2998 30.3907 25.6488 30.7407 26.0798 30.7407ZM26.08 35.3104H33.92C34.319 35.2704 34.62 34.9294 34.62 34.5304C34.62 34.1204 34.319 33.7804 33.92 33.7404H26.08C25.78 33.7104 25.49 33.8504 25.33 34.1104C25.17 34.3604 25.17 34.6904 25.33 34.9504C25.49 35.2004 25.78 35.3504 26.08 35.3104Z" fill="#2C6DF9"/>
</svg>
