<svg width="67" height="66" viewBox="0 0 67 66" fill="none" xmlns="http://www.w3.org/2000/svg">
<rect x="5.5" y="5" width="56" height="56" rx="28" fill="#F8CF7A"/>
<path d="M33.5 36.2083C33.0217 36.2083 32.625 35.8117 32.625 35.3333V29.5C32.625 29.0217 33.0217 28.625 33.5 28.625C33.9783 28.625 34.375 29.0217 34.375 29.5V35.3333C34.375 35.8117 33.9783 36.2083 33.5 36.2083Z" fill="#F28313"/>
<path d="M33.4997 40.0003C33.4297 40.0003 33.348 39.9886 33.2663 39.977C33.1963 39.9653 33.1263 39.942 33.0563 39.907C32.9863 39.8836 32.9163 39.8486 32.8463 39.802C32.788 39.7553 32.7297 39.7086 32.6713 39.662C32.4613 39.4403 32.333 39.137 32.333 38.8336C32.333 38.5303 32.4613 38.227 32.6713 38.0053C32.7297 37.9586 32.788 37.912 32.8463 37.8653C32.9163 37.8186 32.9863 37.7836 33.0563 37.7603C33.1263 37.7253 33.1963 37.702 33.2663 37.6903C33.418 37.6553 33.5813 37.6553 33.7213 37.6903C33.803 37.702 33.873 37.7253 33.943 37.7603C34.013 37.7836 34.083 37.8186 34.153 37.8653C34.2113 37.912 34.2697 37.9586 34.328 38.0053C34.538 38.227 34.6663 38.5303 34.6663 38.8336C34.6663 39.137 34.538 39.4403 34.328 39.662C34.2697 39.7086 34.2113 39.7553 34.153 39.802C34.083 39.8486 34.013 39.8836 33.943 39.907C33.873 39.942 33.803 39.9653 33.7213 39.977C33.6513 39.9886 33.5697 40.0003 33.4997 40.0003Z" fill="#F28313"/>
<path d="M40.5702 44.8531H26.4302C24.1552 44.8531 22.4169 44.0248 21.5302 42.5315C20.6552 41.0382 20.7719 39.1131 21.8802 37.1181L28.9502 24.4015C30.1169 22.3015 31.7269 21.1465 33.5002 21.1465C35.2735 21.1465 36.8835 22.3015 38.0502 24.4015L45.1202 37.1298C46.2285 39.1248 46.3569 41.0382 45.4702 42.5431C44.5835 44.0248 42.8452 44.8531 40.5702 44.8531ZM33.5002 22.8965C32.4035 22.8965 31.3302 23.7365 30.4785 25.2532L23.4202 37.9815C22.6269 39.4048 22.4985 40.7115 23.0469 41.6565C23.5952 42.6015 24.8085 43.1148 26.4419 43.1148H40.5819C42.2152 43.1148 43.4169 42.6015 43.9769 41.6565C44.5369 40.7115 44.3969 39.4165 43.6035 37.9815L36.5219 25.2532C35.6702 23.7365 34.5969 22.8965 33.5002 22.8965Z" fill="#F28313"/>
<rect x="5.5" y="5" width="56" height="56" rx="28" stroke="#F9E3B2" stroke-width="10"/>
</svg>
