<svg width="12" height="12" viewBox="0 0 12 12" fill="none" xmlns="http://www.w3.org/2000/svg">
<path d="M6 0C2.68629 0 0 2.68629 0 6C0 9.31371 2.68629 12 6 12C9.31371 12 12 9.31371 12 6C11.9965 2.68777 9.31225 0.00354074 6 0ZM6.42858 6C6.42858 6.2367 6.2367 6.42858 6 6.42858H2.57143C2.33473 6.42858 2.14285 6.2367 2.14285 6C2.14285 5.7633 2.33473 5.57142 2.57143 5.57142H5.57144V2.57143C5.57144 2.33473 5.76332 2.14285 6.00003 2.14285C6.23673 2.14285 6.42858 2.33473 6.42858 2.57143V6Z" fill="#2C6DF9"/>
</svg>
