<svg width="32" height="32" viewBox="0 0 32 32" fill="none" xmlns="http://www.w3.org/2000/svg">
<circle opacity="0.3" cx="16" cy="16" r="16" fill="#25BA70"/>
<circle cx="15.9989" cy="15.9989" r="12.1905" fill="#25BA70"/>
<circle cx="16.0032" cy="15.9991" r="11.4286" fill="#25BA70"/>
<path d="M14.1931 19.6553C14.1836 19.6553 14.1741 19.6553 14.1646 19.6553C13.956 19.6489 13.7601 19.5541 13.6242 19.3993L10.9189 16.3242C10.6407 16.0082 10.6724 15.5309 10.9884 15.2528C11.3013 14.9747 11.7817 15.0063 12.0598 15.3223L14.2373 17.7969L19.4457 12.6992C19.7459 12.4053 20.2263 12.4116 20.5171 12.7119C20.811 13.0121 20.8047 13.4925 20.5044 13.7832L14.724 19.4404C14.5818 19.5794 14.389 19.6553 14.1931 19.6553Z" fill="white"/>
</svg>
