<svg width="35" height="34" viewBox="0 0 35 34" fill="none" xmlns="http://www.w3.org/2000/svg">
<g filter="url(#filter0_d_17410_19520)">
<circle cx="17.2354" cy="17" r="12" fill="white"/>
</g>
<path fill-rule="evenodd" clip-rule="evenodd" d="M14.8012 12.5435C15.0723 12.2705 15.4399 12.1172 15.8232 12.1172H20.3629C20.7463 12.1172 21.1139 12.2705 21.3849 12.5435C21.6559 12.8164 21.8082 13.1866 21.8082 13.5725V18.144C21.8082 18.53 21.6559 18.9001 21.3849 19.1731C21.1139 19.446 20.7463 19.5993 20.3629 19.5993H15.8232C15.4399 19.5993 15.0723 19.446 14.8012 19.1731C14.5302 18.9001 14.3779 18.53 14.3779 18.144V13.5725C14.3779 13.1866 14.5302 12.8164 14.8012 12.5435ZM15.8232 12.7422C15.6045 12.7422 15.3948 12.8297 15.2401 12.9854C15.0855 13.1411 14.9986 13.3523 14.9986 13.5725V18.144C14.9986 18.3642 15.0855 18.5754 15.2401 18.7311C15.3948 18.8868 15.6045 18.9743 15.8232 18.9743H20.3629C20.5816 18.9743 20.7914 18.8868 20.946 18.7311C21.1007 18.5754 21.1875 18.3642 21.1875 18.144V13.5725C21.1875 13.3523 21.1007 13.1411 20.946 12.9854C20.7914 12.8297 20.5816 12.7422 20.3629 12.7422H15.8232Z" fill="#2C6DF9"/>
<path fill-rule="evenodd" clip-rule="evenodd" d="M18.0934 13.832C18.2648 13.832 18.4037 13.9719 18.4037 14.1445V15.5463H19.7958C19.9672 15.5463 20.1062 15.6862 20.1062 15.8588C20.1062 16.0314 19.9672 16.1713 19.7958 16.1713H18.4037V17.5731C18.4037 17.7457 18.2648 17.8856 18.0934 17.8856C17.922 17.8856 17.7831 17.7457 17.7831 17.5731V16.1713H16.391C16.2196 16.1713 16.0807 16.0314 16.0807 15.8588C16.0807 15.6862 16.2196 15.5463 16.391 15.5463H17.7831V14.1445C17.7831 13.9719 17.922 13.832 18.0934 13.832ZM12.5317 14.8314C12.8027 14.5585 13.1704 14.4052 13.5537 14.4052H14.6886C14.86 14.4052 14.9989 14.5451 14.9989 14.7177C14.9989 14.8903 14.86 15.0302 14.6886 15.0302H13.5537C13.335 15.0302 13.1252 15.1177 12.9706 15.2734C12.8159 15.4291 12.7291 15.6403 12.7291 15.8605V20.4302C12.7291 20.6505 12.8159 20.8617 12.9706 21.0174C13.1252 21.1731 13.335 21.2606 13.5537 21.2606H13.5554L18.0946 21.2526C18.3131 21.2523 18.5226 21.1646 18.6769 21.009C18.8313 20.8533 18.918 20.6423 18.918 20.4222V19.2874C18.918 19.1148 19.057 18.9749 19.2284 18.9749C19.3997 18.9749 19.5387 19.1148 19.5387 19.2874V20.4222C19.5387 20.8079 19.3867 21.1777 19.1161 21.4506C18.8456 21.7234 18.4785 21.877 18.0956 21.8776L13.5537 21.8856C13.1704 21.8856 12.8027 21.7323 12.5317 21.4593C12.2607 21.1864 12.1084 20.8162 12.1084 20.4302V15.8605C12.1084 15.4745 12.2607 15.1044 12.5317 14.8314Z" fill="#2C6DF9"/>
<defs>
<filter id="filter0_d_17410_19520" x="0.235352" y="0" width="34" height="34" filterUnits="userSpaceOnUse" color-interpolation-filters="sRGB">
<feFlood flood-opacity="0" result="BackgroundImageFix"/>
<feColorMatrix in="SourceAlpha" type="matrix" values="0 0 0 0 0 0 0 0 0 0 0 0 0 0 0 0 0 0 127 0" result="hardAlpha"/>
<feOffset/>
<feGaussianBlur stdDeviation="2.5"/>
<feColorMatrix type="matrix" values="0 0 0 0 0 0 0 0 0 0 0 0 0 0 0 0 0 0 0.23 0"/>
<feBlend mode="normal" in2="BackgroundImageFix" result="effect1_dropShadow_17410_19520"/>
<feBlend mode="normal" in="SourceGraphic" in2="effect1_dropShadow_17410_19520" result="shape"/>
</filter>
</defs>
</svg>
