<svg width="32" height="32" viewBox="0 0 32 32" fill="none" xmlns="http://www.w3.org/2000/svg">
<circle opacity="0.3" cx="16" cy="16" r="16" fill="#F44E21"/>
<circle cx="16" cy="16" r="12.1905" fill="#F44E21"/>
<path d="M16.8845 16.0006L19.5553 13.3298L20.1061 12.779C20.1874 12.6978 20.1874 12.5658 20.1061 12.4845L19.5168 11.8952C19.4355 11.8139 19.3035 11.8139 19.2223 11.8952L16.0007 15.1168L12.779 11.8949C12.6978 11.8137 12.5658 11.8137 12.4845 11.8949L11.8949 12.4842C11.8137 12.5655 11.8137 12.6975 11.8949 12.7788L15.1168 16.0006L11.8949 19.2223C11.8137 19.3035 11.8137 19.4355 11.8949 19.5168L12.4842 20.1061C12.5655 20.1874 12.6975 20.1874 12.7788 20.1061L16.0007 16.8845L18.6715 19.5553L19.2223 20.1061C19.3035 20.1874 19.4355 20.1874 19.5168 20.1061L20.1061 19.5168C20.1874 19.4355 20.1874 19.3035 20.1061 19.2223L16.8845 16.0006Z" fill="white"/>
</svg>
