<svg width="12" height="14" viewBox="0 0 12 14" fill="none" xmlns="http://www.w3.org/2000/svg">
<path d="M11.4278 6.03125H10.2526C10.0052 5.16527 9.21649 4.53125 8.28866 4.53125C7.36083 4.53125 6.57216 5.18073 6.30928 6.03125H0.572165C0.262887 6.03125 0 6.27867 0 6.60342C0 6.91269 0.247423 7.17558 0.572165 7.17558H6.30928C6.5567 8.04156 7.34536 8.67558 8.2732 8.67558C9.20103 8.67558 9.98969 8.04156 10.2371 7.17558H11.4124C11.7216 7.17558 11.9845 6.92816 11.9845 6.60342C12 6.29414 11.7526 6.03125 11.4278 6.03125ZM8.28866 7.53125C7.79381 7.53125 7.36082 7.12919 7.36082 6.60342C7.36082 6.07764 7.76289 5.67558 8.28866 5.67558C8.81443 5.67558 9.21649 6.07764 9.21649 6.60342C9.21649 7.12919 8.78351 7.53125 8.28866 7.53125Z" fill="#707177"/>
<path d="M0.572165 2.64433H1.79381C2.04124 3.51031 2.8299 4.14433 3.75773 4.14433C4.68557 4.14433 5.47423 3.51031 5.72165 2.64433H11.4278C11.7371 2.64433 12 2.39691 12 2.07217C12 1.74742 11.7526 1.5 11.4278 1.5H5.72165C5.47423 0.634021 4.68557 0 3.75773 0C2.8299 0 2.04124 0.634021 1.79381 1.5H0.572165C0.262887 1.5 0 1.74742 0 2.07217C0 2.39691 0.247423 2.64433 0.572165 2.64433ZM3.75773 1.14433C4.25258 1.14433 4.68557 1.54639 4.68557 2.07217C4.68557 2.59794 4.2835 3 3.75773 3C3.23196 3 2.8299 2.56701 2.8299 2.07217C2.8299 1.57732 3.26289 1.14433 3.75773 1.14433Z" fill="#707177"/>
<path d="M11.4278 10.562H5.72165C5.47423 9.69603 4.68557 9.06201 3.75773 9.06201C2.8299 9.06201 2.04124 9.69603 1.79381 10.562H0.572165C0.262887 10.562 0 10.8094 0 11.1342C0 11.4589 0.247423 11.7063 0.572165 11.7063H1.79381C2.04124 12.5723 2.8299 13.2063 3.75773 13.2063C4.68557 13.2063 5.47423 12.5723 5.72165 11.7063H11.4278C11.7371 11.7063 12 11.4589 12 11.1342C12 10.8094 11.7526 10.562 11.4278 10.562ZM3.75773 12.062C3.26289 12.062 2.8299 11.6599 2.8299 11.1342C2.8299 10.6084 3.23196 10.2063 3.75773 10.2063C4.2835 10.2063 4.68557 10.6084 4.68557 11.1342C4.68557 11.6599 4.25258 12.062 3.75773 12.062Z" fill="#707177"/>
</svg>
