<svg width="81" height="80" viewBox="0 0 81 80" fill="none" xmlns="http://www.w3.org/2000/svg">
<circle opacity="0.3" cx="40.5" cy="40" r="40" fill="#F9AC12"/>
<ellipse cx="40.9332" cy="39.524" rx="27.7056" ry="27.7056" fill="#F9AC12"/>
<g clip-path="url(#clip0_16866_13047)">
<path fill-rule="evenodd" clip-rule="evenodd" d="M39.3038 31.632C39.3627 31.086 39.853 30.6911 40.399 30.7499C41.4486 30.8631 42.4697 31.1623 43.4144 31.6337L43.4281 31.6405C44.5793 32.2373 45.523 33.1682 46.1356 34.3109C46.743 35.4438 46.9967 36.7324 46.8646 38.0104C46.8473 38.3382 46.7481 38.6566 46.5756 38.9364C46.3954 39.2287 46.1416 39.4686 45.8395 39.632C45.5375 39.7954 45.1979 39.8766 44.8546 39.8675C44.5113 39.8584 44.1765 39.7593 43.8835 39.5802L35.4646 34.4267C34.9962 34.14 34.849 33.5279 35.1357 33.0596C35.4224 32.5912 36.0345 32.4439 36.5028 32.7306L44.8812 37.8593C44.882 37.8492 44.883 37.8391 44.884 37.829C44.9808 36.9387 44.8062 36.0399 44.383 35.2506C43.961 34.4635 43.3116 33.8219 42.5195 33.4096C41.7882 33.0458 40.9981 32.8147 40.1859 32.7271C39.6399 32.6683 39.245 32.178 39.3038 31.632Z" fill="white"/>
<path fill-rule="evenodd" clip-rule="evenodd" d="M31.3527 29.6493C30.4254 29.6358 29.5162 29.9075 28.7483 30.4276C27.9817 30.9468 27.3929 31.6885 27.0609 32.5526C27.06 32.5557 27.0597 32.5591 27.0601 32.5624C27.0606 32.5663 27.0619 32.57 27.0641 32.5733C27.0663 32.5766 27.0692 32.5794 27.0727 32.5813C27.0741 32.5822 27.0757 32.5829 27.0773 32.5834H35.9837C36.5329 32.5834 36.978 33.0285 36.978 33.5777C36.978 34.1268 36.5329 34.572 35.9837 34.572H27.0348C27.0185 34.572 27.0021 34.5716 26.9858 34.5708C26.6704 34.5552 26.3631 34.4657 26.0886 34.3094C25.8142 34.1532 25.5804 33.9346 25.406 33.6712C25.2317 33.4079 25.1217 33.1073 25.085 32.7937C25.0482 32.48 25.0858 32.1621 25.1946 31.8656L25.1989 31.8538L25.199 31.8538C25.6758 30.604 26.5256 29.5312 27.6331 28.7811C28.7407 28.031 30.0522 27.6399 31.3897 27.661L31.4013 27.6611L31.4013 27.6612C32.7918 27.6993 34.1508 28.0842 35.3548 28.7809C35.8301 29.0559 35.9925 29.6642 35.7174 30.1395C35.4424 30.6148 34.8341 30.7772 34.3588 30.5022C33.4432 29.9724 32.41 29.6792 31.3527 29.6493Z" fill="white"/>
<path fill-rule="evenodd" clip-rule="evenodd" d="M40.3408 26.3193C41.4755 25.8367 42.7221 25.6793 43.9412 25.8645C45.1571 26.0493 46.2978 26.5678 47.2365 27.3623C47.4662 27.5511 47.6473 27.7923 47.7646 28.0656C47.8836 28.343 47.9334 28.6451 47.9095 28.946C47.8857 29.2468 47.789 29.5373 47.6278 29.7925C47.4681 30.0453 47.2498 30.2558 46.9915 30.4063L42.6094 33.0152C42.1376 33.2961 41.5273 33.1413 41.2464 32.6694C40.9655 32.1976 41.1203 31.5873 41.5921 31.3064L45.832 28.7822C45.1979 28.2808 44.4434 27.9523 43.6424 27.8306C42.7913 27.7012 41.9211 27.8102 41.1283 28.1454C40.4663 28.4449 39.9213 28.9542 39.5778 29.5947C39.3183 30.0787 38.7156 30.2606 38.2316 30.0011C37.7477 29.7416 37.5657 29.1389 37.8253 28.6549C38.3779 27.6245 39.2561 26.806 40.3228 26.3272L40.3408 26.3193Z" fill="white"/>
<path fill-rule="evenodd" clip-rule="evenodd" d="M32.2744 25.6409L33.7531 28.3867C34.0135 28.8702 33.8326 29.4732 33.3491 29.7336C32.8656 29.9939 32.2626 29.8131 32.0022 29.3296L30.4187 26.3892C30.2624 26.1008 30.1849 25.7762 30.1941 25.4483C30.2034 25.1195 30.2994 24.7991 30.4726 24.5194C30.6457 24.2398 30.8898 24.011 31.1799 23.8561C31.4701 23.7013 31.7961 23.626 32.1248 23.6379L32.1481 23.6391C33.1908 23.7013 34.2251 23.8635 35.2369 24.1233C35.2661 24.1308 35.2949 24.1396 35.3233 24.1497C36.3761 24.5248 37.3221 25.15 38.0797 25.9717C38.8374 26.7933 39.3841 27.7867 39.6729 28.8664C39.8147 29.3969 39.4997 29.942 38.9692 30.0838C38.4387 30.2257 37.8936 29.9107 37.7517 29.3802C37.5462 28.6117 37.1571 27.9046 36.6178 27.3198C36.0884 26.7458 35.43 26.3064 34.6972 26.0379C33.9023 25.8366 33.0917 25.7037 32.2744 25.6409Z" fill="white"/>
<path fill-rule="evenodd" clip-rule="evenodd" d="M40.1368 43.1492C40.6296 42.9068 41.2255 43.1098 41.4679 43.6026L44.9036 48.9946C44.9893 49.1418 45.1115 49.2646 45.2585 49.3512C45.4115 49.4412 45.5857 49.4886 45.7631 49.4885H54.2132C54.7623 49.4885 55.2075 49.9337 55.2075 50.4828C55.2075 51.032 54.7623 51.4771 54.2132 51.4771H45.7638C45.2316 51.4773 44.7087 51.335 44.25 51.0651C43.7913 50.7951 43.4131 50.4073 43.1547 49.9419C43.1467 49.9275 43.1391 49.9129 43.1318 49.8981L39.6833 44.4802C39.441 43.9874 39.644 43.3915 40.1368 43.1492Z" fill="white"/>
<path fill-rule="evenodd" clip-rule="evenodd" d="M53.977 49.5182C54.5098 49.385 55.0496 49.7089 55.1828 50.2417L56.1771 54.219C56.3103 54.7517 55.9864 55.2916 55.4537 55.4247C54.9209 55.5579 54.3811 55.234 54.2479 54.7013L53.2536 50.724C53.1204 50.1912 53.4443 49.6514 53.977 49.5182Z" fill="white"/>
<path fill-rule="evenodd" clip-rule="evenodd" d="M45.6403 49.5232C46.1315 49.7687 46.3306 50.366 46.085 50.8572L44.17 54.9038C43.9244 55.395 43.3272 55.5941 42.836 55.3485C42.3448 55.1029 42.1457 54.5056 42.3913 54.0145L44.3063 49.9678C44.5519 49.4767 45.1492 49.2776 45.6403 49.5232Z" fill="white"/>
<path fill-rule="evenodd" clip-rule="evenodd" d="M35.7655 32.9591C36.1086 33.388 36.0391 34.0137 35.6103 34.3567C27.6812 40.7 27.2212 50.5337 27.0614 53.9497C27.0513 54.1662 27.0424 54.3569 27.0329 54.5193C27.0007 55.0675 26.5301 55.4858 25.9819 55.4536C25.4337 55.4214 25.0154 54.9509 25.0476 54.4027C25.0567 54.2479 25.0651 54.0597 25.0747 53.8412C25.2249 50.4498 25.6991 39.7389 34.368 32.8039C34.7968 32.4608 35.4225 32.5303 35.7655 32.9591Z" fill="white"/>
<path fill-rule="evenodd" clip-rule="evenodd" d="M33.0489 55.4557H26.0459V53.457H33.0489V55.4557Z" fill="white"/>
<path fill-rule="evenodd" clip-rule="evenodd" d="M36.3667 32.663C36.8735 32.8746 37.1127 33.4569 36.9012 33.9636C34.2131 40.4011 33.2107 47.4177 33.9888 54.3503C34.05 54.896 33.6573 55.3881 33.1115 55.4493C32.5658 55.5106 32.0738 55.1178 32.0125 54.5721C31.1968 47.3035 32.2477 39.9469 35.0661 33.1974C35.2777 32.6906 35.86 32.4514 36.3667 32.663Z" fill="white"/>
</g>
<defs>
<clipPath id="clip0_16866_13047">
<rect width="31.8182" height="31.8182" fill="white" transform="translate(25.0459 23.6367)"/>
</clipPath>
</defs>
</svg>
