<svg width="32" height="32" viewBox="0 0 32 32" fill="none" xmlns="http://www.w3.org/2000/svg">
<ellipse opacity="0.3" cx="15.9714" cy="16" rx="15.9714" ry="16" fill="#F9AC12"/>
<ellipse cx="15.9714" cy="16" rx="12.1687" ry="12.1905" fill="#F9AC12"/>
<g clip-path="url(#clip0_2222:23715)">
<path d="M20.1543 10.6667H20.2494C20.4069 10.6667 20.5346 10.5388 20.5346 10.381V10.1905C20.5346 10.0327 20.4069 9.90479 20.2494 9.90479H11.6933C11.5358 9.90479 11.4081 10.0327 11.4081 10.1905V10.381C11.4081 10.5388 11.5358 10.6667 11.6933 10.6667H11.7884C11.7884 12.8529 12.8367 15.2776 14.8696 16C12.8301 16.7248 11.7884 19.1542 11.7884 21.3334H11.6933C11.5358 21.3334 11.4081 21.4613 11.4081 21.6191V21.8095C11.4081 21.9673 11.5358 22.0953 11.6933 22.0953H20.2494C20.4069 22.0953 20.5346 21.9673 20.5346 21.8095V21.6191C20.5346 21.4613 20.4069 21.3334 20.2494 21.3334H20.1543C20.1543 19.1471 19.106 16.7225 17.073 16C19.1126 15.2752 20.1543 12.8458 20.1543 10.6667ZM12.5489 10.6667H19.3938C19.3938 13.2966 17.8615 15.4286 15.9713 15.4286C14.0812 15.4286 12.5489 13.2966 12.5489 10.6667ZM19.3938 21.3334H12.5489C12.5489 18.7034 14.0812 16.5715 15.9713 16.5715C17.8615 16.5715 19.3938 18.7034 19.3938 21.3334ZM13.7463 19.8095H18.1965C18.2593 19.8095 18.3204 19.8303 18.3702 19.8686C18.4201 19.907 18.4559 19.9607 18.4722 20.0215C18.49 20.0881 18.5063 20.155 18.5211 20.2222C18.5607 20.4013 18.4261 20.5715 18.243 20.5715H13.6997C13.5166 20.5715 13.382 20.4013 13.4216 20.2222C13.4363 20.1555 13.4526 20.0885 13.4705 20.0215C13.4868 19.9607 13.5226 19.907 13.5725 19.8686C13.6223 19.8303 13.6834 19.8095 13.7463 19.8095ZM14.1256 18.5974C14.1766 18.5259 14.2303 18.4565 14.2866 18.3893C14.3413 18.3241 14.4214 18.2858 14.5064 18.2858H17.4363C17.5213 18.2858 17.6014 18.3241 17.6561 18.3893C17.7124 18.4565 17.7662 18.5259 17.8171 18.5974C17.9516 18.7857 17.815 19.0476 17.5839 19.0476H14.3588C14.1277 19.0476 13.9912 18.7857 14.1256 18.5974Z" fill="white"/>
</g>
<defs>
<clipPath id="clip0_2222:23715">
<rect width="9.12652" height="12.1905" fill="white" transform="translate(11.4081 9.90479)"/>
</clipPath>
</defs>
</svg>
