<svg width="24" height="24" viewBox="0 0 24 24" fill="none" xmlns="http://www.w3.org/2000/svg">
<circle cx="12" cy="12" r="12" transform="rotate(-180 12 12)" fill="#F0F2F6"/>
<path d="M9.93822 12.016L12.8589 14.9286C12.9546 15.024 13.1095 15.0238 13.205 14.9281C13.3005 14.8324 13.3002 14.6774 13.2045 14.5819L10.4577 11.8427L13.2046 9.10352C13.3003 9.00807 13.3006 8.85315 13.2051 8.75745C13.1572 8.70947 13.0945 8.68549 13.0318 8.68549C12.9692 8.68549 12.9067 8.70931 12.8589 8.75696L9.93822 11.6695C9.89213 11.7153 9.86627 11.7777 9.86627 11.8427C9.86627 11.9078 9.89221 11.9701 9.93822 12.016Z" fill="black" stroke="black" stroke-width="0.7"/>
</svg>
