<svg width="13" height="12" viewBox="0 0 13 12" fill="none" xmlns="http://www.w3.org/2000/svg">
<path d="M2.29102 3.5H10.3468" stroke="#FD4546" stroke-width="0.75" stroke-linecap="round" stroke-linejoin="round"/>
<path d="M5.3125 5.5V8.5" stroke="#FD4546" stroke-width="0.75" stroke-linecap="round" stroke-linejoin="round"/>
<path d="M7.32617 5.5V8.5" stroke="#FD4546" stroke-width="0.75" stroke-linecap="round" stroke-linejoin="round"/>
<path d="M2.79492 3.5L3.29841 9.5C3.29841 9.76522 3.4045 10.0196 3.59335 10.2071C3.78219 10.3946 4.03832 10.5 4.30539 10.5H8.33331C8.60037 10.5 8.8565 10.3946 9.04535 10.2071C9.23419 10.0196 9.34029 9.76522 9.34029 9.5L9.84378 3.5" stroke="#FD4546" stroke-width="0.75" stroke-linecap="round" stroke-linejoin="round"/>
<path d="M4.80859 3.5V2C4.80859 1.86739 4.86164 1.74021 4.95606 1.64645C5.05049 1.55268 5.17855 1.5 5.31208 1.5H7.32604C7.45957 1.5 7.58764 1.55268 7.68206 1.64645C7.77648 1.74021 7.82953 1.86739 7.82953 2V3.5" stroke="#FD4546" stroke-width="0.75" stroke-linecap="round" stroke-linejoin="round"/>
</svg>
