<svg width="96" height="96" viewBox="0 0 96 96" fill="none" xmlns="http://www.w3.org/2000/svg">
<g filter="url(#filter0_d_6517_8108)">
<circle cx="48" cy="46" r="32" fill="white"/>
</g>
<path d="M33.7944 49.0521L33.7944 49.0521C33.1969 49.9386 32.85 51.0036 32.85 52.15V54.25C32.85 55.575 33.925 56.65 35.25 56.65H48.75C50.075 56.65 51.15 55.575 51.15 54.25V52.15C51.15 51.0036 50.8031 49.9386 50.2056 49.0521L50.2056 49.0521C49.2038 47.5663 47.4993 46.7875 45.7547 46.7875C44.979 46.7875 44.4814 46.9229 43.9813 47.0589C43.9629 47.0639 43.9444 47.069 43.9259 47.074C43.4134 47.2132 42.8808 47.35 42 47.35C41.1192 47.35 40.5866 47.2132 40.0741 47.074C40.0556 47.069 40.0371 47.0639 40.0187 47.0589C39.5186 46.9229 39.021 46.7875 38.2453 46.7875C36.5007 46.7875 34.7962 47.5663 33.7944 49.0521ZM49.3453 54.25V54.3248C49.3081 54.6196 49.0543 54.85 48.75 54.85H35.25C34.9203 54.85 34.65 54.5797 34.65 54.25V52.15C34.65 51.4015 34.8709 50.676 35.2855 50.0586C35.9013 49.1439 37.0049 48.5875 38.2406 48.5875C38.7898 48.5875 39.1787 48.6932 39.6322 48.8164C39.6894 48.8319 39.7477 48.8478 39.8074 48.8637C40.343 49.0065 40.9753 49.15 42 49.15C43.0247 49.15 43.657 49.0065 44.192 48.8637C44.2522 48.8476 44.3109 48.8316 44.3685 48.816C44.8207 48.6929 45.2082 48.5875 45.7547 48.5875C46.9904 48.5875 48.094 49.1439 48.7098 50.0586C49.1244 50.676 49.3453 51.4015 49.3453 52.15V54.25ZM62.3604 48.7803L62.3602 48.7801C61.5178 47.5335 60.09 46.8813 58.6312 46.8813C57.9824 46.8813 57.5646 46.9947 57.1471 47.1081C57.1315 47.1124 57.1159 47.1166 57.1002 47.1208C56.6732 47.2366 56.2308 47.35 55.5 47.35C54.7692 47.35 54.3268 47.2366 53.8998 47.1208C53.8841 47.1166 53.8685 47.1124 53.8529 47.1081C53.4354 46.9947 53.0176 46.8813 52.3688 46.8813C51.7272 46.8813 51.1026 47.027 50.5241 47.2729L50.321 47.3592L50.4761 47.5163C50.8267 47.8716 51.0374 48.141 51.1692 48.3363C51.2684 48.4831 51.3214 48.5846 51.3611 48.6607C51.375 48.6872 51.3872 48.7106 51.3992 48.7318L51.4571 48.834L51.5702 48.8022C51.8269 48.7302 52.0897 48.6859 52.3688 48.6859C52.7919 48.6859 53.0963 48.7692 53.4622 48.8692C53.5172 48.8842 53.5736 48.8997 53.6321 48.9152C54.0804 49.0348 54.6211 49.1547 55.5 49.1547C56.3789 49.1547 56.9196 49.0348 57.3679 48.9152C57.4264 48.8997 57.4828 48.8842 57.5378 48.8692C57.9037 48.7692 58.2081 48.6859 58.6312 48.6859C59.5724 48.6859 60.4039 49.1023 60.8694 49.7917L60.8695 49.7918C61.1854 50.2591 61.3547 50.8111 61.3547 51.3812V53.125C61.3547 53.2484 61.2531 53.35 61.1297 53.35H52.5H52.35V53.5C52.35 53.6084 52.3502 53.7063 52.3504 53.7954C52.3518 54.3939 52.3523 54.5988 52.2779 54.9706L52.242 55.15H52.425H61.125C62.2438 55.15 63.15 54.2438 63.15 53.125V51.3766C63.15 50.4131 62.8594 49.5215 62.3604 48.7803ZM55.5 46.15C58.0672 46.15 60.15 44.0672 60.15 41.5C60.15 38.9328 58.0672 36.85 55.5 36.85C52.9328 36.85 50.85 38.9328 50.85 41.5C50.85 44.0672 52.9328 46.15 55.5 46.15ZM55.5 38.65C57.0718 38.65 58.35 39.9282 58.35 41.5C58.35 43.0718 57.0718 44.35 55.5 44.35C53.9282 44.35 52.65 43.0718 52.65 41.5C52.65 39.9282 53.9282 38.65 55.5 38.65ZM42 46.15C44.9844 46.15 47.4 43.7344 47.4 40.75C47.4 37.7656 44.9844 35.35 42 35.35C39.0156 35.35 36.6 37.7656 36.6 40.75C36.6 43.7344 39.0156 46.15 42 46.15ZM42 37.15C43.9843 37.15 45.6 38.7657 45.6 40.75C45.6 42.7343 43.9843 44.35 42 44.35C40.0157 44.35 38.4 42.7343 38.4 40.75C38.4 38.7657 40.0157 37.15 42 37.15Z" fill="#FFA100" stroke="#FFA100" stroke-width="0.3"/>
<defs>
<filter id="filter0_d_6517_8108" x="0" y="0" width="96" height="96" filterUnits="userSpaceOnUse" color-interpolation-filters="sRGB">
<feFlood flood-opacity="0" result="BackgroundImageFix"/>
<feColorMatrix in="SourceAlpha" type="matrix" values="0 0 0 0 0 0 0 0 0 0 0 0 0 0 0 0 0 0 127 0" result="hardAlpha"/>
<feOffset dy="2"/>
<feGaussianBlur stdDeviation="8"/>
<feComposite in2="hardAlpha" operator="out"/>
<feColorMatrix type="matrix" values="0 0 0 0 0 0 0 0 0 0 0 0 0 0 0 0 0 0 0.1 0"/>
<feBlend mode="normal" in2="BackgroundImageFix" result="effect1_dropShadow_6517_8108"/>
<feBlend mode="normal" in="SourceGraphic" in2="effect1_dropShadow_6517_8108" result="shape"/>
</filter>
</defs>
</svg>
