<svg width="35" height="34" viewBox="0 0 35 34" fill="none" xmlns="http://www.w3.org/2000/svg">
<g filter="url(#filter0_d)">
<ellipse cx="17.0837" cy="17" rx="12.0837" ry="12" fill="white"/>
</g>
<path d="M14.9641 12.606H14.8569C14.9159 12.606 14.9641 12.5578 14.9641 12.4988V12.606H19.0355V12.4988C19.0355 12.5578 19.0837 12.606 19.1426 12.606H19.0355V13.5703H19.9998V12.4988C19.9998 12.0261 19.6154 11.6417 19.1426 11.6417H14.8569C14.3842 11.6417 13.9998 12.0261 13.9998 12.4988V13.5703H14.9641V12.606ZM21.7141 13.5703H12.2855C12.0485 13.5703 11.8569 13.7618 11.8569 13.9988V14.4274C11.8569 14.4863 11.9051 14.5346 11.9641 14.5346H12.773L13.1038 21.539C13.1252 21.9957 13.5029 22.356 13.9596 22.356H20.04C20.498 22.356 20.8743 21.9971 20.8958 21.539L21.2266 14.5346H22.0355C22.0944 14.5346 22.1426 14.4863 22.1426 14.4274V13.9988C22.1426 13.7618 21.9511 13.5703 21.7141 13.5703ZM19.9368 21.3917H14.0627L13.7386 14.5346H20.261L19.9368 21.3917Z" fill="#FD4546"/>
<defs>
<filter id="filter0_d" x="0" y="0" width="34.1675" height="34" filterUnits="userSpaceOnUse" color-interpolation-filters="sRGB">
<feFlood flood-opacity="0" result="BackgroundImageFix"/>
<feColorMatrix in="SourceAlpha" type="matrix" values="0 0 0 0 0 0 0 0 0 0 0 0 0 0 0 0 0 0 127 0" result="hardAlpha"/>
<feOffset/>
<feGaussianBlur stdDeviation="2.5"/>
<feColorMatrix type="matrix" values="0 0 0 0 0 0 0 0 0 0 0 0 0 0 0 0 0 0 0.23 0"/>
<feBlend mode="normal" in2="BackgroundImageFix" result="effect1_dropShadow"/>
<feBlend mode="normal" in="SourceGraphic" in2="effect1_dropShadow" result="shape"/>
</filter>
</defs>
</svg>
