<svg width="28" height="28" viewBox="0 0 28 28" fill="none" xmlns="http://www.w3.org/2000/svg">
<path d="M26.3334 13.9993C26.3334 20.8109 20.8115 26.3327 14 26.3327C7.18851 26.3327 1.66669 20.8109 1.66669 13.9993C1.66669 7.18784 7.18851 1.66602 14 1.66602C20.8115 1.66602 26.3334 7.18784 26.3334 13.9993Z" fill="white" stroke="#DDDDDD"/>
<path d="M8.62247 8.71227H8.85032C9.0014 8.71227 9.12378 8.83465 9.12378 8.98562V11.1419C10.1081 9.46524 11.9319 8.34115 14.0182 8.34768C17.1259 8.35737 19.656 10.8999 19.6512 14.0077C19.6463 17.1245 17.118 19.6498 14.0001 19.6498C12.5434 19.6498 11.2155 19.0986 10.2134 18.1935C10.097 18.0883 10.0915 17.9072 10.2025 17.7963L10.3636 17.6352C10.4661 17.5325 10.6313 17.5277 10.7391 17.6248C11.6026 18.4019 12.7453 18.875 14.0001 18.875C16.6831 18.875 18.8764 16.7028 18.8764 13.9987C18.8764 11.3157 16.7042 9.12235 14.0001 9.12235C12.112 9.12235 10.4742 10.1951 9.66406 11.7656H11.9037C12.0548 11.7656 12.1772 11.8881 12.1772 12.039V12.2669C12.1772 12.418 12.0548 12.5403 11.9037 12.5403H8.62247C8.4715 12.5403 8.349 12.418 8.349 12.2669V8.98562C8.349 8.83465 8.4715 8.71227 8.62247 8.71227ZM15.9517 15.8953L16.0589 15.7479C16.1477 15.6257 16.1207 15.4548 15.9986 15.3659L14.3647 14.1776V10.8085C14.3647 10.6576 14.2423 10.5352 14.0912 10.5352H13.909C13.7579 10.5352 13.6355 10.6576 13.6355 10.8085V14.5489L15.5697 15.9556C15.6919 16.0444 15.8629 16.0175 15.9517 15.8953Z" fill="#2C6DF9"/>
</svg>
