<svg width="35" height="34" viewBox="0 0 35 34" fill="none" xmlns="http://www.w3.org/2000/svg">
<g filter="url(#filter0_d_7095_7196)">
<ellipse cx="17.0837" cy="17" rx="12.0837" ry="12" fill="white"/>
</g>
<g clip-path="url(#clip0_7095_7196)">
<path d="M21.1678 13.2964L19.2018 11.3304C18.9909 11.1195 18.705 11 18.4074 11H13.6248C13.0038 11.0023 12.5 11.5062 12.5 12.1271V21.8752C12.5 22.4962 13.0038 23 13.6248 23H20.3735C20.9944 23 21.4982 22.4962 21.4982 21.8752V14.0931C21.4982 13.7955 21.3787 13.5073 21.1678 13.2964ZM20.6383 13.8284C20.6875 13.8776 20.7203 13.9361 20.7367 14.0018H18.4988V11.7639C18.5644 11.7803 18.623 11.8131 18.6722 11.8623L20.6383 13.8284ZM20.3735 22.2501H13.6248C13.4186 22.2501 13.2499 22.0814 13.2499 21.8752V12.1271C13.2499 11.9209 13.4186 11.7522 13.6248 11.7522H17.749V14.1892C17.749 14.5009 17.9997 14.7516 18.3114 14.7516H20.7484V21.8752C20.7484 22.0814 20.5797 22.2501 20.3735 22.2501ZM19.2487 16.5325V16.72C19.2487 16.8746 19.1221 17.0012 18.9675 17.0012H15.0308C14.8761 17.0012 14.7496 16.8746 14.7496 16.72V16.5325C14.7496 16.3779 14.8761 16.2513 15.0308 16.2513H18.9675C19.1221 16.2513 19.2487 16.3779 19.2487 16.5325ZM19.2487 18.0322V18.2197C19.2487 18.3743 19.1221 18.5009 18.9675 18.5009H15.0308C14.8761 18.5009 14.7496 18.3743 14.7496 18.2197V18.0322C14.7496 17.8776 14.8761 17.751 15.0308 17.751H18.9675C19.1221 17.751 19.2487 17.8776 19.2487 18.0322ZM19.2487 19.5319V19.7194C19.2487 19.874 19.1221 20.0006 18.9675 20.0006H15.0308C14.8761 20.0006 14.7496 19.874 14.7496 19.7194V19.5319C14.7496 19.3773 14.8761 19.2507 15.0308 19.2507H18.9675C19.1221 19.2507 19.2487 19.3773 19.2487 19.5319Z" fill="#2C6DF9"/>
</g>
<defs>
<filter id="filter0_d_7095_7196" x="0" y="0" width="34.1675" height="34" filterUnits="userSpaceOnUse" color-interpolation-filters="sRGB">
<feFlood flood-opacity="0" result="BackgroundImageFix"/>
<feColorMatrix in="SourceAlpha" type="matrix" values="0 0 0 0 0 0 0 0 0 0 0 0 0 0 0 0 0 0 127 0" result="hardAlpha"/>
<feOffset/>
<feGaussianBlur stdDeviation="2.5"/>
<feColorMatrix type="matrix" values="0 0 0 0 0 0 0 0 0 0 0 0 0 0 0 0 0 0 0.23 0"/>
<feBlend mode="normal" in2="BackgroundImageFix" result="effect1_dropShadow_7095_7196"/>
<feBlend mode="normal" in="SourceGraphic" in2="effect1_dropShadow_7095_7196" result="shape"/>
</filter>
<clipPath id="clip0_7095_7196">
<rect width="12.0837" height="12" fill="white" transform="translate(11 11)"/>
</clipPath>
</defs>
</svg>
