<svg width="20" height="20" viewBox="0 0 20 20" fill="none" xmlns="http://www.w3.org/2000/svg">
<path d="M10 0C12.6522 0 15.1957 1.05357 17.0711 2.92893C18.9464 4.8043 20 7.34784 20 10C20 12.6522 18.9464 15.1957 17.0711 17.0711C15.1957 18.9464 12.6522 20 10 20C7.34784 20 4.8043 18.9464 2.92893 17.0711C1.05357 15.1957 0 12.6522 0 10C0 7.34784 1.05357 4.8043 2.92893 2.92893C4.8043 1.05357 7.34784 0 10 0ZM10 4.28571C9.81863 4.28556 9.63922 4.32323 9.47323 4.39633C9.30724 4.46943 9.15832 4.57634 9.03598 4.71024C8.91364 4.84414 8.82058 5.00208 8.76273 5.17398C8.70487 5.34588 8.68351 5.52795 8.7 5.70857L9.22143 11.4314C9.24164 11.6238 9.33239 11.8019 9.47616 11.9314C9.61993 12.0608 9.80654 12.1325 10 12.1325C10.1935 12.1325 10.3801 12.0608 10.5238 11.9314C10.6676 11.8019 10.7584 11.6238 10.7786 11.4314L11.2986 5.70857C11.315 5.52807 11.2937 5.34612 11.236 5.17432C11.1782 5.00252 11.0853 4.84464 10.9631 4.71077C10.8409 4.57689 10.6921 4.46995 10.5263 4.39676C10.3605 4.32358 10.1813 4.28576 10 4.28571ZM10 15.7143C10.3031 15.7143 10.5938 15.5939 10.8081 15.3796C11.0224 15.1652 11.1429 14.8745 11.1429 14.5714C11.1429 14.2683 11.0224 13.9776 10.8081 13.7633C10.5938 13.549 10.3031 13.4286 10 13.4286C9.6969 13.4286 9.40621 13.549 9.19188 13.7633C8.97755 13.9776 8.85714 14.2683 8.85714 14.5714C8.85714 14.8745 8.97755 15.1652 9.19188 15.3796C9.40621 15.5939 9.6969 15.7143 10 15.7143Z" fill="#FAC864"/>
</svg>
