<svg width="60" height="60" viewBox="0 0 60 60" fill="none" xmlns="http://www.w3.org/2000/svg">
<circle opacity="0.25" cx="30" cy="30" r="30" fill="#D3E1FE"/>
<circle cx="30" cy="30" r="20" fill="#D2E0FB"/>
<path d="M41 33.2119C41 30.606 39.505 28.2803 37.266 27.149C37.1964 32.1455 33.1455 36.1964 28.149 36.266C29.2803 38.505 31.606 40 34.2119 40C35.4337 40 36.6219 39.6746 37.6659 39.0563L40.9704 39.9704L40.0563 36.6659C40.6746 35.6219 41 34.4337 41 33.2119V33.2119Z" fill="#2C6DF9"/>
<path d="M36.0371 27.0186C36.0371 22.597 32.4401 19 28.0186 19C23.597 19 20 22.597 20 27.0186C20 28.4595 20.3836 29.8626 21.1119 31.0943L20.0295 35.0075L23.9428 33.9252C25.1745 34.6535 26.5776 35.0371 28.0186 35.0371C32.4401 35.0371 36.0371 31.4401 36.0371 27.0186ZM26.7881 25.1523H25.5576C25.5576 23.7953 26.6615 22.6914 28.0186 22.6914C29.3756 22.6914 30.4795 23.7953 30.4795 25.1523C30.4795 25.8411 30.1879 26.5031 29.6792 26.9684L28.6338 27.9252V28.8848H27.4033V27.3834L28.8485 26.0606C29.1068 25.8243 29.249 25.5018 29.249 25.1523C29.249 24.4738 28.6971 23.9219 28.0186 23.9219C27.34 23.9219 26.7881 24.4738 26.7881 25.1523ZM27.4033 30.1152H28.6338V31.3457H27.4033V30.1152Z" fill="#2C6DF9"/>
</svg>
