<svg width="34" height="34" viewBox="0 0 34 34" fill="none" xmlns="http://www.w3.org/2000/svg">
<g filter="url(#filter0_d_5093_8960)">
<circle cx="17" cy="17" r="12" fill="white"/>
</g>
<g clip-path="url(#clip0_5093_8960)">
<path d="M21.1695 13.2937L19.2031 11.3273C18.9922 11.1164 18.7063 10.9968 18.4086 10.9968H13.625C13.0039 10.9992 12.5 11.5031 12.5 12.1242V21.8742C12.5 22.4953 13.0039 22.9992 13.625 22.9992H20.375C20.9961 22.9992 21.5 22.4953 21.5 21.8742V14.0906C21.5 13.7929 21.3805 13.5046 21.1695 13.2937ZM20.6398 13.8257C20.6891 13.875 20.7219 13.9335 20.7383 13.9992H18.5V11.7609C18.5656 11.7773 18.6242 11.8101 18.6734 11.8593L20.6398 13.8257ZM20.375 22.2492H13.625C13.4187 22.2492 13.25 22.0804 13.25 21.8742V12.1242C13.25 11.9179 13.4187 11.7492 13.625 11.7492H17.75V14.1867C17.75 14.4984 18.0008 14.7492 18.3125 14.7492H20.75V21.8742C20.75 22.0804 20.5813 22.2492 20.375 22.2492ZM19.8594 18.2367C19.543 17.925 18.5703 18.021 18.132 18.0796C17.6352 17.7796 17.307 17.3671 17.075 16.7531C17.1758 16.3312 17.3563 15.6468 17.225 15.232C17.1219 14.5734 16.2945 14.6531 16.1797 15.0726C16.0625 15.5015 16.1727 16.1132 16.3766 16.896C16.0977 17.5617 15.6805 18.464 15.3898 18.9726C14.9023 19.2234 14.1219 19.6593 14.0117 20.2007C13.9297 20.5945 14.5484 21.1242 15.2562 20.3507C15.4695 20.1187 15.7086 19.7695 15.9898 19.2843C16.6156 19.0781 17.3047 18.8203 17.9117 18.7218C18.425 19.0031 19.0273 19.1882 19.4258 19.1882C20.075 19.1906 20.1031 18.4804 19.8594 18.2367ZM14.4875 20.3226C14.6258 19.95 15.1578 19.5164 15.3195 19.3664C14.8016 20.1937 14.4875 20.339 14.4875 20.3226ZM16.7188 15.1125C16.9227 15.1125 16.9016 15.9914 16.768 16.2281C16.6461 15.846 16.6508 15.1125 16.7188 15.1125ZM16.0531 18.846C16.318 18.382 16.5453 17.8335 16.7281 17.3531C16.9555 17.7679 17.2461 18.096 17.5508 18.3257C16.9812 18.4359 16.4867 18.6796 16.0531 18.846ZM19.6484 18.7078C19.6484 18.7078 19.5125 18.8718 18.6289 18.4945C19.5898 18.4242 19.7469 18.6445 19.6484 18.7078Z" fill="#FFA100"/>
</g>
<defs>
<filter id="filter0_d_5093_8960" x="0" y="0" width="34" height="34" filterUnits="userSpaceOnUse" color-interpolation-filters="sRGB">
<feFlood flood-opacity="0" result="BackgroundImageFix"/>
<feColorMatrix in="SourceAlpha" type="matrix" values="0 0 0 0 0 0 0 0 0 0 0 0 0 0 0 0 0 0 127 0" result="hardAlpha"/>
<feOffset/>
<feGaussianBlur stdDeviation="2.5"/>
<feColorMatrix type="matrix" values="0 0 0 0 0 0 0 0 0 0 0 0 0 0 0 0 0 0 0.23 0"/>
<feBlend mode="normal" in2="BackgroundImageFix" result="effect1_dropShadow_5093_8960"/>
<feBlend mode="normal" in="SourceGraphic" in2="effect1_dropShadow_5093_8960" result="shape"/>
</filter>
<clipPath id="clip0_5093_8960">
<rect width="9" height="12" fill="white" transform="translate(12.5 11)"/>
</clipPath>
</defs>
</svg>
