<svg xmlns="http://www.w3.org/2000/svg" width="102.972" height="99.972" viewBox="0 0 102.972 99.972">
    <defs>
        <linearGradient id="linear-gradient" x1=".5" x2=".5" y2="1" gradientUnits="objectBoundingBox">
            <stop offset="0" stop-color="#ecf2ff"/>
            <stop offset="1" stop-color="#fff"/>
        </linearGradient>
        <linearGradient id="linear-gradient-2" x1=".5" x2=".5" y2="1" gradientUnits="objectBoundingBox">
            <stop offset="0" stop-color="#e9f0ff"/>
            <stop offset=".519" stop-color="#d5e4ff"/>
            <stop offset="1" stop-color="#fff"/>
        </linearGradient>
        <linearGradient id="linear-gradient-3" x1=".5" x2=".5" y2="1" gradientUnits="objectBoundingBox">
            <stop offset="0" stop-color="#c9ddff"/>
            <stop offset="1" stop-color="#fff"/>
        </linearGradient>
        <linearGradient id="linear-gradient-4" x2="1" y1=".5" y2=".5" gradientUnits="objectBoundingBox">
            <stop offset="0" stop-color="#c2d8ff"/>
            <stop offset="1" stop-color="#fff"/>
        </linearGradient>
        <linearGradient id="linear-gradient-7" x1=".785" x2=".19" y1=".851" y2=".085" gradientUnits="objectBoundingBox">
            <stop offset="0" stop-color="#13a951"/>
            <stop offset="1" stop-color="#32c46e"/>
        </linearGradient>
        <filter id="Ellipse_10" width="52.972" height="52.972" x="50" y="47" filterUnits="userSpaceOnUse">
            <feOffset dx="3" dy="3"/>
            <feGaussianBlur result="blur" stdDeviation="4"/>
            <feFlood flood-color="#076e00" flood-opacity=".251"/>
            <feComposite in2="blur" operator="in"/>
            <feComposite in="SourceGraphic"/>
        </filter>
        <style>
            .cls-6{fill:url(#linear-gradient-4)}
        </style>
    </defs>
    <g id="Group_1428" transform="translate(-708.5 -397.5)">
        <path id="Path_48" fill="url(#linear-gradient)" d="M-9371.354 7853.818c-9.217-.271-50.42 5.693-53.673 42.56s40.933 42.017 59.366 38.493 71.564-34.969 23.583-52.588c-.271-.543-11.113-.271-10.03-12.2s-10.029-15.994-19.246-16.265z" transform="translate(10133.696 -7456.309)"/>
        <g id="Froppy_disk" transform="translate(735.142 425.142)">
            <path id="Path_55" fill="url(#linear-gradient-2)" d="M34.216 3v11.536a1.357 1.357 0 0 1-1.357 1.357H12.5a1.357 1.357 0 0 1-1.357-1.357V3H5.714A2.714 2.714 0 0 0 3 5.714v33.93a2.714 2.714 0 0 0 2.714 2.714h1.358V24.715A2.714 2.714 0 0 1 9.786 22h25.787a2.714 2.714 0 0 1 2.714 2.714v17.645h1.357a2.714 2.714 0 0 0 2.714-2.714V8.429L36.93 3z" transform="translate(-.321 -.321)"/>
            <path id="Path_56" fill="#e9f0ff" d="M39 7h4.072v7.465H39z" transform="translate(-11.892 -1.607)"/>
            <g id="Group_125" transform="translate(2 2)">
                <path id="Path_57" fill="url(#linear-gradient-3)" d="M42.517 7.628L37.089 2.2a.679.679 0 0 0-.48-.2H5.393A3.4 3.4 0 0 0 2 5.393v33.93a3.4 3.4 0 0 0 3.393 3.393h33.93a3.4 3.4 0 0 0 3.393-3.393V8.107a.679.679 0 0 0-.2-.48zm-9.3-4.27v10.857a.679.679 0 0 1-.679.679H12.179a.679.679 0 0 1-.679-.679V3.357zm-25.787 38V24.394a2.036 2.036 0 0 1 2.036-2.036h25.786a2.036 2.036 0 0 1 2.036 2.036v16.965zm33.93-2.036a2.036 2.036 0 0 1-2.036 2.036h-.679V24.394A3.4 3.4 0 0 0 35.252 21H9.465a3.4 3.4 0 0 0-3.393 3.393v16.966h-.679a2.036 2.036 0 0 1-2.036-2.036V5.393a2.036 2.036 0 0 1 2.036-2.036h4.75v10.858a2.036 2.036 0 0 0 2.036 2.036h20.358a2.036 2.036 0 0 0 2.036-2.036V3.357h1.755l5.031 5.031z" transform="translate(-2 -2)"/>
                <path id="Path_58" fill="#caddff" d="M38.679 14.822h4.071a.679.679 0 0 0 .679-.679V6.679A.679.679 0 0 0 42.75 6h-4.071a.679.679 0 0 0-.679.679v7.465a.679.679 0 0 0 .679.678zm.679-7.465h2.714v6.107h-2.715z" transform="translate(-13.57 -3.286)"/>
                <path id="Path_59" d="M37.037 45H16.679a.679.679 0 1 0 0 1.357h20.358a.679.679 0 0 0 0-1.357z" class="cls-6" transform="translate(-6.5 -15.82)"/>
                <path id="Path_60" d="M37.037 39H16.679a.679.679 0 1 0 0 1.357h20.358a.679.679 0 0 0 0-1.357z" class="cls-6" transform="translate(-6.5 -13.892)"/>
                <path id="Path_61" d="M37.037 51H16.679a.679.679 0 1 0 0 1.357h20.358a.679.679 0 0 0 0-1.357z" class="cls-6" transform="translate(-6.5 -17.748)"/>
            </g>
        </g>
        <g id="Group_92" transform="translate(18 31)">
            <g filter="url(#Ellipse_10)" transform="translate(690.5 366.5)">
                <circle id="Ellipse_10-2" cx="14.486" cy="14.486" r="14.486" fill="url(#linear-gradient-7)" transform="translate(59 56)"/>
            </g>
            <path id="Icon_ionic-ios-checkmark" fill="#fff" d="M21.859 13.236l-.939-.965a.2.2 0 0 0-.149-.064.194.194 0 0 0-.149.064l-6.507 6.555-2.368-2.368a.206.206 0 0 0-.3 0l-.949.949a.213.213 0 0 0 0 .3l2.987 2.993a.945.945 0 0 0 .624.3.99.99 0 0 0 .619-.293h.005l7.131-7.169a.228.228 0 0 0-.005-.302z" transform="translate(748.065 420.294)"/>
        </g>
    </g>
</svg>
