<svg xmlns="http://www.w3.org/2000/svg" width="9.047" height="11.134" viewBox="0 0 9.047 11.134">
    <defs>
        <style>
            .cls-1{fill:#161c29}
        </style>
    </defs>
    <g id="delete" transform="translate(-48)">
        <path id="Path_5" d="M56.177 1.392h-1.914v-.348A1.045 1.045 0 0 0 53.219 0h-1.392a1.045 1.045 0 0 0-1.044 1.044v.348H48.87a.871.871 0 0 0-.87.87v1.217a.348.348 0 0 0 .348.348h.19l.3 6.313a1.043 1.043 0 0 0 1.043.994h5.284a1.043 1.043 0 0 0 1.043-.994l.3-6.313h.19a.348.348 0 0 0 .348-.348V2.262a.871.871 0 0 0-.869-.87zm-4.7-.348a.348.348 0 0 1 .35-.344h1.392a.348.348 0 0 1 .348.348v.348h-2.088zM48.7 2.262a.174.174 0 0 1 .174-.174h7.307a.174.174 0 0 1 .174.174v.87H48.7zm6.817 7.845a.348.348 0 0 1-.348.331h-5.288a.348.348 0 0 1-.348-.331l-.3-6.28h6.577z" class="cls-1"/>
        <path id="Path_6" d="M240.348 213.219a.348.348 0 0 0 .348-.348v-4.523a.348.348 0 1 0-.7 0v4.523a.348.348 0 0 0 .352.348z" class="cls-1" transform="translate(-187.825 -203.477)"/>
        <path id="Path_7" d="M320.348 213.219a.348.348 0 0 0 .348-.348v-4.523a.348.348 0 1 0-.7 0v4.523a.348.348 0 0 0 .352.348z" class="cls-1" transform="translate(-266.085 -203.477)"/>
        <path id="Path_8" d="M160.348 213.219a.348.348 0 0 0 .348-.348v-4.523a.348.348 0 1 0-.7 0v4.523a.348.348 0 0 0 .352.348z" class="cls-1" transform="translate(-109.564 -203.477)"/>
    </g>
</svg>
