<?xml version="1.0" encoding="utf-8"?>
<!-- Generator: Adobe Illustrator 23.0.4, SVG Export Plug-In . SVG Version: 6.00 Build 0)  -->
<svg version="1.1" id="Layer_1" xmlns="http://www.w3.org/2000/svg" xmlns:xlink="http://www.w3.org/1999/xlink" x="0px" y="0px"
	 viewBox="0 0 30 30" style="enable-background:new 0 0 30 30;" xml:space="preserve">
<style type="text/css">
	.st0{enable-background:new    ;}
	.st1{fill:#FFFFFF;}
</style>
<g class="st0">
	<path class="st1" d="M21.3,9.4c0.3,0.3,0.5,0.7,0.5,1.2v11.7c0,0.5-0.2,0.9-0.5,1.2S20.5,24,20.1,24H9.9c-0.5,0-0.9-0.2-1.2-0.5
		s-0.5-0.7-0.5-1.2V7.7c0-0.5,0.2-0.9,0.5-1.2S9.5,6,9.9,6h7.2c0.5,0,0.9,0.2,1.2,0.5L21.3,9.4z M20.1,22.8c0.2,0,0.3,0,0.4-0.2
		s0.2-0.2,0.2-0.4V11.6H17c-0.2,0-0.4-0.1-0.6-0.2s-0.2-0.4-0.2-0.6V7.1H9.9c-0.2,0-0.3,0-0.4,0.2S9.4,7.5,9.4,7.7v14.6
		c0,0.2,0,0.3,0.2,0.4s0.2,0.2,0.4,0.2L20.1,22.8L20.1,22.8z M20.5,10.2l-3-3c-0.1-0.1-0.2-0.1-0.2-0.2v3.4h3.4
		C20.6,10.4,20.5,10.3,20.5,10.2z"/>
</g>
</svg>
