<?xml version="1.0" encoding="utf-8"?>
<!-- Generator: Adobe Illustrator 23.0.4, SVG Export Plug-In . SVG Version: 6.00 Build 0)  -->
<svg version="1.1" id="Layer_1" xmlns="http://www.w3.org/2000/svg" xmlns:xlink="http://www.w3.org/1999/xlink" x="0px" y="0px"
	 viewBox="0 0 100 100" style="enable-background:new 0 0 100 100;" xml:space="preserve">
<style type="text/css">
	.st0{enable-background:new    ;}
</style>
<g class="st0">
	<path d="M56.26,44.42c0.33,0.33,0.49,0.73,0.49,1.2v11.67c0,0.47-0.16,0.87-0.49,1.2s-0.73,0.49-1.2,0.49H44.94
		c-0.47,0-0.87-0.16-1.2-0.49c-0.33-0.33-0.49-0.73-0.49-1.2V42.66c0-0.47,0.16-0.87,0.49-1.2c0.33-0.33,0.73-0.49,1.2-0.49h7.17
		c0.47,0,0.87,0.16,1.2,0.49L56.26,44.42z M55.06,57.85c0.16,0,0.3-0.05,0.4-0.16s0.16-0.24,0.16-0.4V46.6h-3.66
		c-0.23,0-0.43-0.08-0.6-0.25s-0.25-0.36-0.25-0.6V42.1h-6.19c-0.16,0-0.3,0.05-0.4,0.16s-0.16,0.24-0.16,0.4v14.62
		c0,0.16,0.05,0.3,0.16,0.4s0.24,0.16,0.4,0.16H55.06z M55.45,45.23l-2.95-2.95c-0.07-0.07-0.15-0.13-0.25-0.18v3.38h3.38
		C55.58,45.38,55.52,45.3,55.45,45.23z"/>
</g>
</svg>
