<?xml version="1.0" encoding="utf-8"?>
<!-- Generator: Adobe Illustrator 23.0.4, SVG Export Plug-In . SVG Version: 6.00 Build 0)  -->
<svg version="1.1" id="Layer_1" xmlns="http://www.w3.org/2000/svg" xmlns:xlink="http://www.w3.org/1999/xlink" x="0px" y="0px"
	 viewBox="0 0 30 30" style="enable-background:new 0 0 30 30;" xml:space="preserve">
<style type="text/css">
	.st0{enable-background:new    ;}
	.st1{fill:#FFFFFF;}
</style>
<g class="st0">
	<path class="st1" d="M23,16.5c0.4,0.2,0.5,0.6,0.4,1c-0.4,1.3-1.1,2.5-2,3.5c-0.3,0.3-0.6,0.4-1,0.2l-1.2-0.7
		c-0.5,0.3-0.9,0.6-1.5,0.8v1.3c0,0.5-0.2,0.7-0.7,0.8c-1.3,0.3-2.7,0.3-4,0c-0.5-0.1-0.7-0.4-0.7-0.8v-1.3c-0.5-0.2-1-0.5-1.5-0.8
		l-1.2,0.7c-0.4,0.2-0.7,0.2-1-0.2c-1-1-1.6-2.2-2-3.5c-0.1-0.4,0-0.8,0.4-1l1.2-0.7c0-0.3-0.1-0.6-0.1-0.8s0-0.6,0.1-0.8L7,13.5
		c-0.4-0.2-0.5-0.6-0.4-1C7,11.2,7.7,10,8.7,9c0.3-0.3,0.6-0.4,1-0.2l1.2,0.7c0.4-0.3,0.9-0.6,1.5-0.8V7.3c0-0.5,0.2-0.7,0.7-0.8
		c1.3-0.3,2.7-0.3,4,0c0.5,0.1,0.7,0.4,0.7,0.8v1.3c0.5,0.2,1,0.5,1.5,0.8l1.2-0.7c0.4-0.2,0.7-0.2,1,0.2c1,1,1.6,2.2,2,3.5
		c0.1,0.4,0,0.8-0.4,1l-1.2,0.7c0,0.3,0.1,0.6,0.1,0.8s0,0.6-0.1,0.8L23,16.5z M20.7,20c0.7-0.8,1.2-1.7,1.5-2.7l-1.6-1
		c0.1-0.6,0.2-1.1,0.2-1.4s-0.1-0.8-0.2-1.4l1.6-1c-0.3-1-0.8-1.9-1.5-2.7l-1.6,1c-0.5-0.4-0.9-0.7-1.2-0.9s-0.7-0.3-1.3-0.6V7.5
		c-0.5-0.1-1-0.1-1.5-0.1s-1,0-1.5,0.1v1.9c-0.6,0.2-1,0.4-1.3,0.6s-0.7,0.5-1.2,0.9l-1.6-1c-0.7,0.8-1.2,1.7-1.5,2.7l1.6,1
		c-0.1,0.6-0.2,1.1-0.2,1.4s0.1,0.8,0.2,1.4l-1.6,1c0.3,1,0.8,1.9,1.5,2.7l1.6-1c0.5,0.4,0.9,0.7,1.2,0.9c0.3,0.2,0.7,0.3,1.3,0.6
		v1.9c0.5,0.1,1,0.1,1.5,0.1s1,0,1.5-0.1v-1.9c0.6-0.2,1-0.4,1.3-0.6s0.7-0.5,1.2-0.9L20.7,20z M12.6,12.6c0.7-0.7,1.5-1,2.4-1
		s1.7,0.3,2.4,1s1,1.5,1,2.4s-0.3,1.7-1,2.4s-1.5,1-2.4,1s-1.7-0.3-2.4-1c-0.7-0.7-1-1.4-1-2.4S12,13.2,12.6,12.6z M13.4,16.6
		c0.4,0.5,1,0.7,1.6,0.7s1.1-0.2,1.6-0.7s0.7-1,0.7-1.6s-0.2-1.1-0.7-1.6s-1-0.7-1.6-0.7s-1.1,0.2-1.6,0.7c-0.5,0.5-0.7,1-0.7,1.6
		S13,16.1,13.4,16.6z"/>
</g>
</svg>
