<?xml version="1.0" encoding="utf-8"?>
<!-- Generator: Adobe Illustrator 23.0.4, SVG Export Plug-In . SVG Version: 6.00 Build 0)  -->
<svg version="1.1" id="Layer_1" xmlns="http://www.w3.org/2000/svg" xmlns:xlink="http://www.w3.org/1999/xlink" x="0px" y="0px"
	 viewBox="0 0 50 50" style="enable-background:new 0 0 50 50;" xml:space="preserve">
<style type="text/css">
	.st0{enable-background:new    ;}
	.st1{fill:#FFFFFF;}
</style>
<g class="st0">
	<path class="st1" d="M36.5,37v1H13.5v-1c0-0.4,0.1-0.6,0.6-0.6h1V13.2c0-0.3,0.1-0.6,0.3-0.9C15.7,12,16,12,16.3,12h17.1
		c0.3,0,0.6,0.1,0.9,0.3c0.3,0.1,0.3,0.6,0.3,0.9v23.2h1C36.2,36.3,36.5,36.5,36.5,37z M33.1,36.3V13.5H16.9v22.9h6.5V32
		c0-0.4,0.1-0.6,0.6-0.6h2c0.4,0,0.6,0.1,0.6,0.6v4.4h6.5V36.3z M23.4,17.2v2c0,0.4-0.1,0.6-0.6,0.6h-2c-0.4,0-0.6-0.1-0.6-0.6v-2
		c0-0.4,0.1-0.6,0.6-0.6h2C23.1,16.6,23.4,16.8,23.4,17.2z M22.8,21.6c0.4,0,0.6,0.1,0.6,0.6v2c0,0.4-0.1,0.6-0.6,0.6h-2.2
		c-0.4,0-0.6-0.1-0.6-0.6v-2c0-0.4,0.1-0.6,0.6-0.6H22.8z M22.8,26.5c0.4,0,0.6,0.1,0.6,0.6v2c0,0.4-0.1,0.6-0.6,0.6h-2.2
		c-0.4,0-0.6-0.1-0.6-0.6v-2c0-0.4,0.1-0.6,0.6-0.6H22.8z M29.4,16.6c0.4,0,0.6,0.1,0.6,0.6v2c0,0.4-0.1,0.6-0.6,0.6h-2
		c-0.4,0-0.6-0.1-0.6-0.6v-2c0-0.4,0.1-0.6,0.6-0.6H29.4z M29.4,21.6c0.4,0,0.6,0.1,0.6,0.6v2c0,0.4-0.1,0.6-0.6,0.6h-2
		c-0.4,0-0.6-0.1-0.6-0.6v-2c0-0.4,0.1-0.6,0.6-0.6H29.4z M29.4,26.5c0.4,0,0.6,0.1,0.6,0.6v2c0,0.4-0.1,0.6-0.6,0.6h-2
		c-0.4,0-0.6-0.1-0.6-0.6v-2c0-0.4,0.1-0.6,0.6-0.6H29.4z"/>
</g>
</svg>
