<?xml version="1.0" encoding="utf-8"?>
<!-- Generator: Adobe Illustrator 23.0.4, SVG Export Plug-In . SVG Version: 6.00 Build 0)  -->
<svg version="1.1" id="Layer_1" xmlns="http://www.w3.org/2000/svg" xmlns:xlink="http://www.w3.org/1999/xlink" x="0px" y="0px"
	 viewBox="0 0 100 100" style="enable-background:new 0 0 100 100;" xml:space="preserve">
<style type="text/css">
	.st0{enable-background:new    ;}
</style>
<g class="st0">
	<path d="M43.88,44.63c0.49,0.21,0.88,0.54,1.18,1c0.29,0.46,0.44,0.97,0.44,1.53v0.63c0,0.28-0.11,0.53-0.32,0.74
		s-0.46,0.32-0.74,0.32H39.8c-0.28,0-0.53-0.11-0.74-0.32s-0.32-0.46-0.32-0.74v-0.63c0-0.56,0.15-1.07,0.44-1.53
		c0.29-0.46,0.69-0.79,1.18-1c-0.33-0.42-0.49-0.89-0.49-1.41c0-0.61,0.22-1.14,0.67-1.58c0.44-0.45,0.97-0.67,1.58-0.67
		c0.61,0,1.14,0.22,1.58,0.67c0.44,0.45,0.67,0.97,0.67,1.58C44.38,43.74,44.21,44.21,43.88,44.63z M43.88,54.75
		c0.49,0.21,0.88,0.54,1.18,1c0.29,0.46,0.44,0.97,0.44,1.53v0.63c0,0.28-0.11,0.53-0.32,0.74s-0.46,0.32-0.74,0.32H39.8
		c-0.28,0-0.53-0.11-0.74-0.32s-0.32-0.46-0.32-0.74v-0.63c0-0.56,0.15-1.07,0.44-1.53c0.29-0.46,0.69-0.79,1.18-1
		c-0.33-0.42-0.49-0.89-0.49-1.41c0-0.61,0.22-1.14,0.67-1.58c0.44-0.45,0.97-0.67,1.58-0.67c0.61,0,1.14,0.22,1.58,0.67
		c0.44,0.45,0.67,0.97,0.67,1.58C44.38,53.86,44.21,54.33,43.88,54.75z M39.88,47.79l4.57-0.07l-0.07-0.56
		c0-0.47-0.16-0.87-0.49-1.2c-0.33-0.33-0.73-0.49-1.2-0.49h-1.12c-0.47,0-0.87,0.16-1.2,0.49c-0.33,0.33-0.49,0.73-0.49,1.2V47.79z
		 M39.88,57.92l4.57-0.07l-0.07-0.56c0-0.47-0.16-0.87-0.49-1.2c-0.33-0.33-0.73-0.49-1.2-0.49h-1.12c-0.47,0-0.87,0.16-1.2,0.49
		c-0.33,0.33-0.49,0.73-0.49,1.2V57.92z M42.92,42.43c-0.22-0.22-0.49-0.33-0.79-0.33c-0.3,0-0.57,0.11-0.79,0.33
		C41.11,42.66,41,42.92,41,43.22s0.11,0.57,0.33,0.79c0.22,0.22,0.49,0.33,0.79,0.33c0.3,0,0.57-0.11,0.79-0.33
		c0.22-0.22,0.33-0.49,0.33-0.79S43.14,42.66,42.92,42.43z M42.92,52.56c-0.22-0.22-0.49-0.33-0.79-0.33c-0.3,0-0.57,0.11-0.79,0.33
		C41.11,52.78,41,53.04,41,53.35s0.11,0.57,0.33,0.79c0.22,0.22,0.49,0.33,0.79,0.33c0.3,0,0.57-0.11,0.79-0.33
		c0.22-0.22,0.33-0.49,0.33-0.79S43.14,52.78,42.92,52.56z M60.41,42.1c0.23,0,0.43,0.08,0.6,0.25s0.25,0.36,0.25,0.6v3.94
		c0,0.23-0.08,0.43-0.25,0.6s-0.36,0.25-0.6,0.25H47.47c-0.23,0-0.43-0.08-0.6-0.25c-0.16-0.16-0.25-0.36-0.25-0.6v-3.94
		c0-0.23,0.08-0.43,0.25-0.6c0.16-0.16,0.36-0.25,0.6-0.25H60.41z M60.41,52.22c0.23,0,0.43,0.08,0.6,0.25s0.25,0.36,0.25,0.6V57
		c0,0.23-0.08,0.43-0.25,0.6s-0.36,0.25-0.6,0.25H47.47c-0.23,0-0.43-0.08-0.6-0.25c-0.16-0.16-0.25-0.36-0.25-0.6v-3.94
		c0-0.23,0.08-0.43,0.25-0.6c0.16-0.16,0.36-0.25,0.6-0.25H60.41z M55.62,46.6v-3.38h-7.88v3.38H55.62z M50,56.72v-3.38h-2.25v3.38
		H50z M60.12,56.72v-3.38h-9v3.38H60.12z M60.12,46.6v-3.38h-3.38v3.38H60.12z"/>
</g>
</svg>
