<?xml version="1.0" encoding="utf-8"?>
<!-- Generator: Adobe Illustrator 23.0.4, SVG Export Plug-In . SVG Version: 6.00 Build 0)  -->
<svg version="1.1" id="Layer_1" xmlns="http://www.w3.org/2000/svg" xmlns:xlink="http://www.w3.org/1999/xlink" x="0px" y="0px"
	 viewBox="0 0 100 100" style="enable-background:new 0 0 100 100;" xml:space="preserve">
<style type="text/css">
	.st0{enable-background:new    ;}
</style>
<g class="st0">
	<path d="M44.27,50.43c-0.33,0.23-0.62,0.49-0.88,0.77c-0.19-0.07-0.38-0.11-0.56-0.11h-1.41c-0.42,0-0.79,0.16-1.09,0.49
		c-0.3,0.33-0.46,0.73-0.46,1.2c0,0.16-0.05,0.3-0.16,0.4s-0.24,0.16-0.4,0.16c-0.16,0-0.3-0.05-0.4-0.16s-0.16-0.24-0.16-0.4
		c0-0.77,0.26-1.44,0.79-1.99s1.15-0.83,1.88-0.83h1.41C43.34,49.97,43.82,50.13,44.27,50.43z M44.11,48.02
		c-0.55,0.55-1.21,0.83-1.99,0.83s-1.44-0.28-1.99-0.83c-0.55-0.55-0.83-1.21-0.83-1.99s0.28-1.44,0.83-1.99
		c0.55-0.55,1.21-0.83,1.99-0.83s1.44,0.28,1.99,0.83c0.55,0.55,0.83,1.21,0.83,1.99S44.66,47.47,44.11,48.02z M43.32,44.84
		c-0.33-0.33-0.73-0.49-1.2-0.49c-0.47,0-0.87,0.16-1.2,0.49c-0.33,0.33-0.49,0.73-0.49,1.2s0.16,0.87,0.49,1.2
		c0.33,0.33,0.73,0.49,1.2,0.49c0.47,0,0.87-0.16,1.2-0.49c0.33-0.33,0.49-0.73,0.49-1.2S43.65,45.17,43.32,44.84z M52.81,50.68
		c1.43,0,2.51,0.55,3.23,1.65c0.47,0.68,0.7,1.43,0.7,2.25v1.58c0,0.47-0.16,0.87-0.49,1.2s-0.73,0.49-1.2,0.49H44.94
		c-0.47,0-0.87-0.16-1.2-0.49c-0.33-0.33-0.49-0.73-0.49-1.2v-1.58c0-0.82,0.23-1.57,0.7-2.25c0.73-1.1,1.8-1.65,3.23-1.65
		c0.37,0,0.82,0.07,1.34,0.21c0.52,0.14,1.01,0.21,1.48,0.21c0.47,0,0.96-0.07,1.48-0.21S52.44,50.68,52.81,50.68z M55.62,56.16
		v-1.58c0-0.59-0.16-1.12-0.49-1.62c-0.52-0.77-1.29-1.16-2.32-1.16c-0.28,0-0.69,0.07-1.21,0.21s-1.06,0.21-1.6,0.21
		c-0.54,0-1.07-0.07-1.6-0.21s-0.93-0.21-1.21-0.21c-1.03,0-1.81,0.39-2.32,1.16c-0.33,0.49-0.49,1.03-0.49,1.62v1.58
		c0,0.16,0.05,0.3,0.16,0.4s0.24,0.16,0.4,0.16h10.12c0.16,0,0.3-0.05,0.4-0.16S55.62,56.33,55.62,56.16z M52.78,48.81
		c-0.77,0.77-1.7,1.16-2.78,1.16s-2-0.39-2.78-1.16s-1.16-1.7-1.16-2.78s0.39-2,1.16-2.78s1.7-1.16,2.78-1.16s2,0.39,2.78,1.16
		s1.16,1.7,1.16,2.78S53.55,48.04,52.78,48.81z M51.99,44.05c-0.55-0.55-1.21-0.83-1.99-0.83s-1.44,0.28-1.99,0.83
		c-0.55,0.55-0.83,1.21-0.83,1.99s0.28,1.44,0.83,1.99c0.55,0.55,1.21,0.83,1.99,0.83s1.44-0.28,1.99-0.83s0.83-1.21,0.83-1.99
		S52.54,44.6,51.99,44.05z M59.86,48.02c-0.55,0.55-1.21,0.83-1.99,0.83s-1.44-0.28-1.99-0.83s-0.83-1.21-0.83-1.99
		s0.28-1.44,0.83-1.99s1.21-0.83,1.99-0.83s1.44,0.28,1.99,0.83s0.83,1.21,0.83,1.99S60.41,47.47,59.86,48.02z M58.58,49.97
		c0.73,0,1.35,0.28,1.88,0.83s0.79,1.21,0.79,1.99c0,0.16-0.05,0.3-0.16,0.4s-0.24,0.16-0.4,0.16s-0.3-0.05-0.4-0.16
		s-0.16-0.24-0.16-0.4c0-0.47-0.15-0.87-0.46-1.2S59,51.1,58.58,51.1h-1.41c-0.19,0-0.38,0.04-0.56,0.11
		c-0.26-0.28-0.55-0.54-0.88-0.77c0.45-0.3,0.93-0.46,1.44-0.46H58.58z M59.07,44.84c-0.33-0.33-0.73-0.49-1.2-0.49
		s-0.87,0.16-1.2,0.49s-0.49,0.73-0.49,1.2s0.16,0.87,0.49,1.2s0.73,0.49,1.2,0.49s0.87-0.16,1.2-0.49s0.49-0.73,0.49-1.2
		S59.4,45.17,59.07,44.84z"/>
</g>
</svg>
