<?xml version="1.0" encoding="utf-8"?>
<!-- Generator: Adobe Illustrator 23.0.4, SVG Export Plug-In . SVG Version: 6.00 Build 0)  -->
<svg version="1.1" id="Layer_1" xmlns="http://www.w3.org/2000/svg" xmlns:xlink="http://www.w3.org/1999/xlink" x="0px" y="0px"
	 viewBox="0 0 30 30" style="enable-background:new 0 0 30 30;" xml:space="preserve">
<style type="text/css">
	.st0{enable-background:new    ;}
	.st1{fill:#FFFFFF;}
</style>
<g class="st0">
	<path class="st1" d="M8.9,9.6c0.5,0.2,0.9,0.5,1.2,1c0.3,0.5,0.4,1,0.4,1.5v0.6c0,0.3-0.1,0.5-0.3,0.7s-0.5,0.3-0.7,0.3H4.8
		c-0.3,0-0.5-0.1-0.7-0.3s-0.3-0.5-0.3-0.7v-0.6c0-0.6,0.2-1.1,0.4-1.5c0.3-0.5,0.7-0.8,1.2-1C5,9.2,4.9,8.7,4.9,8.2
		c0-0.6,0.2-1.1,0.7-1.6C6,6.2,6.5,6,7.1,6s1.1,0.2,1.6,0.7c0.4,0.5,0.7,1,0.7,1.6C9.4,8.7,9.2,9.2,8.9,9.6z M8.9,19.7
		c0.5,0.2,0.9,0.5,1.2,1c0.3,0.5,0.4,1,0.4,1.5v0.6c0,0.3-0.1,0.5-0.3,0.7S9.7,24,9.4,24H4.8c-0.3,0-0.5-0.1-0.7-0.3
		s-0.3-0.5-0.3-0.7v-0.6c0-0.6,0.2-1.1,0.4-1.5c0.3-0.5,0.7-0.8,1.2-1c-0.3-0.4-0.5-0.9-0.5-1.4c0-0.6,0.2-1.1,0.7-1.6
		c0.4-0.5,1-0.7,1.6-0.7s1.1,0.2,1.6,0.7c0.4,0.5,0.7,1,0.7,1.6C9.4,18.9,9.2,19.3,8.9,19.7z M4.9,12.8l4.6-0.1l-0.1-0.6
		c0-0.5-0.2-0.9-0.5-1.2s-0.7-0.5-1.2-0.5H6.6c-0.5,0-0.9,0.2-1.2,0.5s-0.5,0.7-0.5,1.2C4.9,12.2,4.9,12.8,4.9,12.8z M4.9,22.9
		l4.6-0.1l-0.1-0.6c0-0.5-0.2-0.9-0.5-1.2s-0.7-0.5-1.2-0.5H6.6c-0.5,0-0.9,0.2-1.2,0.5s-0.5,0.7-0.5,1.2
		C4.9,22.3,4.9,22.9,4.9,22.9z M7.9,7.4C7.7,7.2,7.4,7.1,7.1,7.1S6.6,7.2,6.3,7.4C6.1,7.7,6,7.9,6,8.2C6,8.5,6.1,8.8,6.3,9
		s0.5,0.3,0.8,0.3S7.7,9.2,7.9,9s0.3-0.5,0.3-0.8C8.2,7.9,8.1,7.7,7.9,7.4z M7.9,17.6c-0.2-0.2-0.5-0.3-0.8-0.3s-0.6,0.1-0.8,0.3
		C6.1,17.8,6,18,6,18.3s0.1,0.6,0.3,0.8s0.5,0.3,0.8,0.3s0.6-0.1,0.8-0.3s0.3-0.5,0.3-0.8S8.1,17.8,7.9,17.6z M25.4,7.1
		c0.2,0,0.4,0.1,0.6,0.2s0.2,0.4,0.2,0.6v3.9c0,0.2-0.1,0.4-0.2,0.6s-0.4,0.2-0.6,0.2H12.5c-0.2,0-0.4-0.1-0.6-0.2
		c-0.2-0.2-0.2-0.4-0.2-0.6V7.9c0-0.2,0.1-0.4,0.2-0.6c0.2-0.2,0.4-0.2,0.6-0.2H25.4z M25.4,17.2c0.2,0,0.4,0.1,0.6,0.2
		s0.2,0.4,0.2,0.6V22c0,0.2-0.1,0.4-0.2,0.6s-0.4,0.2-0.6,0.2H12.5c-0.2,0-0.4-0.1-0.6-0.2c-0.2-0.2-0.2-0.4-0.2-0.6v-3.9
		c0-0.2,0.1-0.4,0.2-0.6c0.2-0.2,0.4-0.2,0.6-0.2L25.4,17.2L25.4,17.2z M20.6,11.6V8.2h-7.9v3.4H20.6z M15,21.7v-3.4h-2.2v3.4H15z
		 M25.1,21.7v-3.4h-9v3.4H25.1z M25.1,11.6V8.2h-3.4v3.4H25.1z"/>
</g>
</svg>
