<?xml version="1.0" encoding="utf-8"?>
<!-- Generator: Adobe Illustrator 23.0.4, SVG Export Plug-In . SVG Version: 6.00 Build 0)  -->
<svg version="1.1" id="Layer_1" xmlns="http://www.w3.org/2000/svg" xmlns:xlink="http://www.w3.org/1999/xlink" x="0px" y="0px"
	 viewBox="0 0 100 100" style="enable-background:new 0 0 100 100;" xml:space="preserve">
<style type="text/css">
	.st0{enable-background:new    ;}
</style>
<g class="st0">
	<path d="M57.98,51.49c0.38,0.23,0.5,0.56,0.39,0.98c-0.4,1.31-1.08,2.47-2.04,3.48c-0.3,0.33-0.64,0.39-1.02,0.18l-1.16-0.67
		c-0.45,0.35-0.94,0.63-1.48,0.84v1.34c0,0.45-0.22,0.71-0.67,0.81c-1.34,0.33-2.67,0.33-4.01,0c-0.45-0.09-0.67-0.36-0.67-0.81
		V56.3c-0.54-0.21-1.03-0.49-1.48-0.84l-1.16,0.67c-0.38,0.21-0.72,0.15-1.02-0.18c-0.96-1.01-1.64-2.17-2.04-3.48
		c-0.12-0.42,0.01-0.75,0.39-0.98l1.16-0.67c-0.05-0.28-0.07-0.56-0.07-0.84s0.02-0.56,0.07-0.84l-1.16-0.67
		c-0.38-0.23-0.5-0.56-0.39-0.98c0.4-1.31,1.08-2.47,2.04-3.48c0.3-0.33,0.64-0.39,1.02-0.18l1.16,0.67
		c0.44-0.35,0.94-0.63,1.48-0.84v-1.34c0-0.45,0.22-0.71,0.67-0.81c1.34-0.33,2.67-0.33,4.01,0c0.45,0.09,0.67,0.36,0.67,0.81v1.34
		c0.54,0.21,1.03,0.49,1.48,0.84l1.16-0.67c0.38-0.21,0.71-0.15,1.02,0.18c0.96,1.01,1.64,2.17,2.04,3.48
		c0.12,0.42-0.01,0.75-0.39,0.98l-1.16,0.67c0.05,0.28,0.07,0.56,0.07,0.84s-0.02,0.56-0.07,0.84L57.98,51.49z M55.66,55.04
		c0.7-0.8,1.22-1.69,1.55-2.67l-1.62-0.95c0.12-0.63,0.18-1.11,0.18-1.44s-0.06-0.81-0.18-1.44l1.62-0.95
		c-0.33-0.98-0.84-1.88-1.55-2.67l-1.62,0.95c-0.49-0.42-0.88-0.71-1.18-0.88s-0.73-0.35-1.32-0.56v-1.9
		c-0.52-0.09-1.03-0.14-1.55-0.14c-0.52,0-1.03,0.05-1.55,0.14v1.9c-0.59,0.21-1.03,0.4-1.32,0.56c-0.29,0.16-0.69,0.46-1.18,0.88
		l-1.62-0.95c-0.7,0.8-1.22,1.69-1.55,2.67l1.62,0.95c-0.12,0.63-0.18,1.11-0.18,1.44s0.06,0.81,0.18,1.44l-1.62,0.95
		c0.33,0.98,0.84,1.88,1.55,2.67l1.62-0.95c0.49,0.42,0.88,0.71,1.18,0.88c0.29,0.16,0.73,0.35,1.32,0.56v1.9
		c0.52,0.09,1.03,0.14,1.55,0.14c0.52,0,1.03-0.05,1.55-0.14v-1.9c0.59-0.21,1.03-0.4,1.32-0.58s0.69-0.46,1.18-0.86L55.66,55.04z
		 M47.61,47.58c0.66-0.66,1.45-0.98,2.39-0.98c0.94,0,1.73,0.33,2.39,0.98s0.98,1.45,0.98,2.39s-0.33,1.73-0.98,2.39
		s-1.45,0.98-2.39,0.98c-0.94,0-1.73-0.33-2.39-0.98c-0.66-0.66-0.98-1.45-0.98-2.39S46.95,48.24,47.61,47.58z M48.42,51.56
		c0.44,0.45,0.97,0.67,1.58,0.67c0.61,0,1.14-0.22,1.58-0.67s0.67-0.97,0.67-1.58s-0.22-1.14-0.67-1.58s-0.97-0.67-1.58-0.67
		c-0.61,0-1.14,0.22-1.58,0.67c-0.45,0.45-0.67,0.97-0.67,1.58S47.97,51.11,48.42,51.56z"/>
</g>
</svg>
