<?xml version="1.0" encoding="utf-8"?>
<!-- Generator: Adobe Illustrator 23.0.4, SVG Export Plug-In . SVG Version: 6.00 Build 0)  -->
<svg version="1.1" id="Layer_1" xmlns="http://www.w3.org/2000/svg" xmlns:xlink="http://www.w3.org/1999/xlink" x="0px" y="0px"
	 viewBox="0 0 30 30" style="enable-background:new 0 0 30 30;" xml:space="preserve">
<style type="text/css">
	.st0{enable-background:new    ;}
	.st1{fill:#FFFFFF;}
</style>
<g class="st0">
	<path class="st1" d="M7.8,20.6c0.7,0,1.3,0.3,1.9,0.8s0.8,1.2,0.8,2c0,0.2,0,0.3-0.2,0.4S10.1,24,9.9,24s-0.3,0-0.4-0.2
		s-0.2-0.2-0.2-0.4c0-0.5-0.2-0.9-0.5-1.2c-0.3-0.3-0.7-0.5-1.1-0.5H6.4c-0.4,0-0.8,0.2-1.1,0.5s-0.5,0.7-0.5,1.2
		c0,0.2,0,0.3-0.2,0.4S4.5,24,4.3,24s-0.3,0-0.4-0.2s-0.2-0.2-0.2-0.4c0-0.8,0.3-1.4,0.8-2s1.2-0.8,1.9-0.8H7.8z M9.1,18.6
		c-0.5,0.5-1.2,0.8-2,0.8s-1.4-0.3-2-0.8c-0.5-0.5-0.8-1.2-0.8-2c0-0.8,0.3-1.4,0.8-2c0.5-0.5,1.2-0.8,2-0.8s1.4,0.3,2,0.8
		c0.5,0.5,0.8,1.2,0.8,2C9.9,17.4,9.7,18.1,9.1,18.6z M6,7.7v5.2c-0.4,0.1-0.8,0.3-1.1,0.5V7.7c0-0.5,0.2-0.9,0.5-1.2S6.1,6,6.6,6
		h16.9c0.5,0,0.9,0.2,1.2,0.5s0.5,0.7,0.5,1.2v5.8c-0.3-0.2-0.7-0.4-1.1-0.5V7.7c0-0.2,0-0.3-0.2-0.4s-0.2-0.2-0.4-0.2H6.6
		c-0.2,0-0.3,0-0.4,0.2S6,7.5,6,7.7z M8.3,15.5C8,15.1,7.6,15,7.1,15s-0.9,0.2-1.2,0.5s-0.5,0.7-0.5,1.2s0.2,0.9,0.5,1.2
		s0.7,0.5,1.2,0.5s0.9-0.2,1.2-0.5s0.5-0.7,0.5-1.2S8.7,15.8,8.3,15.5z M15.7,20.6c0.7,0,1.3,0.3,1.9,0.8s0.8,1.2,0.8,2
		c0,0.2,0,0.3-0.2,0.4S18,24,17.8,24s-0.3,0-0.4-0.2s-0.2-0.2-0.2-0.4c0-0.5-0.2-0.9-0.5-1.2s-0.7-0.5-1.1-0.5h-1.4
		c-0.4,0-0.8,0.2-1.1,0.5s-0.5,0.7-0.5,1.2c0,0.2,0,0.3-0.2,0.4S12.3,24,12.2,24s-0.3,0-0.4-0.2s-0.2-0.2-0.2-0.4
		c0-0.8,0.3-1.4,0.8-2s1.2-0.8,1.9-0.8H15.7z M13,18.6c-0.5-0.5-0.8-1.2-0.8-2c0-0.8,0.3-1.4,0.8-2c0.5-0.5,1.2-0.8,2-0.8
		s1.4,0.3,2,0.8s0.8,1.2,0.8,2c0,0.8-0.3,1.4-0.8,2s-1.2,0.8-2,0.8S13.6,19.2,13,18.6z M16.2,17.9c0.3-0.3,0.5-0.7,0.5-1.2
		s-0.2-0.9-0.5-1.2S15.5,15,15,15s-0.9,0.2-1.2,0.5s-0.5,0.7-0.5,1.2s0.2,0.9,0.5,1.2s0.7,0.5,1.2,0.5
		C15.5,18.3,15.9,18.2,16.2,17.9z M23.6,20.6c0.7,0,1.3,0.3,1.9,0.8s0.8,1.2,0.8,2c0,0.2,0,0.3-0.2,0.4S25.9,24,25.7,24
		s-0.3,0-0.4-0.2s-0.2-0.2-0.2-0.4c0-0.5-0.2-0.9-0.5-1.2s-0.7-0.5-1.1-0.5h-1.4c-0.4,0-0.8,0.2-1.1,0.5s-0.5,0.7-0.5,1.2
		c0,0.2,0,0.3-0.2,0.4S20.2,24,20.1,24s-0.3,0-0.4-0.2s-0.2-0.2-0.2-0.4c0-0.8,0.3-1.4,0.8-2s1.2-0.8,1.9-0.8H23.6z M20.9,14.7
		c0.5-0.5,1.2-0.8,2-0.8s1.4,0.3,2,0.8s0.8,1.2,0.8,2c0,0.8-0.3,1.4-0.8,2s-1.2,0.8-2,0.8s-1.4-0.3-2-0.8s-0.8-1.2-0.8-2
		C20.1,15.9,20.3,15.2,20.9,14.7z M21.7,17.9c0.3,0.3,0.7,0.5,1.2,0.5s0.9-0.2,1.2-0.5s0.5-0.7,0.5-1.2s-0.2-0.9-0.5-1.2
		S23.4,15,22.9,15s-0.9,0.2-1.2,0.5s-0.5,0.7-0.5,1.2S21.3,17.5,21.7,17.9z"/>
</g>
</svg>
