<?xml version="1.0" encoding="utf-8"?>
<!-- Generator: Adobe Illustrator 23.0.4, SVG Export Plug-In . SVG Version: 6.00 Build 0)  -->
<svg version="1.1" id="Layer_1" xmlns="http://www.w3.org/2000/svg" xmlns:xlink="http://www.w3.org/1999/xlink" x="0px" y="0px"
	 viewBox="0 0 30 30" style="enable-background:new 0 0 30 30;" xml:space="preserve">
<style type="text/css">
	.st0{enable-background:new    ;}
	.st1{fill:#FFFFFF;}
</style>
<g class="st0">
	<path class="st1" d="M9.3,15.4c-0.3,0.2-0.6,0.5-0.9,0.8c-0.2-0.1-0.4-0.1-0.6-0.1H6.4c-0.4,0-0.8,0.2-1.1,0.5s-0.5,0.7-0.5,1.2
		c0,0.2,0,0.3-0.2,0.4s-0.2,0.2-0.4,0.2s-0.3,0-0.4-0.2s-0.2-0.2-0.2-0.4c0-0.8,0.3-1.4,0.8-2C5.1,15.2,5.7,15,6.4,15h1.4
		C8.3,15,8.8,15.1,9.3,15.4z M9.1,13c-0.5,0.5-1.2,0.8-2,0.8s-1.4-0.3-2-0.8c-0.5-0.5-0.8-1.2-0.8-2s0.3-1.4,0.8-2
		c0.5-0.5,1.2-0.8,2-0.8s1.4,0.3,2,0.8c0.5,0.5,0.8,1.2,0.8,2S9.7,12.5,9.1,13z M8.3,9.8C8,9.5,7.6,9.3,7.1,9.3S6.2,9.5,5.9,9.8
		S5.4,10.6,5.4,11s0.2,0.9,0.5,1.2s0.7,0.5,1.2,0.5s0.9-0.2,1.2-0.5s0.5-0.7,0.5-1.2S8.7,10.2,8.3,9.8z M17.8,15.7
		c1.4,0,2.5,0.5,3.2,1.7c0.5,0.7,0.7,1.4,0.7,2.2v1.6c0,0.5-0.2,0.9-0.5,1.2s-0.7,0.5-1.2,0.5H9.9c-0.5,0-0.9-0.2-1.2-0.5
		s-0.5-0.7-0.5-1.2v-1.6c0-0.8,0.2-1.6,0.7-2.2c0.7-1.1,1.8-1.7,3.2-1.7c0.4,0,0.8,0.1,1.3,0.2c0.5,0.1,1,0.2,1.5,0.2s1-0.1,1.5-0.2
		C17,15.7,17.4,15.7,17.8,15.7z M20.6,21.2v-1.6c0-0.6-0.2-1.1-0.5-1.6c-0.5-0.8-1.3-1.2-2.3-1.2c-0.3,0-0.7,0.1-1.2,0.2
		s-1.1,0.2-1.6,0.2c-0.5,0-1.1-0.1-1.6-0.2s-0.9-0.2-1.2-0.2c-1,0-1.8,0.4-2.3,1.2c-0.3,0.5-0.5,1-0.5,1.6v1.6c0,0.2,0,0.3,0.2,0.4
		s0.2,0.2,0.4,0.2h10.1c0.2,0,0.3,0,0.4-0.2S20.6,21.3,20.6,21.2z M17.8,13.8C17,14.6,16.1,15,15,15s-2-0.4-2.8-1.2
		s-1.2-1.7-1.2-2.8s0.4-2,1.2-2.8s1.7-1.2,2.8-1.2s2,0.4,2.8,1.2s1.2,1.7,1.2,2.8S18.5,13,17.8,13.8z M17,9c-0.5-0.5-1.2-0.8-2-0.8
		S13.6,8.5,13,9c-0.5,0.5-0.8,1.2-0.8,2s0.3,1.4,0.8,2c0.5,0.5,1.2,0.8,2,0.8s1.4-0.3,2-0.8s0.8-1.2,0.8-2S17.5,9.6,17,9z M24.9,13
		c-0.5,0.5-1.2,0.8-2,0.8s-1.4-0.3-2-0.8S20,11.8,20,11s0.3-1.4,0.8-2s1.2-0.8,2-0.8s1.4,0.3,2,0.8s0.8,1.2,0.8,2S25.4,12.5,24.9,13
		z M23.6,15c0.7,0,1.3,0.3,1.9,0.8c0.5,0.6,0.8,1.2,0.8,2c0,0.2,0,0.3-0.2,0.4s-0.2,0.2-0.4,0.2s-0.3,0-0.4-0.2s-0.2-0.2-0.2-0.4
		c0-0.5-0.2-0.9-0.5-1.2s-0.7-0.5-1.1-0.5h-1.4c-0.2,0-0.4,0-0.6,0.1c-0.3-0.3-0.5-0.5-0.9-0.8c0.5-0.3,0.9-0.5,1.4-0.5L23.6,15
		L23.6,15z M24.1,9.8c-0.3-0.3-0.7-0.5-1.2-0.5S22,9.5,21.7,9.8s-0.5,0.7-0.5,1.2s0.2,0.9,0.5,1.2s0.7,0.5,1.2,0.5s0.9-0.2,1.2-0.5
		s0.5-0.7,0.5-1.2S24.4,10.2,24.1,9.8z"/>
</g>
</svg>
