<?xml version="1.0" encoding="utf-8"?>
<!-- Generator: Adobe Illustrator 23.0.4, SVG Export Plug-In . SVG Version: 6.00 Build 0)  -->
<svg version="1.1" id="Layer_1" xmlns="http://www.w3.org/2000/svg" xmlns:xlink="http://www.w3.org/1999/xlink" x="0px" y="0px"
	 viewBox="0 0 100 100" style="enable-background:new 0 0 100 100;" xml:space="preserve">
<style type="text/css">
	.st0{enable-background:new    ;}
</style>
<g class="st0">
	<path d="M57.88,58.27v0.7H42.12v-0.7c0-0.28,0.14-0.42,0.42-0.42h0.7V41.82c0-0.23,0.08-0.43,0.25-0.6
		c0.16-0.16,0.36-0.25,0.6-0.25h11.81c0.23,0,0.43,0.08,0.6,0.25s0.25,0.36,0.25,0.6v16.03h0.7C57.73,57.85,57.88,57.99,57.88,58.27
		z M55.62,57.85V42.1H44.38v15.75h4.5v-2.99c0-0.28,0.14-0.42,0.42-0.42h1.41c0.28,0,0.42,0.14,0.42,0.42v2.99H55.62z M48.88,44.74
		v1.41c0,0.28-0.14,0.42-0.42,0.42h-1.41c-0.28,0-0.42-0.14-0.42-0.42v-1.41c0-0.28,0.14-0.42,0.42-0.42h1.41
		C48.73,44.31,48.88,44.45,48.88,44.74z M48.45,47.69c0.28,0,0.42,0.14,0.42,0.42v1.41c0,0.28-0.14,0.42-0.42,0.42h-1.41
		c-0.28,0-0.42-0.14-0.42-0.42v-1.41c0-0.28,0.14-0.42,0.42-0.42H48.45z M48.45,51.06c0.28,0,0.42,0.14,0.42,0.42v1.41
		c0,0.28-0.14,0.42-0.42,0.42h-1.41c-0.28,0-0.42-0.14-0.42-0.42v-1.41c0-0.28,0.14-0.42,0.42-0.42H48.45z M52.95,44.31
		c0.28,0,0.42,0.14,0.42,0.42v1.41c0,0.28-0.14,0.42-0.42,0.42h-1.41c-0.28,0-0.42-0.14-0.42-0.42v-1.41c0-0.28,0.14-0.42,0.42-0.42
		H52.95z M52.95,47.69c0.28,0,0.42,0.14,0.42,0.42v1.41c0,0.28-0.14,0.42-0.42,0.42h-1.41c-0.28,0-0.42-0.14-0.42-0.42v-1.41
		c0-0.28,0.14-0.42,0.42-0.42H52.95z M52.95,51.06c0.28,0,0.42,0.14,0.42,0.42v1.41c0,0.28-0.14,0.42-0.42,0.42h-1.41
		c-0.28,0-0.42-0.14-0.42-0.42v-1.41c0-0.28,0.14-0.42,0.42-0.42H52.95z"/>
</g>
</svg>
