<?xml version="1.0" encoding="utf-8"?>
<!-- Generator: Adobe Illustrator 23.0.4, SVG Export Plug-In . SVG Version: 6.00 Build 0)  -->
<svg version="1.1" id="Layer_1" xmlns="http://www.w3.org/2000/svg" xmlns:xlink="http://www.w3.org/1999/xlink" x="0px" y="0px"
	 viewBox="0 0 100 100" style="enable-background:new 0 0 100 100;" xml:space="preserve">
<style type="text/css">
	.st0{enable-background:new    ;}
</style>
<g class="st0">
	<path d="M42.83,55.6c0.73,0,1.35,0.28,1.88,0.83s0.79,1.21,0.79,1.99c0,0.16-0.05,0.3-0.16,0.4s-0.24,0.16-0.4,0.16
		c-0.16,0-0.3-0.05-0.4-0.16s-0.16-0.24-0.16-0.4c0-0.47-0.15-0.87-0.46-1.2c-0.3-0.33-0.67-0.49-1.09-0.49h-1.41
		c-0.42,0-0.79,0.16-1.09,0.49c-0.3,0.33-0.46,0.73-0.46,1.2c0,0.16-0.05,0.3-0.16,0.4s-0.24,0.16-0.4,0.16
		c-0.16,0-0.3-0.05-0.4-0.16s-0.16-0.24-0.16-0.4c0-0.77,0.26-1.44,0.79-1.99s1.15-0.83,1.88-0.83H42.83z M44.11,53.65
		c-0.55,0.55-1.21,0.83-1.99,0.83s-1.44-0.28-1.99-0.83c-0.55-0.55-0.83-1.21-0.83-1.99s0.28-1.44,0.83-1.99
		c0.55-0.55,1.21-0.83,1.99-0.83s1.44,0.28,1.99,0.83c0.55,0.55,0.83,1.21,0.83,1.99S44.66,53.1,44.11,53.65z M41,42.66v5.24
		c-0.42,0.14-0.8,0.32-1.12,0.53v-5.77c0-0.47,0.16-0.87,0.49-1.2c0.33-0.33,0.73-0.49,1.2-0.49h16.88c0.47,0,0.87,0.16,1.2,0.49
		s0.49,0.73,0.49,1.2v5.77c-0.33-0.21-0.7-0.39-1.12-0.53v-5.24c0-0.16-0.05-0.3-0.16-0.4s-0.24-0.16-0.4-0.16H41.56
		c-0.16,0-0.3,0.05-0.4,0.16S41,42.5,41,42.66z M43.32,50.47c-0.33-0.33-0.73-0.49-1.2-0.49c-0.47,0-0.87,0.16-1.2,0.49
		c-0.33,0.33-0.49,0.73-0.49,1.2s0.16,0.87,0.49,1.2c0.33,0.33,0.73,0.49,1.2,0.49c0.47,0,0.87-0.16,1.2-0.49
		c0.33-0.33,0.49-0.73,0.49-1.2S43.65,50.79,43.32,50.47z M50.7,55.6c0.73,0,1.35,0.28,1.88,0.83s0.79,1.21,0.79,1.99
		c0,0.16-0.05,0.3-0.16,0.4s-0.24,0.16-0.4,0.16s-0.3-0.05-0.4-0.16s-0.16-0.24-0.16-0.4c0-0.47-0.15-0.87-0.46-1.2
		s-0.67-0.49-1.09-0.49H49.3c-0.42,0-0.79,0.16-1.09,0.49c-0.3,0.33-0.46,0.73-0.46,1.2c0,0.16-0.05,0.3-0.16,0.4
		s-0.24,0.16-0.4,0.16c-0.16,0-0.3-0.05-0.4-0.16s-0.16-0.24-0.16-0.4c0-0.77,0.26-1.44,0.79-1.99s1.15-0.83,1.88-0.83H50.7z
		 M48.01,53.65c-0.55-0.55-0.83-1.21-0.83-1.99s0.28-1.44,0.83-1.99c0.55-0.55,1.21-0.83,1.99-0.83s1.44,0.28,1.99,0.83
		s0.83,1.21,0.83,1.99s-0.28,1.44-0.83,1.99s-1.21,0.83-1.99,0.83S48.56,54.2,48.01,53.65z M51.2,52.86
		c0.33-0.33,0.49-0.73,0.49-1.2s-0.16-0.87-0.49-1.2c-0.33-0.33-0.73-0.49-1.2-0.49c-0.47,0-0.87,0.16-1.2,0.49
		c-0.33,0.33-0.49,0.73-0.49,1.2s0.16,0.87,0.49,1.2c0.33,0.33,0.73,0.49,1.2,0.49C50.47,53.35,50.87,53.18,51.2,52.86z M58.58,55.6
		c0.73,0,1.35,0.28,1.88,0.83s0.79,1.21,0.79,1.99c0,0.16-0.05,0.3-0.16,0.4s-0.24,0.16-0.4,0.16s-0.3-0.05-0.4-0.16
		s-0.16-0.24-0.16-0.4c0-0.47-0.15-0.87-0.46-1.2s-0.67-0.49-1.09-0.49h-1.41c-0.42,0-0.79,0.16-1.09,0.49s-0.46,0.73-0.46,1.2
		c0,0.16-0.05,0.3-0.16,0.4s-0.24,0.16-0.4,0.16s-0.3-0.05-0.4-0.16s-0.16-0.24-0.16-0.4c0-0.77,0.26-1.44,0.79-1.99
		s1.15-0.83,1.88-0.83H58.58z M55.89,49.67c0.55-0.55,1.21-0.83,1.99-0.83s1.44,0.28,1.99,0.83s0.83,1.21,0.83,1.99
		s-0.28,1.44-0.83,1.99s-1.21,0.83-1.99,0.83s-1.44-0.28-1.99-0.83s-0.83-1.21-0.83-1.99S55.34,50.23,55.89,49.67z M56.68,52.86
		c0.33,0.33,0.73,0.49,1.2,0.49s0.87-0.16,1.2-0.49s0.49-0.73,0.49-1.2s-0.16-0.87-0.49-1.2s-0.73-0.49-1.2-0.49
		s-0.87,0.16-1.2,0.49s-0.49,0.73-0.49,1.2S56.35,52.53,56.68,52.86z"/>
</g>
</svg>
