<svg xmlns="http://www.w3.org/2000/svg" width="18" height="22" viewBox="0 0 18 22">
    <g fill="none" fill-rule="evenodd" stroke-linecap="round" stroke-linejoin="round">
        <g stroke="#FFF">
            <g>
                <path d="M12.8 21.4H3.1c-.5 0-.9-.4-.9-.9v-19c0-.5.4-.9.9-.9h13.3c.5 0 .9.4.9.9v19c0 .5-.4.9-.9.9h-1.2" transform="translate(-177 -795) translate(177 795)"/>
                <g>
                    <path d="M.8 1.3L2.2 1.3M.8 7L2.2 7M.8 12.7L2.2 12.7" transform="translate(-177 -795) translate(177 795) translate(0 4)"/>
                </g>
                <g transform="translate(-177 -795) translate(177 795) translate(7 7)">
                    <path d="M.4 7.2c0-1.3 1.1-2.4 2.4-2.4 1.3 0 2.4 1.1 2.4 2.4"/>
                    <circle cx="2.7" cy="1.9" r="1.1"/>
                </g>
            </g>
        </g>
    </g>
</svg>
