<svg width="22" height="22" viewBox="0 0 22 22" fill="none" xmlns="http://www.w3.org/2000/svg">
<path d="M21.7244 10.7424C22.1232 10.3038 22.0847 9.63152 21.6384 9.24125L11.8063 0.638124C11.36 0.247855 10.6446 0.25603 10.2077 0.656555L0.342163 9.69994C-0.0947203 10.1005 -0.116163 10.7719 0.294688 11.1989L0.54203 11.4565C0.952379 11.8836 1.61566 11.9345 2.02257 11.5699L2.75986 10.9096V20.5761C2.75986 21.1692 3.24042 21.6493 3.83307 21.6493H7.67867C8.27131 21.6493 8.75187 21.1692 8.75187 20.5761V13.8135H13.657V20.5761C13.6484 21.1688 14.0725 21.6489 14.6651 21.6489H18.7405C19.3332 21.6489 19.8137 21.1688 19.8137 20.5757V11.0457C19.8137 11.0457 20.0174 11.2242 20.2686 11.445C20.5194 11.6653 21.0461 11.4886 21.4449 11.0496L21.7244 10.7424Z" fill="white"/>
</svg>
