<svg width="30" height="30" viewBox="0 0 30 30" fill="none" xmlns="http://www.w3.org/2000/svg">
<circle cx="15" cy="15" r="15" fill="#F6F7F9"/>
<g opacity="0.5">
<path d="M8.23077 10C7.98885 10 7.7668 10.0727 7.57692 10.1923L14.4231 16.3333C14.7824 16.6555 15.2042 16.6555 15.5641 16.3333L22.4231 10.1923C22.2332 10.0727 22.0112 10 21.7692 10H8.23077ZM7.07051 10.8333C7.02788 10.9585 7 11.0909 7 11.2308V19.4359C7 20.1177 7.54893 20.6667 8.23077 20.6667H21.7692C22.4511 20.6667 23 20.1177 23 19.4359V11.2308C23 11.0909 22.9721 10.9585 22.9295 10.8333L16.109 16.9423C15.4705 17.5138 14.5165 17.5146 13.8782 16.9423L7.07051 10.8333Z" fill="black"/>
</g>
</svg>
