<svg width="22" height="22" viewBox="0 0 22 22" fill="none" xmlns="http://www.w3.org/2000/svg">
<path d="M21.2143 5.50001H17.2857V0.785729C17.2857 0.351776 16.9339 0 16.5 0H0.785729C0.351776 0 0 0.351776 0 0.785729V18.8571C0 20.5929 1.4071 22 3.14287 22H18.8571C20.5929 22 22 20.5929 22 18.8571V6.28569C22 5.85179 21.6482 5.50001 21.2143 5.50001ZM6.28569 3.92855H11C11.4339 3.92855 11.7857 4.28033 11.7857 4.71428C11.7857 5.14824 11.4339 5.50001 11 5.50001H6.28569C5.85174 5.50001 5.49997 5.14824 5.49997 4.71428C5.49997 4.28033 5.85179 3.92855 6.28569 3.92855ZM13.3571 18.8571H3.92855C3.4946 18.8571 3.14282 18.5054 3.14282 18.0714C3.14282 17.6374 3.4946 17.2857 3.92855 17.2857H13.3571C13.7911 17.2857 14.1428 17.6374 14.1428 18.0714C14.1428 18.5054 13.7911 18.8571 13.3571 18.8571ZM13.3571 15.7143H3.92855C3.4946 15.7143 3.14282 15.3625 3.14282 14.9285C3.14282 14.4946 3.4946 14.1428 3.92855 14.1428H13.3571C13.7911 14.1428 14.1428 14.4946 14.1428 14.9285C14.1428 15.3625 13.7911 15.7143 13.3571 15.7143ZM13.3571 12.5714H3.92855C3.4946 12.5714 3.14282 12.2197 3.14282 11.7857C3.14282 11.3518 3.4946 11 3.92855 11H13.3571C13.7911 11 14.1428 11.3518 14.1428 11.7857C14.1428 12.2197 13.7911 12.5714 13.3571 12.5714ZM13.3571 9.42857H3.92855C3.4946 9.42857 3.14282 9.07679 3.14282 8.64284C3.14282 8.20888 3.4946 7.85711 3.92855 7.85711H13.3571C13.7911 7.85711 14.1428 8.20888 14.1428 8.64284C14.1428 9.07679 13.7911 9.42857 13.3571 9.42857ZM20.4285 18.8571C20.4285 19.725 19.725 20.4285 18.8571 20.4285C17.9893 20.4285 17.2857 19.725 17.2857 18.8571V7.07142H20.4286L20.4285 18.8571Z" fill="white"/>
</svg>
