<svg xmlns="http://www.w3.org/2000/svg" width="26" height="26" viewBox="0 0 26 26">
    <g fill="none" fill-rule="evenodd">
        <g>
            <g>
                <g>
                    <g transform="translate(-1284 -341) translate(1123 215) translate(90 56) translate(71 70)">
                        <circle cx="12.65" cy="12.65" r="11.825" fill="#2C6DF9" stroke="#FFF" stroke-width="1.65"/>
                        <g fill="#FFF" fill-rule="nonzero">
                            <path d="M5.567 3.61c.462.461.462 1.21 0 1.672-.462.462-1.21.462-1.673 0-.461-.462-.461-1.211 0-1.673.462-.462 1.211-.462 1.673 0" transform="translate(8 9)"/>
                            <path d="M8.279 1.193h-.817L6.87.01H2.591L2 1.193l-.816.002c-.65.001-1.18.531-1.18 1.182L0 7.107c0 .652.53 1.182 1.183 1.182h7.096c.652 0 1.183-.53 1.183-1.182V2.376c0-.653-.53-1.183-1.183-1.183zM4.731 6.81c-1.305 0-2.366-1.061-2.366-2.366 0-1.304 1.061-2.365 2.366-2.365 1.304 0 2.365 1.061 2.365 2.365 0 1.305-1.06 2.366-2.365 2.366z" transform="translate(8 9)"/>
                        </g>
                    </g>
                </g>
            </g>
        </g>
    </g>
</svg>
