<svg xmlns="http://www.w3.org/2000/svg" width="25" height="25" viewBox="0 0 25 25">
   <g fill="none" fill-rule="evenodd" stroke-linecap="round">
      <g stroke="#FFF">
         <g>
            <path class="st0" d="M18.3,12.1V3.3c0-0.9-0.7-1.7-1.5-1.7H2.5C1.7,1.6,1,2.4,1,3.3V19v0.4c0,0.7,0.6,1.3,1.3,1.3h0.1h9.2"/>
            <g>
               <path class="st0" d="M7.6,9.2c0-0.7,0.9-1.2,2-1.2s2,0.6,2,1.2"/>
               <circle class="st0" cx="9.7" cy="5.3" r="0.9"/>
            </g>
            <line class="st0" x1="5.5" y1="11.8" x2="13.8" y2="11.8"/>
            <circle class="st0" cx="16.3" cy="18.8" r="4.7"/>
            <g>
               <line class="st0" x1="17.5" y1="18.8" x2="14.3" y2="18.8"/>
               <polyline class="st0" points="16.6,17.4 18.4,18.8 16.6,20.4"/>
            </g>
         </g>
      </g>
   </g>
</svg>
