<svg xmlns="http://www.w3.org/2000/svg" width="9" height="5" viewBox="0 0 9 5">
    <g fill="none" fill-rule="evenodd">
        <g fill="#2C6DF9" fill-rule="nonzero">
            <g>
                <g>
                    <g>
                        <path d="M65.608 6.163C65.5 6.054 65.371 6 65.223 6h-7.675c-.148 0-.277.054-.385.163-.109.108-.163.237-.163.385 0 .149.054.277.163.386L61 10.77c.109.108.237.163.385.163.149 0 .277-.055.386-.163l3.837-3.837c.108-.109.163-.237.163-.386 0-.148-.055-.277-.163-.385z" transform="translate(-1286 -804) translate(1123 215) translate(16 571) translate(90 12)"/>
                    </g>
                </g>
            </g>
        </g>
    </g>
</svg>
