<svg xmlns="http://www.w3.org/2000/svg" width="21" height="24" viewBox="0 0 21 24">
    <g fill="none" fill-rule="evenodd">
        <g fill="#2C6DF9" fill-rule="nonzero" stroke="#2C6DF9" stroke-width=".7">
            <g>
                <g>
                    <path d="M1.344 10.752c0-3.985 2.916-7.272 6.72-7.918v1.198l2.688-2.016L8.064 0v1.453C3.512 2.109 0 6.023 0 10.752c0 3.4 1.819 6.375 4.528 8.028l1.168-.876c-2.582-1.346-4.352-4.044-4.352-7.152zM18.816 10.752c0-3.4-1.819-6.375-4.528-8.028L13.12 3.6c2.582 1.346 4.352 4.044 4.352 7.152 0 3.986-2.915 7.283-6.72 7.927v-1.207l-2.688 2.016 2.688 2.016V20.05c4.551-.656 8.064-4.569 8.064-9.298z" transform="translate(-592 -226) translate(314 215) translate(279 12)"/>
                </g>
            </g>
        </g>
    </g>
</svg>
