<svg xmlns="http://www.w3.org/2000/svg" width="23" height="24" viewBox="0 0 23 24">
    <g fill="none" fill-rule="evenodd">
        <g fill-rule="nonzero">
            <g>
                <g transform="translate(-1139 -710) translate(1123 215) translate(16 495.5)">
                    <circle cx="11.5" cy="11.5" r="11.5" fill="#F6F7F9"/>
                    <g fill="#73788B">
                        <path d="M2.308 9.208c0 .178-.144.322-.322.322H.616c-.177 0-.321-.144-.321-.322V3.466c0-.178.144-.322.321-.322h1.37c.178 0 .322.144.322.322v5.742zM1.301 2.603C.583 2.603 0 2.02 0 1.3 0 .583.583 0 1.301 0c.719 0 1.302.583 1.302 1.301 0 .719-.583 1.302-1.302 1.302zM9.466 9.234c0 .163-.132.296-.295.296H7.7c-.164 0-.296-.133-.296-.296V6.54c0-.401.118-1.76-1.05-1.76-.906 0-1.09.93-1.127 1.347v3.107c0 .163-.132.296-.296.296H3.511c-.164 0-.296-.133-.296-.296V3.44c0-.164.132-.296.296-.296h1.421c.164 0 .296.132.296.296v.5c.336-.503.835-.892 1.898-.892 2.354 0 2.34 2.198 2.34 3.407v2.779z" transform="translate(7 6.5)"/>
                    </g>
                </g>
            </g>
        </g>
    </g>
</svg>
