<svg xmlns="http://www.w3.org/2000/svg" width="23" height="24" viewBox="0 0 23 24">
    <g fill="none" fill-rule="evenodd">
        <g fill-rule="nonzero">
            <g>
                <g transform="translate(-1178 -710) translate(1123 215) translate(55 495.5)">
                    <circle cx="11.5" cy="11.5" r="11.5" fill="#F6F7F9"/>
                    <g fill="#73788B" stroke="#FFF" stroke-linecap="round" stroke-width=".7">
                        <path stroke-linejoin="round" d="M10.08 8.4H1.12C.504 8.4 0 7.927 0 7.35v-6.3C0 .472.504 0 1.12 0h8.96c.616 0 1.12.472 1.12 1.05v6.3c0 .578-.504 1.05-1.12 1.05z" transform="translate(6 8)"/>
                        <path d="M10.08 0H1.12C.504 0 0 .49 0 1.089L5.6 4.9l5.6-3.811C11.2.49 10.696 0 10.08 0z" transform="translate(6 8)"/>
                    </g>
                </g>
            </g>
        </g>
    </g>
</svg>
