<svg width="13" height="14" viewBox="0 0 13 14" fill="none" xmlns="http://www.w3.org/2000/svg">
<path d="M12.6445 3.11328C12.8815 3.35026 13 3.63802 13 3.97656V12.4062C13 12.7448 12.8815 13.0326 12.6445 13.2695C12.4076 13.5065 12.1198 13.625 11.7812 13.625H4.46875C4.13021 13.625 3.84245 13.5065 3.60547 13.2695C3.36849 13.0326 3.25 12.7448 3.25 12.4062V9.5625H4.0625V12.4062C4.0625 12.5247 4.09635 12.6178 4.16406 12.6855C4.2487 12.7702 4.35026 12.8125 4.46875 12.8125H11.7812C11.8997 12.8125 11.9928 12.7702 12.0605 12.6855C12.1452 12.6178 12.1875 12.5247 12.1875 12.4062V4.6875H9.54688C9.3776 4.6875 9.23372 4.62826 9.11523 4.50977C8.99674 4.39128 8.9375 4.2474 8.9375 4.07812V1.4375H4.46875C4.40104 1.4375 4.33333 1.45443 4.26562 1.48828C4.19792 1.52214 4.14714 1.57292 4.11328 1.64062C4.07943 1.70833 4.0625 1.77604 4.0625 1.84375V7.9375H6.5V6.5918C6.5 6.30404 6.64388 6.09245 6.93164 5.95703C7.2194 5.83854 7.48177 5.88932 7.71875 6.10938L9.52148 7.83594C9.67383 7.97135 9.75 8.14062 9.75 8.34375C9.75 8.54688 9.67383 8.71615 9.52148 8.85156L7.71875 10.5781C7.48177 10.7982 7.2194 10.849 6.93164 10.7305C6.64388 10.5951 6.5 10.3835 6.5 10.0957V8.75H0.203125C0.0677083 8.75 0 8.68229 0 8.54688V8.14062C0 8.00521 0.0677083 7.9375 0.203125 7.9375H3.25V1.84375C3.25 1.6237 3.30078 1.42057 3.40234 1.23438C3.52083 1.04818 3.67318 0.904297 3.85938 0.802734C4.04557 0.684245 4.2487 0.625 4.46875 0.625H9.64844C9.98698 0.625 10.2747 0.74349 10.5117 0.980469L12.6445 3.11328ZM7.3125 6.8457V9.8418L8.88672 8.34375L7.3125 6.8457ZM9.75 3.875H12.1875C12.1536 3.80729 12.1113 3.74805 12.0605 3.69727L9.92773 1.56445C9.87695 1.51367 9.81771 1.47982 9.75 1.46289V3.875Z" fill="#FFA100"/>
</svg>
