<svg width="22" height="22" viewBox="0 0 22 22" fill="none" xmlns="http://www.w3.org/2000/svg">
<path d="M11 0C4.92486 0 0 4.92486 0 11C0 17.0751 4.92486 22 11 22C17.0751 22 22 17.0751 22 11C21.9935 4.92758 17.0724 0.00649135 11 0ZM11.7857 11C11.7857 11.4339 11.4339 11.7857 11 11.7857H4.71428C4.28033 11.7857 3.92855 11.4339 3.92855 11C3.92855 10.566 4.28033 10.2142 4.71428 10.2142H10.2143V4.71428C10.2143 4.28033 10.5661 3.92855 11 3.92855C11.434 3.92855 11.7857 4.28033 11.7857 4.71428V11Z" fill="white"/>
</svg>
