<svg xmlns="http://www.w3.org/2000/svg" width="25" height="25" viewBox="0 0 25 25">
   <g fill="none" fill-rule="evenodd" stroke-linecap="round">
      <g stroke="#FFF">
         <g>
            <path class="st0" d="M18.6,15.9V3.7c0-1.1-0.7-1.9-1.6-1.9H2.6C1.7,1.9,1,2.7,1,3.7v17.4v0.4C1,22.4,1.6,23,2.4,23h0.2h6.3"/>
            <g>
               <g>
                  <path class="st0" d="M7.5,10.3c0-0.8,1.1-1.4,2.2-1.4s2.2,0.6,2.2,1.4"/>
                  <ellipse class="st0" cx="9.9" cy="6" rx="1.1" ry="1.1"/>
               </g>
               <line class="st0" x1="5.1" y1="13.1" x2="14.4" y2="13.1"/>
            </g>
            <ellipse class="st0" cx="16.3" cy="20" rx="4.7" ry="4.6"/>
            <g>
               <line class="st0" x1="16.3" y1="18.9" x2="16.3" y2="22.1"/>
               <polyline class="st0" points="14.9,19.8 16.3,18.1 17.9,19.8 		"/>
            </g>
         </g>
      </g>
   </g>
</svg>
