<svg width="16" height="19" viewBox="0 0 16 19" fill="none" xmlns="http://www.w3.org/2000/svg">
<path d="M14.1875 2.5C14.6562 2.5 15.0547 2.66406 15.3828 2.99219C15.7109 3.32031 15.875 3.71875 15.875 4.1875V16.5625C15.875 17.0312 15.7109 17.4297 15.3828 17.7578C15.0547 18.0859 14.6562 18.25 14.1875 18.25H1.8125C1.34375 18.25 0.945312 18.0859 0.617188 17.7578C0.289063 17.4297 0.125 17.0312 0.125 16.5625V4.1875C0.125 3.71875 0.289063 3.32031 0.617188 2.99219C0.945312 2.66406 1.34375 2.5 1.8125 2.5H3.5V0.671875C3.5 0.390625 3.64062 0.25 3.92188 0.25H4.20312C4.48438 0.25 4.625 0.390625 4.625 0.671875V2.5H11.375V0.671875C11.375 0.390625 11.5156 0.25 11.7969 0.25H12.0781C12.3594 0.25 12.5 0.390625 12.5 0.671875V2.5H14.1875ZM1.8125 3.625C1.64844 3.625 1.50781 3.68359 1.39062 3.80078C1.29688 3.89453 1.25 4.02344 1.25 4.1875V5.875H14.75V4.1875C14.75 4.02344 14.6914 3.89453 14.5742 3.80078C14.4805 3.68359 14.3516 3.625 14.1875 3.625H1.8125ZM14.1875 17.125C14.3516 17.125 14.4805 17.0664 14.5742 16.9492C14.6914 16.8555 14.75 16.7266 14.75 16.5625V7H1.25V16.5625C1.25 16.7266 1.29688 16.8555 1.39062 16.9492C1.50781 17.0664 1.64844 17.125 1.8125 17.125H14.1875ZM11.8672 10.2695L7.12109 14.9805C6.91016 15.168 6.71094 15.168 6.52344 14.9805L4.13281 12.5898C3.94531 12.4023 3.94531 12.2031 4.13281 11.9922L4.44922 11.7109C4.63672 11.5 4.83594 11.5 5.04688 11.7109L6.80469 13.4688L10.9531 9.35547C11.1641 9.16797 11.3633 9.17969 11.5508 9.39062L11.8672 9.67188C12.0547 9.88281 12.0547 10.082 11.8672 10.2695Z" fill="white"/>
</svg>
