<svg width="22" height="20" viewBox="0 0 22 20" fill="none" xmlns="http://www.w3.org/2000/svg">
<path d="M19.6429 0.357147H17.2857V3.50002C17.2857 3.93397 16.9339 4.28575 16.5 4.28575C16.066 4.28575 15.7143 3.93397 15.7143 3.50002V0.357147H6.28569V3.50002C6.28569 3.93397 5.93392 4.28575 5.49997 4.28575C5.06601 4.28575 4.71424 3.93397 4.71424 3.50002V0.357147H2.35714C1.05533 0.357147 0 1.41248 0 2.71429V17.6429C0 18.9447 1.05533 20 2.35714 20H19.6429C20.9447 20 22 18.9447 22 17.6429V2.71429C22 1.41248 20.9447 0.357147 19.6429 0.357147ZM20.4285 17.6429C20.4285 18.0768 20.0768 18.4286 19.6428 18.4286H2.35714C1.92319 18.4286 1.57141 18.0768 1.57141 17.6429V7.42858H20.4285V17.6429Z" fill="white"/>
</svg>
