<svg width="519" height="253" viewBox="0 0 519 253" fill="none" xmlns="http://www.w3.org/2000/svg">
<path d="M25.6805 251.684C25.6805 251.684 -17.7201 197.87 8.32101 146.657C34.3621 95.4448 83.8355 107.598 153.274 55.519C237.574 -7.70516 296.766 -11.18 372.005 16.4592C414.536 32.0831 421.478 96.3144 489.181 136.24C550.212 172.234 500.464 233.455 468.35 243.003C436.236 252.55 414.536 252.55 414.536 252.55L25.6805 251.684Z" fill="#E7F3FE"/>
<path d="M284.061 135.988C273.228 157.978 259.648 218.061 255.943 221.354C252.237 224.647 230.838 237.406 227.133 243.579C223.428 249.752 225.074 247.693 226.72 248.105C228.367 248.518 321.375 248.927 321.375 248.927C321.375 248.927 310.675 185.138 309.441 184.725C308.211 184.316 284.061 135.988 284.061 135.988Z" fill="#A2DFF2"/>
<path d="M268.663 248.629C285.744 248.748 303.772 248.841 313.695 248.889L300.108 167.637C292.861 153.588 284.064 135.984 284.064 135.984C282.7 138.756 281.288 142.134 279.861 145.925C278.452 206.953 287.242 224.056 280.638 234.93C275.487 243.419 270.785 247.217 268.663 248.629Z" fill="#96CFE0"/>
<path d="M461.78 253H15.1556C13.2528 253 11.7105 251.458 11.7105 249.555C11.7105 247.652 13.2528 246.11 15.1556 246.11H461.78C463.682 246.11 465.225 247.652 465.225 249.555C465.225 251.458 463.682 253 461.78 253Z" fill="#2E5B9A"/>
<path d="M341.103 109.448C356.552 123.708 390.937 137.233 390.937 137.233C390.937 137.233 396.162 185.502 392.598 212.836C389.034 240.167 391.015 245.712 391.015 245.712H320.109C320.109 245.712 310.595 232.507 293.172 191.444C282.082 165.303 284.063 135.988 284.063 135.988L327.241 116.577L341.103 109.448Z" fill="#A2DFF2"/>
<path d="M320.109 245.708H391.012C391.012 245.708 389.031 240.163 392.595 212.833C395.531 190.326 392.506 153.626 391.346 141.365L384.898 138.6C368.709 143.264 359.381 167.41 356.638 191.006C354.802 206.793 328.646 222.336 311.536 230.895C317.159 241.613 320.109 245.708 320.109 245.708Z" fill="#96CFE0"/>
<path d="M302.728 59.9007C294.18 78.9364 304.441 96.5709 304.129 95.8276C303.817 95.0843 317.066 63.6878 317.066 63.6878L302.728 59.9007Z" fill="#2E5B9A"/>
<path d="M335.117 73.9785L345.957 113.6C346.262 114.718 346.002 115.907 345.274 116.811C342.732 119.944 339.112 126.384 331.809 128.45C330.389 128.852 328.639 128.96 327.223 128.963C325.733 128.967 324.451 127.919 324.168 126.458L316.903 88.8814L335.117 73.9785Z" fill="#F09959"/>
<path d="M333.047 77.2897L329.085 78.9138L316.903 88.8813L323.44 122.199C334.529 115.283 336.146 110.619 333.047 77.2897Z" fill="#E38540"/>
<path d="M334.718 91.5055C332.317 104.539 322.565 113.355 312.936 111.195C303.303 109.036 298.709 100.6 299.839 83.6861C300.727 70.4147 307.268 55.9912 316.901 58.1541C326.531 60.3097 337.115 78.472 334.718 91.5055Z" fill="#F09959"/>
<path d="M390.936 137.229C405.282 140.469 407.946 169.606 412.611 200.338C413.146 203.876 415.903 233.812 415.903 233.812C415.903 233.812 416.178 239.301 410.689 242.044C405.999 244.389 404.104 246.158 376.94 246.433C350.851 246.697 317.217 245.611 317.217 245.611C317.217 245.611 316.919 235.904 319.595 231.162C323.62 224.026 364.869 213.784 368.708 213.237C369.258 205.556 364.921 177.757 370.904 158.91C375.019 145.947 379.445 139.154 384.986 137.381C386.837 136.783 388.81 136.749 390.936 137.229Z" fill="#A2DFF2"/>
<path d="M331.97 246.203C344.833 246.396 362.482 246.582 376.943 246.433C404.107 246.158 406.002 244.389 410.692 242.044C416.181 239.301 416.453 234.637 416.453 234.637C416.453 234.637 413.68 202.783 413.16 199.242C410.142 178.664 406.879 155.116 399.29 143.748C406.426 164.66 407.574 182.302 407.701 189.839C407.764 193.656 407.414 198.881 406.299 202.534C405.066 206.582 401.91 209.12 396.971 207.749C387.093 205.006 374.747 210.766 374.747 210.766C374.747 210.766 384.075 207.474 392.857 210.491C401.635 213.509 419.746 233.541 399.993 240.948C393.946 243.211 357.737 245.062 331.97 246.203Z" fill="#96CFE0"/>
<path d="M321.791 232.072C321.791 232.072 325.448 225.855 332.947 225.855C340.447 225.855 339.897 238.112 338.801 242.133C337.704 246.158 333.312 246.34 333.312 246.34L317.216 245.608L321.791 232.072Z" fill="#96CFE0"/>
<path d="M305.476 249.135H203.998C202.467 249.135 201.215 247.882 201.215 246.351V245.552C201.215 244.021 202.467 242.768 203.998 242.768H305.472C307.003 242.768 308.256 244.021 308.256 245.552V246.351C308.256 247.882 307.003 249.135 305.476 249.135Z" fill="#75A1DE"/>
<path d="M319.781 232.805C304.049 227.133 299.924 229.27 296.367 228.234C287.589 225.673 285.393 227.869 279.721 243.415C278.591 246.515 281.918 246.708 285.21 246.708C288.503 246.708 292.528 240.305 293.807 239.572C295.089 238.84 298.564 238.476 298.564 238.476C298.564 238.476 297.467 238.476 295.821 241.769C294.175 245.062 292.164 246.34 294.725 246.34C297.285 246.34 297.653 242.133 302.406 243.047C307.164 243.961 305.335 246.34 317.224 246.158C329.113 245.976 338.088 246.158 337.895 239.022C337.713 232.255 338.46 228.869 332.041 227.68C327.099 226.769 319.781 232.805 319.781 232.805Z" fill="#F09959"/>
<path d="M319.986 232.804C330.503 231.615 327.419 244.716 326.319 245.816C325.222 246.912 332.176 246.202 332.176 246.202C332.176 246.202 335.442 240.947 332.7 234.912C329.957 228.876 324.468 228.601 324.468 228.601L319.804 231.162L319.986 232.804Z" fill="#A86B48"/>
<path d="M330.966 231.664C330.829 233.288 328.071 234.38 324.805 234.109C321.538 233.838 318.996 232.299 319.133 230.675C319.267 229.051 322.028 227.955 325.295 228.23C328.566 228.505 331.104 230.04 330.966 231.664Z" fill="#2E5B9A"/>
<path d="M330.132 230.857C330.01 232.307 327.546 233.288 324.624 233.043C321.703 232.797 319.436 231.426 319.559 229.973C319.682 228.523 322.146 227.542 325.067 227.788C327.984 228.033 330.255 229.408 330.132 230.857Z" fill="#3E6BAB"/>
<path d="M328.306 230.185C328.221 231.229 326.444 231.931 324.344 231.757C322.241 231.582 320.609 230.593 320.695 229.549C320.78 228.505 322.557 227.802 324.66 227.977C326.76 228.152 328.395 229.14 328.306 230.185Z" fill="#F0CEB4"/>
<path d="M200.287 229.032H98.066C92.6883 229.032 88.0799 225.138 87.1062 219.775L73.7753 146.182C72.5192 139.243 77.7742 132.843 84.7351 132.843H186.96C192.337 132.843 196.949 136.738 197.919 142.101L211.25 215.694C212.507 222.636 207.248 229.032 200.287 229.032Z" fill="#75A1DE"/>
<path d="M205.062 215.973L191.452 143.904C190.46 138.652 185.755 134.839 180.266 134.839H76.3837C74.2021 137.37 73.1132 140.838 73.7747 144.45L87.5739 219.585C88.5811 225.06 93.353 229.036 98.9165 229.036H193.872C200.978 229.032 206.344 222.77 205.062 215.973Z" fill="#A8CEFF"/>
<path d="M180.409 238.888H161.001C157.541 238.888 154.735 235.807 154.735 232.005V196.524C154.735 190.474 150.268 185.568 144.76 185.568H134.622C129.114 185.568 124.647 190.474 124.647 196.524V236.257C124.647 243.051 129.683 248.547 135.867 248.506L188.83 248.142C188.834 243.032 185.062 238.888 180.409 238.888Z" fill="#75A1DE"/>
<path d="M125.425 197.32V236.447C125.425 242.817 130.361 248.024 136.608 248.473L188.296 248.15C188.293 247.303 184.216 245.76 179.184 245.76H158.193C154.451 245.76 151.414 242.724 151.414 238.981V197.32C151.414 191.362 146.583 186.531 140.626 186.531H136.218C130.257 186.531 125.425 191.362 125.425 197.32Z" fill="#A8CEFF"/>
<path d="M233.619 234.38C241.43 230.039 250.978 231.489 254.449 235.826C257.92 240.167 258.496 243.058 250.684 243.058C242.872 243.058 227.252 243.638 224.647 243.348C222.046 243.058 233.619 234.38 233.619 234.38Z" fill="#F09959"/>
<path d="M245.191 231.775C253.579 229.75 259.313 234.633 266.312 239.297C272.388 243.348 273.607 247.284 266.891 243.928C257.054 239.011 251.267 238.431 251.267 238.431L245.191 231.775Z" fill="#F09959"/>
<path d="M237.546 234.355C233.309 234.355 229.611 233.002 226.62 233.251C223.628 233.5 214.158 243.218 215.653 243.969C215.76 244.021 215.875 244.073 216.002 244.118C218.25 244.947 220.789 244.029 222.056 241.996C223.398 239.844 225.575 237.343 228.114 238.238C232.35 239.732 236.795 239.591 236.795 239.591L237.546 234.355Z" fill="#F09959"/>
<path d="M235.066 244.794C230.725 243.058 237.671 228.594 239.983 228.594C242.298 228.594 250.976 235.536 250.976 235.536C250.976 235.536 248.935 236.688 242.008 234.38C240.272 233.801 238.827 243.638 236.801 244.794C234.776 245.953 235.066 244.794 235.066 244.794Z" fill="#F7A96F"/>
<path d="M299.833 91.3011C299.432 107.23 304.858 109.924 308.652 112.087C312.45 114.25 328.803 110.679 331.2 106.739C337.34 96.6602 332.174 87.2613 333.545 87.4063C334.92 87.5475 336.176 91.4721 339.755 96.5636C340.09 97.0393 342.416 100.183 342.539 99.1391C344.2 84.8754 351.629 80.4454 349.86 66.0181C348.556 55.3817 341.807 56.2253 341.807 56.2253C341.807 56.2253 337.451 47.3244 323.893 48.3353C314.81 49.0117 306.712 52.5497 297.351 54.9617C287.989 57.37 308.429 78.5946 320.575 70.8421C332.72 63.0896 326.722 80.1666 328.639 81.4934C330.557 82.8165 329.561 81.6681 330.438 90.4092C331.315 99.1502 320.218 104.855 317.037 105.602C306.865 107.995 305.166 106.316 302.936 102.488C301.004 99.1614 299.833 91.3011 299.833 91.3011Z" fill="#2E5B9A"/>
<path d="M341.931 86.3694C340.764 90.3832 337.913 92.9772 335.561 92.1633C333.208 91.3494 333.141 88.0864 333.416 83.4185C333.665 79.2115 337.434 76.8107 339.786 77.6246C342.139 78.4385 343.098 82.3556 341.931 86.3694Z" fill="#F09959"/>
<path d="M119.669 75.5917H32.8343C31.8903 75.5917 31.1247 74.8261 31.1247 73.8821V36.5133C31.1247 35.5693 31.8903 34.8037 32.8343 34.8037H119.669C120.613 34.8037 121.379 35.5693 121.379 36.5133V73.8784C121.379 74.8261 120.613 75.5917 119.669 75.5917Z" fill="#B7E1FF"/>
<path d="M117.529 73.6777H34.976C34.2141 73.6777 33.5934 73.0571 33.5934 72.2952V46.9007C33.5934 46.1388 34.2104 45.5182 34.976 45.5182H117.533C118.295 45.5182 118.916 46.1388 118.916 46.9007V72.2952C118.912 73.0571 118.295 73.6777 117.529 73.6777Z" fill="white"/>
<path d="M37.6129 40.9839H35.6097C35.186 40.9839 34.8441 40.642 34.8441 40.2183V38.5682C34.8441 38.1446 35.186 37.8027 35.6097 37.8027H37.6129C38.0365 37.8027 38.3785 38.1446 38.3785 38.5682V40.2183C38.3785 40.642 38.0365 40.9839 37.6129 40.9839Z" fill="white"/>
<path d="M44.0424 40.9839H42.0392C41.6155 40.9839 41.2736 40.6419 41.2736 40.2183V38.5682C41.2736 38.1445 41.6155 37.8026 42.0392 37.8026H44.0424C44.466 37.8026 44.808 38.1445 44.808 38.5682V40.2183C44.808 40.6419 44.466 40.9839 44.0424 40.9839Z" fill="white"/>
<path d="M50.4725 40.9839H48.4694C48.0457 40.9839 47.7038 40.6419 47.7038 40.2183V38.5682C47.7038 38.1445 48.0457 37.8026 48.4694 37.8026H50.4725C50.8962 37.8026 51.2381 38.1445 51.2381 38.5682V40.2183C51.2381 40.6419 50.8962 40.9839 50.4725 40.9839Z" fill="white"/>
<path d="M115.44 51.6912H70.311C69.5677 51.6912 68.9619 51.0854 68.9619 50.3421C68.9619 49.5988 69.5677 48.9931 70.311 48.9931H115.44C116.183 48.9931 116.789 49.5988 116.789 50.3421C116.789 51.0817 116.183 51.6912 115.44 51.6912Z" fill="#B7E1FF"/>
<path d="M81.4955 72.5179H36.363C35.6197 72.5179 35.0139 71.9121 35.0139 71.1689C35.0139 70.4256 35.6197 69.8198 36.363 69.8198H81.4918C82.2351 69.8198 82.8409 70.4256 82.8409 71.1689C82.8446 71.9121 82.2388 72.5179 81.4955 72.5179Z" fill="#B7E1FF"/>
<path d="M89.8096 72.5179H85.1416C84.8889 72.5179 84.6808 72.3098 84.6808 72.0571V70.2806C84.6808 70.0279 84.8889 69.8198 85.1416 69.8198H89.8096C90.0623 69.8198 90.2704 70.0279 90.2704 70.2806V72.0571C90.2704 72.3098 90.0623 72.5179 89.8096 72.5179Z" fill="#B7E1FF"/>
<path d="M96.8483 72.5179H92.1768C91.924 72.5179 91.7159 72.3098 91.7159 72.0571V70.2806C91.7159 70.0279 91.924 69.8198 92.1768 69.8198H96.8483C97.1011 69.8198 97.3092 70.0279 97.3092 70.2806V72.0571C97.3092 72.3098 97.1011 72.5179 96.8483 72.5179Z" fill="#B7E1FF"/>
<path d="M115.875 57.5705H41.1413C40.6358 57.5705 40.227 57.158 40.227 56.6563C40.227 56.1508 40.6395 55.742 41.1413 55.742H115.875C116.381 55.742 116.793 56.1546 116.793 56.6563C116.79 57.1617 116.381 57.5705 115.875 57.5705Z" fill="#B7E1FF"/>
<path d="M115.875 61.525H41.1413C40.6358 61.525 40.227 61.1125 40.227 60.6108C40.227 60.1091 40.6395 59.6965 41.1413 59.6965H115.875C116.381 59.6965 116.793 60.1091 116.793 60.6108C116.793 61.1125 116.381 61.525 115.875 61.525Z" fill="#B7E1FF"/>
<path d="M140.064 104.23H53.2296C52.2856 104.23 51.52 103.465 51.52 102.517V65.1518C51.52 64.2078 52.2856 63.4385 53.2296 63.4385H140.064C141.008 63.4385 141.778 64.2041 141.778 65.1518V102.517C141.774 103.465 141.008 104.23 140.064 104.23Z" fill="#9EC8FF"/>
<path d="M137.924 102.317H55.3667C54.6048 102.317 53.9842 101.696 53.9842 100.934V75.5396C53.9842 74.7777 54.6048 74.1571 55.3667 74.1571H137.924C138.686 74.1571 139.306 74.7777 139.306 75.5396V100.934C139.306 101.696 138.686 102.317 137.924 102.317Z" fill="white"/>
<path d="M58.0089 69.6268H56.0057C55.582 69.6268 55.2401 69.2849 55.2401 68.8612V67.2111C55.2401 66.7875 55.582 66.4455 56.0057 66.4455H58.0089C58.4325 66.4455 58.7745 66.7875 58.7745 67.2111V68.8612C58.7745 69.2812 58.4325 69.6268 58.0089 69.6268Z" fill="white"/>
<path d="M64.4409 69.6268H62.4377C62.0141 69.6268 61.6722 69.2849 61.6722 68.8612V67.2111C61.6722 66.7875 62.0141 66.4455 62.4377 66.4455H64.4409C64.8646 66.4455 65.2065 66.7875 65.2065 67.2111V68.8612C65.2065 69.2812 64.8608 69.6268 64.4409 69.6268Z" fill="white"/>
<path d="M70.8657 69.6268H68.8626C68.4389 69.6268 68.097 69.2849 68.097 68.8612V67.2111C68.097 66.7875 68.4389 66.4455 68.8626 66.4455H70.8657C71.2894 66.4455 71.6313 66.7875 71.6313 67.2111V68.8612C71.635 69.2812 71.2894 69.6268 70.8657 69.6268Z" fill="white"/>
<path d="M135.834 80.3296H90.7017C89.9584 80.3296 89.3526 79.7239 89.3526 78.9806C89.3526 78.2373 89.9621 77.6315 90.7017 77.6315H135.834C136.577 77.6315 137.183 78.2373 137.183 78.9806C137.183 79.7201 136.577 80.3296 135.834 80.3296Z" fill="#9EC8FF"/>
<path d="M101.89 101.157H56.7608C56.0175 101.157 55.4117 100.551 55.4117 99.808C55.4117 99.0647 56.0175 98.4589 56.7608 98.4589H101.89C102.633 98.4589 103.239 99.0647 103.239 99.808C103.242 100.551 102.633 101.157 101.89 101.157Z" fill="#9EC8FF"/>
<path d="M110.204 101.157H105.532C105.28 101.157 105.072 100.949 105.072 100.696V98.9198C105.072 98.6671 105.28 98.4589 105.532 98.4589H110.204C110.457 98.4589 110.665 98.6671 110.665 98.9198V100.696C110.668 100.953 110.46 101.157 110.204 101.157Z" fill="#9EC8FF"/>
<path d="M117.242 101.157H112.575C112.322 101.157 112.114 100.949 112.114 100.696V98.9198C112.114 98.6671 112.322 98.4589 112.575 98.4589H117.242C117.495 98.4589 117.703 98.6671 117.703 98.9198V100.696C117.707 100.953 117.499 101.157 117.242 101.157Z" fill="#9EC8FF"/>
<path d="M136.27 86.2092H61.532C61.0265 86.2092 60.6177 85.7967 60.6177 85.295C60.6177 84.7895 61.0303 84.3807 61.532 84.3807H136.266C136.771 84.3807 137.18 84.7933 137.18 85.295C137.184 85.8004 136.771 86.2092 136.27 86.2092Z" fill="#9EC8FF"/>
<path d="M136.27 90.1639H61.532C61.0265 90.1639 60.6177 89.7514 60.6177 89.2497C60.6177 88.7443 61.0303 88.3354 61.532 88.3354H136.266C136.771 88.3354 137.18 88.748 137.18 89.2497C137.184 89.7514 136.771 90.1639 136.27 90.1639Z" fill="#9EC8FF"/>
<path d="M173.883 94.248C173.883 100.718 168.639 105.966 162.169 105.966C155.699 105.966 150.455 100.722 150.455 94.248C150.455 87.7777 155.699 82.5338 162.169 82.5338C168.639 82.5338 173.883 87.7777 173.883 94.248Z" fill="#9CD499"/>
<path d="M161.006 98.5774C160.995 98.5774 160.984 98.5774 160.973 98.5774C160.727 98.5699 160.497 98.4585 160.337 98.2763L157.156 94.6603C156.829 94.2886 156.866 93.7274 157.238 93.4004C157.606 93.0733 158.17 93.1105 158.498 93.4821L161.058 96.3921L167.183 90.3975C167.536 90.0519 168.101 90.0593 168.443 90.4124C168.788 90.7654 168.781 91.3303 168.428 91.6722L161.63 98.3247C161.463 98.4882 161.237 98.5774 161.006 98.5774Z" fill="white"/>
<path d="M248.953 39.828H174.456C172.546 39.828 170.985 38.2671 170.985 36.3569V9.73967C170.985 7.82942 172.546 6.26851 174.456 6.26851H248.949C250.859 6.26851 252.42 7.82942 252.42 9.73967V36.3569C252.424 38.2634 250.859 39.828 248.953 39.828Z" fill="#9EC8FF"/>
<path d="M180.824 34.7626V53.278L202.16 31.9418C202.16 31.9418 181.255 34.7626 180.824 34.7626Z" fill="#9EC8FF"/>
<path d="M245.267 36.4982H178.14C176.52 36.4982 175.197 35.1752 175.197 33.5548V12.5383C175.197 10.9179 176.52 9.59488 178.14 9.59488H245.267C246.887 9.59488 248.21 10.9179 248.21 12.5383V33.5548C248.21 35.1752 246.887 36.4982 245.267 36.4982Z" fill="white"/>
<path d="M214.958 16.2473H181.978C181.183 16.2473 180.532 15.5969 180.532 14.8016C180.532 14.0063 181.183 13.3559 181.978 13.3559H214.958C215.753 13.3559 216.403 14.0063 216.403 14.8016C216.403 15.5969 215.753 16.2473 214.958 16.2473Z" fill="#9EC8FF"/>
<path d="M242.504 21.7812H181.335C180.893 21.7812 180.532 21.4207 180.532 20.9785V20.9636C180.532 20.5213 180.893 20.1608 181.335 20.1608H242.504C242.946 20.1608 243.307 20.5213 243.307 20.9636V20.9785C243.31 21.417 242.946 21.7812 242.504 21.7812Z" fill="#9EC8FF"/>
<path d="M242.504 24.9286H181.335C180.893 24.9286 180.532 24.5681 180.532 24.1259V24.111C180.532 23.6687 180.893 23.3082 181.335 23.3082H242.504C242.946 23.3082 243.307 23.6687 243.307 24.111V24.1259C243.31 24.5644 242.946 24.9286 242.504 24.9286Z" fill="#9EC8FF"/>
<path d="M229.862 35.3423H227.858C227.435 35.3423 227.093 35.0004 227.093 34.5767V32.9266C227.093 32.5029 227.435 32.161 227.858 32.161H229.862C230.285 32.161 230.627 32.5029 230.627 32.9266V34.5767C230.631 35.0004 230.285 35.3423 229.862 35.3423Z" fill="#9EC8FF"/>
<path d="M236.291 35.3422H234.288C233.864 35.3422 233.522 35.0003 233.522 34.5766V32.9265C233.522 32.5028 233.864 32.1609 234.288 32.1609H236.291C236.715 32.1609 237.057 32.5028 237.057 32.9265V34.5766C237.057 35.0003 236.715 35.3422 236.291 35.3422Z" fill="#9EC8FF"/>
<path d="M242.721 35.3422H240.718C240.294 35.3422 239.953 35.0003 239.953 34.5766V32.9265C239.953 32.5028 240.294 32.1609 240.718 32.1609H242.721C243.145 32.1609 243.487 32.5028 243.487 32.9265V34.5766C243.487 35.0003 243.145 35.3422 242.721 35.3422Z" fill="#9EC8FF"/>
</svg>
