<svg xmlns="http://www.w3.org/2000/svg" width="22" height="19" viewBox="0 0 22 19">
    <g fill="none" fill-rule="evenodd" stroke-linecap="round" stroke-linejoin="round">
        <g stroke="#FFF">
            <g>
                <path d="M19.7 15.2v2.2c0 .5-.4.9-.9.9H1.5c-.5 0-.9-.4-.9-.9V4.9c0-.5.4-.9.9-.9h17.3c.5 0 .9.4.9.9v3.9" transform="translate(-175 -924) translate(175 924)"/>
                <path d="M.6 4.7V3.6c0-.7.5-1.2 1.1-1.3L18.6.5M19.6 13.2h-5.9c-1 0-1.7-.8-1.7-1.7v-.7c0-1 .8-1.7 1.7-1.7h5.9c1 0 1.7.8 1.7 1.7v.7c.1.9-.7 1.7-1.7 1.7zM14.3 11.1L14.6 11.1" transform="translate(-175 -924) translate(175 924)"/>
            </g>
        </g>
    </g>
</svg>
