<svg xmlns="http://www.w3.org/2000/svg" width="103" height="83" viewBox="0 0 103 83">
    <defs>
        <linearGradient id="2951ux4mha" x1="50%" x2="50%" y1="0%" y2="100%">
            <stop offset="0%" stop-color="#ECF2FF"/>
            <stop offset="100%" stop-color="#FFF"/>
        </linearGradient>
    </defs>
    <g fill="none" fill-rule="evenodd">
        <g fill-rule="nonzero">
            <g>
                <g>
                    <path fill="url(#2951ux4mha)" d="M53.842.009C44.625-.262 3.422 5.702.169 42.569c-3.253 36.867 40.933 42.017 59.366 38.493 18.433-3.524 71.564-34.969 23.583-52.588-.271-.543-11.113-.271-10.03-12.2C74.171 4.345 63.059.28 53.842.009z" transform="translate(-642 -1551) translate(314 1460) translate(328 91.5)"/>
                    <g>
                        <g fill="#2C6DF9" font-family="Roboto-Regular, Roboto" font-size="14">
                            <text transform="translate(-642 -1551) translate(314 1460) translate(328 91.5) translate(26.5 8.296) translate(.5 48)">
                                <tspan x="0" y="13">No data</tspan>
                            </text>
                        </g>
                        <g opacity=".63">
                            <g>
                                <path fill="#E8EDFC" d="M19.796 38.931h16.5c.7 0 1.371-.278 1.866-.773.495-.495.773-1.166.773-1.866v-6.353c0-.587-.195-1.157-.556-1.62l-7.89-10.144c-.5-.644-1.27-1.02-2.086-1.019H11.189c-.814 0-1.582.376-2.082 1.019L1.216 28.319c-.36.463-.556 1.033-.556 1.62v6.353c0 .7.278 1.371.773 1.866.495.495 1.166.773 1.866.773h16.497z" transform="translate(-642 -1551) translate(314 1460) translate(328 91.5) translate(26.5 8.296) translate(3.998 .704)"/>
                                <path fill="#CAD9FC" d="M38.379 28.319l-7.89-10.144c-.5-.644-1.27-1.02-2.086-1.019h-1.98c.814 0 1.582.376 2.082 1.019l7.89 10.144c.36.463.556 1.033.556 1.62v6.353c0 .7-.278 1.371-.773 1.866-.495.495-1.166.773-1.866.773h1.98c.7 0 1.371-.278 1.866-.773.495-.495.773-1.166.773-1.866v-6.353c.001-.586-.193-1.156-.552-1.62z" transform="translate(-642 -1551) translate(314 1460) translate(328 91.5) translate(26.5 8.296) translate(3.998 .704)"/>
                                <path fill="#CCDCFF" d="M36.292 30.354l-7.919-10.558H11.217L3.299 30.354h8.422c.5 0 .957.283 1.18.73l1.25 2.5c.223.447.68.73 1.18.73h8.928c.5 0 .957-.283 1.18-.73l1.25-2.5c.223-.447.68-.73 1.18-.73h8.423z" transform="translate(-642 -1551) translate(314 1460) translate(328 91.5) translate(26.5 8.296) translate(3.998 .704)"/>
                                <path fill="#E8EDFC" d="M30.353 2.639v9.238c0 .525-.209 1.03-.581 1.4l-.085-.076-6.81-6.022 6.81-6.018c.425.373.668.912.666 1.478z" transform="translate(-642 -1551) translate(314 1460) translate(328 91.5) translate(26.5 8.296) translate(3.998 .704)"/>
                                <path fill="#CCDCFF" d="M29.772 13.276c-.37.372-.875.581-1.4.581H11.217c-.521 0-1.022-.207-1.392-.574l.079-.086 6.81-6.018 1.768 1.564c.75.66 1.875.66 2.626 0l1.768-1.564 6.81 6.018.086.079z" transform="translate(-642 -1551) translate(314 1460) translate(328 91.5) translate(26.5 8.296) translate(3.998 .704)"/>
                                <path fill="#7FACFA" d="M29.686 13.199l-6.809-6.02-.99.875 5.82 5.145.086.079c-.37.372-.875.581-1.4.581h1.98c.525 0 1.03-.209 1.4-.581l-.087-.079z" transform="translate(-642 -1551) translate(314 1460) translate(328 91.5) translate(26.5 8.296) translate(3.998 .704)"/>
                                <path fill="#E8EDFC" d="M16.714 7.179l-6.81 6.022-.079.086c-.377-.372-.589-.88-.587-1.41V2.639c-.002-.566.241-1.105.666-1.478l6.81 6.018z" transform="translate(-642 -1551) translate(314 1460) translate(328 91.5) translate(26.5 8.296) translate(3.998 .704)"/>
                                <path fill="#E8EDFC" d="M29.686 1.16l-6.81 6.018-1.768 1.565c-.75.66-1.875.66-2.626 0l-1.768-1.564-6.81-6.019c.361-.323.829-.5 1.313-.5h17.156c.484 0 .952.177 1.313.5z" transform="translate(-642 -1551) translate(314 1460) translate(328 91.5) translate(26.5 8.296) translate(3.998 .704)"/>
                                <path fill="#CAD9FC" d="M28.374.66h-1.98c.484 0 .952.177 1.313.5l-6.81 6.018-1.768 1.565c-.1.087-.208.163-.323.228.737.424 1.66.332 2.3-.228l1.768-1.564 6.813-6.019c-.361-.323-.829-.5-1.313-.5z" transform="translate(-642 -1551) translate(314 1460) translate(328 91.5) translate(26.5 8.296) translate(3.998 .704)"/>
                                <path fill="#FFF" d="M11.218 13.86h1.98c-1.094 0-1.98-.886-1.98-1.98V2.64c0-1.093.886-1.98 1.979-1.98h-1.979c-1.094 0-1.98.886-1.98 1.98v9.238c0 .525.208 1.03.58 1.401.37.372.875.581 1.4.581zM3.299 38.931h1.98c-1.457 0-2.639-1.182-2.639-2.639v-6.353c0-.587.196-1.157.556-1.62l7.89-10.144c.5-.643 1.268-1.019 2.082-1.019h-1.98c-.814 0-1.582.376-2.082 1.019l-7.89 10.144c-.36.463-.556 1.033-.556 1.62v6.353c0 1.457 1.182 2.639 2.639 2.639z" transform="translate(-642 -1551) translate(314 1460) translate(328 91.5) translate(26.5 8.296) translate(3.998 .704)"/>
                                <path fill="#FFF" d="M4.84 19.603L10.117 19.603 10.117 20.923 4.84 20.923z" transform="translate(-642 -1551) translate(314 1460) translate(328 91.5) translate(26.5 8.296) translate(3.998 .704) rotate(-52.11 7.478 20.263)"/>
                                <g fill="#428DFF">
                                    <path d="M8.006 20.664c.165-.21.186-.5.055-.732-.132-.233-.391-.363-.656-.33-.265.033-.485.223-.555.48-.071.258.02.533.232.697.287.222.7.171.924-.115z" transform="translate(-642 -1551) translate(314 1460) translate(328 91.5) translate(26.5 8.296) translate(3.998 .704)"/>
                                    <path d="M31.006 17.77c-.623-.807-1.586-1.278-2.606-1.274H11.189c-1.017-.002-1.978.469-2.6 1.274-.156.185-.198.44-.11.666.088.225.293.384.533.414.24.03.477-.073.618-.27.377-.48.953-.762 1.563-.764H28.4c.61.002 1.186.283 1.563.764l7.889 10.144c.27.348.416.775.417 1.215v6.357c0 1.094-.886 1.98-1.98 1.98H3.3c-.525 0-1.029-.209-1.4-.58s-.58-.875-.58-1.4v-6.358c0-.44.148-.867.417-1.215l4.649-5.976c.213-.288.158-.693-.125-.914-.282-.22-.69-.174-.916.103l-4.65 5.975c-.45.58-.694 1.293-.695 2.027v6.358c0 1.823 1.477 3.3 3.3 3.3h32.992c1.823 0 3.3-1.477 3.3-3.3v-6.358c0-.734-.245-1.447-.695-2.027L31.006 17.77z" transform="translate(-642 -1551) translate(314 1460) translate(328 91.5) translate(26.5 8.296) translate(3.998 .704)"/>
                                    <path d="M11.613 19.268c-.292-.219-.705-.16-.924.132L2.771 29.958c-.15.2-.174.468-.062.691.111.224.34.365.59.365h8.422c.25 0 .479.14.59.365l1.25 2.5c.333.672 1.02 1.096 1.77 1.094h8.926c.75.002 1.437-.422 1.77-1.094l1.25-2.5c.111-.224.34-.366.59-.365h3.144c.365 0 .66-.295.66-.66 0-.365-.295-.66-.66-.66h-3.142c-.75-.002-1.437.422-1.77 1.094l-1.25 2.5c-.111.224-.34.366-.59.365h-8.927c-.25 0-.479-.14-.59-.365l-1.25-2.5c-.333-.672-1.02-1.096-1.77-1.094H4.619l7.126-9.5c.219-.292.16-.705-.132-.924v-.002zM28.044 20.456l7.72 10.294c.141.189.373.287.607.26.234-.029.435-.18.528-.397.093-.217.062-.466-.079-.655L28.902 19.4c-.125-.166-.32-.264-.528-.264H15.177c-.365 0-.66.295-.66.66 0 .365.295.66.66.66h12.867zM11.217 14.517h17.161c1.457 0 2.639-1.182 2.639-2.639V2.639c-.002-.725-.303-1.418-.833-1.913-.006-.01-.021-.013-.03-.026-.483-.448-1.117-.698-1.776-.7H11.217c-.66.001-1.295.251-1.778.7-.009.009-.021.013-.03.022-.53.497-.831 1.19-.831 1.917v9.238c0 .7.278 1.372.773 1.867.495.495 1.166.773 1.866.773zm0-1.32c-.095 0-.189-.011-.281-.032l3.885-3.431c.177-.156.257-.395.21-.626-.047-.231-.213-.42-.437-.495-.223-.075-.47-.025-.647.131l-3.984 3.521c-.042-.125-.064-.256-.066-.388V2.639c-.001-.176.033-.35.1-.512l8.051 7.111c.999.885 2.501.885 3.5 0l8.05-7.107c.067.161.101.334.1.509v9.238c-.002.132-.024.263-.066.388l-3.99-3.522c-.177-.156-.424-.206-.647-.131-.224.075-.39.264-.437.495-.047.231.033.47.21.626l3.885 3.431c-.092.02-.186.031-.28.032H11.217zM28.378 1.32c.042 0 .082.009.123.013l-7.832 6.915c-.499.44-1.248.44-1.747 0l-7.828-6.916c.042 0 .081-.013.123-.013l17.161.001z" transform="translate(-642 -1551) translate(314 1460) translate(328 91.5) translate(26.5 8.296) translate(3.998 .704)"/>
                                </g>
                            </g>
                        </g>
                    </g>
                </g>
            </g>
        </g>
    </g>
</svg>
