<svg width="16" height="16" viewBox="0 0 16 16" fill="none" xmlns="http://www.w3.org/2000/svg">
<path d="M5.33333 5.91732C4.91912 5.91732 4.58333 6.2531 4.58333 6.66732C4.58333 7.08153 4.91912 7.41732 5.33333 7.41732V5.91732ZM10.6667 7.41732C11.0809 7.41732 11.4167 7.08153 11.4167 6.66732C11.4167 6.2531 11.0809 5.91732 10.6667 5.91732V7.41732ZM5.33333 8.58398C4.91912 8.58398 4.58333 8.91977 4.58333 9.33398C4.58333 9.7482 4.91912 10.084 5.33333 10.084V8.58398ZM10.6667 10.084C11.0809 10.084 11.4167 9.7482 11.4167 9.33398C11.4167 8.91977 11.0809 8.58398 10.6667 8.58398V10.084ZM5.33333 11.2507C4.91912 11.2507 4.58333 11.5864 4.58333 12.0007C4.58333 12.4149 4.91912 12.7507 5.33333 12.7507V11.2507ZM8 12.7507C8.41421 12.7507 8.75 12.4149 8.75 12.0007C8.75 11.5864 8.41421 11.2507 8 11.2507V12.7507ZM13.25 5.33398V12.0007H14.75V5.33398H13.25ZM11.3333 13.9173H4.66667V15.4173H11.3333V13.9173ZM2.75 12.0007V5.33398H1.25V12.0007H2.75ZM10.6667 3.41732H11.3333V1.91732H10.6667V3.41732ZM4.66667 3.41732H5.33333V1.91732H4.66667V3.41732ZM4.66667 13.9173C3.60812 13.9173 2.75 13.0592 2.75 12.0007H1.25C1.25 13.8876 2.77969 15.4173 4.66667 15.4173V13.9173ZM13.25 12.0007C13.25 13.0592 12.3919 13.9173 11.3333 13.9173V15.4173C13.2203 15.4173 14.75 13.8876 14.75 12.0007H13.25ZM14.75 5.33398C14.75 3.44701 13.2203 1.91732 11.3333 1.91732V3.41732C12.3919 3.41732 13.25 4.27544 13.25 5.33398H14.75ZM2.75 5.33398C2.75 4.27544 3.60812 3.41732 4.66667 3.41732V1.91732C2.77969 1.91732 1.25 3.44701 1.25 5.33398H2.75ZM5.33333 7.41732H10.6667V5.91732H5.33333V7.41732ZM5.33333 10.084H10.6667V8.58398H5.33333V10.084ZM5.33333 12.7507H8V11.2507H5.33333V12.7507ZM6.66667 2.08398H9.33333V0.583984H6.66667V2.08398ZM9.33333 3.25065H6.66667V4.75065H9.33333V3.25065ZM6.66667 3.25065C6.3445 3.25065 6.08333 2.98948 6.08333 2.66732H4.58333C4.58333 3.81791 5.51607 4.75065 6.66667 4.75065V3.25065ZM9.91667 2.66732C9.91667 2.98948 9.6555 3.25065 9.33333 3.25065V4.75065C10.4839 4.75065 11.4167 3.81791 11.4167 2.66732H9.91667ZM9.33333 2.08398C9.6555 2.08398 9.91667 2.34515 9.91667 2.66732H11.4167C11.4167 1.51672 10.4839 0.583984 9.33333 0.583984V2.08398ZM6.66667 0.583984C5.51607 0.583984 4.58333 1.51672 4.58333 2.66732H6.08333C6.08333 2.34515 6.3445 2.08398 6.66667 2.08398V0.583984Z" fill="#667085"/>
</svg>
