<?xml version="1.0" encoding="UTF-8"?>
<svg width="76px" height="76px" viewBox="0 0 76 76" version="1.1" xmlns="http://www.w3.org/2000/svg" xmlns:xlink="http://www.w3.org/1999/xlink">
    <!-- Generator: Sketch 59.1 (86144) - https://sketch.com -->
    <title>Group 17</title>
    <desc>Created with Sketch.</desc>
    <g id="Dashboard" stroke="none" stroke-width="1" fill="none" fill-rule="evenodd">
        <g id="2.4-WebApp---Dashboard-Empty" transform="translate(-607.000000, -673.000000)">
            <g id="Group-21" transform="translate(390.000000, 675.000000)">
                <g id="Group-17" transform="translate(219.000000, 0.000000)">
                    <g id="noun_add_3248225" opacity="0.200000003" transform="translate(20.470588, 18.352941)" fill="#000000" fill-rule="nonzero">
                        <g id="Group">
                            <path d="M27.0588235,0 L10.5882353,0 C10.5141606,0 10.440282,0.00764249029 10.3675882,0.0218823529 L10.3549412,0.0237058824 C10.2577748,0.044899961 10.163704,0.0783851458 10.075,0.123352941 C10.0506471,0.135117647 10.0275294,0.147705882 10.0039412,0.161294118 C9.91372506,0.211252839 9.83051324,0.272924917 9.75647059,0.344705882 L0.344705882,9.75647059 C0.272569912,9.83087933 0.210654176,9.91455459 0.160588235,10.0052941 C0.147647059,10.0278824 0.135647059,10.05 0.124235294,10.0733529 C0.078259054,10.1635514 0.0441710176,10.2593301 0.0228235294,10.3582941 L0.0228235294,10.3611765 C0.00786030553,10.435942 1.77635684e-15,10.5119874 1.77635684e-15,10.5882353 L1.77635684e-15,31.7647059 C0.00213966016,33.7130592 1.58105844,35.291978 3.52941176,35.2941176 L27.0588235,35.2941176 C29.0071769,35.291978 30.5860956,33.7130592 30.5882353,31.7647059 L30.5882353,3.52941176 C30.5860956,1.58105844 29.0071769,0.00213966016 27.0588235,0 L27.0588235,0 Z M9.41176471,4.01682353 L9.41176471,8.23529412 C9.4111162,8.88477207 8.88477207,9.4111162 8.23529412,9.41176471 L4.01682353,9.41176471 L9.41176471,4.01682353 Z M28.2352941,31.7647059 C28.2345485,32.4141436 27.7082612,32.9404309 27.0588235,32.9411765 L3.52941176,32.9411765 C2.87993381,32.940528 2.35358968,32.4141838 2.35294118,31.7647059 L2.35294118,11.7647059 L8.23529412,11.7647059 C10.1836474,11.7625662 11.7625662,10.1836474 11.7647059,8.23529412 L11.7647059,2.35294118 L27.0588235,2.35294118 C27.7082612,2.35368674 28.2345485,2.87997408 28.2352941,3.52941176 L28.2352941,31.7647059 Z" id="Shape"></path>
                            <path d="M20.5882353,20 L16.4705882,20 L16.4705882,15.8823529 C16.4705882,15.2326062 15.9438644,14.7058824 15.2941176,14.7058824 C14.6443709,14.7058824 14.1176471,15.2326062 14.1176471,15.8823529 L14.1176471,20 L10,20 C9.35025324,20 8.82352941,20.5267238 8.82352941,21.1764706 C8.82352941,21.8262174 9.35025324,22.3529412 10,22.3529412 L14.1176471,22.3529412 L14.1176471,26.4705882 C14.1176471,27.120335 14.6443709,27.6470588 15.2941176,27.6470588 C15.9438644,27.6470588 16.4705882,27.120335 16.4705882,26.4705882 L16.4705882,22.3529412 L20.5882353,22.3529412 C21.2379821,22.3529412 21.7647059,21.8262174 21.7647059,21.1764706 C21.7647059,20.5267238 21.2379821,20 20.5882353,20 Z" id="Path"></path>
                        </g>
                    </g>
                    <circle id="Oval" stroke="#979797" stroke-width="2.82352941" opacity="0.400000006" cx="36" cy="36" r="36"></circle>
                </g>
            </g>
        </g>
    </g>
</svg>