<?xml version="1.0" encoding="UTF-8"?>
<svg width="18px" height="17px" viewBox="0 0 18 17" version="1.1" xmlns="http://www.w3.org/2000/svg" xmlns:xlink="http://www.w3.org/1999/xlink">
    <!-- Generator: Sketch 59.1 (86144) - https://sketch.com -->
    <title>Delete </title>
    <desc>Created with Sketch.</desc>
    <g id="Web" stroke="none" stroke-width="1">
        <g id="4.1-WebApp---List-of-Expense-" transform="translate(-1053.000000, -193.000000)">
            <g id="Group_1299" transform="translate(1053.000000, 191.000000)">
                <g id="noun_Delete_3092151" transform="translate(0.000000, 2.256000)">
                    <path d="M17.6415652,1.74434783 L13.4196522,1.74434783 L13.4196522,0.936478261 C13.4176264,0.420117025 12.9995351,0.00202576378 12.4831739,6.56479702e-16 L5.59891304,6.56479702e-16 C5.08284048,0.00243036695 4.6651968,0.420403938 4.66317391,0.936478261 L4.66317391,1.74434783 L0.348869565,1.74434783 C0.156194225,1.74434783 0,1.90054205 0,2.09321739 C0,2.28589273 0.156194225,2.44208696 0.348869565,2.44208696 L2.58695652,2.44208696 L2.58695652,15.1817391 C2.58616731,15.5861861 2.74663586,15.9742629 3.0328316,16.2600424 C3.31902735,16.545822 3.70733723,16.7057256 4.11178261,16.7043567 L13.9518261,16.7043567 C14.356144,16.7053323 14.7441858,16.5451533 15.0300826,16.2592565 C15.3159794,15.9733597 15.4761584,15.585318 15.4751739,15.181 L15.4751739,2.45982609 L17.623087,2.45982609 C17.8157623,2.45982609 17.9719565,2.30363186 17.9719565,2.11095652 C17.9797311,2.01781417 17.9486499,1.9256021 17.8860778,1.85617095 C17.8235058,1.7867398 17.7350117,1.74626874 17.6415652,1.74434783 Z M5.36017391,0.936478261 C5.36253942,0.805618629 5.46805341,0.70010464 5.59891304,0.69773913 L12.4646957,0.69773913 C12.5955553,0.70010464 12.7010693,0.805618629 12.7034348,0.936478261 L12.7034348,1.74434783 L5.36017391,1.74434783 L5.36017391,0.936478261 Z M14.7774348,15.2016957 C14.7784229,15.4211582 14.6916789,15.6319176 14.5364939,15.7871026 C14.3813089,15.9422876 14.1705495,16.0290316 13.951087,16.0280518 L4.11178261,16.0280518 C3.8923201,16.0290316 3.68156069,15.9422876 3.52637569,15.7871026 C3.37119069,15.6319176 3.28444664,15.4211582 3.28542643,15.2016957 L3.28542643,2.49678261 L14.7781739,2.49678261 L14.7774348,15.2016957 Z" id="Path_596"></path>
                </g>
            </g>
        </g>
    </g>
</svg>
