<?xml version="1.0" encoding="UTF-8"?>
<svg width="19px" height="18px" viewBox="0 0 19 18" version="1.1" xmlns="http://www.w3.org/2000/svg" xmlns:xlink="http://www.w3.org/1999/xlink">
    <!-- Generator: Sketch 59.1 (86144) - https://sketch.com -->
    <title>Export</title>
    <desc>Created with Sketch.</desc>
    <g id="Web" stroke="none" stroke-width="1">
        <g id="4.1-WebApp---List-of-Expense-" transform="translate(-1103.000000, -192.000000)">
            <g id="Group_1299" transform="translate(1053.000000, 191.000000)">
                <g id="noun_export_1333935" transform="translate(50.734000, 1.256000)">
                    <g id="Group_1297">
                        <polygon id="Path_597" points="9.44295652 11.7 9.44295652 1.75069565 13.7473043 6.08086957 14.4148696 5.41330435 8.982 0 3.54678261 5.41252174 4.21434783 6.08008696 8.51869565 1.74991304 8.51869565 11.7"></polygon>
                        <path d="M2.73913043,17.6877463 L15.2217391,17.6877463 C15.9487116,17.6894065 16.6463893,17.4013558 17.1604378,16.8873074 C17.6744863,16.3732589 17.9625369,15.6755811 17.9608768,14.9486087 L17.9608768,7.09356522 L17.0428696,7.09356522 L17.0428696,14.9470435 C17.0458074,15.4305168 16.8550473,15.8950393 16.5131737,16.2369129 C16.1713001,16.5787865 15.7067777,16.7695465 15.2233043,16.7666087 L2.73913043,16.7666087 C2.25565709,16.7695465 1.79113464,16.5787865 1.44926105,16.2369129 C1.10738746,15.8950393 0.916627364,15.4305168 0.919565217,14.9470435 L0.919565217,7.09356522 L-1.12425307e-05,7.09356522 L-1.12425307e-05,14.9470435 C-0.00208452214,15.6742868 0.285781963,16.3723677 0.799875851,16.8867553 C1.31396974,17.401143 2.01188605,17.6894082 2.73913043,17.6877463 Z" id="Path_598"></path>
                    </g>
                </g>
            </g>
        </g>
    </g>
</svg>
