<?xml version="1.0" encoding="UTF-8"?>
<svg width="18px" height="18px" viewBox="0 0 18 18" version="1.1" xmlns="http://www.w3.org/2000/svg" xmlns:xlink="http://www.w3.org/1999/xlink">
    <!-- Generator: Sketch 59.1 (86144) - https://sketch.com -->
    <title>Filter</title>
    <desc>Created with Sketch.</desc>
    <g id="Web" stroke="none" stroke-width="1">
        <g id="4.1-WebApp---List-of-Expense-" transform="translate(-1005.000000, -193.000000)">
            <g id="noun_filter_3093399" transform="translate(1005.000000, 193.000000)">
                <path d="M17.9624617,0.189484615 C17.9034772,0.0731769231 17.7841581,0 17.6538314,0 L0.346168557,0 C0.215841855,0 0.0965228272,0.0731769231 0.0375383121,0.189484615 C-0.021446203,0.305584615 -0.0103000681,0.445223077 0.0666151858,0.55035 L6.5769272,9.45924231 L6.5769272,17.6538462 C6.5769272,17.7650654 6.63033864,17.8695 6.72075387,17.9345769 C6.7804307,17.9776731 6.85142673,18 6.92308045,18 C6.95991116,18 6.99677648,17.9940808 7.03260334,17.9822423 L11.1864424,16.5976269 C11.3277422,16.5504808 11.4230728,16.4183192 11.4230728,16.2692308 L11.4230728,9.45924231 L17.9333848,0.55035 C18.0103001,0.445188462 18.0214462,0.305584615 17.9624617,0.189484615 Z M10.7973662,9.14199231 C10.754097,9.20115 10.7307663,9.27280385 10.7307663,9.34615385 L10.7307663,16.0197577 L7.26923371,17.1736615 L7.26923371,9.34615385 C7.26923371,9.27280385 7.24590298,9.20115 7.20263382,9.14199231 L1.02781355,0.692307692 L16.9721518,0.692307692 L10.7973662,9.14199231 Z" id="Shape"></path>
            </g>
        </g>
    </g>
</svg>
