<?xml version="1.0" encoding="UTF-8"?>
<svg width="18px" height="18px" viewBox="0 0 18 18" version="1.1" xmlns="http://www.w3.org/2000/svg" xmlns:xlink="http://www.w3.org/1999/xlink">
    <!-- Generator: Sketch 59.1 (86144) - https://sketch.com -->
    <title>Shape</title>
    <desc>Created with Sketch.</desc>
    <g id="Web" stroke="none" stroke-width="1" fill-rule="evenodd">
        <g id="7.1-The-Employ-View-his-own-Report-List" transform="translate(-997.000000, -194.000000)" fill-rule="nonzero">
            <g id="Group-3" transform="translate(997.000000, 194.000000)">
                <g id="noun_filter_3093399">
                    <path d="M17.6538314,0 C17.7841581,0 17.9034772,0.0731769231 17.9624617,0.189484615 C18.0214462,0.305584615 18.0103001,0.445188462 17.9333848,0.55035 L17.9333848,0.55035 L11.4230728,9.45924231 L11.4230728,16.2692308 C11.4230728,16.4183192 11.3277422,16.5504808 11.1864424,16.5976269 L11.1864424,16.5976269 L7.03260334,17.9822423 C6.99677648,17.9940808 6.95991116,18 6.92308045,18 C6.85142673,18 6.7804307,17.9776731 6.72075387,17.9345769 C6.63033864,17.8695 6.5769272,17.7650654 6.5769272,17.6538462 L6.5769272,17.6538462 L6.5769272,9.45924231 L0.0666151858,0.55035 C-0.0103000681,0.445223077 -0.021446203,0.305584615 0.0375383121,0.189484615 C0.0965228272,0.0731769231 0.215841855,0 0.346168557,0 L0.346168557,0 Z" id="Shape"></path>
                </g>
            </g>
        </g>
    </g>
</svg>
