<?xml version="1.0" encoding="UTF-8"?>
<svg width="14px" height="14px" viewBox="0 0 14 14" version="1.1" xmlns="http://www.w3.org/2000/svg" xmlns:xlink="http://www.w3.org/1999/xlink">
    <!-- Generator: Sketch 59.1 (86144) - https://sketch.com -->
    <title>Group</title>
    <desc>Created with Sketch.</desc>
    <g id="Web" stroke="none" stroke-width="1" fill="none" fill-rule="evenodd">
        <g id="7.2.3-Add-New-Report---ViewAn-Expense" transform="translate(-1158.000000, -629.000000)" fill="#000000" fill-rule="nonzero">
            <g id="Group-3" transform="translate(880.000000, 282.000000)">
                <g id="Group-2" transform="translate(278.000000, 346.000000)">
                    <g id="noun_Tag_995327" transform="translate(0.000000, 1.000000)">
                        <g id="Group">
                            <path d="M12.7823684,1.5995 L13.8498684,0.532 C13.9556053,0.426631579 13.9552368,0.255684211 13.8498684,0.150315789 C13.7448684,0.0449473684 13.5739211,0.0449473684 13.4685526,0.150315789 L12.4006842,1.21818421 L7.92528947,0.955868421 C7.84828947,0.951631579 7.77276316,0.98 7.71842105,1.03471053 L0.150131579,8.60226316 C0.0447631579,8.70763158 0.0447631579,8.87857895 0.150131579,8.98394737 L5.01586842,13.8496842 C5.12123684,13.9550526 5.29218421,13.9550526 5.39755263,13.8496842 L12.9656579,6.28194737 C13.0203684,6.22760526 13.0483684,6.15207895 13.0441316,6.07507895 L12.7823684,1.5995 Z M9.88178947,4.11821053 C9.98715789,4.22394737 10.1581053,4.22394737 10.2634737,4.11821053 L10.5268947,3.85478947 C10.5491842,3.99552632 10.5068158,4.14473684 10.3985,4.25305263 C10.2188947,4.43265789 9.92673684,4.43265789 9.74731579,4.25305263 C9.56789474,4.07344737 9.56734211,3.78128947 9.74731579,3.60186842 C9.85526316,3.49355263 10.0044737,3.45118421 10.1452105,3.47310526 L9.88178947,3.73652632 C9.77623684,3.84189474 9.77623684,4.01284211 9.88178947,4.11821053 Z M5.20707895,13.2773421 L0.722657895,8.79292105 L8.01444737,1.50186842 L11.8896842,1.72844737 L10.5620789,3.05642105 C10.1811316,2.842 9.68928947,2.89634211 9.36544737,3.22018421 C8.97547368,3.61015789 8.97547368,4.24457895 9.36544737,4.63492105 C9.75542105,5.02489474 10.3902105,5.02489474 10.7801842,4.63492105 C11.1040263,4.31107895 11.158,3.81886842 10.9439474,3.43792105 L12.2715526,2.11031579 L12.4985,5.98592105 L5.20707895,13.2773421 Z" id="Shape"></path>
                            <path d="M5.91113158,10.7199474 L3.28005263,8.08886842 C3.17468421,7.98386842 3.00410526,7.98386842 2.89873684,8.08886842 C2.79336842,8.19460526 2.79336842,8.36555263 2.89873684,8.47055263 L5.52981579,11.1016316 C5.63481579,11.207 5.80576316,11.207 5.91113158,11.1016316 C6.0165,10.9962632 6.0165,10.8255 5.91113158,10.7199474 Z" id="Path"></path>
                            <path d="M6.81744737,9.81363158 L4.18636842,7.18292105 C4.08136842,7.07718421 3.91042105,7.07718421 3.80505263,7.18292105 C3.69968421,7.28792105 3.69968421,7.45886842 3.80505263,7.56460526 L6.43613158,10.1953158 C6.54113158,10.3003158 6.71207895,10.3003158 6.81744737,10.1953158 C6.92281579,10.0899474 6.92281579,9.91918421 6.81744737,9.81363158 Z" id="Path"></path>
                            <path d="M4.71118421,6.27623684 C4.60581579,6.38160526 4.60581579,6.55255263 4.71118421,6.65755263 L7.34226316,9.28863158 C7.44726316,9.39436842 7.61821053,9.39436842 7.72357895,9.28863158 C7.82857895,9.18326316 7.82857895,9.01268421 7.72357895,8.90731579 L5.09268421,6.27623684 C4.98713158,6.17086842 4.81655263,6.17086842 4.71118421,6.27623684 Z" id="Path"></path>
                        </g>
                    </g>
                </g>
            </g>
        </g>
    </g>
</svg>