<?xml version="1.0" encoding="UTF-8"?>
<svg width="18px" height="12px" viewBox="0 0 18 12" version="1.1" xmlns="http://www.w3.org/2000/svg" xmlns:xlink="http://www.w3.org/1999/xlink">
    <!-- Generator: Sketch 59.1 (86144) - https://sketch.com -->
    <title>View</title>
    <desc>Created with Sketch.</desc>
    <g id="Web" stroke="none" stroke-width="1" fill="none" fill-rule="evenodd" opacity="0.5">
        <g id="7.1-The-Employ-View-his-own-Report-List" transform="translate(-1141.000000, -378.000000)" fill="#000000" fill-rule="nonzero">
            <g id="noun_View_1146200" transform="translate(1141.000000, 378.000000)">
                <g id="Group">
                    <path d="M8.775,11.54025 C4.08825,11.54025 0.4275,6.45525 0.2745,6.23925 C0.108720505,6.00540042 0.108720505,5.69234958 0.2745,5.4585 C0.4275,5.2335 4.0995,0.1575 8.775,0.1575 C13.4505,0.1575 17.1225,5.2425 17.2755,5.4585 C17.4412795,5.69234958 17.4412795,6.00540042 17.2755,6.23925 C17.1225,6.4575 13.46175,11.54025 8.775,11.54025 Z M1.67625,5.85 C2.592,6.975 5.4765,10.1925 8.775,10.1925 C12.0735,10.1925 14.958,6.975 15.87375,5.85 C14.95575,4.725 12.0735,1.50975 8.775,1.50975 C5.4765,1.50975 2.592,4.725 1.67625,5.85 Z" id="Shape"></path>
                    <path d="M8.775,8.80875 C7.57532088,8.82243544 6.48613826,8.11030087 6.01752704,7.00584589 C5.54891582,5.9013909 5.79365529,4.62328409 6.63713156,3.7700754 C7.48060783,2.91686671 8.75582291,2.65748104 9.86558108,3.11339122 C10.9753392,3.56930141 11.6999219,4.65024283 11.7000223,5.85 C11.7062438,7.47349751 10.3984623,8.7963688 8.775,8.80875 L8.775,8.80875 Z M8.775,4.2435 C8.12121994,4.22978177 7.52418624,4.61316831 7.26464238,5.21337956 C7.00509852,5.8135908 7.13469296,6.5111865 7.59248644,6.97813585 C8.05027991,7.44508519 8.74517288,7.58846665 9.35040544,7.34085788 C9.955638,7.0932491 10.3507707,6.50392351 10.35,5.85 C10.3575045,4.97156226 9.65339942,4.25236918 8.775,4.24125 L8.775,4.2435 Z" id="Shape"></path>
                </g>
            </g>
        </g>
    </g>
</svg>