<svg width="64" height="64" viewBox="0 0 64 64" fill="none" xmlns="http://www.w3.org/2000/svg">
<g id="Group 11">
<circle id="Oval" opacity="0.54741" cx="32" cy="32" r="32" fill="#E9F0FF"/>
<circle id="Oval Copy" cx="32" cy="32" r="23" fill="#E4EDFF"/>
<g id="Group 2528">
<circle id="Ellipse 25" opacity="0.25" cx="30" cy="30" r="30" fill="#E4EDFF"/>
<circle id="Ellipse 26" cx="30" cy="30" r="20" fill="#E4EDFF"/>
<g id="Frame" clip-path="url(#clip0_4087_8572)">
<path id="Vector" d="M26.3773 37.7467C26.3779 37.9922 26.4507 38.2322 26.5867 38.4366L27.2547 39.4401C27.459 39.7491 27.9254 39.9979 28.2953 39.9979H30.7055C31.0754 39.9979 31.5418 39.7491 31.7461 39.4401L32.4137 38.4366C32.5406 38.2278 32.6132 37.9907 32.625 37.7467V36.2491H26.375L26.3773 37.7467ZM29.4785 19.9991C25.4938 20.0112 22.625 23.2412 22.625 26.8741C22.6227 28.5385 23.2277 30.1466 24.3266 31.3967C24.9719 32.133 25.9812 33.6709 26.366 34.9686C26.366 34.9795 26.3688 34.9893 26.3703 34.9991H32.6297C32.6297 34.9893 32.6324 34.9795 32.634 34.9686C33.0188 33.6709 34.0281 32.133 34.6734 31.3967C35.7723 30.1466 36.3773 28.5385 36.375 26.8741C36.375 23.0705 33.2855 19.9869 29.4785 19.9991ZM29.5 23.7491C28.6715 23.75 27.8772 24.0795 27.2913 24.6654C26.7055 25.2512 26.3759 26.0455 26.375 26.8741C26.375 27.0398 26.3092 27.1988 26.1919 27.316C26.0747 27.4332 25.9158 27.4991 25.75 27.4991C25.5842 27.4991 25.4253 27.4332 25.3081 27.316C25.1908 27.1988 25.125 27.0398 25.125 26.8741C25.1262 25.7141 25.5876 24.602 26.4078 23.7818C27.228 22.9616 28.3401 22.5003 29.5 22.4991C29.6658 22.4991 29.8247 22.5649 29.9419 22.6821C30.0592 22.7993 30.125 22.9583 30.125 23.1241C30.125 23.2898 30.0592 23.4488 29.9419 23.566C29.8247 23.6832 29.6658 23.7491 29.5 23.7491ZM21.375 27.4991C21.375 27.2504 21.2762 27.012 21.1004 26.8361C20.9246 26.6603 20.6861 26.5616 20.4375 26.5616H17.9375C17.6889 26.5616 17.4504 26.6603 17.2746 26.8361C17.0988 27.012 17 27.2504 17 27.4991C17 27.7477 17.0988 27.9862 17.2746 28.162C17.4504 28.3378 17.6889 28.4366 17.9375 28.4366H20.4375C20.6861 28.4366 20.9246 28.3378 21.1004 28.162C21.2762 27.9862 21.375 27.7477 21.375 27.4991ZM41.0625 26.5616H38.5625C38.3139 26.5616 38.0754 26.6603 37.8996 26.8361C37.7238 27.012 37.625 27.2504 37.625 27.4991C37.625 27.7477 37.7238 27.9862 37.8996 28.162C38.0754 28.3378 38.3139 28.4366 38.5625 28.4366H41.0625C41.3111 28.4366 41.5496 28.3378 41.7254 28.162C41.9012 27.9862 42 27.7477 42 27.4991C42 27.2504 41.9012 27.012 41.7254 26.8361C41.5496 26.6603 41.3111 26.5616 41.0625 26.5616ZM22.1203 22.1561L19.9555 20.9061C19.8488 20.8418 19.7303 20.7995 19.6071 20.7816C19.4838 20.7636 19.3582 20.7704 19.2376 20.8015C19.117 20.8326 19.0038 20.8875 18.9047 20.9628C18.8055 21.0382 18.7223 21.1326 18.6601 21.2404C18.5978 21.3483 18.5576 21.4675 18.5419 21.591C18.5262 21.7146 18.5353 21.84 18.5686 21.9601C18.6019 22.0801 18.6588 22.1922 18.736 22.29C18.8131 22.3878 18.909 22.4692 19.018 22.5295L21.1828 23.7795C21.2895 23.8438 21.408 23.8861 21.5312 23.9041C21.6545 23.922 21.7801 23.9152 21.9007 23.8841C22.0213 23.853 22.1344 23.7981 22.2336 23.7228C22.3328 23.6474 22.4159 23.553 22.4782 23.4452C22.5405 23.3373 22.5807 23.2181 22.5964 23.0946C22.6121 22.971 22.603 22.8456 22.5697 22.7256C22.5364 22.6055 22.4795 22.4934 22.4023 22.3956C22.3252 22.2978 22.2293 22.2164 22.1203 22.1561ZM39.982 32.4686L37.8172 31.2186C37.7105 31.1543 37.592 31.112 37.4688 31.0941C37.3455 31.0761 37.2199 31.0829 37.0993 31.114C36.9787 31.1451 36.8656 31.2 36.7664 31.2753C36.6672 31.3507 36.5841 31.4451 36.5218 31.5529C36.4595 31.6608 36.4193 31.78 36.4036 31.9035C36.3879 32.0271 36.397 32.1526 36.4303 32.2726C36.4636 32.3926 36.5205 32.5047 36.5977 32.6025C36.6748 32.7003 36.7707 32.7817 36.8797 32.842L39.0445 34.092C39.2595 34.211 39.5126 34.2408 39.7493 34.1751C39.986 34.1094 40.1875 33.9533 40.3103 33.7406C40.4332 33.5278 40.4676 33.2754 40.4062 33.0375C40.3448 32.7996 40.1925 32.5953 39.982 32.4686ZM21.1828 31.2186L19.018 32.4686C18.909 32.5289 18.8131 32.6103 18.736 32.7081C18.6588 32.8059 18.6019 32.918 18.5686 33.0381C18.5353 33.1581 18.5262 33.2835 18.5419 33.4071C18.5576 33.5306 18.5978 33.6498 18.6601 33.7577C18.7223 33.8655 18.8055 33.9599 18.9047 34.0353C19.0038 34.1106 19.117 34.1655 19.2376 34.1966C19.3582 34.2277 19.4838 34.2345 19.6071 34.2166C19.7303 34.1986 19.8488 34.1563 19.9555 34.092L22.1203 32.842C22.3308 32.7153 22.4831 32.511 22.5445 32.2731C22.6059 32.0353 22.5715 31.7828 22.4486 31.57C22.3257 31.3573 22.1243 31.2013 21.8876 31.1355C21.6508 31.0698 21.3978 31.0996 21.1828 31.2186ZM37.3492 23.9053C37.5138 23.9056 37.6756 23.8622 37.818 23.7795L39.9828 22.5295C40.1933 22.4028 40.3456 22.1985 40.407 21.9606C40.4684 21.7228 40.434 21.4703 40.3111 21.2575C40.1882 21.0448 39.9868 20.8888 39.7501 20.823C39.5133 20.7573 39.2603 20.7871 39.0453 20.9061L36.8805 22.1561C36.7018 22.2593 36.5622 22.4186 36.4833 22.6092C36.4044 22.7999 36.3906 23.0112 36.444 23.2105C36.4974 23.4098 36.615 23.5859 36.7787 23.7115C36.9424 23.8371 37.1429 23.9052 37.3492 23.9053Z" fill="#2C6DF9"/>
</g>
</g>
</g>
<defs>
<clipPath id="clip0_4087_8572">
<rect width="25" height="20" fill="white" transform="translate(17 20)"/>
</clipPath>
</defs>
</svg>
