<svg width="14" height="15" viewBox="0 0 14 15" fill="none" xmlns="http://www.w3.org/2000/svg">
<path fill-rule="evenodd" clip-rule="evenodd" d="M10.3359 9.8667L13.7871 13.5488C14.0791 13.8603 14.0694 14.3569 13.766 14.6564C13.6232 14.7974 13.4351 14.875 13.2368 14.875C13.0273 14.875 12.8318 14.7896 12.6864 14.6348L9.20899 10.9248C8.22158 11.6366 7.06667 12.0116 5.85474 12.0116C2.62649 12.0116 0 9.31731 0 6.00578C0 2.69424 2.62649 0 5.85474 0C9.08299 0 11.7095 2.69424 11.7095 6.00578C11.7095 7.42314 11.2233 8.78462 10.3359 9.8667ZM10.1822 6.00573C10.1822 3.55799 8.24098 1.56668 5.85479 1.56668C3.4686 1.56668 1.52738 3.55799 1.52738 6.00573C1.52738 8.45348 3.4686 10.4448 5.85479 10.4448C8.24098 10.4448 10.1822 8.45348 10.1822 6.00573Z" fill="#161C29"/>
</svg>
