<svg width="60" height="60" viewBox="0 0 60 60" fill="none" xmlns="http://www.w3.org/2000/svg">
<circle opacity="0.25" cx="30" cy="30" r="30" fill="#E4EDFF"/>
<circle cx="30" cy="30" r="20" fill="#E4EDFF"/>
<path d="M26.3773 37.7468C26.3779 37.9923 26.4507 38.2322 26.5867 38.4366L27.2547 39.4401C27.459 39.7491 27.9254 39.998 28.2953 39.998H30.7055C31.0754 39.998 31.5418 39.7491 31.7461 39.4401L32.4137 38.4366C32.5406 38.2279 32.6132 37.9908 32.625 37.7468V36.2491H26.375L26.3773 37.7468ZM29.4785 19.9991C25.4938 20.0112 22.625 23.2413 22.625 26.8741C22.6227 28.5386 23.2277 30.1466 24.3266 31.3968C24.9719 32.1331 25.9813 33.671 26.366 34.9687C26.366 34.9796 26.3688 34.9894 26.3703 34.9991H32.6297C32.6297 34.9894 32.6324 34.9796 32.634 34.9687C33.0188 33.671 34.0281 32.1331 34.6734 31.3968C35.7723 30.1466 36.3773 28.5386 36.375 26.8741C36.375 23.0706 33.2855 19.987 29.4785 19.9991ZM29.5 23.7491C28.6715 23.7501 27.8772 24.0796 27.2913 24.6654C26.7055 25.2513 26.3759 26.0456 26.375 26.8741C26.375 27.0399 26.3092 27.1989 26.1919 27.3161C26.0747 27.4333 25.9158 27.4991 25.75 27.4991C25.5842 27.4991 25.4253 27.4333 25.3081 27.3161C25.1908 27.1989 25.125 27.0399 25.125 26.8741C25.1262 25.7142 25.5876 24.6021 26.4078 23.7819C27.228 22.9617 28.3401 22.5004 29.5 22.4991C29.6658 22.4991 29.8247 22.565 29.9419 22.6822C30.0592 22.7994 30.125 22.9584 30.125 23.1241C30.125 23.2899 30.0592 23.4489 29.9419 23.5661C29.8247 23.6833 29.6658 23.7491 29.5 23.7491ZM21.375 27.4991C21.375 27.2505 21.2762 27.012 21.1004 26.8362C20.9246 26.6604 20.6861 26.5616 20.4375 26.5616H17.9375C17.6889 26.5616 17.4504 26.6604 17.2746 26.8362C17.0988 27.012 17 27.2505 17 27.4991C17 27.7478 17.0988 27.9862 17.2746 28.162C17.4504 28.3378 17.6889 28.4366 17.9375 28.4366H20.4375C20.6861 28.4366 20.9246 28.3378 21.1004 28.162C21.2762 27.9862 21.375 27.7478 21.375 27.4991V27.4991ZM41.0625 26.5616H38.5625C38.3139 26.5616 38.0754 26.6604 37.8996 26.8362C37.7238 27.012 37.625 27.2505 37.625 27.4991C37.625 27.7478 37.7238 27.9862 37.8996 28.162C38.0754 28.3378 38.3139 28.4366 38.5625 28.4366H41.0625C41.3111 28.4366 41.5496 28.3378 41.7254 28.162C41.9012 27.9862 42 27.7478 42 27.4991C42 27.2505 41.9012 27.012 41.7254 26.8362C41.5496 26.6604 41.3111 26.5616 41.0625 26.5616ZM22.1203 22.1562L19.9555 20.9062C19.8488 20.8419 19.7303 20.7996 19.6071 20.7816C19.4838 20.7637 19.3582 20.7704 19.2376 20.8016C19.117 20.8327 19.0038 20.8875 18.9047 20.9629C18.8055 21.0383 18.7223 21.1326 18.6601 21.2405C18.5978 21.3484 18.5576 21.4675 18.5419 21.5911C18.5262 21.7147 18.5353 21.8401 18.5686 21.9601C18.6019 22.0801 18.6588 22.1923 18.736 22.2901C18.8131 22.3879 18.909 22.4693 19.018 22.5296L21.1828 23.7796C21.2895 23.8438 21.408 23.8862 21.5312 23.9041C21.6545 23.9221 21.7801 23.9153 21.9007 23.8842C22.0213 23.853 22.1344 23.7982 22.2336 23.7228C22.3328 23.6475 22.4159 23.5531 22.4782 23.4452C22.5405 23.3374 22.5807 23.2182 22.5964 23.0946C22.6121 22.9711 22.603 22.8456 22.5697 22.7256C22.5364 22.6056 22.4795 22.4934 22.4023 22.3957C22.3252 22.2979 22.2293 22.2165 22.1203 22.1562V22.1562ZM39.982 32.4687L37.8172 31.2187C37.7105 31.1544 37.592 31.1121 37.4688 31.0941C37.3455 31.0762 37.2199 31.0829 37.0993 31.1141C36.9787 31.1452 36.8656 31.2 36.7664 31.2754C36.6672 31.3508 36.5841 31.4451 36.5218 31.553C36.4595 31.6609 36.4193 31.78 36.4036 31.9036C36.3879 32.0272 36.397 32.1526 36.4303 32.2726C36.4636 32.3926 36.5205 32.5048 36.5977 32.6026C36.6748 32.7004 36.7707 32.7818 36.8797 32.8421L39.0445 34.0921C39.2595 34.211 39.5126 34.2409 39.7493 34.1752C39.986 34.1094 40.1875 33.9534 40.3103 33.7406C40.4332 33.5279 40.4676 33.2754 40.4062 33.0375C40.3448 32.7997 40.1925 32.5954 39.982 32.4687ZM21.1828 31.2187L19.018 32.4687C18.909 32.529 18.8131 32.6104 18.736 32.7082C18.6588 32.8059 18.6019 32.9181 18.5686 33.0381C18.5353 33.1581 18.5262 33.2836 18.5419 33.4071C18.5576 33.5307 18.5978 33.6499 18.6601 33.7577C18.7223 33.8656 18.8055 33.96 18.9047 34.0353C19.0038 34.1107 19.117 34.1655 19.2376 34.1967C19.3582 34.2278 19.4838 34.2346 19.6071 34.2166C19.7303 34.1987 19.8488 34.1563 19.9555 34.0921L22.1203 32.8421C22.3308 32.7154 22.4831 32.5111 22.5445 32.2732C22.6059 32.0353 22.5715 31.7828 22.4486 31.5701C22.3257 31.3573 22.1243 31.2013 21.8876 31.1356C21.6508 31.0699 21.3978 31.0997 21.1828 31.2187V31.2187ZM37.3492 23.9054C37.5138 23.9057 37.6756 23.8623 37.818 23.7796L39.9828 22.5296C40.1933 22.4029 40.3456 22.1986 40.407 21.9607C40.4684 21.7228 40.434 21.4703 40.3111 21.2576C40.1882 21.0448 39.9868 20.8888 39.7501 20.8231C39.5133 20.7574 39.2603 20.7872 39.0453 20.9062L36.8805 22.1562C36.7018 22.2594 36.5622 22.4187 36.4833 22.6093C36.4044 22.7999 36.3906 23.0112 36.444 23.2105C36.4974 23.4098 36.615 23.5859 36.7787 23.7116C36.9424 23.8372 37.1429 23.9053 37.3492 23.9054Z" fill="#2C6DF9"/>
</svg>
