<svg width="14" height="16" viewBox="0 0 14 16" fill="none" xmlns="http://www.w3.org/2000/svg">
<g clip-path="url(#clip0_3801_13847)">
<path d="M11.2819 2.70693H10.3819C10.2678 2.71455 10.1607 2.76527 10.0826 2.84882C10.0044 2.93238 9.96094 3.04252 9.96094 3.15694C9.96094 3.27135 10.0044 3.38149 10.0826 3.46504C10.1607 3.5486 10.2678 3.59932 10.3819 3.60693H11.2819C11.3435 3.61104 11.4053 3.60246 11.4635 3.5817C11.5217 3.56095 11.575 3.52847 11.6201 3.48628C11.6652 3.44409 11.7011 3.39309 11.7257 3.33644C11.7503 3.27979 11.7629 3.21869 11.7629 3.15694C11.7629 3.09518 11.7503 3.03409 11.7257 2.97743C11.7011 2.92078 11.6652 2.86978 11.6201 2.82759C11.575 2.7854 11.5217 2.75292 11.4635 2.73216C11.4053 2.71141 11.3435 2.70282 11.2819 2.70693Z" fill="#2C6DF9"/>
<path d="M6.72253 1.15199L6.27152 0.251988C6.24731 0.195708 6.21188 0.144952 6.1674 0.102818C6.12292 0.0606838 6.07032 0.0280551 6.01281 0.00692284C5.9553 -0.0142094 5.89409 -0.0234021 5.83291 -0.0200941C5.77173 -0.0167862 5.71186 -0.00104707 5.65696 0.0261628C5.60207 0.0533727 5.5533 0.0914828 5.51362 0.138167C5.47394 0.184852 5.44418 0.239132 5.42617 0.297696C5.40817 0.356259 5.40227 0.417877 5.40887 0.478791C5.41546 0.539705 5.43441 0.598636 5.46453 0.651988L5.91554 1.55199C5.93975 1.60827 5.97518 1.65902 6.01966 1.70116C6.06415 1.74329 6.11674 1.77592 6.17425 1.79705C6.23176 1.81819 6.29297 1.82738 6.35415 1.82407C6.41533 1.82076 6.4752 1.80502 6.5301 1.77781C6.585 1.7506 6.63378 1.71249 6.67346 1.66581C6.71314 1.61912 6.74288 1.56484 6.76089 1.50628C6.7789 1.44772 6.78479 1.3861 6.77819 1.32519C6.7716 1.26427 6.75265 1.20534 6.72253 1.15199Z" fill="#2C6DF9"/>
<path d="M9.67919 0.0479813C9.57227 -0.00565054 9.44845 -0.0147155 9.33486 0.0227725C9.22127 0.0602605 9.12716 0.141245 9.07317 0.247981L8.62218 1.14798C8.57656 1.254 8.57331 1.37346 8.61312 1.48179C8.65292 1.59012 8.73276 1.67907 8.83617 1.73033C8.93958 1.78158 9.05868 1.79124 9.169 1.75732C9.27931 1.7234 9.37244 1.64848 9.42919 1.54798L9.88018 0.647981C9.93213 0.541605 9.94015 0.419068 9.90255 0.306815C9.86494 0.194563 9.78473 0.101597 9.67919 0.0479813Z" fill="#2C6DF9"/>
<path d="M4.96552 2.70703H4.06551C3.95134 2.71465 3.84434 2.76537 3.76617 2.84892C3.68801 2.93248 3.64453 3.04262 3.64453 3.15704C3.64453 3.27145 3.68801 3.38159 3.76617 3.46514C3.84434 3.54869 3.95134 3.59942 4.06551 3.60703H4.96552C5.07968 3.59942 5.18668 3.54869 5.26485 3.46514C5.34301 3.38159 5.38649 3.27145 5.38649 3.15704C5.38649 3.04262 5.34301 2.93248 5.26485 2.84892C5.18668 2.76537 5.07968 2.71465 4.96552 2.70703Z" fill="#2C6DF9"/>
<path d="M2.256 7.25H0.451C0.331388 7.25 0.216674 7.29752 0.132095 7.3821C0.0475164 7.46667 0 7.58139 0 7.701V14.921C0 15.0406 0.0475164 15.1553 0.132095 15.2399C0.216674 15.3245 0.331388 15.372 0.451 15.372H2.256C2.37561 15.372 2.49033 15.3245 2.57491 15.2399C2.65948 15.1553 2.707 15.0406 2.707 14.921V7.701C2.707 7.58139 2.65948 7.46667 2.57491 7.3821C2.49033 7.29752 2.37561 7.25 2.256 7.25Z" fill="#2C6DF9"/>
<path d="M13.5289 8.44601C13.4758 8.10548 13.3006 7.7959 13.0359 7.57508C12.7713 7.35426 12.4354 7.23729 12.0909 7.24602H8.57286C8.87798 6.38985 9.03095 5.48691 9.02486 4.57802C9.01567 4.0849 8.81298 3.61517 8.46051 3.27018C8.10804 2.92519 7.63406 2.73262 7.14085 2.73402H6.76886C6.64925 2.73402 6.53453 2.78153 6.44995 2.86611C6.36537 2.95069 6.31786 3.06541 6.31786 3.18502C6.32453 4.50868 5.91411 5.80082 5.14485 6.87802C4.69848 7.30019 4.17813 7.63647 3.60986 7.87002V14.641C4.79631 15.1067 6.05739 15.3534 7.33186 15.369H10.2839C10.5112 15.3804 10.7377 15.3351 10.9432 15.2371C11.1486 15.1392 11.3264 14.9916 11.4606 14.8078C11.5948 14.624 11.6812 14.4097 11.712 14.1842C11.7428 13.9587 11.7169 13.7291 11.6369 13.516C11.8204 13.4656 11.9912 13.3771 12.1382 13.2562C12.2852 13.1354 12.4051 12.9849 12.49 12.8145C12.5749 12.6442 12.623 12.4579 12.6311 12.2678C12.6391 12.0776 12.607 11.8879 12.5368 11.711C12.7593 11.6499 12.9624 11.5331 13.127 11.3716C13.2917 11.2101 13.4123 11.0092 13.4776 10.788C13.5429 10.5668 13.5507 10.3326 13.5001 10.1075C13.4496 9.88249 13.3425 9.67407 13.1889 9.50201C13.317 9.36009 13.4136 9.19257 13.4722 9.01053C13.5309 8.82849 13.5502 8.63607 13.5289 8.44601Z" fill="#2C6DF9"/>
</g>
<defs>
<clipPath id="clip0_3801_13847">
<rect width="13.538" height="15.373" fill="white"/>
</clipPath>
</defs>
</svg>
