<svg width="24" height="22" viewBox="0 0 24 22" fill="none" xmlns="http://www.w3.org/2000/svg">
<path d="M23.5312 9.07812L21.4219 6.96875C21.1406 6.6875 20.7656 6.54688 20.3438 6.54688H18V2.75C18 1.53125 16.9688 0.5 15.75 0.5H8.25C6.98438 0.5 6 1.53125 6 2.75V6.5H3.60938C3.1875 6.5 2.8125 6.6875 2.53125 6.96875L0.421875 9.07812C0.140625 9.35938 0 9.73438 0 10.1562V14H6V13.25C6 12.875 6.32812 12.5 6.75 12.5H8.25C8.625 12.5 9 12.875 9 13.25V14H15V13.25C15 12.875 15.3281 12.5 15.75 12.5H17.25C17.625 12.5 18 12.875 18 13.25V14H24V10.1562C24 9.73438 23.8125 9.35938 23.5312 9.07812ZM15 6.5H9V3.5H15V6.5ZM18 16.25C18 16.6719 17.625 17 17.25 17H15.75C15.3281 17 15 16.6719 15 16.25V15.5H9V16.25C9 16.6719 8.625 17 8.25 17H6.75C6.32812 17 6 16.6719 6 16.25V15.5H0V20C0 20.8438 0.65625 21.5 1.5 21.5H22.5C23.2969 21.5 24 20.8438 24 20V15.5H18V16.25Z" fill="white"/>
</svg>
