<svg width="22" height="22" viewBox="0 0 22 22" fill="none" xmlns="http://www.w3.org/2000/svg">
<path d="M8.11221 9.075C10.6182 9.075 12.6497 7.04349 12.6497 4.5375C12.6497 2.03151 10.6182 0 8.11221 0C5.60622 0 3.57471 2.03151 3.57471 4.5375C3.57471 7.04349 5.60622 9.075 8.11221 9.075Z" fill="white"/>
<path d="M8.8 10.2438C8.525 10.2438 8.25 10.175 7.90625 10.175C7.5625 10.175 7.21875 10.175 6.875 10.2438C7.15 10.5188 7.49375 10.8625 7.90625 11.275L8.8 10.2438Z" fill="white"/>
<path d="M6.94385 19.1126L7.90635 20.2814L8.73135 19.2501L7.8376 14.7126L6.94385 19.1126Z" fill="white"/>
<path d="M17.8065 13.5437C15.469 13.5437 13.6128 15.4 13.6128 17.7375C13.6128 20.075 15.469 21.9312 17.8065 21.9312C20.144 21.9312 22.0003 20.075 22.0003 17.7375C22.0003 15.4 20.144 13.5437 17.8065 13.5437ZM19.6628 17.6L19.044 18.2187C18.9753 18.2875 18.9753 18.3562 18.9753 18.4937L19.1128 19.3875C19.1815 19.5937 18.9065 19.8 18.7003 19.6625L17.944 19.25C17.8753 19.1812 17.7378 19.1812 17.669 19.25L16.9128 19.6625C16.7065 19.8 16.5003 19.5937 16.5003 19.3875L16.6378 18.4937C16.6378 18.425 16.6378 18.2875 16.569 18.2187L15.9503 17.6C15.8128 17.4625 15.8815 17.1875 16.0878 17.1187L16.9815 16.9812C17.0503 16.9812 17.119 16.9125 17.1878 16.8437L17.6003 16.0187C17.669 15.8125 18.0128 15.8125 18.0815 16.0187L18.494 16.8437C18.5628 16.9125 18.6315 16.9812 18.7003 16.9812L19.594 17.1187C19.7315 17.1875 19.869 17.4625 19.6628 17.6Z" fill="white"/>
<path d="M12.5125 17.8061C12.5125 15.9499 13.475 14.3686 14.9188 13.4061C13.8875 11.9624 12.1 10.8624 9.96875 10.3811L8.45625 12.1686L9.7625 19.2499C9.7625 19.3874 9.7625 19.5249 9.625 19.6624L8.25 21.3811C8.18125 21.5186 7.975 21.5874 7.8375 21.5874C7.7 21.5874 7.5625 21.5186 7.425 21.3811L5.9125 19.4561C5.84375 19.3186 5.775 19.1811 5.84375 19.0436L7.2875 12.1686C6.6 11.4811 5.9125 10.7249 5.5 10.3811C2.3375 11.2061 0 13.4061 0 16.0874V20.6249C0 21.3811 0.61875 21.9999 1.375 21.9999H14.4375C14.5063 21.9999 14.575 21.9999 14.6437 21.9999C13.4062 21.0374 12.5125 19.5249 12.5125 17.8061Z" fill="white"/>
</svg>
