<svg width="22" height="22" viewBox="0 0 22 22" fill="none" xmlns="http://www.w3.org/2000/svg">
<path d="M21.3128 22H14.9878C14.5753 22 14.3003 21.725 14.3003 21.3125V7.42505C14.3003 7.01255 14.5753 6.73755 14.9878 6.73755H21.3128C21.7253 6.73755 22.0003 7.01255 22.0003 7.42505V21.3125C22.0003 21.725 21.7253 22 21.3128 22Z" fill="white"/>
<path d="M10.8624 4.2625H2.40615C2.1999 4.2625 1.99365 4.05625 1.99365 3.85V0.4125C1.99365 0.20625 2.13115 0 2.40615 0H10.9312C11.1374 0 11.3437 0.20625 11.3437 0.4125V3.78125C11.3437 4.05625 11.1374 4.2625 10.8624 4.2625Z" fill="white"/>
<path d="M12.5812 2.1311H0.6875C0.275 2.1311 0 2.4061 0 2.8186V21.3124C0 21.7249 0.275 21.9999 0.6875 21.9999H4.2625V15.6061C4.2625 15.3311 4.5375 15.1249 4.8125 15.1249H9.00625C9.28125 15.1249 9.55625 15.3311 9.55625 15.6749V21.9999H12.5812C12.9937 21.9999 13.2687 21.7249 13.2687 21.3124V2.8186C13.2687 2.4061 12.9937 2.1311 12.5812 2.1311Z" fill="white"/>
<path d="M8.45596 16.1562H5.29346V21.9312H8.45596V16.1562Z" fill="white"/>
</svg>
