<svg width="24" height="24" viewBox="0 0 24 24" fill="none" xmlns="http://www.w3.org/2000/svg">
  <g clip-path="url(#clip0_8671_8636)">
    <path d="M12 12.43C11.2081 12.4267 10.4496 12.1104 9.89001 11.55C9.33732 10.9888 9.02753 10.2327 9.02753 9.44504C9.02753 8.65735 9.33732 7.90127 9.89001 7.34004C10.4584 6.80127 11.2118 6.50098 11.995 6.50098C12.7782 6.50098 13.5316 6.80127 14.1 7.34004C14.5078 7.7598 14.7839 8.28969 14.8944 8.86442C15.0048 9.43916 14.9447 10.0336 14.7215 10.5746C14.4983 11.1157 14.1217 11.5796 13.6382 11.9092C13.1546 12.2389 12.5852 12.4199 12 12.43V12.43ZM12 8.43004C11.7411 8.43374 11.4938 8.5377 11.31 8.72004C11.217 8.80906 11.1433 8.91624 11.0934 9.03493C11.0435 9.15362 11.0185 9.2813 11.02 9.41004C11.0237 9.6689 11.1277 9.91625 11.31 10.1C11.447 10.2316 11.6187 10.3214 11.8049 10.3589C11.9912 10.3965 12.1842 10.3802 12.3615 10.312C12.5388 10.2438 12.6931 10.1265 12.8061 9.97388C12.9192 9.82122 12.9865 9.63952 13 9.45004C12.999 9.19257 12.8987 8.94541 12.72 8.76004V8.76004C12.6254 8.66615 12.5129 8.59213 12.3893 8.54233C12.2656 8.49253 12.1333 8.46795 12 8.47004V8.43004Z" fill="white"/>
    <path d="M8.27002 17.53C8.09823 17.5295 7.92948 17.4847 7.78002 17.4C7.65971 17.3365 7.55362 17.2491 7.46825 17.1432C7.38288 17.0373 7.32001 16.915 7.28351 16.784C7.247 16.6529 7.23761 16.5158 7.25593 16.381C7.27424 16.2462 7.31987 16.1166 7.39002 16C7.86871 15.2071 8.54539 14.5523 9.35363 14.1C10.1619 13.6477 11.0738 13.4133 12 13.42V13.42C12.9179 13.3996 13.8251 13.6207 14.6307 14.0612C15.4362 14.5017 16.1119 15.1462 16.59 15.93C16.6624 16.0438 16.711 16.1711 16.7328 16.3042C16.7547 16.4373 16.7495 16.5734 16.7174 16.7044C16.6853 16.8354 16.6271 16.9585 16.5461 17.0664C16.4652 17.1743 16.3633 17.2647 16.2465 17.3322C16.1298 17.3997 16.0006 17.4429 15.8667 17.4592C15.7328 17.4754 15.597 17.4645 15.4675 17.4269C15.338 17.3893 15.2174 17.3259 15.113 17.2405C15.0086 17.1551 14.9225 17.0495 14.86 16.93C14.5573 16.4498 14.1338 16.0576 13.6319 15.7926C13.13 15.5276 12.5672 15.3991 12 15.42V15.42C11.4272 15.4124 10.8622 15.5542 10.3607 15.8312C9.85928 16.1082 9.43858 16.511 9.14002 17C9.0558 17.1582 8.93062 17.2908 8.77757 17.3841C8.62452 17.4773 8.44922 17.5277 8.27002 17.53Z" fill="white"/>
    <path d="M14.62 24H11L9.58 23.93C9.31478 23.93 9.06043 23.8247 8.87289 23.6371C8.68535 23.4496 8.58 23.1952 8.58 22.93V21.21C7.70116 20.8724 6.8733 20.4147 6.12 19.85L4.85 20.61C4.62759 20.7457 4.36102 20.7892 4.10702 20.7313C3.85302 20.6734 3.63164 20.5187 3.49 20.3L0.619996 15.82C0.482364 15.6088 0.42959 15.3534 0.472238 15.1049C0.514886 14.8565 0.649808 14.6333 0.849996 14.48L2.15 13.48C1.98525 12.601 1.98525 11.699 2.15 10.82L0.549996 9.82003C0.336048 9.68714 0.180125 9.47841 0.113386 9.23555C0.0466462 8.99269 0.0740052 8.73359 0.189996 8.51003L2.81 3.60003C2.92953 3.37716 3.12906 3.20786 3.36842 3.12622C3.60778 3.04458 3.86919 3.05666 4.1 3.16003L6.18 4.10003C6.47753 3.87831 6.78809 3.67461 7.11 3.49003C7.36935 3.33954 7.63638 3.20269 7.91 3.08003V1.14003C7.90923 1.00842 7.93446 0.877962 7.98422 0.756125C8.03399 0.634287 8.10731 0.523471 8.2 0.430031C8.29344 0.33735 8.40425 0.264025 8.52609 0.21426C8.64793 0.164496 8.77839 0.13927 8.91 0.140031H14.35C14.6152 0.140031 14.8696 0.245388 15.0571 0.432925C15.2446 0.620461 15.35 0.874815 15.35 1.14003L15.4 2.85003C16.2749 3.18515 17.0993 3.63944 17.85 4.20003L19.13 3.43003C19.3527 3.29838 19.6178 3.25816 19.8695 3.31783C20.1213 3.37751 20.3401 3.53242 20.48 3.75003L23.37 8.22003C23.5066 8.43242 23.5577 8.68862 23.5132 8.93717C23.4687 9.18573 23.3318 9.40824 23.13 9.56003L21.83 10.56C21.9262 11.0581 21.983 11.563 22 12.07C22.0078 12.5192 21.9709 12.9681 21.89 13.41L23.3 14.41C23.5104 14.5594 23.655 14.7843 23.7034 15.0378C23.7519 15.2912 23.7005 15.5536 23.56 15.77L20.51 20.51C20.3666 20.7297 20.1427 20.8843 19.8864 20.9405C19.6301 20.9966 19.3621 20.9497 19.14 20.81L17.94 20.06C17.2417 20.5748 16.4784 20.9952 15.67 21.31V23C15.6702 23.1357 15.6427 23.2699 15.5894 23.3946C15.536 23.5193 15.4579 23.6319 15.3597 23.7254C15.2614 23.819 15.1452 23.8915 15.0181 23.9388C14.8909 23.986 14.7555 24.0068 14.62 24ZM11.08 22H13.62V20.6C13.6105 20.3782 13.6751 20.1595 13.8037 19.9784C13.9323 19.7973 14.1174 19.6642 14.33 19.6C15.3762 19.2915 16.3445 18.763 17.17 18.05C17.3359 17.9175 17.5397 17.8412 17.7518 17.8322C17.964 17.8232 18.1735 17.882 18.35 18L19.35 18.6L21.35 15.5L20.12 14.61C20.0062 14.5335 19.9105 14.4329 19.8397 14.3154C19.7688 14.198 19.7246 14.0664 19.71 13.93C19.6794 13.696 19.7325 13.4587 19.86 13.26C19.9668 12.8762 20.014 12.4782 20 12.08C19.9988 11.4949 19.9352 10.9116 19.81 10.34C19.771 10.1554 19.7851 9.96356 19.8506 9.7866C19.9161 9.60965 20.0303 9.45483 20.18 9.34003L21.23 8.54003L19.33 5.64003L18.33 6.27003C18.1493 6.37887 17.9389 6.42781 17.7288 6.40985C17.5186 6.39189 17.3196 6.30795 17.16 6.17003C16.2901 5.40871 15.2671 4.84267 14.16 4.51003C13.959 4.44921 13.7822 4.32664 13.6548 4.15971C13.5273 3.99278 13.4557 3.78997 13.45 3.58003V2.14003H9.91V3.74003C9.91066 3.94435 9.84872 4.14398 9.73251 4.31203C9.6163 4.48009 9.4514 4.60852 9.26 4.68003C8.86295 4.82926 8.47841 5.00983 8.11 5.22003C7.7171 5.44583 7.34557 5.7069 7 6.00003C6.85467 6.12129 6.67792 6.19881 6.49028 6.22359C6.30264 6.24838 6.11182 6.2194 5.94 6.14003L4.17 5.34003L2.39 8.63003L3.84 9.56003C4.03803 9.68749 4.18473 9.88074 4.25424 10.1058C4.32376 10.3308 4.31163 10.5731 4.22 10.79C3.92084 11.737 3.92084 12.7531 4.22 13.7C4.25785 13.8856 4.24223 14.0781 4.17496 14.2551C4.10768 14.4321 3.99153 14.5864 3.84 14.7L2.79 15.49L4.65 18.37L5.65 17.75C5.83065 17.6412 6.04108 17.5923 6.25122 17.6102C6.46136 17.6282 6.66044 17.7121 6.82 17.85C7.69029 18.6085 8.71337 19.1712 9.82 19.5C10.0226 19.5614 10.2005 19.6855 10.3281 19.8544C10.4557 20.0233 10.5264 20.2284 10.53 20.44V21.92L11.08 22Z" fill="white"/>
  </g>
  <defs>
    <clipPath id="clip0_8671_8636">
      <rect width="24" height="24" fill="white"/>
    </clipPath>
  </defs>
</svg>

