<svg width="24" height="25" viewBox="0 0 24 25" fill="none" xmlns="http://www.w3.org/2000/svg">
<path d="M14.6 24.7001H11L9.6 24.6C9.3 24.6 9.1 24.5 8.9 24.3C8.7 24.1 8.6 23.9 8.6 23.6V21.9C7.7 21.6 6.9 21.1 6.1 20.5L4.8 21.3C4.6 21.4 4.3 21.5 4.1 21.4C3.9 21.3 3.6 21.2001 3.5 21L0.600004 16.5C0.500004 16.3 0.400004 16 0.500004 15.8C0.500004 15.6 0.700004 15.3 0.900004 15.2L2.2 14.2C2 13.3 2 12.4 2.2 11.5L0.600004 10.5C0.400004 10.4 0.200004 10.2 0.200004 9.90005C3.74764e-06 9.70005 0.100004 9.40005 0.200004 9.20005L2.8 4.30005C2.9 4.00005 3.1 3.90005 3.4 3.80005C3.6 3.70005 3.9 3.70005 4.1 3.80005L6.2 4.70005C6.5 4.50005 6.8 4.30005 7.1 4.10005C7.4 4.00005 7.6 3.90005 7.9 3.70005V1.80005C7.9 1.70005 7.9 1.50005 8 1.40005C8 1.30005 8.1 1.20005 8.2 1.10005C8.3 1.00005 8.4 0.900049 8.5 0.900049C8.6 0.900049 8.8 0.800049 8.9 0.800049H14.3C14.6 0.800049 14.8 0.900049 15 1.10005C15.2 1.30005 15.3 1.50005 15.3 1.80005V3.50005C16.2 3.80005 17 4.30005 17.8 4.90005L19.1 4.10005C19.4 4.00005 19.6 3.90005 19.9 4.00005C20.2 4.10005 20.4 4.20005 20.5 4.40005L23.4 8.90005C23.5 9.10005 23.6 9.40005 23.5 9.60005C23.5 9.80005 23.3 10.1 23.1 10.2L21.8 11.2C21.9 11.7 22 12.2 22 12.7C22 13.1 22 13.6 21.9 14L23.3 15C23.5 15.1 23.7 15.4 23.7 15.6C23.7 15.9 23.7 16.1 23.6 16.3L20.6 21C20.5 21.2001 20.2 21.4 20 21.4C19.7 21.5 19.5 21.4 19.3 21.3L18.1 20.5C17.4 21 16.6 21.4001 15.8 21.7001V23.4C15.8 23.5 15.8 23.7 15.7 23.8C15.6 23.9 15.6 24 15.5 24.1C15.4 24.2001 15.3 24.3 15.2 24.3C14.9 24.7 14.8 24.7001 14.6 24.7001ZM11.1 22.7001H13.6V21.3C13.6 21.1 13.7 20.9001 13.8 20.7001C13.9 20.5 14.1 20.4 14.3 20.3C15.3 20 16.3 19.5 17.1 18.7001C17.3 18.6 17.5 18.5 17.7 18.5C17.9 18.5 18.1 18.5 18.3 18.7001L19.3 19.3L21.3 16.2L20.1 15.3C20 15.2 19.9 15.1 19.8 15C19.7 14.9 19.7 14.8 19.7 14.6C19.7 14.4 19.7 14.1 19.9 13.9C20 13.5 20.1 13.1 20 12.7C20 12.1 19.9 11.5 19.8 11C19.8 10.8 19.8 10.6 19.8 10.4C19.9 10.2 20 10.1 20.1 10L21.1 9.20005L19.2 6.30005L18.2 6.90005C18 7.00005 17.8 7.10005 17.6 7.00005C17.4 7.00005 17.2 6.90005 17 6.80005C16.1 6.00005 15.1 5.50005 14 5.10005C14 5.10005 13.8 5.00005 13.7 4.80005C13.6 4.60005 13.5 4.40005 13.5 4.20005V2.80005H9.9V4.40005C9.9 4.60005 9.8 4.80005 9.7 5.00005C9.6 5.10005 9.5 5.30005 9.3 5.30005C8.9 5.50005 8.5 5.70005 8.1 5.90005C7.7 6.10005 7.3 6.40005 7 6.70005C6.9 6.80005 6.7 6.90005 6.5 6.90005C6.3 6.90005 6.1 6.90005 5.9 6.80005L4.2 6.00005L2.4 9.30005L3.8 10.2C4 10.3 4.1 10.5 4.2 10.7C4.3 10.9 4.3 11.2 4.2 11.4C3.9 12.3 3.9 13.4 4.2 14.3C4.2 14.5 4.2 14.7 4.2 14.9C4.1 15.1 4 15.2 3.9 15.3L2.9 16.1L4.7 19L5.7 18.4C5.9 18.3 6.1 18.2 6.3 18.3C6.5 18.3 6.7 18.4 6.9 18.5C7.8 19.3 8.8 19.8001 9.9 20.1C10.1 20.2001 10.3 20.3 10.4 20.5C10.5 20.7001 10.6 20.9 10.6 21.1V22.6L11.1 22.7001Z" fill="white"/>
<path d="M16.7 16.9C16.3 16.9 15.9 16.7 15.5 16.4L13.3 14.2C13 13.9 13 13.4 13.3 13.1C13.6 12.8 14.1 12.8 14.4 13.1L16.6 15.3C16.7 15.4 16.8 15.4 16.8 15.3V15.2V15.1L13.9 12C13.6 11.7 13.6 11.2 13.9 10.9C14.2 10.6 14.7 10.6 15 10.9L17.9 14C18.2 14.3 18.4 14.7 18.4 15.2C18.4 15.6 18.2 16.1 17.9 16.4C17.5 16.7 17.1 16.9 16.7 16.9Z" fill="white"/>
<path d="M14.8 17.6C14.4 17.6 13.9 17.4 13.6 17.1L11.8 15.3C11.5 15 11.5 14.5 11.8 14.2C12.1 13.9 12.6 13.9 12.9 14.2L14.7 16C14.8 16.1 14.9 16.1 14.9 16C15 15.9 15 15.8 14.9 15.8C14.6 15.5 14.6 15 14.9 14.7C15.2 14.4 15.7 14.4 16 14.7C16.6 15.3 16.6 16.4 16 17C15.7 17.4 15.3 17.6 14.8 17.6Z" fill="white"/>
<path d="M12.9 18.2C12.5 18.2 12 18 11.7 17.7L10.3 16.3C10 16 10 15.5 10.3 15.2C10.6 14.9 11.1 14.9 11.4 15.2L12.8 16.6C12.9 16.7 12.9 16.7 13 16.6C13.1 16.5 13.1 16.4 13 16.4C12.7 16.1 12.7 15.6 13 15.3C13.3 15 13.8 15 14.1 15.3C14.7 15.9 14.7 17 14.1 17.6C13.7 18 13.3 18.2 12.9 18.2Z" fill="white"/>
<path d="M10.7 18.6C10.3 18.6 9.90002 18.4 9.50002 18.1L8.20002 16.8L2.80002 14.1C2.40002 13.9 2.30002 13.5 2.50002 13.1C2.70002 12.7 3.10002 12.6 3.50002 12.8L9.00002 15.6C9.10002 15.6 9.10002 15.7 9.20002 15.7L10.6 17.1C10.7 17.2 10.8 17.2 10.8 17.1C10.9 17 10.9 16.9 10.8 16.9C10.5 16.6 10.5 16.1 10.8 15.8C11.1 15.5 11.6 15.5 11.9 15.8C12.2 16.1 12.4 16.5 12.4 17C12.4 17.5 12.2 17.9 11.9 18.2C11.5 18.4 11.1 18.6 10.7 18.6Z" fill="white"/>
<path d="M17.6 15.6999C17.3 15.6999 17 15.4999 16.9 15.1999C16.7 14.7999 16.9 14.3999 17.3 14.1999L20.1 13.0999C20.5 12.8999 20.9 13.0999 21.1 13.4999C21.3 13.8999 21.1 14.2999 20.7 14.4999L17.9 15.5999C17.8 15.6999 17.7 15.6999 17.6 15.6999Z" fill="white"/>
<path d="M9.6 11.8C9.4 11.8 9.2 11.7 9.1 11.6C8.8 11.3 8.8 10.8 9.1 10.5L10.8 8.90002C10.9 8.80002 11 8.70002 11.2 8.70002L20.5 6.80002C20.9 6.70002 21.3 7.00002 21.4 7.40002C21.5 7.80002 21.2 8.20002 20.8 8.30002L11.7 10.2L10.2 11.7C9.9 11.7 9.8 11.8 9.6 11.8Z" fill="white"/>
<path d="M9.59998 11C9.09998 11.5 9.09998 12.2 9.59998 12.7C10.1 13.2 10.8 13.2 11.3 12.7L12.6 11.5" stroke="white" stroke-width="1.5" stroke-miterlimit="10" stroke-linecap="round" stroke-linejoin="round"/>
<path d="M10.4 11C10.3 11 10.2 11 10.1 10.9L2.89997 7.70002C2.49997 7.50002 2.29997 7.10002 2.49997 6.70002C2.69997 6.30002 3.09997 6.10002 3.49997 6.30002L10.7 9.50002C11.1 9.70002 11.3 10.1 11.1 10.5C11 10.8 10.7 11 10.4 11Z" fill="white"/>
</svg>

