<svg width="24" height="24" viewBox="0 0 24 24" fill="none" xmlns="http://www.w3.org/2000/svg">
  <path d="M19.6484 13.8748V2.4748C19.6484 1.4998 18.9734 0.674805 18.1484 0.674805H3.14844C2.32344 0.674805 1.64844 1.4998 1.64844 2.4748V18.7498V19.1998C1.64844 19.9498 2.24844 20.5498 2.99844 20.5498H3.14844H10.6484" stroke="white" stroke-width="1.5" stroke-miterlimit="10" stroke-linecap="round" stroke-linejoin="round"/>
  <path d="M8.47266 8.54922C8.47266 7.79922 9.44766 7.19922 10.5727 7.19922C11.6977 7.19922 12.6727 7.79922 12.6727 8.54922" stroke="white" stroke-width="1.5" stroke-miterlimit="10" stroke-linecap="round" stroke-linejoin="round"/>
  <path d="M10.6469 5.54961C11.1854 5.54961 11.6219 5.11309 11.6219 4.57461C11.6219 4.03613 11.1854 3.59961 10.6469 3.59961C10.1084 3.59961 9.67188 4.03613 9.67188 4.57461C9.67188 5.11309 10.1084 5.54961 10.6469 5.54961Z" stroke="white" stroke-width="1.5" stroke-miterlimit="10" stroke-linecap="round" stroke-linejoin="round"/>
  <path d="M6.29688 11.25H14.9219" stroke="white" stroke-width="1.5" stroke-miterlimit="10" stroke-linecap="round" stroke-linejoin="round"/>
  <path d="M17.55 23.3246C20.201 23.3246 22.35 21.1756 22.35 18.5246C22.35 15.8736 20.201 13.7246 17.55 13.7246C14.899 13.7246 12.75 15.8736 12.75 18.5246C12.75 21.1756 14.899 23.3246 17.55 23.3246Z" stroke="white" stroke-width="1.5" stroke-miterlimit="10" stroke-linecap="round" stroke-linejoin="round"/>
  <path d="M17.5469 17.4004V20.7004" stroke="white" stroke-width="1.5" stroke-miterlimit="10" stroke-linecap="round" stroke-linejoin="round"/>
  <path d="M16.0469 18.3L17.5469 16.5L19.1969 18.3" stroke="white" stroke-width="1.5" stroke-miterlimit="10" stroke-linecap="round" stroke-linejoin="round"/>
</svg>
