<svg width="24" height="24" viewBox="0 0 24 24" fill="none" xmlns="http://www.w3.org/2000/svg">
  <path d="M7.32997 10.45H3.15997C2.36432 10.45 1.60126 10.134 1.03865 9.57136C0.476044 9.00875 0.159973 8.24569 0.159973 7.45004V3.29004C0.159973 2.49439 0.476044 1.73133 1.03865 1.16872C1.60126 0.60611 2.36432 0.290039 3.15997 0.290039H7.32997C8.12562 0.290039 8.88869 0.60611 9.45129 1.16872C10.0139 1.73133 10.33 2.49439 10.33 3.29004V7.45004C10.33 8.24569 10.0139 9.00875 9.45129 9.57136C8.88869 10.134 8.12562 10.45 7.32997 10.45ZM3.15997 2.29004C2.89476 2.29004 2.6404 2.3954 2.45287 2.58293C2.26533 2.77047 2.15997 3.02482 2.15997 3.29004V7.45004C2.15997 7.71526 2.26533 7.96961 2.45287 8.15715C2.6404 8.34468 2.89476 8.45004 3.15997 8.45004H7.32997C7.59519 8.45004 7.84954 8.34468 8.03708 8.15715C8.22462 7.96961 8.32997 7.71526 8.32997 7.45004V3.29004C8.32997 3.02482 8.22462 2.77047 8.03708 2.58293C7.84954 2.3954 7.59519 2.29004 7.32997 2.29004H3.15997Z" fill="white"/>
  <path d="M20.83 10.45H16.67C15.8743 10.45 15.1113 10.134 14.5487 9.57136C13.9861 9.00875 13.67 8.24569 13.67 7.45004V3.29004C13.67 2.49439 13.9861 1.73133 14.5487 1.16872C15.1113 0.60611 15.8743 0.290039 16.67 0.290039H20.83C21.6256 0.290039 22.3887 0.60611 22.9513 1.16872C23.5139 1.73133 23.83 2.49439 23.83 3.29004V7.45004C23.83 7.844 23.7524 8.23411 23.6016 8.59809C23.4509 8.96207 23.2299 9.29278 22.9513 9.57136C22.6727 9.84994 22.342 10.0709 21.978 10.2217C21.6141 10.3724 21.2239 10.45 20.83 10.45ZM16.67 2.29004C16.4048 2.29004 16.1504 2.3954 15.9629 2.58293C15.7753 2.77047 15.67 3.02482 15.67 3.29004V7.45004C15.67 7.71526 15.7753 7.96961 15.9629 8.15715C16.1504 8.34468 16.4048 8.45004 16.67 8.45004H20.83C21.0952 8.45004 21.3496 8.34468 21.5371 8.15715C21.7246 7.96961 21.83 7.71526 21.83 7.45004V3.29004C21.83 3.02482 21.7246 2.77047 21.5371 2.58293C21.3496 2.3954 21.0952 2.29004 20.83 2.29004H16.67Z" fill="white"/>
  <path d="M7.32997 23.71H3.15997C2.36432 23.71 1.60126 23.394 1.03865 22.8314C0.476044 22.2688 0.159973 21.5057 0.159973 20.71V16.55C0.159973 15.7544 0.476044 14.9913 1.03865 14.4287C1.60126 13.8661 2.36432 13.55 3.15997 13.55H7.32997C8.12562 13.55 8.88869 13.8661 9.45129 14.4287C10.0139 14.9913 10.33 15.7544 10.33 16.55V20.71C10.33 21.5057 10.0139 22.2688 9.45129 22.8314C8.88869 23.394 8.12562 23.71 7.32997 23.71ZM3.15997 15.55C2.89476 15.55 2.6404 15.6554 2.45287 15.8429C2.26533 16.0305 2.15997 16.2848 2.15997 16.55V20.71C2.15997 20.9753 2.26533 21.2296 2.45287 21.4172C2.6404 21.6047 2.89476 21.71 3.15997 21.71H7.32997C7.59519 21.71 7.84954 21.6047 8.03708 21.4172C8.22462 21.2296 8.32997 20.9753 8.32997 20.71V16.55C8.32997 16.2848 8.22462 16.0305 8.03708 15.8429C7.84954 15.6554 7.59519 15.55 7.32997 15.55H3.15997Z" fill="white"/>
  <path d="M20.83 23.71H16.67C15.8743 23.71 15.1113 23.394 14.5487 22.8314C13.9861 22.2688 13.67 21.5057 13.67 20.71V16.55C13.67 15.7544 13.9861 14.9913 14.5487 14.4287C15.1113 13.8661 15.8743 13.55 16.67 13.55H20.83C21.6256 13.55 22.3887 13.8661 22.9513 14.4287C23.5139 14.9913 23.83 15.7544 23.83 16.55V20.71C23.83 21.104 23.7524 21.4941 23.6016 21.8581C23.4509 22.2221 23.2299 22.5528 22.9513 22.8314C22.6727 23.1099 22.342 23.3309 21.978 23.4817C21.6141 23.6325 21.2239 23.71 20.83 23.71ZM16.67 15.55C16.4048 15.55 16.1504 15.6554 15.9629 15.8429C15.7753 16.0305 15.67 16.2848 15.67 16.55V20.71C15.67 20.9753 15.7753 21.2296 15.9629 21.4172C16.1504 21.6047 16.4048 21.71 16.67 21.71H20.83C21.0952 21.71 21.3496 21.6047 21.5371 21.4172C21.7246 21.2296 21.83 20.9753 21.83 20.71V16.55C21.83 16.2848 21.7246 16.0305 21.5371 15.8429C21.3496 15.6554 21.0952 15.55 20.83 15.55H16.67Z" fill="white"/>
</svg>
