<svg width="22" height="22" viewBox="0 0 22 22" fill="none" xmlns="http://www.w3.org/2000/svg">
  <g clip-path="url(#clip0)">
    <path d="M0.549918 10.5875C-0.0688323 10.5875 -0.343832 9.83126 0.137418 9.41876L10.5187 0.412506C10.9312 0.0687561 11.5499 0.0687561 11.9624 0.412506L21.7937 9.41876C22.2062 9.83126 21.9312 10.5875 21.3812 10.5875H0.549918V10.5875Z" fill="white"/>
    <path d="M7.49367 21.8625H3.16242C2.61242 21.8625 2.19992 21.45 2.19992 20.9V9.9V8.6625L19.5937 7.5625V20.8312C19.5937 21.3812 19.1812 21.7938 18.6312 21.7938H13.3374V17.05C13.3374 16.5 12.9249 16.0875 12.3749 16.0875H9.41867C8.86867 16.0875 8.45617 16.5 8.45617 17.05V21.7938H7.49367V21.8625Z" fill="white"/>
  </g>
  <defs>
    <clipPath id="clip0">
      <rect width="22" height="22" fill="white"/>
    </clipPath>
  </defs>
</svg>
