<svg width="24" height="24" viewBox="0 0 24 24" fill="none" xmlns="http://www.w3.org/2000/svg">
  <path d="M8.99998 11.54C8.60725 11.5422 8.21809 11.4655 7.85561 11.3143C7.49314 11.1631 7.16475 10.9406 6.88998 10.66C6.3403 10.0992 6.03241 9.34528 6.03241 8.56002C6.03241 7.77476 6.3403 7.0208 6.88998 6.46002C7.45121 5.90733 8.2073 5.59753 8.99498 5.59753C9.78267 5.59753 10.5388 5.90733 11.1 6.46002C11.6497 7.0208 11.9576 7.77476 11.9576 8.56002C11.9576 9.34528 11.6497 10.0992 11.1 10.66C10.8264 10.9394 10.4996 11.1612 10.139 11.3124C9.7783 11.4635 9.39103 11.5409 8.99998 11.54ZM8.99998 7.54002C8.81101 7.5497 8.62866 7.6128 8.47412 7.72199C8.31958 7.83117 8.19919 7.98196 8.12694 8.15685C8.05468 8.33173 8.03353 8.52352 8.06593 8.70994C8.09833 8.89637 8.18296 9.06977 8.30998 9.21002C8.49596 9.38731 8.74304 9.48621 8.99998 9.48621C9.25692 9.48621 9.504 9.38731 9.68998 9.21002C9.86727 9.02404 9.96617 8.77696 9.96617 8.52002C9.96617 8.26308 9.86727 8.01599 9.68998 7.83002C9.49998 7.66225 9.25335 7.57289 8.99998 7.58002V7.54002Z" fill="white"/>
  <path d="M6.13 18.75C5.77011 18.7551 5.41521 18.6654 5.10099 18.4899C4.78677 18.3143 4.52431 18.0592 4.34 17.75C4.12518 17.3496 4.01864 16.9 4.03092 16.4457C4.0432 15.9915 4.17387 15.5483 4.41 15.16C4.88075 14.3607 5.55159 13.6979 6.35644 13.2367C7.16129 12.7755 8.07239 12.532 9 12.53C9.91825 12.5052 10.8271 12.7199 11.6372 13.1529C12.4473 13.586 13.1306 14.2226 13.62 15C13.8436 15.3914 13.9612 15.8343 13.9612 16.285C13.9612 16.7357 13.8436 17.1787 13.62 17.57C13.4165 17.9185 13.1241 18.2068 12.7727 18.4053C12.4213 18.6038 12.0235 18.7055 11.62 18.7L6.13 18.75ZM9 14.53C8.43539 14.5349 7.88147 14.6846 7.39124 14.9647C6.901 15.2448 6.49084 15.6461 6.2 16.13C6.13657 16.2128 6.09506 16.3103 6.07933 16.4135C6.0636 16.5166 6.07415 16.622 6.11 16.72H11.72C11.7696 16.7235 11.8192 16.7132 11.8633 16.6902C11.9074 16.6673 11.9443 16.6326 11.97 16.59C12.0156 16.5019 12.0394 16.4042 12.0394 16.305C12.0394 16.2058 12.0156 16.1081 11.97 16.02C11.6532 15.5289 11.2107 15.1317 10.6884 14.8697C10.166 14.6076 9.58302 14.4903 9 14.53Z" fill="white"/>
  <path d="M19 9.23999H16C15.7348 9.23999 15.4804 9.13463 15.2929 8.9471C15.1054 8.75956 15 8.50521 15 8.23999C15 7.97477 15.1054 7.72042 15.2929 7.53288C15.4804 7.34535 15.7348 7.23999 16 7.23999H19C19.2652 7.23999 19.5196 7.34535 19.7071 7.53288C19.8946 7.72042 20 7.97477 20 8.23999C20 8.50521 19.8946 8.75956 19.7071 8.9471C19.5196 9.13463 19.2652 9.23999 19 9.23999Z" fill="white"/>
  <path d="M17.7 13H15.93C15.6648 13 15.4104 12.8946 15.2229 12.7071C15.0353 12.5196 14.93 12.2652 14.93 12C14.93 11.7348 15.0353 11.4804 15.2229 11.2929C15.4104 11.1054 15.6648 11 15.93 11H17.7C17.9652 11 18.2196 11.1054 18.4071 11.2929C18.5946 11.4804 18.7 11.7348 18.7 12C18.7 12.2652 18.5946 12.5196 18.4071 12.7071C18.2196 12.8946 17.9652 13 17.7 13Z" fill="white"/>
  <path d="M18.84 23.84H5.15997C3.83389 23.84 2.56212 23.3132 1.62444 22.3756C0.686757 21.4379 0.159973 20.1661 0.159973 18.84V5.16003C0.159973 3.83395 0.686757 2.56218 1.62444 1.6245C2.56212 0.686818 3.83389 0.160034 5.15997 0.160034H18.84C20.1661 0.160034 21.4378 0.686818 22.3755 1.6245C23.3132 2.56218 23.84 3.83395 23.84 5.16003V18.84C23.84 20.1661 23.3132 21.4379 22.3755 22.3756C21.4378 23.3132 20.1661 23.84 18.84 23.84ZM5.15997 2.16003C4.36432 2.16003 3.60126 2.4761 3.03865 3.03871C2.47604 3.60132 2.15997 4.36438 2.15997 5.16003V18.84C2.15997 19.6357 2.47604 20.3987 3.03865 20.9614C3.60126 21.524 4.36432 21.84 5.15997 21.84H18.84C19.6356 21.84 20.3987 21.524 20.9613 20.9614C21.5239 20.3987 21.84 19.6357 21.84 18.84V5.16003C21.84 4.36438 21.5239 3.60132 20.9613 3.03871C20.3987 2.4761 19.6356 2.16003 18.84 2.16003H5.15997Z" fill="white"/>
</svg>
