<svg width="22" height="22" viewBox="0 0 22 22" fill="none" xmlns="http://www.w3.org/2000/svg">
<g opacity="1">
<path d="M8.11245 9.075C10.6184 9.075 12.65 7.04349 12.65 4.5375C12.65 2.03151 10.6184 0 8.11245 0C5.60646 0 3.57495 2.03151 3.57495 4.5375C3.57495 7.04349 5.60646 9.075 8.11245 9.075Z" fill="white"/>
<path d="M8.8 10.2437C8.525 10.2437 8.25 10.175 7.90625 10.175C7.5625 10.175 7.21875 10.175 6.875 10.2437C7.15 10.5187 7.49375 10.8625 7.90625 11.275L8.8 10.2437Z" fill="white"/>
<path d="M6.94373 19.1125L7.90623 20.2813L8.73123 19.25L7.83748 14.7125L6.94373 19.1125Z" fill="white"/>
<path d="M17.8063 13.5438C15.4688 13.5438 13.6125 15.4 13.6125 17.7375C13.6125 20.075 15.4688 21.9313 17.8063 21.9313C20.1438 21.9313 22 20.075 22 17.7375C22 15.4 20.1438 13.5438 17.8063 13.5438ZM19.6625 17.6L19.0438 18.2188C18.975 18.2875 18.975 18.3563 18.975 18.4938L19.1125 19.3875C19.1813 19.5938 18.9063 19.8 18.7 19.6625L17.9438 19.25C17.875 19.1813 17.7375 19.1813 17.6688 19.25L16.9125 19.6625C16.7063 19.8 16.5 19.5938 16.5 19.3875L16.6375 18.4938C16.6375 18.425 16.6375 18.2875 16.5688 18.2188L15.95 17.6C15.8125 17.4625 15.8813 17.1875 16.0875 17.1188L16.9813 16.9813C17.05 16.9813 17.1188 16.9125 17.1875 16.8438L17.6 16.0188C17.6688 15.8125 18.0125 15.8125 18.0813 16.0188L18.4938 16.8438C18.5625 16.9125 18.6313 16.9813 18.7 16.9813L19.5938 17.1188C19.7313 17.1875 19.8688 17.4625 19.6625 17.6Z" fill="white"/>
<path d="M12.5125 17.8062C12.5125 15.95 13.475 14.3687 14.9188 13.4062C13.8875 11.9625 12.1 10.8625 9.96875 10.3812L8.45625 12.1687L9.7625 19.25C9.7625 19.3875 9.7625 19.525 9.625 19.6625L8.25 21.3812C8.18125 21.5187 7.975 21.5875 7.8375 21.5875C7.7 21.5875 7.5625 21.5187 7.425 21.3812L5.9125 19.4562C5.84375 19.3187 5.775 19.1812 5.84375 19.0437L7.2875 12.1687C6.6 11.4812 5.9125 10.725 5.5 10.3812C2.3375 11.2062 0 13.4062 0 16.0875V20.625C0 21.3812 0.61875 22 1.375 22H14.4375C14.5063 22 14.575 22 14.6437 22C13.4062 21.0375 12.5125 19.525 12.5125 17.8062Z" fill="white"/>
</g>
</svg>
