<svg width="26" height="20" viewBox="0 0 26 20" fill="none" xmlns="http://www.w3.org/2000/svg">
<path opacity="1" d="M25.4922 6.94922C24.3242 7.86328 22.8516 8.98047 17.6719 12.7383C16.6562 13.5 14.7773 15.1758 13 15.1758C11.1719 15.1758 9.34375 13.5 8.27734 12.7383C3.09766 8.98047 1.625 7.86328 0.457031 6.94922C0.253906 6.79688 0 6.94922 0 7.20312V17.5625C0 18.9336 1.06641 20 2.4375 20H23.5625C24.8828 20 26 18.9336 26 17.5625V7.20312C26 6.94922 25.6953 6.79688 25.4922 6.94922ZM13 13.5C14.168 13.5508 15.8438 12.0273 16.707 11.418C23.4609 6.54297 23.9688 6.08594 25.4922 4.86719C25.7969 4.66406 26 4.30859 26 3.90234V2.9375C26 1.61719 24.8828 0.5 23.5625 0.5H2.4375C1.06641 0.5 0 1.61719 0 2.9375V3.90234C0 4.30859 0.152344 4.66406 0.457031 4.86719C1.98047 6.08594 2.48828 6.54297 9.24219 11.418C10.1055 12.0273 11.7812 13.5508 13 13.5Z" fill="white"/>
</svg>
