<svg width="22" height="22" viewBox="0 0 22 22" fill="none" xmlns="http://www.w3.org/2000/svg">
<g opacity="1">
<path d="M17.3253 4.60625H21.8628L17.3941 0H17.3253V4.60625Z" fill="white"/>
<path d="M16.7753 5.70625C16.5003 5.70625 16.2253 5.5 16.2253 5.15625V0H5.98154C5.43154 0 5.01904 0.4125 5.01904 0.89375V21.1063C5.01904 21.5875 5.43154 22 5.98154 22H8.59404H21.3128C21.7253 22 22.0003 21.6562 22.0003 21.3125V13.2687V8.31875V5.70625H16.7753Z" fill="white"/>
<path d="M4.19375 22C4.05625 21.725 3.91875 21.45 3.91875 21.1063V3.09375H0.9625C0.4125 3.09375 0 3.50625 0 3.9875V21.3125C0 21.725 0.275 22 0.6875 22H4.19375Z" fill="white"/>
</g>
</svg>
