<svg width="22" height="24" viewBox="0 0 22 24" fill="none" xmlns="http://www.w3.org/2000/svg">
<g opacity="5">
<path d="M17.2562 23.3995L21.5187 19.687C21.7937 19.412 22 19.0683 22 18.6558C22 18.2433 21.7937 17.8995 21.5187 17.6245L17.2562 14.0495C16.7062 13.5683 15.8125 13.637 15.3312 14.187C15.125 14.462 14.9875 14.737 14.9875 15.0808C14.9875 15.4933 15.125 15.837 15.4687 16.1121L16.8437 17.2808H10.725C9.96873 17.2808 9.34998 17.8995 9.34998 18.6558C9.34998 19.412 9.96873 20.0308 10.725 20.0308H16.9812L15.4687 21.337C14.9187 21.8183 14.85 22.7121 15.3312 23.2621C15.8125 23.8121 16.6375 23.8808 17.2562 23.3995Z" fill="white"/>
<path d="M11.32 9.6254C13.092 7.85341 13.092 4.98045 11.32 3.20847C9.54805 1.43648 6.67509 1.43648 4.90311 3.20846C3.13112 4.98045 3.13112 7.85341 4.90311 9.6254C6.67509 11.3974 9.54805 11.3974 11.32 9.6254Z" fill="white"/>
<path d="M13.75 21.4058H10.725C9.2125 21.4058 7.975 20.1683 7.975 18.6558C7.975 17.1433 9.2125 15.9058 10.725 15.9058H13.75C13.6812 15.6308 13.6125 15.3558 13.6125 15.0808C13.6125 14.737 13.6813 14.3933 13.8188 14.0495C12.375 12.812 10.2437 12.0558 7.90625 12.0558C3.50625 12.0558 0 14.6683 0 17.9683V22.5058C0 23.262 0.61875 23.8808 1.375 23.8808H14.025C13.5437 23.1245 13.475 22.2308 13.75 21.4058Z" fill="white"/>
</g>
</svg>
