<svg width="34" height="24" viewBox="0 0 34 24" fill="none" xmlns="http://www.w3.org/2000/svg">
<path opacity="1" d="M13.2891 12.1484C11.8672 8.28906 13.543 4.02344 16.9961 2.04297C16.5898 1.73828 16.1328 1.48438 15.625 1.28125C12.1211 0.0117188 8.21094 1.83984 6.94141 5.34375C6.89062 5.44531 6.17969 7.42578 6.12891 7.52734C4.65625 11.5898 2.77734 12.3008 1.71094 12.8594C0.695312 13.3672 0.746094 14.8906 1.86328 15.3477L14.2031 19.8164C14.6602 18.8516 15.2188 17.5312 14.0508 14.332C13.543 12.9609 13.7461 13.4688 13.2891 12.1484ZM8.00781 21.8477C9.37891 22.3555 10.9023 21.7969 11.7148 20.6289L5.875 18.4961C5.77344 19.918 6.58594 21.3398 8.00781 21.8477ZM26.4414 23.4727C27.8633 22.9648 28.6758 21.543 28.5742 20.1211L22.7344 22.2539C23.5469 23.4219 25.0703 23.9805 26.4414 23.4727ZM32.7383 14.4844C31.6719 13.9258 29.793 13.2148 28.3203 9.15234C28.2695 9.05078 27.5586 7.07031 27.5078 6.96875C26.2383 3.46484 22.3789 1.63672 18.8242 2.95703C15.3203 4.22656 13.4922 8.08594 14.8125 11.5898C14.8125 11.7422 15.5234 13.6719 15.5742 13.7734C17.0469 17.8359 16.082 19.6133 15.625 20.7305C15.168 21.7461 16.1836 22.9141 17.3008 22.5078L32.5859 16.9727C33.6523 16.5664 33.8555 15.043 32.7383 14.4844Z" fill="white"/>
</svg>
