<svg width="22" height="22" viewBox="0 0 22 22" fill="none" xmlns="http://www.w3.org/2000/svg">
<g clip-path="url(#clip0)">
<path d="M11.1375 12.7875C12.9221 12.7875 14.3687 11.3408 14.3687 9.5562C14.3687 7.77163 12.9221 6.32495 11.1375 6.32495C9.35293 6.32495 7.90625 7.77163 7.90625 9.5562C7.90625 11.3408 9.35293 12.7875 11.1375 12.7875Z" fill="white"/>
<path d="M6.29371 6.4191C8.05526 6.13322 9.25152 4.47344 8.96563 2.71189C8.67974 0.950342 7.01996 -0.245917 5.25841 0.039971C3.49687 0.325859 2.30061 1.98563 2.58649 3.74718C2.87238 5.50873 4.53216 6.70499 6.29371 6.4191Z" fill="white"/>
<path d="M7.90625 12.7875C7.08125 11.9625 6.6 10.7937 6.6 9.55625C6.6 8.73125 6.80625 7.975 7.15 7.35625C6.66875 7.2875 6.1875 7.21875 5.6375 7.21875C2.54375 7.21875 0 9.075 0 11.4125V14.6437C0 15.1937 0.4125 15.6063 0.9625 15.6063H4.5375C5.225 14.4375 6.39375 13.4063 7.90625 12.7875Z" fill="white"/>
<path d="M16.5003 6.4625C18.2849 6.4625 19.7315 5.01582 19.7315 3.23125C19.7315 1.44668 18.2849 0 16.5003 0C14.7157 0 13.269 1.44668 13.269 3.23125C13.269 5.01582 14.7157 6.4625 16.5003 6.4625Z" fill="white"/>
<path d="M16.3628 7.21875C15.9503 7.21875 15.5378 7.2875 15.1253 7.35625C15.469 8.04375 15.744 8.8 15.744 9.625C15.744 10.9313 15.194 12.1 14.3003 12.925C15.6753 13.5437 16.7753 14.5062 17.394 15.675H20.969C21.519 15.675 21.9315 15.2625 21.9315 14.7125V11.4813C22.0003 9.14375 19.4565 7.21875 16.3628 7.21875Z" fill="white"/>
<path d="M11.0689 19.3188L11.8939 18.2188L11.0002 13.8188L10.1064 18.0813L11.0689 19.3188Z" fill="white"/>
<path d="M11.6878 13.6125L12.5815 18.2188C12.5815 18.2875 12.5815 18.425 12.5128 18.4938L11.344 20.075C11.2753 20.1438 11.2065 20.2125 11.069 20.2125C10.9315 20.2125 10.8628 20.1438 10.794 20.075L9.41904 18.3563C9.35029 18.2875 9.35029 18.15 9.35029 18.0813L10.3128 13.6125C7.49404 13.8188 5.36279 15.6063 5.36279 17.8063V21.0375C5.36279 21.5875 5.77529 22 6.32529 22H15.6065C16.1565 22 16.569 21.5875 16.569 21.0375V17.8063C16.6378 15.675 14.5065 13.8875 11.6878 13.6125Z" fill="white"/>
</g>
<defs>
<clipPath id="clip0">
<rect width="22" height="22" fill="white"/>
</clipPath>
</defs>
</svg>
