<svg width="24" height="24" viewBox="0 0 24 24" fill="none" xmlns="http://www.w3.org/2000/svg">
  <path d="M10.86 10.62C10.2256 10.6225 9.59722 10.4981 9.01163 10.2543C8.42603 10.0104 7.89508 9.65199 7.44998 9.20003C6.56484 8.29009 6.0735 7.06825 6.08227 5.79884C6.09104 4.52943 6.5992 3.3145 7.49683 2.41687C8.39446 1.51924 9.60939 1.01108 10.8788 1.00231C12.1482 0.993546 13.37 1.48488 14.28 2.37003C15.1831 3.2771 15.6902 4.505 15.6902 5.78503C15.6902 7.06505 15.1831 8.29296 14.28 9.20003C13.833 9.65229 13.3003 10.0108 12.7131 10.2547C12.1258 10.4985 11.4958 10.6227 10.86 10.62ZM10.86 2.96003C10.3006 2.96047 9.75387 3.12668 9.28888 3.43768C8.8239 3.74867 8.46152 4.19049 8.2475 4.70733C8.03349 5.22417 7.97745 5.79285 8.08646 6.34152C8.19548 6.89019 8.46465 7.39425 8.85998 7.79003C9.40037 8.30132 10.1161 8.58624 10.86 8.58624C11.6039 8.58624 12.3196 8.30132 12.86 7.79003C13.2553 7.39425 13.5245 6.89019 13.6335 6.34152C13.7425 5.79285 13.6865 5.22417 13.4725 4.70733C13.2585 4.19049 12.8961 3.74867 12.4311 3.43768C11.9661 3.12668 11.4194 2.96047 10.86 2.96003Z" fill="white"/>
  <path d="M17.67 21.52C17.5384 21.5208 17.4079 21.4956 17.2861 21.4458C17.1642 21.396 17.0534 21.3227 16.96 21.23C16.8663 21.1371 16.7919 21.0265 16.7411 20.9046C16.6903 20.7828 16.6642 20.652 16.6642 20.52C16.6642 20.388 16.6903 20.2573 16.7411 20.1355C16.7919 20.0136 16.8663 19.903 16.96 19.81L21.51 15.26C21.6983 15.0717 21.9537 14.9659 22.22 14.9659C22.4863 14.9659 22.7417 15.0717 22.93 15.26C23.1183 15.4483 23.2241 15.7037 23.2241 15.97C23.2241 16.2363 23.1183 16.4917 22.93 16.68L18.38 21.23C18.2865 21.3227 18.1757 21.396 18.0539 21.4458C17.9321 21.4956 17.8016 21.5208 17.67 21.52Z" fill="white"/>
  <path d="M22.18 21.48C22.0477 21.4794 21.9168 21.4526 21.795 21.4011C21.6731 21.3496 21.5626 21.2744 21.47 21.18L17 16.72C16.8138 16.5326 16.7092 16.2791 16.7092 16.015C16.7092 15.7508 16.8138 15.4973 17 15.31C17.093 15.2162 17.2036 15.1418 17.3254 15.0911C17.4473 15.0403 17.578 15.0142 17.71 15.0142C17.842 15.0142 17.9727 15.0403 18.0946 15.0911C18.2165 15.1418 18.3271 15.2162 18.42 15.31L22.88 19.77C23.0663 19.9573 23.1708 20.2108 23.1708 20.475C23.1708 20.7391 23.0663 20.9926 22.88 21.18C22.6954 21.3684 22.4438 21.4762 22.18 21.48Z" fill="white"/>
  <path d="M3.78998 22.78C3.20794 22.7911 2.6336 22.6457 2.12698 22.359C1.62035 22.0722 1.20004 21.6547 0.909977 21.15C0.54515 20.455 0.368863 19.6766 0.398691 18.8923C0.428519 18.108 0.663422 17.3452 1.07998 16.68C2.00379 15.1162 3.32031 13.821 4.899 12.923C6.47769 12.0249 8.26371 11.555 10.08 11.56C12.1511 11.579 14.1852 12.1116 16 13.11C16.1137 13.1761 16.2133 13.2641 16.293 13.3688C16.3727 13.4735 16.4309 13.593 16.4644 13.7202C16.4978 13.8475 16.5058 13.9801 16.4879 14.1105C16.47 14.2409 16.4265 14.3664 16.36 14.48C16.2946 14.5946 16.2073 14.6951 16.1029 14.7758C15.9986 14.8565 15.8793 14.9157 15.752 14.9501C15.6246 14.9845 15.4918 14.9933 15.361 14.9762C15.2302 14.959 15.1041 14.9161 14.99 14.85C13.4985 14.0235 11.8251 13.5802 10.12 13.56C8.65881 13.5582 7.22211 13.935 5.94982 14.6535C4.67752 15.372 3.61301 16.4078 2.85998 17.66C2.61832 18.0224 2.47392 18.4408 2.44065 18.8751C2.40737 19.3094 2.48635 19.745 2.66998 20.14C2.78406 20.3423 2.95183 20.5091 3.15478 20.6221C3.35772 20.735 3.58793 20.7896 3.81998 20.78H14.5C14.7652 20.78 15.0195 20.8853 15.2071 21.0729C15.3946 21.2604 15.5 21.5148 15.5 21.78C15.5 22.0452 15.3946 22.2995 15.2071 22.4871C15.0195 22.6746 14.7652 22.78 14.5 22.78H3.78998Z" fill="white"/>
  <path d="M10.86 10.62C10.2256 10.6225 9.59722 10.4981 9.01163 10.2543C8.42603 10.0104 7.89508 9.65199 7.44998 9.20003C6.56484 8.29009 6.0735 7.06825 6.08227 5.79884C6.09104 4.52943 6.5992 3.3145 7.49683 2.41687C8.39446 1.51924 9.60939 1.01108 10.8788 1.00231C12.1482 0.993546 13.37 1.48488 14.28 2.37003C15.1831 3.2771 15.6902 4.505 15.6902 5.78503C15.6902 7.06505 15.1831 8.29296 14.28 9.20003C13.833 9.65229 13.3003 10.0108 12.7131 10.2547C12.1258 10.4985 11.4958 10.6227 10.86 10.62ZM10.86 2.96003C10.3006 2.96047 9.75387 3.12668 9.28888 3.43768C8.8239 3.74867 8.46152 4.19049 8.2475 4.70733C8.03349 5.22417 7.97745 5.79285 8.08646 6.34152C8.19548 6.89019 8.46465 7.39425 8.85998 7.79003C9.40037 8.30132 10.1161 8.58624 10.86 8.58624C11.6039 8.58624 12.3196 8.30132 12.86 7.79003C13.2553 7.39425 13.5245 6.89019 13.6335 6.34152C13.7425 5.79285 13.6865 5.22417 13.4725 4.70733C13.2585 4.19049 12.8961 3.74867 12.4311 3.43768C11.9661 3.12668 11.4194 2.96047 10.86 2.96003Z" fill="white"/>
</svg>
