<svg width="22" height="22" viewBox="0 0 22 22" fill="none" xmlns="http://www.w3.org/2000/svg">
  <g clip-path="url(#clip0)">
    <path d="M17.2562 21.5187L21.5187 17.8062C21.7937 17.5312 22 17.1875 22 16.775C22 16.3625 21.7937 16.0187 21.5187 15.7437L17.2562 12.1687C16.7062 11.6875 15.8125 11.7562 15.3312 12.3062C15.125 12.5812 14.9875 12.8562 14.9875 13.2C14.9875 13.6125 15.125 13.9562 15.4687 14.2312L16.8437 15.4H10.725C9.96873 15.4 9.34998 16.0187 9.34998 16.775C9.34998 17.5312 9.96873 18.15 10.725 18.15H16.9812L15.4687 19.4562C14.9187 19.9375 14.85 20.8312 15.3312 21.3812C15.8125 21.9312 16.6375 22 17.2562 21.5187Z" fill="white"/>
    <path d="M11.32 7.74456C13.092 5.97258 13.092 3.09962 11.32 1.32763C9.54805 -0.444354 6.67509 -0.444355 4.90311 1.32763C3.13112 3.09962 3.13112 5.97258 4.90311 7.74456C6.67509 9.51655 9.54805 9.51655 11.32 7.74456Z" fill="white"/>
    <path d="M13.75 19.525H10.725C9.2125 19.525 7.975 18.2875 7.975 16.775C7.975 15.2625 9.2125 14.025 10.725 14.025H13.75C13.6812 13.75 13.6125 13.475 13.6125 13.2C13.6125 12.8562 13.6813 12.5125 13.8188 12.1687C12.375 10.9312 10.2438 10.175 7.90625 10.175C3.50625 10.175 0 12.7875 0 16.0875V20.625C0 21.3812 0.61875 22 1.375 22H14.025C13.5437 21.2437 13.475 20.35 13.75 19.525Z" fill="white"/>
  </g>
  <defs>
    <clipPath id="clip0">
      <rect width="22" height="22" fill="white"/>
    </clipPath>
  </defs>
</svg>
