<svg width="24" height="24" viewBox="0 0 24 24" fill="none" xmlns="http://www.w3.org/2000/svg">
  <path d="M10.86 10.3599C10.0664 10.3584 9.28537 10.1613 8.58603 9.78615C7.88669 9.41098 7.29057 8.86925 6.85039 8.20889C6.41021 7.54853 6.13954 6.78988 6.0623 6.00002C5.98506 5.21017 6.10364 4.41345 6.40755 3.68033C6.71147 2.9472 7.19135 2.30026 7.80476 1.79671C8.41817 1.29316 9.14622 0.948524 9.9245 0.793272C10.7028 0.638021 11.5073 0.67694 12.267 0.906588C13.0267 1.13624 13.7181 1.54954 14.28 2.10994C14.9525 2.78732 15.4097 3.64843 15.5941 4.58497C15.7785 5.52151 15.6819 6.49166 15.3163 7.37342C14.9508 8.25518 14.3327 9.00917 13.5398 9.54056C12.7469 10.072 11.8145 10.357 10.86 10.3599ZM10.86 2.68994C10.3007 2.69315 9.75476 2.86145 9.29071 3.17373C8.82667 3.486 8.46517 3.92836 8.25156 4.44529C8.03794 4.96223 7.98174 5.53074 8.08998 6.0795C8.19822 6.62826 8.4661 7.13284 8.86 7.52994C9.40152 8.039 10.1168 8.32241 10.86 8.32241C11.6032 8.32241 12.3185 8.039 12.86 7.52994C13.2539 7.13284 13.5218 6.62826 13.63 6.0795C13.7383 5.53074 13.6821 4.96223 13.4685 4.44529C13.2548 3.92836 12.8933 3.486 12.4293 3.17373C11.9653 2.86145 11.4193 2.69315 10.86 2.68994Z" fill="white"/>
  <path d="M3.78998 22.7801C3.20794 22.7912 2.6336 22.6458 2.12698 22.3591C1.62035 22.0723 1.20004 21.6548 0.909977 21.1501C0.54515 20.4551 0.368863 19.6767 0.398691 18.8924C0.428519 18.1081 0.663422 17.3453 1.07998 16.6801C1.99614 15.1273 3.29987 13.839 4.86351 12.9415C6.42715 12.044 8.19708 11.568 9.99998 11.5601H10.13C12.184 11.5889 14.1995 12.1211 16 13.1101C16.2176 13.2484 16.3734 13.4655 16.4348 13.7161C16.4962 13.9666 16.4583 14.2311 16.3293 14.4544C16.2002 14.6777 15.9898 14.8425 15.7421 14.9144C15.4944 14.9862 15.2285 14.9596 15 14.8401C13.5058 14.0213 11.8336 13.5818 10.13 13.5601C8.66939 13.5612 7.23381 13.9392 5.96201 14.6575C4.69021 15.3757 3.62522 16.4099 2.86998 17.6601C2.62832 18.0225 2.48392 18.4409 2.45065 18.8752C2.41737 19.3095 2.49635 19.7451 2.67998 20.1401C2.79406 20.3424 2.96183 20.5092 3.16478 20.6221C3.36772 20.7351 3.59793 20.7897 3.82998 20.7801H15.5C15.7652 20.7801 16.0195 20.8854 16.2071 21.073C16.3946 21.2605 16.5 21.5148 16.5 21.7801C16.5 22.0453 16.3946 22.2996 16.2071 22.4872C16.0195 22.6747 15.7652 22.7801 15.5 22.7801H3.78998Z" fill="white"/>
  <path d="M20.29 22.17C20.0248 22.17 19.7704 22.0646 19.5829 21.8771C19.3953 21.6896 19.29 21.4352 19.29 21.17V15.63C19.29 15.3648 19.3953 15.1104 19.5829 14.9229C19.7704 14.7354 20.0248 14.63 20.29 14.63C20.5552 14.63 20.8095 14.7354 20.9971 14.9229C21.1846 15.1104 21.29 15.3648 21.29 15.63V21.17C21.29 21.4352 21.1846 21.6896 20.9971 21.8771C20.8095 22.0646 20.5552 22.17 20.29 22.17Z" fill="white"/>
  <path d="M23 19.4H17.57C17.3048 19.4 17.0504 19.2947 16.8629 19.1071C16.6754 18.9196 16.57 18.6652 16.57 18.4C16.57 18.1348 16.6754 17.8805 16.8629 17.6929C17.0504 17.5054 17.3048 17.4 17.57 17.4H23C23.2652 17.4 23.5196 17.5054 23.7071 17.6929C23.8947 17.8805 24 18.1348 24 18.4C24 18.6652 23.8947 18.9196 23.7071 19.1071C23.5196 19.2947 23.2652 19.4 23 19.4Z" fill="white"/>
</svg>
