<svg width="22" height="22" viewBox="0 0 22 22" fill="none" xmlns="http://www.w3.org/2000/svg">
  <g clip-path="url(#clip0)">
    <path d="M21.6562 14.1625L17.9437 9.90002C17.6687 9.62502 17.3249 9.41877 16.9124 9.41877C16.4999 9.41877 16.1562 9.62502 15.8812 9.90002L12.3062 14.1625C11.8249 14.7125 11.8937 15.6063 12.4437 16.0875C12.7187 16.2938 12.9937 16.4313 13.3374 16.4313C13.7499 16.4313 14.0937 16.2938 14.3687 15.95L15.5374 14.575V20.6938C15.5374 21.45 16.1562 22.0688 16.9124 22.0688C17.6687 22.0688 18.2874 21.45 18.2874 20.6938V14.4375L19.5937 15.95C20.0749 16.5 20.9687 16.5688 21.5187 16.0875C22.0687 15.6063 22.1374 14.7125 21.6562 14.1625Z" fill="white"/>
    <path d="M8.11244 9.075C10.6184 9.075 12.6499 7.04349 12.6499 4.5375C12.6499 2.03151 10.6184 0 8.11244 0C5.60644 0 3.57494 2.03151 3.57494 4.5375C3.57494 7.04349 5.60644 9.075 8.11244 9.075Z" fill="white"/>
    <path d="M14.0938 17.6688C13.8187 17.7375 13.5437 17.8063 13.2687 17.8063C12.65 17.8063 11.9625 17.6 11.4813 17.1875C10.3125 16.225 10.175 14.5063 11.1375 13.3375L12.7188 11.4813C11.4125 10.725 9.69375 10.2438 7.90625 10.2438C3.50625 10.175 0 12.7875 0 16.0875V20.625C0 21.3813 0.61875 22 1.375 22H14.4375C14.2312 21.5875 14.0938 21.175 14.0938 20.6938V17.6688Z" fill="white"/>
  </g>
  <defs>
    <clipPath id="clip0">
      <rect width="22" height="22" fill="white"/>
    </clipPath>
  </defs>
</svg>
