<svg width="24" height="24" viewBox="0 0 24 24" fill="none" xmlns="http://www.w3.org/2000/svg">
  <path d="M12.14 9.79996C11.1788 9.79996 10.2391 9.51492 9.4399 8.9809C8.64068 8.44688 8.01776 7.68785 7.64992 6.7998C7.28207 5.91175 7.18583 4.93457 7.37335 3.99182C7.56088 3.04907 8.02375 2.1831 8.70343 1.50342C9.38311 0.823736 10.2491 0.360866 11.1918 0.173342C12.1346 -0.0141824 13.1118 0.0820618 13.9998 0.449904C14.8879 0.817746 15.6469 1.44066 16.1809 2.23989C16.7149 3.03911 17 3.97874 17 4.93996C16.9973 6.2281 16.4844 7.46272 15.5736 8.37358C14.6627 9.28443 13.4281 9.79732 12.14 9.79996ZM12.14 2.08996C11.5739 2.08996 11.0205 2.25795 10.55 2.57266C10.0795 2.88736 9.7129 3.33463 9.49673 3.85781C9.28056 4.38099 9.22451 4.95655 9.33568 5.5116C9.44684 6.06666 9.72023 6.57624 10.1212 6.97582C10.5222 7.3754 11.0327 7.647 11.5882 7.75622C12.1436 7.86544 12.719 7.80737 13.2414 7.58937C13.7638 7.37137 14.2098 7.00324 14.5228 6.5316C14.8359 6.05997 15.0019 5.50603 15 4.93996C14.9973 4.18317 14.6948 3.45829 14.1588 2.92409C13.6227 2.3899 12.8968 2.08995 12.14 2.08996Z" fill="white"/>
  <path d="M12.14 13C11.8748 13 11.6204 12.8947 11.4329 12.7072C11.2454 12.5196 11.14 12.2653 11.14 12V8.80005C11.14 8.53483 11.2454 8.28048 11.4329 8.09294C11.6204 7.90541 11.8748 7.80005 12.14 7.80005C12.4052 7.80005 12.6596 7.90541 12.8471 8.09294C13.0347 8.28048 13.14 8.53483 13.14 8.80005V12C13.14 12.2653 13.0347 12.5196 12.8471 12.7072C12.6596 12.8947 12.4052 13 12.14 13Z" fill="white"/>
  <path d="M20.83 17.74C20.5648 17.74 20.3104 17.6347 20.1229 17.4472C19.9354 17.2596 19.83 17.0053 19.83 16.74V14.92C19.83 14.6548 19.7247 14.4005 19.5371 14.2129C19.3496 14.0254 19.0952 13.92 18.83 13.92H5.83002C5.5648 13.92 5.31045 14.0254 5.12291 14.2129C4.93537 14.4005 4.83002 14.6548 4.83002 14.92V16.65C4.83002 16.9153 4.72466 17.1696 4.53712 17.3572C4.34959 17.5447 4.09523 17.65 3.83002 17.65C3.5648 17.65 3.31045 17.5447 3.12291 17.3572C2.93537 17.1696 2.83002 16.9153 2.83002 16.65V14.92C2.83002 14.1244 3.14609 13.3613 3.7087 12.7987C4.27131 12.2361 5.03437 11.92 5.83002 11.92H18.83C19.6257 11.92 20.3887 12.2361 20.9513 12.7987C21.5139 13.3613 21.83 14.1244 21.83 14.92V16.74C21.83 17.0053 21.7247 17.2596 21.5371 17.4472C21.3496 17.6347 21.0952 17.74 20.83 17.74Z" fill="white"/>
  <path d="M7.00001 23.72H1.45001C1.1848 23.72 0.930442 23.6147 0.742905 23.4272C0.555369 23.2396 0.450012 22.9853 0.450012 22.72V17.17C0.450012 16.9048 0.555369 16.6505 0.742905 16.4629C0.930442 16.2754 1.1848 16.17 1.45001 16.17H7.00001C7.26523 16.17 7.51958 16.2754 7.70712 16.4629C7.89466 16.6505 8.00001 16.9048 8.00001 17.17V22.72C8.00001 22.9853 7.89466 23.2396 7.70712 23.4272C7.51958 23.6147 7.26523 23.72 7.00001 23.72ZM2.45001 21.72H6.00001V18.17H2.45001V21.72Z" fill="white"/>
  <path d="M22.78 23.72H17.23C16.9648 23.72 16.7104 23.6147 16.5229 23.4272C16.3353 23.2396 16.23 22.9853 16.23 22.72V17.17C16.23 16.9048 16.3353 16.6505 16.5229 16.4629C16.7104 16.2754 16.9648 16.17 17.23 16.17H22.78C23.0452 16.17 23.2996 16.2754 23.4871 16.4629C23.6746 16.6505 23.78 16.9048 23.78 17.17V22.72C23.78 22.9853 23.6746 23.2396 23.4871 23.4272C23.2996 23.6147 23.0452 23.72 22.78 23.72ZM18.23 21.72H21.78V18.17H18.23V21.72Z" fill="white"/>
</svg>
