<svg width="24" height="24" viewBox="0 0 24 24" fill="none" xmlns="http://www.w3.org/2000/svg">
<g clip-path="url(#clip0_9380_7680)">
<path d="M14.4251 1C14.4251 1.26522 14.3197 1.51957 14.1322 1.70711C13.9447 1.89464 13.6903 2 13.4251 2L10.2251 2C9.95988 2 9.70553 1.89464 9.51799 1.70711C9.33045 1.51957 9.2251 1.26522 9.2251 1C9.2251 0.734784 9.33045 0.48043 9.51799 0.292893C9.70553 0.105357 9.95988 -3.21184e-08 10.2251 -4.37114e-08L13.4251 -1.83588e-07C13.6903 -1.95181e-07 13.9447 0.105357 14.1322 0.292893C14.3197 0.48043 14.4251 0.734783 14.4251 1Z" fill="white"/>
<path d="M15.4251 3C15.4251 3.26522 15.3197 3.51957 15.1322 3.70711C14.9447 3.89464 14.6903 4 14.4251 4L9.2251 4C8.95988 4 8.70553 3.89464 8.51799 3.70711C8.33045 3.51957 8.2251 3.26522 8.2251 3C8.2251 2.73478 8.33045 2.48043 8.51799 2.29289C8.70553 2.10536 8.95988 2 9.2251 2L14.4251 2C14.6903 2 14.9447 2.10536 15.1322 2.29289C15.3197 2.48043 15.4251 2.73478 15.4251 3Z" fill="white"/>
<path d="M20.36 17.39C20.0948 17.39 19.8405 17.2846 19.6529 17.0971C19.4654 16.9096 19.36 16.6552 19.36 16.39V3.65C19.3614 3.56033 19.3447 3.4713 19.311 3.38819C19.2773 3.30508 19.2273 3.22958 19.1639 3.16616C19.1005 3.10275 19.025 3.05271 18.9419 3.01901C18.8587 2.98532 18.7697 2.96865 18.68 2.97H5.29004C5.02482 2.97 4.77047 3.07536 4.58293 3.26289C4.3954 3.45043 4.29004 3.70478 4.29004 3.97V20.6701C4.29004 20.9353 4.18468 21.1897 3.99715 21.3772C3.80961 21.5647 3.55526 21.6701 3.29004 21.6701C3.02482 21.6701 2.77047 21.5647 2.58293 21.3772C2.3954 21.1897 2.29004 20.9353 2.29004 20.6701L2.29004 4C2.29004 3.20435 2.60611 2.44129 3.16872 1.87868C3.73133 1.31607 4.49439 1 5.29004 1H18.68C19.3908 1 20.0725 1.28236 20.5751 1.78495C21.0777 2.28755 21.36 2.96922 21.36 3.68V16.39C21.36 16.6552 21.2547 16.9096 21.0672 17.0971C20.8796 17.2846 20.6253 17.39 20.36 17.39Z" fill="white"/>
<path d="M20.36 7.61C20.0948 7.61 19.8405 7.71536 19.6529 7.90289C19.4654 8.09043 19.36 8.34478 19.36 8.61V21.35C19.3614 21.4397 19.3447 21.5287 19.311 21.6118C19.2773 21.6949 19.2273 21.7704 19.1639 21.8338C19.1005 21.8973 19.025 21.9473 18.9419 21.981C18.8587 22.0147 18.7697 22.0313 18.68 22.03H5.29004C5.02482 22.03 4.77047 21.9246 4.58293 21.7371C4.3954 21.5496 4.29004 21.2952 4.29004 21.03V19.84C4.29004 19.5748 4.18468 19.3204 3.99715 19.1329C3.80961 18.9454 3.55526 18.84 3.29004 18.84C3.02482 18.84 2.77047 18.9454 2.58293 19.1329C2.3954 19.3204 2.29004 19.5748 2.29004 19.84V21C2.29004 21.7956 2.60611 22.5587 3.16872 23.1213C3.73133 23.6839 4.49439 24 5.29004 24H18.68C19.3908 24 20.0725 23.7176 20.5751 23.215C21.0777 22.7124 21.36 22.0308 21.36 21.32V8.61C21.36 8.34478 21.2547 8.09043 21.0671 7.90289C20.8796 7.71536 20.6253 7.61 20.36 7.61Z" fill="white"/>
<path d="M18.277 6.85864C18.277 7.12386 18.1716 7.37821 17.9841 7.56575C17.7966 7.75329 17.5422 7.85864 17.277 7.85864L6.72314 7.85864C6.45793 7.85864 6.20357 7.75329 6.01604 7.56575C5.8285 7.37821 5.72314 7.12386 5.72314 6.85864C5.72314 6.59343 5.8285 6.33907 6.01604 6.15154C6.20357 5.964 6.45793 5.85864 6.72314 5.85864L17.277 5.85864C17.5422 5.85864 17.7966 5.964 17.9841 6.15154C18.1716 6.33907 18.277 6.59343 18.277 6.85864Z" fill="white"/>
<path d="M18.277 10.5596C18.277 10.8248 18.1716 11.0791 17.9841 11.2667C17.7966 11.4542 17.5422 11.5596 17.277 11.5596L6.72314 11.5596C6.45793 11.5596 6.20357 11.4542 6.01604 11.2667C5.8285 11.0791 5.72314 10.8248 5.72314 10.5596C5.72314 10.2944 5.8285 10.04 6.01604 9.85246C6.20357 9.66493 6.45793 9.55957 6.72314 9.55957L17.277 9.55957C17.5422 9.55957 17.7966 9.66493 17.9841 9.85246C18.1716 10.04 18.277 10.2944 18.277 10.5596Z" fill="white"/>
<path d="M18.277 14.2605C18.277 14.5257 18.1716 14.7801 17.9841 14.9676C17.7966 15.1551 17.5422 15.2605 17.277 15.2605L6.72314 15.2605C6.45793 15.2605 6.20357 15.1551 6.01604 14.9676C5.8285 14.7801 5.72314 14.5257 5.72314 14.2605C5.72314 13.9953 5.8285 13.7409 6.01604 13.5534C6.20357 13.3659 6.45793 13.2605 6.72314 13.2605L17.277 13.2605C17.5422 13.2605 17.7966 13.3659 17.9841 13.5534C18.1716 13.7409 18.277 13.9953 18.277 14.2605Z" fill="white"/>
<path d="M9.28344 19.164C9.14403 18.9383 9.09995 18.6666 9.16091 18.4085C9.22187 18.1503 9.38287 17.927 9.60849 17.7876C9.83411 17.6482 10.1059 17.6041 10.364 17.6651C10.6221 17.726 10.8454 17.887 10.9848 18.1127L11.8312 19.164L16.5525 16.2592C16.7781 16.1198 17.0499 16.0757 17.308 16.1367C17.5661 16.1976 17.7894 16.3586 17.9288 16.5843C18.0682 16.8099 18.1123 17.0816 18.0514 17.3397C17.9904 17.5979 17.8294 17.8212 17.6038 17.9606L12.0403 21.3858C11.8146 21.5252 11.5429 21.5693 11.2848 21.5083C11.0266 21.4474 10.8033 21.2864 10.6639 21.0607L9.31498 19.215L9.28344 19.164Z" fill="white"/>
</g>
<defs>
<clipPath id="clip0_9380_7680">
<rect width="24" height="24" fill="white"/>
</clipPath>
</defs>
</svg>
