<svg width="24" height="24" viewBox="0 0 24 24" fill="none" xmlns="http://www.w3.org/2000/svg">
  <path d="M12.71 11.78C12.2117 11.7902 11.7188 11.6761 11.2757 11.448C10.8326 11.2199 10.4533 10.885 10.1721 10.4736C9.89084 10.0622 9.71653 9.58718 9.66489 9.09151C9.61325 8.59583 9.68591 8.0951 9.87629 7.63455C10.0667 7.17399 10.3688 6.76812 10.7554 6.4536C11.1419 6.13907 11.6008 5.9258 12.0904 5.83305C12.5801 5.7403 13.0851 5.771 13.5599 5.92236C14.0347 6.07373 14.4644 6.34099 14.81 6.70001C15.2145 7.12022 15.4878 7.64923 15.5963 8.22231C15.7049 8.7954 15.644 9.3877 15.4212 9.92673C15.1984 10.4658 14.8232 10.9282 14.3417 11.2573C13.8602 11.5865 13.2931 11.7681 12.71 11.78ZM12.71 7.83001C12.4511 7.83372 12.2038 7.93767 12.02 8.12001C11.927 8.20903 11.8532 8.31621 11.8034 8.43491C11.7535 8.5536 11.7285 8.68127 11.73 8.81001C11.7283 9.0661 11.825 9.31307 12 9.50001C12.1132 9.62506 12.2563 9.71941 12.4158 9.7743C12.5754 9.82919 12.7462 9.84282 12.9124 9.81393C13.0786 9.78505 13.2348 9.71457 13.3665 9.60908C13.4981 9.50358 13.601 9.36649 13.6654 9.21057C13.7298 9.05464 13.7537 8.88495 13.7349 8.7173C13.7161 8.54964 13.6552 8.38946 13.5579 8.25167C13.4605 8.11388 13.3299 8.00296 13.1782 7.92924C13.0264 7.85551 12.8585 7.82138 12.69 7.83001H12.71Z" fill="white"/>
  <path d="M8.99997 16.89C8.82819 16.8895 8.65943 16.8447 8.50997 16.76C8.27954 16.6297 8.11014 16.4134 8.03891 16.1585C7.96767 15.9036 8.00042 15.6308 8.12997 15.4C8.59626 14.6064 9.26083 13.9476 10.0585 13.4883C10.8562 13.029 11.7595 12.7849 12.68 12.78H12.74C13.6579 12.7596 14.5651 12.9807 15.3706 13.4212C16.1762 13.8617 16.8519 14.5062 17.33 15.29C17.4023 15.4038 17.4509 15.5311 17.4728 15.6642C17.4947 15.7972 17.4894 15.9334 17.4573 16.0644C17.4253 16.1954 17.367 16.3185 17.2861 16.4264C17.2052 16.5343 17.1033 16.6247 16.9865 16.6922C16.8697 16.7597 16.7405 16.8029 16.6066 16.8192C16.4728 16.8354 16.337 16.8244 16.2074 16.7869C16.0779 16.7493 15.9573 16.6859 15.8529 16.6005C15.7485 16.5151 15.6625 16.4095 15.6 16.29C15.2947 15.8053 14.8664 15.4102 14.3588 15.1449C13.8511 14.8797 13.2822 14.7538 12.71 14.78C12.1401 14.7799 11.5797 14.926 11.0825 15.2044C10.5852 15.4828 10.1677 15.8841 9.86997 16.37C9.78444 16.5263 9.65869 16.6569 9.50573 16.7484C9.35278 16.8398 9.17817 16.8887 8.99997 16.89Z" fill="white"/>
  <path d="M20.11 11.63C19.9739 11.627 19.8398 11.5961 19.716 11.5394C19.5921 11.4826 19.4812 11.4012 19.39 11.3L17 8.69004C16.821 8.49378 16.7273 8.23444 16.7395 7.96908C16.7516 7.70371 16.8688 7.45406 17.065 7.27504C17.2613 7.09602 17.5206 7.00229 17.786 7.01448C18.0513 7.02667 18.301 7.14378 18.48 7.34004L20.15 9.18004L22 7.31004C22.1874 7.12379 22.4408 7.01925 22.705 7.01925C22.9692 7.01925 23.2227 7.12379 23.41 7.31004C23.5963 7.4974 23.7008 7.75085 23.7008 8.01504C23.7008 8.27923 23.5963 8.53268 23.41 8.72004L20.8 11.34C20.6162 11.5224 20.3689 11.6263 20.11 11.63Z" fill="white"/>
  <path d="M20.32 10.3201C20.0548 10.3201 19.8004 10.2147 19.6129 10.0272C19.4254 9.83962 19.32 9.58527 19.32 9.32005V3.58005C19.3213 3.49038 19.3047 3.40135 19.271 3.31824C19.2373 3.23513 19.1873 3.15963 19.1238 3.09622C19.0604 3.0328 18.9849 2.98276 18.9018 2.94907C18.8187 2.91537 18.7297 2.89871 18.64 2.90005H5.25C4.98478 2.90005 4.73043 3.00541 4.54289 3.19295C4.35536 3.38048 4.25 3.63484 4.25 3.90005V9.09005C4.25 9.35527 4.14464 9.60962 3.95711 9.79716C3.76957 9.9847 3.51522 10.0901 3.25 10.0901C2.98478 10.0901 2.73043 9.9847 2.54289 9.79716C2.35536 9.60962 2.25 9.35527 2.25 9.09005V3.93005C2.25 3.1344 2.56607 2.37134 3.12868 1.80873C3.69129 1.24612 4.45435 0.930054 5.25 0.930054H18.64C19.3508 0.930054 20.0324 1.21241 20.535 1.71501C21.0376 2.2176 21.32 2.89927 21.32 3.61005V9.32005C21.32 9.58527 21.2146 9.83962 21.0271 10.0272C20.8396 10.2147 20.5852 10.3201 20.32 10.3201Z" fill="white"/>
  <path d="M6.18 17C6.0412 17.0009 5.90373 16.973 5.77632 16.9179C5.64892 16.8628 5.53439 16.7818 5.44 16.68L3.77 14.82L1.9 16.69C1.80704 16.7837 1.69644 16.8581 1.57458 16.9089C1.45272 16.9597 1.32201 16.9858 1.19 16.9858C1.05799 16.9858 0.927284 16.9597 0.805425 16.9089C0.683566 16.8581 0.572965 16.7837 0.480002 16.69C0.293751 16.5026 0.189209 16.2492 0.189209 15.985C0.189209 15.7208 0.293751 15.4674 0.480002 15.28L3.1 12.66C3.29665 12.4725 3.55831 12.3686 3.83 12.37C3.96616 12.3731 4.10026 12.4039 4.22407 12.4607C4.34787 12.5174 4.45879 12.5989 4.55 12.7L6.92 15.31C7.09726 15.5065 7.18942 15.7652 7.1763 16.0295C7.16318 16.2938 7.04585 16.5421 6.85 16.72C6.66964 16.894 6.43053 16.9939 6.18 17Z" fill="white"/>
  <path d="M18.67 23.1001H5.28003C4.56832 23.1001 3.88562 22.818 3.38144 22.3157C2.87725 21.8134 2.59267 21.1318 2.59003 20.4201V14.6801C2.59003 14.4148 2.69538 14.1605 2.88292 13.9729C3.07046 13.7854 3.32481 13.6801 3.59003 13.6801C3.85524 13.6801 4.1096 13.7854 4.29713 13.9729C4.48467 14.1605 4.59003 14.4148 4.59003 14.6801V20.4201C4.59265 20.6013 4.66651 20.7743 4.79562 20.9015C4.92474 21.0287 5.09875 21.1001 5.28003 21.1001H18.67C18.9352 21.1001 19.1896 20.9947 19.3771 20.8072C19.5647 20.6196 19.67 20.3653 19.67 20.1001V14.9101C19.67 14.6448 19.7754 14.3905 19.9629 14.2029C20.1505 14.0154 20.4048 13.9101 20.67 13.9101C20.9352 13.9101 21.1896 14.0154 21.3771 14.2029C21.5647 14.3905 21.67 14.6448 21.67 14.9101V20.0701C21.674 20.4665 21.5993 20.8599 21.4503 21.2273C21.3013 21.5948 21.081 21.929 20.802 22.2108C20.5231 22.4926 20.191 22.7162 19.825 22.8689C19.4591 23.0215 19.0665 23.1001 18.67 23.1001Z" fill="white"/>
</svg>
