<svg width="22" height="22" viewBox="0 0 22 22" fill="none" xmlns="http://www.w3.org/2000/svg">
<g clip-path="url(#clip0)">
<path d="M12.8563 21.0376C12.9251 20.0751 13.4063 19.3876 14.3688 18.9751C15.2626 18.6314 16.1563 18.7689 16.8438 19.4564C17.3938 19.9376 17.6001 19.9376 18.0813 19.4564C18.5626 19.0439 18.9751 18.6314 19.3876 18.1501C19.8688 17.6001 19.8688 17.3939 19.3876 16.8439C18.4938 15.8126 18.5626 14.2314 19.6626 13.3376C20.0751 12.9939 20.6251 12.7876 21.1751 12.7876C21.6563 12.7876 21.9313 12.5814 22.0001 12.1689C22.0001 11.3439 22.0001 10.5189 22.0001 9.76265C21.8626 9.35015 21.5188 9.21265 21.1063 9.21265C20.5563 9.21265 20.1438 9.0064 19.7313 8.7314C18.5626 7.7689 18.6313 6.18765 19.3876 5.2939C19.9376 4.6064 20.0063 4.4689 19.3876 3.7814C18.9751 3.30015 18.5626 2.88765 18.0813 2.47515C17.6001 2.06265 17.3938 2.1314 16.9126 2.47515C16.4313 2.9564 15.8813 3.16265 15.1938 3.16265C14.0251 3.16265 13.1313 2.2689 12.9251 1.23765C12.9251 1.10015 12.8563 0.893897 12.8563 0.756397C12.8563 0.343897 12.6501 0.0688965 12.3063 -0.0686035C11.4813 -0.0686035 10.5876 -0.0686035 9.7626 -0.0686035C9.3501 0.137646 9.2126 0.412647 9.14385 0.825147C9.0751 2.06265 8.3876 2.8189 7.21885 3.02515C6.53135 3.16265 5.84385 2.9564 5.29385 2.5439C5.2251 2.61265 5.15635 2.5439 5.01885 2.47515C4.74385 2.20015 4.46885 2.20015 4.1251 2.4064C3.50635 2.88765 2.95635 3.43765 2.4751 4.0564C2.2001 4.40015 2.2001 4.67515 2.4751 5.0189C2.7501 5.36265 2.95635 5.63765 3.09385 5.9814C3.64385 7.4939 2.68135 9.0064 1.03135 9.21265C0.962598 9.21265 0.962598 9.21265 0.893848 9.21265C0.412598 9.1439 0.137598 9.4189 0.0688477 9.8314C0.0688477 10.6564 0.0688477 11.4814 0.0688477 12.2376C0.206348 12.7189 0.618848 12.7876 1.03135 12.7876C1.99385 12.8564 2.68135 13.3376 3.0251 14.2314C3.36885 15.1251 3.23135 15.8814 2.7501 16.6376C2.68135 16.7751 2.54385 16.9126 2.40635 16.9814C2.2001 17.2564 2.2001 17.5314 2.40635 17.8064C2.8876 18.4939 3.50635 19.0439 4.1251 19.5939C4.46885 19.8001 4.6751 19.8001 5.01885 19.5251C5.0876 19.4564 5.15635 19.3876 5.29385 19.3189C6.4626 18.2876 8.6626 18.7001 9.14385 20.6251C9.2126 20.8314 9.2126 20.9689 9.2126 21.1751C9.2126 21.6564 9.41885 21.9314 9.83135 22.0001C10.6563 22.0001 11.4813 22.0001 12.2376 22.0001C12.7188 21.7939 12.8563 21.4501 12.8563 21.0376ZM5.15635 11.0001C5.15635 7.7689 7.76885 5.1564 11.0001 5.08765C14.2313 5.08765 16.8438 7.70015 16.9126 10.9314C16.9813 14.1626 14.3001 16.7751 11.0688 16.8439C7.8376 16.9126 5.15635 14.3001 5.15635 11.0001Z" fill="white"/>
</g>
<defs>
<clipPath id="clip0">
<rect width="22" height="22" fill="white"/>
</clipPath>
</defs>
</svg>
