<svg width="24" height="24" viewBox="0 0 24 24" fill="none" xmlns="http://www.w3.org/2000/svg">
  <path d="M13.52 13.1H10.52C10.2548 13.1 10.0004 12.9946 9.81291 12.8071C9.62538 12.6195 9.52002 12.3652 9.52002 12.1C9.52002 11.8348 9.62538 11.5804 9.81291 11.3929C10.0004 11.2053 10.2548 11.1 10.52 11.1H13.52C13.7852 11.1 14.0396 11.2053 14.2271 11.3929C14.4147 11.5804 14.52 11.8348 14.52 12.1C14.52 12.3652 14.4147 12.6195 14.2271 12.8071C14.0396 12.9946 13.7852 13.1 13.52 13.1Z" fill="white"/>
  <path d="M12.25 16.86H10.48C10.2148 16.86 9.96041 16.7546 9.77287 16.5671C9.58534 16.3796 9.47998 16.1252 9.47998 15.86C9.47998 15.5948 9.58534 15.3404 9.77287 15.1529C9.96041 14.9653 10.2148 14.86 10.48 14.86H12.25C12.5152 14.86 12.7696 14.9653 12.9571 15.1529C13.1446 15.3404 13.25 15.5948 13.25 15.86C13.25 16.1252 13.1446 16.3796 12.9571 16.5671C12.7696 16.7546 12.5152 16.86 12.25 16.86Z" fill="white"/>
  <path d="M2.58002 16.2701C2.3148 16.2701 2.06045 16.1647 1.87291 15.9772C1.68537 15.7896 1.58002 15.5353 1.58002 15.2701C1.58002 15.0048 1.68537 14.7505 1.87291 14.563C2.06045 14.3754 2.3148 14.2701 2.58002 14.2701C2.70006 14.2831 2.8215 14.2706 2.93643 14.2336C3.05136 14.1966 3.1572 14.1357 3.24706 14.0551C3.33692 13.9744 3.40879 13.8757 3.45799 13.7655C3.50719 13.6552 3.53262 13.5358 3.53262 13.4151C3.53262 13.2943 3.50719 13.1749 3.45799 13.0646C3.40879 12.9544 3.33692 12.8557 3.24706 12.775C3.1572 12.6944 3.05136 12.6336 2.93643 12.5965C2.8215 12.5595 2.70006 12.5471 2.58002 12.5601C2.3148 12.5601 2.06045 12.4547 1.87291 12.2672C1.68537 12.0796 1.58002 11.8253 1.58002 11.5601V8.56006C1.58002 7.76441 1.89609 7.00135 2.4587 6.43874C3.02131 5.87613 3.78437 5.56006 4.58002 5.56006H11.15C11.4152 5.56006 11.6696 5.66542 11.8571 5.85295C12.0447 6.04049 12.15 6.29484 12.15 6.56006C12.15 6.82528 12.0447 7.07963 11.8571 7.26717C11.6696 7.4547 11.4152 7.56006 11.15 7.56006H4.58002C4.3148 7.56006 4.06045 7.66542 3.87291 7.85295C3.68537 8.04049 3.58002 8.29484 3.58002 8.56006V10.7301C4.21311 10.959 4.74473 11.4046 5.08068 11.988C5.41662 12.5714 5.5352 13.2549 5.41541 13.9174C5.29561 14.5798 4.94518 15.1785 4.42619 15.6073C3.90721 16.0361 3.25319 16.2674 2.58002 16.2601V16.2701Z" fill="white"/>
  <path d="M17.94 10.5999C17.2742 10.6042 16.6148 10.4692 16.0041 10.2038C15.3935 9.93839 14.845 9.54831 14.3939 9.05858C13.9428 8.56885 13.599 7.99027 13.3845 7.35993C13.17 6.72959 13.0895 6.06139 13.1483 5.39815C13.2071 4.73491 13.4037 4.09126 13.7257 3.50846C14.0477 2.92565 14.4879 2.41655 15.0181 2.01377C15.5483 1.611 16.1568 1.32343 16.8047 1.16951C17.4525 1.01559 18.1253 0.998707 18.78 1.11994C19.3768 1.22019 19.9478 1.43772 20.46 1.75994C20.8614 2.01437 21.225 2.32408 21.54 2.67994C21.715 2.88416 21.8018 3.14955 21.7811 3.41772C21.7605 3.6859 21.6342 3.9349 21.43 4.10994C21.2258 4.28499 20.9604 4.37173 20.6922 4.35111C20.424 4.33048 20.175 4.20416 20 3.99994C19.82 3.79141 19.6112 3.60958 19.38 3.45994C19.0735 3.27151 18.7342 3.14259 18.38 3.07994C17.6893 2.95414 16.9764 3.08957 16.38 3.45994C16.059 3.64799 15.7791 3.89855 15.5567 4.19676C15.3343 4.49497 15.1741 4.83478 15.0854 5.19605C14.9968 5.55733 14.9816 5.93272 15.0406 6.29999C15.0997 6.66726 15.2319 7.01894 15.4293 7.3342C15.6268 7.64946 15.8855 7.92188 16.1902 8.13533C16.4948 8.34879 16.8392 8.49893 17.2029 8.57686C17.5667 8.65479 17.9423 8.65893 18.3077 8.58904C18.6731 8.51914 19.0207 8.37663 19.33 8.16994C19.5554 8.02938 19.8275 7.98412 20.0863 8.04414C20.3451 8.10415 20.5694 8.26451 20.71 8.48994C20.8505 8.71538 20.8958 8.98742 20.8358 9.24622C20.7758 9.50502 20.6154 9.72938 20.39 9.86994C19.6554 10.3326 18.808 10.5851 17.94 10.5999Z" fill="white"/>
  <path d="M19 6.00002C18.7348 6.00002 18.4804 5.89466 18.2929 5.70713C18.1054 5.51959 18 5.26524 18 5.00002C18 4.7348 18.1054 4.48045 18.2929 4.29291C18.4804 4.10538 18.7348 4.00002 19 4.00002L21.21 3.91002V1.27002C21.21 1.0048 21.3154 0.750449 21.5029 0.562913C21.6904 0.375376 21.9448 0.27002 22.21 0.27002C22.4752 0.27002 22.7296 0.375376 22.9171 0.562913C23.1046 0.750449 23.21 1.0048 23.21 1.27002V4.90002C23.21 5.16524 23.1046 5.41959 22.9171 5.60713C22.7296 5.79466 22.4752 5.90002 22.21 5.90002L19.06 6.00002H19Z" fill="white"/>
  <path d="M20.36 21.9201H4.58002C3.78437 21.9201 3.02131 21.604 2.4587 21.0414C1.89609 20.4788 1.58002 19.7157 1.58002 18.9201V15.5401C1.58002 15.2748 1.68537 15.0205 1.87291 14.833C2.06045 14.6454 2.3148 14.5401 2.58002 14.5401C2.84523 14.5401 3.09959 14.6454 3.28712 14.833C3.47466 15.0205 3.58002 15.2748 3.58002 15.5401V18.9201C3.58002 19.1853 3.68537 19.4396 3.87291 19.6272C4.06045 19.8147 4.3148 19.9201 4.58002 19.9201H20.36C20.6252 19.9201 20.8796 19.8147 21.0671 19.6272C21.2547 19.4396 21.36 19.1853 21.36 18.9201V11.5601C21.36 11.2948 21.4654 11.0405 21.6529 10.853C21.8404 10.6654 22.0948 10.5601 22.36 10.5601C22.6252 10.5601 22.8796 10.6654 23.0671 10.853C23.2547 11.0405 23.36 11.2948 23.36 11.5601V18.9201C23.36 19.7157 23.0439 20.4788 22.4813 21.0414C21.9187 21.604 21.1557 21.9201 20.36 21.9201Z" fill="white"/>
</svg>

