<svg width="24" height="24" viewBox="0 0 24 24" fill="none" xmlns="http://www.w3.org/2000/svg">
  <path d="M19.6499 13.8748V2.4748C19.6499 1.4998 18.9749 0.674805 18.1499 0.674805H3.1499C2.3249 0.674805 1.6499 1.4998 1.6499 2.4748V18.7498V19.1998C1.6499 19.9498 2.2499 20.5498 2.9999 20.5498H3.1499H10.6499" stroke="white" stroke-width="1.5" stroke-miterlimit="10" stroke-linecap="round" stroke-linejoin="round"/>
  <path d="M8.4751 8.54971C8.4751 7.79971 9.4501 7.19971 10.5751 7.19971C11.7001 7.19971 12.6751 7.79971 12.6751 8.54971" stroke="white" stroke-width="1.5" stroke-miterlimit="10" stroke-linecap="round" stroke-linejoin="round"/>
  <path d="M10.6503 5.54961C11.1888 5.54961 11.6253 5.11309 11.6253 4.57461C11.6253 4.03613 11.1888 3.59961 10.6503 3.59961C10.1118 3.59961 9.67529 4.03613 9.67529 4.57461C9.67529 5.11309 10.1118 5.54961 10.6503 5.54961Z" stroke="white" stroke-width="1.5" stroke-miterlimit="10" stroke-linecap="round" stroke-linejoin="round"/>
  <path d="M6.2998 11.25H14.9248" stroke="white" stroke-width="1.5" stroke-miterlimit="10" stroke-linecap="round" stroke-linejoin="round"/>
  <path d="M17.55 23.3246C20.201 23.3246 22.35 21.1756 22.35 18.5246C22.35 15.8736 20.201 13.7246 17.55 13.7246C14.899 13.7246 12.75 15.8736 12.75 18.5246C12.75 21.1756 14.899 23.3246 17.55 23.3246Z" stroke="white" stroke-width="1.5" stroke-miterlimit="10" stroke-linecap="round" stroke-linejoin="round"/>
  <path d="M17.5498 17.3999V20.6999" stroke="white" stroke-width="1.5" stroke-miterlimit="10" stroke-linecap="round" stroke-linejoin="round"/>
  <path d="M16.0498 18.3L17.5498 16.5L19.1998 18.3" stroke="white" stroke-width="1.5" stroke-miterlimit="10" stroke-linecap="round" stroke-linejoin="round"/>
</svg>
