<svg width="22" height="22" viewBox="0 0 22 22" fill="none" xmlns="http://www.w3.org/2000/svg">
  <g clip-path="url(#clip0)">
    <g filter="url(#filter0_d)">
      <path d="M5.4996 0C5.06564 0 4.71387 0.351776 4.71387 0.785729V2.35714H6.28529V0.785729C6.28529 0.351776 5.93351 0 5.4996 0Z" fill="white"/>
      <path d="M16.4996 0C16.0656 0 15.7139 0.351776 15.7139 0.785729V2.35714H17.2853V0.785729C17.2853 0.351776 16.9335 0 16.4996 0Z" fill="white"/>
      <path d="M19.6429 2.35718H17.2857V5.50005C17.2857 5.934 16.9339 6.28578 16.5 6.28578C16.066 6.28578 15.7143 5.934 15.7143 5.50005V2.35718H6.28569V5.50005C6.28569 5.934 5.93392 6.28578 5.49997 6.28578C5.06601 6.28578 4.71424 5.934 4.71424 5.50005V2.35718H2.35714C1.05533 2.35718 0 3.41251 0 4.71432V19.6429C0 20.9447 1.05533 22 2.35714 22H19.6429C20.9447 22 22 20.9447 22 19.6429V4.71432C22 3.41251 20.9447 2.35718 19.6429 2.35718ZM20.4285 19.6429C20.4285 20.0769 20.0768 20.4286 19.6428 20.4286H2.35714C1.92319 20.4286 1.57141 20.0769 1.57141 19.6429V9.42861H20.4285V19.6429Z" fill="white"/>
      <path d="M9 13H5V17H9V13Z" fill="#FFF4F4"/>
      <path d="M16 13H12V17H16V13Z" fill="#FFF4F4"/>
    </g>
  </g>
  <defs>
    <filter id="filter0_d" x="-4" y="0" width="30" height="30" filterUnits="userSpaceOnUse" color-interpolation-filters="sRGB">
      <feFlood flood-opacity="0" result="BackgroundImageFix"/>
      <feColorMatrix in="SourceAlpha" type="matrix" values="0 0 0 0 0 0 0 0 0 0 0 0 0 0 0 0 0 0 127 0" result="hardAlpha"/>
      <feOffset dy="4"/>
      <feGaussianBlur stdDeviation="2"/>
      <feComposite in2="hardAlpha" operator="out"/>
      <feColorMatrix type="matrix" values="0 0 0 0 0 0 0 0 0 0 0 0 0 0 0 0 0 0 0.25 0"/>
      <feBlend mode="normal" in2="BackgroundImageFix" result="effect1_dropShadow"/>
      <feBlend mode="normal" in="SourceGraphic" in2="effect1_dropShadow" result="shape"/>
    </filter>
    <clipPath id="clip0">
      <rect width="22" height="22" fill="white"/>
    </clipPath>
  </defs>
</svg>
