<svg width="22" height="22" viewBox="0 0 22 22" fill="none" xmlns="http://www.w3.org/2000/svg">
  <path d="M5.98119 5.50001C5.22494 5.50001 4.60619 4.88126 4.60619 4.12501V1.44376C4.60619 0.687506 5.22494 0.0687561 5.98119 0.0687561C6.73744 0.0687561 7.35619 0.687506 7.35619 1.44376V4.12501C7.35619 4.88126 6.73744 5.50001 5.98119 5.50001Z" fill="white"/>
  <path d="M16.0187 5.50001C15.2624 5.50001 14.6437 4.88126 14.6437 4.12501V1.44376C14.6437 0.687506 15.2624 0.0687561 16.0187 0.0687561C16.7749 0.0687561 17.3937 0.687506 17.3937 1.44376V4.12501C17.3937 4.88126 16.7749 5.50001 16.0187 5.50001Z" fill="white"/>
  <path d="M19.7313 2.33749H18.7001V4.12499C18.7001 5.63749 17.4626 6.87499 15.9501 6.87499C14.4376 6.87499 13.2001 5.63749 13.2001 4.12499V2.33749H8.73131V4.12499C8.73131 5.63749 7.49381 6.87499 5.98131 6.87499C4.46881 6.87499 3.23131 5.63749 3.23131 4.12499V2.33749H2.26881C1.10006 2.33749 0.206314 3.23124 0.206314 4.39999V19.4562C0.206314 20.625 1.10006 21.5187 2.26881 21.5187H19.8001C20.9001 21.5187 21.8626 20.625 21.8626 19.4562V4.39999C21.7938 3.23124 20.9001 2.33749 19.7313 2.33749ZM12.3751 18.7687C12.2376 18.9062 12.1001 18.975 11.8938 19.0437C11.7563 19.1125 11.5501 19.1125 11.3438 19.1125C11.0001 19.1125 10.6563 18.975 10.3813 18.7C10.1063 18.425 9.96881 18.0812 9.96881 17.7375C9.96881 17.3937 10.1063 17.05 10.3813 16.775C10.4501 16.7062 10.5188 16.6375 10.5876 16.5687C10.6563 16.5 10.7251 16.5 10.7938 16.4312C10.8626 16.4312 11.0001 16.3625 11.0688 16.3625C11.4813 16.2937 11.9626 16.4312 12.3063 16.7062C12.5813 16.9812 12.7188 17.325 12.7188 17.6687C12.7876 18.15 12.6501 18.4937 12.3751 18.7687ZM12.7876 13.4062C12.7876 14.1625 12.1688 14.7812 11.4126 14.7812C10.6563 14.7812 10.0376 14.1625 10.0376 13.4062V9.07499C10.0376 8.31874 10.6563 7.69999 11.4126 7.69999C12.1688 7.69999 12.7876 8.31874 12.7876 9.07499V13.4062Z" fill="white"/>
</svg>
