<svg width="24" height="24" viewBox="0 0 24 24" fill="none" xmlns="http://www.w3.org/2000/svg">
  <path d="M8.26001 5.87006C7.99479 5.87006 7.74044 5.7647 7.5529 5.57717C7.36537 5.38963 7.26001 5.13527 7.26001 4.87006V1.06006C7.26001 0.794842 7.36537 0.540488 7.5529 0.352952C7.74044 0.165415 7.99479 0.0600586 8.26001 0.0600586C8.52523 0.0600586 8.77958 0.165415 8.96712 0.352952C9.15465 0.540488 9.26001 0.794842 9.26001 1.06006V4.87006C9.26001 5.13527 9.15465 5.38963 8.96712 5.57717C8.77958 5.7647 8.52523 5.87006 8.26001 5.87006Z" fill="white"/>
  <path d="M15.6 5.87006C15.3348 5.87006 15.0804 5.7647 14.8929 5.57717C14.7053 5.38963 14.6 5.13527 14.6 4.87006V1.06006C14.6 0.794842 14.7053 0.540488 14.8929 0.352952C15.0804 0.165415 15.3348 0.0600586 15.6 0.0600586C15.8652 0.0600586 16.1195 0.165415 16.3071 0.352952C16.4946 0.540488 16.6 0.794842 16.6 1.06006V4.87006C16.6 5.00138 16.5741 5.13142 16.5239 5.25274C16.4736 5.37407 16.3999 5.48431 16.3071 5.57717C16.2142 5.67002 16.104 5.74368 15.9827 5.79394C15.8613 5.84419 15.7313 5.87006 15.6 5.87006Z" fill="white"/>
  <path d="M12.78 4H8.69C8.42479 4 8.17043 3.89464 7.9829 3.70711C7.79536 3.51957 7.69 3.26522 7.69 3C7.69 2.73478 7.79536 2.48043 7.9829 2.29289C8.17043 2.10536 8.42479 2 8.69 2H12.78C13.0452 2 13.2996 2.10536 13.4871 2.29289C13.6746 2.48043 13.78 2.73478 13.78 3C13.78 3.26522 13.6746 3.51957 13.4871 3.70711C13.2996 3.89464 13.0452 4 12.78 4Z" fill="white"/>
  <path d="M18.78 23.75H4.99998C3.70827 23.7447 2.47112 23.2286 1.55867 22.3142C0.646222 21.3999 0.132606 20.1617 0.129976 18.87V7C0.121986 5.6995 0.630279 4.44895 1.5433 3.52281C2.45633 2.59666 3.69949 2.07057 4.99998 2.06H5.33998C5.60519 2.06 5.85955 2.16536 6.04708 2.35289C6.23462 2.54043 6.33998 2.79478 6.33998 3.06C6.33998 3.32522 6.23462 3.57957 6.04708 3.76711C5.85955 3.95464 5.60519 4.06 5.33998 4.06H4.99998C4.61828 4.06391 4.24112 4.14314 3.89012 4.29314C3.53911 4.44313 3.22117 4.66095 2.95453 4.93409C2.68789 5.20723 2.4778 5.53033 2.3363 5.88485C2.19481 6.23936 2.12469 6.61833 2.12998 7V18.87C2.12997 19.6321 2.43203 20.3631 2.96997 20.9029C3.50791 21.4428 4.23789 21.7474 4.99998 21.75H18.78C19.5447 21.75 20.2783 21.4469 20.82 20.9071C21.3617 20.3673 21.6673 19.6347 21.67 18.87V6.87C21.6621 6.10781 21.3545 5.37937 20.8136 4.84227C20.2728 4.30516 19.5422 4.00259 18.78 4H15.6C15.3348 4 15.0804 3.89464 14.8929 3.70711C14.7053 3.51957 14.6 3.26522 14.6 3C14.6 2.73478 14.7053 2.48043 14.8929 2.29289C15.0804 2.10536 15.3348 2 15.6 2H18.78C20.0769 2 21.3207 2.5152 22.2377 3.43225C23.1548 4.3493 23.67 5.59309 23.67 6.89V18.89C23.6621 20.1817 23.1434 21.4178 22.2272 22.3284C21.311 23.2389 20.0717 23.75 18.78 23.75Z" fill="white"/>
  <path d="M11.9 20.53C10.7469 20.53 9.61977 20.1881 8.66104 19.5475C7.7023 18.9069 6.95505 17.9963 6.51379 16.931C6.07253 15.8657 5.95708 14.6935 6.18203 13.5626C6.40698 12.4317 6.96224 11.3929 7.77758 10.5776C8.59292 9.76222 9.63172 9.20697 10.7626 8.98202C11.8935 8.75707 13.0658 8.87252 14.1311 9.31378C15.1963 9.75504 16.1069 10.5023 16.7475 11.461C17.3881 12.4198 17.73 13.5469 17.73 14.7C17.73 16.2462 17.1158 17.7291 16.0224 18.8224C14.9291 19.9158 13.4462 20.53 11.9 20.53ZM11.9 10.87C11.1425 10.87 10.402 11.0946 9.77218 11.5155C9.14234 11.9363 8.65144 12.5345 8.36155 13.2343C8.07167 13.9342 7.99582 14.7042 8.1436 15.4472C8.29138 16.1901 8.65616 16.8726 9.19179 17.4082C9.72743 17.9439 10.4099 18.3086 11.1528 18.4564C11.8958 18.6042 12.6658 18.5283 13.3657 18.2385C14.0655 17.9486 14.6637 17.4577 15.0845 16.8278C15.5054 16.198 15.73 15.4575 15.73 14.7C15.7274 13.685 15.323 12.7124 14.6053 11.9947C13.8876 11.277 12.915 10.8726 11.9 10.87Z" fill="white"/>
  <path d="M12.87 16.6401C12.7384 16.6408 12.6079 16.6156 12.4861 16.5658C12.3643 16.5161 12.2534 16.4427 12.16 16.3501L11.37 15.5501C11.2755 15.4574 11.2003 15.347 11.1489 15.2251C11.0974 15.1032 11.0706 14.9724 11.07 14.8401V13.4301C11.07 13.1648 11.1754 12.9105 11.3629 12.7229C11.5504 12.5354 11.8048 12.4301 12.07 12.4301C12.3352 12.4301 12.5896 12.5354 12.7771 12.7229C12.9647 12.9105 13.07 13.1648 13.07 13.4301V14.4301L13.58 14.9301C13.6737 15.023 13.7481 15.1336 13.7989 15.2555C13.8497 15.3773 13.8758 15.508 13.8758 15.6401C13.8758 15.7721 13.8497 15.9028 13.7989 16.0246C13.7481 16.1465 13.6737 16.2571 13.58 16.3501C13.4866 16.4427 13.3758 16.5161 13.2539 16.5658C13.1321 16.6156 13.0016 16.6408 12.87 16.6401Z" fill="white"/>
  <path d="M6.22 9.19995H1.13C0.864788 9.19995 0.610434 9.09459 0.422898 8.90706C0.235362 8.71952 0.130005 8.46517 0.130005 8.19995C0.130005 7.93473 0.235362 7.68038 0.422898 7.49284C0.610434 7.30531 0.864788 7.19995 1.13 7.19995H6.22C6.48522 7.19995 6.73958 7.30531 6.92711 7.49284C7.11465 7.68038 7.22 7.93473 7.22 8.19995C7.22 8.46517 7.11465 8.71952 6.92711 8.90706C6.73958 9.09459 6.48522 9.19995 6.22 9.19995Z" fill="white"/>
  <path d="M22.2 9.19995H17.11C16.8448 9.19995 16.5904 9.09459 16.4029 8.90706C16.2153 8.71952 16.11 8.46517 16.11 8.19995C16.11 7.93473 16.2153 7.68038 16.4029 7.49284C16.5904 7.30531 16.8448 7.19995 17.11 7.19995H22.2C22.4652 7.19995 22.7196 7.30531 22.9071 7.49284C23.0946 7.68038 23.2 7.93473 23.2 8.19995C23.2 8.46517 23.0946 8.71952 22.9071 8.90706C22.7196 9.09459 22.4652 9.19995 22.2 9.19995Z" fill="white"/>
</svg>
