<svg width="24" height="24" viewBox="0 0 24 24" fill="none" xmlns="http://www.w3.org/2000/svg">
<path d="M8.35998 5.91999C8.09477 5.91999 7.84041 5.81463 7.65288 5.62709C7.46534 5.43956 7.35999 5.1852 7.35999 4.91999V1.10999C7.35999 0.844769 7.46534 0.590415 7.65288 0.402879C7.84041 0.215342 8.09477 0.109985 8.35998 0.109985C8.6252 0.109985 8.87956 0.215342 9.06709 0.402879C9.25463 0.590415 9.35998 0.844769 9.35998 1.10999V4.91999C9.35998 5.1852 9.25463 5.43956 9.06709 5.62709C8.87956 5.81463 8.6252 5.91999 8.35998 5.91999Z" fill="white"/>
<path d="M15.71 5.91999C15.4448 5.91999 15.1905 5.81463 15.0029 5.62709C14.8154 5.43956 14.71 5.1852 14.71 4.91999V1.10999C14.71 0.844769 14.8154 0.590415 15.0029 0.402879C15.1905 0.215342 15.4448 0.109985 15.71 0.109985C15.9752 0.109985 16.2296 0.215342 16.4171 0.402879C16.6047 0.590415 16.71 0.844769 16.71 1.10999V4.91999C16.71 5.1852 16.6047 5.43956 16.4171 5.62709C16.2296 5.81463 15.9752 5.91999 15.71 5.91999Z" fill="white"/>
<path d="M12.88 4H8.78003C8.51481 4 8.26046 3.89464 8.07292 3.70711C7.88539 3.51957 7.78003 3.26522 7.78003 3C7.78003 2.73478 7.88539 2.48043 8.07292 2.29289C8.26046 2.10536 8.51481 2 8.78003 2H12.88C13.1452 2 13.3996 2.10536 13.5871 2.29289C13.7747 2.48043 13.88 2.73478 13.88 3C13.88 3.26522 13.7747 3.51957 13.5871 3.70711C13.3996 3.89464 13.1452 4 12.88 4Z" fill="white"/>
<path d="M18.89 23.82H5.10997C3.81479 23.82 2.57252 23.3062 1.65575 22.3913C0.738983 21.4764 0.222619 20.2352 0.219971 18.94V7C0.225159 5.71252 0.736861 4.47882 1.64444 3.56562C2.55202 2.65243 3.78255 2.13313 5.06997 2.12H5.40997C5.67519 2.12 5.92954 2.22536 6.11708 2.41289C6.30461 2.60043 6.40997 2.85478 6.40997 3.12C6.40997 3.38522 6.30461 3.63957 6.11708 3.82711C5.92954 4.01464 5.67519 4.12 5.40997 4.12H5.07997C4.32125 4.13045 3.59684 4.43786 3.06216 4.97627C2.52748 5.51469 2.22513 6.24122 2.21997 7V18.94C2.22262 19.7047 2.52827 20.4373 3.06996 20.9771C3.61165 21.5169 4.34522 21.82 5.10997 21.82H18.89C19.6547 21.82 20.3883 21.5169 20.93 20.9771C21.4717 20.4373 21.7773 19.7047 21.78 18.94V6.9C21.7813 6.51964 21.7075 6.14276 21.5629 5.79097C21.4182 5.43919 21.2055 5.11942 20.9371 4.84999C20.6686 4.58057 20.3495 4.3668 19.9982 4.22094C19.647 4.07508 19.2703 4 18.89 4H15.71C15.4448 4 15.1904 3.89464 15.0029 3.70711C14.8153 3.51957 14.71 3.26522 14.71 3C14.71 2.73478 14.8153 2.48043 15.0029 2.29289C15.1904 2.10536 15.4448 2 15.71 2H18.89C20.1878 2.00265 21.4316 2.52007 22.3483 3.43871C23.2651 4.35735 23.78 5.60217 23.78 6.9V18.9C23.7826 19.5443 23.6581 20.1828 23.4137 20.779C23.1692 21.3751 22.8096 21.9172 22.3554 22.3742C21.9012 22.8312 21.3613 23.1941 20.7667 23.4422C20.172 23.6903 19.5343 23.8187 18.89 23.82Z" fill="white"/>
<path d="M21.75 9.40002H2.04999C1.78477 9.40002 1.53042 9.29467 1.34288 9.10713C1.15534 8.9196 1.04999 8.66524 1.04999 8.40002C1.04999 8.13481 1.15534 7.88045 1.34288 7.69292C1.53042 7.50538 1.78477 7.40002 2.04999 7.40002H21.75C22.0152 7.40002 22.2696 7.50538 22.4571 7.69292C22.6446 7.88045 22.75 8.13481 22.75 8.40002C22.75 8.66524 22.6446 8.9196 22.4571 9.10713C22.2696 9.29467 22.0152 9.40002 21.75 9.40002Z" fill="white"/>
<path d="M17.1279 12.9858C17.7187 12.5193 17.2191 11.5529 16.4845 11.8071C16.3427 11.8589 16.282 11.9 16.282 11.9L13.6303 13.2091L8.37948 11.17L7.39063 11.3752L11.3288 14.5096L8.50379 16.4153L6.60058 15.8908L6.08317 15.9758L7.48056 17.4842L7.99762 19.456L8.36054 19.0776L8.93106 17.2096L12.0651 15.8908L12.5991 20.8955L13.2946 20.1591L14.3822 14.646L16.9205 13.1041C16.9459 13.109 17.0066 13.0679 17.1279 12.9858Z" fill="white"/>
</svg>
