<svg width="24" height="24" viewBox="0 0 24 24" fill="none" xmlns="http://www.w3.org/2000/svg">
  <g clip-path="url(#clip0_9380_7673)">
    <path d="M18.9815 23.9999C17.9889 23.9999 17.0186 23.7056 16.1933 23.1541C15.368 22.6027 14.7248 21.8189 14.3449 20.9018C13.9651 19.9848 13.8657 18.9757 14.0593 18.0022C14.253 17.0287 14.7309 16.1344 15.4328 15.4326C16.1347 14.7307 17.0289 14.2527 18.0024 14.0591C18.976 13.8654 19.985 13.9648 20.9021 14.3447C21.8191 14.7245 22.6029 15.3678 23.1544 16.1931C23.7058 17.0184 24.0001 17.9887 24.0001 18.9813C24.0001 20.3123 23.4714 21.5888 22.5302 22.53C21.589 23.4712 20.3125 23.9999 18.9815 23.9999ZM18.9815 15.6843C18.3294 15.6843 17.692 15.8777 17.1498 16.2399C16.6076 16.6022 16.1851 17.1171 15.9355 17.7196C15.686 18.322 15.6207 18.9849 15.7479 19.6245C15.8751 20.264 16.1891 20.8515 16.6502 21.3126C17.1113 21.7737 17.6988 22.0877 18.3383 22.2149C18.9779 22.3421 19.6408 22.2768 20.2432 22.0273C20.8457 21.7777 21.3606 21.3552 21.7228 20.813C22.0851 20.2708 22.2785 19.6334 22.2785 18.9813C22.2762 18.1076 21.9281 17.2703 21.3103 16.6525C20.6925 16.0347 19.8552 15.6866 18.9815 15.6843Z" fill="white"/>
    <path d="M19.8166 20.6509C19.7033 20.6516 19.591 20.6299 19.4861 20.587C19.3812 20.5442 19.2858 20.4811 19.2054 20.4013L18.5253 19.7126C18.444 19.6329 18.3793 19.5378 18.335 19.4329C18.2906 19.328 18.2676 19.2153 18.2671 19.1014V17.8877C18.2671 17.6594 18.3578 17.4404 18.5192 17.279C18.6807 17.1175 18.8996 17.0269 19.1279 17.0269C19.3562 17.0269 19.5752 17.1175 19.7366 17.279C19.8981 17.4404 19.9887 17.6594 19.9887 17.8877V18.7485L20.4278 19.1789C20.5085 19.2589 20.5725 19.3542 20.6162 19.4591C20.6599 19.564 20.6824 19.6765 20.6824 19.7901C20.6824 19.9038 20.6599 20.0163 20.6162 20.1212C20.5725 20.2261 20.5085 20.3213 20.4278 20.4013C20.3473 20.4811 20.2519 20.5442 20.1471 20.587C20.0422 20.6299 19.9299 20.6516 19.8166 20.6509Z" fill="white"/>
    <path d="M21.1202 14.8802V3.10779C21.1202 2.00322 20.2248 1.10779 19.1202 1.10779L4.87988 1.10779C3.77531 1.10779 2.87988 2.00322 2.87988 3.10779V20.8922C2.87988 21.9968 3.77531 22.8922 4.87988 22.8922H12.6296" stroke="white" stroke-width="2" stroke-linecap="round"/>
    <path d="M18.277 5.24841C18.277 5.51363 18.1716 5.76798 17.9841 5.95552C17.7966 6.14306 17.5422 6.24841 17.277 6.24841L6.72314 6.24841C6.45793 6.24841 6.20357 6.14306 6.01604 5.95552C5.8285 5.76798 5.72314 5.51363 5.72314 5.24841C5.72314 4.9832 5.8285 4.72884 6.01604 4.54131C6.20357 4.35377 6.45793 4.24842 6.72314 4.24842L17.277 4.24841C17.5422 4.24841 17.7966 4.35377 17.9841 4.54131C18.1716 4.72884 18.277 4.9832 18.277 5.24841Z" fill="white"/>
    <path d="M18.277 8.9491C18.277 9.21431 18.1716 9.46867 17.9841 9.6562C17.7966 9.84374 17.5422 9.9491 17.277 9.9491L6.72314 9.9491C6.45793 9.9491 6.20357 9.84374 6.01604 9.6562C5.8285 9.46867 5.72314 9.21431 5.72314 8.9491C5.72314 8.68388 5.8285 8.42953 6.01604 8.24199C6.20357 8.05445 6.45793 7.9491 6.72314 7.9491L17.277 7.9491C17.5422 7.9491 17.7966 8.05445 17.9841 8.24199C18.1716 8.42953 18.277 8.68388 18.277 8.9491Z" fill="white"/>
    <path d="M18.277 12.6503C18.277 12.9155 18.1716 13.1698 17.9841 13.3574C17.7966 13.5449 17.5422 13.6503 17.277 13.6503L6.72314 13.6503C6.45793 13.6503 6.20357 13.5449 6.01604 13.3574C5.8285 13.1698 5.72314 12.9155 5.72314 12.6503C5.72314 12.3851 5.8285 12.1307 6.01604 11.9432C6.20357 11.7556 6.45793 11.6503 6.72314 11.6503L17.277 11.6503C17.5422 11.6503 17.7966 11.7556 17.9841 11.9432C18.1716 12.1307 18.277 12.3851 18.277 12.6503Z" fill="white"/>
  </g>
  <defs>
    <clipPath id="clip0_9380_7673">
      <rect width="24" height="24" fill="white"/>
    </clipPath>
  </defs>
</svg>
