<svg width="16" height="16" viewBox="0 0 16 16" fill="none" xmlns="http://www.w3.org/2000/svg">
<path d="M14.0952 0H1.90476C0.853333 0 0 0.853333 0 1.90476V14.0952C0 15.1467 0.853333 16 1.90476 16H14.0952C15.1467 16 16 15.1467 16 14.0952V1.90476C16 0.853333 15.1467 0 14.0952 0ZM4.95238 6.09524V13.3333H2.66667V6.09524H4.95238ZM2.66667 3.98857C2.66667 3.45524 3.12381 3.04762 3.80952 3.04762C4.49524 3.04762 4.92571 3.45524 4.95238 3.98857C4.95238 4.5219 4.52571 4.95238 3.80952 4.95238C3.12381 4.95238 2.66667 4.5219 2.66667 3.98857ZM13.3333 13.3333H11.0476C11.0476 13.3333 11.0476 9.80571 11.0476 9.52381C11.0476 8.7619 10.6667 8 9.71429 7.98476H9.68381C8.7619 7.98476 8.38095 8.76952 8.38095 9.52381C8.38095 9.87048 8.38095 13.3333 8.38095 13.3333H6.09524V6.09524H8.38095V7.07048C8.38095 7.07048 9.11619 6.09524 10.5943 6.09524C12.1067 6.09524 13.3333 7.13524 13.3333 9.24191V13.3333Z" fill="#707177"/>
</svg>
