<svg width="154" height="32" viewBox="0 0 154 32" fill="none" xmlns="http://www.w3.org/2000/svg">
<mask id="mask0_5922_8286" style="mask-type:alpha" maskUnits="userSpaceOnUse" x="0" y="0" width="22" height="32">
<path fill-rule="evenodd" clip-rule="evenodd" d="M0 0H21.2596V32H0V0Z" fill="white"/>
</mask>
<g mask="url(#mask0_5922_8286)">
<path fill-rule="evenodd" clip-rule="evenodd" d="M12.4565 0.067081C9.36477 -0.276416 6.23431 0.709911 3.86287 2.78152C1.40754 4.9521 0 8.07955 0 11.3624C0 16.8428 3.35389 21.2796 8.54606 22.6659C8.65334 22.6945 11.1409 23.4011 11.3627 25.9079V30.7552C11.3627 31.4431 11.912 32 12.5896 32C13.2672 32 13.8173 31.4431 13.8173 30.7552V25.8563L13.8132 25.7598C13.4801 21.4203 9.33573 20.3015 9.16957 20.2581C4.21858 18.9365 2.45452 14.7965 2.45452 11.3624C2.45452 8.79926 3.55555 6.35471 5.47125 4.66258C7.32243 3.04487 9.76888 2.27037 12.1879 2.54108C14.3343 2.77989 16.1919 3.83164 17.418 5.50087C19.6378 8.51956 19.1304 12.702 16.2371 15.23C15.2627 16.0814 13.8269 16.4748 12.2968 16.3104C10.7634 16.1452 9.37848 15.4566 8.49847 14.4203C7.10867 12.7846 7.20385 10.017 8.70173 8.49911C10.0343 7.14639 12.2048 7.32958 13.2559 8.39442C13.7503 8.89577 13.9955 9.51488 13.9455 10.1364C13.9028 10.6721 13.6455 11.1375 13.2204 11.4475C12.905 11.6781 12.4299 11.7828 12.1121 11.692C11.9863 11.6552 11.8564 11.5881 11.7556 11.342C11.4974 10.7073 10.7788 10.4047 10.1528 10.668C9.5269 10.9306 9.22926 11.6593 9.48818 12.2939C9.85438 13.1919 10.5481 13.8282 11.441 14.0858C12.4735 14.3819 13.7342 14.1398 14.6545 13.4675C15.6588 12.7348 16.2911 11.5939 16.392 10.3368C16.4993 8.99473 15.9887 7.64609 14.9917 6.63441C12.8808 4.49492 9.13004 4.54399 6.9659 6.73828C4.56865 9.16975 4.41862 13.4316 6.63842 16.0438C7.92174 17.5552 9.89068 18.5546 12.0379 18.786C14.2375 19.0224 16.3533 18.4139 17.8398 17.1152C21.7205 13.7252 22.3859 8.09264 19.3861 4.01239C17.7487 1.78456 15.2877 0.383589 12.4565 0.067081Z" fill="#ED5567"/>
</g>
<path fill-rule="evenodd" clip-rule="evenodd" d="M30.2153 20.0486V11.5653C30.2153 11.5029 30.2385 11.4485 30.2856 11.403C30.3335 11.3574 30.3888 11.3342 30.4541 11.3342H32.104C32.1685 11.3342 32.2246 11.3574 32.2717 11.403C32.318 11.4485 32.3428 11.5029 32.3428 11.5653V18.3762H35.4435C35.5071 18.3762 35.5633 18.3994 35.6104 18.445C35.6583 18.4913 35.6815 18.5449 35.6815 18.6072V20.0486C35.6815 20.1101 35.6583 20.1653 35.6104 20.2101C35.5633 20.2564 35.5071 20.2788 35.4435 20.2788H30.4541C30.3888 20.2788 30.3335 20.2564 30.2856 20.2101C30.2385 20.1653 30.2153 20.1101 30.2153 20.0486Z" fill="#ED5567"/>
<path fill-rule="evenodd" clip-rule="evenodd" d="M39.2706 16.0431C39.2706 16.1787 39.2827 16.3258 39.3052 16.4851C39.3278 16.6436 39.3673 16.8347 39.4213 17.0545C39.476 17.2759 39.5622 17.485 39.6799 17.6819C39.7967 17.8796 39.9384 18.0642 40.1036 18.2366C40.2696 18.4082 40.4863 18.5454 40.7545 18.6492C41.0228 18.7538 41.3217 18.806 41.6536 18.806C41.9379 18.806 42.199 18.7668 42.4358 18.6884C42.6727 18.61 42.8708 18.507 43.0303 18.3788C43.189 18.2521 43.3308 18.1026 43.4541 17.9311C43.5782 17.7587 43.674 17.588 43.7433 17.418C43.8126 17.2481 43.8682 17.0716 43.9101 16.8862C43.952 16.7016 43.9801 16.5431 43.9946 16.4116C44.0091 16.28 44.0164 16.1575 44.0164 16.0431C44.0164 15.8724 44.0019 15.6894 43.9729 15.4949C43.9439 15.2997 43.8786 15.0669 43.7779 14.7948C43.678 14.5236 43.5467 14.2826 43.3848 14.0718C43.2237 13.8618 42.9933 13.6813 42.6936 13.531C42.3939 13.3798 42.0467 13.3047 41.6536 13.3047C41.2596 13.3047 40.91 13.3798 40.6071 13.531C40.3026 13.6813 40.0706 13.8618 39.9094 14.0718C39.7475 14.2826 39.6154 14.5219 39.5123 14.7915C39.41 15.0611 39.3439 15.2948 39.3149 15.4917C39.2851 15.6894 39.2706 15.8724 39.2706 16.0431ZM37.1722 16.0431C37.1722 15.758 37.194 15.4705 37.2375 15.1788C37.281 14.8888 37.3559 14.5873 37.4606 14.2744C37.5654 13.9624 37.6967 13.6666 37.8538 13.3856C38.0109 13.1054 38.2107 12.8391 38.4531 12.5874C38.6972 12.3342 38.9687 12.1161 39.2684 11.9339C39.5673 11.7509 39.9218 11.6055 40.3302 11.4976C40.7394 11.389 41.1801 11.3342 41.6538 11.3342C42.3071 11.3342 42.8968 11.438 43.4229 11.6439C43.949 11.8497 44.3751 12.1152 44.7022 12.4404C45.0285 12.7647 45.3024 13.1397 45.5223 13.5645C45.7422 13.9893 45.8961 14.4068 45.9847 14.8161C46.0725 15.2262 46.1168 15.6347 46.1168 16.0431C46.1168 16.3356 46.0951 16.6297 46.0508 16.923C46.0065 17.2171 45.9323 17.5202 45.8268 17.8347C45.7229 18.1501 45.5924 18.4474 45.4377 18.7276C45.2822 19.0087 45.0849 19.2758 44.8432 19.5291C44.6023 19.7815 44.3324 19.9996 44.0327 20.1826C43.7331 20.3656 43.3802 20.5102 42.9734 20.6164C42.5665 20.7226 42.1267 20.7757 41.6538 20.7757C41.1801 20.7757 40.7394 20.7226 40.3302 20.6164C39.9218 20.5102 39.5665 20.3656 39.2652 20.1826C38.9631 19.9996 38.6916 19.7815 38.4507 19.5291C38.2099 19.2758 38.0109 19.0087 37.8538 18.7276C37.6967 18.4474 37.5654 18.1501 37.4606 17.8347C37.3559 17.5202 37.281 17.2171 37.2375 16.923C37.194 16.6297 37.1722 16.3356 37.1722 16.0431Z" fill="#ED5567"/>
<path fill-rule="evenodd" clip-rule="evenodd" d="M48.1045 20.0486V11.5653C48.1045 11.5029 48.1276 11.4485 48.1747 11.403C48.2226 11.3574 48.278 11.3342 48.3433 11.3342H49.9932C50.0576 11.3342 50.1138 11.3574 50.1609 11.403C50.208 11.4485 50.232 11.5029 50.232 11.5653V18.3762H53.3327C53.3971 18.3762 53.4533 18.3994 53.4996 18.445C53.5475 18.4913 53.5706 18.5449 53.5706 18.6072V20.0486C53.5706 20.1101 53.5475 20.1653 53.4996 20.2101C53.4533 20.2564 53.3971 20.2788 53.3327 20.2788H48.3433C48.278 20.2788 48.2226 20.2564 48.1747 20.2101C48.1276 20.1653 48.1045 20.1101 48.1045 20.0486Z" fill="#ED5567"/>
<path fill-rule="evenodd" clip-rule="evenodd" d="M56.0552 20.0486V11.5653C56.0552 11.5029 56.0783 11.4485 56.1254 11.403C56.1733 11.3574 56.2287 11.3342 56.2939 11.3342H57.9439C58.0083 11.3342 58.0645 11.3574 58.1116 11.403C58.1579 11.4485 58.1826 11.5029 58.1826 11.5653V18.3762H61.2834C61.347 18.3762 61.4032 18.3994 61.4503 18.445C61.4982 18.4913 61.5213 18.5449 61.5213 18.6072V20.0486C61.5213 20.1101 61.4982 20.1653 61.4503 20.2101C61.4032 20.2564 61.347 20.2788 61.2834 20.2788H56.2939C56.2287 20.2788 56.1733 20.2564 56.1254 20.2101C56.0783 20.1653 56.0552 20.1101 56.0552 20.0486Z" fill="#ED5567"/>
<path fill-rule="evenodd" clip-rule="evenodd" d="M62.0377 11.5277C62.0241 11.5069 62.0182 11.4861 62.0182 11.4653C62.0182 11.4445 62.0241 11.4238 62.0377 11.403C62.0649 11.3574 62.1039 11.3342 62.1566 11.3342H64.073C64.2241 11.3342 64.3456 11.399 64.4381 11.5277L66.2348 14.3416L68.0247 11.5277C68.1003 11.399 68.2217 11.3342 68.3898 11.3342H70.3198C70.3724 11.3342 70.4141 11.3574 70.4455 11.403C70.4582 11.4278 70.4658 11.4501 70.4658 11.4717C70.4658 11.4925 70.4582 11.5109 70.4455 11.5277L67.3182 16.3058V20.0486C67.3182 20.1101 67.2945 20.1653 67.2461 20.2101C67.1977 20.2564 67.1399 20.2788 67.0737 20.2788H65.4095C65.3433 20.2788 65.2864 20.2564 65.2371 20.2101C65.1887 20.1653 65.1649 20.1101 65.1649 20.0486V16.3305L62.0377 11.5277Z" fill="#ED5567"/>
<path fill-rule="evenodd" clip-rule="evenodd" d="M74.5933 15.3637H76.143C76.315 15.3598 76.4713 15.3294 76.6092 15.2734C76.748 15.2175 76.8568 15.1495 76.9374 15.0712C77.0172 14.992 77.0837 14.9025 77.1352 14.801C77.1876 14.6994 77.2225 14.6075 77.2424 14.5236C77.2615 14.4412 77.2715 14.3621 77.2715 14.2877C77.2715 14.1806 77.254 14.0727 77.2191 13.9648C77.1851 13.8569 77.1277 13.7449 77.0471 13.6282C76.9673 13.5123 76.846 13.418 76.6848 13.346C76.5219 13.2733 76.3292 13.2365 76.104 13.2365H74.5933V15.3637ZM72.4536 20.0486V11.5653C72.4536 11.5029 72.4777 11.4493 72.5251 11.403C72.5724 11.3574 72.6289 11.3342 72.6938 11.3342H76.0467C76.5395 11.3342 76.9849 11.399 77.3813 11.5277C77.7777 11.6564 78.0984 11.8227 78.346 12.0241C78.5928 12.2264 78.7997 12.4606 78.9659 12.7268C79.1321 12.9938 79.2485 13.2552 79.3141 13.5142C79.3781 13.7724 79.4105 14.0298 79.4105 14.288C79.4105 14.8588 79.251 15.376 78.9335 15.8397C78.6144 16.3026 78.2114 16.6559 77.7245 16.9005C77.2359 17.1451 76.7281 17.2666 76.1988 17.2666H74.5934V20.047C74.5934 20.1101 74.5693 20.1645 74.5219 20.2101C74.4745 20.2564 74.418 20.2788 74.3532 20.2788H72.6938C72.6281 20.2788 72.5724 20.2564 72.5251 20.2101C72.4777 20.1653 72.4536 20.1101 72.4536 20.0486Z" fill="#ED5567"/>
<path fill-rule="evenodd" clip-rule="evenodd" d="M82.9999 16.0431C82.9999 16.1787 83.0112 16.3258 83.0345 16.4851C83.0571 16.6436 83.0966 16.8347 83.1505 17.0545C83.2053 17.2759 83.2915 17.485 83.4083 17.6819C83.526 17.8796 83.6677 18.0642 83.8329 18.2366C83.9988 18.4082 84.2147 18.5454 84.483 18.6492C84.7513 18.7538 85.051 18.806 85.3821 18.806C85.6672 18.806 85.9283 18.7668 86.1651 18.6884C86.4011 18.61 86.6001 18.507 86.7596 18.3788C86.9183 18.2521 87.0601 18.1026 87.1834 17.9311C87.3066 17.7587 87.4033 17.588 87.4726 17.418C87.5419 17.2481 87.5975 17.0716 87.6394 16.8862C87.6812 16.7016 87.7094 16.5431 87.7239 16.4116C87.7384 16.28 87.7457 16.1575 87.7457 16.0431C87.7457 15.8724 87.7312 15.6894 87.7022 15.4949C87.6732 15.2997 87.6079 15.0669 87.5072 14.7948C87.4065 14.5236 87.276 14.2826 87.1141 14.0718C86.953 13.8618 86.7226 13.6813 86.4229 13.531C86.1224 13.3798 85.776 13.3047 85.3821 13.3047C84.9889 13.3047 84.6393 13.3798 84.3364 13.531C84.0319 13.6813 83.7999 13.8618 83.6379 14.0718C83.4768 14.2826 83.3447 14.5219 83.2416 14.7915C83.1393 15.0611 83.0732 15.2948 83.0442 15.4917C83.0144 15.6894 82.9999 15.8724 82.9999 16.0431ZM80.9012 16.0431C80.9012 15.758 80.9222 15.4705 80.9665 15.1788C81.01 14.8888 81.0849 14.5873 81.1897 14.2744C81.2944 13.9624 81.4257 13.6666 81.5828 13.3856C81.7399 13.1054 81.9397 12.8391 82.1822 12.5874C82.4262 12.3342 82.6969 12.1161 82.9966 11.9339C83.2963 11.7509 83.6508 11.6055 84.0584 11.4976C84.4676 11.389 84.9091 11.3342 85.382 11.3342C86.0361 11.3342 86.6258 11.438 87.1519 11.6439C87.678 11.8497 88.1041 12.1152 88.4312 12.4404C88.7575 12.7647 89.0314 13.1397 89.2513 13.5645C89.4712 13.9893 89.6251 14.4068 89.7129 14.8161C89.8015 15.2262 89.8458 15.6347 89.8458 16.0431C89.8458 16.3356 89.8233 16.6297 89.7798 16.923C89.7355 17.2171 89.6613 17.5202 89.5558 17.8347C89.4519 18.1501 89.3214 18.4474 89.1667 18.7276C89.0112 19.0087 88.8139 19.2758 88.5722 19.5291C88.3313 19.7815 88.0614 19.9996 87.7617 20.1826C87.4621 20.3656 87.1084 20.5102 86.7024 20.6164C86.2955 20.7226 85.8557 20.7757 85.382 20.7757C84.9091 20.7757 84.4676 20.7226 84.0584 20.6164C83.6508 20.5102 83.2955 20.3656 82.9942 20.1826C82.6921 19.9996 82.4206 19.7815 82.1789 19.5291C81.9389 19.2758 81.7399 19.0087 81.5828 18.7276C81.4257 18.4474 81.2944 18.1501 81.1897 17.8347C81.0849 17.5202 81.01 17.2171 80.9665 16.923C80.9222 16.6297 80.9012 16.3356 80.9012 16.0431Z" fill="#ED5567"/>
<path fill-rule="evenodd" clip-rule="evenodd" d="M93.9732 15.3637H95.523C95.695 15.3598 95.8512 15.3294 95.9892 15.2734C96.128 15.2175 96.2368 15.1495 96.3174 15.0712C96.3972 14.992 96.4628 14.9025 96.5152 14.801C96.5667 14.6994 96.6024 14.6075 96.6216 14.5236C96.6415 14.4412 96.6515 14.3621 96.6515 14.2877C96.6515 14.1806 96.634 14.0727 96.5991 13.9648C96.565 13.8569 96.5077 13.7449 96.4271 13.6282C96.3473 13.5123 96.226 13.418 96.0648 13.346C95.9019 13.2733 95.7083 13.2365 95.4839 13.2365H93.9732V15.3637ZM91.8335 20.0486V11.5653C91.8335 11.5029 91.8568 11.4493 91.905 11.403C91.9523 11.3574 92.0088 11.3342 92.0736 11.3342H95.4266C95.9194 11.3342 96.3648 11.399 96.7603 11.5277C97.1575 11.6564 97.4783 11.8227 97.7259 12.0241C97.9719 12.2264 98.1796 12.4606 98.345 12.7268C98.512 12.9938 98.6284 13.2552 98.6932 13.5142C98.758 13.7724 98.7904 14.0298 98.7904 14.288C98.7904 14.8588 98.6308 15.376 98.3134 15.8397C97.9943 16.3026 97.5913 16.6559 97.1035 16.9005C96.6157 17.1451 96.108 17.2666 95.5787 17.2666H93.9732V20.047C93.9732 20.1101 93.9492 20.1645 93.9018 20.2101C93.8544 20.2564 93.7979 20.2788 93.7331 20.2788H92.0736C92.008 20.2788 91.9523 20.2564 91.9041 20.2101C91.8568 20.1653 91.8335 20.1101 91.8335 20.0486Z" fill="#ED5567"/>
<path fill-rule="evenodd" clip-rule="evenodd" d="M98.7905 19.5404C98.7905 19.1981 98.8896 18.9046 99.0871 18.6592C99.2852 18.4137 99.5201 18.291 99.7895 18.291C100.064 18.291 100.297 18.412 100.489 18.6556C100.681 18.8984 100.778 19.1927 100.778 19.5404C100.778 19.8828 100.681 20.1745 100.489 20.4146C100.297 20.6556 100.064 20.7756 99.7895 20.7756C99.5201 20.7756 99.2852 20.6538 99.0871 20.411C98.8896 20.1683 98.7905 19.8784 98.7905 19.5404Z" fill="#ED5567"/>
<path fill-rule="evenodd" clip-rule="evenodd" d="M106.863 18.3763H108.103C108.397 18.3763 108.667 18.3403 108.913 18.2676C109.16 18.194 109.367 18.1005 109.534 17.9838C109.7 17.8679 109.847 17.7296 109.974 17.5697C110.102 17.4099 110.202 17.2516 110.274 17.0933C110.345 16.9351 110.403 16.7704 110.449 16.5977C110.494 16.4259 110.524 16.2756 110.539 16.1493C110.554 16.023 110.562 15.9047 110.562 15.7968C110.562 15.6641 110.551 15.5234 110.527 15.374C110.503 15.2245 110.463 15.0478 110.407 14.844C110.35 14.641 110.261 14.4491 110.14 14.2677C110.019 14.0878 109.873 13.9168 109.702 13.7577C109.531 13.597 109.306 13.4707 109.03 13.3772C108.753 13.2837 108.444 13.2365 108.103 13.2365H106.863V18.3763ZM104.753 20.0486V11.5652C104.753 11.5029 104.778 11.4493 104.825 11.403C104.872 11.3582 104.928 11.3342 104.993 11.3342H108.096C108.585 11.3342 109.039 11.3846 109.46 11.4845C109.882 11.5844 110.247 11.7203 110.556 11.8906C110.865 12.0616 111.144 12.2647 111.392 12.5013C111.64 12.7387 111.844 12.9897 112.004 13.2542C112.164 13.518 112.297 13.7986 112.406 14.0967C112.514 14.3949 112.59 14.6827 112.635 14.9616C112.682 15.2398 112.704 15.5188 112.704 15.7969C112.704 16.2046 112.658 16.6059 112.568 16.9999C112.477 17.3948 112.32 17.7937 112.095 18.1965C111.87 18.6002 111.589 18.9527 111.249 19.2541C110.91 19.5554 110.47 19.8008 109.928 19.9918C109.385 20.1837 108.775 20.2788 108.096 20.2788H104.993C104.928 20.2788 104.872 20.2564 104.825 20.2101C104.778 20.1645 104.753 20.1102 104.753 20.0486Z" fill="#ED5567"/>
<path fill-rule="evenodd" clip-rule="evenodd" d="M114.692 20.0486V11.5653C114.692 11.5029 114.713 11.4485 114.757 11.403C114.802 11.3574 114.854 11.3342 114.915 11.3342H120.432C120.492 11.3342 120.545 11.3566 120.589 11.403C120.633 11.4485 120.655 11.5021 120.655 11.5645V13.0066C120.655 13.0689 120.633 13.1225 120.589 13.1689C120.545 13.2136 120.492 13.2368 120.431 13.2368H116.648V14.9148H119.559C119.619 14.9148 119.672 14.9372 119.716 14.9827C119.76 15.0291 119.783 15.0827 119.783 15.145V16.5863C119.783 16.6487 119.76 16.7023 119.716 16.7486C119.672 16.7942 119.619 16.8174 119.559 16.8174H116.648V18.3762H120.431C120.492 18.3762 120.545 18.3994 120.589 18.445C120.633 18.4913 120.655 18.5449 120.655 18.6072V20.0486C120.655 20.1101 120.633 20.1653 120.589 20.2101C120.545 20.2564 120.492 20.2788 120.432 20.2788H114.915C114.854 20.2788 114.802 20.2564 114.757 20.2101C114.713 20.1653 114.692 20.1101 114.692 20.0486Z" fill="#ED5567"/>
<path fill-rule="evenodd" clip-rule="evenodd" d="M122.655 19.7564C122.646 19.7268 122.643 19.6996 122.643 19.6733C122.643 19.6388 122.648 19.6067 122.661 19.5772L123.386 18.2396C123.411 18.1846 123.457 18.1476 123.521 18.1287C123.584 18.1089 123.645 18.1122 123.699 18.1377C124.704 18.5923 125.51 18.8192 126.118 18.8192C126.464 18.8192 126.76 18.7452 127.005 18.5948C127.252 18.4443 127.374 18.2561 127.374 18.0284C127.374 17.9174 127.345 17.8138 127.287 17.7176C127.23 17.6206 127.159 17.5384 127.076 17.4694C126.993 17.4011 126.875 17.3312 126.723 17.2606C126.572 17.1899 126.432 17.1331 126.306 17.0904C126.181 17.0468 126.013 16.9917 125.803 16.9227C125.063 16.6785 124.538 16.473 124.226 16.3061C123.413 15.8721 122.952 15.2703 122.841 14.4984C122.819 14.366 122.809 14.2263 122.809 14.0808C122.809 13.2373 123.09 12.5698 123.653 12.0749C124.214 11.5809 124.944 11.3342 125.842 11.3342C126.919 11.3342 128.026 11.5965 129.163 12.1234C129.296 12.1966 129.333 12.3051 129.279 12.4506L128.688 13.8054C128.664 13.8646 128.62 13.9057 128.561 13.927C128.5 13.9484 128.438 13.946 128.374 13.9196C127.28 13.5168 126.478 13.3154 125.971 13.3154C125.662 13.3154 125.409 13.3689 125.213 13.4765C125.022 13.5793 124.925 13.7462 124.925 13.978C124.925 14.038 124.939 14.0997 124.97 14.1646C124.995 14.2205 125.034 14.274 125.086 14.3258C125.137 14.3767 125.187 14.4244 125.235 14.4663C125.284 14.5099 125.354 14.5535 125.445 14.5987C125.533 14.6431 125.612 14.6825 125.678 14.7138C125.744 14.7467 125.839 14.7845 125.96 14.8305C126.082 14.8757 126.181 14.9111 126.255 14.9398C126.331 14.9678 126.44 15.0072 126.585 15.0582C126.731 15.11 126.842 15.1486 126.919 15.1741C127.223 15.2818 127.482 15.3813 127.698 15.4734C127.914 15.5654 128.15 15.6929 128.406 15.8556C128.664 16.0184 128.871 16.1902 129.032 16.3702C129.192 16.5503 129.327 16.7747 129.435 17.0452C129.545 17.3148 129.599 17.6132 129.599 17.9388C129.599 18.7477 129.28 19.4234 128.64 19.9643C128.001 20.5053 127.186 20.7757 126.194 20.7757C125.579 20.7757 125 20.7026 124.457 20.5562C123.914 20.4099 123.352 20.1871 122.771 19.8904C122.715 19.8649 122.676 19.8197 122.655 19.7564Z" fill="#ED5567"/>
<path fill-rule="evenodd" clip-rule="evenodd" d="M131.587 20.0486V11.5653C131.587 11.5029 131.609 11.4485 131.654 11.403C131.699 11.3574 131.751 11.3342 131.812 11.3342H133.356C133.417 11.3342 133.468 11.3574 133.511 11.403C133.553 11.4485 133.575 11.5029 133.575 11.5653V20.0486C133.575 20.1101 133.553 20.1653 133.511 20.2101C133.468 20.2564 133.417 20.2788 133.356 20.2788H131.812C131.751 20.2788 131.699 20.2564 131.654 20.2101C131.609 20.1653 131.587 20.1101 131.587 20.0486Z" fill="#ED5567"/>
<path fill-rule="evenodd" clip-rule="evenodd" d="M135.562 16.055C135.562 15.7673 135.585 15.4788 135.629 15.1878C135.674 14.8968 135.749 14.5951 135.855 14.2819C135.961 13.9696 136.094 13.672 136.254 13.3892C136.414 13.1073 136.617 12.8393 136.863 12.5861C137.109 12.3346 137.384 12.116 137.689 11.931C137.993 11.7477 138.352 11.6022 138.766 11.4945C139.181 11.3877 139.628 11.3342 140.107 11.3342C141.358 11.3342 142.463 11.811 143.424 12.7645C143.466 12.8122 143.487 12.8697 143.487 12.938C143.487 13.007 143.466 13.0621 143.424 13.1048L142.442 14.1825C142.399 14.2244 142.345 14.2474 142.279 14.2499C142.213 14.2523 142.159 14.2334 142.117 14.1948C141.836 13.9433 141.509 13.7336 141.135 13.5668C140.761 13.3999 140.419 13.3161 140.107 13.3161C139.819 13.3161 139.553 13.3555 139.311 13.4328C139.069 13.5092 138.865 13.6095 138.702 13.7345C138.539 13.8586 138.394 14.0041 138.269 14.171C138.143 14.3378 138.046 14.5055 137.976 14.6724C137.905 14.8392 137.848 15.0127 137.803 15.1935C137.759 15.3735 137.729 15.5289 137.714 15.6621C137.698 15.7952 137.691 15.9169 137.691 16.0287C137.691 16.1429 137.698 16.2662 137.714 16.3978C137.729 16.5293 137.759 16.6887 137.803 16.8762C137.848 17.0636 137.905 17.2428 137.976 17.4146C138.046 17.5864 138.143 17.7598 138.269 17.9333C138.394 18.1083 138.539 18.2588 138.702 18.3862C138.865 18.5136 139.069 18.618 139.311 18.6985C139.553 18.7791 139.819 18.8194 140.107 18.8194C140.334 18.8194 140.569 18.7857 140.816 18.7166C141.063 18.6484 141.26 18.5604 141.408 18.4528V17.5757H139.91C139.847 17.5757 139.791 17.551 139.745 17.5042C139.698 17.4565 139.674 17.4006 139.674 17.3348V15.8536C139.674 15.7878 139.698 15.7328 139.745 15.6875C139.791 15.6415 139.847 15.6193 139.91 15.6193H143.277C143.341 15.6193 143.396 15.6415 143.443 15.6867C143.49 15.7311 143.513 15.7862 143.513 15.8503V19.1202C143.513 19.2797 143.456 19.4161 143.341 19.5312C142.449 20.3606 141.37 20.7757 140.107 20.7757C139.628 20.7757 139.181 20.7231 138.766 20.6163C138.352 20.5094 137.992 20.3647 137.685 20.1831C137.379 20.0022 137.104 19.786 136.859 19.5362C136.616 19.2871 136.414 19.0216 136.254 18.7421C136.094 18.4626 135.961 18.1651 135.855 17.8519C135.749 17.5379 135.674 17.2337 135.629 16.9386C135.585 16.6444 135.562 16.3493 135.562 16.055Z" fill="#ED5567"/>
<mask id="mask1_5922_8286" style="mask-type:alpha" maskUnits="userSpaceOnUse" x="145" y="11" width="9" height="10">
<path fill-rule="evenodd" clip-rule="evenodd" d="M145.598 11.0579H153.368V20.5192H145.598V11.0579Z" fill="white"/>
</mask>
<g mask="url(#mask1_5922_8286)">
<path fill-rule="evenodd" clip-rule="evenodd" d="M145.598 20.2161V11.2591C145.598 11.2069 145.614 11.1606 145.649 11.12C145.684 11.0794 145.728 11.0579 145.78 11.0579C145.915 11.0579 146.033 11.1018 146.133 11.1879L151.213 15.8855V11.4272C151.213 11.3626 151.238 11.3063 151.285 11.2591C151.334 11.2119 151.391 11.1879 151.457 11.1879H153.126C153.191 11.1879 153.248 11.2119 153.296 11.2591C153.344 11.3063 153.368 11.3626 153.368 11.4272V20.3511C153.368 20.395 153.351 20.4339 153.316 20.4679C153.28 20.5027 153.239 20.5192 153.191 20.5192C153.073 20.5192 152.975 20.4803 152.896 20.4033L147.753 15.5956V20.2161C147.753 20.2799 147.727 20.337 147.681 20.3834C147.633 20.4315 147.576 20.4546 147.511 20.4546H145.839C145.773 20.4546 145.717 20.4315 145.669 20.3834C145.621 20.337 145.598 20.2799 145.598 20.2161Z" fill="#ED5567"/>
</g>
</svg>
