<svg width="195" height="68" viewBox="0 0 195 68" fill="none" xmlns="http://www.w3.org/2000/svg">
<path fill-rule="evenodd" clip-rule="evenodd" d="M49.1014 54.1969V66.8643H47.068V54.1969H42.1807V52.3192H54.0097V54.1969H49.1014Z" fill="#212020"/>
<path fill-rule="evenodd" clip-rule="evenodd" d="M58.1852 66.8643V52.3192H68.4059V54.1969H60.2213V58.304H65.4389V60.0726H60.2213V64.9861H68.6226V66.8643H58.1852Z" fill="#212020"/>
<path fill-rule="evenodd" clip-rule="evenodd" d="M112.784 54.3063L110.07 61.0335H115.43L112.784 54.3063ZM117.738 66.8643L116.132 62.8251H109.346L107.717 66.8643H105.501L111.631 52.3192H113.96L120.113 66.8643H117.738Z" fill="#212020"/>
<path fill-rule="evenodd" clip-rule="evenodd" d="M124.288 66.8643V52.3192H126.384V64.9861H134.725V66.8643H124.288Z" fill="#212020"/>
<path fill-rule="evenodd" clip-rule="evenodd" d="M144.466 53.9663C141.379 53.9663 139.531 56.2854 139.531 59.5927C139.531 62.8983 141.379 65.2409 144.466 65.2409C147.53 65.2409 149.399 62.8983 149.399 59.5927C149.399 56.2854 147.53 53.9663 144.466 53.9663ZM144.466 67.145C140.139 67.145 137.401 63.8846 137.401 59.5927C137.401 55.3013 140.139 52.0387 144.466 52.0387C148.791 52.0387 151.552 55.3013 151.552 59.5927C151.552 63.8846 148.791 67.145 144.466 67.145Z" fill="#212020"/>
<path fill-rule="evenodd" clip-rule="evenodd" d="M157.916 59.5927C157.916 63.0076 159.809 65.2856 162.851 65.2856C165.438 65.2856 167.351 63.7085 167.546 61.1898H162.851V59.3949H169.481C169.524 59.6808 169.568 60.0313 169.568 60.4893C169.568 64.0156 167.134 67.145 162.873 67.145C158.569 67.145 155.786 63.9492 155.786 59.5711C155.786 55.1699 158.569 52.0387 162.809 52.0387C165.286 52.0387 167.198 53.0897 168.504 54.9721L166.895 56.0894C166.003 54.7097 164.655 53.9211 162.851 53.9211C159.764 53.9211 157.916 56.2208 157.916 59.5927Z" fill="#212020"/>
<path fill-rule="evenodd" clip-rule="evenodd" d="M174.541 66.8837H176.562V52.3018H174.541V66.8837Z" fill="#212020"/>
<path fill-rule="evenodd" clip-rule="evenodd" d="M192.841 56.0899C191.949 54.7101 190.602 53.9216 188.797 53.9216C185.797 53.9216 183.862 56.1779 183.862 59.5715C183.862 63.008 185.819 65.286 188.754 65.286C190.537 65.286 191.949 64.4307 192.841 63.0297L194.514 64.1253C193.276 66.0082 191.298 67.145 188.776 67.145C184.537 67.145 181.733 63.9709 181.733 59.5932C181.733 55.2345 184.537 52.0387 188.754 52.0387C191.232 52.0387 193.144 53.0897 194.449 54.9725L192.841 56.0899Z" fill="#212020"/>
<path fill-rule="evenodd" clip-rule="evenodd" d="M82.665 60.6439C84.3824 60.0315 85.6415 58.6066 85.6415 56.5711C85.6415 53.9877 83.7726 52.3009 80.7957 52.3009H74.4481V66.8833H76.4919V61.9445H76.491V58.2557H76.4919V54.1838H80.7298C82.4028 54.1838 83.5336 55.1701 83.5336 56.7242C83.5336 58.2132 82.4691 59.2213 80.7957 59.2213H78.6056V61.0156H80.6423L83.73 66.8833H86.0343L82.665 60.6439Z" fill="#212020"/>
<path fill-rule="evenodd" clip-rule="evenodd" d="M98.6258 60.6439C100.343 60.0315 101.602 58.6066 101.602 56.5711C101.602 53.9877 99.7333 52.3009 96.7564 52.3009H90.4084V66.8833H92.4527V61.9445H92.4518V58.2557H92.4527V54.1838H96.6905C98.3631 54.1838 99.4943 55.1701 99.4943 56.7242C99.4943 58.2132 98.4294 59.2213 96.7564 59.2213H94.5663V61.0156H96.6031L99.6903 66.8833H101.995L98.6258 60.6439Z" fill="#212020"/>
<mask id="mask0_4464_6465" style="mask-type:alpha" maskUnits="userSpaceOnUse" x="0" y="21" width="38" height="39">
<path d="M0 37.3367L14.4365 37.3784L8.3181 59.0249H26.6844L37.3649 21.209L4.74589 21.2068L0 37.3367Z" fill="white"/>
</mask>
<g mask="url(#mask0_4464_6465)">
<path fill-rule="evenodd" clip-rule="evenodd" d="M0 37.3367L14.4365 37.3784L8.3181 59.0249H26.6844L37.3649 21.209L4.74589 21.2068L0 37.3367Z" fill="url(#paint0_linear_4464_6465)"/>
</g>
<mask id="mask1_4464_6465" style="mask-type:alpha" maskUnits="userSpaceOnUse" x="37" y="0" width="38" height="38">
<path d="M48.0547 0L37.3457 37.273L70.053 37.2752L74.8113 21.3766L60.3361 21.3359L66.4711 0H48.0547Z" fill="white"/>
</mask>
<g mask="url(#mask1_4464_6465)">
<path fill-rule="evenodd" clip-rule="evenodd" d="M48.0547 0L37.3457 37.273L70.053 37.2752L74.8113 21.3766L60.3361 21.3359L66.4711 0H48.0547Z" fill="url(#paint1_linear_4464_6465)"/>
</g>
<defs>
<linearGradient id="paint0_linear_4464_6465" x1="-5.96134" y1="54.1401" x2="56.5095" y2="14.8618" gradientUnits="userSpaceOnUse">
<stop stop-color="#3333FF"/>
<stop offset="1" stop-color="#FF3397"/>
</linearGradient>
<linearGradient id="paint1_linear_4464_6465" x1="-5.08613" y1="57.8768" x2="59.0531" y2="18.2361" gradientUnits="userSpaceOnUse">
<stop stop-color="#3333FF"/>
<stop offset="1" stop-color="#FF3397"/>
</linearGradient>
</defs>
</svg>
