<svg width="20" height="16" viewBox="0 0 20 16" fill="none" xmlns="http://www.w3.org/2000/svg">
<path d="M20 1.89389C19.2639 2.21572 18.4731 2.4323 17.6432 2.52998C18.4908 2.0302 19.1408 1.23887 19.4469 0.295329C18.6547 0.758011 17.7762 1.09423 16.8409 1.27597C16.0925 0.4907 15.0263 0 13.8464 0C11.5803 0 9.74347 1.80908 9.74347 4.03919C9.74347 4.35572 9.78039 4.66468 9.84962 4.95925C6.43975 4.79114 3.41679 3.18273 1.39225 0.738322C1.03996 1.33504 0.83766 2.02868 0.83766 2.77003C0.83766 4.17095 1.56148 5.40754 2.66221 6.13148C1.98992 6.11027 1.35687 5.92853 0.803815 5.62639C0.803815 5.64381 0.803815 5.65971 0.803815 5.67713C0.803815 7.63462 2.21761 9.26726 4.09523 9.63756C3.75139 9.72994 3.38833 9.77917 3.01373 9.77917C2.74989 9.77917 2.49221 9.75342 2.24222 9.70723C2.76451 11.3118 4.27984 12.4803 6.07515 12.5128C4.67136 13.5965 2.9022 14.2424 0.979193 14.2424C0.648437 14.2424 0.321526 14.2235 0 14.1856C1.81608 15.3313 3.97216 16 6.28976 16C13.8372 16 17.9632 9.84505 17.9632 4.50717C17.9632 4.33224 17.9593 4.15808 17.9516 3.98467C18.7539 3.41445 19.45 2.70339 20 1.89389Z" fill="#707177"/>
</svg>
