<svg width="13" height="13" viewBox="0 0 13 13" fill="none" xmlns="http://www.w3.org/2000/svg">
<path d="M11.9997 9.48561V11.1416C12.0003 11.2953 11.9687 11.4474 11.907 11.5883C11.8453 11.7292 11.7548 11.8556 11.6413 11.9595C11.5278 12.0634 11.3938 12.1426 11.2479 12.1918C11.102 12.2411 10.9474 12.2594 10.794 12.2455C9.09204 12.061 7.45724 11.4806 6.0209 10.5509C4.68457 9.70346 3.55159 8.57273 2.70244 7.23905C1.76772 5.79904 1.18603 4.15954 1.00449 2.45337C0.990668 2.30073 1.00884 2.14689 1.05786 2.00164C1.10688 1.8564 1.18566 1.72293 1.28919 1.60974C1.39273 1.49654 1.51874 1.4061 1.65922 1.34418C1.79969 1.28225 1.95155 1.2502 2.10511 1.25005H3.76434C4.03276 1.24742 4.29297 1.34228 4.49649 1.51695C4.7 1.69163 4.83293 1.9342 4.8705 2.19946C4.94053 2.7294 5.07041 3.24973 5.25765 3.75053C5.33206 3.9481 5.34817 4.16281 5.30406 4.36923C5.25995 4.57566 5.15747 4.76513 5.00877 4.91521L4.30636 5.61622C5.09369 6.99813 6.24017 8.14234 7.62482 8.92811L8.32723 8.2271C8.4776 8.07869 8.66746 7.97641 8.87429 7.93239C9.08112 7.88837 9.29626 7.90444 9.49422 7.9787C9.99601 8.16558 10.5174 8.2952 11.0484 8.36509C11.317 8.40292 11.5624 8.53798 11.7378 8.74458C11.9132 8.95118 12.0064 9.21491 11.9997 9.48561Z" stroke="#2C6DF9" stroke-linecap="round" stroke-linejoin="round"/>
</svg>
