<svg width="25" height="25" viewBox="0 0 25 25" fill="none" xmlns="http://www.w3.org/2000/svg">
<g clip-path="url(#clip0)">
<path d="M18.3847 16.9706L19.0918 17.6777L21.5667 15.2028C22.1525 14.617 22.1525 13.6673 21.5667 13.0815L10.9601 2.47488C10.3743 1.88908 9.42455 1.88908 8.83875 2.47488L6.36388 4.94975L7.07099 5.65686C7.46151 6.04738 7.46151 6.68055 7.07099 7.07107C6.68046 7.46159 6.04729 7.46159 5.65677 7.07107L4.94967 6.36396L2.47479 8.83884C1.889 9.42463 1.889 10.3744 2.47479 10.9602L13.0814 21.5668C13.6672 22.1526 14.6169 22.1526 15.2027 21.5668L17.6776 19.0919L16.9705 18.3848C16.58 17.9943 16.58 17.3611 16.9705 16.9706C17.361 16.58 17.9942 16.58 18.3847 16.9706ZM16.2634 19.0919L14.4956 20.8597C14.3006 21.0546 13.9835 21.0546 13.7885 20.8597L3.1819 10.2531C2.98694 10.0581 2.98694 9.74091 3.1819 9.54594L4.94967 7.77818C5.72947 8.55798 6.99829 8.55798 7.77809 7.77818C8.5579 6.99837 8.5579 5.72956 7.77809 4.94975L9.54586 3.18198C9.74082 2.98702 10.058 2.98702 10.253 3.18198L20.8596 13.7886C21.0545 13.9835 21.0545 14.3007 20.8596 14.4957L19.0918 16.2635C18.312 15.4837 17.0432 15.4837 16.2634 16.2635C15.4836 17.0433 15.4836 18.3121 16.2634 19.0919Z" fill="#2C6DF9"/>
</g>
<defs>
<clipPath id="clip0">
<rect width="18" height="16" fill="white" transform="translate(11.3135) rotate(45)"/>
</clipPath>
</defs>
</svg>
