<svg width="12" height="12" viewBox="0 0 12 12" fill="none" xmlns="http://www.w3.org/2000/svg">
<path d="M6 0C2.69163 0 0 2.69163 0 6C0 9.30837 2.69163 12 6 12C9.30837 12 12 9.30837 12 6C12 2.69163 9.30837 0 6 0ZM9.32575 4.77756L5.49379 8.60951C5.37717 8.72614 5.21552 8.79308 5.05064 8.79308V9.05254L5.04506 8.79308C4.87797 8.79165 4.71568 8.72186 4.5997 8.6016L2.66647 6.5978C2.42647 6.3491 2.4336 5.95174 2.68229 5.71174C2.7997 5.59836 2.95421 5.53609 3.11728 5.53609C3.28891 5.53609 3.44912 5.60407 3.56835 5.72757L5.05868 7.27226L8.4397 3.89137C8.55801 3.77306 8.71537 3.70781 8.88285 3.70781C9.05021 3.70781 9.20757 3.77293 9.32588 3.89124C9.57003 4.13565 9.57003 4.53328 9.32575 4.77756Z" fill="#04AA6D"/>
</svg>
