<svg width="11" height="11" viewBox="0 0 11 11" fill="none" xmlns="http://www.w3.org/2000/svg">
<path d="M10.2812 5.09375C10.4271 5.09375 10.5 5.16667 10.5 5.3125V6.1875C10.5 6.33333 10.4271 6.40625 10.2812 6.40625H5.90625V10.7812C5.90625 10.9271 5.83333 11 5.6875 11H4.8125C4.66667 11 4.59375 10.9271 4.59375 10.7812V6.40625H0.21875C0.0729167 6.40625 0 6.33333 0 6.1875V5.3125C0 5.16667 0.0729167 5.09375 0.21875 5.09375H4.59375V0.71875C4.59375 0.572917 4.66667 0.5 4.8125 0.5H5.6875C5.83333 0.5 5.90625 0.572917 5.90625 0.71875V5.09375H10.2812Z" fill="#707177"/>
</svg>
