<svg width="15" height="13" viewBox="0 0 15 13" fill="none" xmlns="http://www.w3.org/2000/svg">
<path d="M11.2227 0.640625L14.0664 5.51562C14.3034 5.92188 14.3034 6.32812 14.0664 6.73438L11.2227 11.6094C10.9857 12.0156 10.6302 12.2188 10.1562 12.2188H4.46875C3.99479 12.2188 3.63932 12.0156 3.40234 11.6094L0.558594 6.73438C0.321615 6.32812 0.321615 5.92188 0.558594 5.51562L3.40234 0.640625C3.63932 0.234375 3.99479 0.03125 4.46875 0.03125H10.1562C10.6302 0.03125 10.9857 0.234375 11.2227 0.640625ZM13.3555 6.32812C13.4232 6.19271 13.4232 6.05729 13.3555 5.92188L10.5117 1.04688C10.4271 0.911458 10.3086 0.84375 10.1562 0.84375H4.46875C4.31641 0.84375 4.19792 0.911458 4.11328 1.04688L1.26953 5.92188C1.1849 6.05729 1.1849 6.19271 1.26953 6.32812L4.11328 11.2031C4.19792 11.3385 4.31641 11.4062 4.46875 11.4062H10.1562C10.3086 11.4062 10.4271 11.3385 10.5117 11.2031L13.3555 6.32812ZM10.5625 5.97266V6.27734C10.5625 6.48047 10.4609 6.58203 10.2578 6.58203H7.76953V9.07031C7.76953 9.27344 7.66797 9.375 7.46484 9.375H7.16016C6.95703 9.375 6.85547 9.27344 6.85547 9.07031V6.58203H4.36719C4.16406 6.58203 4.0625 6.48047 4.0625 6.27734V5.97266C4.0625 5.76953 4.16406 5.66797 4.36719 5.66797H6.85547V3.17969C6.85547 2.97656 6.95703 2.875 7.16016 2.875H7.46484C7.66797 2.875 7.76953 2.97656 7.76953 3.17969V5.66797H10.2578C10.4609 5.66797 10.5625 5.76953 10.5625 5.97266Z" fill="#FFA100"/>
</svg>
