<svg width="17" height="14" viewBox="0 0 17 14" fill="none" xmlns="http://www.w3.org/2000/svg">
<path d="M7.97266 6.18555C7.34635 6.81185 6.58464 7.125 5.6875 7.125C4.79036 7.125 4.02018 6.81185 3.37695 6.18555C2.75065 5.54232 2.4375 4.77214 2.4375 3.875C2.4375 2.97786 2.75065 2.21615 3.37695 1.58984C4.02018 0.946615 4.79036 0.625 5.6875 0.625C6.58464 0.625 7.34635 0.946615 7.97266 1.58984C8.61589 2.21615 8.9375 2.97786 8.9375 3.875C8.9375 4.77214 8.61589 5.54232 7.97266 6.18555ZM7.41406 2.14844C6.9401 1.67448 6.36458 1.4375 5.6875 1.4375C5.01042 1.4375 4.4349 1.67448 3.96094 2.14844C3.48698 2.6224 3.25 3.19792 3.25 3.875C3.25 4.55208 3.48698 5.1276 3.96094 5.60156C4.4349 6.07552 5.01042 6.3125 5.6875 6.3125C6.36458 6.3125 6.9401 6.07552 7.41406 5.60156C7.88802 5.1276 8.125 4.55208 8.125 3.875C8.125 3.19792 7.88802 2.6224 7.41406 2.14844ZM16.0215 6.61719C16.1738 6.78646 16.25 6.98112 16.25 7.20117C16.25 7.42122 16.1738 7.61589 16.0215 7.78516L10.3594 13.4219L8.63281 13.625C8.61589 13.625 8.59896 13.625 8.58203 13.625C8.44661 13.625 8.32812 13.5742 8.22656 13.4727C8.14193 13.3711 8.10807 13.2526 8.125 13.1172L8.32812 11.3906L13.9648 5.72852C14.1341 5.57617 14.3288 5.5 14.5488 5.5C14.7689 5.5 14.9635 5.57617 15.1328 5.72852L16.0215 6.61719ZM9.97852 12.6602L13.9648 8.67383L13.0762 7.78516L9.08984 11.7715L8.98828 12.7617L9.97852 12.6602ZM14.5488 8.08984L15.4375 7.20117L14.5488 6.3125L13.6602 7.20117L14.5488 8.08984ZM3.40234 8.75C2.69141 8.75 2.08203 9.00391 1.57422 9.51172C1.06641 10.0195 0.8125 10.6289 0.8125 11.3398V12.4062C0.8125 12.5247 0.846354 12.6178 0.914062 12.6855C0.998698 12.7702 1.10026 12.8125 1.21875 12.8125H7.33789L7.3125 13.041C7.29557 13.2272 7.32943 13.4219 7.41406 13.625H1.21875C0.880208 13.625 0.592448 13.5065 0.355469 13.2695C0.11849 13.0326 0 12.7448 0 12.4062V11.3398C0 10.4089 0.330078 9.61328 0.990234 8.95312C1.66732 8.27604 2.47135 7.9375 3.40234 7.9375C3.6224 7.9375 3.94401 8.00521 4.36719 8.14062C4.80729 8.27604 5.2474 8.34375 5.6875 8.34375C6.1276 8.34375 6.56771 8.27604 7.00781 8.14062C7.44792 8.00521 7.76953 7.9375 7.97266 7.9375C8.70052 7.9375 9.36068 8.15755 9.95312 8.59766L9.39453 9.18164C8.95443 8.89388 8.48047 8.75 7.97266 8.75C7.87109 8.75 7.58333 8.81771 7.10938 8.95312C6.65234 9.08854 6.17839 9.15625 5.6875 9.15625C5.19661 9.15625 4.71419 9.08854 4.24023 8.95312C3.7832 8.81771 3.50391 8.75 3.40234 8.75Z" fill="#464646"/>
</svg>
