<svg width="17" height="14" viewBox="0 0 17 14" fill="none" xmlns="http://www.w3.org/2000/svg">
<path d="M16.0469 6.3125C16.1823 6.3125 16.25 6.38021 16.25 6.51562V6.92188C16.25 7.05729 16.1823 7.125 16.0469 7.125H13.8125V9.35938C13.8125 9.49479 13.7448 9.5625 13.6094 9.5625H13.2031C13.0677 9.5625 13 9.49479 13 9.35938V7.125H10.7656C10.6302 7.125 10.5625 7.05729 10.5625 6.92188V6.51562C10.5625 6.38021 10.6302 6.3125 10.7656 6.3125H13V4.07812C13 3.94271 13.0677 3.875 13.2031 3.875H13.6094C13.7448 3.875 13.8125 3.94271 13.8125 4.07812V6.3125H16.0469ZM7.97266 7.9375C8.90365 7.9375 9.69922 8.27604 10.3594 8.95312C11.0365 9.61328 11.375 10.4089 11.375 11.3398V12.4062C11.375 12.7448 11.2565 13.0326 11.0195 13.2695C10.7826 13.5065 10.4948 13.625 10.1562 13.625H1.21875C0.880208 13.625 0.592448 13.5065 0.355469 13.2695C0.11849 13.0326 0 12.7448 0 12.4062V11.3398C0 10.4089 0.330078 9.61328 0.990234 8.95312C1.66732 8.27604 2.47135 7.9375 3.40234 7.9375C3.6224 7.9375 3.94401 8.00521 4.36719 8.14062C4.80729 8.27604 5.2474 8.34375 5.6875 8.34375C6.1276 8.34375 6.56771 8.27604 7.00781 8.14062C7.44792 8.00521 7.76953 7.9375 7.97266 7.9375ZM10.5625 12.4062V11.3398C10.5625 10.6289 10.3086 10.0195 9.80078 9.51172C9.29297 9.00391 8.68359 8.75 7.97266 8.75C7.87109 8.75 7.58333 8.81771 7.10938 8.95312C6.65234 9.08854 6.17839 9.15625 5.6875 9.15625C5.19661 9.15625 4.71419 9.08854 4.24023 8.95312C3.7832 8.81771 3.50391 8.75 3.40234 8.75C2.69141 8.75 2.08203 9.00391 1.57422 9.51172C1.06641 10.0195 0.8125 10.6289 0.8125 11.3398V12.4062C0.8125 12.5247 0.846354 12.6178 0.914062 12.6855C0.998698 12.7702 1.10026 12.8125 1.21875 12.8125H10.1562C10.2747 12.8125 10.3678 12.7702 10.4355 12.6855C10.5202 12.6178 10.5625 12.5247 10.5625 12.4062ZM7.97266 6.18555C7.34635 6.81185 6.58464 7.125 5.6875 7.125C4.79036 7.125 4.02018 6.81185 3.37695 6.18555C2.75065 5.54232 2.4375 4.77214 2.4375 3.875C2.4375 2.97786 2.75065 2.21615 3.37695 1.58984C4.02018 0.946615 4.79036 0.625 5.6875 0.625C6.58464 0.625 7.34635 0.946615 7.97266 1.58984C8.61589 2.21615 8.9375 2.97786 8.9375 3.875C8.9375 4.77214 8.61589 5.54232 7.97266 6.18555ZM7.41406 2.14844C6.9401 1.67448 6.36458 1.4375 5.6875 1.4375C5.01042 1.4375 4.4349 1.67448 3.96094 2.14844C3.48698 2.6224 3.25 3.19792 3.25 3.875C3.25 4.55208 3.48698 5.1276 3.96094 5.60156C4.4349 6.07552 5.01042 6.3125 5.6875 6.3125C6.36458 6.3125 6.9401 6.07552 7.41406 5.60156C7.88802 5.1276 8.125 4.55208 8.125 3.875C8.125 3.19792 7.88802 2.6224 7.41406 2.14844Z" fill="#FFA100"/>
</svg>
