<svg width="12" height="14" viewBox="0 0 12 14" fill="none" xmlns="http://www.w3.org/2000/svg">
<path d="M7.51562 11.5938C7.38021 11.5938 7.3125 11.526 7.3125 11.3906V4.48438C7.3125 4.34896 7.38021 4.28125 7.51562 4.28125H7.92188C8.05729 4.28125 8.125 4.34896 8.125 4.48438V11.3906C8.125 11.526 8.05729 11.5938 7.92188 11.5938H7.51562ZM3.45312 11.5938C3.31771 11.5938 3.25 11.526 3.25 11.3906V4.48438C3.25 4.34896 3.31771 4.28125 3.45312 4.28125H3.85938C3.99479 4.28125 4.0625 4.34896 4.0625 4.48438V11.3906C4.0625 11.526 3.99479 11.5938 3.85938 11.5938H3.45312ZM11.1719 2.25C11.3073 2.25 11.375 2.31771 11.375 2.45312V2.85938C11.375 2.99479 11.3073 3.0625 11.1719 3.0625H10.5625V12.4062C10.5625 12.7448 10.444 13.0326 10.207 13.2695C9.97005 13.5065 9.68229 13.625 9.34375 13.625H2.03125C1.69271 13.625 1.40495 13.5065 1.16797 13.2695C0.93099 13.0326 0.8125 12.7448 0.8125 12.4062V3.0625H0.203125C0.0677083 3.0625 0 2.99479 0 2.85938V2.45312C0 2.31771 0.0677083 2.25 0.203125 2.25H2.84375L3.70703 1.10742C3.80859 0.972005 3.95247 0.861979 4.13867 0.777344C4.32487 0.675781 4.5026 0.625 4.67188 0.625H6.70312C6.8724 0.625 7.05013 0.675781 7.23633 0.777344C7.42253 0.861979 7.56641 0.972005 7.66797 1.10742L8.53125 2.25H11.1719ZM4.3418 1.58984L3.85938 2.25H7.51562L7.0332 1.58984C6.94857 1.48828 6.83854 1.4375 6.70312 1.4375H4.67188C4.53646 1.4375 4.42643 1.48828 4.3418 1.58984ZM9.75 12.4062V3.0625H1.625V12.4062C1.625 12.5247 1.65885 12.6178 1.72656 12.6855C1.8112 12.7702 1.91276 12.8125 2.03125 12.8125H9.34375C9.46224 12.8125 9.55534 12.7702 9.62305 12.6855C9.70768 12.6178 9.75 12.5247 9.75 12.4062ZM5.48438 11.5938C5.34896 11.5938 5.28125 11.526 5.28125 11.3906V4.48438C5.28125 4.34896 5.34896 4.28125 5.48438 4.28125H5.89062C6.02604 4.28125 6.09375 4.34896 6.09375 4.48438V11.3906C6.09375 11.526 6.02604 11.5938 5.89062 11.5938H5.48438Z" fill="#FF0000"/>
</svg>
