<svg width="38" height="38" viewBox="0 0 38 38" fill="none" xmlns="http://www.w3.org/2000/svg">
<g filter="url(#filter0_d_18101_18750)">
<rect x="5" y="5" width="28" height="28" rx="14" fill="white"/>
<path d="M19 18.9997C20.841 18.9997 22.3334 17.5073 22.3334 15.6663C22.3334 13.8254 20.841 12.333 19 12.333C17.1591 12.333 15.6667 13.8254 15.6667 15.6663C15.6667 17.5073 17.1591 18.9997 19 18.9997Z" stroke="#2C6DF9" stroke-linecap="round" stroke-linejoin="round"/>
<path d="M23.8067 21.4933L21.4466 23.8534C21.3533 23.9467 21.2666 24.12 21.2466 24.2467L21.12 25.1467C21.0733 25.4733 21.3 25.7 21.6267 25.6533L22.5266 25.5267C22.6533 25.5067 22.8333 25.42 22.92 25.3267L25.28 22.9667C25.6866 22.56 25.88 22.0867 25.28 21.4867C24.6866 20.8933 24.2133 21.0867 23.8067 21.4933Z" stroke="#2C6DF9" stroke-miterlimit="10" stroke-linecap="round" stroke-linejoin="round"/>
<path d="M23.4667 21.833C23.6667 22.553 24.2267 23.113 24.9467 23.313" stroke="#2C6DF9" stroke-miterlimit="10" stroke-linecap="round" stroke-linejoin="round"/>
<path d="M13.2733 25.6667C13.2733 23.0867 15.84 21 19 21C19.6933 21 20.36 21.1 20.98 21.2867" stroke="#2C6DF9" stroke-linecap="round" stroke-linejoin="round"/>
</g>
<defs>
<filter id="filter0_d_18101_18750" x="0" y="0" width="38" height="38" filterUnits="userSpaceOnUse" color-interpolation-filters="sRGB">
<feFlood flood-opacity="0" result="BackgroundImageFix"/>
<feColorMatrix in="SourceAlpha" type="matrix" values="0 0 0 0 0 0 0 0 0 0 0 0 0 0 0 0 0 0 127 0" result="hardAlpha"/>
<feOffset/>
<feGaussianBlur stdDeviation="2.5"/>
<feColorMatrix type="matrix" values="0 0 0 0 0 0 0 0 0 0 0 0 0 0 0 0 0 0 0.23 0"/>
<feBlend mode="normal" in2="BackgroundImageFix" result="effect1_dropShadow_18101_18750"/>
<feBlend mode="normal" in="SourceGraphic" in2="effect1_dropShadow_18101_18750" result="shape"/>
</filter>
</defs>
</svg>
