<svg width="18" height="20" viewBox="0 0 18 20" fill="none" xmlns="http://www.w3.org/2000/svg">
<path fill-rule="evenodd" clip-rule="evenodd" d="M16.8601 6.2997C16.8824 6.2764 16.9027 6.25177 16.9208 6.2261C17.5667 5.53517 17.9301 4.63543 17.9301 3.67977C17.9301 2.68977 17.5501 1.75977 16.8501 1.05977C15.4501 -0.340234 13.0201 -0.340234 11.6201 1.05977L6.88008 5.79977C6.86711 5.81331 6.85487 5.82729 6.84336 5.84166L1.58006 11.0998C0.600059 12.0898 0.0600586 13.3898 0.0600586 14.7798C0.0600586 16.1698 0.600059 17.4798 1.58006 18.4598C2.60006 19.4698 3.93006 19.9798 5.26006 19.9798C6.59006 19.9798 7.92006 19.4698 8.94006 18.4598L14.7401 12.6598C14.9701 12.4198 14.9801 12.0398 14.7401 11.8098C14.5001 11.5798 14.1201 11.5798 13.8901 11.8098L8.09006 17.6098C7.33006 18.3598 6.33006 18.7798 5.26006 18.7798C4.19006 18.7798 3.19006 18.3698 2.43006 17.6098C1.68006 16.8498 1.26006 15.8498 1.26006 14.7798C1.26006 13.7198 1.68006 12.7098 2.43006 11.9598L12.4701 1.91972C12.4963 1.89238 12.5196 1.86322 12.5401 1.83268C13.4993 0.950786 15.0928 0.982446 16.0101 1.89977C16.4801 2.36977 16.7401 2.99977 16.7401 3.66977C16.7401 4.33977 16.4801 4.96977 16.0101 5.43977L11.2701 10.1798C11.2572 10.1933 11.2449 10.2073 11.2335 10.2216L5.96006 15.4897C5.59006 15.8697 4.93006 15.8697 4.55006 15.4897C4.36006 15.2997 4.26006 15.0397 4.26006 14.7797C4.26006 14.5197 4.36006 14.2697 4.55006 14.0697L12.4701 6.1497C12.7001 5.9097 12.7101 5.5297 12.4701 5.2997C12.2301 5.0697 11.8501 5.0697 11.6201 5.2997L3.70006 13.2197C3.29006 13.6397 3.06006 14.1897 3.06006 14.7797C3.06006 15.3697 3.29006 15.9197 3.70006 16.3397C4.12006 16.7497 4.67006 16.9797 5.26006 16.9797C5.85006 16.9797 6.40006 16.7597 6.82006 16.3397L16.8601 6.2997Z" fill="#D6DCE4"/>
</svg>
