<svg width="23" height="25" viewBox="0 0 23 25" fill="none" xmlns="http://www.w3.org/2000/svg">
<g id="Group 14" clip-path="url(#clip0_4407_7511)">
<path id="Path" d="M3.93191 0L0 3.93191V24.2763H17.8026V0H3.93191Z" fill="#8046EF"/>
<path id="Path_2" d="M3.93191 3.93191V0L0 3.93191H3.93191Z" fill="#5D2BBC"/>
<path id="Path_3" d="M22.0104 6.66101H13.5946C13.2371 6.66101 12.9473 6.37117 12.9473 6.01363V2.41007C12.9473 2.05253 13.2371 1.7627 13.5946 1.7627H22.0104C22.3679 1.7627 22.6578 2.05253 22.6578 2.41007V6.01363C22.6578 6.37117 22.3679 6.66101 22.0104 6.66101Z" fill="#27A2DB"/>
<g id="Group 13">
<path id="Shape" fill-rule="evenodd" clip-rule="evenodd" d="M10.9606 13.2438L9.85003 14.5139L7.52047 11.217C7.42466 11.0733 7.25973 10.9911 7.08708 11.0008C6.91754 11.0048 6.75862 11.0841 6.65368 11.217L3.07812 16.0272C2.95483 16.2115 2.93435 16.4459 3.02394 16.6487C3.11099 16.845 3.29733 16.9793 3.51152 17H13.4256C13.6398 16.9793 13.8262 16.845 13.9132 16.6487C14.0034 16.4552 13.9827 16.2283 13.859 16.0542L11.8003 13.2978C11.7095 13.1588 11.5597 13.0691 11.394 13.0546C11.2273 13.0437 11.0658 13.1143 10.9606 13.2438ZM9.03737 15.9191H4.59497L7.08703 12.5681L9.44365 15.9191H9.03737ZM10.771 15.9191H12.3421L11.3399 14.5409L10.5001 15.4867L10.771 15.9191Z" fill="white"/>
<path id="Shape_2" fill-rule="evenodd" clip-rule="evenodd" d="M12.9688 11C12.9688 12.1046 12.0733 13 10.9688 13C9.86417 13 8.96875 12.1046 8.96875 11C8.96875 9.89542 9.86417 9 10.9688 9C12.0733 9 12.9688 9.89542 12.9688 11ZM10.9688 10.3115C10.5885 10.3115 10.2802 10.6198 10.2802 11C10.2802 11.3802 10.5885 11.6885 10.9688 11.6885C11.349 11.6885 11.6573 11.3802 11.6573 11C11.6573 10.6198 11.349 10.3115 10.9688 10.3115Z" fill="white"/>
</g>
<path id="PNG" d="M14.7246 5.09824V6H14.1973V3.44063H15.1957C15.3879 3.44063 15.5566 3.47578 15.702 3.54609C15.8484 3.61641 15.9609 3.7166 16.0395 3.84668C16.118 3.97559 16.1572 4.12266 16.1572 4.28789C16.1572 4.53867 16.0711 4.73672 15.8988 4.88203C15.7277 5.02617 15.4904 5.09824 15.1869 5.09824H14.7246ZM14.7246 4.67109H15.1957C15.3352 4.67109 15.4412 4.63828 15.5139 4.57266C15.5877 4.50703 15.6246 4.41328 15.6246 4.29141C15.6246 4.16602 15.5877 4.06465 15.5139 3.9873C15.44 3.90996 15.3381 3.87012 15.208 3.86777H14.7246V4.67109ZM18.9023 6H18.375L17.3484 4.31602V6H16.8211V3.44063H17.3484L18.3768 5.12813V3.44063H18.9023V6ZM21.6879 5.67656C21.593 5.79023 21.4588 5.87871 21.2854 5.94199C21.1119 6.0041 20.9197 6.03516 20.7088 6.03516C20.4873 6.03516 20.2928 5.98711 20.1252 5.89102C19.9588 5.79375 19.8299 5.65313 19.7385 5.46914C19.6482 5.28516 19.602 5.06895 19.5996 4.82051V4.64648C19.5996 4.39102 19.6424 4.17012 19.7279 3.98379C19.8146 3.79629 19.9389 3.65332 20.1006 3.55488C20.2635 3.45527 20.4539 3.40547 20.6719 3.40547C20.9754 3.40547 21.2127 3.47813 21.3838 3.62344C21.5549 3.76758 21.6562 3.97793 21.6879 4.25449H21.1746C21.1512 4.10801 21.099 4.00078 21.0182 3.93281C20.9385 3.86484 20.8283 3.83086 20.6877 3.83086C20.5084 3.83086 20.3719 3.89824 20.2781 4.03301C20.1844 4.16777 20.1369 4.36816 20.1357 4.63418V4.79766C20.1357 5.06602 20.1867 5.26875 20.2887 5.40586C20.3906 5.54297 20.54 5.61152 20.7369 5.61152C20.935 5.61152 21.0762 5.56934 21.1605 5.48496V5.04375H20.6807V4.65527H21.6879V5.67656Z" fill="white"/>
</g>
<defs>
<clipPath id="clip0_4407_7511">
<rect width="23" height="25" fill="white"/>
</clipPath>
</defs>
</svg>
