<svg xmlns="http://www.w3.org/2000/svg" width="24" height="24" viewBox="0 0 24 24">
    <g fill="none" fill-rule="evenodd">
        <g>
            <g>
                <g>
                    <path d="M0 0H24V24H0z" transform="translate(-601 -484) translate(314 215) translate(287 269)"/>
                    <path fill="#000" d="M19.86 8.3c.022-.023.043-.048.06-.074.647-.69 1.01-1.59 1.01-2.546 0-.99-.38-1.92-1.08-2.62-1.4-1.4-3.83-1.4-5.23 0L9.88 7.8l-.037.042L4.58 13.1c-.98.99-1.52 2.29-1.52 3.68 0 1.39.54 2.7 1.52 3.68 1.02 1.01 2.35 1.52 3.68 1.52s2.66-.51 3.68-1.52l5.8-5.8c.23-.24.24-.62 0-.85-.24-.23-.62-.23-.85 0l-5.8 5.8c-.76.75-1.76 1.17-2.83 1.17s-2.07-.41-2.83-1.17c-.75-.76-1.17-1.76-1.17-2.83 0-1.06.42-2.07 1.17-2.82L15.47 3.92c.026-.027.05-.057.07-.087.96-.882 2.553-.85 3.47.067.47.47.73 1.1.73 1.77 0 .67-.26 1.3-.73 1.77l-4.74 4.74-.037.042L8.96 17.49c-.37.38-1.03.38-1.41 0-.19-.19-.29-.45-.29-.71 0-.26.1-.51.29-.71l7.92-7.92c.23-.24.24-.62 0-.85-.24-.23-.62-.23-.85 0L6.7 15.22c-.41.42-.64.97-.64 1.56 0 .59.23 1.14.64 1.56.42.41.97.64 1.56.64.59 0 1.14-.22 1.56-.64L19.86 8.3z" transform="translate(-601 -484) translate(314 215) translate(287 269)"/>
                </g>
            </g>
        </g>
    </g>
</svg>
