<svg width="60" height="60" viewBox="0 0 60 60" fill="none" xmlns="http://www.w3.org/2000/svg">
<circle cx="30" cy="30" r="30" fill="#FEF6F9"/>
<g clip-path="url(#clip0)">
<path d="M24.5 18C24.066 18 23.7143 18.3518 23.7143 18.7857V20.3571H25.2857V18.7857C25.2857 18.3518 24.9339 18 24.5 18Z" fill="#EA4C89"/>
<path d="M35.5 18C35.066 18 34.7143 18.3518 34.7143 18.7857V20.3571H36.2857V18.7857C36.2857 18.3518 35.9339 18 35.5 18Z" fill="#EA4C89"/>
<path d="M38.6429 20.3571H36.2857V23.5C36.2857 23.934 35.9339 24.2857 35.5 24.2857C35.066 24.2857 34.7143 23.934 34.7143 23.5V20.3571H25.2857V23.5C25.2857 23.934 24.9339 24.2857 24.5 24.2857C24.066 24.2857 23.7142 23.934 23.7142 23.5V20.3571H21.3571C20.0553 20.3571 19 21.4125 19 22.7143V37.6429C19 38.9447 20.0553 40 21.3571 40H38.6429C39.9447 40 41 38.9447 41 37.6429V22.7143C41 21.4125 39.9447 20.3571 38.6429 20.3571ZM39.4285 37.6429C39.4285 38.0768 39.0768 38.4286 38.6428 38.4286H21.3571C20.9232 38.4286 20.5714 38.0768 20.5714 37.6429V27.4286H39.4285V37.6429Z" fill="#EA4C89"/>
<rect x="24" y="31" width="4" height="4" fill="#EA4C89"/>
</g>
<defs>
<clipPath id="clip0">
<rect width="22" height="22" fill="white" transform="translate(19 18)"/>
</clipPath>
</defs>
</svg>
