<svg width="60" height="60" viewBox="0 0 60 60" fill="none" xmlns="http://www.w3.org/2000/svg">
<circle cx="30" cy="30" r="30" fill="#F5FAFF"/>
<path d="M30 19C23.9249 19 19 23.9249 19 30C19 36.0751 23.9249 41 30 41C36.0751 41 41 36.0751 41 30C40.9935 23.9276 36.0724 19.0065 30 19ZM30.7857 30C30.7857 30.4339 30.4339 30.7857 30 30.7857H23.7143C23.2803 30.7857 22.9286 30.4339 22.9286 30C22.9286 29.566 23.2803 29.2142 23.7143 29.2142H29.2143V23.7143C29.2143 23.2803 29.5661 22.9286 30 22.9286C30.434 22.9286 30.7857 23.2803 30.7857 23.7143V30Z" fill="#07A0F7"/>
</svg>
