<svg width="60" height="60" viewBox="0 0 60 60" fill="none" xmlns="http://www.w3.org/2000/svg">
<circle cx="30" cy="30" r="30" fill="#F7FFFD"/>
<path fill-rule="evenodd" clip-rule="evenodd" d="M25.33 20H34.669C38.07 20 39.99 21.929 40 25.33V34.67C40 38.07 38.07 40 34.669 40H25.33C21.929 40 20 38.07 20 34.67V25.33C20 21.929 21.929 20 25.33 20ZM30.049 35.86C30.48 35.86 30.839 35.54 30.879 35.11V24.92C30.919 24.61 30.77 24.299 30.5 24.13C30.219 23.96 29.879 23.96 29.61 24.13C29.339 24.299 29.19 24.61 29.219 24.92V35.11C29.27 35.54 29.629 35.86 30.049 35.86ZM34.65 35.86C35.07 35.86 35.429 35.54 35.48 35.11V31.83C35.509 31.509 35.36 31.21 35.089 31.04C34.82 30.87 34.48 30.87 34.2 31.04C33.929 31.21 33.78 31.509 33.82 31.83V35.11C33.86 35.54 34.219 35.86 34.65 35.86ZM26.219 35.11C26.179 35.54 25.82 35.86 25.389 35.86C24.959 35.86 24.599 35.54 24.56 35.11V28.2C24.53 27.889 24.679 27.58 24.95 27.41C25.219 27.24 25.56 27.24 25.83 27.41C26.099 27.58 26.25 27.889 26.219 28.2V35.11Z" fill="#00C598"/>
</svg>
