<svg width="60" height="60" viewBox="0 0 60 60" fill="none" xmlns="http://www.w3.org/2000/svg">
<circle cx="30" cy="30" r="30" fill="#FFF7F4"/>
<g clip-path="url(#clip0)">
<path d="M24.5 19C24.066 19 23.7143 19.3518 23.7143 19.7857V21.3571H25.2857V19.7857C25.2857 19.3518 24.9339 19 24.5 19Z" fill="#FF6936"/>
<path d="M35.5 19C35.066 19 34.7143 19.3518 34.7143 19.7857V21.3571H36.2857V19.7857C36.2857 19.3518 35.9339 19 35.5 19Z" fill="#FF6936"/>
<path d="M38.6429 21.3571H36.2857V24.5C36.2857 24.934 35.9339 25.2857 35.5 25.2857C35.066 25.2857 34.7143 24.934 34.7143 24.5V21.3571H25.2857V24.5C25.2857 24.934 24.9339 25.2857 24.5 25.2857C24.066 25.2857 23.7142 24.934 23.7142 24.5V21.3571H21.3571C20.0553 21.3571 19 22.4125 19 23.7143V38.6429C19 39.9447 20.0553 41 21.3571 41H38.6429C39.9447 41 41 39.9447 41 38.6429V23.7143C41 22.4125 39.9447 21.3571 38.6429 21.3571ZM39.4285 38.6429C39.4285 39.0768 39.0768 39.4286 38.6428 39.4286H21.3571C20.9232 39.4286 20.5714 39.0768 20.5714 38.6429V28.4286H39.4285V38.6429Z" fill="#FF6936"/>
<rect x="24" y="32" width="4" height="4" fill="#FF6936"/>
<rect x="31" y="32" width="4" height="4" fill="#FF6936"/>
</g>
<defs>
<clipPath id="clip0">
<rect width="22" height="22" fill="white" transform="translate(19 19)"/>
</clipPath>
</defs>
</svg>
