<svg width="14" height="16" viewBox="0 0 14 16" fill="none" xmlns="http://www.w3.org/2000/svg">
<g clip-path="url(#clip0)">
<path d="M11.2819 2.70705H10.3819C10.2678 2.71467 10.1607 2.76539 10.0826 2.84895C10.0044 2.9325 9.96094 3.04264 9.96094 3.15706C9.96094 3.27148 10.0044 3.38161 10.0826 3.46516C10.1607 3.54872 10.2678 3.59944 10.3819 3.60706H11.2819C11.3435 3.61117 11.4053 3.60258 11.4635 3.58183C11.5217 3.56107 11.575 3.52859 11.6201 3.48641C11.6652 3.44422 11.7011 3.39322 11.7257 3.33656C11.7503 3.27991 11.7629 3.21881 11.7629 3.15706C11.7629 3.0953 11.7503 3.03421 11.7257 2.97756C11.7011 2.9209 11.6652 2.8699 11.6201 2.82771C11.575 2.78552 11.5217 2.75304 11.4635 2.73229C11.4053 2.71153 11.3435 2.70294 11.2819 2.70705Z" fill="#2C6DF9"/>
<path d="M6.72253 1.15223L6.27152 0.252232C6.24731 0.195952 6.21188 0.145196 6.1674 0.103062C6.12292 0.0609279 6.07032 0.0282992 6.01281 0.00716698C5.9553 -0.0139653 5.89409 -0.0231579 5.83291 -0.01985C5.77173 -0.0165421 5.71186 -0.000802929 5.65696 0.026407C5.60207 0.0536169 5.5533 0.0917269 5.51362 0.138412C5.47394 0.185096 5.44418 0.239376 5.42617 0.29794C5.40817 0.356503 5.40227 0.418122 5.40887 0.479035C5.41546 0.539949 5.43441 0.59888 5.46453 0.652232L5.91554 1.55223C5.93975 1.60851 5.97518 1.65927 6.01966 1.7014C6.06415 1.74354 6.11674 1.77617 6.17425 1.7973C6.23176 1.81843 6.29297 1.82762 6.35415 1.82431C6.41533 1.82101 6.4752 1.80527 6.5301 1.77806C6.585 1.75085 6.63378 1.71274 6.67346 1.66605C6.71314 1.61937 6.74288 1.56509 6.76089 1.50652C6.7789 1.44796 6.78479 1.38634 6.77819 1.32543C6.7716 1.26452 6.75265 1.20558 6.72253 1.15223Z" fill="#2C6DF9"/>
<path d="M9.67968 0.0484696C9.57276 -0.00516226 9.44894 -0.0142272 9.33535 0.0232608C9.22176 0.0607488 9.12765 0.141733 9.07366 0.24847L8.62267 1.14847C8.57705 1.25448 8.5738 1.37395 8.61361 1.48228C8.65341 1.59061 8.73325 1.67956 8.83666 1.73081C8.94007 1.78207 9.05917 1.79173 9.16948 1.75781C9.2798 1.72389 9.37293 1.64897 9.42968 1.54847L9.88067 0.64847C9.93261 0.542093 9.94064 0.419556 9.90303 0.307304C9.86543 0.195051 9.78522 0.102086 9.67968 0.0484696Z" fill="#2C6DF9"/>
<path d="M4.96552 2.70703H4.06551C3.95134 2.71465 3.84434 2.76537 3.76617 2.84892C3.68801 2.93248 3.64453 3.04262 3.64453 3.15704C3.64453 3.27145 3.68801 3.38159 3.76617 3.46514C3.84434 3.54869 3.95134 3.59942 4.06551 3.60703H4.96552C5.07968 3.59942 5.18668 3.54869 5.26485 3.46514C5.34301 3.38159 5.38649 3.27145 5.38649 3.15704C5.38649 3.04262 5.34301 2.93248 5.26485 2.84892C5.18668 2.76537 5.07968 2.71465 4.96552 2.70703Z" fill="#2C6DF9"/>
<path d="M2.256 7.25H0.451C0.331388 7.25 0.216674 7.29752 0.132095 7.3821C0.0475164 7.46667 0 7.58139 0 7.701V14.921C0 15.0406 0.0475164 15.1553 0.132095 15.2399C0.216674 15.3245 0.331388 15.372 0.451 15.372H2.256C2.37561 15.372 2.49033 15.3245 2.57491 15.2399C2.65948 15.1553 2.707 15.0406 2.707 14.921V7.701C2.707 7.58139 2.65948 7.46667 2.57491 7.3821C2.49033 7.29752 2.37561 7.25 2.256 7.25Z" fill="#2C6DF9"/>
<path d="M13.5284 8.44638C13.4753 8.10584 13.3001 7.79627 13.0355 7.57545C12.7708 7.35463 12.4349 7.23766 12.0904 7.24638H8.57237C8.87749 6.39022 9.03046 5.48727 9.02437 4.57838C9.01518 4.08527 8.81249 3.61553 8.46002 3.27055C8.10755 2.92556 7.63357 2.73298 7.14037 2.73438H6.76837C6.64876 2.73438 6.53404 2.7819 6.44946 2.86648C6.36488 2.95106 6.31737 3.06577 6.31737 3.18539C6.32404 4.50905 5.91362 5.80118 5.14436 6.87839C4.69799 7.30055 4.17764 7.63683 3.60938 7.87038V14.6414C4.79583 15.1071 6.0569 15.3537 7.33138 15.3694H10.2834C10.5107 15.3808 10.7372 15.3355 10.9427 15.2375C11.1481 15.1395 11.3259 14.992 11.4601 14.8082C11.5944 14.6244 11.6807 14.4101 11.7115 14.1845C11.7423 13.959 11.7164 13.7294 11.6364 13.5164C11.8199 13.466 11.9907 13.3775 12.1377 13.2566C12.2847 13.1357 12.4046 12.9852 12.4895 12.8149C12.5745 12.6446 12.6225 12.4583 12.6306 12.2681C12.6387 12.078 12.6065 11.8883 12.5364 11.7114C12.7588 11.6503 12.9619 11.5335 13.1265 11.3719C13.2912 11.2104 13.4118 11.0095 13.4771 10.7883C13.5424 10.5671 13.5502 10.3329 13.4996 10.1079C13.4491 9.88285 13.342 9.67443 13.1884 9.50238C13.3166 9.36046 13.4131 9.19294 13.4718 9.01089C13.5304 8.82885 13.5497 8.63644 13.5284 8.44638Z" fill="#2C6DF9"/>
</g>
<defs>
<clipPath id="clip0">
<rect width="13.538" height="15.373" fill="white"/>
</clipPath>
</defs>
</svg>
