<svg width="16" height="16" viewBox="0 0 16 16" fill="none" xmlns="http://www.w3.org/2000/svg">
<path d="M14.4531 13.3227C14.7552 13.3227 15 13.0779 15 12.7759V4.28125C15 3.07506 14.0187 2.09375 12.8125 2.09375H12.1016V1.54688C12.1016 1.24484 11.8567 1 11.5547 1C11.2526 1 11.0078 1.24484 11.0078 1.54688V2.09375H8.51953V1.54688C8.51953 1.24484 8.2747 1 7.97266 1C7.67062 1 7.42578 1.24484 7.42578 1.54688V2.09375H4.96484V1.54688C4.96484 1.24484 4.72001 1 4.41797 1C4.11593 1 3.87109 1.24484 3.87109 1.54688V2.09375H3.1875C1.98131 2.09375 1 3.07506 1 4.28125V12.8125C1 14.0187 1.98131 15 3.1875 15H12.8125C14.0187 15 15 14.0187 15 12.8125C15 12.5105 14.7552 12.2656 14.4531 12.2656C14.1511 12.2656 13.9062 12.5105 13.9062 12.8125C13.9062 13.4156 13.4156 13.9062 12.8125 13.9062H3.1875C2.58441 13.9062 2.09375 13.4156 2.09375 12.8125V4.28125C2.09375 3.67816 2.58441 3.1875 3.1875 3.1875H3.87109V3.73438C3.87109 4.03641 4.11593 4.28125 4.41797 4.28125C4.72001 4.28125 4.96484 4.03641 4.96484 3.73438V3.1875H7.42578V3.73438C7.42578 4.03641 7.67062 4.28125 7.97266 4.28125C8.2747 4.28125 8.51953 4.03641 8.51953 3.73438V3.1875H11.0078V3.73438C11.0078 4.03641 11.2526 4.28125 11.5547 4.28125C11.8567 4.28125 12.1016 4.03641 12.1016 3.73438V3.1875H12.8125C13.4156 3.1875 13.9062 3.67816 13.9062 4.28125V12.7759C13.9062 13.0779 14.1511 13.3227 14.4531 13.3227Z" fill="black" stroke="#161C29" stroke-width="0.5"/>
</svg>
