<svg xmlns="http://www.w3.org/2000/svg" width="17" height="17" viewBox="0 0 17 17">
    <g fill="none" fill-rule="evenodd">
        <g>
            <g>
                <g>
                    <path d="M0 0H16.589V16.589H0z" transform="translate(-1058 -1025) translate(314 928) translate(744 97)"/>
                    <path fill="#BABABA" d="M9.265 8.296l3.657-3.656c.27-.27.27-.705 0-.975s-.705-.27-.975 0L8.291 7.322 4.634 3.658c-.27-.27-.705-.27-.974 0-.27.27-.27.705 0 .975l3.656 3.663-3.656 3.657c-.27.27-.27.705 0 .974.131.138.304.208.484.208s.352-.07.49-.2L8.291 9.27l3.656 3.656c.139.138.311.208.491.208s.353-.07.49-.2c.27-.27.27-.706 0-.976L9.266 8.296z" transform="translate(-1058 -1025) translate(314 928) translate(744 97)"/>
                </g>
            </g>
        </g>
    </g>
</svg>
