<svg width="1531" height="974" viewBox="0 0 1531 974" fill="none" xmlns="http://www.w3.org/2000/svg">
<g opacity="0.5">
<path opacity="0.64" d="M1 20.5H141" stroke="#E8ECEF"/>
<path opacity="0.64" d="M21.5 0V140" stroke="#E8ECEF"/>
<path opacity="0.64" d="M41.5 0V140" stroke="#E8ECEF"/>
<path opacity="0.64" d="M61.5 0V140" stroke="#E8ECEF"/>
<path opacity="0.64" d="M81.5 0V140" stroke="#E8ECEF"/>
<path opacity="0.64" d="M101.5 0V140" stroke="#E8ECEF"/>
<path opacity="0.64" d="M121.5 0V140" stroke="#E8ECEF"/>
<path opacity="0.64" d="M1 40.5H141" stroke="#E8ECEF"/>
<path opacity="0.64" d="M1 60.5H141" stroke="#E8ECEF"/>
<path opacity="0.64" d="M1 80.5H141" stroke="#E8ECEF"/>
<path opacity="0.64" d="M1 100.5H141" stroke="#E8ECEF"/>
<path opacity="0.64" d="M1 120.5H141" stroke="#E8ECEF"/>
<path opacity="0.5" d="M140.5 0.5H1.5V139.5H140.5V0.5Z" stroke="#DCE5EB"/>
<path opacity="0.5" d="M1.5 141C2.32843 141 3 140.328 3 139.5C3 138.672 2.32843 138 1.5 138C0.671573 138 0 138.672 0 139.5C0 140.328 0.671573 141 1.5 141Z" fill="#C9D3DC"/>
<path opacity="0.64" d="M140 20.5H280" stroke="#E8ECEF"/>
<path opacity="0.64" d="M160.5 0V140" stroke="#E8ECEF"/>
<path opacity="0.64" d="M180.5 0V140" stroke="#E8ECEF"/>
<path opacity="0.64" d="M200.5 0V140" stroke="#E8ECEF"/>
<path opacity="0.64" d="M220.5 0V140" stroke="#E8ECEF"/>
<path opacity="0.64" d="M240.5 0V140" stroke="#E8ECEF"/>
<path opacity="0.64" d="M260.5 0V140" stroke="#E8ECEF"/>
<path opacity="0.64" d="M140 40.5H280" stroke="#E8ECEF"/>
<path opacity="0.64" d="M140 60.5H280" stroke="#E8ECEF"/>
<path opacity="0.64" d="M140 80.5H280" stroke="#E8ECEF"/>
<path opacity="0.64" d="M140 100.5H280" stroke="#E8ECEF"/>
<path opacity="0.64" d="M140 120.5H280" stroke="#E8ECEF"/>
<path opacity="0.5" d="M279.5 0.5H140.5V139.5H279.5V0.5Z" stroke="#DCE5EB"/>
<path opacity="0.5" d="M140.5 141C141.328 141 142 140.328 142 139.5C142 138.672 141.328 138 140.5 138C139.672 138 139 138.672 139 139.5C139 140.328 139.672 141 140.5 141Z" fill="#C9D3DC"/>
<path opacity="0.64" d="M279 20.5H419" stroke="#E8ECEF"/>
<path opacity="0.64" d="M299.5 0V140" stroke="#E8ECEF"/>
<path opacity="0.64" d="M319.5 0V140" stroke="#E8ECEF"/>
<path opacity="0.64" d="M339.5 0V140" stroke="#E8ECEF"/>
<path opacity="0.64" d="M359.5 0V140" stroke="#E8ECEF"/>
<path opacity="0.64" d="M379.5 0V140" stroke="#E8ECEF"/>
<path opacity="0.64" d="M399.5 0V140" stroke="#E8ECEF"/>
<path opacity="0.64" d="M279 40.5H419" stroke="#E8ECEF"/>
<path opacity="0.64" d="M279 60.5H419" stroke="#E8ECEF"/>
<path opacity="0.64" d="M279 80.5H419" stroke="#E8ECEF"/>
<path opacity="0.64" d="M279 100.5H419" stroke="#E8ECEF"/>
<path opacity="0.64" d="M279 120.5H419" stroke="#E8ECEF"/>
<path opacity="0.5" d="M418.5 0.5H279.5V139.5H418.5V0.5Z" stroke="#DCE5EB"/>
<path opacity="0.5" d="M279.5 141C280.328 141 281 140.328 281 139.5C281 138.672 280.328 138 279.5 138C278.672 138 278 138.672 278 139.5C278 140.328 278.672 141 279.5 141Z" fill="#C9D3DC"/>
<path opacity="0.64" d="M418 20.5H558" stroke="#E8ECEF"/>
<path opacity="0.64" d="M438.5 0V140" stroke="#E8ECEF"/>
<path opacity="0.64" d="M458.5 0V140" stroke="#E8ECEF"/>
<path opacity="0.64" d="M478.5 0V140" stroke="#E8ECEF"/>
<path opacity="0.64" d="M498.5 0V140" stroke="#E8ECEF"/>
<path opacity="0.64" d="M518.5 0V140" stroke="#E8ECEF"/>
<path opacity="0.64" d="M538.5 0V140" stroke="#E8ECEF"/>
<path opacity="0.64" d="M418 40.5H558" stroke="#E8ECEF"/>
<path opacity="0.64" d="M418 60.5H558" stroke="#E8ECEF"/>
<path opacity="0.64" d="M418 80.5H558" stroke="#E8ECEF"/>
<path opacity="0.64" d="M418 100.5H558" stroke="#E8ECEF"/>
<path opacity="0.64" d="M418 120.5H558" stroke="#E8ECEF"/>
<path opacity="0.5" d="M557.5 0.5H418.5V139.5H557.5V0.5Z" stroke="#DCE5EB"/>
<path opacity="0.5" d="M418.5 141C419.328 141 420 140.328 420 139.5C420 138.672 419.328 138 418.5 138C417.672 138 417 138.672 417 139.5C417 140.328 417.672 141 418.5 141Z" fill="#C9D3DC"/>
<path opacity="0.64" d="M557 20.5H697" stroke="#E8ECEF"/>
<path opacity="0.64" d="M577.5 0V140" stroke="#E8ECEF"/>
<path opacity="0.64" d="M597.5 0V140" stroke="#E8ECEF"/>
<path opacity="0.64" d="M617.5 0V140" stroke="#E8ECEF"/>
<path opacity="0.64" d="M637.5 0V140" stroke="#E8ECEF"/>
<path opacity="0.64" d="M657.5 0V140" stroke="#E8ECEF"/>
<path opacity="0.64" d="M677.5 0V140" stroke="#E8ECEF"/>
<path opacity="0.64" d="M557 40.5H697" stroke="#E8ECEF"/>
<path opacity="0.64" d="M557 60.5H697" stroke="#E8ECEF"/>
<path opacity="0.64" d="M557 80.5H697" stroke="#E8ECEF"/>
<path opacity="0.64" d="M557 100.5H697" stroke="#E8ECEF"/>
<path opacity="0.64" d="M557 120.5H697" stroke="#E8ECEF"/>
<path opacity="0.5" d="M696.5 0.5H557.5V139.5H696.5V0.5Z" stroke="#DCE5EB"/>
<path opacity="0.5" d="M557.5 141C558.328 141 559 140.328 559 139.5C559 138.672 558.328 138 557.5 138C556.672 138 556 138.672 556 139.5C556 140.328 556.672 141 557.5 141Z" fill="#C9D3DC"/>
<path opacity="0.64" d="M696 20.5H836" stroke="#E8ECEF"/>
<path opacity="0.64" d="M716.5 0V140" stroke="#E8ECEF"/>
<path opacity="0.64" d="M736.5 0V140" stroke="#E8ECEF"/>
<path opacity="0.64" d="M756.5 0V140" stroke="#E8ECEF"/>
<path opacity="0.64" d="M776.5 0V140" stroke="#E8ECEF"/>
<path opacity="0.64" d="M796.5 0V140" stroke="#E8ECEF"/>
<path opacity="0.64" d="M816.5 0V140" stroke="#E8ECEF"/>
<path opacity="0.64" d="M696 40.5H836" stroke="#E8ECEF"/>
<path opacity="0.64" d="M696 60.5H836" stroke="#E8ECEF"/>
<path opacity="0.64" d="M696 80.5H836" stroke="#E8ECEF"/>
<path opacity="0.64" d="M696 100.5H836" stroke="#E8ECEF"/>
<path opacity="0.64" d="M696 120.5H836" stroke="#E8ECEF"/>
<path opacity="0.5" d="M835.5 0.5H696.5V139.5H835.5V0.5Z" stroke="#DCE5EB"/>
<path opacity="0.5" d="M696.5 141C697.328 141 698 140.328 698 139.5C698 138.672 697.328 138 696.5 138C695.672 138 695 138.672 695 139.5C695 140.328 695.672 141 696.5 141Z" fill="#C9D3DC"/>
<path opacity="0.64" d="M835 20.5H975" stroke="#E8ECEF"/>
<path opacity="0.64" d="M855.5 0V140" stroke="#E8ECEF"/>
<path opacity="0.64" d="M875.5 0V140" stroke="#E8ECEF"/>
<path opacity="0.64" d="M895.5 0V140" stroke="#E8ECEF"/>
<path opacity="0.64" d="M915.5 0V140" stroke="#E8ECEF"/>
<path opacity="0.64" d="M935.5 0V140" stroke="#E8ECEF"/>
<path opacity="0.64" d="M955.5 0V140" stroke="#E8ECEF"/>
<path opacity="0.64" d="M835 40.5H975" stroke="#E8ECEF"/>
<path opacity="0.64" d="M835 60.5H975" stroke="#E8ECEF"/>
<path opacity="0.64" d="M835 80.5H975" stroke="#E8ECEF"/>
<path opacity="0.64" d="M835 100.5H975" stroke="#E8ECEF"/>
<path opacity="0.64" d="M835 120.5H975" stroke="#E8ECEF"/>
<path opacity="0.5" d="M974.5 0.5H835.5V139.5H974.5V0.5Z" stroke="#DCE5EB"/>
<path opacity="0.5" d="M835.5 141C836.328 141 837 140.328 837 139.5C837 138.672 836.328 138 835.5 138C834.672 138 834 138.672 834 139.5C834 140.328 834.672 141 835.5 141Z" fill="#C9D3DC"/>
<path opacity="0.64" d="M974 20.5H1114" stroke="#E8ECEF"/>
<path opacity="0.64" d="M994.5 0V140" stroke="#E8ECEF"/>
<path opacity="0.64" d="M1014.5 0V140" stroke="#E8ECEF"/>
<path opacity="0.64" d="M1034.5 0V140" stroke="#E8ECEF"/>
<path opacity="0.64" d="M1054.5 0V140" stroke="#E8ECEF"/>
<path opacity="0.64" d="M1074.5 0V140" stroke="#E8ECEF"/>
<path opacity="0.64" d="M1094.5 0V140" stroke="#E8ECEF"/>
<path opacity="0.64" d="M974 40.5H1114" stroke="#E8ECEF"/>
<path opacity="0.64" d="M974 60.5H1114" stroke="#E8ECEF"/>
<path opacity="0.64" d="M974 80.5H1114" stroke="#E8ECEF"/>
<path opacity="0.64" d="M974 100.5H1114" stroke="#E8ECEF"/>
<path opacity="0.64" d="M974 120.5H1114" stroke="#E8ECEF"/>
<path opacity="0.5" d="M1113.5 0.5H974.5V139.5H1113.5V0.5Z" stroke="#DCE5EB"/>
<path opacity="0.5" d="M974.5 141C975.328 141 976 140.328 976 139.5C976 138.672 975.328 138 974.5 138C973.672 138 973 138.672 973 139.5C973 140.328 973.672 141 974.5 141Z" fill="#C9D3DC"/>
<path opacity="0.64" d="M1113 20.5H1253" stroke="#E8ECEF"/>
<path opacity="0.64" d="M1133.5 0V140" stroke="#E8ECEF"/>
<path opacity="0.64" d="M1153.5 0V140" stroke="#E8ECEF"/>
<path opacity="0.64" d="M1173.5 0V140" stroke="#E8ECEF"/>
<path opacity="0.64" d="M1193.5 0V140" stroke="#E8ECEF"/>
<path opacity="0.64" d="M1213.5 0V140" stroke="#E8ECEF"/>
<path opacity="0.64" d="M1233.5 0V140" stroke="#E8ECEF"/>
<path opacity="0.64" d="M1113 40.5H1253" stroke="#E8ECEF"/>
<path opacity="0.64" d="M1113 60.5H1253" stroke="#E8ECEF"/>
<path opacity="0.64" d="M1113 80.5H1253" stroke="#E8ECEF"/>
<path opacity="0.64" d="M1113 100.5H1253" stroke="#E8ECEF"/>
<path opacity="0.64" d="M1113 120.5H1253" stroke="#E8ECEF"/>
<path opacity="0.5" d="M1252.5 0.5H1113.5V139.5H1252.5V0.5Z" stroke="#DCE5EB"/>
<path opacity="0.5" d="M1113.5 141C1114.33 141 1115 140.328 1115 139.5C1115 138.672 1114.33 138 1113.5 138C1112.67 138 1112 138.672 1112 139.5C1112 140.328 1112.67 141 1113.5 141Z" fill="#C9D3DC"/>
<path opacity="0.64" d="M1252 20.5H1392" stroke="#E8ECEF"/>
<path opacity="0.64" d="M1272.5 0V140" stroke="#E8ECEF"/>
<path opacity="0.64" d="M1292.5 0V140" stroke="#E8ECEF"/>
<path opacity="0.64" d="M1312.5 0V140" stroke="#E8ECEF"/>
<path opacity="0.64" d="M1332.5 0V140" stroke="#E8ECEF"/>
<path opacity="0.64" d="M1352.5 0V140" stroke="#E8ECEF"/>
<path opacity="0.64" d="M1372.5 0V140" stroke="#E8ECEF"/>
<path opacity="0.64" d="M1252 40.5H1392" stroke="#E8ECEF"/>
<path opacity="0.64" d="M1252 60.5H1392" stroke="#E8ECEF"/>
<path opacity="0.64" d="M1252 80.5H1392" stroke="#E8ECEF"/>
<path opacity="0.64" d="M1252 100.5H1392" stroke="#E8ECEF"/>
<path opacity="0.64" d="M1252 120.5H1392" stroke="#E8ECEF"/>
<path opacity="0.5" d="M1391.5 0.5H1252.5V139.5H1391.5V0.5Z" stroke="#DCE5EB"/>
<path opacity="0.5" d="M1252.5 141C1253.33 141 1254 140.328 1254 139.5C1254 138.672 1253.33 138 1252.5 138C1251.67 138 1251 138.672 1251 139.5C1251 140.328 1251.67 141 1252.5 141Z" fill="#C9D3DC"/>
<path opacity="0.64" d="M1391 20.5H1531" stroke="#E8ECEF"/>
<path opacity="0.64" d="M1411.5 0V140" stroke="#E8ECEF"/>
<path opacity="0.64" d="M1431.5 0V140" stroke="#E8ECEF"/>
<path opacity="0.64" d="M1391 40.5H1531" stroke="#E8ECEF"/>
<path opacity="0.64" d="M1391 60.5H1531" stroke="#E8ECEF"/>
<path opacity="0.64" d="M1391 80.5H1531" stroke="#E8ECEF"/>
<path opacity="0.64" d="M1391 100.5H1531" stroke="#E8ECEF"/>
<path opacity="0.64" d="M1391 120.5H1531" stroke="#E8ECEF"/>
<path opacity="0.5" d="M1530.5 0.5H1391.5V139.5H1530.5V0.5Z" stroke="#DCE5EB"/>
<path opacity="0.5" d="M1391.5 141C1392.33 141 1393 140.328 1393 139.5C1393 138.672 1392.33 138 1391.5 138C1390.67 138 1390 138.672 1390 139.5C1390 140.328 1390.67 141 1391.5 141Z" fill="#C9D3DC"/>
<path opacity="0.64" d="M1 159.5H141" stroke="#E8ECEF"/>
<path opacity="0.64" d="M21.5 139V279" stroke="#E8ECEF"/>
<path opacity="0.64" d="M41.5 139V279" stroke="#E8ECEF"/>
<path opacity="0.64" d="M61.5 139V279" stroke="#E8ECEF"/>
<path opacity="0.64" d="M81.5 139V279" stroke="#E8ECEF"/>
<path opacity="0.64" d="M101.5 139V279" stroke="#E8ECEF"/>
<path opacity="0.64" d="M121.5 139V279" stroke="#E8ECEF"/>
<path opacity="0.64" d="M1 179.5H141" stroke="#E8ECEF"/>
<path opacity="0.64" d="M1 199.5H141" stroke="#E8ECEF"/>
<path opacity="0.64" d="M1 219.5H141" stroke="#E8ECEF"/>
<path opacity="0.64" d="M1 239.5H141" stroke="#E8ECEF"/>
<path opacity="0.64" d="M1 259.5H141" stroke="#E8ECEF"/>
<path opacity="0.5" d="M140.5 139.5H1.5V278.5H140.5V139.5Z" stroke="#DCE5EB"/>
<path opacity="0.5" d="M140.5 141C141.328 141 142 140.328 142 139.5C142 138.672 141.328 138 140.5 138C139.672 138 139 138.672 139 139.5C139 140.328 139.672 141 140.5 141Z" fill="#C9D3DC"/>
<path opacity="0.5" d="M1.5 141C2.32843 141 3 140.328 3 139.5C3 138.672 2.32843 138 1.5 138C0.671573 138 0 138.672 0 139.5C0 140.328 0.671573 141 1.5 141Z" fill="#C9D3DC"/>
<path opacity="0.5" d="M1.5 280C2.32843 280 3 279.328 3 278.5C3 277.672 2.32843 277 1.5 277C0.671573 277 0 277.672 0 278.5C0 279.328 0.671573 280 1.5 280Z" fill="#C9D3DC"/>
<path opacity="0.64" d="M140 159.5H280" stroke="#E8ECEF"/>
<path opacity="0.64" d="M160.5 139V279" stroke="#E8ECEF"/>
<path opacity="0.64" d="M180.5 139V279" stroke="#E8ECEF"/>
<path opacity="0.64" d="M200.5 139V279" stroke="#E8ECEF"/>
<path opacity="0.64" d="M220.5 139V279" stroke="#E8ECEF"/>
<path opacity="0.64" d="M240.5 139V279" stroke="#E8ECEF"/>
<path opacity="0.64" d="M260.5 139V279" stroke="#E8ECEF"/>
<path opacity="0.64" d="M140 179.5H280" stroke="#E8ECEF"/>
<path opacity="0.64" d="M140 199.5H280" stroke="#E8ECEF"/>
<path opacity="0.64" d="M140 219.5H280" stroke="#E8ECEF"/>
<path opacity="0.64" d="M140 239.5H280" stroke="#E8ECEF"/>
<path opacity="0.64" d="M140 259.5H280" stroke="#E8ECEF"/>
<path opacity="0.5" d="M279.5 139.5H140.5V278.5H279.5V139.5Z" stroke="#DCE5EB"/>
<path opacity="0.5" d="M279.5 141C280.328 141 281 140.328 281 139.5C281 138.672 280.328 138 279.5 138C278.672 138 278 138.672 278 139.5C278 140.328 278.672 141 279.5 141Z" fill="#C9D3DC"/>
<path opacity="0.5" d="M140.5 141C141.328 141 142 140.328 142 139.5C142 138.672 141.328 138 140.5 138C139.672 138 139 138.672 139 139.5C139 140.328 139.672 141 140.5 141Z" fill="#C9D3DC"/>
<path opacity="0.5" d="M140.5 280C141.328 280 142 279.328 142 278.5C142 277.672 141.328 277 140.5 277C139.672 277 139 277.672 139 278.5C139 279.328 139.672 280 140.5 280Z" fill="#C9D3DC"/>
<path opacity="0.64" d="M279 159.5H419" stroke="#E8ECEF"/>
<path opacity="0.64" d="M299.5 139V279" stroke="#E8ECEF"/>
<path opacity="0.64" d="M319.5 139V279" stroke="#E8ECEF"/>
<path opacity="0.64" d="M339.5 139V279" stroke="#E8ECEF"/>
<path opacity="0.64" d="M359.5 139V279" stroke="#E8ECEF"/>
<path opacity="0.64" d="M379.5 139V279" stroke="#E8ECEF"/>
<path opacity="0.64" d="M399.5 139V279" stroke="#E8ECEF"/>
<path opacity="0.64" d="M279 179.5H419" stroke="#E8ECEF"/>
<path opacity="0.64" d="M279 199.5H419" stroke="#E8ECEF"/>
<path opacity="0.64" d="M279 219.5H419" stroke="#E8ECEF"/>
<path opacity="0.64" d="M279 239.5H419" stroke="#E8ECEF"/>
<path opacity="0.64" d="M279 259.5H419" stroke="#E8ECEF"/>
<path opacity="0.5" d="M418.5 139.5H279.5V278.5H418.5V139.5Z" stroke="#DCE5EB"/>
<path opacity="0.5" d="M418.5 141C419.328 141 420 140.328 420 139.5C420 138.672 419.328 138 418.5 138C417.672 138 417 138.672 417 139.5C417 140.328 417.672 141 418.5 141Z" fill="#C9D3DC"/>
<path opacity="0.5" d="M279.5 141C280.328 141 281 140.328 281 139.5C281 138.672 280.328 138 279.5 138C278.672 138 278 138.672 278 139.5C278 140.328 278.672 141 279.5 141Z" fill="#C9D3DC"/>
<path opacity="0.5" d="M279.5 280C280.328 280 281 279.328 281 278.5C281 277.672 280.328 277 279.5 277C278.672 277 278 277.672 278 278.5C278 279.328 278.672 280 279.5 280Z" fill="#C9D3DC"/>
<path opacity="0.64" d="M418 159.5H558" stroke="#E8ECEF"/>
<path opacity="0.64" d="M438.5 139V279" stroke="#E8ECEF"/>
<path opacity="0.64" d="M458.5 139V279" stroke="#E8ECEF"/>
<path opacity="0.64" d="M478.5 139V279" stroke="#E8ECEF"/>
<path opacity="0.64" d="M498.5 139V279" stroke="#E8ECEF"/>
<path opacity="0.64" d="M518.5 139V279" stroke="#E8ECEF"/>
<path opacity="0.64" d="M538.5 139V279" stroke="#E8ECEF"/>
<path opacity="0.64" d="M418 179.5H558" stroke="#E8ECEF"/>
<path opacity="0.64" d="M418 199.5H558" stroke="#E8ECEF"/>
<path opacity="0.64" d="M418 219.5H558" stroke="#E8ECEF"/>
<path opacity="0.64" d="M418 239.5H558" stroke="#E8ECEF"/>
<path opacity="0.64" d="M418 259.5H558" stroke="#E8ECEF"/>
<path opacity="0.5" d="M557.5 139.5H418.5V278.5H557.5V139.5Z" stroke="#DCE5EB"/>
<path opacity="0.5" d="M557.5 141C558.328 141 559 140.328 559 139.5C559 138.672 558.328 138 557.5 138C556.672 138 556 138.672 556 139.5C556 140.328 556.672 141 557.5 141Z" fill="#C9D3DC"/>
<path opacity="0.5" d="M418.5 141C419.328 141 420 140.328 420 139.5C420 138.672 419.328 138 418.5 138C417.672 138 417 138.672 417 139.5C417 140.328 417.672 141 418.5 141Z" fill="#C9D3DC"/>
<path opacity="0.5" d="M418.5 280C419.328 280 420 279.328 420 278.5C420 277.672 419.328 277 418.5 277C417.672 277 417 277.672 417 278.5C417 279.328 417.672 280 418.5 280Z" fill="#C9D3DC"/>
<path opacity="0.64" d="M557 159.5H697" stroke="#E8ECEF"/>
<path opacity="0.64" d="M577.5 139V279" stroke="#E8ECEF"/>
<path opacity="0.64" d="M597.5 139V279" stroke="#E8ECEF"/>
<path opacity="0.64" d="M617.5 139V279" stroke="#E8ECEF"/>
<path opacity="0.64" d="M637.5 139V279" stroke="#E8ECEF"/>
<path opacity="0.64" d="M657.5 139V279" stroke="#E8ECEF"/>
<path opacity="0.64" d="M677.5 139V279" stroke="#E8ECEF"/>
<path opacity="0.64" d="M557 179.5H697" stroke="#E8ECEF"/>
<path opacity="0.64" d="M557 199.5H697" stroke="#E8ECEF"/>
<path opacity="0.64" d="M557 219.5H697" stroke="#E8ECEF"/>
<path opacity="0.64" d="M557 239.5H697" stroke="#E8ECEF"/>
<path opacity="0.64" d="M557 259.5H697" stroke="#E8ECEF"/>
<path opacity="0.5" d="M696.5 139.5H557.5V278.5H696.5V139.5Z" stroke="#DCE5EB"/>
<path opacity="0.5" d="M696.5 141C697.328 141 698 140.328 698 139.5C698 138.672 697.328 138 696.5 138C695.672 138 695 138.672 695 139.5C695 140.328 695.672 141 696.5 141Z" fill="#C9D3DC"/>
<path opacity="0.5" d="M557.5 141C558.328 141 559 140.328 559 139.5C559 138.672 558.328 138 557.5 138C556.672 138 556 138.672 556 139.5C556 140.328 556.672 141 557.5 141Z" fill="#C9D3DC"/>
<path opacity="0.5" d="M557.5 280C558.328 280 559 279.328 559 278.5C559 277.672 558.328 277 557.5 277C556.672 277 556 277.672 556 278.5C556 279.328 556.672 280 557.5 280Z" fill="#C9D3DC"/>
<path opacity="0.64" d="M696 159.5H836" stroke="#E8ECEF"/>
<path opacity="0.64" d="M716.5 139V279" stroke="#E8ECEF"/>
<path opacity="0.64" d="M736.5 139V279" stroke="#E8ECEF"/>
<path opacity="0.64" d="M756.5 139V279" stroke="#E8ECEF"/>
<path opacity="0.64" d="M776.5 139V279" stroke="#E8ECEF"/>
<path opacity="0.64" d="M796.5 139V279" stroke="#E8ECEF"/>
<path opacity="0.64" d="M816.5 139V279" stroke="#E8ECEF"/>
<path opacity="0.64" d="M696 179.5H836" stroke="#E8ECEF"/>
<path opacity="0.64" d="M696 199.5H836" stroke="#E8ECEF"/>
<path opacity="0.64" d="M696 219.5H836" stroke="#E8ECEF"/>
<path opacity="0.64" d="M696 239.5H836" stroke="#E8ECEF"/>
<path opacity="0.64" d="M696 259.5H836" stroke="#E8ECEF"/>
<path opacity="0.5" d="M835.5 139.5H696.5V278.5H835.5V139.5Z" stroke="#DCE5EB"/>
<path opacity="0.5" d="M835.5 141C836.328 141 837 140.328 837 139.5C837 138.672 836.328 138 835.5 138C834.672 138 834 138.672 834 139.5C834 140.328 834.672 141 835.5 141Z" fill="#C9D3DC"/>
<path opacity="0.5" d="M696.5 141C697.328 141 698 140.328 698 139.5C698 138.672 697.328 138 696.5 138C695.672 138 695 138.672 695 139.5C695 140.328 695.672 141 696.5 141Z" fill="#C9D3DC"/>
<path opacity="0.5" d="M696.5 280C697.328 280 698 279.328 698 278.5C698 277.672 697.328 277 696.5 277C695.672 277 695 277.672 695 278.5C695 279.328 695.672 280 696.5 280Z" fill="#C9D3DC"/>
<path opacity="0.64" d="M835 159.5H975" stroke="#E8ECEF"/>
<path opacity="0.64" d="M855.5 139V279" stroke="#E8ECEF"/>
<path opacity="0.64" d="M875.5 139V279" stroke="#E8ECEF"/>
<path opacity="0.64" d="M895.5 139V279" stroke="#E8ECEF"/>
<path opacity="0.64" d="M915.5 139V279" stroke="#E8ECEF"/>
<path opacity="0.64" d="M935.5 139V279" stroke="#E8ECEF"/>
<path opacity="0.64" d="M955.5 139V279" stroke="#E8ECEF"/>
<path opacity="0.64" d="M835 179.5H975" stroke="#E8ECEF"/>
<path opacity="0.64" d="M835 199.5H975" stroke="#E8ECEF"/>
<path opacity="0.64" d="M835 219.5H975" stroke="#E8ECEF"/>
<path opacity="0.64" d="M835 239.5H975" stroke="#E8ECEF"/>
<path opacity="0.64" d="M835 259.5H975" stroke="#E8ECEF"/>
<path opacity="0.5" d="M974.5 139.5H835.5V278.5H974.5V139.5Z" stroke="#DCE5EB"/>
<path opacity="0.5" d="M974.5 141C975.328 141 976 140.328 976 139.5C976 138.672 975.328 138 974.5 138C973.672 138 973 138.672 973 139.5C973 140.328 973.672 141 974.5 141Z" fill="#C9D3DC"/>
<path opacity="0.5" d="M835.5 141C836.328 141 837 140.328 837 139.5C837 138.672 836.328 138 835.5 138C834.672 138 834 138.672 834 139.5C834 140.328 834.672 141 835.5 141Z" fill="#C9D3DC"/>
<path opacity="0.5" d="M835.5 280C836.328 280 837 279.328 837 278.5C837 277.672 836.328 277 835.5 277C834.672 277 834 277.672 834 278.5C834 279.328 834.672 280 835.5 280Z" fill="#C9D3DC"/>
<path opacity="0.64" d="M974 159.5H1114" stroke="#E8ECEF"/>
<path opacity="0.64" d="M994.5 139V279" stroke="#E8ECEF"/>
<path opacity="0.64" d="M1014.5 139V279" stroke="#E8ECEF"/>
<path opacity="0.64" d="M1034.5 139V279" stroke="#E8ECEF"/>
<path opacity="0.64" d="M1054.5 139V279" stroke="#E8ECEF"/>
<path opacity="0.64" d="M1074.5 139V279" stroke="#E8ECEF"/>
<path opacity="0.64" d="M1094.5 139V279" stroke="#E8ECEF"/>
<path opacity="0.64" d="M974 179.5H1114" stroke="#E8ECEF"/>
<path opacity="0.64" d="M974 199.5H1114" stroke="#E8ECEF"/>
<path opacity="0.64" d="M974 219.5H1114" stroke="#E8ECEF"/>
<path opacity="0.64" d="M974 239.5H1114" stroke="#E8ECEF"/>
<path opacity="0.64" d="M974 259.5H1114" stroke="#E8ECEF"/>
<path opacity="0.5" d="M1113.5 139.5H974.5V278.5H1113.5V139.5Z" stroke="#DCE5EB"/>
<path opacity="0.5" d="M1113.5 141C1114.33 141 1115 140.328 1115 139.5C1115 138.672 1114.33 138 1113.5 138C1112.67 138 1112 138.672 1112 139.5C1112 140.328 1112.67 141 1113.5 141Z" fill="#C9D3DC"/>
<path opacity="0.5" d="M974.5 141C975.328 141 976 140.328 976 139.5C976 138.672 975.328 138 974.5 138C973.672 138 973 138.672 973 139.5C973 140.328 973.672 141 974.5 141Z" fill="#C9D3DC"/>
<path opacity="0.5" d="M974.5 280C975.328 280 976 279.328 976 278.5C976 277.672 975.328 277 974.5 277C973.672 277 973 277.672 973 278.5C973 279.328 973.672 280 974.5 280Z" fill="#C9D3DC"/>
<path opacity="0.64" d="M1113 159.5H1253" stroke="#E8ECEF"/>
<path opacity="0.64" d="M1133.5 139V279" stroke="#E8ECEF"/>
<path opacity="0.64" d="M1153.5 139V279" stroke="#E8ECEF"/>
<path opacity="0.64" d="M1173.5 139V279" stroke="#E8ECEF"/>
<path opacity="0.64" d="M1193.5 139V279" stroke="#E8ECEF"/>
<path opacity="0.64" d="M1213.5 139V279" stroke="#E8ECEF"/>
<path opacity="0.64" d="M1233.5 139V279" stroke="#E8ECEF"/>
<path opacity="0.64" d="M1113 179.5H1253" stroke="#E8ECEF"/>
<path opacity="0.64" d="M1113 199.5H1253" stroke="#E8ECEF"/>
<path opacity="0.64" d="M1113 219.5H1253" stroke="#E8ECEF"/>
<path opacity="0.64" d="M1113 239.5H1253" stroke="#E8ECEF"/>
<path opacity="0.64" d="M1113 259.5H1253" stroke="#E8ECEF"/>
<path opacity="0.5" d="M1252.5 139.5H1113.5V278.5H1252.5V139.5Z" stroke="#DCE5EB"/>
<path opacity="0.5" d="M1252.5 141C1253.33 141 1254 140.328 1254 139.5C1254 138.672 1253.33 138 1252.5 138C1251.67 138 1251 138.672 1251 139.5C1251 140.328 1251.67 141 1252.5 141Z" fill="#C9D3DC"/>
<path opacity="0.5" d="M1113.5 141C1114.33 141 1115 140.328 1115 139.5C1115 138.672 1114.33 138 1113.5 138C1112.67 138 1112 138.672 1112 139.5C1112 140.328 1112.67 141 1113.5 141Z" fill="#C9D3DC"/>
<path opacity="0.5" d="M1113.5 280C1114.33 280 1115 279.328 1115 278.5C1115 277.672 1114.33 277 1113.5 277C1112.67 277 1112 277.672 1112 278.5C1112 279.328 1112.67 280 1113.5 280Z" fill="#C9D3DC"/>
<path opacity="0.64" d="M1252 159.5H1392" stroke="#E8ECEF"/>
<path opacity="0.64" d="M1272.5 139V279" stroke="#E8ECEF"/>
<path opacity="0.64" d="M1292.5 139V279" stroke="#E8ECEF"/>
<path opacity="0.64" d="M1312.5 139V279" stroke="#E8ECEF"/>
<path opacity="0.64" d="M1332.5 139V279" stroke="#E8ECEF"/>
<path opacity="0.64" d="M1352.5 139V279" stroke="#E8ECEF"/>
<path opacity="0.64" d="M1372.5 139V279" stroke="#E8ECEF"/>
<path opacity="0.64" d="M1252 179.5H1392" stroke="#E8ECEF"/>
<path opacity="0.64" d="M1252 199.5H1392" stroke="#E8ECEF"/>
<path opacity="0.64" d="M1252 219.5H1392" stroke="#E8ECEF"/>
<path opacity="0.64" d="M1252 239.5H1392" stroke="#E8ECEF"/>
<path opacity="0.64" d="M1252 259.5H1392" stroke="#E8ECEF"/>
<path opacity="0.5" d="M1391.5 139.5H1252.5V278.5H1391.5V139.5Z" stroke="#DCE5EB"/>
<path opacity="0.5" d="M1391.5 141C1392.33 141 1393 140.328 1393 139.5C1393 138.672 1392.33 138 1391.5 138C1390.67 138 1390 138.672 1390 139.5C1390 140.328 1390.67 141 1391.5 141Z" fill="#C9D3DC"/>
<path opacity="0.5" d="M1252.5 141C1253.33 141 1254 140.328 1254 139.5C1254 138.672 1253.33 138 1252.5 138C1251.67 138 1251 138.672 1251 139.5C1251 140.328 1251.67 141 1252.5 141Z" fill="#C9D3DC"/>
<path opacity="0.5" d="M1252.5 280C1253.33 280 1254 279.328 1254 278.5C1254 277.672 1253.33 277 1252.5 277C1251.67 277 1251 277.672 1251 278.5C1251 279.328 1251.67 280 1252.5 280Z" fill="#C9D3DC"/>
<path opacity="0.64" d="M1391 159.5H1531" stroke="#E8ECEF"/>
<path opacity="0.64" d="M1411.5 139V279" stroke="#E8ECEF"/>
<path opacity="0.64" d="M1431.5 139V279" stroke="#E8ECEF"/>
<path opacity="0.64" d="M1391 179.5H1531" stroke="#E8ECEF"/>
<path opacity="0.64" d="M1391 199.5H1531" stroke="#E8ECEF"/>
<path opacity="0.64" d="M1391 219.5H1531" stroke="#E8ECEF"/>
<path opacity="0.64" d="M1391 239.5H1531" stroke="#E8ECEF"/>
<path opacity="0.64" d="M1391 259.5H1531" stroke="#E8ECEF"/>
<path opacity="0.5" d="M1530.5 139.5H1391.5V278.5H1530.5V139.5Z" stroke="#DCE5EB"/>
<path opacity="0.5" d="M1391.5 141C1392.33 141 1393 140.328 1393 139.5C1393 138.672 1392.33 138 1391.5 138C1390.67 138 1390 138.672 1390 139.5C1390 140.328 1390.67 141 1391.5 141Z" fill="#C9D3DC"/>
<path opacity="0.5" d="M1391.5 280C1392.33 280 1393 279.328 1393 278.5C1393 277.672 1392.33 277 1391.5 277C1390.67 277 1390 277.672 1390 278.5C1390 279.328 1390.67 280 1391.5 280Z" fill="#C9D3DC"/>
<path opacity="0.64" d="M1 298.5H141" stroke="#E8ECEF"/>
<path opacity="0.64" d="M21.5 278V418" stroke="#E8ECEF"/>
<path opacity="0.64" d="M41.5 278V418" stroke="#E8ECEF"/>
<path opacity="0.64" d="M61.5 278V418" stroke="#E8ECEF"/>
<path opacity="0.64" d="M81.5 278V418" stroke="#E8ECEF"/>
<path opacity="0.64" d="M101.5 278V418" stroke="#E8ECEF"/>
<path opacity="0.64" d="M121.5 278V418" stroke="#E8ECEF"/>
<path opacity="0.64" d="M1 318.5H141" stroke="#E8ECEF"/>
<path opacity="0.64" d="M1 338.5H141" stroke="#E8ECEF"/>
<path opacity="0.64" d="M1 358.5H141" stroke="#E8ECEF"/>
<path opacity="0.64" d="M1 378.5H141" stroke="#E8ECEF"/>
<path opacity="0.64" d="M1 398.5H141" stroke="#E8ECEF"/>
<path opacity="0.5" d="M140.5 278.5H1.5V417.5H140.5V278.5Z" stroke="#DCE5EB"/>
<path opacity="0.5" d="M140.5 280C141.328 280 142 279.328 142 278.5C142 277.672 141.328 277 140.5 277C139.672 277 139 277.672 139 278.5C139 279.328 139.672 280 140.5 280Z" fill="#C9D3DC"/>
<path opacity="0.5" d="M1.5 280C2.32843 280 3 279.328 3 278.5C3 277.672 2.32843 277 1.5 277C0.671573 277 0 277.672 0 278.5C0 279.328 0.671573 280 1.5 280Z" fill="#C9D3DC"/>
<path opacity="0.5" d="M1.5 419C2.32843 419 3 418.328 3 417.5C3 416.672 2.32843 416 1.5 416C0.671573 416 0 416.672 0 417.5C0 418.328 0.671573 419 1.5 419Z" fill="#C9D3DC"/>
<path opacity="0.64" d="M140 298.5H280" stroke="#E8ECEF"/>
<path opacity="0.64" d="M160.5 278V418" stroke="#E8ECEF"/>
<path opacity="0.64" d="M180.5 278V418" stroke="#E8ECEF"/>
<path opacity="0.64" d="M200.5 278V418" stroke="#E8ECEF"/>
<path opacity="0.64" d="M220.5 278V418" stroke="#E8ECEF"/>
<path opacity="0.64" d="M240.5 278V418" stroke="#E8ECEF"/>
<path opacity="0.64" d="M260.5 278V418" stroke="#E8ECEF"/>
<path opacity="0.64" d="M140 318.5H280" stroke="#E8ECEF"/>
<path opacity="0.64" d="M140 338.5H280" stroke="#E8ECEF"/>
<path opacity="0.64" d="M140 358.5H280" stroke="#E8ECEF"/>
<path opacity="0.64" d="M140 378.5H280" stroke="#E8ECEF"/>
<path opacity="0.64" d="M140 398.5H280" stroke="#E8ECEF"/>
<path opacity="0.5" d="M279.5 278.5H140.5V417.5H279.5V278.5Z" stroke="#DCE5EB"/>
<path opacity="0.5" d="M279.5 280C280.328 280 281 279.328 281 278.5C281 277.672 280.328 277 279.5 277C278.672 277 278 277.672 278 278.5C278 279.328 278.672 280 279.5 280Z" fill="#C9D3DC"/>
<path opacity="0.5" d="M140.5 280C141.328 280 142 279.328 142 278.5C142 277.672 141.328 277 140.5 277C139.672 277 139 277.672 139 278.5C139 279.328 139.672 280 140.5 280Z" fill="#C9D3DC"/>
<path opacity="0.5" d="M140.5 419C141.328 419 142 418.328 142 417.5C142 416.672 141.328 416 140.5 416C139.672 416 139 416.672 139 417.5C139 418.328 139.672 419 140.5 419Z" fill="#C9D3DC"/>
<path opacity="0.64" d="M279 298.5H419" stroke="#E8ECEF"/>
<path opacity="0.64" d="M299.5 278V418" stroke="#E8ECEF"/>
<path opacity="0.64" d="M319.5 278V418" stroke="#E8ECEF"/>
<path opacity="0.64" d="M339.5 278V418" stroke="#E8ECEF"/>
<path opacity="0.64" d="M359.5 278V418" stroke="#E8ECEF"/>
<path opacity="0.64" d="M379.5 278V418" stroke="#E8ECEF"/>
<path opacity="0.64" d="M399.5 278V418" stroke="#E8ECEF"/>
<path opacity="0.64" d="M279 318.5H419" stroke="#E8ECEF"/>
<path opacity="0.64" d="M279 338.5H419" stroke="#E8ECEF"/>
<path opacity="0.64" d="M279 358.5H419" stroke="#E8ECEF"/>
<path opacity="0.64" d="M279 378.5H419" stroke="#E8ECEF"/>
<path opacity="0.64" d="M279 398.5H419" stroke="#E8ECEF"/>
<path opacity="0.5" d="M418.5 278.5H279.5V417.5H418.5V278.5Z" stroke="#DCE5EB"/>
<path opacity="0.5" d="M418.5 280C419.328 280 420 279.328 420 278.5C420 277.672 419.328 277 418.5 277C417.672 277 417 277.672 417 278.5C417 279.328 417.672 280 418.5 280Z" fill="#C9D3DC"/>
<path opacity="0.5" d="M279.5 280C280.328 280 281 279.328 281 278.5C281 277.672 280.328 277 279.5 277C278.672 277 278 277.672 278 278.5C278 279.328 278.672 280 279.5 280Z" fill="#C9D3DC"/>
<path opacity="0.5" d="M279.5 419C280.328 419 281 418.328 281 417.5C281 416.672 280.328 416 279.5 416C278.672 416 278 416.672 278 417.5C278 418.328 278.672 419 279.5 419Z" fill="#C9D3DC"/>
<path opacity="0.64" d="M418 298.5H558" stroke="#E8ECEF"/>
<path opacity="0.64" d="M438.5 278V418" stroke="#E8ECEF"/>
<path opacity="0.64" d="M458.5 278V418" stroke="#E8ECEF"/>
<path opacity="0.64" d="M478.5 278V418" stroke="#E8ECEF"/>
<path opacity="0.64" d="M498.5 278V418" stroke="#E8ECEF"/>
<path opacity="0.64" d="M518.5 278V418" stroke="#E8ECEF"/>
<path opacity="0.64" d="M538.5 278V418" stroke="#E8ECEF"/>
<path opacity="0.64" d="M418 318.5H558" stroke="#E8ECEF"/>
<path opacity="0.64" d="M418 338.5H558" stroke="#E8ECEF"/>
<path opacity="0.64" d="M418 358.5H558" stroke="#E8ECEF"/>
<path opacity="0.64" d="M418 378.5H558" stroke="#E8ECEF"/>
<path opacity="0.64" d="M418 398.5H558" stroke="#E8ECEF"/>
<path opacity="0.5" d="M557.5 278.5H418.5V417.5H557.5V278.5Z" stroke="#DCE5EB"/>
<path opacity="0.5" d="M557.5 280C558.328 280 559 279.328 559 278.5C559 277.672 558.328 277 557.5 277C556.672 277 556 277.672 556 278.5C556 279.328 556.672 280 557.5 280Z" fill="#C9D3DC"/>
<path opacity="0.5" d="M418.5 280C419.328 280 420 279.328 420 278.5C420 277.672 419.328 277 418.5 277C417.672 277 417 277.672 417 278.5C417 279.328 417.672 280 418.5 280Z" fill="#C9D3DC"/>
<path opacity="0.5" d="M418.5 419C419.328 419 420 418.328 420 417.5C420 416.672 419.328 416 418.5 416C417.672 416 417 416.672 417 417.5C417 418.328 417.672 419 418.5 419Z" fill="#C9D3DC"/>
<path opacity="0.64" d="M557 298.5H697" stroke="#E8ECEF"/>
<path opacity="0.64" d="M577.5 278V418" stroke="#E8ECEF"/>
<path opacity="0.64" d="M597.5 278V418" stroke="#E8ECEF"/>
<path opacity="0.64" d="M617.5 278V418" stroke="#E8ECEF"/>
<path opacity="0.64" d="M637.5 278V418" stroke="#E8ECEF"/>
<path opacity="0.64" d="M657.5 278V418" stroke="#E8ECEF"/>
<path opacity="0.64" d="M677.5 278V418" stroke="#E8ECEF"/>
<path opacity="0.64" d="M557 318.5H697" stroke="#E8ECEF"/>
<path opacity="0.64" d="M557 338.5H697" stroke="#E8ECEF"/>
<path opacity="0.64" d="M557 358.5H697" stroke="#E8ECEF"/>
<path opacity="0.64" d="M557 378.5H697" stroke="#E8ECEF"/>
<path opacity="0.64" d="M557 398.5H697" stroke="#E8ECEF"/>
<path opacity="0.5" d="M696.5 278.5H557.5V417.5H696.5V278.5Z" stroke="#DCE5EB"/>
<path opacity="0.5" d="M696.5 280C697.328 280 698 279.328 698 278.5C698 277.672 697.328 277 696.5 277C695.672 277 695 277.672 695 278.5C695 279.328 695.672 280 696.5 280Z" fill="#C9D3DC"/>
<path opacity="0.5" d="M557.5 280C558.328 280 559 279.328 559 278.5C559 277.672 558.328 277 557.5 277C556.672 277 556 277.672 556 278.5C556 279.328 556.672 280 557.5 280Z" fill="#C9D3DC"/>
<path opacity="0.5" d="M557.5 419C558.328 419 559 418.328 559 417.5C559 416.672 558.328 416 557.5 416C556.672 416 556 416.672 556 417.5C556 418.328 556.672 419 557.5 419Z" fill="#C9D3DC"/>
<path opacity="0.64" d="M696 298.5H836" stroke="#E8ECEF"/>
<path opacity="0.64" d="M716.5 278V418" stroke="#E8ECEF"/>
<path opacity="0.64" d="M736.5 278V418" stroke="#E8ECEF"/>
<path opacity="0.64" d="M756.5 278V418" stroke="#E8ECEF"/>
<path opacity="0.64" d="M776.5 278V418" stroke="#E8ECEF"/>
<path opacity="0.64" d="M796.5 278V418" stroke="#E8ECEF"/>
<path opacity="0.64" d="M816.5 278V418" stroke="#E8ECEF"/>
<path opacity="0.64" d="M696 318.5H836" stroke="#E8ECEF"/>
<path opacity="0.64" d="M696 338.5H836" stroke="#E8ECEF"/>
<path opacity="0.64" d="M696 358.5H836" stroke="#E8ECEF"/>
<path opacity="0.64" d="M696 378.5H836" stroke="#E8ECEF"/>
<path opacity="0.64" d="M696 398.5H836" stroke="#E8ECEF"/>
<path opacity="0.5" d="M835.5 278.5H696.5V417.5H835.5V278.5Z" stroke="#DCE5EB"/>
<path opacity="0.5" d="M835.5 280C836.328 280 837 279.328 837 278.5C837 277.672 836.328 277 835.5 277C834.672 277 834 277.672 834 278.5C834 279.328 834.672 280 835.5 280Z" fill="#C9D3DC"/>
<path opacity="0.5" d="M696.5 280C697.328 280 698 279.328 698 278.5C698 277.672 697.328 277 696.5 277C695.672 277 695 277.672 695 278.5C695 279.328 695.672 280 696.5 280Z" fill="#C9D3DC"/>
<path opacity="0.5" d="M696.5 419C697.328 419 698 418.328 698 417.5C698 416.672 697.328 416 696.5 416C695.672 416 695 416.672 695 417.5C695 418.328 695.672 419 696.5 419Z" fill="#C9D3DC"/>
<path opacity="0.64" d="M835 298.5H975" stroke="#E8ECEF"/>
<path opacity="0.64" d="M855.5 278V418" stroke="#E8ECEF"/>
<path opacity="0.64" d="M875.5 278V418" stroke="#E8ECEF"/>
<path opacity="0.64" d="M895.5 278V418" stroke="#E8ECEF"/>
<path opacity="0.64" d="M915.5 278V418" stroke="#E8ECEF"/>
<path opacity="0.64" d="M935.5 278V418" stroke="#E8ECEF"/>
<path opacity="0.64" d="M955.5 278V418" stroke="#E8ECEF"/>
<path opacity="0.64" d="M835 318.5H975" stroke="#E8ECEF"/>
<path opacity="0.64" d="M835 338.5H975" stroke="#E8ECEF"/>
<path opacity="0.64" d="M835 358.5H975" stroke="#E8ECEF"/>
<path opacity="0.64" d="M835 378.5H975" stroke="#E8ECEF"/>
<path opacity="0.64" d="M835 398.5H975" stroke="#E8ECEF"/>
<path opacity="0.5" d="M974.5 278.5H835.5V417.5H974.5V278.5Z" stroke="#DCE5EB"/>
<path opacity="0.5" d="M974.5 280C975.328 280 976 279.328 976 278.5C976 277.672 975.328 277 974.5 277C973.672 277 973 277.672 973 278.5C973 279.328 973.672 280 974.5 280Z" fill="#C9D3DC"/>
<path opacity="0.5" d="M835.5 280C836.328 280 837 279.328 837 278.5C837 277.672 836.328 277 835.5 277C834.672 277 834 277.672 834 278.5C834 279.328 834.672 280 835.5 280Z" fill="#C9D3DC"/>
<path opacity="0.5" d="M835.5 419C836.328 419 837 418.328 837 417.5C837 416.672 836.328 416 835.5 416C834.672 416 834 416.672 834 417.5C834 418.328 834.672 419 835.5 419Z" fill="#C9D3DC"/>
<path opacity="0.64" d="M974 298.5H1114" stroke="#E8ECEF"/>
<path opacity="0.64" d="M994.5 278V418" stroke="#E8ECEF"/>
<path opacity="0.64" d="M1014.5 278V418" stroke="#E8ECEF"/>
<path opacity="0.64" d="M1034.5 278V418" stroke="#E8ECEF"/>
<path opacity="0.64" d="M1054.5 278V418" stroke="#E8ECEF"/>
<path opacity="0.64" d="M1074.5 278V418" stroke="#E8ECEF"/>
<path opacity="0.64" d="M1094.5 278V418" stroke="#E8ECEF"/>
<path opacity="0.64" d="M974 318.5H1114" stroke="#E8ECEF"/>
<path opacity="0.64" d="M974 338.5H1114" stroke="#E8ECEF"/>
<path opacity="0.64" d="M974 358.5H1114" stroke="#E8ECEF"/>
<path opacity="0.64" d="M974 378.5H1114" stroke="#E8ECEF"/>
<path opacity="0.64" d="M974 398.5H1114" stroke="#E8ECEF"/>
<path opacity="0.5" d="M1113.5 278.5H974.5V417.5H1113.5V278.5Z" stroke="#DCE5EB"/>
<path opacity="0.5" d="M1113.5 280C1114.33 280 1115 279.328 1115 278.5C1115 277.672 1114.33 277 1113.5 277C1112.67 277 1112 277.672 1112 278.5C1112 279.328 1112.67 280 1113.5 280Z" fill="#C9D3DC"/>
<path opacity="0.5" d="M974.5 280C975.328 280 976 279.328 976 278.5C976 277.672 975.328 277 974.5 277C973.672 277 973 277.672 973 278.5C973 279.328 973.672 280 974.5 280Z" fill="#C9D3DC"/>
<path opacity="0.5" d="M974.5 419C975.328 419 976 418.328 976 417.5C976 416.672 975.328 416 974.5 416C973.672 416 973 416.672 973 417.5C973 418.328 973.672 419 974.5 419Z" fill="#C9D3DC"/>
<path opacity="0.64" d="M1113 298.5H1253" stroke="#E8ECEF"/>
<path opacity="0.64" d="M1133.5 278V418" stroke="#E8ECEF"/>
<path opacity="0.64" d="M1153.5 278V418" stroke="#E8ECEF"/>
<path opacity="0.64" d="M1173.5 278V418" stroke="#E8ECEF"/>
<path opacity="0.64" d="M1193.5 278V418" stroke="#E8ECEF"/>
<path opacity="0.64" d="M1213.5 278V418" stroke="#E8ECEF"/>
<path opacity="0.64" d="M1233.5 278V418" stroke="#E8ECEF"/>
<path opacity="0.64" d="M1113 318.5H1253" stroke="#E8ECEF"/>
<path opacity="0.64" d="M1113 338.5H1253" stroke="#E8ECEF"/>
<path opacity="0.64" d="M1113 358.5H1253" stroke="#E8ECEF"/>
<path opacity="0.64" d="M1113 378.5H1253" stroke="#E8ECEF"/>
<path opacity="0.64" d="M1113 398.5H1253" stroke="#E8ECEF"/>
<path opacity="0.5" d="M1252.5 278.5H1113.5V417.5H1252.5V278.5Z" stroke="#DCE5EB"/>
<path opacity="0.5" d="M1252.5 280C1253.33 280 1254 279.328 1254 278.5C1254 277.672 1253.33 277 1252.5 277C1251.67 277 1251 277.672 1251 278.5C1251 279.328 1251.67 280 1252.5 280Z" fill="#C9D3DC"/>
<path opacity="0.5" d="M1113.5 280C1114.33 280 1115 279.328 1115 278.5C1115 277.672 1114.33 277 1113.5 277C1112.67 277 1112 277.672 1112 278.5C1112 279.328 1112.67 280 1113.5 280Z" fill="#C9D3DC"/>
<path opacity="0.5" d="M1113.5 419C1114.33 419 1115 418.328 1115 417.5C1115 416.672 1114.33 416 1113.5 416C1112.67 416 1112 416.672 1112 417.5C1112 418.328 1112.67 419 1113.5 419Z" fill="#C9D3DC"/>
<path opacity="0.64" d="M1252 298.5H1392" stroke="#E8ECEF"/>
<path opacity="0.64" d="M1272.5 278V418" stroke="#E8ECEF"/>
<path opacity="0.64" d="M1292.5 278V418" stroke="#E8ECEF"/>
<path opacity="0.64" d="M1312.5 278V418" stroke="#E8ECEF"/>
<path opacity="0.64" d="M1332.5 278V418" stroke="#E8ECEF"/>
<path opacity="0.64" d="M1352.5 278V418" stroke="#E8ECEF"/>
<path opacity="0.64" d="M1372.5 278V418" stroke="#E8ECEF"/>
<path opacity="0.64" d="M1252 318.5H1392" stroke="#E8ECEF"/>
<path opacity="0.64" d="M1252 338.5H1392" stroke="#E8ECEF"/>
<path opacity="0.64" d="M1252 358.5H1392" stroke="#E8ECEF"/>
<path opacity="0.64" d="M1252 378.5H1392" stroke="#E8ECEF"/>
<path opacity="0.64" d="M1252 398.5H1392" stroke="#E8ECEF"/>
<path opacity="0.5" d="M1391.5 278.5H1252.5V417.5H1391.5V278.5Z" stroke="#DCE5EB"/>
<path opacity="0.5" d="M1391.5 280C1392.33 280 1393 279.328 1393 278.5C1393 277.672 1392.33 277 1391.5 277C1390.67 277 1390 277.672 1390 278.5C1390 279.328 1390.67 280 1391.5 280Z" fill="#C9D3DC"/>
<path opacity="0.5" d="M1252.5 280C1253.33 280 1254 279.328 1254 278.5C1254 277.672 1253.33 277 1252.5 277C1251.67 277 1251 277.672 1251 278.5C1251 279.328 1251.67 280 1252.5 280Z" fill="#C9D3DC"/>
<path opacity="0.5" d="M1252.5 419C1253.33 419 1254 418.328 1254 417.5C1254 416.672 1253.33 416 1252.5 416C1251.67 416 1251 416.672 1251 417.5C1251 418.328 1251.67 419 1252.5 419Z" fill="#C9D3DC"/>
<path opacity="0.64" d="M1391 298.5H1531" stroke="#E8ECEF"/>
<path opacity="0.64" d="M1411.5 278V418" stroke="#E8ECEF"/>
<path opacity="0.64" d="M1431.5 278V418" stroke="#E8ECEF"/>
<path opacity="0.64" d="M1391 318.5H1531" stroke="#E8ECEF"/>
<path opacity="0.64" d="M1391 338.5H1531" stroke="#E8ECEF"/>
<path opacity="0.64" d="M1391 358.5H1531" stroke="#E8ECEF"/>
<path opacity="0.64" d="M1391 378.5H1531" stroke="#E8ECEF"/>
<path opacity="0.64" d="M1391 398.5H1531" stroke="#E8ECEF"/>
<path opacity="0.5" d="M1530.5 278.5H1391.5V417.5H1530.5V278.5Z" stroke="#DCE5EB"/>
<path opacity="0.5" d="M1391.5 280C1392.33 280 1393 279.328 1393 278.5C1393 277.672 1392.33 277 1391.5 277C1390.67 277 1390 277.672 1390 278.5C1390 279.328 1390.67 280 1391.5 280Z" fill="#C9D3DC"/>
<path opacity="0.5" d="M1391.5 419C1392.33 419 1393 418.328 1393 417.5C1393 416.672 1392.33 416 1391.5 416C1390.67 416 1390 416.672 1390 417.5C1390 418.328 1390.67 419 1391.5 419Z" fill="#C9D3DC"/>
<path opacity="0.64" d="M1 437.5H141" stroke="#E8ECEF"/>
<path opacity="0.64" d="M21.5 417V557" stroke="#E8ECEF"/>
<path opacity="0.64" d="M41.5 417V557" stroke="#E8ECEF"/>
<path opacity="0.64" d="M61.5 417V557" stroke="#E8ECEF"/>
<path opacity="0.64" d="M81.5 417V557" stroke="#E8ECEF"/>
<path opacity="0.64" d="M101.5 417V557" stroke="#E8ECEF"/>
<path opacity="0.64" d="M121.5 417V557" stroke="#E8ECEF"/>
<path opacity="0.64" d="M1 457.5H141" stroke="#E8ECEF"/>
<path opacity="0.64" d="M1 477.5H141" stroke="#E8ECEF"/>
<path opacity="0.64" d="M1 497.5H141" stroke="#E8ECEF"/>
<path opacity="0.64" d="M1 517.5H141" stroke="#E8ECEF"/>
<path opacity="0.64" d="M1 537.5H141" stroke="#E8ECEF"/>
<path opacity="0.5" d="M140.5 417.5H1.5V556.5H140.5V417.5Z" stroke="#DCE5EB"/>
<path opacity="0.5" d="M140.5 419C141.328 419 142 418.328 142 417.5C142 416.672 141.328 416 140.5 416C139.672 416 139 416.672 139 417.5C139 418.328 139.672 419 140.5 419Z" fill="#C9D3DC"/>
<path opacity="0.5" d="M1.5 419C2.32843 419 3 418.328 3 417.5C3 416.672 2.32843 416 1.5 416C0.671573 416 0 416.672 0 417.5C0 418.328 0.671573 419 1.5 419Z" fill="#C9D3DC"/>
<path opacity="0.5" d="M1.5 558C2.32843 558 3 557.328 3 556.5C3 555.672 2.32843 555 1.5 555C0.671573 555 0 555.672 0 556.5C0 557.328 0.671573 558 1.5 558Z" fill="#C9D3DC"/>
<path opacity="0.64" d="M140 437.5H280" stroke="#E8ECEF"/>
<path opacity="0.64" d="M160.5 417V557" stroke="#E8ECEF"/>
<path opacity="0.64" d="M180.5 417V557" stroke="#E8ECEF"/>
<path opacity="0.64" d="M200.5 417V557" stroke="#E8ECEF"/>
<path opacity="0.64" d="M220.5 417V557" stroke="#E8ECEF"/>
<path opacity="0.64" d="M240.5 417V557" stroke="#E8ECEF"/>
<path opacity="0.64" d="M260.5 417V557" stroke="#E8ECEF"/>
<path opacity="0.64" d="M140 457.5H280" stroke="#E8ECEF"/>
<path opacity="0.64" d="M140 477.5H280" stroke="#E8ECEF"/>
<path opacity="0.64" d="M140 497.5H280" stroke="#E8ECEF"/>
<path opacity="0.64" d="M140 517.5H280" stroke="#E8ECEF"/>
<path opacity="0.64" d="M140 537.5H280" stroke="#E8ECEF"/>
<path opacity="0.5" d="M279.5 417.5H140.5V556.5H279.5V417.5Z" stroke="#DCE5EB"/>
<path opacity="0.5" d="M279.5 419C280.328 419 281 418.328 281 417.5C281 416.672 280.328 416 279.5 416C278.672 416 278 416.672 278 417.5C278 418.328 278.672 419 279.5 419Z" fill="#C9D3DC"/>
<path opacity="0.5" d="M140.5 419C141.328 419 142 418.328 142 417.5C142 416.672 141.328 416 140.5 416C139.672 416 139 416.672 139 417.5C139 418.328 139.672 419 140.5 419Z" fill="#C9D3DC"/>
<path opacity="0.5" d="M140.5 558C141.328 558 142 557.328 142 556.5C142 555.672 141.328 555 140.5 555C139.672 555 139 555.672 139 556.5C139 557.328 139.672 558 140.5 558Z" fill="#C9D3DC"/>
<path opacity="0.64" d="M279 437.5H419" stroke="#E8ECEF"/>
<path opacity="0.64" d="M299.5 417V557" stroke="#E8ECEF"/>
<path opacity="0.64" d="M319.5 417V557" stroke="#E8ECEF"/>
<path opacity="0.64" d="M339.5 417V557" stroke="#E8ECEF"/>
<path opacity="0.64" d="M359.5 417V557" stroke="#E8ECEF"/>
<path opacity="0.64" d="M379.5 417V557" stroke="#E8ECEF"/>
<path opacity="0.64" d="M399.5 417V557" stroke="#E8ECEF"/>
<path opacity="0.64" d="M279 457.5H419" stroke="#E8ECEF"/>
<path opacity="0.64" d="M279 477.5H419" stroke="#E8ECEF"/>
<path opacity="0.64" d="M279 497.5H419" stroke="#E8ECEF"/>
<path opacity="0.64" d="M279 517.5H419" stroke="#E8ECEF"/>
<path opacity="0.64" d="M279 537.5H419" stroke="#E8ECEF"/>
<path opacity="0.5" d="M418.5 417.5H279.5V556.5H418.5V417.5Z" stroke="#DCE5EB"/>
<path opacity="0.5" d="M418.5 419C419.328 419 420 418.328 420 417.5C420 416.672 419.328 416 418.5 416C417.672 416 417 416.672 417 417.5C417 418.328 417.672 419 418.5 419Z" fill="#C9D3DC"/>
<path opacity="0.5" d="M279.5 419C280.328 419 281 418.328 281 417.5C281 416.672 280.328 416 279.5 416C278.672 416 278 416.672 278 417.5C278 418.328 278.672 419 279.5 419Z" fill="#C9D3DC"/>
<path opacity="0.5" d="M279.5 558C280.328 558 281 557.328 281 556.5C281 555.672 280.328 555 279.5 555C278.672 555 278 555.672 278 556.5C278 557.328 278.672 558 279.5 558Z" fill="#C9D3DC"/>
<path opacity="0.64" d="M418 437.5H558" stroke="#E8ECEF"/>
<path opacity="0.64" d="M438.5 417V557" stroke="#E8ECEF"/>
<path opacity="0.64" d="M458.5 417V557" stroke="#E8ECEF"/>
<path opacity="0.64" d="M478.5 417V557" stroke="#E8ECEF"/>
<path opacity="0.64" d="M498.5 417V557" stroke="#E8ECEF"/>
<path opacity="0.64" d="M518.5 417V557" stroke="#E8ECEF"/>
<path opacity="0.64" d="M538.5 417V557" stroke="#E8ECEF"/>
<path opacity="0.64" d="M418 457.5H558" stroke="#E8ECEF"/>
<path opacity="0.64" d="M418 477.5H558" stroke="#E8ECEF"/>
<path opacity="0.64" d="M418 497.5H558" stroke="#E8ECEF"/>
<path opacity="0.64" d="M418 517.5H558" stroke="#E8ECEF"/>
<path opacity="0.64" d="M418 537.5H558" stroke="#E8ECEF"/>
<path opacity="0.5" d="M557.5 417.5H418.5V556.5H557.5V417.5Z" stroke="#DCE5EB"/>
<path opacity="0.5" d="M557.5 419C558.328 419 559 418.328 559 417.5C559 416.672 558.328 416 557.5 416C556.672 416 556 416.672 556 417.5C556 418.328 556.672 419 557.5 419Z" fill="#C9D3DC"/>
<path opacity="0.5" d="M418.5 419C419.328 419 420 418.328 420 417.5C420 416.672 419.328 416 418.5 416C417.672 416 417 416.672 417 417.5C417 418.328 417.672 419 418.5 419Z" fill="#C9D3DC"/>
<path opacity="0.5" d="M418.5 558C419.328 558 420 557.328 420 556.5C420 555.672 419.328 555 418.5 555C417.672 555 417 555.672 417 556.5C417 557.328 417.672 558 418.5 558Z" fill="#C9D3DC"/>
<path opacity="0.64" d="M557 437.5H697" stroke="#E8ECEF"/>
<path opacity="0.64" d="M577.5 417V557" stroke="#E8ECEF"/>
<path opacity="0.64" d="M597.5 417V557" stroke="#E8ECEF"/>
<path opacity="0.64" d="M617.5 417V557" stroke="#E8ECEF"/>
<path opacity="0.64" d="M637.5 417V557" stroke="#E8ECEF"/>
<path opacity="0.64" d="M657.5 417V557" stroke="#E8ECEF"/>
<path opacity="0.64" d="M677.5 417V557" stroke="#E8ECEF"/>
<path opacity="0.64" d="M557 457.5H697" stroke="#E8ECEF"/>
<path opacity="0.64" d="M557 477.5H697" stroke="#E8ECEF"/>
<path opacity="0.64" d="M557 497.5H697" stroke="#E8ECEF"/>
<path opacity="0.64" d="M557 517.5H697" stroke="#E8ECEF"/>
<path opacity="0.64" d="M557 537.5H697" stroke="#E8ECEF"/>
<path opacity="0.5" d="M696.5 417.5H557.5V556.5H696.5V417.5Z" stroke="#DCE5EB"/>
<path opacity="0.5" d="M696.5 419C697.328 419 698 418.328 698 417.5C698 416.672 697.328 416 696.5 416C695.672 416 695 416.672 695 417.5C695 418.328 695.672 419 696.5 419Z" fill="#C9D3DC"/>
<path opacity="0.5" d="M557.5 419C558.328 419 559 418.328 559 417.5C559 416.672 558.328 416 557.5 416C556.672 416 556 416.672 556 417.5C556 418.328 556.672 419 557.5 419Z" fill="#C9D3DC"/>
<path opacity="0.5" d="M557.5 558C558.328 558 559 557.328 559 556.5C559 555.672 558.328 555 557.5 555C556.672 555 556 555.672 556 556.5C556 557.328 556.672 558 557.5 558Z" fill="#C9D3DC"/>
<path opacity="0.64" d="M696 437.5H836" stroke="#E8ECEF"/>
<path opacity="0.64" d="M716.5 417V557" stroke="#E8ECEF"/>
<path opacity="0.64" d="M736.5 417V557" stroke="#E8ECEF"/>
<path opacity="0.64" d="M756.5 417V557" stroke="#E8ECEF"/>
<path opacity="0.64" d="M776.5 417V557" stroke="#E8ECEF"/>
<path opacity="0.64" d="M796.5 417V557" stroke="#E8ECEF"/>
<path opacity="0.64" d="M816.5 417V557" stroke="#E8ECEF"/>
<path opacity="0.64" d="M696 457.5H836" stroke="#E8ECEF"/>
<path opacity="0.64" d="M696 477.5H836" stroke="#E8ECEF"/>
<path opacity="0.64" d="M696 497.5H836" stroke="#E8ECEF"/>
<path opacity="0.64" d="M696 517.5H836" stroke="#E8ECEF"/>
<path opacity="0.64" d="M696 537.5H836" stroke="#E8ECEF"/>
<path opacity="0.5" d="M835.5 417.5H696.5V556.5H835.5V417.5Z" stroke="#DCE5EB"/>
<path opacity="0.5" d="M835.5 419C836.328 419 837 418.328 837 417.5C837 416.672 836.328 416 835.5 416C834.672 416 834 416.672 834 417.5C834 418.328 834.672 419 835.5 419Z" fill="#C9D3DC"/>
<path opacity="0.5" d="M696.5 419C697.328 419 698 418.328 698 417.5C698 416.672 697.328 416 696.5 416C695.672 416 695 416.672 695 417.5C695 418.328 695.672 419 696.5 419Z" fill="#C9D3DC"/>
<path opacity="0.5" d="M696.5 558C697.328 558 698 557.328 698 556.5C698 555.672 697.328 555 696.5 555C695.672 555 695 555.672 695 556.5C695 557.328 695.672 558 696.5 558Z" fill="#C9D3DC"/>
<path opacity="0.64" d="M835 437.5H975" stroke="#E8ECEF"/>
<path opacity="0.64" d="M855.5 417V557" stroke="#E8ECEF"/>
<path opacity="0.64" d="M875.5 417V557" stroke="#E8ECEF"/>
<path opacity="0.64" d="M895.5 417V557" stroke="#E8ECEF"/>
<path opacity="0.64" d="M915.5 417V557" stroke="#E8ECEF"/>
<path opacity="0.64" d="M935.5 417V557" stroke="#E8ECEF"/>
<path opacity="0.64" d="M955.5 417V557" stroke="#E8ECEF"/>
<path opacity="0.64" d="M835 457.5H975" stroke="#E8ECEF"/>
<path opacity="0.64" d="M835 477.5H975" stroke="#E8ECEF"/>
<path opacity="0.64" d="M835 497.5H975" stroke="#E8ECEF"/>
<path opacity="0.64" d="M835 517.5H975" stroke="#E8ECEF"/>
<path opacity="0.64" d="M835 537.5H975" stroke="#E8ECEF"/>
<path opacity="0.5" d="M974.5 417.5H835.5V556.5H974.5V417.5Z" stroke="#DCE5EB"/>
<path opacity="0.5" d="M974.5 419C975.328 419 976 418.328 976 417.5C976 416.672 975.328 416 974.5 416C973.672 416 973 416.672 973 417.5C973 418.328 973.672 419 974.5 419Z" fill="#C9D3DC"/>
<path opacity="0.5" d="M835.5 419C836.328 419 837 418.328 837 417.5C837 416.672 836.328 416 835.5 416C834.672 416 834 416.672 834 417.5C834 418.328 834.672 419 835.5 419Z" fill="#C9D3DC"/>
<path opacity="0.5" d="M835.5 558C836.328 558 837 557.328 837 556.5C837 555.672 836.328 555 835.5 555C834.672 555 834 555.672 834 556.5C834 557.328 834.672 558 835.5 558Z" fill="#C9D3DC"/>
<path opacity="0.64" d="M974 437.5H1114" stroke="#E8ECEF"/>
<path opacity="0.64" d="M994.5 417V557" stroke="#E8ECEF"/>
<path opacity="0.64" d="M1014.5 417V557" stroke="#E8ECEF"/>
<path opacity="0.64" d="M1034.5 417V557" stroke="#E8ECEF"/>
<path opacity="0.64" d="M1054.5 417V557" stroke="#E8ECEF"/>
<path opacity="0.64" d="M1074.5 417V557" stroke="#E8ECEF"/>
<path opacity="0.64" d="M1094.5 417V557" stroke="#E8ECEF"/>
<path opacity="0.64" d="M974 457.5H1114" stroke="#E8ECEF"/>
<path opacity="0.64" d="M974 477.5H1114" stroke="#E8ECEF"/>
<path opacity="0.64" d="M974 497.5H1114" stroke="#E8ECEF"/>
<path opacity="0.64" d="M974 517.5H1114" stroke="#E8ECEF"/>
<path opacity="0.64" d="M974 537.5H1114" stroke="#E8ECEF"/>
<path opacity="0.5" d="M1113.5 417.5H974.5V556.5H1113.5V417.5Z" stroke="#DCE5EB"/>
<path opacity="0.5" d="M1113.5 419C1114.33 419 1115 418.328 1115 417.5C1115 416.672 1114.33 416 1113.5 416C1112.67 416 1112 416.672 1112 417.5C1112 418.328 1112.67 419 1113.5 419Z" fill="#C9D3DC"/>
<path opacity="0.5" d="M974.5 419C975.328 419 976 418.328 976 417.5C976 416.672 975.328 416 974.5 416C973.672 416 973 416.672 973 417.5C973 418.328 973.672 419 974.5 419Z" fill="#C9D3DC"/>
<path opacity="0.5" d="M974.5 558C975.328 558 976 557.328 976 556.5C976 555.672 975.328 555 974.5 555C973.672 555 973 555.672 973 556.5C973 557.328 973.672 558 974.5 558Z" fill="#C9D3DC"/>
<path opacity="0.64" d="M1113 437.5H1253" stroke="#E8ECEF"/>
<path opacity="0.64" d="M1133.5 417V557" stroke="#E8ECEF"/>
<path opacity="0.64" d="M1153.5 417V557" stroke="#E8ECEF"/>
<path opacity="0.64" d="M1173.5 417V557" stroke="#E8ECEF"/>
<path opacity="0.64" d="M1193.5 417V557" stroke="#E8ECEF"/>
<path opacity="0.64" d="M1213.5 417V557" stroke="#E8ECEF"/>
<path opacity="0.64" d="M1233.5 417V557" stroke="#E8ECEF"/>
<path opacity="0.64" d="M1113 457.5H1253" stroke="#E8ECEF"/>
<path opacity="0.64" d="M1113 477.5H1253" stroke="#E8ECEF"/>
<path opacity="0.64" d="M1113 497.5H1253" stroke="#E8ECEF"/>
<path opacity="0.64" d="M1113 517.5H1253" stroke="#E8ECEF"/>
<path opacity="0.64" d="M1113 537.5H1253" stroke="#E8ECEF"/>
<path opacity="0.5" d="M1252.5 417.5H1113.5V556.5H1252.5V417.5Z" stroke="#DCE5EB"/>
<path opacity="0.5" d="M1252.5 419C1253.33 419 1254 418.328 1254 417.5C1254 416.672 1253.33 416 1252.5 416C1251.67 416 1251 416.672 1251 417.5C1251 418.328 1251.67 419 1252.5 419Z" fill="#C9D3DC"/>
<path opacity="0.5" d="M1113.5 419C1114.33 419 1115 418.328 1115 417.5C1115 416.672 1114.33 416 1113.5 416C1112.67 416 1112 416.672 1112 417.5C1112 418.328 1112.67 419 1113.5 419Z" fill="#C9D3DC"/>
<path opacity="0.5" d="M1113.5 558C1114.33 558 1115 557.328 1115 556.5C1115 555.672 1114.33 555 1113.5 555C1112.67 555 1112 555.672 1112 556.5C1112 557.328 1112.67 558 1113.5 558Z" fill="#C9D3DC"/>
<path opacity="0.64" d="M1252 437.5H1392" stroke="#E8ECEF"/>
<path opacity="0.64" d="M1272.5 417V557" stroke="#E8ECEF"/>
<path opacity="0.64" d="M1292.5 417V557" stroke="#E8ECEF"/>
<path opacity="0.64" d="M1312.5 417V557" stroke="#E8ECEF"/>
<path opacity="0.64" d="M1332.5 417V557" stroke="#E8ECEF"/>
<path opacity="0.64" d="M1352.5 417V557" stroke="#E8ECEF"/>
<path opacity="0.64" d="M1372.5 417V557" stroke="#E8ECEF"/>
<path opacity="0.64" d="M1252 457.5H1392" stroke="#E8ECEF"/>
<path opacity="0.64" d="M1252 477.5H1392" stroke="#E8ECEF"/>
<path opacity="0.64" d="M1252 497.5H1392" stroke="#E8ECEF"/>
<path opacity="0.64" d="M1252 517.5H1392" stroke="#E8ECEF"/>
<path opacity="0.64" d="M1252 537.5H1392" stroke="#E8ECEF"/>
<path opacity="0.5" d="M1391.5 417.5H1252.5V556.5H1391.5V417.5Z" stroke="#DCE5EB"/>
<path opacity="0.5" d="M1391.5 419C1392.33 419 1393 418.328 1393 417.5C1393 416.672 1392.33 416 1391.5 416C1390.67 416 1390 416.672 1390 417.5C1390 418.328 1390.67 419 1391.5 419Z" fill="#C9D3DC"/>
<path opacity="0.5" d="M1252.5 419C1253.33 419 1254 418.328 1254 417.5C1254 416.672 1253.33 416 1252.5 416C1251.67 416 1251 416.672 1251 417.5C1251 418.328 1251.67 419 1252.5 419Z" fill="#C9D3DC"/>
<path opacity="0.5" d="M1252.5 558C1253.33 558 1254 557.328 1254 556.5C1254 555.672 1253.33 555 1252.5 555C1251.67 555 1251 555.672 1251 556.5C1251 557.328 1251.67 558 1252.5 558Z" fill="#C9D3DC"/>
<path opacity="0.64" d="M1391 437.5H1531" stroke="#E8ECEF"/>
<path opacity="0.64" d="M1411.5 417V557" stroke="#E8ECEF"/>
<path opacity="0.64" d="M1431.5 417V557" stroke="#E8ECEF"/>
<path opacity="0.64" d="M1391 457.5H1531" stroke="#E8ECEF"/>
<path opacity="0.64" d="M1391 477.5H1531" stroke="#E8ECEF"/>
<path opacity="0.64" d="M1391 497.5H1531" stroke="#E8ECEF"/>
<path opacity="0.64" d="M1391 517.5H1531" stroke="#E8ECEF"/>
<path opacity="0.64" d="M1391 537.5H1531" stroke="#E8ECEF"/>
<path opacity="0.5" d="M1530.5 417.5H1391.5V556.5H1530.5V417.5Z" stroke="#DCE5EB"/>
<path opacity="0.5" d="M1391.5 419C1392.33 419 1393 418.328 1393 417.5C1393 416.672 1392.33 416 1391.5 416C1390.67 416 1390 416.672 1390 417.5C1390 418.328 1390.67 419 1391.5 419Z" fill="#C9D3DC"/>
<path opacity="0.5" d="M1391.5 558C1392.33 558 1393 557.328 1393 556.5C1393 555.672 1392.33 555 1391.5 555C1390.67 555 1390 555.672 1390 556.5C1390 557.328 1390.67 558 1391.5 558Z" fill="#C9D3DC"/>
<path opacity="0.64" d="M1 576.5H141" stroke="#E8ECEF"/>
<path opacity="0.64" d="M21.5 556V696" stroke="#E8ECEF"/>
<path opacity="0.64" d="M41.5 556V696" stroke="#E8ECEF"/>
<path opacity="0.64" d="M61.5 556V696" stroke="#E8ECEF"/>
<path opacity="0.64" d="M81.5 556V696" stroke="#E8ECEF"/>
<path opacity="0.64" d="M101.5 556V696" stroke="#E8ECEF"/>
<path opacity="0.64" d="M121.5 556V696" stroke="#E8ECEF"/>
<path opacity="0.64" d="M1 596.5H141" stroke="#E8ECEF"/>
<path opacity="0.64" d="M1 616.5H141" stroke="#E8ECEF"/>
<path opacity="0.64" d="M1 636.5H141" stroke="#E8ECEF"/>
<path opacity="0.64" d="M1 656.5H141" stroke="#E8ECEF"/>
<path opacity="0.64" d="M1 676.5H141" stroke="#E8ECEF"/>
<path opacity="0.5" d="M140.5 556.5H1.5V695.5H140.5V556.5Z" stroke="#DCE5EB"/>
<path opacity="0.5" d="M140.5 558C141.328 558 142 557.328 142 556.5C142 555.672 141.328 555 140.5 555C139.672 555 139 555.672 139 556.5C139 557.328 139.672 558 140.5 558Z" fill="#C9D3DC"/>
<path opacity="0.5" d="M1.5 558C2.32843 558 3 557.328 3 556.5C3 555.672 2.32843 555 1.5 555C0.671573 555 0 555.672 0 556.5C0 557.328 0.671573 558 1.5 558Z" fill="#C9D3DC"/>
<path opacity="0.5" d="M1.5 697C2.32843 697 3 696.328 3 695.5C3 694.672 2.32843 694 1.5 694C0.671573 694 0 694.672 0 695.5C0 696.328 0.671573 697 1.5 697Z" fill="#C9D3DC"/>
<path opacity="0.64" d="M140 576.5H280" stroke="#E8ECEF"/>
<path opacity="0.64" d="M160.5 556V696" stroke="#E8ECEF"/>
<path opacity="0.64" d="M180.5 556V696" stroke="#E8ECEF"/>
<path opacity="0.64" d="M200.5 556V696" stroke="#E8ECEF"/>
<path opacity="0.64" d="M220.5 556V696" stroke="#E8ECEF"/>
<path opacity="0.64" d="M240.5 556V696" stroke="#E8ECEF"/>
<path opacity="0.64" d="M260.5 556V696" stroke="#E8ECEF"/>
<path opacity="0.64" d="M140 596.5H280" stroke="#E8ECEF"/>
<path opacity="0.64" d="M140 616.5H280" stroke="#E8ECEF"/>
<path opacity="0.64" d="M140 636.5H280" stroke="#E8ECEF"/>
<path opacity="0.64" d="M140 656.5H280" stroke="#E8ECEF"/>
<path opacity="0.64" d="M140 676.5H280" stroke="#E8ECEF"/>
<path opacity="0.5" d="M279.5 556.5H140.5V695.5H279.5V556.5Z" stroke="#DCE5EB"/>
<path opacity="0.5" d="M279.5 558C280.328 558 281 557.328 281 556.5C281 555.672 280.328 555 279.5 555C278.672 555 278 555.672 278 556.5C278 557.328 278.672 558 279.5 558Z" fill="#C9D3DC"/>
<path opacity="0.5" d="M140.5 558C141.328 558 142 557.328 142 556.5C142 555.672 141.328 555 140.5 555C139.672 555 139 555.672 139 556.5C139 557.328 139.672 558 140.5 558Z" fill="#C9D3DC"/>
<path opacity="0.5" d="M140.5 697C141.328 697 142 696.328 142 695.5C142 694.672 141.328 694 140.5 694C139.672 694 139 694.672 139 695.5C139 696.328 139.672 697 140.5 697Z" fill="#C9D3DC"/>
<path opacity="0.64" d="M279 576.5H419" stroke="#E8ECEF"/>
<path opacity="0.64" d="M299.5 556V696" stroke="#E8ECEF"/>
<path opacity="0.64" d="M319.5 556V696" stroke="#E8ECEF"/>
<path opacity="0.64" d="M339.5 556V696" stroke="#E8ECEF"/>
<path opacity="0.64" d="M359.5 556V696" stroke="#E8ECEF"/>
<path opacity="0.64" d="M379.5 556V696" stroke="#E8ECEF"/>
<path opacity="0.64" d="M399.5 556V696" stroke="#E8ECEF"/>
<path opacity="0.64" d="M279 596.5H419" stroke="#E8ECEF"/>
<path opacity="0.64" d="M279 616.5H419" stroke="#E8ECEF"/>
<path opacity="0.64" d="M279 636.5H419" stroke="#E8ECEF"/>
<path opacity="0.64" d="M279 656.5H419" stroke="#E8ECEF"/>
<path opacity="0.64" d="M279 676.5H419" stroke="#E8ECEF"/>
<path opacity="0.5" d="M418.5 556.5H279.5V695.5H418.5V556.5Z" stroke="#DCE5EB"/>
<path opacity="0.5" d="M418.5 558C419.328 558 420 557.328 420 556.5C420 555.672 419.328 555 418.5 555C417.672 555 417 555.672 417 556.5C417 557.328 417.672 558 418.5 558Z" fill="#C9D3DC"/>
<path opacity="0.5" d="M279.5 558C280.328 558 281 557.328 281 556.5C281 555.672 280.328 555 279.5 555C278.672 555 278 555.672 278 556.5C278 557.328 278.672 558 279.5 558Z" fill="#C9D3DC"/>
<path opacity="0.5" d="M279.5 697C280.328 697 281 696.328 281 695.5C281 694.672 280.328 694 279.5 694C278.672 694 278 694.672 278 695.5C278 696.328 278.672 697 279.5 697Z" fill="#C9D3DC"/>
<path opacity="0.64" d="M418 576.5H558" stroke="#E8ECEF"/>
<path opacity="0.64" d="M438.5 556V696" stroke="#E8ECEF"/>
<path opacity="0.64" d="M458.5 556V696" stroke="#E8ECEF"/>
<path opacity="0.64" d="M478.5 556V696" stroke="#E8ECEF"/>
<path opacity="0.64" d="M498.5 556V696" stroke="#E8ECEF"/>
<path opacity="0.64" d="M518.5 556V696" stroke="#E8ECEF"/>
<path opacity="0.64" d="M538.5 556V696" stroke="#E8ECEF"/>
<path opacity="0.64" d="M418 596.5H558" stroke="#E8ECEF"/>
<path opacity="0.64" d="M418 616.5H558" stroke="#E8ECEF"/>
<path opacity="0.64" d="M418 636.5H558" stroke="#E8ECEF"/>
<path opacity="0.64" d="M418 656.5H558" stroke="#E8ECEF"/>
<path opacity="0.64" d="M418 676.5H558" stroke="#E8ECEF"/>
<path opacity="0.5" d="M557.5 556.5H418.5V695.5H557.5V556.5Z" stroke="#DCE5EB"/>
<path opacity="0.5" d="M557.5 558C558.328 558 559 557.328 559 556.5C559 555.672 558.328 555 557.5 555C556.672 555 556 555.672 556 556.5C556 557.328 556.672 558 557.5 558Z" fill="#C9D3DC"/>
<path opacity="0.5" d="M418.5 558C419.328 558 420 557.328 420 556.5C420 555.672 419.328 555 418.5 555C417.672 555 417 555.672 417 556.5C417 557.328 417.672 558 418.5 558Z" fill="#C9D3DC"/>
<path opacity="0.5" d="M418.5 697C419.328 697 420 696.328 420 695.5C420 694.672 419.328 694 418.5 694C417.672 694 417 694.672 417 695.5C417 696.328 417.672 697 418.5 697Z" fill="#C9D3DC"/>
<path opacity="0.64" d="M557 576.5H697" stroke="#E8ECEF"/>
<path opacity="0.64" d="M577.5 556V696" stroke="#E8ECEF"/>
<path opacity="0.64" d="M597.5 556V696" stroke="#E8ECEF"/>
<path opacity="0.64" d="M617.5 556V696" stroke="#E8ECEF"/>
<path opacity="0.64" d="M637.5 556V696" stroke="#E8ECEF"/>
<path opacity="0.64" d="M657.5 556V696" stroke="#E8ECEF"/>
<path opacity="0.64" d="M677.5 556V696" stroke="#E8ECEF"/>
<path opacity="0.64" d="M557 596.5H697" stroke="#E8ECEF"/>
<path opacity="0.64" d="M557 616.5H697" stroke="#E8ECEF"/>
<path opacity="0.64" d="M557 636.5H697" stroke="#E8ECEF"/>
<path opacity="0.64" d="M557 656.5H697" stroke="#E8ECEF"/>
<path opacity="0.64" d="M557 676.5H697" stroke="#E8ECEF"/>
<path opacity="0.5" d="M696.5 556.5H557.5V695.5H696.5V556.5Z" stroke="#DCE5EB"/>
<path opacity="0.5" d="M696.5 558C697.328 558 698 557.328 698 556.5C698 555.672 697.328 555 696.5 555C695.672 555 695 555.672 695 556.5C695 557.328 695.672 558 696.5 558Z" fill="#C9D3DC"/>
<path opacity="0.5" d="M557.5 558C558.328 558 559 557.328 559 556.5C559 555.672 558.328 555 557.5 555C556.672 555 556 555.672 556 556.5C556 557.328 556.672 558 557.5 558Z" fill="#C9D3DC"/>
<path opacity="0.5" d="M557.5 697C558.328 697 559 696.328 559 695.5C559 694.672 558.328 694 557.5 694C556.672 694 556 694.672 556 695.5C556 696.328 556.672 697 557.5 697Z" fill="#C9D3DC"/>
<path opacity="0.64" d="M696 576.5H836" stroke="#E8ECEF"/>
<path opacity="0.64" d="M716.5 556V696" stroke="#E8ECEF"/>
<path opacity="0.64" d="M736.5 556V696" stroke="#E8ECEF"/>
<path opacity="0.64" d="M756.5 556V696" stroke="#E8ECEF"/>
<path opacity="0.64" d="M776.5 556V696" stroke="#E8ECEF"/>
<path opacity="0.64" d="M796.5 556V696" stroke="#E8ECEF"/>
<path opacity="0.64" d="M816.5 556V696" stroke="#E8ECEF"/>
<path opacity="0.64" d="M696 596.5H836" stroke="#E8ECEF"/>
<path opacity="0.64" d="M696 616.5H836" stroke="#E8ECEF"/>
<path opacity="0.64" d="M696 636.5H836" stroke="#E8ECEF"/>
<path opacity="0.64" d="M696 656.5H836" stroke="#E8ECEF"/>
<path opacity="0.64" d="M696 676.5H836" stroke="#E8ECEF"/>
<path opacity="0.5" d="M835.5 556.5H696.5V695.5H835.5V556.5Z" stroke="#DCE5EB"/>
<path opacity="0.5" d="M835.5 558C836.328 558 837 557.328 837 556.5C837 555.672 836.328 555 835.5 555C834.672 555 834 555.672 834 556.5C834 557.328 834.672 558 835.5 558Z" fill="#C9D3DC"/>
<path opacity="0.5" d="M696.5 558C697.328 558 698 557.328 698 556.5C698 555.672 697.328 555 696.5 555C695.672 555 695 555.672 695 556.5C695 557.328 695.672 558 696.5 558Z" fill="#C9D3DC"/>
<path opacity="0.5" d="M696.5 697C697.328 697 698 696.328 698 695.5C698 694.672 697.328 694 696.5 694C695.672 694 695 694.672 695 695.5C695 696.328 695.672 697 696.5 697Z" fill="#C9D3DC"/>
<path opacity="0.64" d="M835 576.5H975" stroke="#E8ECEF"/>
<path opacity="0.64" d="M855.5 556V696" stroke="#E8ECEF"/>
<path opacity="0.64" d="M875.5 556V696" stroke="#E8ECEF"/>
<path opacity="0.64" d="M895.5 556V696" stroke="#E8ECEF"/>
<path opacity="0.64" d="M915.5 556V696" stroke="#E8ECEF"/>
<path opacity="0.64" d="M935.5 556V696" stroke="#E8ECEF"/>
<path opacity="0.64" d="M955.5 556V696" stroke="#E8ECEF"/>
<path opacity="0.64" d="M835 596.5H975" stroke="#E8ECEF"/>
<path opacity="0.64" d="M835 616.5H975" stroke="#E8ECEF"/>
<path opacity="0.64" d="M835 636.5H975" stroke="#E8ECEF"/>
<path opacity="0.64" d="M835 656.5H975" stroke="#E8ECEF"/>
<path opacity="0.64" d="M835 676.5H975" stroke="#E8ECEF"/>
<path opacity="0.5" d="M974.5 556.5H835.5V695.5H974.5V556.5Z" stroke="#DCE5EB"/>
<path opacity="0.5" d="M974.5 558C975.328 558 976 557.328 976 556.5C976 555.672 975.328 555 974.5 555C973.672 555 973 555.672 973 556.5C973 557.328 973.672 558 974.5 558Z" fill="#C9D3DC"/>
<path opacity="0.5" d="M835.5 558C836.328 558 837 557.328 837 556.5C837 555.672 836.328 555 835.5 555C834.672 555 834 555.672 834 556.5C834 557.328 834.672 558 835.5 558Z" fill="#C9D3DC"/>
<path opacity="0.5" d="M835.5 697C836.328 697 837 696.328 837 695.5C837 694.672 836.328 694 835.5 694C834.672 694 834 694.672 834 695.5C834 696.328 834.672 697 835.5 697Z" fill="#C9D3DC"/>
<path opacity="0.64" d="M974 576.5H1114" stroke="#E8ECEF"/>
<path opacity="0.64" d="M994.5 556V696" stroke="#E8ECEF"/>
<path opacity="0.64" d="M1014.5 556V696" stroke="#E8ECEF"/>
<path opacity="0.64" d="M1034.5 556V696" stroke="#E8ECEF"/>
<path opacity="0.64" d="M1054.5 556V696" stroke="#E8ECEF"/>
<path opacity="0.64" d="M1074.5 556V696" stroke="#E8ECEF"/>
<path opacity="0.64" d="M1094.5 556V696" stroke="#E8ECEF"/>
<path opacity="0.64" d="M974 596.5H1114" stroke="#E8ECEF"/>
<path opacity="0.64" d="M974 616.5H1114" stroke="#E8ECEF"/>
<path opacity="0.64" d="M974 636.5H1114" stroke="#E8ECEF"/>
<path opacity="0.64" d="M974 656.5H1114" stroke="#E8ECEF"/>
<path opacity="0.64" d="M974 676.5H1114" stroke="#E8ECEF"/>
<path opacity="0.5" d="M1113.5 556.5H974.5V695.5H1113.5V556.5Z" stroke="#DCE5EB"/>
<path opacity="0.5" d="M1113.5 558C1114.33 558 1115 557.328 1115 556.5C1115 555.672 1114.33 555 1113.5 555C1112.67 555 1112 555.672 1112 556.5C1112 557.328 1112.67 558 1113.5 558Z" fill="#C9D3DC"/>
<path opacity="0.5" d="M974.5 558C975.328 558 976 557.328 976 556.5C976 555.672 975.328 555 974.5 555C973.672 555 973 555.672 973 556.5C973 557.328 973.672 558 974.5 558Z" fill="#C9D3DC"/>
<path opacity="0.5" d="M974.5 697C975.328 697 976 696.328 976 695.5C976 694.672 975.328 694 974.5 694C973.672 694 973 694.672 973 695.5C973 696.328 973.672 697 974.5 697Z" fill="#C9D3DC"/>
<path opacity="0.64" d="M1113 576.5H1253" stroke="#E8ECEF"/>
<path opacity="0.64" d="M1133.5 556V696" stroke="#E8ECEF"/>
<path opacity="0.64" d="M1153.5 556V696" stroke="#E8ECEF"/>
<path opacity="0.64" d="M1173.5 556V696" stroke="#E8ECEF"/>
<path opacity="0.64" d="M1193.5 556V696" stroke="#E8ECEF"/>
<path opacity="0.64" d="M1213.5 556V696" stroke="#E8ECEF"/>
<path opacity="0.64" d="M1233.5 556V696" stroke="#E8ECEF"/>
<path opacity="0.64" d="M1113 596.5H1253" stroke="#E8ECEF"/>
<path opacity="0.64" d="M1113 616.5H1253" stroke="#E8ECEF"/>
<path opacity="0.64" d="M1113 636.5H1253" stroke="#E8ECEF"/>
<path opacity="0.64" d="M1113 656.5H1253" stroke="#E8ECEF"/>
<path opacity="0.64" d="M1113 676.5H1253" stroke="#E8ECEF"/>
<path opacity="0.5" d="M1252.5 556.5H1113.5V695.5H1252.5V556.5Z" stroke="#DCE5EB"/>
<path opacity="0.5" d="M1252.5 558C1253.33 558 1254 557.328 1254 556.5C1254 555.672 1253.33 555 1252.5 555C1251.67 555 1251 555.672 1251 556.5C1251 557.328 1251.67 558 1252.5 558Z" fill="#C9D3DC"/>
<path opacity="0.5" d="M1113.5 558C1114.33 558 1115 557.328 1115 556.5C1115 555.672 1114.33 555 1113.5 555C1112.67 555 1112 555.672 1112 556.5C1112 557.328 1112.67 558 1113.5 558Z" fill="#C9D3DC"/>
<path opacity="0.5" d="M1113.5 697C1114.33 697 1115 696.328 1115 695.5C1115 694.672 1114.33 694 1113.5 694C1112.67 694 1112 694.672 1112 695.5C1112 696.328 1112.67 697 1113.5 697Z" fill="#C9D3DC"/>
<path opacity="0.64" d="M1252 576.5H1392" stroke="#E8ECEF"/>
<path opacity="0.64" d="M1272.5 556V696" stroke="#E8ECEF"/>
<path opacity="0.64" d="M1292.5 556V696" stroke="#E8ECEF"/>
<path opacity="0.64" d="M1312.5 556V696" stroke="#E8ECEF"/>
<path opacity="0.64" d="M1332.5 556V696" stroke="#E8ECEF"/>
<path opacity="0.64" d="M1352.5 556V696" stroke="#E8ECEF"/>
<path opacity="0.64" d="M1372.5 556V696" stroke="#E8ECEF"/>
<path opacity="0.64" d="M1252 596.5H1392" stroke="#E8ECEF"/>
<path opacity="0.64" d="M1252 616.5H1392" stroke="#E8ECEF"/>
<path opacity="0.64" d="M1252 636.5H1392" stroke="#E8ECEF"/>
<path opacity="0.64" d="M1252 656.5H1392" stroke="#E8ECEF"/>
<path opacity="0.64" d="M1252 676.5H1392" stroke="#E8ECEF"/>
<path opacity="0.5" d="M1391.5 556.5H1252.5V695.5H1391.5V556.5Z" stroke="#DCE5EB"/>
<path opacity="0.5" d="M1391.5 558C1392.33 558 1393 557.328 1393 556.5C1393 555.672 1392.33 555 1391.5 555C1390.67 555 1390 555.672 1390 556.5C1390 557.328 1390.67 558 1391.5 558Z" fill="#C9D3DC"/>
<path opacity="0.5" d="M1252.5 558C1253.33 558 1254 557.328 1254 556.5C1254 555.672 1253.33 555 1252.5 555C1251.67 555 1251 555.672 1251 556.5C1251 557.328 1251.67 558 1252.5 558Z" fill="#C9D3DC"/>
<path opacity="0.5" d="M1252.5 697C1253.33 697 1254 696.328 1254 695.5C1254 694.672 1253.33 694 1252.5 694C1251.67 694 1251 694.672 1251 695.5C1251 696.328 1251.67 697 1252.5 697Z" fill="#C9D3DC"/>
<path opacity="0.64" d="M1391 576.5H1531" stroke="#E8ECEF"/>
<path opacity="0.64" d="M1411.5 556V696" stroke="#E8ECEF"/>
<path opacity="0.64" d="M1431.5 556V696" stroke="#E8ECEF"/>
<path opacity="0.64" d="M1391 596.5H1531" stroke="#E8ECEF"/>
<path opacity="0.64" d="M1391 616.5H1531" stroke="#E8ECEF"/>
<path opacity="0.64" d="M1391 636.5H1531" stroke="#E8ECEF"/>
<path opacity="0.64" d="M1391 656.5H1531" stroke="#E8ECEF"/>
<path opacity="0.64" d="M1391 676.5H1531" stroke="#E8ECEF"/>
<path opacity="0.5" d="M1530.5 556.5H1391.5V695.5H1530.5V556.5Z" stroke="#DCE5EB"/>
<path opacity="0.5" d="M1391.5 558C1392.33 558 1393 557.328 1393 556.5C1393 555.672 1392.33 555 1391.5 555C1390.67 555 1390 555.672 1390 556.5C1390 557.328 1390.67 558 1391.5 558Z" fill="#C9D3DC"/>
<path opacity="0.5" d="M1391.5 697C1392.33 697 1393 696.328 1393 695.5C1393 694.672 1392.33 694 1391.5 694C1390.67 694 1390 694.672 1390 695.5C1390 696.328 1390.67 697 1391.5 697Z" fill="#C9D3DC"/>
<path opacity="0.64" d="M1 715.5H141" stroke="#E8ECEF"/>
<path opacity="0.64" d="M21.5 695V835" stroke="#E8ECEF"/>
<path opacity="0.64" d="M41.5 695V835" stroke="#E8ECEF"/>
<path opacity="0.64" d="M61.5 695V835" stroke="#E8ECEF"/>
<path opacity="0.64" d="M81.5 695V835" stroke="#E8ECEF"/>
<path opacity="0.64" d="M101.5 695V835" stroke="#E8ECEF"/>
<path opacity="0.64" d="M121.5 695V835" stroke="#E8ECEF"/>
<path opacity="0.64" d="M1 735.5H141" stroke="#E8ECEF"/>
<path opacity="0.64" d="M1 755.5H141" stroke="#E8ECEF"/>
<path opacity="0.64" d="M1 775.5H141" stroke="#E8ECEF"/>
<path opacity="0.64" d="M1 795.5H141" stroke="#E8ECEF"/>
<path opacity="0.64" d="M1 815.5H141" stroke="#E8ECEF"/>
<path opacity="0.5" d="M140.5 695.5H1.5V834.5H140.5V695.5Z" stroke="#DCE5EB"/>
<path opacity="0.5" d="M140.5 697C141.328 697 142 696.328 142 695.5C142 694.672 141.328 694 140.5 694C139.672 694 139 694.672 139 695.5C139 696.328 139.672 697 140.5 697Z" fill="#C9D3DC"/>
<path opacity="0.5" d="M1.5 697C2.32843 697 3 696.328 3 695.5C3 694.672 2.32843 694 1.5 694C0.671573 694 0 694.672 0 695.5C0 696.328 0.671573 697 1.5 697Z" fill="#C9D3DC"/>
<path opacity="0.5" d="M1.5 836C2.32843 836 3 835.328 3 834.5C3 833.672 2.32843 833 1.5 833C0.671573 833 0 833.672 0 834.5C0 835.328 0.671573 836 1.5 836Z" fill="#C9D3DC"/>
<path opacity="0.64" d="M140 715.5H280" stroke="#E8ECEF"/>
<path opacity="0.64" d="M160.5 695V835" stroke="#E8ECEF"/>
<path opacity="0.64" d="M180.5 695V835" stroke="#E8ECEF"/>
<path opacity="0.64" d="M200.5 695V835" stroke="#E8ECEF"/>
<path opacity="0.64" d="M220.5 695V835" stroke="#E8ECEF"/>
<path opacity="0.64" d="M240.5 695V835" stroke="#E8ECEF"/>
<path opacity="0.64" d="M260.5 695V835" stroke="#E8ECEF"/>
<path opacity="0.64" d="M140 735.5H280" stroke="#E8ECEF"/>
<path opacity="0.64" d="M140 755.5H280" stroke="#E8ECEF"/>
<path opacity="0.64" d="M140 775.5H280" stroke="#E8ECEF"/>
<path opacity="0.64" d="M140 795.5H280" stroke="#E8ECEF"/>
<path opacity="0.64" d="M140 815.5H280" stroke="#E8ECEF"/>
<path opacity="0.5" d="M279.5 695.5H140.5V834.5H279.5V695.5Z" stroke="#DCE5EB"/>
<path opacity="0.5" d="M279.5 697C280.328 697 281 696.328 281 695.5C281 694.672 280.328 694 279.5 694C278.672 694 278 694.672 278 695.5C278 696.328 278.672 697 279.5 697Z" fill="#C9D3DC"/>
<path opacity="0.5" d="M140.5 697C141.328 697 142 696.328 142 695.5C142 694.672 141.328 694 140.5 694C139.672 694 139 694.672 139 695.5C139 696.328 139.672 697 140.5 697Z" fill="#C9D3DC"/>
<path opacity="0.5" d="M140.5 836C141.328 836 142 835.328 142 834.5C142 833.672 141.328 833 140.5 833C139.672 833 139 833.672 139 834.5C139 835.328 139.672 836 140.5 836Z" fill="#C9D3DC"/>
<path opacity="0.64" d="M279 715.5H419" stroke="#E8ECEF"/>
<path opacity="0.64" d="M299.5 695V835" stroke="#E8ECEF"/>
<path opacity="0.64" d="M319.5 695V835" stroke="#E8ECEF"/>
<path opacity="0.64" d="M339.5 695V835" stroke="#E8ECEF"/>
<path opacity="0.64" d="M359.5 695V835" stroke="#E8ECEF"/>
<path opacity="0.64" d="M379.5 695V835" stroke="#E8ECEF"/>
<path opacity="0.64" d="M399.5 695V835" stroke="#E8ECEF"/>
<path opacity="0.64" d="M279 735.5H419" stroke="#E8ECEF"/>
<path opacity="0.64" d="M279 755.5H419" stroke="#E8ECEF"/>
<path opacity="0.64" d="M279 775.5H419" stroke="#E8ECEF"/>
<path opacity="0.64" d="M279 795.5H419" stroke="#E8ECEF"/>
<path opacity="0.64" d="M279 815.5H419" stroke="#E8ECEF"/>
<path opacity="0.5" d="M418.5 695.5H279.5V834.5H418.5V695.5Z" stroke="#DCE5EB"/>
<path opacity="0.5" d="M418.5 697C419.328 697 420 696.328 420 695.5C420 694.672 419.328 694 418.5 694C417.672 694 417 694.672 417 695.5C417 696.328 417.672 697 418.5 697Z" fill="#C9D3DC"/>
<path opacity="0.5" d="M279.5 697C280.328 697 281 696.328 281 695.5C281 694.672 280.328 694 279.5 694C278.672 694 278 694.672 278 695.5C278 696.328 278.672 697 279.5 697Z" fill="#C9D3DC"/>
<path opacity="0.5" d="M279.5 836C280.328 836 281 835.328 281 834.5C281 833.672 280.328 833 279.5 833C278.672 833 278 833.672 278 834.5C278 835.328 278.672 836 279.5 836Z" fill="#C9D3DC"/>
<path opacity="0.64" d="M418 715.5H558" stroke="#E8ECEF"/>
<path opacity="0.64" d="M438.5 695V835" stroke="#E8ECEF"/>
<path opacity="0.64" d="M458.5 695V835" stroke="#E8ECEF"/>
<path opacity="0.64" d="M478.5 695V835" stroke="#E8ECEF"/>
<path opacity="0.64" d="M498.5 695V835" stroke="#E8ECEF"/>
<path opacity="0.64" d="M518.5 695V835" stroke="#E8ECEF"/>
<path opacity="0.64" d="M538.5 695V835" stroke="#E8ECEF"/>
<path opacity="0.64" d="M418 735.5H558" stroke="#E8ECEF"/>
<path opacity="0.64" d="M418 755.5H558" stroke="#E8ECEF"/>
<path opacity="0.64" d="M418 775.5H558" stroke="#E8ECEF"/>
<path opacity="0.64" d="M418 795.5H558" stroke="#E8ECEF"/>
<path opacity="0.64" d="M418 815.5H558" stroke="#E8ECEF"/>
<path opacity="0.5" d="M557.5 695.5H418.5V834.5H557.5V695.5Z" stroke="#DCE5EB"/>
<path opacity="0.5" d="M557.5 697C558.328 697 559 696.328 559 695.5C559 694.672 558.328 694 557.5 694C556.672 694 556 694.672 556 695.5C556 696.328 556.672 697 557.5 697Z" fill="#C9D3DC"/>
<path opacity="0.5" d="M418.5 697C419.328 697 420 696.328 420 695.5C420 694.672 419.328 694 418.5 694C417.672 694 417 694.672 417 695.5C417 696.328 417.672 697 418.5 697Z" fill="#C9D3DC"/>
<path opacity="0.5" d="M418.5 836C419.328 836 420 835.328 420 834.5C420 833.672 419.328 833 418.5 833C417.672 833 417 833.672 417 834.5C417 835.328 417.672 836 418.5 836Z" fill="#C9D3DC"/>
<path opacity="0.64" d="M557 715.5H697" stroke="#E8ECEF"/>
<path opacity="0.64" d="M577.5 695V835" stroke="#E8ECEF"/>
<path opacity="0.64" d="M597.5 695V835" stroke="#E8ECEF"/>
<path opacity="0.64" d="M617.5 695V835" stroke="#E8ECEF"/>
<path opacity="0.64" d="M637.5 695V835" stroke="#E8ECEF"/>
<path opacity="0.64" d="M657.5 695V835" stroke="#E8ECEF"/>
<path opacity="0.64" d="M677.5 695V835" stroke="#E8ECEF"/>
<path opacity="0.64" d="M557 735.5H697" stroke="#E8ECEF"/>
<path opacity="0.64" d="M557 755.5H697" stroke="#E8ECEF"/>
<path opacity="0.64" d="M557 775.5H697" stroke="#E8ECEF"/>
<path opacity="0.64" d="M557 795.5H697" stroke="#E8ECEF"/>
<path opacity="0.64" d="M557 815.5H697" stroke="#E8ECEF"/>
<path opacity="0.5" d="M696.5 695.5H557.5V834.5H696.5V695.5Z" stroke="#DCE5EB"/>
<path opacity="0.5" d="M696.5 697C697.328 697 698 696.328 698 695.5C698 694.672 697.328 694 696.5 694C695.672 694 695 694.672 695 695.5C695 696.328 695.672 697 696.5 697Z" fill="#C9D3DC"/>
<path opacity="0.5" d="M557.5 697C558.328 697 559 696.328 559 695.5C559 694.672 558.328 694 557.5 694C556.672 694 556 694.672 556 695.5C556 696.328 556.672 697 557.5 697Z" fill="#C9D3DC"/>
<path opacity="0.5" d="M557.5 836C558.328 836 559 835.328 559 834.5C559 833.672 558.328 833 557.5 833C556.672 833 556 833.672 556 834.5C556 835.328 556.672 836 557.5 836Z" fill="#C9D3DC"/>
<path opacity="0.64" d="M696 715.5H836" stroke="#E8ECEF"/>
<path opacity="0.64" d="M716.5 695V835" stroke="#E8ECEF"/>
<path opacity="0.64" d="M736.5 695V835" stroke="#E8ECEF"/>
<path opacity="0.64" d="M756.5 695V835" stroke="#E8ECEF"/>
<path opacity="0.64" d="M776.5 695V835" stroke="#E8ECEF"/>
<path opacity="0.64" d="M796.5 695V835" stroke="#E8ECEF"/>
<path opacity="0.64" d="M816.5 695V835" stroke="#E8ECEF"/>
<path opacity="0.64" d="M696 735.5H836" stroke="#E8ECEF"/>
<path opacity="0.64" d="M696 755.5H836" stroke="#E8ECEF"/>
<path opacity="0.64" d="M696 775.5H836" stroke="#E8ECEF"/>
<path opacity="0.64" d="M696 795.5H836" stroke="#E8ECEF"/>
<path opacity="0.64" d="M696 815.5H836" stroke="#E8ECEF"/>
<path opacity="0.5" d="M835.5 695.5H696.5V834.5H835.5V695.5Z" stroke="#DCE5EB"/>
<path opacity="0.5" d="M835.5 697C836.328 697 837 696.328 837 695.5C837 694.672 836.328 694 835.5 694C834.672 694 834 694.672 834 695.5C834 696.328 834.672 697 835.5 697Z" fill="#C9D3DC"/>
<path opacity="0.5" d="M696.5 697C697.328 697 698 696.328 698 695.5C698 694.672 697.328 694 696.5 694C695.672 694 695 694.672 695 695.5C695 696.328 695.672 697 696.5 697Z" fill="#C9D3DC"/>
<path opacity="0.5" d="M696.5 836C697.328 836 698 835.328 698 834.5C698 833.672 697.328 833 696.5 833C695.672 833 695 833.672 695 834.5C695 835.328 695.672 836 696.5 836Z" fill="#C9D3DC"/>
<path opacity="0.64" d="M835 715.5H975" stroke="#E8ECEF"/>
<path opacity="0.64" d="M855.5 695V835" stroke="#E8ECEF"/>
<path opacity="0.64" d="M875.5 695V835" stroke="#E8ECEF"/>
<path opacity="0.64" d="M895.5 695V835" stroke="#E8ECEF"/>
<path opacity="0.64" d="M915.5 695V835" stroke="#E8ECEF"/>
<path opacity="0.64" d="M935.5 695V835" stroke="#E8ECEF"/>
<path opacity="0.64" d="M955.5 695V835" stroke="#E8ECEF"/>
<path opacity="0.64" d="M835 735.5H975" stroke="#E8ECEF"/>
<path opacity="0.64" d="M835 755.5H975" stroke="#E8ECEF"/>
<path opacity="0.64" d="M835 775.5H975" stroke="#E8ECEF"/>
<path opacity="0.64" d="M835 795.5H975" stroke="#E8ECEF"/>
<path opacity="0.64" d="M835 815.5H975" stroke="#E8ECEF"/>
<path opacity="0.5" d="M974.5 695.5H835.5V834.5H974.5V695.5Z" stroke="#DCE5EB"/>
<path opacity="0.5" d="M974.5 697C975.328 697 976 696.328 976 695.5C976 694.672 975.328 694 974.5 694C973.672 694 973 694.672 973 695.5C973 696.328 973.672 697 974.5 697Z" fill="#C9D3DC"/>
<path opacity="0.5" d="M835.5 697C836.328 697 837 696.328 837 695.5C837 694.672 836.328 694 835.5 694C834.672 694 834 694.672 834 695.5C834 696.328 834.672 697 835.5 697Z" fill="#C9D3DC"/>
<path opacity="0.5" d="M835.5 836C836.328 836 837 835.328 837 834.5C837 833.672 836.328 833 835.5 833C834.672 833 834 833.672 834 834.5C834 835.328 834.672 836 835.5 836Z" fill="#C9D3DC"/>
<path opacity="0.64" d="M974 715.5H1114" stroke="#E8ECEF"/>
<path opacity="0.64" d="M994.5 695V835" stroke="#E8ECEF"/>
<path opacity="0.64" d="M1014.5 695V835" stroke="#E8ECEF"/>
<path opacity="0.64" d="M1034.5 695V835" stroke="#E8ECEF"/>
<path opacity="0.64" d="M1054.5 695V835" stroke="#E8ECEF"/>
<path opacity="0.64" d="M1074.5 695V835" stroke="#E8ECEF"/>
<path opacity="0.64" d="M1094.5 695V835" stroke="#E8ECEF"/>
<path opacity="0.64" d="M974 735.5H1114" stroke="#E8ECEF"/>
<path opacity="0.64" d="M974 755.5H1114" stroke="#E8ECEF"/>
<path opacity="0.64" d="M974 775.5H1114" stroke="#E8ECEF"/>
<path opacity="0.64" d="M974 795.5H1114" stroke="#E8ECEF"/>
<path opacity="0.64" d="M974 815.5H1114" stroke="#E8ECEF"/>
<path opacity="0.5" d="M1113.5 695.5H974.5V834.5H1113.5V695.5Z" stroke="#DCE5EB"/>
<path opacity="0.5" d="M1113.5 697C1114.33 697 1115 696.328 1115 695.5C1115 694.672 1114.33 694 1113.5 694C1112.67 694 1112 694.672 1112 695.5C1112 696.328 1112.67 697 1113.5 697Z" fill="#C9D3DC"/>
<path opacity="0.5" d="M974.5 697C975.328 697 976 696.328 976 695.5C976 694.672 975.328 694 974.5 694C973.672 694 973 694.672 973 695.5C973 696.328 973.672 697 974.5 697Z" fill="#C9D3DC"/>
<path opacity="0.5" d="M974.5 836C975.328 836 976 835.328 976 834.5C976 833.672 975.328 833 974.5 833C973.672 833 973 833.672 973 834.5C973 835.328 973.672 836 974.5 836Z" fill="#C9D3DC"/>
<path opacity="0.64" d="M1113 715.5H1253" stroke="#E8ECEF"/>
<path opacity="0.64" d="M1133.5 695V835" stroke="#E8ECEF"/>
<path opacity="0.64" d="M1153.5 695V835" stroke="#E8ECEF"/>
<path opacity="0.64" d="M1173.5 695V835" stroke="#E8ECEF"/>
<path opacity="0.64" d="M1193.5 695V835" stroke="#E8ECEF"/>
<path opacity="0.64" d="M1213.5 695V835" stroke="#E8ECEF"/>
<path opacity="0.64" d="M1233.5 695V835" stroke="#E8ECEF"/>
<path opacity="0.64" d="M1113 735.5H1253" stroke="#E8ECEF"/>
<path opacity="0.64" d="M1113 755.5H1253" stroke="#E8ECEF"/>
<path opacity="0.64" d="M1113 775.5H1253" stroke="#E8ECEF"/>
<path opacity="0.64" d="M1113 795.5H1253" stroke="#E8ECEF"/>
<path opacity="0.64" d="M1113 815.5H1253" stroke="#E8ECEF"/>
<path opacity="0.5" d="M1252.5 695.5H1113.5V834.5H1252.5V695.5Z" stroke="#DCE5EB"/>
<path opacity="0.5" d="M1252.5 697C1253.33 697 1254 696.328 1254 695.5C1254 694.672 1253.33 694 1252.5 694C1251.67 694 1251 694.672 1251 695.5C1251 696.328 1251.67 697 1252.5 697Z" fill="#C9D3DC"/>
<path opacity="0.5" d="M1113.5 697C1114.33 697 1115 696.328 1115 695.5C1115 694.672 1114.33 694 1113.5 694C1112.67 694 1112 694.672 1112 695.5C1112 696.328 1112.67 697 1113.5 697Z" fill="#C9D3DC"/>
<path opacity="0.5" d="M1113.5 836C1114.33 836 1115 835.328 1115 834.5C1115 833.672 1114.33 833 1113.5 833C1112.67 833 1112 833.672 1112 834.5C1112 835.328 1112.67 836 1113.5 836Z" fill="#C9D3DC"/>
<path opacity="0.64" d="M1252 715.5H1392" stroke="#E8ECEF"/>
<path opacity="0.64" d="M1272.5 695V835" stroke="#E8ECEF"/>
<path opacity="0.64" d="M1292.5 695V835" stroke="#E8ECEF"/>
<path opacity="0.64" d="M1312.5 695V835" stroke="#E8ECEF"/>
<path opacity="0.64" d="M1332.5 695V835" stroke="#E8ECEF"/>
<path opacity="0.64" d="M1352.5 695V835" stroke="#E8ECEF"/>
<path opacity="0.64" d="M1372.5 695V835" stroke="#E8ECEF"/>
<path opacity="0.64" d="M1252 735.5H1392" stroke="#E8ECEF"/>
<path opacity="0.64" d="M1252 755.5H1392" stroke="#E8ECEF"/>
<path opacity="0.64" d="M1252 775.5H1392" stroke="#E8ECEF"/>
<path opacity="0.64" d="M1252 795.5H1392" stroke="#E8ECEF"/>
<path opacity="0.64" d="M1252 815.5H1392" stroke="#E8ECEF"/>
<path opacity="0.5" d="M1391.5 695.5H1252.5V834.5H1391.5V695.5Z" stroke="#DCE5EB"/>
<path opacity="0.5" d="M1391.5 697C1392.33 697 1393 696.328 1393 695.5C1393 694.672 1392.33 694 1391.5 694C1390.67 694 1390 694.672 1390 695.5C1390 696.328 1390.67 697 1391.5 697Z" fill="#C9D3DC"/>
<path opacity="0.5" d="M1252.5 697C1253.33 697 1254 696.328 1254 695.5C1254 694.672 1253.33 694 1252.5 694C1251.67 694 1251 694.672 1251 695.5C1251 696.328 1251.67 697 1252.5 697Z" fill="#C9D3DC"/>
<path opacity="0.5" d="M1252.5 836C1253.33 836 1254 835.328 1254 834.5C1254 833.672 1253.33 833 1252.5 833C1251.67 833 1251 833.672 1251 834.5C1251 835.328 1251.67 836 1252.5 836Z" fill="#C9D3DC"/>
<path opacity="0.64" d="M1391 715.5H1531" stroke="#E8ECEF"/>
<path opacity="0.64" d="M1411.5 695V835" stroke="#E8ECEF"/>
<path opacity="0.64" d="M1431.5 695V835" stroke="#E8ECEF"/>
<path opacity="0.64" d="M1391 735.5H1531" stroke="#E8ECEF"/>
<path opacity="0.64" d="M1391 755.5H1531" stroke="#E8ECEF"/>
<path opacity="0.64" d="M1391 775.5H1531" stroke="#E8ECEF"/>
<path opacity="0.64" d="M1391 795.5H1531" stroke="#E8ECEF"/>
<path opacity="0.64" d="M1391 815.5H1531" stroke="#E8ECEF"/>
<path opacity="0.5" d="M1530.5 695.5H1391.5V834.5H1530.5V695.5Z" stroke="#DCE5EB"/>
<path opacity="0.5" d="M1391.5 697C1392.33 697 1393 696.328 1393 695.5C1393 694.672 1392.33 694 1391.5 694C1390.67 694 1390 694.672 1390 695.5C1390 696.328 1390.67 697 1391.5 697Z" fill="#C9D3DC"/>
<path opacity="0.5" d="M1391.5 836C1392.33 836 1393 835.328 1393 834.5C1393 833.672 1392.33 833 1391.5 833C1390.67 833 1390 833.672 1390 834.5C1390 835.328 1390.67 836 1391.5 836Z" fill="#C9D3DC"/>
<path opacity="0.64" d="M1 854.5H141" stroke="#E8ECEF"/>
<path opacity="0.64" d="M21.5 834V974" stroke="#E8ECEF"/>
<path opacity="0.64" d="M41.5 834V974" stroke="#E8ECEF"/>
<path opacity="0.64" d="M61.5 834V974" stroke="#E8ECEF"/>
<path opacity="0.64" d="M81.5 834V974" stroke="#E8ECEF"/>
<path opacity="0.64" d="M101.5 834V974" stroke="#E8ECEF"/>
<path opacity="0.64" d="M121.5 834V974" stroke="#E8ECEF"/>
<path opacity="0.64" d="M1 874.5H141" stroke="#E8ECEF"/>
<path opacity="0.64" d="M1 894.5H141" stroke="#E8ECEF"/>
<path opacity="0.64" d="M1 914.5H141" stroke="#E8ECEF"/>
<path opacity="0.5" d="M140.5 834.5H1.5V973.5H140.5V834.5Z" stroke="#DCE5EB"/>
<path opacity="0.5" d="M140.5 836C141.328 836 142 835.328 142 834.5C142 833.672 141.328 833 140.5 833C139.672 833 139 833.672 139 834.5C139 835.328 139.672 836 140.5 836Z" fill="#C9D3DC"/>
<path opacity="0.5" d="M1.5 836C2.32843 836 3 835.328 3 834.5C3 833.672 2.32843 833 1.5 833C0.671573 833 0 833.672 0 834.5C0 835.328 0.671573 836 1.5 836Z" fill="#C9D3DC"/>
<path opacity="0.64" d="M140 854.5H280" stroke="#E8ECEF"/>
<path opacity="0.64" d="M160.5 834V974" stroke="#E8ECEF"/>
<path opacity="0.64" d="M180.5 834V974" stroke="#E8ECEF"/>
<path opacity="0.64" d="M200.5 834V974" stroke="#E8ECEF"/>
<path opacity="0.64" d="M220.5 834V974" stroke="#E8ECEF"/>
<path opacity="0.64" d="M240.5 834V974" stroke="#E8ECEF"/>
<path opacity="0.64" d="M260.5 834V974" stroke="#E8ECEF"/>
<path opacity="0.64" d="M140 874.5H280" stroke="#E8ECEF"/>
<path opacity="0.64" d="M140 894.5H280" stroke="#E8ECEF"/>
<path opacity="0.64" d="M140 914.5H280" stroke="#E8ECEF"/>
<path opacity="0.5" d="M279.5 834.5H140.5V973.5H279.5V834.5Z" stroke="#DCE5EB"/>
<path opacity="0.5" d="M279.5 836C280.328 836 281 835.328 281 834.5C281 833.672 280.328 833 279.5 833C278.672 833 278 833.672 278 834.5C278 835.328 278.672 836 279.5 836Z" fill="#C9D3DC"/>
<path opacity="0.5" d="M140.5 836C141.328 836 142 835.328 142 834.5C142 833.672 141.328 833 140.5 833C139.672 833 139 833.672 139 834.5C139 835.328 139.672 836 140.5 836Z" fill="#C9D3DC"/>
<path opacity="0.64" d="M279 854.5H419" stroke="#E8ECEF"/>
<path opacity="0.64" d="M299.5 834V974" stroke="#E8ECEF"/>
<path opacity="0.64" d="M319.5 834V974" stroke="#E8ECEF"/>
<path opacity="0.64" d="M339.5 834V974" stroke="#E8ECEF"/>
<path opacity="0.64" d="M359.5 834V974" stroke="#E8ECEF"/>
<path opacity="0.64" d="M379.5 834V974" stroke="#E8ECEF"/>
<path opacity="0.64" d="M399.5 834V974" stroke="#E8ECEF"/>
<path opacity="0.64" d="M279 874.5H419" stroke="#E8ECEF"/>
<path opacity="0.64" d="M279 894.5H419" stroke="#E8ECEF"/>
<path opacity="0.64" d="M279 914.5H419" stroke="#E8ECEF"/>
<path opacity="0.5" d="M418.5 834.5H279.5V973.5H418.5V834.5Z" stroke="#DCE5EB"/>
<path opacity="0.5" d="M418.5 836C419.328 836 420 835.328 420 834.5C420 833.672 419.328 833 418.5 833C417.672 833 417 833.672 417 834.5C417 835.328 417.672 836 418.5 836Z" fill="#C9D3DC"/>
<path opacity="0.5" d="M279.5 836C280.328 836 281 835.328 281 834.5C281 833.672 280.328 833 279.5 833C278.672 833 278 833.672 278 834.5C278 835.328 278.672 836 279.5 836Z" fill="#C9D3DC"/>
<path opacity="0.64" d="M418 854.5H558" stroke="#E8ECEF"/>
<path opacity="0.64" d="M438.5 834V974" stroke="#E8ECEF"/>
<path opacity="0.64" d="M458.5 834V974" stroke="#E8ECEF"/>
<path opacity="0.64" d="M478.5 834V974" stroke="#E8ECEF"/>
<path opacity="0.64" d="M498.5 834V974" stroke="#E8ECEF"/>
<path opacity="0.64" d="M518.5 834V974" stroke="#E8ECEF"/>
<path opacity="0.64" d="M538.5 834V974" stroke="#E8ECEF"/>
<path opacity="0.64" d="M418 874.5H558" stroke="#E8ECEF"/>
<path opacity="0.64" d="M418 894.5H558" stroke="#E8ECEF"/>
<path opacity="0.64" d="M418 914.5H558" stroke="#E8ECEF"/>
<path opacity="0.5" d="M557.5 834.5H418.5V973.5H557.5V834.5Z" stroke="#DCE5EB"/>
<path opacity="0.5" d="M557.5 836C558.328 836 559 835.328 559 834.5C559 833.672 558.328 833 557.5 833C556.672 833 556 833.672 556 834.5C556 835.328 556.672 836 557.5 836Z" fill="#C9D3DC"/>
<path opacity="0.5" d="M418.5 836C419.328 836 420 835.328 420 834.5C420 833.672 419.328 833 418.5 833C417.672 833 417 833.672 417 834.5C417 835.328 417.672 836 418.5 836Z" fill="#C9D3DC"/>
<path opacity="0.64" d="M557 854.5H697" stroke="#E8ECEF"/>
<path opacity="0.64" d="M577.5 834V974" stroke="#E8ECEF"/>
<path opacity="0.64" d="M597.5 834V974" stroke="#E8ECEF"/>
<path opacity="0.64" d="M617.5 834V974" stroke="#E8ECEF"/>
<path opacity="0.64" d="M637.5 834V974" stroke="#E8ECEF"/>
<path opacity="0.64" d="M657.5 834V974" stroke="#E8ECEF"/>
<path opacity="0.64" d="M677.5 834V974" stroke="#E8ECEF"/>
<path opacity="0.64" d="M557 874.5H697" stroke="#E8ECEF"/>
<path opacity="0.64" d="M557 894.5H697" stroke="#E8ECEF"/>
<path opacity="0.64" d="M557 914.5H697" stroke="#E8ECEF"/>
<path opacity="0.5" d="M696.5 834.5H557.5V973.5H696.5V834.5Z" stroke="#DCE5EB"/>
<path opacity="0.5" d="M696.5 836C697.328 836 698 835.328 698 834.5C698 833.672 697.328 833 696.5 833C695.672 833 695 833.672 695 834.5C695 835.328 695.672 836 696.5 836Z" fill="#C9D3DC"/>
<path opacity="0.5" d="M557.5 836C558.328 836 559 835.328 559 834.5C559 833.672 558.328 833 557.5 833C556.672 833 556 833.672 556 834.5C556 835.328 556.672 836 557.5 836Z" fill="#C9D3DC"/>
<path opacity="0.64" d="M696 854.5H836" stroke="#E8ECEF"/>
<path opacity="0.64" d="M716.5 834V974" stroke="#E8ECEF"/>
<path opacity="0.64" d="M736.5 834V974" stroke="#E8ECEF"/>
<path opacity="0.64" d="M756.5 834V974" stroke="#E8ECEF"/>
<path opacity="0.64" d="M776.5 834V974" stroke="#E8ECEF"/>
<path opacity="0.64" d="M796.5 834V974" stroke="#E8ECEF"/>
<path opacity="0.64" d="M816.5 834V974" stroke="#E8ECEF"/>
<path opacity="0.64" d="M696 874.5H836" stroke="#E8ECEF"/>
<path opacity="0.64" d="M696 894.5H836" stroke="#E8ECEF"/>
<path opacity="0.64" d="M696 914.5H836" stroke="#E8ECEF"/>
<path opacity="0.5" d="M835.5 834.5H696.5V973.5H835.5V834.5Z" stroke="#DCE5EB"/>
<path opacity="0.5" d="M835.5 836C836.328 836 837 835.328 837 834.5C837 833.672 836.328 833 835.5 833C834.672 833 834 833.672 834 834.5C834 835.328 834.672 836 835.5 836Z" fill="#C9D3DC"/>
<path opacity="0.5" d="M696.5 836C697.328 836 698 835.328 698 834.5C698 833.672 697.328 833 696.5 833C695.672 833 695 833.672 695 834.5C695 835.328 695.672 836 696.5 836Z" fill="#C9D3DC"/>
<path opacity="0.64" d="M835 854.5H975" stroke="#E8ECEF"/>
<path opacity="0.64" d="M855.5 834V974" stroke="#E8ECEF"/>
<path opacity="0.64" d="M875.5 834V974" stroke="#E8ECEF"/>
<path opacity="0.64" d="M895.5 834V974" stroke="#E8ECEF"/>
<path opacity="0.64" d="M915.5 834V974" stroke="#E8ECEF"/>
<path opacity="0.64" d="M935.5 834V974" stroke="#E8ECEF"/>
<path opacity="0.64" d="M955.5 834V974" stroke="#E8ECEF"/>
<path opacity="0.64" d="M835 874.5H975" stroke="#E8ECEF"/>
<path opacity="0.64" d="M835 894.5H975" stroke="#E8ECEF"/>
<path opacity="0.64" d="M835 914.5H975" stroke="#E8ECEF"/>
<path opacity="0.5" d="M974.5 834.5H835.5V973.5H974.5V834.5Z" stroke="#DCE5EB"/>
<path opacity="0.5" d="M974.5 836C975.328 836 976 835.328 976 834.5C976 833.672 975.328 833 974.5 833C973.672 833 973 833.672 973 834.5C973 835.328 973.672 836 974.5 836Z" fill="#C9D3DC"/>
<path opacity="0.5" d="M835.5 836C836.328 836 837 835.328 837 834.5C837 833.672 836.328 833 835.5 833C834.672 833 834 833.672 834 834.5C834 835.328 834.672 836 835.5 836Z" fill="#C9D3DC"/>
<path opacity="0.64" d="M974 854.5H1114" stroke="#E8ECEF"/>
<path opacity="0.64" d="M994.5 834V974" stroke="#E8ECEF"/>
<path opacity="0.64" d="M1014.5 834V974" stroke="#E8ECEF"/>
<path opacity="0.64" d="M1034.5 834V974" stroke="#E8ECEF"/>
<path opacity="0.64" d="M1054.5 834V974" stroke="#E8ECEF"/>
<path opacity="0.64" d="M1074.5 834V974" stroke="#E8ECEF"/>
<path opacity="0.64" d="M1094.5 834V974" stroke="#E8ECEF"/>
<path opacity="0.64" d="M974 874.5H1114" stroke="#E8ECEF"/>
<path opacity="0.64" d="M974 894.5H1114" stroke="#E8ECEF"/>
<path opacity="0.64" d="M974 914.5H1114" stroke="#E8ECEF"/>
<path opacity="0.5" d="M1113.5 834.5H974.5V973.5H1113.5V834.5Z" stroke="#DCE5EB"/>
<path opacity="0.5" d="M1113.5 836C1114.33 836 1115 835.328 1115 834.5C1115 833.672 1114.33 833 1113.5 833C1112.67 833 1112 833.672 1112 834.5C1112 835.328 1112.67 836 1113.5 836Z" fill="#C9D3DC"/>
<path opacity="0.5" d="M974.5 836C975.328 836 976 835.328 976 834.5C976 833.672 975.328 833 974.5 833C973.672 833 973 833.672 973 834.5C973 835.328 973.672 836 974.5 836Z" fill="#C9D3DC"/>
<path opacity="0.64" d="M1113 854.5H1253" stroke="#E8ECEF"/>
<path opacity="0.64" d="M1133.5 834V974" stroke="#E8ECEF"/>
<path opacity="0.64" d="M1153.5 834V974" stroke="#E8ECEF"/>
<path opacity="0.64" d="M1173.5 834V974" stroke="#E8ECEF"/>
<path opacity="0.64" d="M1193.5 834V974" stroke="#E8ECEF"/>
<path opacity="0.64" d="M1213.5 834V974" stroke="#E8ECEF"/>
<path opacity="0.64" d="M1233.5 834V974" stroke="#E8ECEF"/>
<path opacity="0.64" d="M1113 874.5H1253" stroke="#E8ECEF"/>
<path opacity="0.64" d="M1113 894.5H1253" stroke="#E8ECEF"/>
<path opacity="0.64" d="M1113 914.5H1253" stroke="#E8ECEF"/>
<path opacity="0.5" d="M1252.5 834.5H1113.5V973.5H1252.5V834.5Z" stroke="#DCE5EB"/>
<path opacity="0.5" d="M1252.5 836C1253.33 836 1254 835.328 1254 834.5C1254 833.672 1253.33 833 1252.5 833C1251.67 833 1251 833.672 1251 834.5C1251 835.328 1251.67 836 1252.5 836Z" fill="#C9D3DC"/>
<path opacity="0.5" d="M1113.5 836C1114.33 836 1115 835.328 1115 834.5C1115 833.672 1114.33 833 1113.5 833C1112.67 833 1112 833.672 1112 834.5C1112 835.328 1112.67 836 1113.5 836Z" fill="#C9D3DC"/>
<path opacity="0.64" d="M1252 854.5H1392" stroke="#E8ECEF"/>
<path opacity="0.64" d="M1272.5 834V974" stroke="#E8ECEF"/>
<path opacity="0.64" d="M1292.5 834V974" stroke="#E8ECEF"/>
<path opacity="0.64" d="M1312.5 834V974" stroke="#E8ECEF"/>
<path opacity="0.64" d="M1332.5 834V974" stroke="#E8ECEF"/>
<path opacity="0.64" d="M1352.5 834V974" stroke="#E8ECEF"/>
<path opacity="0.64" d="M1372.5 834V974" stroke="#E8ECEF"/>
<path opacity="0.64" d="M1252 874.5H1392" stroke="#E8ECEF"/>
<path opacity="0.64" d="M1252 894.5H1392" stroke="#E8ECEF"/>
<path opacity="0.64" d="M1252 914.5H1392" stroke="#E8ECEF"/>
<path opacity="0.5" d="M1391.5 834.5H1252.5V973.5H1391.5V834.5Z" stroke="#DCE5EB"/>
<path opacity="0.5" d="M1391.5 836C1392.33 836 1393 835.328 1393 834.5C1393 833.672 1392.33 833 1391.5 833C1390.67 833 1390 833.672 1390 834.5C1390 835.328 1390.67 836 1391.5 836Z" fill="#C9D3DC"/>
<path opacity="0.5" d="M1252.5 836C1253.33 836 1254 835.328 1254 834.5C1254 833.672 1253.33 833 1252.5 833C1251.67 833 1251 833.672 1251 834.5C1251 835.328 1251.67 836 1252.5 836Z" fill="#C9D3DC"/>
<path opacity="0.64" d="M1391 854.5H1531" stroke="#E8ECEF"/>
<path opacity="0.64" d="M1411.5 834V974" stroke="#E8ECEF"/>
<path opacity="0.64" d="M1431.5 834V974" stroke="#E8ECEF"/>
<path opacity="0.64" d="M1391 874.5H1531" stroke="#E8ECEF"/>
<path opacity="0.64" d="M1391 894.5H1531" stroke="#E8ECEF"/>
<path opacity="0.64" d="M1391 914.5H1531" stroke="#E8ECEF"/>
<path opacity="0.5" d="M1530.5 834.5H1391.5V973.5H1530.5V834.5Z" stroke="#DCE5EB"/>
<path opacity="0.5" d="M1391.5 836C1392.33 836 1393 835.328 1393 834.5C1393 833.672 1392.33 833 1391.5 833C1390.67 833 1390 833.672 1390 834.5C1390 835.328 1390.67 836 1391.5 836Z" fill="#C9D3DC"/>
</g>
</svg>
