<svg width="14" height="15" viewBox="0 0 14 15" fill="none" xmlns="http://www.w3.org/2000/svg">
<path d="M7 0.96875C3.25391 0.96875 0.21875 4.00391 0.21875 7.75C0.21875 11.4961 3.25391 14.5312 7 14.5312C10.7461 14.5312 13.7812 11.4961 13.7812 7.75C13.7812 4.00391 10.7461 0.96875 7 0.96875ZM11.2383 6.32812L6.20703 11.3594C6.125 11.4141 5.98828 11.4688 5.90625 11.4688C5.79688 11.4688 5.66016 11.4141 5.57812 11.3594L2.73438 8.51562C2.67969 8.43359 2.625 8.29688 2.625 8.1875C2.625 8.10547 2.67969 7.96875 2.73438 7.88672L3.36328 7.28516C3.41797 7.20312 3.55469 7.14844 3.66406 7.14844C3.77344 7.14844 3.91016 7.20312 3.96484 7.28516L5.90625 9.19922L10.0078 5.09766C10.0625 5.01562 10.1992 4.96094 10.3086 4.96094C10.418 4.96094 10.5547 5.01562 10.6094 5.09766L11.2383 5.69922C11.293 5.78125 11.3477 5.91797 11.3477 6C11.3477 6.10938 11.293 6.24609 11.2383 6.32812Z" fill="#707177"/>
</svg>
