<svg width="136" height="136" viewBox="0 0 136 136" fill="none" xmlns="http://www.w3.org/2000/svg">
<circle opacity="0.25" cx="68" cy="68" r="68" fill="#E4EDFF"/>
<circle cx="68" cy="68" r="45" fill="#E4EDFF"/>
<g clip-path="url(#clip0)">
<path d="M61.75 64.8752H74.25C74.9406 64.8752 75.5 64.3159 75.5 63.6252V62.3752C75.5 61.6846 74.9406 61.1252 74.25 61.1252H61.75C61.0594 61.1252 60.5 61.6846 60.5 62.3752V63.6252C60.5 64.3159 61.0594 64.8752 61.75 64.8752ZM60.5 71.1252C60.5 71.8159 61.0594 72.3752 61.75 72.3752H74.25C74.9406 72.3752 75.5 71.8159 75.5 71.1252V69.8752C75.5 69.1846 74.9406 68.6252 74.25 68.6252H61.75C61.0594 68.6252 60.5 69.1846 60.5 69.8752V71.1252ZM68 80.5885C66.7172 80.5885 65.4344 80.1932 64.3391 79.4018L48 67.5987V84.2502C48 86.3213 49.6789 88.0002 51.75 88.0002H84.25C86.3211 88.0002 88 86.3213 88 84.2502V67.5987L71.6609 79.4018C70.5656 80.1924 69.2828 80.5885 68 80.5885ZM86.5633 60.7307C85.8719 60.1885 85.2164 59.6784 84.25 58.9487V55.5002C84.25 53.4291 82.5711 51.7502 80.5 51.7502H74.4414C74.2039 51.5784 73.9828 51.4174 73.7352 51.2377C72.4219 50.2791 69.8125 47.9729 68 48.0002C66.1875 47.9729 63.5789 50.2791 62.2648 51.2377C62.0172 51.4174 61.7961 51.5784 61.5586 51.7502H55.5C53.4289 51.7502 51.75 53.4291 51.75 55.5002V58.9487C50.7836 59.6776 50.1281 60.1885 49.4367 60.7307C48.9892 61.0814 48.6273 61.5293 48.3784 62.0406C48.1295 62.5518 48.0001 63.1129 48 63.6815V64.5135L55.5 69.9315V55.5002H80.5V69.9315L88 64.5135V63.6815C88 62.5299 87.4703 61.4416 86.5633 60.7307Z" fill="#2C6DF9"/>
</g>
<defs>
<clipPath id="clip0">
<rect width="40" height="40" fill="white" transform="translate(48 48)"/>
</clipPath>
</defs>
</svg>
