<svg width="18" height="18" viewBox="0 0 18 18" fill="none" xmlns="http://www.w3.org/2000/svg">
<g clip-path="url(#clip0)">
<path d="M4.49981 0C4.14475 0 3.85693 0.287816 3.85693 0.642869V1.92857H5.14264V0.642869C5.14264 0.287816 4.85482 0 4.49981 0Z" fill="#00C598"/>
<path d="M13.4998 0C13.1447 0 12.8569 0.287816 12.8569 0.642869V1.92857H14.1426V0.642869C14.1427 0.287816 13.8549 0 13.4998 0Z" fill="#00C598"/>
<path d="M16.0714 1.92847H14.1429V4.49991C14.1429 4.85496 13.855 5.14278 13.5 5.14278C13.1449 5.14278 12.8571 4.85496 12.8571 4.49991V1.92847H5.14284V4.49991C5.14284 4.85496 4.85502 5.14278 4.49997 5.14278C4.14492 5.14278 3.8571 4.85496 3.8571 4.49991V1.92847H1.92857C0.863449 1.92847 0 2.79192 0 3.85704V16.0713C0 17.1365 0.863449 17.9999 1.92857 17.9999H16.0714C17.1365 17.9999 18 17.1365 18 16.0713V3.85704C18 2.79192 17.1365 1.92847 16.0714 1.92847ZM16.7143 16.0713C16.7143 16.4264 16.4264 16.7142 16.0714 16.7142H1.92857C1.57352 16.7142 1.2857 16.4264 1.2857 16.0713V7.71418H16.7143V16.0713Z" fill="#00C598"/>
<rect x="4.09082" y="10.6365" width="3.27273" height="3.27273" fill="#00C598"/>
<rect x="9.81836" y="10.6365" width="3.27273" height="3.27273" fill="#00C598"/>
</g>
<defs>
<clipPath id="clip0">
<rect width="18" height="18" fill="white"/>
</clipPath>
</defs>
</svg>
