<svg width="14" height="14" viewBox="0 0 14 14" fill="none" xmlns="http://www.w3.org/2000/svg">
<g clip-path="url(#clip0)">
<path d="M13.8246 6.83603C14.0784 6.55691 14.0539 6.12912 13.7699 5.88077L7.51311 0.406046C7.22912 0.157693 6.77381 0.162895 6.49579 0.417774L0.21774 6.17266C-0.0602766 6.42753 -0.0739218 6.85478 0.187529 7.12655L0.344928 7.29047C0.606059 7.56224 1.02815 7.59464 1.28709 7.36262L1.75628 6.94245V13.0939C1.75628 13.4713 2.06209 13.7768 2.43922 13.7768H4.88643C5.26356 13.7768 5.56937 13.4713 5.56937 13.0939V8.79036H8.69081V13.0939C8.68537 13.471 8.95522 13.7765 9.33236 13.7765H11.9258C12.3029 13.7765 12.6087 13.471 12.6087 13.0936V7.02907C12.6087 7.02907 12.7383 7.14261 12.8982 7.28313C13.0578 7.42337 13.393 7.31092 13.6468 7.03153L13.8246 6.83603Z" fill="white"/>
</g>
<defs>
<clipPath id="clip0">
<rect width="14" height="14" fill="white"/>
</clipPath>
</defs>
</svg>
