<svg width="12" height="14" viewBox="0 0 12 14" fill="none" xmlns="http://www.w3.org/2000/svg">
<path d="M11.4278 6.0311H10.2526C10.0052 5.16512 9.21649 4.5311 8.28866 4.5311C7.36083 4.5311 6.57216 5.18059 6.30928 6.0311H0.572165C0.262887 6.0311 0 6.27852 0 6.60327C0 6.91255 0.247423 7.17543 0.572165 7.17543H6.30928C6.5567 8.04141 7.34536 8.67543 8.2732 8.67543C9.20103 8.67543 9.98969 8.04141 10.2371 7.17543H11.4124C11.7216 7.17543 11.9845 6.92801 11.9845 6.60327C12 6.29399 11.7526 6.0311 11.4278 6.0311ZM8.28866 7.5311C7.79381 7.5311 7.36082 7.12904 7.36082 6.60327C7.36082 6.07749 7.76289 5.67543 8.28866 5.67543C8.81443 5.67543 9.21649 6.07749 9.21649 6.60327C9.21649 7.12904 8.78351 7.5311 8.28866 7.5311Z" fill="#707177"/>
<path d="M0.572165 2.64433H1.79381C2.04124 3.51031 2.8299 4.14433 3.75773 4.14433C4.68557 4.14433 5.47423 3.51031 5.72165 2.64433H11.4278C11.7371 2.64433 12 2.39691 12 2.07217C12 1.74742 11.7526 1.5 11.4278 1.5H5.72165C5.47423 0.634021 4.68557 0 3.75773 0C2.8299 0 2.04124 0.634021 1.79381 1.5H0.572165C0.262887 1.5 0 1.74742 0 2.07217C0 2.39691 0.247423 2.64433 0.572165 2.64433ZM3.75773 1.14433C4.25258 1.14433 4.68557 1.54639 4.68557 2.07217C4.68557 2.59794 4.2835 3 3.75773 3C3.23196 3 2.8299 2.56701 2.8299 2.07217C2.8299 1.57732 3.26289 1.14433 3.75773 1.14433Z" fill="#707177"/>
<path d="M11.4278 10.562H5.72165C5.47423 9.69599 4.68557 9.06197 3.75773 9.06197C2.8299 9.06197 2.04124 9.69599 1.79381 10.562H0.572165C0.262887 10.562 0 10.8094 0 11.1341C0 11.4589 0.247423 11.7063 0.572165 11.7063H1.79381C2.04124 12.5723 2.8299 13.2063 3.75773 13.2063C4.68557 13.2063 5.47423 12.5723 5.72165 11.7063H11.4278C11.7371 11.7063 12 11.4589 12 11.1341C12 10.8094 11.7526 10.562 11.4278 10.562ZM3.75773 12.062C3.26289 12.062 2.8299 11.6599 2.8299 11.1341C2.8299 10.6084 3.23196 10.2063 3.75773 10.2063C4.2835 10.2063 4.68557 10.6084 4.68557 11.1341C4.68557 11.6599 4.25258 12.062 3.75773 12.062Z" fill="#707177"/>
</svg>
