<svg width="13" height="12" viewBox="0 0 13 12" fill="none" xmlns="http://www.w3.org/2000/svg">
<path d="M6.42543 4.34755C6.37463 4.4001 6.31398 4.44213 6.24694 4.47124C6.1799 4.50035 6.10778 4.51597 6.03471 4.51721C5.96163 4.51845 5.88902 4.50528 5.82104 4.47846C5.75305 4.45163 5.69101 4.41168 5.63847 4.36088L4.06323 2.83829V9.61259C4.06323 9.76018 4.0046 9.90173 3.90023 10.0061C3.79587 10.1105 3.65432 10.1691 3.50672 10.1691C3.35913 10.1691 3.21758 10.1105 3.11321 10.0061C3.00884 9.90173 2.95021 9.76018 2.95021 9.61259V2.83829L1.37498 4.36088C1.32273 4.4131 1.2606 4.4544 1.19222 4.48237C1.12384 4.51033 1.05058 4.5244 0.976701 4.52376C0.902827 4.52311 0.82982 4.50777 0.761939 4.47861C0.694058 4.44946 0.632661 4.40708 0.581329 4.35395C0.529997 4.30082 0.489758 4.238 0.462958 4.16915C0.436158 4.10031 0.423333 4.02681 0.425233 3.95296C0.427132 3.87911 0.443717 3.80637 0.47402 3.739C0.504324 3.67162 0.547739 3.61095 0.601734 3.56053L3.11995 1.12641C3.12924 1.11739 3.13998 1.11107 3.14975 1.10281L3.15901 1.09516C3.17112 1.08542 3.1823 1.07407 3.19499 1.06547C3.19708 1.06408 3.19947 1.06316 3.20159 1.06177C3.21667 1.05183 3.2327 1.04446 3.24847 1.03614C3.26469 1.02763 3.28047 1.01828 3.29728 1.01146C3.31455 1.00501 3.33214 0.999434 3.34998 0.994763C3.36453 0.990506 3.37867 0.984635 3.39347 0.981574L3.40073 0.980628C3.41846 0.977205 3.43632 0.976371 3.45427 0.974673C3.47058 0.973171 3.48666 0.970416 3.50305 0.970305L3.50672 0.969971L3.51017 0.970305C3.52645 0.970444 3.54248 0.973087 3.5587 0.974701C3.57662 0.976371 3.59448 0.977205 3.61221 0.9806L3.62003 0.98163C3.6345 0.984635 3.6483 0.99045 3.66252 0.994624C3.68056 0.999283 3.69835 1.00485 3.71583 1.01132C3.71833 1.01235 3.72115 1.01274 3.72362 1.0138C3.73753 1.01967 3.7502 1.02846 3.76363 1.0355C3.78 1.04334 3.79596 1.05201 3.81144 1.06149C3.81378 1.06302 3.81636 1.0641 3.81867 1.06566C3.8298 1.07309 3.83926 1.08303 3.84981 1.09135C3.85476 1.09524 3.85958 1.09928 3.86439 1.10337C3.87388 1.11138 3.88434 1.11753 3.89339 1.12629L6.41171 3.56053C6.4643 3.6113 6.50637 3.67193 6.53552 3.73896C6.56467 3.806 6.58032 3.87811 6.5816 3.9512C6.58287 4.02428 6.56974 4.0969 6.54294 4.16491C6.51614 4.23291 6.47621 4.29498 6.42543 4.34755ZM12.2688 8.1828C12.218 8.13025 12.1573 8.08822 12.0903 8.05911C12.0233 8.03 11.9511 8.01438 11.8781 8.01315C11.805 8.01191 11.7324 8.02509 11.6644 8.05191C11.5964 8.07874 11.5344 8.1187 11.4818 8.1695L9.9066 9.69206V2.91776C9.9066 2.77016 9.84797 2.62861 9.7436 2.52425C9.63924 2.41988 9.49768 2.36125 9.35009 2.36125C9.20249 2.36125 9.06094 2.41988 8.95658 2.52425C8.85221 2.62861 8.79358 2.77016 8.79358 2.91776V9.69206L7.21835 8.1695C7.16611 8.11718 7.10398 8.0758 7.03558 8.04776C6.96718 8.01972 6.89388 8.0056 6.81995 8.0062C6.74603 8.00681 6.67297 8.02214 6.60503 8.05129C6.5371 8.08045 6.47566 8.12285 6.42429 8.17601C6.37293 8.22917 6.33267 8.29204 6.30587 8.36094C6.27906 8.42983 6.26626 8.50338 6.2682 8.57728C6.27013 8.65118 6.28677 8.72395 6.31715 8.79135C6.34752 8.85875 6.39102 8.91942 6.4451 8.96982L8.96331 11.4039C8.97319 11.4135 8.98457 11.4204 8.99495 11.429C9.00266 11.4354 9.01014 11.4421 9.01821 11.4482C9.02703 11.4548 9.03527 11.4623 9.0444 11.4682C9.06061 11.4782 9.07733 11.4872 9.09448 11.4954C9.10798 11.5024 9.12056 11.511 9.13472 11.5169L9.14065 11.5191C9.16025 11.5263 9.18025 11.5324 9.20055 11.5374C9.21374 11.5411 9.22621 11.5464 9.23979 11.5491L9.24368 11.5499C9.31389 11.5637 9.38612 11.5637 9.45633 11.5499L9.46022 11.5491C9.4738 11.5464 9.48627 11.5411 9.49946 11.5374C9.51976 11.5324 9.53976 11.5263 9.55937 11.5191L9.56529 11.5169C9.57945 11.511 9.59203 11.5024 9.60553 11.4954C9.62268 11.4872 9.6394 11.4782 9.65561 11.4682C9.66474 11.4623 9.67298 11.4548 9.6818 11.4482C9.68987 11.4421 9.69735 11.4354 9.70506 11.429C9.71544 11.4203 9.72682 11.4135 9.7367 11.4039L12.2551 8.96982C12.3077 8.91905 12.3497 8.85841 12.3789 8.79138C12.408 8.72435 12.4237 8.65223 12.425 8.57915C12.4262 8.50607 12.4131 8.43345 12.3863 8.36544C12.3595 8.29743 12.3196 8.23537 12.2688 8.1828Z" fill="#707177"/>
</svg>
