<svg width="24" height="24" viewBox="0 0 24 24" fill="none" xmlns="http://www.w3.org/2000/svg">
<circle cx="12" cy="12" r="12" fill="#FFEEEE"/>
<path d="M13.656 10.3477C13.5008 10.3477 13.375 10.4735 13.375 10.6287V15.9402C13.375 16.0953 13.5008 16.2212 13.656 16.2212C13.8113 16.2212 13.9371 16.0953 13.9371 15.9402V10.6287C13.9371 10.4735 13.8113 10.3477 13.656 10.3477Z" fill="#FD4546"/>
<path d="M10.3396 10.3477C10.1844 10.3477 10.0586 10.4735 10.0586 10.6287V15.9402C10.0586 16.0953 10.1844 16.2212 10.3396 16.2212C10.4948 16.2212 10.6207 16.0953 10.6207 15.9402V10.6287C10.6207 10.4735 10.4948 10.3477 10.3396 10.3477Z" fill="#FD4546"/>
<path d="M7.92317 9.57251V16.4965C7.92317 16.9057 8.07324 17.2901 8.33538 17.5658C8.59632 17.8424 8.95947 17.9993 9.33951 18H14.6567C15.0368 17.9993 15.4 17.8424 15.6608 17.5658C15.923 17.2901 16.073 16.9057 16.073 16.4965V9.57251C16.5941 9.43419 16.9318 8.93076 16.8621 8.39603C16.7923 7.86142 16.3368 7.4615 15.7976 7.46139H14.3587V7.1101C14.3604 6.81469 14.2436 6.53103 14.0345 6.32234C13.8253 6.11377 13.5412 5.99762 13.2458 6.00004H10.7504C10.455 5.99762 10.1709 6.11377 9.96173 6.32234C9.75261 6.53103 9.6358 6.81469 9.63745 7.1101V7.46139H8.1986C7.65938 7.4615 7.20391 7.86142 7.13409 8.39603C7.06438 8.93076 7.40206 9.43419 7.92317 9.57251ZM14.6567 17.4379H9.33951C8.85902 17.4379 8.48523 17.0252 8.48523 16.4965V9.59721H15.511V16.4965C15.511 17.0252 15.1372 17.4379 14.6567 17.4379ZM10.1995 7.1101C10.1976 6.96377 10.2552 6.82293 10.359 6.71963C10.4628 6.61633 10.6039 6.55957 10.7504 6.5621H13.2458C13.3923 6.55957 13.5334 6.61633 13.6372 6.71963C13.741 6.82282 13.7986 6.96377 13.7967 7.1101V7.46139H10.1995V7.1101ZM8.1986 8.02345H15.7976C16.077 8.02345 16.3034 8.24992 16.3034 8.5293C16.3034 8.80868 16.077 9.03515 15.7976 9.03515H8.1986C7.91922 9.03515 7.69275 8.80868 7.69275 8.5293C7.69275 8.24992 7.91922 8.02345 8.1986 8.02345Z" fill="#FD4546"/>
<path d="M11.9959 10.3477C11.8406 10.3477 11.7148 10.4735 11.7148 10.6287V15.9402C11.7148 16.0953 11.8406 16.2212 11.9959 16.2212C12.1511 16.2212 12.2769 16.0953 12.2769 15.9402V10.6287C12.2769 10.4735 12.1511 10.3477 11.9959 10.3477Z" fill="#FD4546"/>
</svg>
