<svg width="11" height="13" viewBox="0 0 11 13" fill="none" xmlns="http://www.w3.org/2000/svg">
<path d="M1.08246 3.87019V11.3712C1.08246 11.8145 1.24503 12.2309 1.52902 12.5296C1.81171 12.8292 2.20511 12.9992 2.61683 13H8.3771C8.78893 12.9992 9.18234 12.8292 9.4649 12.5296C9.7489 12.2309 9.91147 11.8145 9.91147 11.3712V3.87019C10.476 3.72034 10.8418 3.17495 10.7663 2.59566C10.6907 2.0165 10.1972 1.58325 9.61309 1.58313H8.05433V1.20257C8.05612 0.882546 7.92958 0.575243 7.70303 0.349166C7.47647 0.123208 7.1687 -0.0026145 6.84867 1.85507e-06H4.14526C3.82523 -0.0026145 3.51745 0.123208 3.2909 0.349166C3.06435 0.575243 2.93781 0.882546 2.93959 1.20257V1.58313H1.38084C0.79668 1.58325 0.303259 2.0165 0.227623 2.59566C0.152105 3.17495 0.517919 3.72034 1.08246 3.87019ZM8.3771 12.3911H2.61683C2.0963 12.3911 1.69135 11.9439 1.69135 11.3712V3.89694H9.30257V11.3712C9.30257 11.9439 8.89763 12.3911 8.3771 12.3911ZM3.54849 1.20257C3.54647 1.04405 3.60879 0.891465 3.72129 0.779557C3.83367 0.667648 3.98661 0.606164 4.14526 0.608899H6.84867C7.00731 0.606164 7.16025 0.667648 7.27264 0.779557C7.38514 0.891346 7.44746 1.04405 7.44543 1.20257V1.58313H3.54849V1.20257ZM1.38084 2.19203H9.61309C9.91575 2.19203 10.1611 2.43737 10.1611 2.74004C10.1611 3.0427 9.91575 3.28805 9.61309 3.28805H1.38084C1.07818 3.28805 0.832833 3.0427 0.832833 2.74004C0.832833 2.43737 1.07818 2.19203 1.38084 2.19203Z" fill="#2C6DF9"/>
</svg>
