<svg width="13" height="13" viewBox="0 0 13 13" fill="none" xmlns="http://www.w3.org/2000/svg">
<g clip-path="url(#clip0)">
<path d="M8.29322 4.70992C8.12506 4.70992 7.98877 4.8462 7.98877 5.01436V10.7685C7.98877 10.9365 8.12506 11.0729 8.29322 11.0729C8.46138 11.0729 8.59767 10.9365 8.59767 10.7685V5.01436C8.59767 4.8462 8.46138 4.70992 8.29322 4.70992Z" fill="#2C6DF9"/>
<path d="M4.70045 4.70992C4.53228 4.70992 4.396 4.8462 4.396 5.01436V10.7685C4.396 10.9365 4.53228 11.0729 4.70045 11.0729C4.86861 11.0729 5.0049 10.9365 5.0049 10.7685V5.01436C5.0049 4.8462 4.86861 4.70992 4.70045 4.70992Z" fill="#2C6DF9"/>
<path d="M2.08246 3.87019V11.3712C2.08246 11.8145 2.24503 12.2309 2.52902 12.5296C2.81171 12.8292 3.20511 12.9992 3.61683 13H9.3771C9.78893 12.9992 10.1823 12.8292 10.4649 12.5296C10.7489 12.2309 10.9115 11.8145 10.9115 11.3712V3.87019C11.476 3.72034 11.8418 3.17495 11.7663 2.59566C11.6907 2.0165 11.1972 1.58325 10.6131 1.58313H9.05433V1.20257C9.05612 0.882546 8.92958 0.575243 8.70303 0.349166C8.47647 0.123208 8.1687 -0.0026145 7.84867 1.85507e-06H5.14526C4.82523 -0.0026145 4.51745 0.123208 4.2909 0.349166C4.06435 0.575243 3.93781 0.882546 3.93959 1.20257V1.58313H2.38084C1.79668 1.58325 1.30326 2.0165 1.22762 2.59566C1.1521 3.17495 1.51792 3.72034 2.08246 3.87019ZM9.3771 12.3911H3.61683C3.0963 12.3911 2.69135 11.9439 2.69135 11.3712V3.89694H10.3026V11.3712C10.3026 11.9439 9.89763 12.3911 9.3771 12.3911ZM4.54849 1.20257C4.54647 1.04405 4.60879 0.891465 4.72129 0.779557C4.83367 0.667648 4.98661 0.606164 5.14526 0.608899H7.84867C8.00731 0.606164 8.16025 0.667648 8.27264 0.779557C8.38514 0.891346 8.44746 1.04405 8.44543 1.20257V1.58313H4.54849V1.20257ZM2.38084 2.19203H10.6131C10.9158 2.19203 11.1611 2.43737 11.1611 2.74004C11.1611 3.0427 10.9158 3.28805 10.6131 3.28805H2.38084C2.07818 3.28805 1.83283 3.0427 1.83283 2.74004C1.83283 2.43737 2.07818 2.19203 2.38084 2.19203Z" fill="#2C6DF9"/>
<path d="M6.49683 4.70992C6.32867 4.70992 6.19238 4.8462 6.19238 5.01436V10.7685C6.19238 10.9365 6.32867 11.0729 6.49683 11.0729C6.66498 11.0729 6.80127 10.9365 6.80127 10.7685V5.01436C6.80127 4.8462 6.66498 4.70992 6.49683 4.70992Z" fill="#2C6DF9"/>
</g>
<defs>
<clipPath id="clip0">
<rect width="13" height="13" fill="white"/>
</clipPath>
</defs>
</svg>
