<svg width="13" height="15" viewBox="0 0 13 15" fill="none" xmlns="http://www.w3.org/2000/svg">
<path d="M7.32812 12.125C7.10938 12.125 7 12.0156 7 11.7969V5.89062C7 5.67188 7.10938 5.5625 7.32812 5.5625H7.98438C8.20312 5.5625 8.3125 5.67188 8.3125 5.89062V11.7969C8.3125 12.0156 8.20312 12.125 7.98438 12.125H7.32812ZM11.8125 2.9375C11.9401 2.9375 12.0404 2.98307 12.1133 3.07422C12.2044 3.14714 12.25 3.2474 12.25 3.375V3.8125C12.25 3.9401 12.2044 4.04948 12.1133 4.14062C12.0404 4.21354 11.9401 4.25 11.8125 4.25H11.375V13.4375C11.375 13.8021 11.2474 14.112 10.9922 14.3672C10.737 14.6224 10.4271 14.75 10.0625 14.75H2.1875C1.82292 14.75 1.51302 14.6224 1.25781 14.3672C1.0026 14.112 0.875 13.8021 0.875 13.4375V4.25H0.4375C0.309896 4.25 0.200521 4.21354 0.109375 4.14062C0.0364583 4.04948 0 3.9401 0 3.8125V3.375C0 3.2474 0.0364583 3.14714 0.109375 3.07422C0.200521 2.98307 0.309896 2.9375 0.4375 2.9375H2.67969L3.60938 1.37891C3.71875 1.21484 3.88281 1.06901 4.10156 0.941406C4.32031 0.813802 4.53906 0.75 4.75781 0.75H7.49219C7.63802 0.75 7.78385 0.777344 7.92969 0.832031C8.07552 0.886719 8.21224 0.96875 8.33984 1.07812C8.46745 1.16927 8.56771 1.26953 8.64062 1.37891L9.57031 2.9375H11.8125ZM4.70312 2.14453L4.21094 2.9375H8.03906L7.54688 2.14453C7.51042 2.08984 7.46484 2.0625 7.41016 2.0625H4.83984C4.78516 2.0625 4.73958 2.08984 4.70312 2.14453ZM10.0625 13.4375V4.25H2.1875V13.4375H10.0625ZM4.26562 12.125C4.04688 12.125 3.9375 12.0156 3.9375 11.7969V5.89062C3.9375 5.67188 4.04688 5.5625 4.26562 5.5625H4.92188C5.14062 5.5625 5.25 5.67188 5.25 5.89062V11.7969C5.25 12.0156 5.14062 12.125 4.92188 12.125H4.26562Z" fill="#FF0000"/>
</svg>
