<svg width="12" height="12" viewBox="0 0 12 12" fill="none" xmlns="http://www.w3.org/2000/svg">
<g clip-path="url(#clip0)">
<path d="M10.75 6.75C11.439 6.75 12 6.189 12 5.50001L12 1.5C12 0.811008 11.439 0.250008 10.75 0.250008L9.25001 0.250007C8.9685 0.250007 8.70952 0.345 8.50001 0.503015L8.50001 6.75L10.75 6.75Z" fill="#B3B4B9"/>
<path d="M9.66094e-06 4.87501C9.63467e-06 5.1755 0.119001 5.45551 0.32551 5.66202C0.0920015 5.91751 -0.0269914 6.26002 0.00551698 6.61651C0.0640167 7.25201 0.636525 7.75002 1.30951 7.75002L4.39801 7.75002C4.24501 8.21452 4.00002 9.06601 4.00002 9.75001C4.00002 10.8345 4.92151 11.75 5.50002 11.75C6.01951 11.75 6.39052 11.4575 6.40651 11.4455C6.4655 11.398 6.5 11.326 6.5 11.25L6.5 9.55452L7.94 6.43501L8 6.40452L8 1.04551C7.59301 0.853508 7.07802 0.750008 6.75001 0.750008L2.1605 0.750007C1.616 0.750007 1.13949 1.11702 1.02751 1.6235C0.970018 1.88401 1.00351 2.14651 1.118 2.37451C0.748509 2.56051 0.500002 2.94101 0.500002 3.37501C0.500002 3.55201 0.540502 3.72151 0.617494 3.875C0.248002 4.061 9.69883e-06 4.44151 9.66094e-06 4.87501Z" fill="#B3B4B9"/>
</g>
<defs>
<clipPath id="clip0">
<rect width="12" height="12" fill="white" transform="translate(12 12) rotate(-180)"/>
</clipPath>
</defs>
</svg>
