<svg width="15" height="16" viewBox="0 0 15 16" fill="none" xmlns="http://www.w3.org/2000/svg">
<path d="M2.59144 0L0 2.59144V16H11.7333V0H2.59144Z" fill="#E2574C"/>
<path fill-rule="evenodd" clip-rule="evenodd" d="M10.2764 11.0422C10.0143 10.7428 9.63107 10.5352 9.19791 10.4575C8.513 10.3347 7.86271 10.2895 7.2515 10.3008C6.69523 9.73905 6.15738 9.07591 5.79033 8.34751C6.1114 7.28855 6.28124 6.37282 6.3768 5.8569C6.426 5.5917 6.35248 5.30955 6.17997 5.10209C6.01696 4.90622 5.78117 4.79395 5.53306 4.79395H5.53248C5.29119 4.79405 5.08619 4.89265 4.93972 5.07903C4.44936 5.70343 4.7845 7.21493 4.8569 7.51235C4.93101 7.81366 5.03624 8.10698 5.16563 8.39132C4.91105 9.19382 4.56775 10.0653 4.10305 10.8899C2.55202 11.4556 1.62795 12.2329 1.55213 12.2982C1.29468 12.5486 1.16741 12.8001 1.17408 13.0457C1.17787 13.1849 1.22786 13.3906 1.44481 13.5801C1.61103 13.725 1.82365 13.7975 2.03965 13.7975C2.2587 13.7975 2.48136 13.723 2.66224 13.5741C3.41097 12.958 4.01093 12.1934 4.49234 11.3814C5.21295 11.1359 6.06616 10.942 7.02634 10.8961C7.71692 11.5647 8.40524 12.0751 8.8369 12.3714C9.29535 12.686 9.90803 12.6452 10.2943 12.2749C10.6555 11.928 10.6488 11.4672 10.2764 11.0422ZM2.29143 13.1234C2.15254 13.2378 1.94888 13.2454 1.82864 13.1403C1.78249 13.0999 1.75853 13.0628 1.75758 13.03C1.75683 13.0031 1.76916 12.9012 1.94566 12.7288C1.95858 12.7179 2.53805 12.2305 3.55027 11.7597C3.18967 12.2621 2.77304 12.7271 2.29143 13.1234ZM5.53296 5.37754C5.46172 5.37754 5.42885 5.40129 5.39882 5.43949C5.16416 5.73821 5.2721 6.75026 5.42369 7.37366C5.42885 7.39426 5.43415 7.41476 5.43948 7.4353C5.62164 6.72804 5.73224 6.13228 5.8022 5.75545L5.80311 5.7505V5.7504C5.82098 5.65378 5.7942 5.5509 5.73129 5.47529C5.70092 5.4388 5.63477 5.37754 5.53296 5.37754ZM4.89571 10.6381C5.15162 10.1228 5.36537 9.60119 5.54433 9.09669C5.82153 9.54516 6.14905 9.96377 6.49331 10.3449C5.91767 10.4011 5.38361 10.5056 4.89571 10.6381ZM9.16713 11.8901C9.39871 12.0489 9.7029 12.0339 9.89003 11.8539C9.96376 11.7831 10.0646 11.6862 9.83758 11.4268C9.66203 11.2265 9.39833 11.0863 9.09493 11.032C8.67831 10.9573 8.27459 10.9136 7.8855 10.8955C8.38362 11.3312 8.84911 11.6718 9.16713 11.8901Z" fill="white"/>
<path d="M2.59144 2.59144V0L0 2.59144H2.59144Z" fill="#B53629"/>
<path d="M14.5065 4.39048H8.95988C8.72423 4.39048 8.5332 4.19946 8.5332 3.96381V1.58878C8.5332 1.35314 8.72423 1.16211 8.95988 1.16211H14.5065C14.7422 1.16211 14.9332 1.35314 14.9332 1.58878V3.96381C14.9332 4.19946 14.7422 4.39048 14.5065 4.39048Z" fill="#27A2DB"/>
<path fill-rule="evenodd" clip-rule="evenodd" d="M10.655 2.51834C10.655 2.30159 10.5926 2.14118 10.4681 2.0371C10.3435 1.93293 10.1456 1.88086 9.87415 1.88086H9.25977V3.67034H9.56183V3.14554H9.87934C10.1421 3.14554 10.337 3.09521 10.4641 2.99449C10.5914 2.89376 10.655 2.73509 10.655 2.51834ZM10.3452 2.49396C10.3452 2.61772 10.3149 2.71157 10.2543 2.77563C10.1937 2.83959 10.0797 2.87157 9.91245 2.87157H9.56183V2.15479H9.86892C10.0329 2.15479 10.1531 2.18042 10.23 2.23156C10.3068 2.28281 10.3452 2.37032 10.3452 2.49396Z" fill="#EBF0F3"/>
<path fill-rule="evenodd" clip-rule="evenodd" d="M12.6244 2.7667C12.6244 2.48848 12.5384 2.27128 12.3659 2.11514C12.1936 1.959 11.9469 1.88086 11.6261 1.88086H11.0117V3.67034H11.6057C11.9503 3.67034 12.2063 3.58929 12.3736 3.4271C12.5409 3.26502 12.6244 3.04481 12.6244 2.7667ZM11.6159 2.15986C12.0852 2.15986 12.3198 2.36466 12.3198 2.77425C12.3198 2.97573 12.2623 3.12801 12.1471 3.23119C12.0319 3.33454 11.8658 3.3861 11.6492 3.3861H11.3138V2.15986H11.6159Z" fill="#EBF0F3"/>
<path d="M13.3138 2.16253V2.65398H14.1073V2.93306H13.3138V3.67034H13.0117V1.88086H14.2046L14.2022 2.16253H13.3138Z" fill="#EBF0F3"/>
</svg>
