<svg width="14" height="13" viewBox="0 0 14 13" fill="none" xmlns="http://www.w3.org/2000/svg">
<path d="M9.79688 7.90625L10.2656 7.4375C10.3125 7.39062 10.3594 7.38281 10.4062 7.41406C10.4688 7.42969 10.5 7.46875 10.5 7.53125V11.375C10.5 11.6875 10.3906 11.9531 10.1719 12.1719C9.95312 12.3906 9.6875 12.5 9.375 12.5H1.125C0.8125 12.5 0.546875 12.3906 0.328125 12.1719C0.109375 11.9531 0 11.6875 0 11.375V3.125C0 2.8125 0.109375 2.54688 0.328125 2.32812C0.546875 2.10938 0.8125 2 1.125 2H7.96875C8.03125 2 8.07031 2.03125 8.08594 2.09375C8.11719 2.14062 8.10938 2.1875 8.0625 2.23438L7.59375 2.70312C7.57812 2.73438 7.54688 2.75 7.5 2.75H1.125C1.01562 2.75 0.921875 2.78906 0.84375 2.86719C0.78125 2.92969 0.75 3.01562 0.75 3.125V11.375C0.75 11.4844 0.78125 11.5703 0.84375 11.6328C0.921875 11.7109 1.01562 11.75 1.125 11.75H9.375C9.48438 11.75 9.57031 11.7109 9.63281 11.6328C9.71094 11.5703 9.75 11.4844 9.75 11.375V8C9.75 7.95312 9.76562 7.92188 9.79688 7.90625ZM13.2188 3.40625L5.88281 10.7422L3.53906 11C3.38281 11.0156 3.25 10.9688 3.14062 10.8594C3.03125 10.75 2.98438 10.6172 3 10.4609L3.25781 8.11719L10.5938 0.78125C10.7812 0.59375 11.0078 0.5 11.2734 0.5C11.5547 0.5 11.7891 0.59375 11.9766 0.78125L13.2188 2.02344C13.4062 2.21094 13.5 2.44531 13.5 2.72656C13.5 2.99219 13.4062 3.21875 13.2188 3.40625ZM11.0156 4.55469L9.44531 2.98438L3.98438 8.46875L3.79688 10.2266L5.55469 10.0156L11.0156 4.55469ZM12.6797 2.5625L11.4375 1.32031C11.3281 1.21094 11.2188 1.21094 11.1094 1.32031L9.98438 2.44531L11.5547 4.01562L12.6797 2.89062C12.7891 2.78125 12.7891 2.67188 12.6797 2.5625Z" fill="#2C6DF9"/>
</svg>
