<svg width="14" height="13" viewBox="0 0 14 13" fill="none" xmlns="http://www.w3.org/2000/svg">
<path d="M9.42188 8.58594L10.1719 7.83594C10.2344 7.77344 10.3047 7.75781 10.3828 7.78906C10.4609 7.82031 10.5 7.88281 10.5 7.97656V11.375C10.5 11.6875 10.3906 11.9531 10.1719 12.1719C9.95312 12.3906 9.6875 12.5 9.375 12.5H1.125C0.8125 12.5 0.546875 12.3906 0.328125 12.1719C0.109375 11.9531 0 11.6875 0 11.375V3.125C0 2.8125 0.109375 2.54688 0.328125 2.32812C0.546875 2.10938 0.8125 2 1.125 2H7.54688C7.625 2 7.67969 2.03906 7.71094 2.11719C7.74219 2.19531 7.72656 2.26562 7.66406 2.32812L6.91406 3.07812C6.88281 3.10938 6.84375 3.125 6.79688 3.125H1.125V11.375H9.375V8.70312C9.375 8.65625 9.39062 8.61719 9.42188 8.58594ZM13.1016 3.85156L6.9375 10.0156L4.82812 10.25C4.51562 10.2812 4.25 10.1875 4.03125 9.96875C3.8125 9.75 3.71875 9.48438 3.75 9.17188L3.98438 7.0625L10.1484 0.898438C10.4141 0.632813 10.7344 0.5 11.1094 0.5C11.4844 0.5 11.8125 0.632813 12.0938 0.898438L13.1016 1.90625C13.3672 2.17188 13.5 2.5 13.5 2.89062C13.5 3.26562 13.3672 3.58594 13.1016 3.85156ZM10.7812 4.57812L9.42188 3.21875L5.0625 7.57812L4.89844 9.10156L6.42188 8.9375L10.7812 4.57812ZM12.3047 2.70312L11.2969 1.69531C11.1719 1.58594 11.0547 1.58594 10.9453 1.69531L10.2188 2.42188L11.5781 3.78125L12.3047 3.05469C12.4141 2.94531 12.4141 2.82812 12.3047 2.70312Z" fill="#FFA100"/>
</svg>
