<svg width="14" height="15" viewBox="0 0 14 15" fill="none" xmlns="http://www.w3.org/2000/svg">
<path d="M7 0.96875C3.25391 0.96875 0.21875 4.03125 0.21875 7.75C0.21875 11.4961 3.25391 14.5312 7 14.5312C10.7461 14.5312 13.7812 11.4961 13.7812 7.75C13.7812 4.00391 10.7461 0.96875 7 0.96875ZM7 11.25C6.50781 11.25 6.125 10.8672 6.125 10.375C6.125 9.91016 6.50781 9.5 7 9.5C7.46484 9.5 7.875 9.91016 7.875 10.375C7.875 10.8672 7.46484 11.25 7 11.25ZM8.03906 4.74219L7.68359 8.24219C7.65625 8.46094 7.46484 8.625 7.24609 8.625H6.72656C6.50781 8.625 6.31641 8.46094 6.28906 8.24219L5.93359 4.74219C5.93359 4.74219 5.93359 4.71484 5.93359 4.6875C5.93359 4.46875 6.125 4.27734 6.37109 4.25H7.60156C7.84766 4.25 8.03906 4.46875 8.03906 4.6875C8.03906 4.71484 8.03906 4.74219 8.03906 4.74219Z" fill="#707177"/>
</svg>
