<svg width="16" height="15" viewBox="0 0 16 15" fill="none" xmlns="http://www.w3.org/2000/svg">
<path d="M12.25 7.36719V13.4375C12.25 13.8021 12.1224 14.112 11.8672 14.3672C11.612 14.6224 11.3021 14.75 10.9375 14.75H1.3125C0.947917 14.75 0.638021 14.6224 0.382812 14.3672C0.127604 14.112 0 13.8021 0 13.4375V3.8125C0 3.44792 0.127604 3.13802 0.382812 2.88281C0.638021 2.6276 0.947917 2.5 1.3125 2.5H10.6094C10.7552 2.5 10.8555 2.57292 10.9102 2.71875C10.9648 2.84635 10.9375 2.95573 10.8281 3.04688L10.1719 3.70312C10.1172 3.77604 10.0443 3.8125 9.95312 3.8125H1.47656C1.36719 3.8125 1.3125 3.86719 1.3125 3.97656V13.2734C1.3125 13.3828 1.36719 13.4375 1.47656 13.4375H10.7734C10.8828 13.4375 10.9375 13.3828 10.9375 13.2734V8.02344C10.9375 7.93229 10.974 7.85026 11.0469 7.77734L11.7031 7.12109C11.7943 7.02995 11.9036 7.01172 12.0312 7.06641C12.1771 7.12109 12.25 7.22135 12.25 7.36719ZM15.4219 0.75C15.6406 0.75 15.75 0.859375 15.75 1.07812V4.79688C15.75 4.94271 15.6771 5.04297 15.5312 5.09766C15.4036 5.15234 15.2943 5.125 15.2031 5.01562L13.8633 3.70312L6.42578 11.1406C6.27995 11.3047 6.125 11.3047 5.96094 11.1406L5.35938 10.5391C5.19531 10.375 5.19531 10.2201 5.35938 10.0742L12.7969 2.63672L11.4844 1.29688C11.375 1.20573 11.3477 1.09635 11.4023 0.96875C11.457 0.822917 11.5573 0.75 11.7031 0.75H15.4219Z" fill="black"/>
</svg>
