<svg width="26" height="26" viewBox="0 0 26 26" fill="none" xmlns="http://www.w3.org/2000/svg">
<circle cx="13" cy="13" r="13" fill="#2C6DF9" fill-opacity="0.08"/>
<path d="M20 7.30078V10.8242C20 10.9102 19.9653 10.9818 19.8958 11.0391C19.8403 11.0964 19.7708 11.125 19.6875 11.125H19C18.9167 11.125 18.8472 11.0964 18.7917 11.0391C18.7361 10.9674 18.7083 10.8887 18.7083 10.8027L18.75 9.23438L18.7083 9.19141L12.9167 15.1641C12.7917 15.293 12.6736 15.293 12.5625 15.1641L12.0833 14.6699C11.9583 14.5553 11.9583 14.4336 12.0833 14.3047L17.875 8.33203L17.8333 8.28906L16.3125 8.33203C16.2569 8.33203 16.2014 8.32487 16.1458 8.31055C16.1042 8.2819 16.0694 8.24609 16.0417 8.20312C16.0139 8.14583 16 8.08854 16 8.03125V7.32227C16 7.23633 16.0278 7.16471 16.0833 7.10742C16.1389 7.03581 16.2083 7 16.2917 7H19.7083C19.7917 7 19.8611 7.02865 19.9167 7.08594C19.9722 7.14323 20 7.21484 20 7.30078ZM16.9167 12.0273C16.9861 11.9414 17.0694 11.9199 17.1667 11.9629C17.2778 12.0059 17.3333 12.0846 17.3333 12.1992V16.9688C17.3333 17.2552 17.2361 17.4987 17.0417 17.6992C16.8472 17.8997 16.6111 18 16.3333 18H9C8.72222 18 8.48611 17.8997 8.29167 17.6992C8.09722 17.4987 8 17.2552 8 16.9688V9.40625C8 9.11979 8.09722 8.8763 8.29167 8.67578C8.48611 8.47526 8.72222 8.375 9 8.375H14.9167C14.9861 8.375 15.0417 8.40365 15.0833 8.46094L15.5833 8.97656C15.6667 9.04818 15.6875 9.14128 15.6458 9.25586C15.6042 9.35612 15.5278 9.40625 15.4167 9.40625H9.125C9.04167 9.40625 9 9.44922 9 9.53516V16.8398C9 16.9258 9.04167 16.9688 9.125 16.9688H16.2083C16.2917 16.9688 16.3333 16.9258 16.3333 16.8398V12.7148C16.3333 12.6432 16.3611 12.5859 16.4167 12.543L16.9167 12.0273Z" fill="#2C6DF9"/>
</svg>
