<svg width="24" height="24" viewBox="0 0 24 24" fill="none" xmlns="http://www.w3.org/2000/svg">
<path d="M5.18213 7.19678H10.5939" stroke="white" stroke-width="1.5" stroke-miterlimit="10" stroke-linecap="round"/>
<path d="M5.18213 10.5034H10.5939" stroke="white" stroke-width="1.5" stroke-miterlimit="10" stroke-linecap="round"/>
<path d="M5.18213 13.8164H18.2077" stroke="white" stroke-width="1.5" stroke-miterlimit="10" stroke-linecap="round"/>
<path d="M20.5271 2.08889L22.2114 3.77317C22.3356 3.89742 22.3356 4.0907 22.2114 4.21495L16.1369 10.4068C16.0748 10.4689 15.9989 10.5034 15.9091 10.5034H14.1627C13.9902 10.5034 13.8452 10.3653 13.8452 10.1859V8.39804C13.8452 8.31521 13.8797 8.23237 13.935 8.17715L20.0715 2.08199C20.2096 1.97155 20.4029 1.97155 20.5271 2.08889Z" stroke="white" stroke-width="1.5" stroke-miterlimit="10" stroke-linecap="round"/>
<path d="M21.3278 8.06678V15.7979C21.3278 16.9852 20.3614 17.9516 19.1741 17.9516H13.7554C13.6519 17.9516 13.5553 17.9861 13.4724 18.0551L9.65519 21.2166C9.56546 21.2925 9.4343 21.2235 9.4343 21.1131L9.45501 18.4003C9.45501 18.1518 9.26173 17.9585 9.01323 17.9585H4.15367C2.96639 17.9585 2 16.9921 2 15.8048V6.29967C2 5.11239 2.96639 4.146 4.15367 4.146H14.0454" stroke="white" stroke-width="1.5" stroke-miterlimit="10" stroke-linecap="round"/>
</svg>
