<svg width="26" height="26" viewBox="0 0 26 26" fill="none" xmlns="http://www.w3.org/2000/svg">
<circle cx="13" cy="13" r="13" fill="#FFA100" fill-opacity="0.13"/>
<g clip-path="url(#clip0)">
<path d="M18.8894 8.98456C18.1647 8.19853 17.1702 7.76562 16.0891 7.76562C15.281 7.76562 14.5409 8.02112 13.8893 8.52495C13.5605 8.77927 13.2626 9.09041 13 9.45357C12.7375 9.09052 12.4395 8.77927 12.1106 8.52495C11.4591 8.02112 10.719 7.76562 9.9109 7.76562C8.82976 7.76562 7.83524 8.19853 7.11052 8.98456C6.39445 9.7614 6 10.8227 6 11.973C6 13.157 6.44124 14.2409 7.38855 15.384C8.23599 16.4065 9.45396 17.4445 10.8644 18.6464C11.346 19.0569 11.8919 19.5222 12.4588 20.0178C12.6085 20.1489 12.8007 20.2211 13 20.2211C13.1992 20.2211 13.3915 20.1489 13.541 20.018C14.1078 19.5223 14.6541 19.0568 15.1359 18.6461C16.5461 17.4444 17.7641 16.4065 18.6116 15.3839C19.5589 14.2409 20 13.157 20 11.9729C20 10.8227 19.6055 9.7614 18.8894 8.98456Z" fill="#FFA100"/>
</g>
<defs>
<clipPath id="clip0">
<rect width="14" height="14" fill="white" transform="translate(6 7)"/>
</clipPath>
</defs>
</svg>
