<svg width="25" height="20" viewBox="0 0 25 20" fill="none" xmlns="http://www.w3.org/2000/svg">
<g clip-path="url(#clip0)">
<path d="M9.37734 17.7467C9.37787 17.9922 9.45069 18.2322 9.58672 18.4366L10.2547 19.4401C10.459 19.7491 10.9254 19.9979 11.2953 19.9979H13.7055C14.0754 19.9979 14.5418 19.7491 14.7461 19.4401L15.4137 18.4366C15.5406 18.2278 15.6132 17.9907 15.625 17.7467V16.2491H9.375L9.37734 17.7467ZM12.4785 -0.000941019C8.49375 0.0111684 5.625 3.24125 5.625 6.87406C5.62268 8.53849 6.22769 10.1466 7.32656 11.3967C7.97187 12.133 8.98125 13.6709 9.36602 14.9686C9.36602 14.9795 9.36875 14.9893 9.37031 14.9991H15.6297C15.6297 14.9893 15.6324 14.9795 15.634 14.9686C16.0188 13.6709 17.0281 12.133 17.6734 11.3967C18.7723 10.1466 19.3773 8.53849 19.375 6.87406C19.375 3.07054 16.2855 -0.0130504 12.4785 -0.000941019ZM12.5 3.74906C11.6715 3.74999 10.8772 4.07953 10.2913 4.66538C9.70547 5.25123 9.37593 6.04554 9.375 6.87406C9.375 7.03982 9.30915 7.19879 9.19194 7.316C9.07473 7.43321 8.91576 7.49906 8.75 7.49906C8.58424 7.49906 8.42527 7.43321 8.30806 7.316C8.19085 7.19879 8.125 7.03982 8.125 6.87406C8.12624 5.71412 8.58758 4.60204 9.40778 3.78184C10.228 2.96163 11.3401 2.5003 12.5 2.49906C12.6658 2.49906 12.8247 2.56491 12.9419 2.68212C13.0592 2.79933 13.125 2.9583 13.125 3.12406C13.125 3.28982 13.0592 3.44879 12.9419 3.566C12.8247 3.68321 12.6658 3.74906 12.5 3.74906ZM4.375 7.49906C4.375 7.25042 4.27623 7.01196 4.10041 6.83615C3.9246 6.66033 3.68614 6.56156 3.4375 6.56156H0.9375C0.68886 6.56156 0.450403 6.66033 0.274587 6.83615C0.098772 7.01196 0 7.25042 0 7.49906C0 7.7477 0.098772 7.98616 0.274587 8.16197C0.450403 8.33779 0.68886 8.43656 0.9375 8.43656H3.4375C3.68614 8.43656 3.9246 8.33779 4.10041 8.16197C4.27623 7.98616 4.375 7.7477 4.375 7.49906ZM24.0625 6.56156H21.5625C21.3139 6.56156 21.0754 6.66033 20.8996 6.83615C20.7238 7.01196 20.625 7.25042 20.625 7.49906C20.625 7.7477 20.7238 7.98616 20.8996 8.16197C21.0754 8.33779 21.3139 8.43656 21.5625 8.43656H24.0625C24.3111 8.43656 24.5496 8.33779 24.7254 8.16197C24.9012 7.98616 25 7.7477 25 7.49906C25 7.25042 24.9012 7.01196 24.7254 6.83615C24.5496 6.66033 24.3111 6.56156 24.0625 6.56156ZM5.12031 2.15609L2.95547 0.90609C2.84876 0.841846 2.73032 0.79951 2.60707 0.781553C2.48382 0.763596 2.35823 0.770379 2.23762 0.801505C2.11702 0.832632 2.00383 0.887478 1.90467 0.962841C1.8055 1.0382 1.72234 1.13257 1.66006 1.24043C1.59777 1.34829 1.5576 1.46748 1.5419 1.59104C1.52619 1.7146 1.53526 1.84005 1.56858 1.96006C1.6019 2.08008 1.65881 2.19225 1.73596 2.29002C1.81312 2.3878 1.90899 2.46922 2.01797 2.52953L4.18281 3.77953C4.28952 3.84377 4.40796 3.88611 4.53121 3.90407C4.65446 3.92202 4.78006 3.91524 4.90066 3.88411C5.02126 3.85299 5.13445 3.79814 5.23361 3.72278C5.33278 3.64742 5.41594 3.55305 5.47822 3.44519C5.54051 3.33733 5.58068 3.21814 5.59639 3.09458C5.61209 2.97102 5.60302 2.84557 5.5697 2.72556C5.53638 2.60554 5.47948 2.49337 5.40232 2.3956C5.32516 2.29782 5.22929 2.2164 5.12031 2.15609ZM22.982 12.4686L20.8172 11.2186C20.7105 11.1543 20.592 11.112 20.4688 11.0941C20.3455 11.0761 20.2199 11.0829 20.0993 11.114C19.9787 11.1451 19.8656 11.2 19.7664 11.2753C19.6672 11.3507 19.5841 11.4451 19.5218 11.5529C19.4595 11.6608 19.4193 11.78 19.4036 11.9035C19.3879 12.0271 19.397 12.1526 19.4303 12.2726C19.4636 12.3926 19.5205 12.5047 19.5977 12.6025C19.6748 12.7003 19.7707 12.7817 19.8797 12.842L22.0445 14.092C22.2595 14.211 22.5126 14.2408 22.7493 14.1751C22.986 14.1094 23.1875 13.9533 23.3103 13.7406C23.4332 13.5278 23.4676 13.2754 23.4062 13.0375C23.3448 12.7996 23.1925 12.5953 22.982 12.4686ZM4.18281 11.2186L2.01797 12.4686C1.90899 12.5289 1.81312 12.6103 1.73596 12.7081C1.65881 12.8059 1.6019 12.918 1.56858 13.0381C1.53526 13.1581 1.52619 13.2835 1.5419 13.4071C1.5576 13.5306 1.59777 13.6498 1.66006 13.7577C1.72234 13.8655 1.8055 13.9599 1.90467 14.0353C2.00383 14.1106 2.11702 14.1655 2.23762 14.1966C2.35823 14.2277 2.48382 14.2345 2.60707 14.2166C2.73032 14.1986 2.84876 14.1563 2.95547 14.092L5.12031 12.842C5.33079 12.7153 5.48311 12.511 5.54451 12.2731C5.60591 12.0353 5.57147 11.7828 5.44861 11.57C5.32575 11.3573 5.12428 11.2013 4.88756 11.1355C4.65084 11.0698 4.39777 11.0996 4.18281 11.2186ZM20.3492 3.90531C20.5138 3.90563 20.6756 3.86222 20.818 3.77953L22.9828 2.52953C23.1933 2.40281 23.3456 2.19853 23.407 1.96065C23.4684 1.72276 23.434 1.47028 23.3111 1.25753C23.1882 1.04478 22.9868 0.888756 22.7501 0.823031C22.5133 0.757305 22.2603 0.787131 22.0453 0.90609L19.8805 2.15609C19.7018 2.25932 19.5622 2.41859 19.4833 2.60922C19.4044 2.79985 19.3906 3.01119 19.444 3.21048C19.4974 3.40976 19.615 3.58587 19.7787 3.71149C19.9424 3.83711 20.1429 3.90524 20.3492 3.90531Z" fill="#2C6DF9"/>
</g>
<defs>
<clipPath id="clip0">
<rect width="25" height="20" fill="white"/>
</clipPath>
</defs>
</svg>
