<svg width="23" height="19" viewBox="0 0 23 19" fill="none" xmlns="http://www.w3.org/2000/svg">
<path d="M17.625 10.5H1.875C1.392 10.5 1 10.108 1 9.625C1 9.142 1.392 8.75 1.875 8.75H17.625C18.108 8.75 18.5 9.142 18.5 9.625C18.5 10.108 18.108 10.5 17.625 10.5Z" fill="white" stroke="white" stroke-width="0.4"/>
<path d="M21.125 2.75H1.875C1.392 2.75 1 2.358 1 1.875C1 1.392 1.392 1 1.875 1H21.125C21.608 1 22 1.392 22 1.875C22 2.358 21.608 2.75 21.125 2.75Z" fill="white" stroke="white" stroke-width="0.4"/>
<path d="M14.125 18.25H1.875C1.392 18.25 1 17.858 1 17.375C1 16.892 1.392 16.5 1.875 16.5H14.125C14.608 16.5 15 16.892 15 17.375C15 17.858 14.608 18.25 14.125 18.25Z" fill="white" stroke="white" stroke-width="0.4"/>
</svg>
