<svg width="10" height="11" viewBox="0 0 10 11" fill="none" xmlns="http://www.w3.org/2000/svg">
<path d="M2.3083 9.70746C2.3083 9.88519 2.16423 10.0293 1.98651 10.0293H0.616714C0.438986 10.0293 0.294922 9.88519 0.294922 9.70746V3.96535C0.294922 3.78762 0.438986 3.64355 0.616714 3.64355H1.98651C2.16423 3.64355 2.3083 3.78762 2.3083 3.96535V9.70746Z" fill="#73788B"/>
<path d="M1.30131 3.10262C0.582624 3.10262 0 2.52 0 1.80131C0 1.08262 0.582624 0.5 1.30131 0.5C2.02 0.5 2.60262 1.08262 2.60262 1.80131C2.60262 2.52 2.02003 3.10262 1.30131 3.10262Z" fill="#73788B"/>
<path d="M9.4664 9.73403C9.4664 9.89742 9.33392 10.0299 9.17052 10.0299H7.70064C7.53724 10.0299 7.40476 9.89742 7.40476 9.73403V7.04065C7.40476 6.63886 7.52262 5.27998 6.35475 5.27998C5.44886 5.27998 5.26512 6.21009 5.22822 6.6275V9.73403C5.22822 9.89742 5.09577 10.0299 4.93235 10.0299H3.51072C3.34732 10.0299 3.21484 9.89742 3.21484 9.73403V3.94008C3.21484 3.77668 3.34732 3.6442 3.51072 3.6442H4.93235C5.09574 3.6442 5.22822 3.77668 5.22822 3.94008V4.44104C5.56412 3.93694 6.06332 3.54785 7.1262 3.54785C9.47987 3.54785 9.4664 5.74676 9.4664 6.95496V9.73403Z" fill="#73788B"/>
</svg>
