<svg width="12" height="11" viewBox="0 0 12 11" fill="none" xmlns="http://www.w3.org/2000/svg">
<path d="M0.328125 8.45312C0.546875 8.23438 0.8125 8.125 1.125 8.125C1.4375 8.125 1.70312 8.23438 1.92188 8.45312C2.14062 8.67188 2.25 8.9375 2.25 9.25C2.25 9.5625 2.14062 9.82812 1.92188 10.0469C1.70312 10.2656 1.4375 10.375 1.125 10.375C0.8125 10.375 0.546875 10.2656 0.328125 10.0469C0.109375 9.82812 0 9.5625 0 9.25C0 8.9375 0.109375 8.67188 0.328125 8.45312ZM0.328125 4.70312C0.546875 4.48438 0.8125 4.375 1.125 4.375C1.4375 4.375 1.70312 4.48438 1.92188 4.70312C2.14062 4.92188 2.25 5.1875 2.25 5.5C2.25 5.8125 2.14062 6.07812 1.92188 6.29688C1.70312 6.51562 1.4375 6.625 1.125 6.625C0.8125 6.625 0.546875 6.51562 0.328125 6.29688C0.109375 6.07812 0 5.8125 0 5.5C0 5.1875 0.109375 4.92188 0.328125 4.70312ZM0.328125 0.953125C0.546875 0.734375 0.8125 0.625 1.125 0.625C1.4375 0.625 1.70312 0.734375 1.92188 0.953125C2.14062 1.17187 2.25 1.4375 2.25 1.75C2.25 2.0625 2.14062 2.32813 1.92188 2.54688C1.70312 2.76562 1.4375 2.875 1.125 2.875C0.8125 2.875 0.546875 2.76562 0.328125 2.54688C0.109375 2.32813 0 2.0625 0 1.75C0 1.4375 0.109375 1.17187 0.328125 0.953125ZM11.625 1.1875C11.7344 1.1875 11.8203 1.22656 11.8828 1.30469C11.9609 1.36719 12 1.45312 12 1.5625V1.9375C12 2.04688 11.9609 2.14063 11.8828 2.21875C11.8203 2.28125 11.7344 2.3125 11.625 2.3125H4.125C4.01562 2.3125 3.92188 2.28125 3.84375 2.21875C3.78125 2.14063 3.75 2.04688 3.75 1.9375V1.5625C3.75 1.45312 3.78125 1.36719 3.84375 1.30469C3.92188 1.22656 4.01562 1.1875 4.125 1.1875H11.625ZM11.625 4.9375C11.7344 4.9375 11.8203 4.97656 11.8828 5.05469C11.9609 5.11719 12 5.20312 12 5.3125V5.6875C12 5.79688 11.9609 5.89062 11.8828 5.96875C11.8203 6.03125 11.7344 6.0625 11.625 6.0625H4.125C4.01562 6.0625 3.92188 6.03125 3.84375 5.96875C3.78125 5.89062 3.75 5.79688 3.75 5.6875V5.3125C3.75 5.20312 3.78125 5.11719 3.84375 5.05469C3.92188 4.97656 4.01562 4.9375 4.125 4.9375H11.625ZM11.625 8.6875C11.7344 8.6875 11.8203 8.72656 11.8828 8.80469C11.9609 8.86719 12 8.95312 12 9.0625V9.4375C12 9.54688 11.9609 9.64062 11.8828 9.71875C11.8203 9.78125 11.7344 9.8125 11.625 9.8125H4.125C4.01562 9.8125 3.92188 9.78125 3.84375 9.71875C3.78125 9.64062 3.75 9.54688 3.75 9.4375V9.0625C3.75 8.95312 3.78125 8.86719 3.84375 8.80469C3.92188 8.72656 4.01562 8.6875 4.125 8.6875H11.625Z" fill="black"/>
</svg>
