<svg width="12" height="16" viewBox="0 0 12 16" fill="none" xmlns="http://www.w3.org/2000/svg">
<path d="M9 7.75V8.625C9 8.83125 8.83125 9 8.625 9H3.375C3.16875 9 3 8.83125 3 8.625V7.75C3 7.54375 3.16875 7.375 3.375 7.375H8.625C8.83125 7.375 9 7.54375 9 7.75ZM8.625 10H3.375C3.16875 10 3 10.1687 3 10.375V11.25C3 11.4563 3.16875 11.625 3.375 11.625H8.625C8.83125 11.625 9 11.4563 9 11.25V10.375C9 10.1687 8.83125 10 8.625 10ZM12 4.12187V14.5C12 15.3281 11.3281 16 10.5 16H1.5C0.671875 16 0 15.3281 0 14.5V1.5C0 0.671875 0.671875 0 1.5 0H7.87813C8.275 0 8.65625 0.159375 8.9375 0.440625L11.5594 3.0625C11.8406 3.34063 12 3.725 12 4.12187ZM8 1.62188V4H10.3781L8 1.62188ZM10.5 14.5V5.5H7.25C6.83437 5.5 6.5 5.16563 6.5 4.75V1.5H1.5V14.5H10.5Z" fill="#2C6DF9"/>
</svg>
