<svg width="60" height="12" viewBox="0 0 60 12" fill="none" xmlns="http://www.w3.org/2000/svg">
<path d="M48 6C48 9.31371 50.6863 12 54 12C57.3137 12 60 9.31371 60 6C60 2.68629 57.3137 0 54 0C50.6863 0 48 2.68629 48 6Z" fill="#BFBFBF"/>
<path d="M24 6C24 9.31371 26.6863 12 30 12C33.3137 12 36 9.31371 36 6C36 2.68629 33.3137 0 30 0C26.6863 0 24 2.68629 24 6Z" fill="#BFBFBF"/>
<path d="M0 6C0 9.31371 2.68629 12 6 12C9.31371 12 12 9.31371 12 6C12 2.68629 9.31371 0 6 0C2.68629 0 0 2.68629 0 6Z" fill="#BFBFBF"/>
</svg>
