<svg width="12" height="12" viewBox="0 0 12 12" fill="none" xmlns="http://www.w3.org/2000/svg">
<path d="M11.5329 3.67501C11.2318 2.95786 10.7937 2.30601 10.2431 1.75581C9.69419 1.20466 9.04211 0.766452 8.32391 0.466083C7.58818 0.156885 6.79769 -0.00161029 5.99937 1.23339e-05H5.97253C5.16055 0.00403019 4.37541 0.164744 3.63591 0.480815C2.92388 0.784264 2.27792 1.22325 1.73413 1.77322C1.18887 2.32219 0.755826 2.97175 0.459122 3.68572C0.151127 4.42817 -0.00493538 5.2246 0.000118954 6.02813C0.0041453 6.95759 0.226936 7.88036 0.642992 8.70536L0.365726 11.2902C0.318752 11.6618 0.426121 11.7757 0.768361 11.7388L3.29635 11.3571C4.12695 11.7754 5.04353 11.9954 5.97387 12H6.00206C6.80464 12 7.58172 11.8446 8.31452 11.5406C9.02908 11.2438 9.67873 10.8107 10.227 10.2656C10.78 9.71786 11.2148 9.07768 11.5195 8.36384C11.8349 7.62456 11.9959 6.8384 12 6.02679C12.0027 5.21117 11.8443 4.41965 11.5329 3.67501ZM3.32051 6.64286C2.96619 6.64286 2.67764 6.35492 2.67764 6.00001C2.67764 5.6451 2.96619 5.35715 3.32051 5.35715C3.67483 5.35715 3.96338 5.6451 3.96338 6.00001C3.96338 6.35492 3.67617 6.64286 3.32051 6.64286ZM5.99937 6.64286C5.64505 6.64286 5.3565 6.35492 5.3565 6.00001C5.3565 5.6451 5.64505 5.35715 5.99937 5.35715C6.35369 5.35715 6.64224 5.6451 6.64224 6.00001C6.64224 6.35492 6.35369 6.64286 5.99937 6.64286ZM8.67823 6.64286C8.32391 6.64286 8.03536 6.35492 8.03536 6.00001C8.03536 5.6451 8.32391 5.35715 8.67823 5.35715C9.03255 5.35715 9.32111 5.6451 9.32111 6.00001C9.32111 6.35492 9.03255 6.64286 8.67823 6.64286Z" fill="#5C90FF"/>
</svg>
