<?xml version="1.0" encoding="UTF-8"?>
<svg width="42px" height="32px" viewBox="0 0 42 32" version="1.1" xmlns="http://www.w3.org/2000/svg" xmlns:xlink="http://www.w3.org/1999/xlink">
    <!-- Generator: Sketch 59.1 (86144) - https://sketch.com -->
    <title>noun_expense_2376642</title>
    <desc>Created with Sketch.</desc>
    <g id="Web" stroke="none" stroke-width="1" fill="none" fill-rule="evenodd">
        <g id="2.3-WebApp---Dashboard-Recent-Expenses" transform="translate(-341.000000, -206.000000)" fill="#FFFFFF" fill-rule="nonzero">
            <g id="noun_expense_2376642" transform="translate(341.000000, 206.000000)">
                <g id="Group">
                    <g id="Path">
                        <path d="M25.742384,24.0758438 C25.742384,26.1037374 24.0465175,27.7864577 22.0027809,27.7864577 L7.26178738,27.7864577 C5.21805082,27.7864577 3.5221843,26.1037374 3.5221843,24.0758438 L3.5221843,6.98976109 C3.5221843,4.96186744 5.17456706,3.27914718 7.26178738,3.27914718 L22.0027809,3.27914718 C24.0465175,3.27914718 25.742384,4.91872077 25.742384,6.98976109 L25.742384,10.8729617 L29.0471495,10.8729617 L29.0471495,6.98976109 C29.0471495,3.10656049 25.8728353,1.53287777e-15 22.0027809,1.53287777e-15 L7.26178738,1.53287777e-15 C3.34824927,1.53287777e-15 0.217418784,3.10656049 0.217418784,6.98976109 L0.217418784,24.1189904 C0.217418784,27.9590444 3.34824927,31.1087515 7.26178738,31.1087515 L22.0027809,31.1087515 C25.8728353,31.1087515 29.0471495,27.9590444 29.0471495,24.1189904 L29.0471495,20.2357898 L25.742384,20.2357898 L25.742384,24.0758438 Z"></path>
                        <path d="M13.8278347,24.2484305 L15.4367337,24.2484305 C15.7846037,24.2484305 16.08899,23.9464037 16.08899,23.6012304 L16.08899,22.2205368 C17.871824,21.7890701 19.2198205,20.3652298 19.3937555,18.5962162 C19.5242068,17.4312561 19.132853,16.2662959 18.3501454,15.4033624 C17.5674377,14.5404289 16.4368601,14.0226689 15.2627986,14.0226689 L14.0452534,14.0226689 C13.6973834,14.0226689 13.3495133,13.8500822 13.0886108,13.5912021 C12.8277083,13.3323221 12.7407407,12.9871487 12.7842245,12.5988286 C12.8277083,11.9516285 13.4364808,11.4770151 14.132221,11.4770151 L15.5671849,11.4770151 C15.915055,11.4770151 16.262925,11.7358952 16.3498926,12.0810686 C16.3933763,12.3830953 16.6977626,12.5988286 17.0021489,12.5988286 L18.6110479,12.5988286 C18.7849829,12.5988286 18.958918,12.5125353 19.0893692,12.3830953 C19.2198205,12.2536552 19.2633043,12.0810686 19.2633043,11.9084819 C19.0893692,10.2257616 17.7848565,8.9313614 16.1324738,8.67248136 L16.1324738,7.37808115 C16.1324738,7.03290777 15.8280875,6.73088105 15.4802174,6.73088105 L13.8713184,6.73088105 C13.5234484,6.73088105 13.2190621,7.03290777 13.2190621,7.37808115 L13.2190621,8.71562803 C11.1318417,9.14709476 9.69687777,11.0455484 9.91429655,13.2028821 C10.1317153,15.3170691 12.0015169,16.9566426 14.2626722,16.9566426 L15.3062824,16.9566426 C15.6541524,16.9566426 16.0020225,17.1292293 16.262925,17.3881094 C16.5238276,17.6469894 16.6107951,17.9921628 16.5673113,18.3804829 C16.4803438,19.027683 15.915055,19.5022964 15.2193149,19.5022964 L13.7843509,19.5022964 C13.4364808,19.5022964 13.0886108,19.2434163 13.045127,18.898243 C13.0016433,18.5962162 12.697257,18.4236295 12.3928707,18.4236295 L10.7839717,18.4236295 C10.6100367,18.4236295 10.4361016,18.5099229 10.3056504,18.6393629 C10.1751991,18.7688029 10.1317153,18.9413896 10.1317153,19.1139763 C10.3056504,20.7966966 11.6101631,22.0910968 13.2625458,22.3499768 L13.2625458,23.644377 C13.1755783,23.9895504 13.4799646,24.2484305 13.8278347,24.2484305 Z"></path>
                        <path d="M41.0051827,14.3246956 L35.8740994,9.62170817 C35.1783592,9.01765474 34.1347491,9.06080142 33.5259765,9.70800152 C32.9172039,10.3983483 32.9606877,11.4338685 33.612944,12.0379219 L35.6131968,13.8500822 L23.9160662,13.8500822 C23.0029073,13.8500822 22.2636835,14.5835756 22.2636835,15.4896558 C22.2636835,16.3957359 23.0029073,17.1292293 23.9160662,17.1292293 L35.6131968,17.1292293 L33.612944,18.9845363 C32.9172039,19.5885897 32.8737201,20.6241099 33.5259765,21.3144567 C33.8738465,21.6596301 34.3086841,21.8322167 34.7435217,21.8322167 C35.1348755,21.8322167 35.5697131,21.7027767 35.8740994,21.40075 L41.0051827,16.6977626 C41.3530527,16.3957359 41.5269877,15.9642692 41.5269877,15.4896558 C41.5269877,15.058189 41.3530527,14.6267223 41.0051827,14.3246956 Z"></path>
                    </g>
                </g>
            </g>
        </g>
    </g>
</svg>