<?xml version="1.0" encoding="UTF-8"?>
<svg width="33px" height="46px" viewBox="0 0 33 46" version="1.1" xmlns="http://www.w3.org/2000/svg" xmlns:xlink="http://www.w3.org/1999/xlink">
    <!-- Generator: Sketch 59.1 (86144) - https://sketch.com -->
    <title>noun_report_392803</title>
    <desc>Created with Sketch.</desc>
    <g id="Web" stroke="none" stroke-width="1" fill="none" fill-rule="evenodd">
        <g id="2.3-WebApp---Dashboard-Recent-Expenses" transform="translate(-341.000000, -291.000000)" fill="#FFFFFF" fill-rule="nonzero">
            <g id="noun_report_392803" transform="translate(332.000000, 289.000000)">
                <path d="M15.2780376,29.3963434 L13.6613534,28.2615432 L12,29.5624419 L15.4747542,32 L21,27.1564921 L19.1539563,26 L15.2780376,29.3963434 Z M19.8059559,27.2283855 L15.4051732,31.0858382 L13.1991982,29.5382708 L13.6957144,29.1502944 L15.3493366,30.3105051 L19.2570392,26.8844128 L19.8059559,27.2283855 Z" id="Shape"></path>
                <path d="M15.2780376,36.3963434 L13.6613534,35.2609235 L12,36.5612024 L15.4747542,39 L21,34.1564921 L19.1539563,33 L15.2780376,36.3963434 Z M19.8059559,34.2283855 L15.4051732,38.0858382 L13.1991982,36.5382708 L13.6957144,36.1496746 L15.3493366,37.3105051 L19.2570392,33.8844128 L19.8059559,34.2283855 Z" id="Shape"></path>
                <g id="Group" transform="translate(13.000000, 8.000000)">
                    <path d="M25.9277778,0.121333333 L14.2754444,0.121333333 L14.2754444,3.83138889 L25.9277778,3.83138889 L25.9277778,0.121333333 Z M25.2055556,3.10916667 L14.9976667,3.10916667 L14.9976667,0.843555556 L25.2055556,0.843555556 L25.2055556,3.10916667 Z" id="Shape"></path>
                    <path d="M25.9277778,8.77572222 L14.2754444,8.77572222 L14.2754444,12.4857778 L25.9277778,12.4857778 L25.9277778,8.77572222 Z M25.2055556,11.7635556 L14.9976667,11.7635556 L14.9976667,9.49794444 L25.2055556,9.49794444 L25.2055556,11.7635556 Z" id="Shape"></path>
                    <path d="M25.9277778,4.44888889 L14.2754444,4.44888889 L14.2754444,8.15894444 L25.9277778,8.15894444 L25.9277778,4.44888889 Z M25.2055556,7.43672222 L14.9976667,7.43672222 L14.9976667,5.17111111 L25.2055556,5.17111111 L25.2055556,7.43672222 Z" id="Shape"></path>
                    <path d="M11.7245556,0.121333333 L0.0722222222,0.121333333 L0.0722222222,3.83138889 L11.7245556,3.83138889 L11.7245556,0.121333333 Z M11.0023333,3.10916667 L0.794444444,3.10916667 L0.794444444,0.843555556 L11.0023333,0.843555556 L11.0023333,3.10916667 Z" id="Shape"></path>
                    <path d="M11.7245556,8.77572222 L0.0722222222,8.77572222 L0.0722222222,12.4857778 L11.7245556,12.4857778 L11.7245556,8.77572222 Z M11.0023333,11.7635556 L0.794444444,11.7635556 L0.794444444,9.49794444 L11.0023333,9.49794444 L11.0023333,11.7635556 Z" id="Shape"></path>
                    <path d="M11.7245556,4.44888889 L0.0722222222,4.44888889 L0.0722222222,8.15894444 L11.7245556,8.15894444 L11.7245556,4.44888889 Z M11.0023333,7.43672222 L0.794444444,7.43672222 L0.794444444,5.17111111 L11.0023333,5.17111111 L11.0023333,7.43672222 Z" id="Shape"></path>
                </g>
                <polygon id="Path" points="37 28.984127 37 27.015873 37 27 22 27 22 27.015873 22 28.984127 22 29 37 29"></polygon>
                <polygon id="Path" points="37 30.984127 37 29.015873 37 29 22 29 22 29.015873 22 30.984127 22 31 37 31"></polygon>
                <polygon id="Path" points="37 35.984127 37 34.015873 37 34 22 34 22 34.015873 22 35.984127 22 36 37 36"></polygon>
                <polygon id="Path" points="37 39.984127 37 38.015873 37 38 22 38 22 38.015873 22 39.984127 22 40 37 40"></polygon>
                <path d="M9,48 L36.8634541,48 L42,42.6019535 L42,2 L9,2 L9,48 Z M36.9930894,46.8553488 L36.9930894,42.7381705 L40.9113346,42.7381705 L36.9930894,46.8553488 Z M9.67871907,2.71317829 L41.3212809,2.71317829 L41.3212809,42.0249922 L36.3136916,42.0249922 L36.3136916,47.2868217 L9.67871907,47.2868217 L9.67871907,2.71317829 Z" id="Shape"></path>
            </g>
        </g>
    </g>
</svg>