<svg width="19" height="18" viewBox="0 0 19 18" fill="none" xmlns="http://www.w3.org/2000/svg">
<g clip-path="url(#clip0)">
<rect width="18" height="18" transform="translate(0.834961)" fill="#EBF1FE"/>
<path d="M18.1921 4.50001H14.9778V0.642869C14.9778 0.287816 14.69 0 14.3349 0H1.47783C1.12278 0 0.834961 0.287816 0.834961 0.642869V15.4286C0.834961 16.8487 1.98623 18 3.4064 18H16.2635C17.6837 18 18.835 16.8487 18.835 15.4286V5.14284C18.835 4.78783 18.5471 4.50001 18.1921 4.50001ZM5.9778 3.21427H9.83494C10.19 3.21427 10.4778 3.50209 10.4778 3.85714C10.4778 4.21219 10.19 4.50001 9.83494 4.50001H5.9778C5.62275 4.50001 5.33493 4.21219 5.33493 3.85714C5.33493 3.50209 5.62279 3.21427 5.9778 3.21427ZM11.7635 15.4286H4.04923C3.69418 15.4286 3.40636 15.1407 3.40636 14.7857C3.40636 14.4306 3.69418 14.1428 4.04923 14.1428H11.7635C12.1186 14.1428 12.4064 14.4306 12.4064 14.7857C12.4064 15.1407 12.1186 15.4286 11.7635 15.4286ZM11.7635 12.8571H4.04923C3.69418 12.8571 3.40636 12.5693 3.40636 12.2143C3.40636 11.8592 3.69418 11.5714 4.04923 11.5714H11.7635C12.1186 11.5714 12.4064 11.8592 12.4064 12.2143C12.4064 12.5693 12.1186 12.8571 11.7635 12.8571ZM11.7635 10.2857H4.04923C3.69418 10.2857 3.40636 9.9979 3.40636 9.64285C3.40636 9.2878 3.69418 8.99998 4.04923 8.99998H11.7635C12.1186 8.99998 12.4064 9.2878 12.4064 9.64285C12.4064 9.9979 12.1186 10.2857 11.7635 10.2857ZM11.7635 7.71428H4.04923C3.69418 7.71428 3.40636 7.42646 3.40636 7.07141C3.40636 6.71636 3.69418 6.42854 4.04923 6.42854H11.7635C12.1186 6.42854 12.4064 6.71636 12.4064 7.07141C12.4064 7.42646 12.1186 7.71428 11.7635 7.71428ZM17.5492 15.4286C17.5492 16.1386 16.9736 16.7143 16.2635 16.7143C15.5535 16.7143 14.9778 16.1386 14.9778 15.4286V5.78571H17.5493L17.5492 15.4286Z" fill="#00C598"/>
</g>
<defs>
<clipPath id="clip0">
<rect width="18" height="18" fill="white" transform="translate(0.834961)"/>
</clipPath>
</defs>
</svg>
