<svg width="46" height="14" viewBox="0 0 46 14" fill="none" xmlns="http://www.w3.org/2000/svg">
<path d="M11.4278 6.03125H10.2526C10.0052 5.16527 9.21649 4.53125 8.28866 4.53125C7.36083 4.53125 6.57216 5.18073 6.30928 6.03125H0.572165C0.262887 6.03125 0 6.27867 0 6.60342C0 6.91269 0.247423 7.17558 0.572165 7.17558H6.30928C6.5567 8.04156 7.34536 8.67558 8.2732 8.67558C9.20103 8.67558 9.98969 8.04156 10.2371 7.17558H11.4124C11.7216 7.17558 11.9845 6.92816 11.9845 6.60342C12 6.29414 11.7526 6.03125 11.4278 6.03125ZM8.28866 7.53125C7.79381 7.53125 7.36082 7.12919 7.36082 6.60342C7.36082 6.07764 7.76289 5.67558 8.28866 5.67558C8.81443 5.67558 9.21649 6.07764 9.21649 6.60342C9.21649 7.12919 8.78351 7.53125 8.28866 7.53125Z" fill="#FFA100"/>
<path d="M0.572165 2.64433H1.79381C2.04124 3.51031 2.8299 4.14433 3.75773 4.14433C4.68557 4.14433 5.47423 3.51031 5.72165 2.64433H11.4278C11.7371 2.64433 12 2.39691 12 2.07217C12 1.74742 11.7526 1.5 11.4278 1.5H5.72165C5.47423 0.634021 4.68557 0 3.75773 0C2.8299 0 2.04124 0.634021 1.79381 1.5H0.572165C0.262887 1.5 0 1.74742 0 2.07217C0 2.39691 0.247423 2.64433 0.572165 2.64433ZM3.75773 1.14433C4.25258 1.14433 4.68557 1.54639 4.68557 2.07217C4.68557 2.59794 4.2835 3 3.75773 3C3.23196 3 2.8299 2.56701 2.8299 2.07217C2.8299 1.57732 3.26289 1.14433 3.75773 1.14433Z" fill="#FFA100"/>
<path d="M11.4278 10.562H5.72165C5.47423 9.69603 4.68557 9.06201 3.75773 9.06201C2.8299 9.06201 2.04124 9.69603 1.79381 10.562H0.572165C0.262887 10.562 0 10.8094 0 11.1342C0 11.4589 0.247423 11.7063 0.572165 11.7063H1.79381C2.04124 12.5723 2.8299 13.2063 3.75773 13.2063C4.68557 13.2063 5.47423 12.5723 5.72165 11.7063H11.4278C11.7371 11.7063 12 11.4589 12 11.1342C12 10.8094 11.7526 10.562 11.4278 10.562ZM3.75773 12.062C3.26289 12.062 2.8299 11.6599 2.8299 11.1342C2.8299 10.6084 3.23196 10.2063 3.75773 10.2063C4.2835 10.2063 4.68557 10.6084 4.68557 11.1342C4.68557 11.6599 4.25258 12.062 3.75773 12.062Z" fill="#FFA100"/>
<path d="M23.7832 7.38477H20.3496V11H18.8672V2.46875H24.2871V3.66406H20.3496V6.20117H23.7832V7.38477ZM26.8418 11H25.418V4.66016H26.8418V11ZM25.3301 3.01367C25.3301 2.79492 25.3984 2.61328 25.5352 2.46875C25.6758 2.32422 25.875 2.25195 26.1328 2.25195C26.3906 2.25195 26.5898 2.32422 26.7305 2.46875C26.8711 2.61328 26.9414 2.79492 26.9414 3.01367C26.9414 3.22852 26.8711 3.4082 26.7305 3.55273C26.5898 3.69336 26.3906 3.76367 26.1328 3.76367C25.875 3.76367 25.6758 3.69336 25.5352 3.55273C25.3984 3.4082 25.3301 3.22852 25.3301 3.01367ZM29.9121 11H28.4883V2H29.9121V11ZM33.252 3.11914V4.66016H34.3711V5.71484H33.252V9.25391C33.252 9.49609 33.2988 9.67188 33.3926 9.78125C33.4902 9.88672 33.6621 9.93945 33.9082 9.93945C34.0723 9.93945 34.2383 9.91992 34.4062 9.88086V10.9824C34.082 11.0723 33.7695 11.1172 33.4688 11.1172C32.375 11.1172 31.8281 10.5137 31.8281 9.30664V5.71484H30.7852V4.66016H31.8281V3.11914H33.252ZM38.2559 11.1172C37.3535 11.1172 36.6211 10.834 36.0586 10.2676C35.5 9.69727 35.2207 8.93945 35.2207 7.99414V7.81836C35.2207 7.18555 35.3418 6.62109 35.584 6.125C35.8301 5.625 36.1738 5.23633 36.6152 4.95898C37.0566 4.68164 37.5488 4.54297 38.0918 4.54297C38.9551 4.54297 39.6211 4.81836 40.0898 5.36914C40.5625 5.91992 40.7988 6.69922 40.7988 7.70703V8.28125H36.6562C36.6992 8.80469 36.873 9.21875 37.1777 9.52344C37.4863 9.82812 37.873 9.98047 38.3379 9.98047C38.9902 9.98047 39.5215 9.7168 39.9316 9.18945L40.6992 9.92188C40.4453 10.3008 40.1055 10.5957 39.6797 10.8066C39.2578 11.0137 38.7832 11.1172 38.2559 11.1172ZM38.0859 5.68555C37.6953 5.68555 37.3789 5.82227 37.1367 6.0957C36.8984 6.36914 36.7461 6.75 36.6797 7.23828H39.3926V7.13281C39.3613 6.65625 39.2344 6.29688 39.0117 6.05469C38.7891 5.80859 38.4805 5.68555 38.0859 5.68555ZM45.2285 5.96094C45.041 5.92969 44.8477 5.91406 44.6484 5.91406C43.9961 5.91406 43.5566 6.16406 43.3301 6.66406V11H41.9062V4.66016H43.2656L43.3008 5.36914C43.6445 4.81836 44.1211 4.54297 44.7305 4.54297C44.9336 4.54297 45.1016 4.57031 45.2344 4.625L45.2285 5.96094Z" fill="#FFA100"/>
</svg>
