<svg width="60" height="60" viewBox="0 0 60 60" fill="none" xmlns="http://www.w3.org/2000/svg">
<circle opacity="0.25" cx="30" cy="30" r="30" fill="#E4EDFF"/>
<circle cx="30" cy="30" r="20" fill="#E4EDFF"/>
<g clip-path="url(#clip0)">
<path d="M27.3773 37.7468C27.3779 37.9924 27.4507 38.2323 27.5867 38.4367L28.2547 39.4402C28.459 39.7492 28.9254 39.998 29.2953 39.998H31.7055C32.0754 39.998 32.5418 39.7492 32.7461 39.4402L33.4137 38.4367C33.5406 38.228 33.6132 37.9908 33.625 37.7468V36.2492H27.375L27.3773 37.7468ZM30.4785 19.9992C26.4938 20.0113 23.625 23.2414 23.625 26.8742C23.6227 28.5386 24.2277 30.1467 25.3266 31.3968C25.9719 32.1332 26.9812 33.6711 27.366 34.9687C27.366 34.9797 27.3688 34.9894 27.3703 34.9992H33.6297C33.6297 34.9894 33.6324 34.9797 33.634 34.9687C34.0188 33.6711 35.0281 32.1332 35.6734 31.3968C36.7723 30.1467 37.3773 28.5386 37.375 26.8742C37.375 23.0707 34.2855 19.9871 30.4785 19.9992ZM30.5 23.7492C29.6715 23.7501 28.8772 24.0797 28.2913 24.6655C27.7055 25.2513 27.3759 26.0457 27.375 26.8742C27.375 27.0399 27.3092 27.1989 27.1919 27.3161C27.0747 27.4333 26.9158 27.4992 26.75 27.4992C26.5842 27.4992 26.4253 27.4333 26.3081 27.3161C26.1908 27.1989 26.125 27.0399 26.125 26.8742C26.1262 25.7142 26.5876 24.6022 27.4078 23.782C28.228 22.9618 29.3401 22.5004 30.5 22.4992C30.6658 22.4992 30.8247 22.565 30.9419 22.6822C31.0592 22.7994 31.125 22.9584 31.125 23.1242C31.125 23.2899 31.0592 23.4489 30.9419 23.5661C30.8247 23.6833 30.6658 23.7492 30.5 23.7492ZM22.375 27.4992C22.375 27.2505 22.2762 27.0121 22.1004 26.8363C21.9246 26.6605 21.6861 26.5617 21.4375 26.5617H18.9375C18.6889 26.5617 18.4504 26.6605 18.2746 26.8363C18.0988 27.0121 18 27.2505 18 27.4992C18 27.7478 18.0988 27.9863 18.2746 28.1621C18.4504 28.3379 18.6889 28.4367 18.9375 28.4367H21.4375C21.6861 28.4367 21.9246 28.3379 22.1004 28.1621C22.2762 27.9863 22.375 27.7478 22.375 27.4992ZM42.0625 26.5617H39.5625C39.3139 26.5617 39.0754 26.6605 38.8996 26.8363C38.7238 27.0121 38.625 27.2505 38.625 27.4992C38.625 27.7478 38.7238 27.9863 38.8996 28.1621C39.0754 28.3379 39.3139 28.4367 39.5625 28.4367H42.0625C42.3111 28.4367 42.5496 28.3379 42.7254 28.1621C42.9012 27.9863 43 27.7478 43 27.4992C43 27.2505 42.9012 27.0121 42.7254 26.8363C42.5496 26.6605 42.3111 26.5617 42.0625 26.5617ZM23.1203 22.1562L20.9555 20.9062C20.8488 20.842 20.7303 20.7996 20.6071 20.7817C20.4838 20.7637 20.3582 20.7705 20.2376 20.8016C20.117 20.8328 20.0038 20.8876 19.9047 20.963C19.8055 21.0383 19.7223 21.1327 19.6601 21.2406C19.5978 21.3484 19.5576 21.4676 19.5419 21.5912C19.5262 21.7147 19.5353 21.8402 19.5686 21.9602C19.6019 22.0802 19.6588 22.1924 19.736 22.2901C19.8131 22.3879 19.909 22.4693 20.018 22.5296L22.1828 23.7796C22.2895 23.8439 22.408 23.8862 22.5312 23.9042C22.6545 23.9221 22.7801 23.9154 22.9007 23.8842C23.0213 23.8531 23.1344 23.7983 23.2336 23.7229C23.3328 23.6475 23.4159 23.5532 23.4782 23.4453C23.5405 23.3374 23.5807 23.2183 23.5964 23.0947C23.6121 22.9711 23.603 22.8457 23.5697 22.7257C23.5364 22.6057 23.4795 22.4935 23.4023 22.3957C23.3252 22.2979 23.2293 22.2165 23.1203 22.1562ZM40.982 32.4687L38.8172 31.2187C38.7105 31.1545 38.592 31.1121 38.4688 31.0942C38.3455 31.0762 38.2199 31.083 38.0993 31.1141C37.9787 31.1453 37.8656 31.2001 37.7664 31.2755C37.6672 31.3508 37.5841 31.4452 37.5218 31.5531C37.4595 31.6609 37.4193 31.7801 37.4036 31.9037C37.3879 32.0272 37.397 32.1527 37.4303 32.2727C37.4636 32.3927 37.5205 32.5049 37.5977 32.6026C37.6748 32.7004 37.7707 32.7818 37.8797 32.8422L40.0445 34.0922C40.2595 34.2111 40.5126 34.2409 40.7493 34.1752C40.986 34.1095 41.1875 33.9535 41.3103 33.7407C41.4332 33.528 41.4676 33.2755 41.4062 33.0376C41.3448 32.7997 41.1925 32.5954 40.982 32.4687ZM22.1828 31.2187L20.018 32.4687C19.909 32.529 19.8131 32.6104 19.736 32.7082C19.6588 32.806 19.6019 32.9182 19.5686 33.0382C19.5353 33.1582 19.5262 33.2836 19.5419 33.4072C19.5576 33.5308 19.5978 33.65 19.6601 33.7578C19.7223 33.8657 19.8055 33.96 19.9047 34.0354C20.0038 34.1108 20.117 34.1656 20.2376 34.1967C20.3582 34.2279 20.4838 34.2346 20.6071 34.2167C20.7303 34.1987 20.8488 34.1564 20.9555 34.0922L23.1203 32.8422C23.3308 32.7154 23.4831 32.5112 23.5445 32.2733C23.6059 32.0354 23.5715 31.7829 23.4486 31.5702C23.3257 31.3574 23.1243 31.2014 22.8876 31.1357C22.6508 31.0699 22.3978 31.0998 22.1828 31.2187ZM38.3492 23.9054C38.5138 23.9057 38.6756 23.8623 38.818 23.7796L40.9828 22.5296C41.1933 22.4029 41.3456 22.1987 41.407 21.9608C41.4684 21.7229 41.434 21.4704 41.3111 21.2577C41.1882 21.0449 40.9868 20.8889 40.7501 20.8232C40.5133 20.7574 40.2603 20.7873 40.0453 20.9062L37.8805 22.1562C37.7018 22.2594 37.5622 22.4187 37.4833 22.6093C37.4044 22.8 37.3906 23.0113 37.444 23.2106C37.4974 23.4099 37.615 23.586 37.7787 23.7116C37.9424 23.8372 38.1429 23.9054 38.3492 23.9054Z" fill="#2C6DF9"/>
</g>
<defs>
<clipPath id="clip0">
<rect width="25" height="20" fill="white" transform="translate(18 20)"/>
</clipPath>
</defs>
</svg>
