<svg xmlns="http://www.w3.org/2000/svg" width="23" height="25" viewBox="0 0 23 25">
    <g fill="none" fill-rule="evenodd">
        <g fill-rule="nonzero">
            <g>
                <g>
                    <path fill="#E2574C" d="M3.964 0L0.032 3.932 0.032 24.276 17.834 24.276 17.834 0z" transform="translate(-1053 -488) translate(315 215) translate(738 273)"/>
                    <path fill="#FFF" d="M15.623 16.754c-.398-.454-.98-.77-1.637-.887-1.039-.186-2.025-.255-2.953-.238-.844-.852-1.66-1.858-2.217-2.964.487-1.606.745-2.996.89-3.778.075-.403-.037-.831-.299-1.146-.247-.297-.605-.467-.981-.467h-.001c-.366 0-.677.15-.9.432-.743.948-.235 3.241-.125 3.692.112.457.272.902.468 1.334-.386 1.218-.907 2.54-1.612 3.79-2.353.86-3.755 2.039-3.87 2.138-.39.38-.584.761-.574 1.134.006.211.082.523.411.81.252.22.575.33.902.33.333 0 .67-.113.945-.338 1.136-.935 2.046-2.095 2.777-3.327 1.093-.373 2.388-.667 3.845-.737 1.047 1.015 2.092 1.79 2.747 2.239.695.477 1.625.415 2.211-.147.548-.526.538-1.225-.027-1.87zM3.507 19.912c-.21.173-.52.185-.702.025-.07-.06-.106-.117-.108-.167 0-.04.018-.195.286-.457.02-.016.899-.756 2.434-1.47-.547.762-1.179 1.467-1.91 2.069zM8.222 8.253c.046-.058.096-.094.204-.094.154 0 .255.093.3.149.096.114.137.27.11.417-.106.571-.274 1.479-.552 2.556l-.024-.093c-.23-.946-.394-2.482-.038-2.935zm-.763 7.888c.388-.782.712-1.573.984-2.339.42.68.918 1.316 1.44 1.894-.874.085-1.684.244-2.424.445zm7.578 1.844c-.284.274-.746.296-1.097.056-.483-.332-1.189-.849-1.945-1.51.59.028 1.203.094 1.835.207.46.083.86.296 1.127.6.345.393.191.54.08.647z" transform="translate(-1053 -488) translate(315 215) translate(738 273)"/>
                    <path fill="#B53629" d="M3.964 3.932L3.964 0 0.032 3.932z" transform="translate(-1053 -488) translate(315 215) translate(738 273)"/>
                    <path fill="#27A2DB" d="M22.042 6.661h-8.416c-.357 0-.647-.29-.647-.647V2.41c0-.357.29-.647.647-.647h8.416c.358 0 .647.29.647.647v3.604c0 .357-.29.647-.647.647z" transform="translate(-1053 -488) translate(315 215) translate(738 273)"/>
                    <g fill="#EBF0F3">
                        <path d="M1.867.24c.189.158.283.402.283.73 0 .33-.096.57-.29.723-.192.153-.488.23-.886.23H.492v.795H.034V.003h.932c.412 0 .712.08.9.237zm-.324 1.121c.092-.097.137-.24.137-.427 0-.188-.058-.32-.174-.399C1.389.458 1.206.42.958.42H.492v1.088h.532c.254 0 .427-.049.519-.146zM4.745.359c.262.237.392.566.392.988 0 .422-.127.756-.38 1.002-.254.246-.643.37-1.165.37H2.69V.002h.933c.486 0 .86.119 1.122.356zm-.07 1c0-.622-.356-.932-1.068-.932h-.458v1.86h.509c.328 0 .58-.078.755-.235.175-.156.262-.387.262-.693zM6.186.431L6.186 1.176 7.39 1.176 7.39 1.6 6.186 1.6 6.186 2.718 5.728 2.718 5.728.003 7.538.003 7.534.431z" transform="translate(-1053 -488) translate(315 215) translate(738 273) translate(14.049 2.851)"/>
                    </g>
                </g>
            </g>
        </g>
    </g>
</svg>
