<svg width="18" height="13" viewBox="0 0 18 13" fill="none" xmlns="http://www.w3.org/2000/svg">
<path d="M5.25 6.75C6.91797 6.75 8.3125 5.38281 8.3125 3.6875C8.3125 2.01953 6.91797 0.625 5.25 0.625C3.55469 0.625 2.1875 2.01953 2.1875 3.6875C2.1875 5.38281 3.55469 6.75 5.25 6.75ZM7.32812 7.625H7.10938C6.53516 7.89844 5.90625 8.0625 5.25 8.0625C4.56641 8.0625 3.9375 7.89844 3.36328 7.625H3.14453C1.39453 7.625 0 9.04688 0 10.7969V11.5625C0 12.3008 0.574219 12.875 1.3125 12.875H9.1875C9.89844 12.875 10.5 12.3008 10.5 11.5625V10.7969C10.5 9.04688 9.07812 7.625 7.32812 7.625ZM13.125 6.75C14.5742 6.75 15.75 5.57422 15.75 4.125C15.75 2.67578 14.5742 1.5 13.125 1.5C11.6758 1.5 10.5 2.67578 10.5 4.125C10.5 5.57422 11.6758 6.75 13.125 6.75ZM14.4375 7.625H14.3281C13.9453 7.76172 13.5352 7.84375 13.125 7.84375C12.6875 7.84375 12.2773 7.76172 11.8945 7.625H11.8125C11.2383 7.625 10.7188 7.78906 10.2812 8.0625C10.9375 8.77344 11.375 9.73047 11.375 10.7969V11.8359C11.375 11.8906 11.3477 11.9453 11.3477 12H16.1875C16.8984 12 17.5 11.4258 17.5 10.6875C17.5 9.01953 16.1055 7.625 14.4375 7.625Z" fill="#707177"/>
</svg>
