<svg width="28" height="28" viewBox="0 0 28 28" fill="none" xmlns="http://www.w3.org/2000/svg">
<circle cx="14" cy="14" r="14" fill="white" fill-opacity="0.15"/>
<path d="M18.0827 11.6667H9.91602C8.94768 11.6667 8.16602 12.4483 8.16602 13.4167V16.9167H10.4993V19.25H17.4993V16.9167H19.8327V13.4167C19.8327 12.4483 19.051 11.6667 18.0827 11.6667ZM16.3327 18.0833H11.666V15.1667H16.3327V18.0833ZM18.0827 14C17.7618 14 17.4993 13.7375 17.4993 13.4167C17.4993 13.0958 17.7618 12.8333 18.0827 12.8333C18.4035 12.8333 18.666 13.0958 18.666 13.4167C18.666 13.7375 18.4035 14 18.0827 14ZM17.4993 8.75H10.4993V11.0833H17.4993V8.75Z" fill="white"/>
</svg>
