<?xml version="1.0" encoding="UTF-8"?>
<svg width="59px" height="56px" viewBox="0 0 59 56" version="1.1" xmlns="http://www.w3.org/2000/svg" xmlns:xlink="http://www.w3.org/1999/xlink">
    <!-- Generator: Sketch 59.1 (86144) - https://sketch.com -->
    <title>noun_Project_2608604</title>
    <desc>Created with Sketch.</desc>
    <g id="Web" stroke="none" stroke-width="1" fill="none" fill-rule="evenodd">
        <g id="2.3-WebApp---Dashboard-Recent-Expenses" transform="translate(-272.000000, -428.000000)" fill="#2B6DF8" fill-rule="nonzero">
            <g id="noun_Project_2608604" transform="translate(272.000000, 428.000000)">
                <path d="M56.5235875,16.5933633 C56.4653039,16.2258164 56.1304726,15.967219 55.7596651,16.0033695 C53.7881903,16.1932917 52.3140425,17.8969699 52.4115043,19.8728518 L52.5692415,26.3250367 C50.8799763,26.4415331 49.3843552,27.4574553 48.655034,28.9838185 L46.3480094,33.8222832 C45.9791512,34.5932453 45.4414231,35.2714804 44.7746273,35.8067863 L44.2953126,36.1908157 C41.823866,38.160331 40.4833852,41.2201833 40.712189,44.3698431 L39.5369057,43.8107967 C39.3682544,43.7304727 39.1745565,43.720388 38.9984581,43.782763 C38.8223597,43.845138 38.678299,43.9748585 38.5979935,44.1433643 L36.0685641,49.4489708 C35.9881449,49.6174224 35.9780482,49.810891 36.0404971,49.9867809 C36.102946,50.1626709 36.2328203,50.306561 36.4015258,50.3867714 L48.0580032,55.9315171 C48.2266545,56.0118411 48.4203524,56.0219258 48.5964508,55.9595508 C48.7725492,55.8971759 48.91661,55.7674553 48.9969154,55.5989496 L51.5265795,50.293343 C51.6069988,50.1248914 51.6170954,49.9314228 51.5546465,49.7555329 C51.4921976,49.579643 51.3623233,49.4357528 51.1936178,49.3555424 L50.6161868,49.0808841 L50.4853259,47.3330584 C50.4326451,46.6453964 50.6495853,45.9641995 51.0903375,45.4333089 L57.1267212,38.1372207 C57.1366972,38.1254982 57.146321,38.1127206 57.1554754,38.0999431 C58.3807807,36.3914399 59.0268165,34.3362588 58.9991469,32.2348213 C58.9987031,32.2015223 58.9958397,32.1682993 58.9905793,32.1354144 L56.5235875,16.5933633 Z M48.027958,54.3589428 L37.6428851,49.418844 L39.5676551,45.3832538 L49.9524933,50.3233526 L48.027958,54.3589428 Z M56.0254946,37.2599083 L50.0047203,44.5374749 C49.3316215,45.3480366 49.0003298,46.3881926 49.0808307,47.4382092 L49.1512491,48.38445 L42.2158569,45.0852677 C41.7025177,42.1413077 42.8374015,39.1520462 45.1760123,37.2882767 L45.6553269,36.9043647 C46.4875814,36.2360618 47.1587499,35.3894109 47.6191791,34.4270473 L49.9262037,29.5886998 C50.5910546,28.1986769 52.1333861,27.4564955 53.6360805,27.8034793 L50.1792406,35.0530292 C50.0710608,35.2798957 50.0922739,35.547174 50.2348892,35.7541828 C50.3775044,35.9611915 50.6198551,36.0764813 50.8706501,36.0566234 C51.1214451,36.0367656 51.3425827,35.8847771 51.4507624,35.6579105 L55.2430287,27.7047758 C55.3234479,27.5363242 55.3335446,27.3428556 55.2710957,27.1669657 C55.2086468,26.9910758 55.0787725,26.8471856 54.910067,26.7669752 C54.6125804,26.6254795 54.3009748,26.5157353 53.9804265,26.4395656 L53.8191684,19.8304163 C53.8191684,19.8243206 53.8189336,19.8182249 53.8184642,19.8121292 C53.7677626,18.8339311 54.3428345,17.9309671 55.2513615,17.5622285 L57.5912481,32.3059769 C57.6039041,34.0806796 57.0559676,35.8141813 56.0253773,37.2599083 L56.0254946,37.2599083 Z" id="Shape"></path>
                <path d="M8.5143784,47.3330681 L8.38351485,49.0809855 L7.80607207,49.3556398 C7.63736312,49.435849 7.50748616,49.579737 7.44503599,49.7556244 C7.38258582,49.9315117 7.39268267,50.1249775 7.47310354,50.2934266 L10.0028193,55.5989554 C10.0831264,55.7674587 10.2271901,55.8971774 10.4032921,55.9595514 C10.5793941,56.0219255 10.7730959,56.0118409 10.9417507,55.9315181 L22.598466,50.3868536 C22.7671749,50.3066444 22.8970519,50.1627564 22.959502,49.9868691 C23.0219522,49.8109817 23.0118554,49.617516 22.9314345,49.4490668 L20.4012493,44.1428347 C20.3209422,43.9743314 20.1768785,43.8446127 20.0007765,43.7822387 C19.8246745,43.7198646 19.6309726,43.7299492 19.4623179,43.810272 L18.2870106,44.3693102 C18.5157434,41.2197351 17.1753011,38.1599777 14.7039312,36.1904026 L14.224372,35.8063789 C13.5578131,35.2709622 13.0203201,34.5927037 12.651662,33.8217876 L10.3443556,28.9839799 C9.61511552,27.4575026 8.11944533,26.4414484 6.43006818,26.3248854 L6.58780865,19.872795 C6.68527243,17.8969421 5.21109455,16.1932889 3.23957946,16.0033695 C2.86876442,15.9672194 2.53392627,16.2258131 2.47564145,16.5933546 L0.00942089815,32.1357641 C0.00416038538,32.1686485 0.00129694395,32.201871 0.000853149612,32.2351695 C-0.0268170782,34.3365762 0.619231932,36.3917272 1.84456222,38.1002054 C1.8537168,38.1129828 1.86334084,38.1254084 1.87331699,38.1374824 L7.90935452,45.4333465 C8.35008269,45.9642474 8.56702295,46.6454206 8.5143784,47.3330681 Z M21.3568466,49.418706 L10.9714444,54.3587324 L9.04745668,50.3232013 L19.4325068,45.3831749 L21.3568466,49.418706 Z M1.40795914,32.3055035 L3.74789342,17.5619711 C4.65643899,17.9307043 5.23152264,18.8336551 5.18082002,19.8118389 C5.18082002,19.8179345 5.18058529,19.8240301 5.18011582,19.8301257 L5.01850227,26.440116 C4.69796326,26.5163381 4.3863568,26.6260788 4.08884287,26.7675208 C3.92013392,26.84773 3.79025696,26.991618 3.72780679,27.1675054 C3.66535662,27.3433927 3.67545347,27.5368585 3.75587434,27.7053076 L7.54821805,35.6583258 C7.65639998,35.8851891 7.87754203,36.0371753 8.12834213,36.0570328 C8.37914222,36.0768904 8.62149786,35.9616023 8.76411601,35.7545966 C8.90673417,35.5475909 8.92794776,35.2803166 8.81976582,35.0534533 L5.36285534,27.8035408 C6.86556309,27.456998 8.40768423,28.199101 9.07280782,29.5888524 L11.3798795,34.427129 C11.8402854,35.3894329 12.5114279,36.2360319 13.3436544,36.9042928 L13.8232136,37.2883165 C16.1618732,39.1520628 17.2968169,42.141259 16.7835468,45.0851932 L9.84801302,48.3843271 L9.91843287,47.437983 C9.99889797,46.3879862 9.66760383,45.3478591 8.99452442,44.5372912 L2.97362716,37.2599484 C1.94298142,35.8140519 1.39511074,34.0803542 1.40795914,32.3055035 Z" id="Shape"></path>
                <path d="M29.5060218,40 C31.2292705,40 32.8818603,39.313362 34.0998725,38.0912926 C35.3178848,36.8692233 36.0014342,35.2119397 36,33.484394 L35.9656581,19.8345382 C35.9652915,19.6849987 35.9187882,19.5392344 35.8325257,19.4172352 L30.0963831,11.3056129 C29.9608426,11.1139188 29.7410069,11 29.5066242,11 C29.2722415,11 29.0524059,11.1139188 28.9168654,11.3056129 L23.1807228,19.4172352 C23.0925993,19.538686 23.0438892,19.6843796 23.0412048,19.8345382 L23,33.484394 L23,33.4857226 C23.0033254,37.085189 25.9155084,40.0010666 29.5060218,40 L29.5060218,40 Z M33.0765025,37.092163 C31.0981447,39.0509238 27.9173244,39.0537214 25.9355411,37.0984437 C25.0389472,36.1860611 24.5136504,34.9714935 24.4621682,33.6917773 L34.5498755,33.6917773 C34.4983024,34.9696309 33.9729024,36.1821974 33.0765025,37.092163 Z M26.5155409,20.5265004 L26.478553,32.242389 L24.4618067,32.242389 L24.4909633,20.5265004 L26.5155409,20.5265004 Z M34.5210803,20.5265004 L34.5502369,32.242389 L32.5334907,32.242389 L32.4965027,20.5265004 L34.5210803,20.5265004 Z M31.051202,20.5265004 L31.08819,32.242389 L27.9243356,32.242389 L27.9613236,20.5265004 L31.051202,20.5265004 Z M29.5060218,12.9431801 L33.8433697,19.0771121 L25.1686739,19.0771121 L29.5060218,12.9431801 Z" id="Shape"></path>
                <path d="M29,7 C29.5522847,7 30,6.62619937 30,6.16509293 L30,0.834907067 C30,0.373800626 29.5522847,0 29,0 C28.4477153,0 28,0.373800626 28,0.834907067 L28,6.16509293 C28,6.62619937 28.4477153,7 29,7 L29,7 Z" id="Path"></path>
                <path d="M11.809779,19 L17.190221,19 C17.6374496,19 18,18.5522847 18,18 C18,17.4477153 17.6374496,17 17.190221,17 L11.809779,17 C11.3625504,17 11,17.4477153 11,18 C11,18.5522847 11.3625504,19 11.809779,19 L11.809779,19 Z" id="Path"></path>
                <path d="M41,18 C41,18.5522847 41.3625504,19 41.809779,19 L47.190221,19 C47.6374496,19 48,18.5522847 48,18 C48,17.4477153 47.6374496,17 47.190221,17 L41.809779,17 C41.3625504,17 41,17.4477153 41,18 Z" id="Path"></path>
                <path d="M18.9963703,9.83061031 C19.1503031,9.98216617 19.3705588,10.0371 19.5741694,9.97471874 C19.77778,9.91233748 19.933812,9.74211835 19.9834898,9.52818123 C20.0331676,9.31424412 19.968944,9.08909116 19.8150112,8.9375353 L17.0037004,6.16941339 C16.765741,5.93509998 16.3895556,5.94507309 16.1634668,6.19168894 C15.937378,6.43830479 15.9470011,6.82817499 16.1849605,7.0624884 L18.9963703,9.83061031 Z" id="Path"></path>
                <path d="M39.5942019,10 C39.7465834,10.0002185 39.8931812,9.93955353 40.0035036,9.83062257 L42.8150256,7.0624918 C43.0530029,6.82817764 43.0626267,6.4383062 42.8365209,6.19168955 C42.6104151,5.94507291 42.2342015,5.93509977 41.9962242,6.16941393 L39.1848012,8.93775001 C39.0086475,9.11133903 38.952254,9.37859546 39.042416,9.61253357 C39.1325779,9.84647168 39.3511195,9.99993235 39.5942019,10 L39.5942019,10 Z" id="Path"></path>
            </g>
        </g>
    </g>
</svg>