<svg width="35" height="34" viewBox="0 0 35 34" fill="none" xmlns="http://www.w3.org/2000/svg">
<g filter="url(#filter0_d_20559_39057)">
<rect x="5.42969" y="5" width="24" height="24" rx="12" fill="white"/>
<path d="M20.0964 10.334V13.0007M14.763 10.334V13.0007M11.4297 15.6673H23.4297M16.7796 23.6673H12.763C12.0266 23.6673 11.4297 23.0704 11.4297 22.334V13.0007C11.4297 12.2643 12.0266 11.6673 12.763 11.6673H22.0964C22.8327 11.6673 23.4297 12.2643 23.4297 13.0007V17.0416" stroke="#2C6DF9" stroke-linecap="round" stroke-linejoin="round"/>
<path d="M22.2357 19.4933L19.8757 21.8534C19.7824 21.9467 19.6957 22.12 19.6757 22.2467L19.5491 23.1467C19.5024 23.4733 19.7291 23.7 20.0557 23.6533L20.9557 23.5267C21.0824 23.5067 21.2624 23.42 21.3491 23.3267L23.7091 20.9667C24.1157 20.56 24.3091 20.0867 23.7091 19.4867C23.1157 18.8933 22.6424 19.0867 22.2357 19.4933Z" stroke="#2C6DF9" stroke-miterlimit="10" stroke-linecap="round" stroke-linejoin="round"/>
<path d="M21.8955 19.834C22.0955 20.554 22.6555 21.114 23.3755 21.314" stroke="#2C6DF9" stroke-miterlimit="10" stroke-linecap="round" stroke-linejoin="round"/>
</g>
<defs>
<filter id="filter0_d_20559_39057" x="0.429688" y="0" width="34" height="34" filterUnits="userSpaceOnUse" color-interpolation-filters="sRGB">
<feFlood flood-opacity="0" result="BackgroundImageFix"/>
<feColorMatrix in="SourceAlpha" type="matrix" values="0 0 0 0 0 0 0 0 0 0 0 0 0 0 0 0 0 0 127 0" result="hardAlpha"/>
<feOffset/>
<feGaussianBlur stdDeviation="2.5"/>
<feColorMatrix type="matrix" values="0 0 0 0 0 0 0 0 0 0 0 0 0 0 0 0 0 0 0.23 0"/>
<feBlend mode="normal" in2="BackgroundImageFix" result="effect1_dropShadow_20559_39057"/>
<feBlend mode="normal" in="SourceGraphic" in2="effect1_dropShadow_20559_39057" result="shape"/>
</filter>
</defs>
</svg>
