<?xml version="1.0" encoding="UTF-8"?>
<svg width="7px" height="8px" viewBox="0 0 7 8" version="1.1" xmlns="http://www.w3.org/2000/svg" xmlns:xlink="http://www.w3.org/1999/xlink">
    <!-- Generator: Sketch 59.1 (86144) - https://sketch.com -->
    <title>Path_111</title>
    <desc>Created with Sketch.</desc>
    <g id="Web" stroke="none" stroke-width="1" fill="none" fill-rule="evenodd">
        <g id="7.6.2-Toni-(Owner)-view-a-Report-History" transform="translate(-913.000000, -794.000000)" fill="#FFFFFF" fill-rule="nonzero">
            <g id="Group-6" transform="translate(749.000000, 524.000000)">
                <g id="Group-2" transform="translate(33.000000, 56.000000)">
                    <g id="Group_350" transform="translate(125.000000, 209.000000)">
                        <g id="cross" transform="translate(6.202170, 5.812830)">
                            <path d="M6.16121961,6.48971956 C6.01662186,6.63432763 5.82049904,6.71557464 5.61599965,6.71557464 C5.41150025,6.71557464 5.21537743,6.63432763 5.07077968,6.48971956 L3.36959979,4.54400968 L1.66607989,6.48971956 C1.47129156,6.6845079 1.18738138,6.76058142 0.921295559,6.68928394 C0.655209741,6.61798646 0.447373058,6.41014978 0.376075581,6.14406396 C0.304778105,5.87797814 0.380851618,5.59406796 0.575639964,5.39927963 L2.34818985,3.37634975 L0.575639964,1.35224988 C0.380851621,1.15746155 0.30477811,0.873551366 0.376075587,0.607465549 C0.447373064,0.341379732 0.655209746,0.133543051 0.921295562,0.0622455742 C1.18738138,-0.0090519027 1.47129156,0.0670216081 1.66607989,0.26180995 L3.36959979,2.20868983 L5.07194968,0.26180995 C5.26673801,0.067021613 5.55064819,-0.0090518942 5.81673401,0.0622455833 C6.08281982,0.133543061 6.2906565,0.34137974 6.36195398,0.607465554 C6.43325146,0.873551367 6.35717795,1.15746155 6.16238961,1.35224988 L4.38983972,3.37634975 L6.16121961,5.39927963 C6.30582768,5.54387737 6.38706851,5.7400002 6.38706851,5.94449959 C6.38706851,6.14899898 6.30582768,6.34512181 6.16121961,6.48971956 Z" id="Path_111"></path>
                        </g>
                    </g>
                </g>
            </g>
        </g>
    </g>
</svg>