<svg width="24" height="24" viewBox="0 0 24 24" fill="none" xmlns="http://www.w3.org/2000/svg">
<circle cx="12" cy="12" r="12" fill="#E4EDFF"/>
<path d="M16.875 7.5H7.125C6.50391 7.5 6 8.00391 6 8.625V15.375C6 15.9961 6.50391 16.5 7.125 16.5H16.875C17.4961 16.5 18 15.9961 18 15.375V8.625C18 8.00391 17.4961 7.5 16.875 7.5ZM7.125 8.25H16.875C17.0813 8.25 17.25 8.41875 17.25 8.625V9.59531C16.7367 10.0289 16.0031 10.6266 13.7203 12.4383C13.3242 12.7523 12.5437 13.5094 12 13.5C11.4563 13.5094 10.6734 12.7523 10.2797 12.4383C7.99688 10.6266 7.26328 10.0289 6.75 9.59531V8.625C6.75 8.41875 6.91875 8.25 7.125 8.25ZM16.875 15.75H7.125C6.91875 15.75 6.75 15.5813 6.75 15.375V10.5703C7.28437 11.0086 8.12812 11.6859 9.81328 13.0242C10.2937 13.4086 11.1422 14.2547 12 14.25C12.8531 14.257 13.6945 13.418 14.1867 13.0242C15.8719 11.6859 16.7156 11.0086 17.25 10.5703V15.375C17.25 15.5813 17.0813 15.75 16.875 15.75Z" fill="#2C6DF9"/>
</svg>
