<svg width="80" height="80" viewBox="0 0 80 80" fill="none" xmlns="http://www.w3.org/2000/svg">
<circle opacity="0.25" cx="40" cy="40" r="40" fill="#FD4546"/>
<circle opacity="0.7" cx="40.0057" cy="40.0009" r="26.4706" fill="#FD4546"/>
<path fill-rule="evenodd" clip-rule="evenodd" d="M34.4211 26.6641H45.5958C49.7145 26.6641 52.0078 29.0374 52.0078 33.1041V46.8774C52.0078 51.0107 49.7145 53.3307 45.5958 53.3307H34.4211C30.3678 53.3307 28.0078 51.0107 28.0078 46.8774V33.1041C28.0078 29.0374 30.3678 26.6641 34.4211 26.6641ZM34.7859 32.8786V32.8653H38.7713C39.3459 32.8653 39.8126 33.332 39.8126 33.904C39.8126 34.492 39.3459 34.9586 38.7713 34.9586H34.7859C34.2113 34.9586 33.7459 34.492 33.7459 33.9186C33.7459 33.3453 34.2113 32.8786 34.7859 32.8786ZM34.7859 40.987H45.2393C45.8126 40.987 46.2793 40.5203 46.2793 39.947C46.2793 39.3736 45.8126 38.9056 45.2393 38.9056H34.7859C34.2113 38.9056 33.7459 39.3736 33.7459 39.947C33.7459 40.5203 34.2113 40.987 34.7859 40.987ZM34.7794 47.0793H45.2327C45.7647 47.0259 46.166 46.5713 46.166 46.0393C46.166 45.4926 45.7647 45.0393 45.2327 44.9859H34.7794C34.3794 44.9459 33.9927 45.1326 33.7794 45.4793C33.566 45.8126 33.566 46.2526 33.7794 46.5993C33.9927 46.9326 34.3794 47.1326 34.7794 47.0793Z" fill="white"/>
</svg>
