<svg width="9" height="10" viewBox="0 0 9 10" fill="none" xmlns="http://www.w3.org/2000/svg">
<path d="M5.33203 4.75L8.72266 8.14062C8.8138 8.23177 8.8138 8.33203 8.72266 8.44141L8.09375 9.07031C7.98438 9.16146 7.88411 9.16146 7.79297 9.07031L7.21875 8.46875L4.40234 5.67969L1.01172 9.07031C0.920573 9.16146 0.820312 9.16146 0.710938 9.07031L0.0820312 8.44141C-0.00911458 8.33203 -0.00911458 8.23177 0.0820312 8.14062L3.47266 4.75L0.0820312 1.35938C-0.00911458 1.26823 -0.00911458 1.16797 0.0820312 1.05859L0.710938 0.429688C0.820312 0.338542 0.920573 0.338542 1.01172 0.429688L4.40234 3.82031L7.79297 0.429688C7.88411 0.338542 7.98438 0.338542 8.09375 0.429688L8.72266 1.05859C8.8138 1.16797 8.8138 1.26823 8.72266 1.35938L8.12109 1.93359L5.33203 4.75Z" fill="#DE0E0E"/>
</svg>
