<svg width="16" height="16" viewBox="0 0 16 16" fill="none" xmlns="http://www.w3.org/2000/svg">
<path d="M11 7C10.7238 7 10.5 7.14993 10.5 7.33493V13.6651C10.5 13.8499 10.7238 14 11 14C11.2762 14 11.5 13.8499 11.5 13.6651V7.33493C11.5 7.14993 11.2762 7 11 7Z" fill="#FF6565"/>
<path d="M6 7C5.72383 7 5.5 7.14993 5.5 7.33493V13.6651C5.5 13.8499 5.72383 14 6 14C6.27617 14 6.5 13.8499 6.5 13.6651V7.33493C6.5 7.14993 6.27617 7 6 7Z" fill="#FF6565"/>
<path fill-rule="evenodd" clip-rule="evenodd" d="M2.56464 13.9953V4.76339C1.86955 4.57896 1.41915 3.90771 1.51213 3.19475C1.60525 2.48193 2.21278 1.94871 2.93203 1.94856H4.85124V1.48018C4.84904 1.0863 5.00484 0.708084 5.28379 0.429837C5.56273 0.151735 5.94168 -0.00312313 6.33571 9.69867e-05H9.66429C10.0583 -0.00312313 10.4373 0.151735 10.7162 0.429837C10.9952 0.708084 11.151 1.0863 11.1488 1.48018V1.94856H13.068C13.7872 1.94871 14.3947 2.48193 14.4879 3.19475C14.5809 3.90771 14.1304 4.57896 13.4354 4.76339V13.9953C13.4354 14.541 13.2352 15.0534 12.8855 15.4211C12.5376 15.7898 12.0532 15.9991 11.5462 16H4.45384C3.94691 15.9991 3.46253 15.7898 3.11447 15.4211C2.76481 15.0534 2.56464 14.541 2.56464 13.9953ZM4.45384 15.2506H11.5462C12.1871 15.2506 12.6857 14.7002 12.6857 13.9953V4.79632H3.31435V13.9953C3.31435 14.7002 3.81293 15.2506 4.45384 15.2506ZM5.60094 1.48018C5.59846 1.28507 5.67518 1.09728 5.8137 0.959547C5.95208 0.821813 6.14038 0.74614 6.33571 0.749507H9.66429C9.85962 0.74614 10.0479 0.821813 10.1863 0.959547C10.3248 1.09713 10.4015 1.28507 10.3991 1.48018V1.94856H5.60094V1.48018ZM13.068 2.69797H2.93203C2.55937 2.69797 2.25729 2.99993 2.25729 3.37244C2.25729 3.74495 2.55937 4.04691 2.93203 4.04691H13.068C13.4406 4.04691 13.7427 3.74495 13.7427 3.37244C13.7427 2.99993 13.4406 2.69797 13.068 2.69797Z" fill="#FF6565"/>
<path d="M8 7C7.72383 7 7.5 7.14993 7.5 7.33493V13.6651C7.5 13.8499 7.72383 14 8 14C8.27617 14 8.5 13.8499 8.5 13.6651V7.33493C8.5 7.14993 8.27617 7 8 7Z" fill="#FF6565"/>
</svg>
