<svg width="19" height="18" viewBox="0 0 19 18" fill="none" xmlns="http://www.w3.org/2000/svg">
<g clip-path="url(#clip0)">
<path d="M13.3093 3.21426H2.38072C1.3156 3.21426 0.452148 4.07771 0.452148 5.14283V16.0714C0.452148 17.1365 1.3156 18 2.38072 18H13.3093C14.3744 18 15.2378 17.1365 15.2378 16.0714V5.14283C15.2378 4.07771 14.3744 3.21426 13.3093 3.21426Z" fill="#00C598"/>
<path d="M16.5234 1.24529e-09H4.95201C3.89265 -3.76661e-05 3.03157 0.854447 3.02344 1.91377C3.02344 1.91893 3.02344 1.92341 3.02344 1.92857H13.3092C15.0835 1.93068 16.5213 3.36852 16.5234 5.14284V15.4286C16.5286 15.4286 16.5331 15.4286 16.5382 15.4286C17.5976 15.4204 18.452 14.5593 18.452 13.5V1.92857C18.452 0.86345 17.5885 1.24529e-09 16.5234 1.24529e-09Z" fill="#00C598"/>
</g>
<defs>
<clipPath id="clip0">
<rect width="18" height="18" fill="white" transform="translate(0.452148)"/>
</clipPath>
</defs>
</svg>
