<svg width="10" height="10" viewBox="0 0 10 10" fill="none" xmlns="http://www.w3.org/2000/svg">
<path d="M0.390625 0.468755H0.585938C0.715371 0.468755 0.820313 0.573696 0.820313 0.70313V2.55127C1.66398 1.1142 3.22732 0.150688 5.01549 0.156274C7.6793 0.164614 9.84791 2.34393 9.84375 5.00774C9.83957 7.67932 7.67254 9.84376 5 9.84376C3.75145 9.84376 2.61324 9.37135 1.75434 8.59555C1.65447 8.50536 1.64977 8.35022 1.74492 8.25506L1.88299 8.117C1.97094 8.02905 2.11246 8.02493 2.2049 8.10813C2.94496 8.77419 3.92451 9.17969 5 9.17969C7.29969 9.17969 9.17969 7.31776 9.17969 5.00001C9.17969 2.70032 7.31776 0.820317 5 0.820317C3.3816 0.820317 1.97779 1.73979 1.28342 3.08594H3.20313C3.33256 3.08594 3.4375 3.19088 3.4375 3.32032V3.51563C3.4375 3.64506 3.33256 3.75001 3.20313 3.75001H0.390625C0.261191 3.75001 0.15625 3.64506 0.15625 3.51563V0.70313C0.15625 0.573696 0.261191 0.468755 0.390625 0.468755ZM6.67279 6.62569L6.76471 6.49932C6.84084 6.39463 6.8177 6.24805 6.71301 6.17192L5.3125 5.15338V2.26563C5.3125 2.1362 5.20756 2.03125 5.07813 2.03125H4.92188C4.79244 2.03125 4.6875 2.1362 4.6875 2.26563V5.47163L6.34539 6.67737C6.45008 6.75352 6.59666 6.73038 6.67279 6.62569V6.62569Z" fill="#2C6DF9"/>
</svg>

