<svg width="14" height="14" viewBox="0 0 14 14" fill="none" xmlns="http://www.w3.org/2000/svg">
<path d="M13.2211 0.778887L11.7947 2.20527C10.5677 0.978004 8.87264 0.21875 7.00003 0.21875C3.26321 0.21875 0.216017 3.26826 0.218752 7.00506C0.221486 10.7479 3.25651 13.7812 7 13.7812C8.74798 13.7812 10.3415 13.1199 11.5439 12.0338C11.6837 11.9075 11.6903 11.6903 11.5571 11.5571L11.0174 11.0174C10.8944 10.8944 10.696 10.8865 10.5662 11.0023C9.61918 11.8466 8.37006 12.3594 7 12.3594C4.0381 12.3594 1.64063 9.96237 1.64063 7C1.64063 4.0381 4.03763 1.64062 7 1.64062C8.48102 1.64062 9.8207 2.24008 10.7902 3.20977L9.31017 4.68986C9.10345 4.89658 9.24985 5.25 9.54218 5.25H13.4531C13.6343 5.25 13.7813 5.10308 13.7813 4.92188V1.01093C13.7813 0.718594 13.4278 0.572195 13.2211 0.778887Z" fill="#FFA100"/>
</svg>
