<svg width="15" height="16" viewBox="0 0 15 16" fill="none" xmlns="http://www.w3.org/2000/svg">
<g opacity="0.32">
<path d="M14.5374 13.9268L10.8983 10.142C11.834 9.02971 12.3467 7.63024 12.3467 6.17333C12.3467 2.76941 9.57725 0 6.17333 0C2.76941 0 0 2.76941 0 6.17333C0 9.57725 2.76941 12.3467 6.17333 12.3467C7.45121 12.3467 8.66897 11.9612 9.71011 11.2296L13.3768 15.0431C13.5301 15.2022 13.7362 15.29 13.9571 15.29C14.1662 15.29 14.3645 15.2103 14.5151 15.0653C14.8351 14.7575 14.8453 14.247 14.5374 13.9268ZM6.17333 1.61043C8.68937 1.61043 10.7362 3.6573 10.7362 6.17333C10.7362 8.68937 8.68937 10.7362 6.17333 10.7362C3.6573 10.7362 1.61043 8.68937 1.61043 6.17333C1.61043 3.6573 3.6573 1.61043 6.17333 1.61043Z" fill="#161C29"/>
</g>
</svg>
