<svg width="18" height="24" viewBox="0 0 18 24" fill="none" xmlns="http://www.w3.org/2000/svg">
<path d="M10.5 6.375V0H1.125C0.46875 0 0 0.515625 0 1.125V22.875C0 23.5312 0.46875 24 1.125 24H16.875C17.4844 24 18 23.5312 18 22.875V7.5H11.625C10.9688 7.5 10.5 7.03125 10.5 6.375ZM6 13.125C6 13.3594 5.8125 13.5 5.625 13.5H5.25C4.82812 13.5 4.5 13.875 4.5 14.25V15.75C4.5 16.1719 4.82812 16.5 5.25 16.5H5.625C5.8125 16.5 6 16.6875 6 16.875V17.625C6 17.8594 5.8125 18 5.625 18H5.25C3.98438 18 3 17.0156 3 15.75V14.25C3 13.0312 3.98438 12 5.25 12H5.625C5.8125 12 6 12.1875 6 12.375V13.125ZM8.0625 18H7.5C7.26562 18 7.125 17.8594 7.125 17.625V16.875C7.125 16.6875 7.26562 16.5 7.5 16.5H8.0625C8.34375 16.5 8.53125 16.3594 8.53125 16.2188C8.53125 16.1719 8.48438 16.0781 8.4375 16.0312L7.40625 15.1406C7.03125 14.8125 6.79688 14.3438 6.79688 13.8281C6.79688 12.8438 7.6875 12.0469 8.76562 12.0469H9.375C9.5625 12.0469 9.75 12.1875 9.75 12.4219V13.1719C9.75 13.3594 9.5625 13.5469 9.375 13.5469H8.76562C8.48438 13.5469 8.29688 13.6875 8.29688 13.8281C8.29688 13.875 8.34375 13.9688 8.39062 14.0156L9.42188 14.9062C9.79688 15.2344 10.0312 15.7031 10.0312 16.2188C10.0312 17.2031 9.14062 18 8.0625 18ZM12 12.375V13.3594C12 14.3438 12.2344 15.2344 12.75 16.0312C13.2188 15.2344 13.5 14.3438 13.5 13.3594V12.375C13.5 12.1875 13.6406 12 13.875 12H14.625C14.8125 12 15 12.1875 15 12.375V13.3594C15 15.0469 14.3906 16.5938 13.2656 17.7656C13.125 17.9531 12.9375 18 12.75 18C12.5156 18 12.3281 17.9531 12.1875 17.7656C11.0625 16.5938 10.5 15.0469 10.5 13.3594V12.375C10.5 12.1875 10.6406 12 10.875 12H11.625C11.8125 12 12 12.1875 12 12.375ZM17.6719 4.92188L13.0781 0.328125C12.8438 0.140625 12.5625 0 12.2812 0H12V6H18V5.71875C18 5.4375 17.8594 5.15625 17.6719 4.92188Z" fill="#29971F"/>
</svg>
