<?xml version="1.0" encoding="UTF-8"?>
<svg width="48px" height="48px" viewBox="0 0 48 48" version="1.1" xmlns="http://www.w3.org/2000/svg" xmlns:xlink="http://www.w3.org/1999/xlink">
    <!-- Generator: Sketch 59.1 (86144) - https://sketch.com -->
    <title>noun_Tag_995327</title>
    <desc>Created with Sketch.</desc>
    <g id="Web" stroke="none" stroke-width="1" fill="none" fill-rule="evenodd">
        <g id="2.3-WebApp---Dashboard-Recent-Expenses" transform="translate(-831.000000, -433.000000)" fill="#2B6DF8" fill-rule="nonzero">
            <g id="noun_Tag_995327" transform="translate(831.000000, 433.000000)">
                <g id="Group">
                    <path d="M43.8252632,5.484 L47.4852632,1.824 C47.8477895,1.46273684 47.8465263,0.876631579 47.4852632,0.515368421 C47.1252632,0.154105263 46.5391579,0.154105263 46.1778947,0.515368421 L42.5166316,4.17663158 L27.1724211,3.27726316 C26.9084211,3.26273684 26.6494737,3.36 26.4631579,3.54757895 L0.514736842,29.4934737 C0.153473684,29.8547368 0.153473684,30.4408421 0.514736842,30.8021053 L17.1972632,47.4846316 C17.5585263,47.8458947 18.1446316,47.8458947 18.5058947,47.4846316 L44.4536842,21.5381053 C44.6412632,21.3517895 44.7372632,21.0928421 44.7227368,20.8288421 L43.8252632,5.484 Z M33.8804211,14.1195789 C34.2416842,14.4821053 34.8277895,14.4821053 35.1890526,14.1195789 L36.0922105,13.2164211 C36.1686316,13.6989474 36.0233684,14.2105263 35.652,14.5818947 C35.0362105,15.1976842 34.0345263,15.1976842 33.4193684,14.5818947 C32.8042105,13.9661053 32.8023158,12.9644211 33.4193684,12.3492632 C33.7894737,11.9778947 34.3010526,11.8326316 34.7835789,11.9077895 L33.8804211,12.8109474 C33.5185263,13.1722105 33.5185263,13.7583158 33.8804211,14.1195789 Z M17.8528421,45.5223158 L2.47768421,30.1471579 L27.4781053,5.14926316 L40.7646316,5.92610526 L36.2128421,10.4791579 C34.9067368,9.744 33.2204211,9.93031579 32.1101053,11.0406316 C30.7730526,12.3776842 30.7730526,14.5528421 32.1101053,15.8911579 C33.4471579,17.2282105 35.6235789,17.2282105 36.9606316,15.8911579 C38.0709474,14.7808421 38.256,13.0932632 37.5221053,11.7871579 L42.0738947,7.23536842 L42.852,20.5231579 L17.8528421,45.5223158 Z" id="Shape"></path>
                    <path d="M20.2667368,36.7541053 L11.2458947,27.7332632 C10.8846316,27.3732632 10.2997895,27.3732632 9.93852632,27.7332632 C9.57726316,28.0957895 9.57726316,28.6818947 9.93852632,29.0418947 L18.9593684,38.0627368 C19.3193684,38.424 19.9054737,38.424 20.2667368,38.0627368 C20.628,37.7014737 20.628,37.116 20.2667368,36.7541053 Z" id="Path"></path>
                    <path d="M23.3741053,33.6467368 L14.3532632,24.6271579 C13.9932632,24.2646316 13.4071579,24.2646316 13.0458947,24.6271579 C12.6846316,24.9871579 12.6846316,25.5732632 13.0458947,25.9357895 L22.0667368,34.9553684 C22.4267368,35.3153684 23.0128421,35.3153684 23.3741053,34.9553684 C23.7353684,34.5941053 23.7353684,34.0086316 23.3741053,33.6467368 Z" id="Path"></path>
                    <path d="M16.1526316,21.5185263 C15.7913684,21.8797895 15.7913684,22.4658947 16.1526316,22.8258947 L25.1734737,31.8467368 C25.5334737,32.2092632 26.1195789,32.2092632 26.4808421,31.8467368 C26.8408421,31.4854737 26.8408421,30.9006316 26.4808421,30.5393684 L17.4606316,21.5185263 C17.0987368,21.1572632 16.5138947,21.1572632 16.1526316,21.5185263 Z" id="Path"></path>
                </g>
            </g>
        </g>
    </g>
</svg>