<svg width="338" height="198" viewBox="0 0 338 198" fill="none" xmlns="http://www.w3.org/2000/svg">
<path d="M27.1683 197.264C27.1683 197.264 -14.129 147.453 6.05319 96.1724C19.2102 62.748 68.5597 44.4325 96.4113 62.748C108.274 70.5489 146.329 63.0097 166.651 30.7141C206.137 -32.0456 343.946 6.07022 318.856 102.428C306.714 149.056 355.805 150.754 330.792 197.364L27.1683 197.264Z" fill="#EBF3FA"/>
<path d="M57.74 115.285C57.74 115.285 53.5742 110.42 57.4818 107.329C57.4818 107.329 60.335 105.598 62.6656 105.738C62.6656 105.738 59.3687 111.275 60.4353 111.826C61.5018 112.377 63.6653 105.391 63.6653 105.391C63.6653 105.391 70.1617 104.762 72.2523 105.766C72.2523 105.766 66.6978 110.317 67.8676 110.588C69.0375 110.859 75.0356 106.392 75.0356 106.392C75.0356 106.392 81.0824 107.424 80.7603 111.114C80.4382 114.808 78.3537 115.949 77.4391 115.848C76.5245 115.751 71.1675 113.703 71.049 114.455C70.9335 115.206 74.1575 117.661 76.4151 117.777C76.4151 117.777 72.152 122.484 69.3201 121.127C66.4881 119.77 66.245 117.616 64.4796 116.807C62.7142 116 61.2071 116 61.9363 116.825C62.6656 117.649 65.8622 118.449 66.871 120.238C67.8798 122.027 68.7883 123.232 65.8561 122.791C62.9239 122.35 58.1594 120.202 57.9527 117.744C57.74 115.285 57.74 115.285 57.74 115.285Z" fill="#C8DBF4"/>
<path d="M77.7884 111.218C77.7884 111.218 61.3649 110.585 57.7399 115.285C57.7399 115.285 56.9377 117.692 54.4704 119.879L54.0845 120.929C54.0845 120.929 56.9316 117.926 57.9495 117.744C57.9495 117.744 56.3573 111.917 77.7884 111.218Z" fill="#C8DBF4"/>
<path d="M54.4705 119.882C54.4705 119.882 50.9457 122.493 50.6996 127.157L51.3407 127.215C51.3407 127.215 52.468 122.392 54.5008 120.506C56.5367 118.62 54.4705 119.882 54.4705 119.882Z" fill="#C8DBF4"/>
<path d="M43.176 109.167C43.176 109.167 49.8001 105.452 46.7099 100.411C46.7099 100.411 44.2365 97.3135 41.5868 96.5194C41.5868 96.5194 42.9998 104.037 41.5868 104.214C40.1739 104.39 40.6145 95.7223 40.6145 95.7223C40.6145 95.7223 33.6349 92.3604 30.8971 92.6251C30.8971 92.6251 35.2271 99.9665 33.8111 99.7901C32.3982 99.6136 27.5395 92.1839 27.5395 92.1839C27.5395 92.1839 20.3836 90.8574 19.2351 95.1016C18.0865 99.3489 19.9431 101.47 21.0005 101.737C22.0609 102.002 28.8643 101.914 28.685 102.799C28.5088 103.684 23.9145 105.099 21.353 104.302C21.353 104.302 24.1788 111.291 27.8889 110.935C31.599 110.582 32.7476 108.282 35.0448 108.105C37.3419 107.929 39.0192 108.546 37.8706 109.167C36.7221 109.788 32.8357 109.371 30.9792 110.95C29.1226 112.529 27.6215 113.502 31.0673 114.208C34.513 114.917 40.6965 114.473 41.9332 111.82C43.176 109.167 43.176 109.167 43.176 109.167Z" fill="#C8DBF4"/>
<path d="M22.5045 96.4281C22.5045 96.4281 41.055 102.443 43.1759 109.167C43.1759 109.167 43.0878 112.173 44.9414 115.623V116.949C44.9414 116.949 42.9967 112.437 41.9392 111.82C41.9392 111.82 46.093 105.981 22.5045 96.4281Z" fill="#C8DBF4"/>
<path d="M44.9445 115.623C44.9445 115.623 47.8068 119.974 46.1751 125.268L45.4397 125.07C45.4397 125.07 46.1538 119.237 44.6588 116.304C43.1578 113.372 44.9445 115.623 44.9445 115.623Z" fill="#C8DBF4"/>
<path d="M53.7168 104.043C53.7168 104.043 44.9839 99.1451 49.0586 92.5004C49.0586 92.5004 52.319 88.4205 55.8134 87.3708C55.8134 87.3708 53.9507 97.2831 55.8134 97.5144C57.676 97.7486 57.0957 86.3212 57.0957 86.3212C57.0957 86.3212 66.2965 81.8914 69.9063 82.2412C69.9063 82.2412 64.1999 91.9193 66.0625 91.685C67.9251 91.4508 74.3305 81.6571 74.3305 81.6571C74.3305 81.6571 83.7622 79.9077 85.2754 85.5058C86.7886 91.1039 84.3426 93.8999 82.9479 94.2498C81.5501 94.5997 72.5833 94.4841 72.8173 95.6493C73.0512 96.8146 79.1041 98.6796 82.483 97.633C82.483 97.633 78.7577 106.846 73.8656 106.377C68.9735 105.912 67.4602 102.878 64.4338 102.647C61.4074 102.413 59.1923 103.231 60.7085 104.047C62.2217 104.862 67.3448 104.314 69.7908 106.395C72.2369 108.476 74.215 109.76 69.6754 110.691C65.1327 111.625 56.9832 111.041 55.3515 107.542C53.7168 104.043 53.7168 104.043 53.7168 104.043Z" fill="#D4E4F8"/>
<path d="M80.9668 87.2522C80.9668 87.2522 56.5123 95.1808 53.7168 104.043C53.7168 104.043 53.8323 108.008 51.3893 112.556V114.306C51.3893 114.306 53.9508 108.358 55.3485 107.542C55.3485 107.542 49.8761 99.8449 80.9668 87.2522Z" fill="#D4E4F8"/>
<path d="M51.3893 112.556C51.3893 112.556 47.6184 118.291 49.7667 125.271L50.736 125.009C50.736 125.009 49.7941 117.321 51.7661 113.454C53.7412 109.587 51.3893 112.556 51.3893 112.556Z" fill="#D4E4F8"/>
<path d="M53.4252 140.407C62.8751 140.407 70.5323 132.737 70.5323 123.278H36.3149C36.3149 132.737 43.9752 140.407 53.4252 140.407Z" fill="#D4E4F8"/>
<path d="M70.7693 141.277H36.0809C36.0809 140.109 37.0259 139.162 38.1927 139.162H68.6605C69.8243 139.165 70.7693 140.112 70.7693 141.277Z" fill="#D4E4F8"/>
<path d="M70.9213 123.275H35.7528V123.801H70.9213V123.275Z" fill="#9FC1F4"/>
<path d="M141.702 196.908L141.787 196.905C142.477 196.893 143.011 196.327 142.948 195.676L138.335 149.561L134.312 149.92L140.933 196.281C140.985 196.649 141.316 196.917 141.702 196.908Z" fill="#8CB4F4"/>
<path d="M97.296 196.908L97.211 196.905C96.5212 196.893 95.9864 196.327 96.0502 195.676L100.663 149.561L104.686 149.92L98.0648 196.281C98.0131 196.649 97.6819 196.917 97.296 196.908Z" fill="#8CB4F4"/>
<path d="M174.236 196.908L174.321 196.905C175.011 196.893 175.545 196.327 175.482 195.676L170.869 149.561L166.846 149.92L173.467 196.281C173.519 196.649 173.85 196.917 174.236 196.908Z" fill="#8CB4F4"/>
<path d="M98.6694 142.856L90.4835 102.379C89.4322 96.8997 93.9687 91.8888 99.8575 92.0226L115.643 92.3847C121.088 92.5094 125.825 96.1573 127.338 101.399L139.313 142.856H98.6694Z" fill="#8CB4F4"/>
<path d="M103.622 142.856L95.4364 102.379C94.385 96.8997 98.9216 91.8888 104.81 92.0226L120.596 92.3847C126.041 92.5094 130.778 96.1573 132.291 101.399L144.266 142.856H103.622Z" fill="#8CB4F4"/>
<path d="M100.951 150.24H163.409C164.664 150.24 165.691 149.212 165.691 147.955V145.141C165.691 143.884 164.664 142.856 163.409 142.856H98.6693V147.952C98.6693 149.212 99.6964 150.24 100.951 150.24Z" fill="#8CB4F4"/>
<path d="M130.262 150.24H170.079C171.091 150.24 171.917 149.412 171.917 148.399V144.697C171.917 143.683 171.091 142.856 170.079 142.856H130.262C129.25 142.856 128.423 143.683 128.423 144.697V148.399C128.423 149.409 129.253 150.24 130.262 150.24Z" fill="#8CB4F4"/>
<path d="M80.0339 142.33V143.711C80.0339 144.195 79.8789 144.59 79.6875 144.59H29.3596C29.1682 144.59 29.0132 144.195 29.0132 143.711V142.33C29.0132 141.846 29.1682 141.45 29.3596 141.45H79.6875C79.8789 141.45 80.0339 141.846 80.0339 142.33Z" fill="#9ABFE2"/>
<path d="M80.0337 142.33V143.711C80.0337 144.195 79.8909 144.59 79.7147 144.59H39.7605C39.5842 144.59 39.4414 144.195 39.4414 143.711V142.33C39.4414 141.846 39.5842 141.45 39.7605 141.45H79.7147C79.8909 141.45 80.0337 141.846 80.0337 142.33Z" fill="#BAD4F4"/>
<path d="M67.296 144.59H31.5654V196.735H67.296V144.59Z" fill="#C8DBF4"/>
<path d="M77.3113 144.59H41.5807V196.735H77.3113V144.59Z" fill="#DFEBFD"/>
<path d="M75.3878 193.853H43.501V146.063H75.3908V193.853H75.3878ZM43.8443 193.51H75.0444V146.406H43.8443V193.51Z" fill="#B7D3F3"/>
<path d="M75.2175 161.871H43.671V162.215H75.2175V161.871Z" fill="#B7D3F3"/>
<path d="M75.2175 177.99H43.671V178.334H75.2175V177.99Z" fill="#B7D3F3"/>
<path d="M62.6773 149.145H56.825C56.5424 149.145 56.3085 148.91 56.3085 148.627C56.3085 148.345 56.5394 148.11 56.825 148.11H62.6773C62.9599 148.11 63.1939 148.341 63.1939 148.627C63.1939 148.91 62.9599 149.145 62.6773 149.145Z" fill="#B7D3F3"/>
<path d="M62.6773 164.905H56.825C56.5424 164.905 56.3085 164.673 56.3085 164.387C56.3085 164.104 56.5394 163.87 56.825 163.87H62.6773C62.9599 163.87 63.1939 164.104 63.1939 164.387C63.1939 164.673 62.9599 164.905 62.6773 164.905Z" fill="#B7D3F3"/>
<path d="M62.6773 181.337H56.825C56.5424 181.337 56.3085 181.105 56.3085 180.819C56.3085 180.537 56.5394 180.302 56.825 180.302H62.6773C62.9599 180.302 63.1939 180.533 63.1939 180.819C63.1939 181.102 62.9599 181.337 62.6773 181.337Z" fill="#B7D3F3"/>
<path d="M220.297 50.8341H197.651C196.612 50.8341 195.761 49.9822 195.761 48.9417V27.0543C195.761 26.0138 196.612 25.1619 197.651 25.1619H220.297C221.337 25.1619 222.187 26.0138 222.187 27.0543V48.9417C222.187 49.9822 221.337 50.8341 220.297 50.8341Z" fill="#C0D8FB"/>
<path d="M219.316 49.7234H198.633C197.681 49.7234 196.907 48.9446 196.907 47.9953V28.0064C196.907 27.0541 197.684 26.2783 198.633 26.2783H219.316C220.267 26.2783 221.042 27.0572 221.042 28.0064V47.9953C221.042 48.9446 220.264 49.7234 219.316 49.7234Z" fill="#DFEBFD"/>
<path d="M208.973 29.1656C209.275 29.1656 209.52 28.9204 209.52 28.618C209.52 28.3155 209.275 28.0703 208.973 28.0703C208.671 28.0703 208.426 28.3155 208.426 28.618C208.426 28.9204 208.671 29.1656 208.973 29.1656Z" fill="#B7D3F3"/>
<path d="M212.844 29.3937C212.99 29.129 213.324 29.0347 213.588 29.1807C213.853 29.3268 213.947 29.6614 213.801 29.9261C213.655 30.1908 213.321 30.2851 213.057 30.1391C212.792 29.99 212.695 29.6584 212.844 29.3937Z" fill="#B7D3F3"/>
<path d="M216.627 32.4028C216.882 32.2385 217.219 32.3115 217.383 32.5671C217.548 32.8226 217.475 33.1604 217.219 33.3246C216.964 33.4889 216.627 33.4159 216.463 33.1604C216.299 32.9048 216.372 32.5671 216.627 32.4028Z" fill="#B7D3F3"/>
<path d="M218.502 37.0636C218.802 37.0636 219.049 37.31 219.049 37.6112C219.049 37.9155 218.802 38.1589 218.502 38.1589C218.198 38.1589 217.955 37.9124 217.955 37.6112C217.955 37.307 218.198 37.0636 218.502 37.0636Z" fill="#B7D3F3"/>
<path d="M217.544 42.4702C217.757 42.6831 217.757 43.03 217.544 43.246C217.332 43.459 216.985 43.459 216.77 43.246C216.557 43.033 216.557 42.6862 216.77 42.4702C216.985 42.2572 217.332 42.2572 217.544 42.4702Z" fill="#B7D3F3"/>
<path d="M214.108 45.9202C214.321 46.1332 214.321 46.48 214.108 46.6961C213.895 46.909 213.549 46.909 213.333 46.6961C213.12 46.4831 213.12 46.1362 213.333 45.9202C213.546 45.7073 213.892 45.7073 214.108 45.9202Z" fill="#B7D3F3"/>
<path d="M208.426 47.7001C208.426 47.3959 208.672 47.1525 208.973 47.1525C209.273 47.1525 209.52 47.3989 209.52 47.7001C209.52 48.0013 209.273 48.2478 208.973 48.2478C208.669 48.2478 208.426 48.0013 208.426 47.7001Z" fill="#B7D3F3"/>
<path d="M205.086 29.3937C204.94 29.129 204.606 29.0347 204.342 29.1807C204.078 29.3268 203.983 29.6614 204.129 29.9261C204.275 30.1908 204.609 30.2851 204.874 30.1391C205.138 29.99 205.232 29.6584 205.086 29.3937Z" fill="#B7D3F3"/>
<path d="M201.3 32.4027C201.045 32.2384 200.708 32.3114 200.544 32.567C200.38 32.8225 200.453 33.1602 200.708 33.3245C200.963 33.4888 201.3 33.4158 201.464 33.1602C201.628 32.9047 201.555 32.567 201.3 32.4027Z" fill="#B7D3F3"/>
<path d="M199.425 37.0637C199.122 37.0637 198.879 37.3102 198.879 37.6114C198.879 37.9156 199.125 38.159 199.425 38.159C199.726 38.159 199.972 37.9126 199.972 37.6114C199.972 37.3071 199.729 37.0637 199.425 37.0637Z" fill="#B7D3F3"/>
<path d="M200.383 42.4703C200.17 42.6832 200.17 43.0301 200.383 43.2461C200.595 43.4591 200.942 43.4591 201.158 43.2461C201.37 43.0331 201.37 42.6863 201.158 42.4703C200.945 42.2573 200.599 42.2573 200.383 42.4703Z" fill="#B7D3F3"/>
<path d="M204.208 46.8574C204.51 46.8574 204.755 46.6122 204.755 46.3097C204.755 46.0073 204.51 45.7621 204.208 45.7621C203.906 45.7621 203.661 46.0073 203.661 46.3097C203.661 46.6122 203.906 46.8574 204.208 46.8574Z" fill="#B7D3F3"/>
<path d="M208.824 37.6114C208.824 37.3102 209.07 37.0637 209.371 37.0637C209.675 37.0637 209.918 37.3102 209.918 37.6114C209.918 37.9156 209.672 38.159 209.371 38.159C209.07 38.159 208.824 37.9126 208.824 37.6114Z" fill="#B7D3F3"/>
<path d="M209.447 30.7629H209.298V37.6115H209.447V30.7629Z" fill="#B7D3F3"/>
<path d="M212.793 34.5677L209.167 37.4177L209.445 37.7719L213.07 34.9219L212.793 34.5677Z" fill="#B7D3F3"/>
<path d="M153.081 134.386C149.702 140.273 145.451 142.549 145.451 142.549H127.77C127.773 142.549 155.661 129.895 153.081 134.386Z" fill="#233862"/>
<path d="M174.889 192.889C174.698 194.748 177.277 195.226 180.27 195.408C183.263 195.591 182.352 196.193 186.448 196.981C190.544 197.769 192.2 196.662 192.504 196.111C192.774 195.621 190.875 194.83 188.851 193.939C188.596 193.826 188.341 193.714 188.086 193.598C185.81 192.567 184.546 190.498 182.783 188.575C181.112 186.752 179.572 180.957 179.572 180.957L174.008 179.703C174.008 179.703 175.518 184.921 176.038 187.145C176.345 188.453 175.855 189.908 175.424 191.015C175.19 191.617 174.956 192.232 174.889 192.889Z" fill="#FFB27D"/>
<path d="M180.271 195.405C183.264 195.588 182.352 196.19 186.448 196.978C190.544 197.766 192.2 196.659 192.504 196.108C192.774 195.618 190.875 194.827 188.851 193.936L188.818 193.969C188.818 193.969 185.922 194.918 182.601 193.975C179.894 193.208 177.287 191.556 175.424 191.012C175.193 191.614 174.956 192.229 174.892 192.886C174.698 194.745 177.278 195.226 180.271 195.405Z" fill="#0F2549"/>
<path d="M166.46 128.355C163.467 126.25 143.665 122.499 133.562 121.413L122.392 111.704C122.392 111.704 112.884 125.803 112.808 136.588C112.772 141.617 115.087 142.116 115.087 142.119C115.087 142.119 150.891 142.384 152.461 142.548C155.029 142.813 158.42 149.221 159.265 155.059C160.113 160.894 175.041 184.635 175.041 184.635C175.041 184.635 178.156 185.633 179.596 185.55C181.146 185.459 181.863 184.939 181.863 184.939C181.863 184.939 173.212 133.102 166.46 128.355Z" fill="#96CFE0"/>
<path d="M165.628 192.889C165.436 194.748 168.016 195.226 171.009 195.408C174.002 195.591 173.09 196.193 177.186 196.981C181.282 197.769 182.938 196.662 183.242 196.111C183.513 195.621 181.613 194.83 179.59 193.939C179.335 193.826 179.079 193.714 178.824 193.598C176.548 192.567 175.284 190.498 173.522 188.575C171.851 186.752 170.31 180.957 170.31 180.957L164.746 179.703C164.746 179.703 166.257 184.921 166.776 187.145C167.083 188.453 166.594 189.908 166.162 191.015C165.928 191.617 165.694 192.232 165.628 192.889Z" fill="#FFB27D"/>
<path d="M171.009 195.405C174.002 195.588 173.09 196.19 177.186 196.978C181.282 197.766 182.938 196.659 183.242 196.108C183.512 195.618 181.613 194.827 179.59 193.936L179.556 193.969C179.556 193.969 176.66 194.918 173.339 193.975C170.632 193.208 168.025 191.556 166.162 191.012C165.931 191.614 165.694 192.229 165.63 192.886C165.436 194.745 168.016 195.226 171.009 195.405Z" fill="#233862"/>
<path d="M157.116 128.355C154.515 126.527 146.694 125.109 138.062 124.056C135.673 123.764 133.713 122.027 133.13 119.691L113.048 111.704C113.048 111.704 103.54 125.803 103.464 136.588C103.428 141.617 105.743 142.116 105.743 142.119C105.743 142.119 141.547 142.384 143.118 142.548C145.685 142.813 149.076 149.221 149.921 155.059C150.769 160.894 165.697 184.635 165.697 184.635C165.697 184.635 168.812 185.633 170.252 185.55C171.802 185.459 172.519 184.939 172.519 184.939C172.519 184.939 163.868 133.102 157.116 128.355Z" fill="#A2DFF2"/>
<path d="M130.246 53.1249C127.487 51.6737 123.288 51.479 122.604 51.3847C114.44 50.2863 109.526 62.1641 109.238 65.7633C108.706 72.3958 105.199 73.409 100.268 77.5619C90.3772 85.8921 93.276 95.5702 98.6847 99.1694C101.93 101.327 107.648 99.1694 107.648 99.1694C107.731 99.2272 123.291 90.4589 130.963 86.2299C142.468 84.593 137.278 56.8246 130.246 53.1249Z" fill="#233862"/>
<path d="M128.542 82.1438C128.578 82.162 124.914 83.8293 122.27 82.9561C119.782 82.1346 117.591 78.3863 117.627 78.3802C118.706 78.222 119.806 77.1572 120.11 70.838L120.587 70.9597L128.627 72.9951C128.627 72.9951 128.308 75.5447 128.177 77.9574C128.068 79.9775 128.092 81.9034 128.542 82.1438Z" fill="#FFB27D"/>
<path d="M128.627 72.9922C128.627 72.9922 128.627 73.5155 128.326 75.8886C123.78 74.7416 121.775 73.2295 120.362 71.5044L128.627 72.9922Z" fill="#ED975D"/>
<path d="M130.344 73.3115C130.344 73.3115 119.712 75.0457 118.736 68.3979C117.761 61.7532 115.731 57.4999 122.477 56.1125C129.222 54.7252 130.918 57.0648 131.781 59.2037C132.647 61.3455 133.084 72.6908 130.344 73.3115Z" fill="#FFB27D"/>
<path d="M130.353 55.8358C130.353 55.8358 125.524 63.4663 121.216 65.2735C116.907 67.0807 114.789 66.1619 114.789 66.1619C114.789 66.1619 116.749 63.1864 117.259 59.1886C117.411 58.0112 118.177 57.0011 119.277 56.5599C122.37 55.3216 128.353 53.3653 130.353 55.8358Z" fill="#233862"/>
<path d="M126.114 56.575C126.114 56.575 128.943 58.0262 130.11 59.3892C131.234 60.7036 132.534 64.2663 132.44 65.8696C132.44 65.8696 133.835 58.1966 130.93 55.5618C127.843 52.7628 126.114 56.575 126.114 56.575Z" fill="#233862"/>
<path d="M137.047 98.3784C136.724 120.013 136.958 115.492 134.594 117.546C134.026 118.039 132.425 118.334 130.316 118.474C123.689 118.915 112.042 117.823 111.598 116.597C110.07 112.355 111.149 111.035 109.873 104.542C109.739 103.852 109.575 103.103 109.383 102.291C108.32 97.8307 107.287 96.3126 111.058 89.1445C114.479 82.652 118.499 77.3794 118.821 77.568C127.846 82.9319 128.156 78.4351 128.156 78.4351C128.156 78.4351 137.205 87.8241 137.047 98.3784Z" fill="white"/>
<path d="M128.156 78.4351C128.156 78.4351 137.393 80.0019 138.481 84.0058C139.572 88.0097 145.989 111.543 145.989 111.543C145.989 111.543 141.267 112.392 139.089 110.207C136.907 108.023 131.501 89.9477 131.501 89.9477L128.156 78.4351Z" fill="white"/>
<path d="M130.316 118.474C123.689 118.915 112.042 117.823 111.599 116.596C110.07 112.355 111.149 111.035 109.873 104.542L113.069 95.5305C113.069 95.5305 112.541 105.565 115.497 108.202C118.451 110.84 127.597 113.295 129.034 115.501C129.727 116.56 130.183 117.622 130.316 118.474Z" fill="#EBF3FF"/>
<path d="M122.726 114.254C122.726 114.254 129.262 112.796 130.316 113.377C131.371 113.959 133.947 116.073 134.272 116.809C134.594 117.546 131.924 116.25 131.055 116.018C130.492 115.866 129.01 116.383 128.277 116.627C125.193 117.655 123.303 117.126 123.303 117.126L122.726 114.254Z" fill="#FFB27D"/>
<path d="M118.821 77.568C118.821 77.568 109.569 78.1095 106.53 82.3538C102.252 88.3261 93.7683 113.782 98.6301 117.178C104.106 121.002 123.552 118.179 123.552 118.179C123.552 118.179 124.2 115.148 123.3 113.685C122.401 112.218 107.767 109.854 107.092 109.176C106.418 108.501 115.534 95.99 115.534 93.9607C115.537 91.9314 118.821 77.568 118.821 77.568Z" fill="white"/>
<path d="M130.632 115.2C130.632 115.2 132.003 116.968 132.452 117.181C132.902 117.391 133.191 117.339 133.191 117.339L132.267 115.675L130.632 115.2Z" fill="#FFB27D"/>
<path d="M130.316 113.378L134.3 115.313C134.3 115.313 134.13 115.589 133.641 115.568C133.151 115.547 131.915 115.094 131.915 115.094L130.316 113.378Z" fill="#FFB27D"/>
<path d="M144.987 117.969H126.491C126.491 117.153 127.15 116.493 127.964 116.493H144.983V117.969H144.987Z" fill="#ED7D2B"/>
<path d="M144.932 97.8003H173.528L166.67 117.969H137.888L144.932 97.8003Z" fill="#ED7D2B"/>
<path d="M173.947 97.8003L167.089 117.969H138.311L145.354 97.8003H173.947Z" fill="#F99746"/>
<path d="M158.533 107.697C158.356 108.467 157.588 109.094 156.819 109.094C156.05 109.094 155.57 108.47 155.746 107.697C155.923 106.928 156.691 106.301 157.46 106.301C158.229 106.301 158.709 106.928 158.533 107.697Z" fill="white"/>
<path d="M120.097 122.505H245.408C245.934 122.505 246.362 122.076 246.362 121.55V118.924C246.362 118.398 245.934 117.969 245.408 117.969H120.097C119.572 117.969 119.143 118.398 119.143 118.924V121.55C119.143 122.076 119.572 122.505 120.097 122.505Z" fill="#2E5B9A"/>
<path d="M248.474 197.246L248.529 197.24C249.17 197.161 249.626 196.586 249.544 195.959L238.377 120.275L234.29 120.394L247.429 196.485C247.511 196.972 247.973 197.31 248.474 197.246Z" fill="#2E5B9A"/>
<path d="M115.901 197.246L115.846 197.24C115.205 197.161 114.749 196.586 114.831 195.959L125.998 120.275L130.085 120.394L116.946 196.485C116.864 196.972 116.402 197.31 115.901 197.246Z" fill="#2E5B9A"/>
<path d="M141.753 197.246L141.698 197.24C141.057 197.161 140.601 196.586 140.683 195.959L151.85 120.275L155.937 120.394L142.798 196.485C142.716 196.972 142.254 197.31 141.753 197.246Z" fill="#2E5B9A"/>
<path d="M207.633 197.185H229.79C230.856 195.883 230.464 191.079 230.3 189.509C230.267 189.192 230.246 189.01 230.246 189.01C230.246 189.01 222.68 182.949 221.64 187.589C221.61 187.735 221.571 187.878 221.528 188.018C220.218 192.36 214.345 194.331 210.954 194.879C208.748 195.238 207.933 196.385 207.633 197.185Z" fill="#233862"/>
<path d="M268.094 125.094C267.295 125.094 230.139 132.08 223.992 139.698C220.923 143.504 220.465 187.452 220.465 187.452C220.465 187.452 224.263 192.168 232.467 189.43C232.467 189.43 238.483 159.361 238.037 150.24C237.915 147.718 263.424 149.875 268.094 148.664C272.765 147.453 284.171 137.285 281.658 132.329C279.143 127.376 268.094 125.094 268.094 125.094Z" fill="#96CFE0"/>
<path d="M224.15 114.33C224.15 114.33 216.654 114.43 214.883 115.191C213.111 115.952 209.514 117.698 210.477 117.966C211.44 118.233 216.031 117.856 217.022 118.008C218.013 118.16 219.237 117.966 219.845 117.966C220.453 117.966 223.288 117.966 223.288 117.966L224.15 114.33Z" fill="#FFB27D"/>
<path d="M215.387 96.3217C215.387 96.3217 212.832 94.4931 210.349 94.1372C208.933 93.9333 207.557 93.6808 206.727 93.3887C204.436 92.5794 199.857 88.4569 200.203 87.9732C201.315 86.4215 206.663 89.7043 207.596 89.3514C208.529 88.9985 205.8 87.0574 206.751 86.3728C207.247 86.0169 208.407 87.8028 209.352 87.9823C210.635 88.2257 211.637 90.039 212.023 90.1333C212.774 90.3189 216.065 92.7681 216.065 92.7681L215.387 96.3217Z" fill="#FFB27D"/>
<path d="M264.393 74.9698C264.393 74.9698 258.687 76.7406 253.065 92.2388C247.444 107.737 245.311 108.574 243.266 109.182C241.224 109.791 223.287 113.366 223.287 113.366V117.966H250.923C250.923 117.966 261.285 108.096 264.393 101.451C267.499 94.8097 264.393 74.9698 264.393 74.9698Z" fill="#ED7D2B"/>
<path d="M197.839 197.185H219.997C221.063 195.883 220.671 191.079 220.507 189.509C220.474 189.192 220.452 189.01 220.452 189.01C220.452 189.01 212.886 182.949 211.847 187.589C211.817 187.735 211.777 187.878 211.735 188.018C210.425 192.36 204.552 194.331 201.161 194.879C198.955 195.238 198.14 196.385 197.839 197.185Z" fill="#1B3051"/>
<path d="M257.143 125.094C256.344 125.094 219.185 132.08 213.041 139.698C209.972 143.504 209.514 187.452 209.514 187.452C209.514 187.452 213.312 192.168 221.516 189.43C221.516 189.43 227.532 159.361 227.086 150.24C226.964 147.718 252.473 149.875 257.143 148.664C261.813 147.453 273.22 137.285 270.707 132.329C268.195 127.376 257.143 125.094 257.143 125.094Z" fill="#A2DFF2"/>
<path d="M259.471 79.8834C262.145 79.6613 264.946 78.9493 267.368 78.1613C270.394 77.1786 272.837 75.7395 271.263 72.9679C269.814 70.4152 267.468 64.7076 267.626 59.9827L261.993 64.5281L258.164 67.6162C258.164 67.6162 258.179 69.4356 258.599 72.6271C258.675 73.2082 258.766 73.838 258.869 74.5073C258.954 75.0489 258.705 75.5905 258.24 75.8795C258.21 75.8977 258.182 75.916 258.155 75.9343C256.253 77.133 257.231 80.0659 259.471 79.8834Z" fill="#FFB27D"/>
<path d="M258.164 66.8678C258.164 66.8678 257.97 67.528 258.304 69.9681C261.716 69.4113 264.907 66.6853 264.907 66.6853C263.169 66.2076 262.537 64.3274 261.242 64.5038L258.164 66.8678Z" fill="#ED975D"/>
<path d="M255.01 67.4213C255.01 67.4213 268.134 69.6058 269.367 61.4003C270.598 53.1948 273.123 47.9527 264.794 46.2094C256.466 44.4691 254.366 47.3533 253.287 49.9911C252.212 52.632 251.628 66.6425 255.01 67.4213Z" fill="#FFB27D"/>
<path d="M251.358 46.3646C250.793 48.3392 252.303 50.7458 254.834 51.5398C258.593 52.7173 257.763 57.3327 259.452 57.2688C261.145 57.2049 261.826 54.6158 263.336 56.6846C264.624 58.4492 262.263 60.5424 262.427 61.5099C262.707 63.1711 265.308 66.5726 267.651 66.4022C269.993 66.2318 274.378 55.0812 273.503 51.6311C272.625 48.181 269.118 44.5422 265.797 44.0432C262.476 43.5412 257.866 44.9773 256.803 44.9773C255.739 44.9773 251.662 45.2967 251.358 46.3646Z" fill="#2B478B"/>
<path d="M281.832 86.3577C279.936 78.7121 274.691 70.6922 271.148 70.6982C265.107 70.7104 256.423 72.3047 252.917 80.9665C250.334 87.3465 246.888 124.035 250.784 126.646C259.684 132.612 280.309 144.788 283.974 132.369C287.332 120.99 285.126 99.6259 281.832 86.3577Z" fill="#F99746"/>
<path d="M267.161 78.7516C265.438 74.264 259.881 72.7123 256.089 75.6635C254.038 77.2608 251.528 79.5335 248.495 82.7676C237.222 94.7883 234.931 94.7123 232.813 94.4658C230.695 94.2163 212.807 90.4163 212.807 90.4163C212.807 90.4163 211.89 91.0917 211.352 92.187C210.632 93.6474 210.993 94.6423 210.993 94.6423C210.291 94.189 217.335 99.0478 220.838 100.986C225.466 103.545 232.443 105.945 235.22 106.855C236.007 107.113 236.858 107.101 237.635 106.818C241.759 105.33 255.606 99.9088 266.879 90.4985C269.847 88.0219 268.757 82.9106 267.161 78.7516Z" fill="#F99746"/>
<path d="M271.756 70.7713L270.388 67.6863C270.388 67.6863 258.146 68.6872 256.089 75.6636C256.089 75.6636 265.578 70.9204 271.756 70.7713Z" fill="white"/>
<path d="M301.479 196.908L301.564 196.905C302.254 196.893 302.789 196.327 302.725 195.676L298.112 149.561L294.089 149.92L300.71 196.281C300.759 196.649 301.09 196.917 301.479 196.908Z" fill="#8CB4F4"/>
<path d="M277.741 196.908L277.827 196.905C278.519 196.893 279.051 196.327 278.987 195.676L274.375 149.561L270.352 149.92L276.973 196.281C277.024 196.649 277.356 196.917 277.741 196.908Z" fill="#8CB4F4"/>
<path d="M233.181 196.908L233.096 196.905C232.406 196.893 231.871 196.327 231.935 195.676L236.548 149.561L240.571 149.92L233.95 196.281C233.898 196.649 233.567 196.917 233.181 196.908Z" fill="#73A2E5"/>
<path d="M300.175 143.032L304.551 104.518C305.125 98.9687 303.269 93.5318 295.271 93.1119L281.2 92.254C272.859 91.9102 269.094 98.8591 268.036 104.211L259.683 146.55L300.175 143.032Z" fill="#8CB4F4"/>
<path d="M297.824 150.24H235.363C234.108 150.24 233.081 149.212 233.081 147.955V145.141C233.081 143.884 234.108 142.856 235.363 142.856H300.103V147.952C300.106 149.212 299.079 150.24 297.824 150.24Z" fill="#75A1DE"/>
<path d="M298.331 150.24H261.452C260.477 150.24 259.68 149.443 259.68 148.466V144.633C259.68 143.656 260.477 142.859 261.452 142.859H300.103V148.466C300.106 149.44 299.306 150.24 298.331 150.24Z" fill="#8CB4F4"/>
</svg>
