<svg width="11" height="15" viewBox="0 0 11 15" fill="none" xmlns="http://www.w3.org/2000/svg">
<path d="M6.125 4.46875V0.75H0.65625C0.273438 0.75 0 1.05078 0 1.40625V14.0938C0 14.4766 0.273438 14.75 0.65625 14.75H9.84375C10.1992 14.75 10.5 14.4766 10.5 14.0938V5.125H6.78125C6.39844 5.125 6.125 4.85156 6.125 4.46875ZM7.875 10.9219C7.875 11.1133 7.71094 11.25 7.54688 11.25H2.95312C2.76172 11.25 2.625 11.1133 2.625 10.9219V10.7031C2.625 10.5391 2.76172 10.375 2.95312 10.375H7.54688C7.71094 10.375 7.875 10.5391 7.875 10.7031V10.9219ZM7.875 9.17188C7.875 9.36328 7.71094 9.5 7.54688 9.5H2.95312C2.76172 9.5 2.625 9.36328 2.625 9.17188V8.95312C2.625 8.78906 2.76172 8.625 2.95312 8.625H7.54688C7.71094 8.625 7.875 8.78906 7.875 8.95312V9.17188ZM7.875 7.20312V7.42188C7.875 7.61328 7.71094 7.75 7.54688 7.75H2.95312C2.76172 7.75 2.625 7.61328 2.625 7.42188V7.20312C2.625 7.03906 2.76172 6.875 2.95312 6.875H7.54688C7.71094 6.875 7.875 7.03906 7.875 7.20312ZM10.5 4.08594C10.5 3.92188 10.418 3.75781 10.3086 3.62109L7.62891 0.941406C7.49219 0.832031 7.32812 0.75 7.16406 0.75H7V4.25H10.5V4.08594Z" fill="#707177"/>
</svg>
