<svg width="11" height="12" viewBox="0 0 11 12" fill="none" xmlns="http://www.w3.org/2000/svg">
<path d="M10.0117 6.54102C10.112 7.01367 10.0475 7.46484 9.81836 7.89453C9.88997 8.41016 9.76823 8.88997 9.45312 9.33398C9.4388 9.73503 9.3457 10.0859 9.17383 10.3867C9.01628 10.6875 8.7513 10.9238 8.37891 11.0957C8.02083 11.2819 7.56966 11.375 7.02539 11.375C6.98242 11.375 6.90365 11.375 6.78906 11.375C6.67448 11.375 6.5957 11.375 6.55273 11.375C5.9082 11.375 5.33529 11.3034 4.83398 11.1602C4.34701 11.0169 3.93164 10.8737 3.58789 10.7305C3.25846 10.5872 2.97201 10.5156 2.72852 10.5156C2.68555 10.6589 2.59961 10.7806 2.4707 10.8809C2.35612 10.9811 2.22005 11.0312 2.0625 11.0312H0.6875C0.501302 11.0312 0.336589 10.9596 0.193359 10.8164C0.0644531 10.6875 0 10.5299 0 10.3438V5.1875C0 5.0013 0.0644531 4.84375 0.193359 4.71484C0.336589 4.57161 0.501302 4.5 0.6875 4.5H2.81445C2.92904 4.39974 3.07227 4.23503 3.24414 4.00586C3.41602 3.77669 3.59505 3.54036 3.78125 3.29688C3.98177 3.03906 4.15365 2.8457 4.29688 2.7168C4.33984 2.65951 4.4043 2.42318 4.49023 2.00781C4.57617 1.59245 4.7194 1.22005 4.91992 0.890625C5.13477 0.546875 5.43555 0.375 5.82227 0.375C6.4668 0.375 6.9681 0.561198 7.32617 0.933594C7.69857 1.30599 7.88477 1.87174 7.88477 2.63086C7.88477 2.96029 7.82031 3.28971 7.69141 3.61914H8.46484C8.80859 3.61914 9.1237 3.71224 9.41016 3.89844C9.69661 4.07031 9.91862 4.29948 10.0762 4.58594C10.2337 4.85807 10.3125 5.15169 10.3125 5.4668C10.3125 5.83919 10.2122 6.19727 10.0117 6.54102ZM8.70117 7.70117C8.91602 7.48633 9.02344 7.23568 9.02344 6.94922C9.03776 6.64844 8.96615 6.42643 8.80859 6.2832C8.90885 6.2832 9.00911 6.19727 9.10938 6.02539C9.22396 5.85352 9.28125 5.66732 9.28125 5.4668C9.28125 5.26628 9.20247 5.08008 9.04492 4.9082C8.88737 4.73633 8.69401 4.65039 8.46484 4.65039H6.23047C6.23047 4.39258 6.33073 4.06315 6.53125 3.66211C6.74609 3.24674 6.85352 2.90299 6.85352 2.63086C6.85352 2.48763 6.84635 2.38021 6.83203 2.30859C6.83203 2.22266 6.81055 2.11523 6.76758 1.98633C6.73893 1.85742 6.6888 1.75716 6.61719 1.68555C6.5599 1.61393 6.45964 1.54948 6.31641 1.49219C6.1875 1.4349 6.02279 1.40625 5.82227 1.40625C5.70768 1.52083 5.60026 1.83594 5.5 2.35156C5.39974 2.85286 5.23503 3.2181 5.00586 3.44727C4.9056 3.54753 4.75521 3.73372 4.55469 4.00586C4.35417 4.26367 4.17513 4.5 4.01758 4.71484C3.86003 4.91536 3.68099 5.10156 3.48047 5.27344C3.29427 5.44531 3.12956 5.53125 2.98633 5.53125H2.75V9.52734C3.10807 9.52734 3.67383 9.66341 4.44727 9.93555C5.23503 10.2077 5.90104 10.3438 6.44531 10.3438H7.24023C8.1569 10.3438 8.54362 9.87109 8.40039 8.92578C8.57227 8.82552 8.69401 8.65365 8.76562 8.41016C8.83724 8.16667 8.81576 7.93034 8.70117 7.70117ZM1.74023 10.0215C1.84049 9.92122 1.89062 9.79948 1.89062 9.65625C1.89062 9.51302 1.84049 9.39128 1.74023 9.29102C1.63997 9.19076 1.51823 9.14062 1.375 9.14062C1.23177 9.14062 1.11003 9.19076 1.00977 9.29102C0.909505 9.39128 0.859375 9.51302 0.859375 9.65625C0.859375 9.79948 0.909505 9.92122 1.00977 10.0215C1.11003 10.1217 1.23177 10.1719 1.375 10.1719C1.51823 10.1719 1.63997 10.1217 1.74023 10.0215Z" fill="#464646"/>
</svg>
