<svg width="32" height="32" viewBox="0 0 32 32" fill="none" xmlns="http://www.w3.org/2000/svg">
<path d="M25.5775 23.4556L26.6382 24.5163L30.3505 20.804C31.2292 19.9253 31.2292 18.5007 30.3505 17.622L14.4406 1.71208C13.5619 0.833393 12.1373 0.833393 11.2586 1.71208L7.54631 5.4244L8.60697 6.48506C9.19275 7.07084 9.19275 8.02059 8.60697 8.60638C8.02118 9.19216 7.07143 9.19216 6.48565 8.60638L5.42499 7.54572L1.71267 11.258C0.833983 12.1367 0.833983 13.5613 1.71267 14.44L17.6226 30.3499C18.5013 31.2286 19.9259 31.2286 20.8046 30.3499L24.5169 26.6376L23.4562 25.5769C22.8704 24.9912 22.8704 24.0414 23.4562 23.4556C24.042 22.8698 24.9917 22.8698 25.5775 23.4556Z" fill="#FD4546"/>
</svg>
