<svg width="30" height="24" viewBox="0 0 30 24" fill="none" xmlns="http://www.w3.org/2000/svg">
<path d="M29.5594 17.1047L25.3266 12.8766C24.7641 12.3141 24 12 23.2031 12H19.4859C18.6562 12 17.9859 12.6703 17.9859 13.5V17.2125C17.9859 18.0094 18.3 18.7687 18.8625 19.3312L23.0953 23.5594C23.6813 24.1453 24.6328 24.1453 25.2188 23.5594L29.5547 19.2234C30.1453 18.6375 30.1453 17.6906 29.5594 17.1047ZM20.9906 16.1203C20.3672 16.1203 19.8656 15.6187 19.8656 14.9953C19.8656 14.3719 20.3672 13.8703 20.9906 13.8703C21.6141 13.8703 22.1156 14.3719 22.1156 14.9953C22.1156 15.6141 21.6141 16.1203 20.9906 16.1203ZM10.5 11.9953C13.8141 11.9953 16.5 9.30937 16.5 5.99531C16.5 2.68594 13.8141 0 10.5 0C7.18594 0 4.5 2.68594 4.5 6C4.5 9.30937 7.18594 11.9953 10.5 11.9953ZM16.4906 17.2078V13.7812C15.9187 13.6125 15.3234 13.4906 14.7 13.4906H13.9172C12.8766 13.9687 11.7188 14.2406 10.5 14.2406C9.28125 14.2406 8.12813 13.9687 7.08281 13.4906H6.3C2.82187 13.4953 0 16.3172 0 19.7953V21.7453C0 22.9875 1.00781 23.9953 2.25 23.9953H18.75C19.4766 23.9953 20.1141 23.6437 20.5266 23.1094L17.8078 20.3906C16.9594 19.5422 16.4906 18.4125 16.4906 17.2078Z" fill="#3333FF"/>
</svg>
