<svg width="16" height="16" viewBox="0 0 16 16" fill="none" xmlns="http://www.w3.org/2000/svg">
<path d="M2.10962 14.6396C0.296965 12.8267 0.296621 9.89209 2.10962 8.07887L9.14122 1.04637C10.5363 -0.348789 12.8062 -0.348789 14.2012 1.04637C15.5994 2.44477 15.5997 4.70843 14.2012 6.10712L8.28043 12.0287C7.29887 13.0103 5.70175 13.0103 4.72025 12.0287C3.73653 11.0449 3.73618 9.45205 4.72025 8.46796L9.73468 3.45284C9.88115 3.30637 10.1186 3.30637 10.2651 3.45284L10.7953 3.98318C10.9417 4.12962 10.9417 4.36702 10.7953 4.51346L5.78071 9.52865C5.38309 9.92627 5.3829 10.5701 5.78071 10.968C6.17746 11.3647 6.82309 11.3648 7.2199 10.9679L13.1407 5.0464C13.9528 4.23424 13.953 2.91952 13.1407 2.10715C12.3304 1.29671 11.012 1.29677 10.2017 2.10715L3.17012 9.13962C1.94359 10.3662 1.94331 12.352 3.17009 13.5789C4.39775 14.8067 6.38525 14.8066 7.61265 13.578C9.65281 11.5359 11.6934 9.49416 13.7343 7.45281C13.8807 7.30634 14.1181 7.30643 14.2646 7.45293L14.7948 7.98327C14.9412 8.12971 14.9413 8.36699 14.7949 8.51343C12.7541 10.5547 10.7137 12.5963 8.67362 14.6383C6.86006 16.4537 3.9235 16.4537 2.10962 14.6396Z" fill="#2C6DF9"/>
</svg>
