<svg width="31" height="31" viewBox="0 0 31 31" fill="none" xmlns="http://www.w3.org/2000/svg">
<path d="M24.5773 22.4556L25.6379 23.5163L29.3503 19.804C30.2289 18.9253 30.229 17.5007 29.3503 16.622L13.4404 0.712084C12.5617 -0.166607 11.1371 -0.166607 10.2584 0.712084L6.54606 4.4244L7.60672 5.48506C8.19251 6.07084 8.19251 7.02059 7.60672 7.60638C7.02094 8.19216 6.07118 8.19216 5.4854 7.60638L4.42474 6.54572L0.71243 10.258C-0.166261 11.1367 -0.166261 12.5613 0.71243 13.44L16.6223 29.3499C17.501 30.2286 18.9256 30.2286 19.8043 29.3499L23.5166 25.6376L22.456 24.5769C21.8702 23.9912 21.8702 23.0414 22.456 22.4556C23.0417 21.8698 23.9915 21.8698 24.5773 22.4556Z" fill="#FFA100"/>
</svg>
