<svg width="19" height="18" viewBox="0 0 19 18" fill="none" xmlns="http://www.w3.org/2000/svg">
<g clip-path="url(#clip0)">
<path d="M9.91307 0C4.94252 0 0.913086 4.02943 0.913086 8.99998C0.913086 13.9705 4.94252 18 9.91307 18C14.8836 18 18.913 13.9705 18.913 8.99998C18.9078 4.03165 14.8814 0.0053111 9.91307 0ZM10.5559 8.99998C10.5559 9.35503 10.2681 9.64285 9.91307 9.64285H4.77023C4.41517 9.64285 4.12736 9.35503 4.12736 8.99998C4.12736 8.64493 4.41517 8.35711 4.77023 8.35711H9.27024V3.85714C9.27024 3.50209 9.55805 3.21427 9.9131 3.21427C10.2682 3.21427 10.5559 3.50209 10.5559 3.85714V8.99998Z" fill="#00C598"/>
</g>
<defs>
<clipPath id="clip0">
<rect width="18" height="18" fill="white" transform="translate(0.913086)"/>
</clipPath>
</defs>
</svg>
