<svg width="92" height="92" viewBox="0 0 92 92" fill="none" xmlns="http://www.w3.org/2000/svg">
<circle cx="46" cy="46" r="46" fill="#F7F7F8"/>
<path d="M46.8984 32.9531C46.6871 32.9531 46.4844 32.8692 46.335 32.7197C46.1855 32.5703 46.1016 32.3676 46.1016 32.1562C46.1016 31.9449 46.1855 31.7422 46.335 31.5928C46.4844 31.4433 46.6871 31.3594 46.8984 31.3594C47.5325 31.3594 48.1405 31.1075 48.5889 30.6592C49.0372 30.2108 49.2891 29.6028 49.2891 28.9688C49.2891 28.3347 49.0372 27.7267 48.5889 27.2783C48.1405 26.83 47.5325 26.5781 46.8984 26.5781C46.6871 26.5781 46.4844 26.4942 46.335 26.3447C46.1855 26.1953 46.1016 25.9926 46.1016 25.7812C46.1016 25.5699 46.1855 25.3672 46.335 25.2178C46.4844 25.0683 46.6871 24.9844 46.8984 24.9844C47.9552 24.9844 48.9686 25.4042 49.7158 26.1514C50.463 26.8986 50.8828 27.912 50.8828 28.9688C50.8828 30.0255 50.463 31.0389 49.7158 31.7861C48.9686 32.5333 47.9552 32.9531 46.8984 32.9531Z" fill="#AAC3D7"/>
<path d="M31.7578 32.9531C31.5465 32.9531 31.3438 32.8692 31.1943 32.7197C31.0449 32.5703 30.9609 32.3676 30.9609 32.1562C30.9609 31.9449 31.0449 31.7422 31.1943 31.5928C31.3438 31.4433 31.5465 31.3594 31.7578 31.3594C32.3918 31.3594 32.9999 31.1075 33.4482 30.6592C33.8966 30.2108 34.1484 29.6028 34.1484 28.9688C34.1484 28.3347 33.8966 27.7267 33.4482 27.2783C32.9999 26.83 32.3918 26.5781 31.7578 26.5781C31.5465 26.5781 31.3438 26.4942 31.1943 26.3447C31.0449 26.1953 30.9609 25.9926 30.9609 25.7812C30.9609 25.5699 31.0449 25.3672 31.1943 25.2178C31.3438 25.0683 31.5465 24.9844 31.7578 24.9844C32.8145 24.9844 33.828 25.4042 34.5752 26.1514C35.3224 26.8986 35.7422 27.912 35.7422 28.9688C35.7422 30.0255 35.3224 31.0389 34.5752 31.7861C33.828 32.5333 32.8145 32.9531 31.7578 32.9531Z" fill="#AAC3D7"/>
<path d="M22.9922 35.3438H59.6484V59.25C59.6484 60.0954 59.3126 60.9061 58.7148 61.5039C58.1171 62.1017 57.3063 62.4375 56.4609 62.4375H26.1797C25.3343 62.4375 24.5236 62.1017 23.9258 61.5039C23.328 60.9061 22.9922 60.0954 22.9922 59.25V35.3438Z" fill="#AAC3D7"/>
<path d="M22.9922 35.3438H55.6641V59.25C55.6641 60.0954 55.3282 60.9061 54.7305 61.5039C54.1327 62.1017 53.3219 62.4375 52.4766 62.4375H26.1797C25.3343 62.4375 24.5236 62.1017 23.9258 61.5039C23.328 60.9061 22.9922 60.0954 22.9922 59.25V35.3438Z" fill="#D7E6E6"/>
<path d="M26.1797 28.9688H56.4609C57.3063 28.9688 58.1171 29.3046 58.7148 29.9023C59.3126 30.5001 59.6484 31.3109 59.6484 32.1562V35.3438H22.9922V32.1562C22.9922 31.3109 23.328 30.5001 23.9258 29.9023C24.5236 29.3046 25.3343 28.9688 26.1797 28.9688V28.9688Z" fill="#D7322D"/>
<path d="M26.1797 28.9688H52.4766C53.3219 28.9688 54.1327 29.3046 54.7305 29.9023C55.3282 30.5001 55.6641 31.3109 55.6641 32.1562V35.3438H22.9922V32.1562C22.9922 31.3109 23.328 30.5001 23.9258 29.9023C24.5236 29.3046 25.3343 28.9688 26.1797 28.9688V28.9688Z" fill="#F04B37"/>
<path d="M31.7578 32.9531C30.7011 32.9531 29.6876 32.5333 28.9404 31.7861C28.1932 31.0389 27.7734 30.0255 27.7734 28.9688C27.7734 27.912 28.1932 26.8986 28.9404 26.1514C29.6876 25.4042 30.7011 24.9844 31.7578 24.9844C31.9692 24.9844 32.1718 25.0683 32.3213 25.2178C32.4707 25.3672 32.5547 25.5699 32.5547 25.7812C32.5547 25.9926 32.4707 26.1953 32.3213 26.3447C32.1718 26.4942 31.9692 26.5781 31.7578 26.5781C31.1238 26.5781 30.5157 26.83 30.0674 27.2783C29.6191 27.7267 29.3672 28.3347 29.3672 28.9688C29.3672 29.6028 29.6191 30.2108 30.0674 30.6592C30.5157 31.1075 31.1238 31.3594 31.7578 31.3594C31.9692 31.3594 32.1718 31.4433 32.3213 31.5928C32.4707 31.7422 32.5547 31.9449 32.5547 32.1562C32.5547 32.3676 32.4707 32.5703 32.3213 32.7197C32.1718 32.8692 31.9692 32.9531 31.7578 32.9531Z" fill="#D7E6E6"/>
<path d="M46.8984 32.9531C45.8417 32.9531 44.8283 32.5333 44.0811 31.7861C43.3338 31.0389 42.9141 30.0255 42.9141 28.9688C42.9141 27.912 43.3338 26.8986 44.0811 26.1514C44.8283 25.4042 45.8417 24.9844 46.8984 24.9844C47.1098 24.9844 47.3125 25.0683 47.4619 25.2178C47.6114 25.3672 47.6953 25.5699 47.6953 25.7812C47.6953 25.9926 47.6114 26.1953 47.4619 26.3447C47.3125 26.4942 47.1098 26.5781 46.8984 26.5781C46.2644 26.5781 45.6563 26.83 45.208 27.2783C44.7597 27.7267 44.5078 28.3347 44.5078 28.9688C44.5078 29.6028 44.7597 30.2108 45.208 30.6592C45.6563 31.1075 46.2644 31.3594 46.8984 31.3594C47.1098 31.3594 47.3125 31.4433 47.4619 31.5928C47.6114 31.7422 47.6953 31.9449 47.6953 32.1562C47.6953 32.3676 47.6114 32.5703 47.4619 32.7197C47.3125 32.8692 47.1098 32.9531 46.8984 32.9531Z" fill="#D7E6E6"/>
<path d="M37.8995 39.5615C37.8255 39.4875 37.7376 39.4288 37.6409 39.3888C37.5443 39.3487 37.4406 39.3281 37.336 39.3281C37.2313 39.3281 37.1277 39.3487 37.031 39.3888C36.9343 39.4288 36.8465 39.4875 36.7725 39.5615L35.7422 40.5918L34.712 39.5615C34.638 39.4875 34.5501 39.4288 34.4534 39.3888C34.3568 39.3487 34.2531 39.3281 34.1485 39.3281C34.0438 39.3281 33.9402 39.3487 33.8435 39.3888C33.7468 39.4288 33.659 39.4875 33.585 39.5615C33.511 39.6355 33.4523 39.7234 33.4122 39.8201C33.3722 39.9167 33.3516 40.0204 33.3516 40.125C33.3516 40.2297 33.3722 40.3333 33.4122 40.43C33.4523 40.5267 33.511 40.6145 33.585 40.6885L34.6153 41.7188L33.585 42.749C33.4355 42.8985 33.3516 43.1012 33.3516 43.3125C33.3516 43.5239 33.4355 43.7266 33.585 43.876C33.7344 44.0255 33.9371 44.1094 34.1485 44.1094C34.3598 44.1094 34.5625 44.0255 34.712 43.876L35.7422 42.8458L36.7725 43.876C36.9219 44.0255 37.1246 44.1094 37.336 44.1094C37.5473 44.1094 37.75 44.0255 37.8995 43.876C38.0489 43.7266 38.1329 43.5239 38.1329 43.3125C38.1329 43.1012 38.0489 42.8985 37.8995 42.749L36.8692 41.7188L37.8995 40.6885C37.9735 40.6145 38.0322 40.5267 38.0722 40.43C38.1123 40.3333 38.1329 40.2297 38.1329 40.125C38.1329 40.0204 38.1123 39.9167 38.0722 39.8201C38.0322 39.7234 37.9735 39.6355 37.8995 39.5615Z" fill="#F04B37"/>
<path d="M45.0714 39.5615C44.9974 39.4875 44.9095 39.4288 44.8128 39.3888C44.7161 39.3487 44.6125 39.3281 44.5079 39.3281C44.4032 39.3281 44.2996 39.3487 44.2029 39.3888C44.1062 39.4288 44.0184 39.4875 43.9444 39.5615L42.9141 40.5918L41.8838 39.5615C41.7344 39.4121 41.5317 39.3281 41.3204 39.3281C41.109 39.3281 40.9063 39.4121 40.7569 39.5615C40.6074 39.711 40.5235 39.9137 40.5235 40.125C40.5235 40.3364 40.6074 40.5391 40.7569 40.6885L41.7871 41.7188L40.7569 42.749C40.6074 42.8985 40.5235 43.1012 40.5235 43.3125C40.5235 43.5239 40.6074 43.7266 40.7569 43.876C40.9063 44.0255 41.109 44.1094 41.3204 44.1094C41.5317 44.1094 41.7344 44.0255 41.8838 43.876L42.9141 42.8458L43.9444 43.876C44.0938 44.0255 44.2965 44.1094 44.5079 44.1094C44.7192 44.1094 44.9219 44.0255 45.0714 43.876C45.2208 43.7266 45.3048 43.5239 45.3048 43.3125C45.3048 43.1012 45.2208 42.8985 45.0714 42.749L44.0411 41.7188L45.0714 40.6885C45.1454 40.6145 45.2041 40.5267 45.2441 40.43C45.2842 40.3333 45.3048 40.2297 45.3048 40.125C45.3048 40.0204 45.2842 39.9167 45.2441 39.8201C45.2041 39.7234 45.1454 39.6355 45.0714 39.5615Z" fill="#F04B37"/>
<path d="M51.213 41.7188L52.2432 40.6885C52.3172 40.6145 52.3759 40.5267 52.416 40.43C52.456 40.3333 52.4766 40.2297 52.4766 40.125C52.4766 40.0204 52.456 39.9168 52.416 39.8201C52.3759 39.7234 52.3172 39.6356 52.2432 39.5616C52.1692 39.4876 52.0814 39.4289 51.9847 39.3888C51.888 39.3488 51.7844 39.3281 51.6797 39.3281C51.5751 39.3281 51.4715 39.3488 51.3748 39.3888C51.2781 39.4289 51.1902 39.4876 51.1162 39.5616L50.086 40.5918L49.0557 39.5616C48.9817 39.4876 48.8939 39.4289 48.7972 39.3888C48.7005 39.3488 48.5969 39.3281 48.4922 39.3281C48.3876 39.3281 48.284 39.3488 48.1873 39.3888C48.0906 39.4289 48.0027 39.4876 47.9287 39.5616C47.8547 39.6356 47.796 39.7234 47.756 39.8201C47.7159 39.9168 47.6953 40.0204 47.6953 40.125C47.6953 40.2297 47.7159 40.3333 47.756 40.43C47.796 40.5267 47.8547 40.6145 47.9287 40.6885L48.959 41.7188L47.9287 42.7491C47.8547 42.8231 47.796 42.9109 47.756 43.0076C47.7159 43.1043 47.6953 43.2079 47.6953 43.3125C47.6953 43.4172 47.7159 43.5208 47.756 43.6175C47.796 43.7142 47.8547 43.802 47.9287 43.876C48.0027 43.95 48.0906 44.0087 48.1873 44.0488C48.284 44.0888 48.3876 44.1094 48.4922 44.1094C48.5969 44.1094 48.7005 44.0888 48.7972 44.0488C48.8939 44.0087 48.9817 43.95 49.0557 43.876L50.086 42.8458L51.1162 43.876C51.1902 43.95 51.2781 44.0087 51.3748 44.0488C51.4715 44.0888 51.5751 44.1094 51.6797 44.1094C51.7844 44.1094 51.888 44.0888 51.9847 44.0488C52.0814 44.0087 52.1692 43.95 52.2432 43.876C52.3172 43.802 52.3759 43.7142 52.416 43.6175C52.456 43.5208 52.4766 43.4172 52.4766 43.3125C52.4766 43.2079 52.456 43.1043 52.416 43.0076C52.3759 42.9109 52.3172 42.8231 52.2432 42.7491L51.213 41.7188Z" fill="#F04B37"/>
<path d="M30.7276 46.7334C30.6536 46.6594 30.5658 46.6007 30.4691 46.5607C30.3724 46.5206 30.2688 46.5 30.1641 46.5C30.0595 46.5 29.9558 46.5206 29.8591 46.5607C29.7625 46.6007 29.6746 46.6594 29.6006 46.7334L28.5704 47.7637L27.5401 46.7334C27.4661 46.6594 27.3782 46.6007 27.2816 46.5607C27.1849 46.5206 27.0813 46.5 26.9766 46.5C26.872 46.5 26.7683 46.5206 26.6716 46.5607C26.575 46.6007 26.4871 46.6594 26.4131 46.7334C26.3391 46.8074 26.2804 46.8953 26.2404 46.9919C26.2003 47.0886 26.1797 47.1923 26.1797 47.2969C26.1797 47.4016 26.2003 47.5052 26.2404 47.6019C26.2804 47.6985 26.3391 47.7864 26.4131 47.8604L27.4434 48.8907L26.4131 49.9209C26.2637 50.0704 26.1797 50.2731 26.1797 50.4844C26.1797 50.6958 26.2637 50.8985 26.4131 51.0479C26.5626 51.1974 26.7653 51.2813 26.9766 51.2813C27.188 51.2813 27.3906 51.1974 27.5401 51.0479L28.5704 50.0176L29.6006 51.0479C29.7501 51.1974 29.9528 51.2813 30.1641 51.2813C30.3755 51.2813 30.5781 51.1974 30.7276 51.0479C30.877 50.8985 30.961 50.6958 30.961 50.4844C30.961 50.2731 30.877 50.0704 30.7276 49.9209L29.6973 48.8907L30.7276 47.8604C30.8016 47.7864 30.8603 47.6985 30.9003 47.6019C30.9404 47.5052 30.961 47.4016 30.961 47.2969C30.961 47.1923 30.9404 47.0886 30.9003 46.9919C30.8603 46.8953 30.8016 46.8074 30.7276 46.7334V46.7334Z" fill="#F04B37"/>
<path d="M37.8995 46.7334C37.8255 46.6594 37.7376 46.6007 37.6409 46.5607C37.5443 46.5206 37.4406 46.5 37.336 46.5C37.2313 46.5 37.1277 46.5206 37.031 46.5607C36.9343 46.6007 36.8465 46.6594 36.7725 46.7334L35.7422 47.7637L34.712 46.7334C34.5625 46.584 34.3598 46.5 34.1485 46.5C33.9371 46.5 33.7344 46.584 33.585 46.7334C33.4355 46.8829 33.3516 47.0856 33.3516 47.2969C33.3516 47.5083 33.4355 47.7109 33.585 47.8604L34.6153 48.8907L33.585 49.9209C33.4355 50.0704 33.3516 50.2731 33.3516 50.4844C33.3516 50.6958 33.4355 50.8985 33.585 51.0479C33.7344 51.1974 33.9371 51.2813 34.1485 51.2813C34.3598 51.2813 34.5625 51.1974 34.712 51.0479L35.7422 50.0176L36.7725 51.0479C36.9219 51.1974 37.1246 51.2813 37.336 51.2813C37.5473 51.2813 37.75 51.1974 37.8995 51.0479C38.0489 50.8985 38.1329 50.6958 38.1329 50.4844C38.1329 50.2731 38.0489 50.0704 37.8995 49.9209L36.8692 48.8907L37.8995 47.8604C37.9735 47.7864 38.0322 47.6985 38.0722 47.6019C38.1123 47.5052 38.1329 47.4016 38.1329 47.2969C38.1329 47.1923 38.1123 47.0886 38.0722 46.9919C38.0322 46.8953 37.9735 46.8074 37.8995 46.7334V46.7334Z" fill="#F04B37"/>
<path d="M45.0714 46.7334C44.9974 46.6594 44.9095 46.6007 44.8128 46.5607C44.7161 46.5206 44.6125 46.5 44.5079 46.5C44.4032 46.5 44.2996 46.5206 44.2029 46.5607C44.1062 46.6007 44.0184 46.6594 43.9444 46.7334L42.9141 47.7637L41.8838 46.7334C41.7344 46.584 41.5317 46.5 41.3204 46.5C41.109 46.5 40.9063 46.584 40.7569 46.7334C40.6074 46.8829 40.5235 47.0856 40.5235 47.2969C40.5235 47.5083 40.6074 47.7109 40.7569 47.8604L41.7871 48.8907L40.7569 49.9209C40.6074 50.0704 40.5235 50.2731 40.5235 50.4844C40.5235 50.6958 40.6074 50.8985 40.7569 51.0479C40.9063 51.1974 41.109 51.2813 41.3204 51.2813C41.5317 51.2813 41.7344 51.1974 41.8838 51.0479L42.9141 50.0176L43.9444 51.0479C44.0938 51.1974 44.2965 51.2813 44.5079 51.2813C44.7192 51.2813 44.9219 51.1974 45.0714 51.0479C45.2208 50.8985 45.3048 50.6958 45.3048 50.4844C45.3048 50.2731 45.2208 50.0704 45.0714 49.9209L44.0411 48.8907L45.0714 47.8604C45.1454 47.7864 45.2041 47.6985 45.2441 47.6019C45.2842 47.5052 45.3048 47.4016 45.3048 47.2969C45.3048 47.1923 45.2842 47.0886 45.2441 46.9919C45.2041 46.8953 45.1454 46.8074 45.0714 46.7334V46.7334Z" fill="#F04B37"/>
<path d="M52.2432 46.7334C52.1692 46.6594 52.0814 46.6007 51.9847 46.5607C51.888 46.5206 51.7844 46.5 51.6797 46.5C51.5751 46.5 51.4715 46.5206 51.3748 46.5607C51.2781 46.6007 51.1902 46.6594 51.1162 46.7334L50.086 47.7637L49.0557 46.7334C48.9817 46.6594 48.8939 46.6007 48.7972 46.5607C48.7005 46.5206 48.5969 46.5 48.4922 46.5C48.3876 46.5 48.284 46.5206 48.1873 46.5607C48.0906 46.6007 48.0027 46.6594 47.9287 46.7334C47.8547 46.8074 47.796 46.8953 47.756 46.9919C47.7159 47.0886 47.6953 47.1923 47.6953 47.2969C47.6953 47.4016 47.7159 47.5052 47.756 47.6019C47.796 47.6985 47.8547 47.7864 47.9287 47.8604L48.959 48.8907L47.9287 49.9209C47.7793 50.0704 47.6953 50.2731 47.6953 50.4844C47.6953 50.6958 47.7793 50.8985 47.9287 51.0479C48.0782 51.1974 48.2809 51.2813 48.4922 51.2813C48.7036 51.2813 48.9063 51.1974 49.0557 51.0479L50.086 50.0176L51.1162 51.0479C51.2657 51.1974 51.4684 51.2813 51.6797 51.2813C51.8911 51.2813 52.0938 51.1974 52.2432 51.0479C52.3927 50.8985 52.4766 50.6958 52.4766 50.4844C52.4766 50.2731 52.3927 50.0704 52.2432 49.9209L51.213 48.8907L52.2432 47.8604C52.3172 47.7864 52.3759 47.6985 52.416 47.6019C52.456 47.5052 52.4766 47.4016 52.4766 47.2969C52.4766 47.1923 52.456 47.0886 52.416 46.9919C52.3759 46.8953 52.3172 46.8074 52.2432 46.7334V46.7334Z" fill="#F04B37"/>
<path d="M30.7276 53.9053C30.6536 53.8313 30.5658 53.7726 30.4691 53.7325C30.3724 53.6925 30.2688 53.6718 30.1641 53.6718C30.0595 53.6718 29.9558 53.6925 29.8591 53.7325C29.7625 53.7726 29.6746 53.8313 29.6006 53.9053L28.5704 54.9355L27.5401 53.9053C27.4661 53.8313 27.3782 53.7726 27.2816 53.7325C27.1849 53.6925 27.0813 53.6719 26.9766 53.6719C26.872 53.6719 26.7683 53.6925 26.6716 53.7325C26.575 53.7726 26.4871 53.8313 26.4131 53.9053C26.3391 53.9793 26.2804 54.0671 26.2404 54.1638C26.2003 54.2605 26.1797 54.3641 26.1797 54.4688C26.1797 54.5734 26.2003 54.677 26.2404 54.7737C26.2804 54.8704 26.3391 54.9582 26.4131 55.0322L27.4434 56.0625L26.4131 57.0928C26.2637 57.2422 26.1797 57.4449 26.1797 57.6563C26.1797 57.8676 26.2637 58.0703 26.4131 58.2197C26.5626 58.3692 26.7653 58.4531 26.9766 58.4531C27.188 58.4531 27.3906 58.3692 27.5401 58.2197L28.5704 57.1895L29.6006 58.2197C29.6746 58.2937 29.7625 58.3524 29.8591 58.3925C29.9558 58.4325 30.0595 58.4531 30.1641 58.4531C30.2688 58.4531 30.3724 58.4325 30.4691 58.3925C30.5657 58.3524 30.6536 58.2937 30.7276 58.2197C30.8016 58.1457 30.8603 58.0579 30.9003 57.9612C30.9404 57.8645 30.961 57.7609 30.961 57.6563C30.961 57.5516 30.9404 57.448 30.9003 57.3513C30.8603 57.2546 30.8016 57.1668 30.7276 57.0928L29.6973 56.0625L30.7276 55.0322C30.8016 54.9582 30.8603 54.8704 30.9003 54.7737C30.9404 54.677 30.961 54.5734 30.961 54.4688C30.961 54.3641 30.9404 54.2605 30.9003 54.1638C30.8603 54.0671 30.8016 53.9793 30.7276 53.9053V53.9053Z" fill="#F04B37"/>
<path d="M37.8995 53.9053C37.8255 53.8313 37.7376 53.7726 37.6409 53.7325C37.5443 53.6925 37.4406 53.6718 37.336 53.6718C37.2313 53.6718 37.1277 53.6925 37.031 53.7325C36.9343 53.7726 36.8465 53.8313 36.7725 53.9053L35.7422 54.9355L34.712 53.9053C34.5625 53.7558 34.3598 53.6719 34.1485 53.6719C33.9371 53.6719 33.7344 53.7558 33.585 53.9053C33.4355 54.0547 33.3516 54.2574 33.3516 54.4688C33.3516 54.6801 33.4355 54.8828 33.585 55.0322L34.6153 56.0625L33.585 57.0928C33.4355 57.2422 33.3516 57.4449 33.3516 57.6563C33.3516 57.8676 33.4355 58.0703 33.585 58.2197C33.7344 58.3692 33.9371 58.4531 34.1485 58.4531C34.3598 58.4531 34.5625 58.3692 34.712 58.2197L35.7422 57.1895L36.7725 58.2197C36.8465 58.2937 36.9343 58.3524 37.031 58.3925C37.1277 58.4325 37.2313 58.4531 37.336 58.4531C37.4406 58.4531 37.5443 58.4325 37.6409 58.3925C37.7376 58.3524 37.8255 58.2937 37.8995 58.2197C37.9735 58.1457 38.0322 58.0579 38.0722 57.9612C38.1123 57.8645 38.1329 57.7609 38.1329 57.6563C38.1329 57.5516 38.1123 57.448 38.0722 57.3513C38.0322 57.2546 37.9735 57.1668 37.8995 57.0928L36.8692 56.0625L37.8995 55.0322C37.9735 54.9582 38.0322 54.8704 38.0722 54.7737C38.1123 54.677 38.1329 54.5734 38.1329 54.4688C38.1329 54.3641 38.1123 54.2605 38.0722 54.1638C38.0322 54.0671 37.9735 53.9793 37.8995 53.9053V53.9053Z" fill="#F04B37"/>
<path d="M45.0714 53.9053C44.9974 53.8313 44.9095 53.7726 44.8128 53.7325C44.7161 53.6925 44.6125 53.6718 44.5079 53.6718C44.4032 53.6718 44.2996 53.6925 44.2029 53.7325C44.1062 53.7726 44.0184 53.8313 43.9444 53.9053L42.9141 54.9355L41.8838 53.9053C41.7344 53.7558 41.5317 53.6719 41.3204 53.6719C41.109 53.6719 40.9063 53.7558 40.7569 53.9053C40.6074 54.0547 40.5235 54.2574 40.5235 54.4688C40.5235 54.6801 40.6074 54.8828 40.7569 55.0322L41.7871 56.0625L40.7569 57.0928C40.6074 57.2422 40.5235 57.4449 40.5235 57.6563C40.5235 57.8676 40.6074 58.0703 40.7569 58.2197C40.9063 58.3692 41.109 58.4531 41.3204 58.4531C41.5317 58.4531 41.7344 58.3692 41.8838 58.2197L42.9141 57.1895L43.9444 58.2197C44.0184 58.2937 44.1062 58.3524 44.2029 58.3925C44.2996 58.4325 44.4032 58.4531 44.5079 58.4531C44.6125 58.4531 44.7161 58.4325 44.8128 58.3925C44.9095 58.3524 44.9974 58.2937 45.0714 58.2197C45.1454 58.1457 45.204 58.0579 45.2441 57.9612C45.2841 57.8645 45.3048 57.7609 45.3048 57.6563C45.3048 57.5516 45.2841 57.448 45.2441 57.3513C45.204 57.2546 45.1454 57.1668 45.0714 57.0928L44.0411 56.0625L45.0714 55.0322C45.1454 54.9582 45.2041 54.8704 45.2441 54.7737C45.2842 54.677 45.3048 54.5734 45.3048 54.4688C45.3048 54.3641 45.2842 54.2605 45.2441 54.1638C45.2041 54.0671 45.1454 53.9793 45.0714 53.9053V53.9053Z" fill="#F04B37"/>
<path d="M58.0547 44.1094H54.8672C48.2657 44.1094 42.9141 49.461 42.9141 56.0625C42.9141 62.664 48.2657 68.0156 54.8672 68.0156H58.0547C64.6562 68.0156 70.0078 62.664 70.0078 56.0625C70.0078 49.461 64.6562 44.1094 58.0547 44.1094Z" fill="#F5871E"/>
<path d="M54.8672 68.0156C61.4687 68.0156 66.8203 62.664 66.8203 56.0625C66.8203 49.461 61.4687 44.1094 54.8672 44.1094C48.2657 44.1094 42.9141 49.461 42.9141 56.0625C42.9141 62.664 48.2657 68.0156 54.8672 68.0156Z" fill="#FABE19"/>
<path d="M44.5078 56.4609C44.4021 56.4609 44.3008 56.419 44.2261 56.3442C44.1514 56.2695 44.1094 56.1682 44.1094 56.0625C44.1126 53.2103 45.247 50.4759 47.2638 48.4591C49.2806 46.4423 52.015 45.3079 54.8672 45.3047C54.9729 45.3047 55.0742 45.3467 55.1489 45.4214C55.2236 45.4961 55.2656 45.5975 55.2656 45.7031C55.2656 45.8088 55.2236 45.9101 55.1489 45.9849C55.0742 46.0596 54.9729 46.1016 54.8672 46.1016C52.2263 46.1045 49.6944 47.1549 47.827 49.0223C45.9596 50.8897 44.9092 53.4216 44.9062 56.0625C44.9062 56.1682 44.8643 56.2695 44.7896 56.3442C44.7148 56.419 44.6135 56.4609 44.5078 56.4609Z" fill="#FFDC37"/>
<path d="M54.8672 64.8281C59.7083 64.8281 63.6328 60.9036 63.6328 56.0625C63.6328 51.2214 59.7083 47.2969 54.8672 47.2969C50.0261 47.2969 46.1016 51.2214 46.1016 56.0625C46.1016 60.9036 50.0261 64.8281 54.8672 64.8281Z" fill="#D7E6F0"/>
<path d="M54.8672 60.8438C54.6558 60.8438 54.4532 60.9277 54.3037 61.0771C54.1543 61.2266 54.0703 61.4293 54.0703 61.6406V62.4375C54.0703 62.6488 54.1543 62.8515 54.3037 63.001C54.4532 63.1504 54.6558 63.2344 54.8672 63.2344C55.0785 63.2344 55.2812 63.1504 55.4307 63.001C55.5801 62.8515 55.6641 62.6488 55.6641 62.4375V61.6406C55.6641 61.4293 55.5801 61.2266 55.4307 61.0771C55.2812 60.9277 55.0785 60.8438 54.8672 60.8438Z" fill="#353744"/>
<path d="M61.2422 55.2656H60.4453C60.234 55.2656 60.0313 55.3496 59.8818 55.499C59.7324 55.6485 59.6484 55.8512 59.6484 56.0625C59.6484 56.2738 59.7324 56.4765 59.8818 56.626C60.0313 56.7754 60.234 56.8594 60.4453 56.8594H61.2422C61.4535 56.8594 61.6562 56.7754 61.8057 56.626C61.9551 56.4765 62.0391 56.2738 62.0391 56.0625C62.0391 55.8512 61.9551 55.6485 61.8057 55.499C61.6562 55.3496 61.4535 55.2656 61.2422 55.2656Z" fill="#353744"/>
<path d="M55.6641 53.8084V49.6875C55.6641 49.4762 55.5801 49.2735 55.4307 49.124C55.2812 48.9746 55.0785 48.8906 54.8672 48.8906C54.6558 48.8906 54.4531 48.9746 54.3037 49.124C54.1543 49.2735 54.0703 49.4762 54.0703 49.6875V53.8084C53.7343 53.9276 53.4292 54.1203 53.1771 54.3724C52.925 54.6245 52.7323 54.9296 52.6131 55.2656H48.4922C48.2808 55.2656 48.0782 55.3496 47.9287 55.499C47.7793 55.6485 47.6953 55.8511 47.6953 56.0625C47.6953 56.2738 47.7793 56.4765 47.9287 56.626C48.0782 56.7754 48.2808 56.8594 48.4922 56.8594H52.6131C52.7478 57.2401 52.9767 57.5805 53.2784 57.8488C53.5802 58.1171 53.945 58.3046 54.3389 58.3938C54.7327 58.483 55.1427 58.471 55.5307 58.3589C55.9186 58.2468 56.2718 58.0382 56.5574 57.7527C56.8429 57.4671 57.0515 57.1139 57.1636 56.726C57.2757 56.338 57.2877 55.928 57.1985 55.5342C57.1093 55.1403 56.9218 54.7755 56.6535 54.4737C56.3852 54.172 56.0448 53.9431 55.6641 53.8084Z" fill="#353744"/>
<path d="M54.8672 56.8594C55.3073 56.8594 55.6641 56.5026 55.6641 56.0625C55.6641 55.6224 55.3073 55.2656 54.8672 55.2656C54.4271 55.2656 54.0703 55.6224 54.0703 56.0625C54.0703 56.5026 54.4271 56.8594 54.8672 56.8594Z" fill="#FAA51E"/>
</svg>
