<svg xmlns="http://www.w3.org/2000/svg" width="12.817" height="14.811" viewBox="0 0 12.817 14.811">
    <defs>
        <style>
            .cls-1{fill:#161c29}
        </style>
    </defs>
    <g id="trash" transform="translate(-34.462)">
        <path id="Path_62" d="M46.567 2.848h-2.848a2.848 2.848 0 1 0-5.7 0h-2.845a.712.712 0 0 0 0 1.424h.285v8.688a1.854 1.854 0 0 0 1.851 1.851h7.121a1.854 1.854 0 0 0 1.851-1.851V4.272h.285a.712.712 0 0 0 0-1.424zm-5.7-1.424a1.424 1.424 0 0 1 1.424 1.424h-2.844a1.424 1.424 0 0 1 1.424-1.424zm3.991 11.536a.427.427 0 0 1-.427.427H37.31a.427.427 0 0 1-.427-.427V4.272h7.975z" class="cls-1"/>
        <g id="Group_1386" transform="translate(38.592 6.694)">
            <path id="Path_63" d="M177.943 235.657a.712.712 0 0 1-.712-.712V232.1a.712.712 0 1 1 1.424 0v2.848a.712.712 0 0 1-.712.709z" class="cls-1" transform="translate(-177.231 -231.385)"/>
            <path id="Path_64" d="M286.251 235.657a.712.712 0 0 1-.712-.712V232.1a.712.712 0 1 1 1.424 0v2.848a.712.712 0 0 1-.712.709z" class="cls-1" transform="translate(-282.406 -231.385)"/>
        </g>
    </g>
</svg>
