<svg width="30" height="30" viewBox="0 0 30 30" fill="none" xmlns="http://www.w3.org/2000/svg">
<rect width="30" height="30" rx="15" fill="#FFF4F4"/>
<path d="M19.5781 13.417C19.5781 13.417 19.2387 17.6264 19.0419 19.3995C18.9481 20.2464 18.425 20.7426 17.5681 20.7582C15.9375 20.7876 14.305 20.7895 12.675 20.7551C11.8506 20.7382 11.3362 20.2357 11.2444 19.4039C11.0462 17.6151 10.7087 13.417 10.7087 13.417" stroke="#F04B37" stroke-width="1.5" stroke-linecap="round" stroke-linejoin="round"/>
<path d="M20.4427 11.3994H9.84393" stroke="#F04B37" stroke-width="1.5" stroke-linecap="round" stroke-linejoin="round"/>
<path d="M18.4004 11.3994C17.9098 11.3994 17.4873 11.0525 17.391 10.5719L17.2392 9.81188C17.1454 9.46125 16.8279 9.21875 16.466 9.21875H13.8204C13.4585 9.21875 13.141 9.46125 13.0473 9.81188L12.8954 10.5719C12.7992 11.0525 12.3767 11.3994 11.886 11.3994" stroke="#F04B37" stroke-width="1.5" stroke-linecap="round" stroke-linejoin="round"/>
</svg>
