<svg xmlns="http://www.w3.org/2000/svg" width="16" height="16" viewBox="0 0 16 16">
    <g fill="none" fill-rule="evenodd">
        <g>
            <g>
                <g>
                    <path d="M0 0H15.552V15.552H0z" transform="translate(-1059 -644) translate(314 215) translate(745 429)"/>
                    <path fill="#2C6DF9" stroke="#2C6DF9" stroke-width=".6" d="M5.87 5.488H3.122c-.214 0-.389-.175-.389-.388V2.352c0-.214.175-.389.39-.389.213 0 .388.175.388.39v1.685c1.034-1.011 2.43-1.595 3.901-1.595 1.542 0 2.98.616 4.056 1.743.979 1.037 1.517 2.398 1.517 3.83 0 3.071-2.502 5.573-5.573 5.573-1.432 0-2.793-.538-3.836-1.523-.156-.15-.162-.396-.013-.551.149-.156.395-.162.55-.013.895.842 2.068 1.309 3.299 1.309 2.644 0 4.795-2.151 4.795-4.795 0-1.238-.466-2.404-1.302-3.299-.927-.965-2.165-1.496-3.493-1.496-1.324 0-2.577.545-3.478 1.49H5.87c.214 0 .389.175.389.389 0 .213-.175.388-.39.388z" transform="translate(-1059 -644) translate(314 215) translate(745 429)"/>
                </g>
            </g>
        </g>
    </g>
</svg>
