<svg width="24" height="24" viewBox="0 0 24 24" fill="none" xmlns="http://www.w3.org/2000/svg">
<path d="M19.5188 6.70216C19.2622 5.17717 18.5071 3.78544 17.3523 2.7293C16.0691 1.55472 14.401 0.908203 12.6638 0.908203C11.3214 0.908203 10.0136 1.29315 8.89328 2.01863C7.96052 2.62073 7.18569 3.43504 6.63788 4.39247C6.40099 4.34805 6.15423 4.32338 5.90746 4.32338C3.80999 4.32338 2.10241 6.03097 2.10241 8.12844C2.10241 8.39987 2.13202 8.66144 2.18137 8.91807C0.824183 9.90512 0 11.4943 0 13.187C0 14.5541 0.508328 15.8817 1.43615 16.9329C2.38865 18.0088 3.64713 18.6454 4.98951 18.7194C5.00432 18.7194 5.01419 18.7194 5.02899 18.7194H9.27329C9.64343 18.7194 9.93954 18.4233 9.93954 18.0532C9.93954 17.683 9.64343 17.3869 9.27329 17.3869H5.04874C3.03023 17.2635 1.33251 15.3437 1.33251 13.1821C1.33251 11.7854 2.08266 10.4825 3.2918 9.7768C3.5731 9.61394 3.69155 9.27341 3.58297 8.96743C3.48427 8.70092 3.43492 8.41962 3.43492 8.11857C3.43492 6.75644 4.54534 5.64602 5.90746 5.64602C6.19864 5.64602 6.48489 5.69537 6.75139 5.79408C7.07711 5.91252 7.43738 5.76446 7.58544 5.45355C8.50833 3.49426 10.5022 2.23084 12.6687 2.23084C15.5805 2.23084 17.984 4.41221 18.2603 7.30425C18.2899 7.6053 18.517 7.84713 18.8131 7.89648C21.0093 8.27156 22.6675 10.2999 22.6675 12.6146C22.6675 15.0674 20.7378 17.1994 18.359 17.382H14.7218C14.3516 17.382 14.0555 17.6781 14.0555 18.0482C14.0555 18.4184 14.3516 18.7145 14.7218 18.7145H18.3837C18.3985 18.7145 18.4133 18.7145 18.4331 18.7145C19.9383 18.6059 21.3449 17.915 22.3911 16.7601C23.4325 15.6152 24 14.1445 24 12.6146C23.9951 9.8459 22.1049 7.38322 19.5188 6.70216Z" fill="#2C6DF9"/>
<path d="M16.0003 13.8191C16.2619 13.5575 16.2619 13.1381 16.0003 12.8765L12.4716 9.3478C12.3483 9.22442 12.1755 9.15039 12.0028 9.15039C11.8301 9.15039 11.6573 9.21948 11.5339 9.3478L8.00526 12.8765C7.74369 13.1381 7.74369 13.5575 8.00526 13.8191C8.13357 13.9474 8.30631 14.0165 8.4741 14.0165C8.6419 14.0165 8.81463 13.9524 8.94295 13.8191L11.3365 11.4255V22.4261C11.3365 22.7963 11.6326 23.0924 12.0028 23.0924C12.3729 23.0924 12.669 22.7963 12.669 22.4261V11.4255L15.0626 13.8191C15.3193 14.0807 15.7388 14.0807 16.0003 13.8191Z" fill="#2C6DF9"/>
</svg>
