<?xml version="1.0" encoding="UTF-8"?>
<svg width="9px" height="9px" viewBox="0 0 9 9" version="1.1" xmlns="http://www.w3.org/2000/svg" xmlns:xlink="http://www.w3.org/1999/xlink">
    <!-- Generator: Sketch 59.1 (86144) - https://sketch.com -->
    <title>upload</title>
    <desc>Created with Sketch.</desc>
    <g id="Web" stroke="none" stroke-width="1" fill="none" fill-rule="evenodd">
        <g id="7.6.2-Toni-(Owner)-view-a-Report-History" transform="translate(-911.000000, -585.000000)" fill="#FFFFFF" fill-rule="nonzero" stroke="#FFFFFF" stroke-width="0.5">
            <g id="Group-6" transform="translate(749.000000, 524.000000)">
                <g id="Group-2" transform="translate(33.000000, 56.000000)">
                    <g id="Group_351" transform="translate(124.000000, 0.000000)">
                        <g id="upload" transform="translate(6.000000, 5.570400)">
                            <path d="M6.73680027,5.36400021 L6.73680027,7.02120028 C6.72346645,7.16595403 6.59608753,7.27299515 6.45120026,7.26120029 L0.856800034,7.26120029 C0.711912763,7.27299515 0.584533836,7.16595403 0.571200023,7.02120028 L0.571200023,5.36400021 L0,5.36400021 L0,7.02120028 C0.0406231645,7.45513607 0.422351756,7.7759164 0.856800034,7.74120031 L6.45120026,7.74120031 C6.88564853,7.7759164 7.26737713,7.45513607 7.30800029,7.02120028 L7.30800029,5.36400021 L6.73680027,5.36400021 Z" id="Path_121"></path>
                            <polygon id="Path_122" points="3.65400015 0.429600017 2.17200009 1.91160008 2.5092001 2.24880009 3.41520014 1.34280005 3.41520014 5.0628002 3.89520015 5.0628002 3.89520015 1.34280005 4.80120019 2.24880009 5.1384002 1.91160008"></polygon>
                        </g>
                    </g>
                </g>
            </g>
        </g>
    </g>
</svg>