<svg width="83" height="67" viewBox="0 0 83 67" fill="none" xmlns="http://www.w3.org/2000/svg">
<ellipse opacity="0.25" cx="41.4799" cy="33.7588" rx="40.9242" ry="33.1724" fill="#E4EDFF"/>
<ellipse cx="41.4801" cy="33.7585" rx="27.6515" ry="22.4138" fill="#E4EDFF"/>
<g clip-path="url(#clip0_2_9)">
<path d="M49.7963 29.0087C49.5124 27.6415 48.6772 26.3937 47.3999 25.4469C45.9807 24.3938 44.1356 23.8141 42.2142 23.8141C40.7294 23.8141 39.2829 24.1593 38.0438 24.8097C37.0121 25.3495 36.1551 26.0796 35.5492 26.938C35.2872 26.8982 35.0142 26.876 34.7413 26.876C32.4214 26.876 30.5327 28.407 30.5327 30.2875C30.5327 30.5308 30.5654 30.7653 30.62 30.9954C29.1189 31.8803 28.2073 33.3051 28.2073 34.8228C28.2073 36.0484 28.7695 37.2386 29.7957 38.1811C30.8493 39.1457 32.2412 39.7165 33.726 39.7828C33.7424 39.7828 33.7533 39.7828 33.7696 39.7828H38.4641C38.8735 39.7828 39.201 39.5173 39.201 39.1855C39.201 38.8536 38.8735 38.5882 38.4641 38.5882H33.7915C31.5589 38.4775 29.6811 36.7563 29.6811 34.8183C29.6811 33.5662 30.5108 32.398 31.8482 31.7653C32.1593 31.6193 32.2904 31.314 32.1703 31.0397C32.0611 30.8007 32.0065 30.5485 32.0065 30.2786C32.0065 29.0574 33.2347 28.0618 34.7413 28.0618C35.0634 28.0618 35.38 28.1061 35.6747 28.1946C36.035 28.3008 36.4335 28.168 36.5972 27.8893C37.618 26.1327 39.8233 25 42.2197 25C45.4403 25 48.0986 26.9557 48.4043 29.5485C48.4371 29.8184 48.6882 30.0353 49.0157 30.0795C51.4448 30.4158 53.2789 32.2343 53.2789 34.3095C53.2789 36.5086 51.1446 38.42 48.5135 38.5837H44.4905C44.0811 38.5837 43.7535 38.8492 43.7535 39.1811C43.7535 39.5129 44.0811 39.7784 44.4905 39.7784H48.5408C48.5572 39.7784 48.5735 39.7784 48.5954 39.7784C50.2603 39.6811 51.816 39.0616 52.9732 38.0262C54.125 36.9997 54.7527 35.6811 54.7527 34.3095C54.7473 31.8272 52.6566 29.6193 49.7963 29.0087Z" fill="#2C6DF9"/>
<path d="M45.9045 35.3891C46.1938 35.1546 46.1938 34.7785 45.9045 34.544L42.0016 31.3804C41.8651 31.2697 41.674 31.2034 41.483 31.2034C41.2919 31.2034 41.1009 31.2653 40.9644 31.3804L37.0615 34.544C36.7722 34.7785 36.7722 35.1546 37.0615 35.3891C37.2034 35.5042 37.3944 35.5661 37.58 35.5661C37.7656 35.5661 37.9567 35.5086 38.0986 35.3891L40.7461 33.2432V43.1058C40.7461 43.4376 41.0736 43.7031 41.483 43.7031C41.8924 43.7031 42.2199 43.4376 42.2199 43.1058V33.2432L44.8673 35.3891C45.1512 35.6236 45.6152 35.6236 45.9045 35.3891Z" fill="#2C6DF9"/>
</g>
<defs>
<clipPath id="clip0_2_9">
<rect width="26.5455" height="21.5172" fill="white" transform="translate(28.2073 23)"/>
</clipPath>
</defs>
</svg>
