<svg width="171" height="171" viewBox="0 0 171 171" fill="none" xmlns="http://www.w3.org/2000/svg">
<path d="M85.5 171C132.72 171 171 132.72 171 85.5C171 38.2797 132.72 0 85.5 0C38.2797 0 0 38.2797 0 85.5C0 132.72 38.2797 171 85.5 171Z" fill="#2C6DF9"/>
<path d="M89.5 69.125V50H61.375C59.4062 50 58 51.5469 58 53.375V118.625C58 120.594 59.4062 122 61.375 122H108.625C110.453 122 112 120.594 112 118.625V72.5H92.875C90.9062 72.5 89.5 71.0938 89.5 69.125ZM98.6406 99.6406H89.5V110.891C89.5 112.016 88.375 113.141 87.25 113.141H82.75C81.4844 113.141 80.5 112.016 80.5 110.891V99.6406H71.2188C69.25 99.6406 68.2656 97.1094 69.6719 95.7031L83.1719 82.2031C84.1562 81.3594 85.7031 81.3594 86.6875 82.2031L100.188 95.7031C101.594 97.1094 100.609 99.6406 98.6406 99.6406ZM111.016 64.7656L97.2344 50.9844C96.5312 50.4219 95.6875 50 94.8438 50H94V68H112V67.1562C112 66.3125 111.578 65.4688 111.016 64.7656Z" fill="#F6F7F9"/>
</svg>
