<svg width="11" height="11" viewBox="0 0 11 11" fill="none" xmlns="http://www.w3.org/2000/svg">
<path d="M10.873 0.133476C10.8111 0.0719123 10.7328 0.0292882 10.6475 0.0106149C10.5621 -0.00805843 10.4732 -0.00200469 10.3912 0.0280644L0.29613 3.69454C0.209069 3.72753 0.134114 3.78618 0.0812208 3.86272C0.0283278 3.93926 0 4.03006 0 4.12306C0 4.21606 0.0283278 4.30686 0.0812208 4.3834C0.134114 4.45994 0.209069 4.5186 0.29613 4.55158L4.70124 6.31149L6.46329 10.7113C6.49639 10.7944 6.55314 10.866 6.62652 10.9173C6.69991 10.9687 6.78672 10.9974 6.87626 11C6.96899 10.9981 7.05897 10.9682 7.13433 10.9142C7.2097 10.8602 7.26691 10.7846 7.29842 10.6975L10.9693 0.614701C11.0006 0.533615 11.0082 0.445323 10.9911 0.360121C10.974 0.274918 10.9331 0.196315 10.873 0.133476ZM6.87626 9.25842L5.59603 6.05025L7.794 3.85495L7.147 3.20873L4.93067 5.42237L1.73697 4.12535L9.78089 1.22425L6.87626 9.25842Z" fill="#2C6DF9"/>
</svg>
