<svg width="26" height="26" viewBox="0 0 26 26" fill="none" xmlns="http://www.w3.org/2000/svg">
<circle cx="13" cy="13" r="13" fill="#2C6DF9" fill-opacity="0.08"/>
<path d="M14.75 12.8125V13.4688C14.75 13.6234 14.6234 13.75 14.4688 13.75H10.5312C10.3766 13.75 10.25 13.6234 10.25 13.4688V12.8125C10.25 12.6578 10.3766 12.5312 10.5312 12.5312H14.4688C14.6234 12.5312 14.75 12.6578 14.75 12.8125ZM14.4688 14.5H10.5312C10.3766 14.5 10.25 14.6266 10.25 14.7812V15.4375C10.25 15.5922 10.3766 15.7188 10.5312 15.7188H14.4688C14.6234 15.7188 14.75 15.5922 14.75 15.4375V14.7812C14.75 14.6266 14.6234 14.5 14.4688 14.5ZM17 10.0914V17.875C17 18.4961 16.4961 19 15.875 19H9.125C8.50391 19 8 18.4961 8 17.875V8.125C8 7.50391 8.50391 7 9.125 7H13.9086C14.2063 7 14.4922 7.11953 14.7031 7.33047L16.6695 9.29688C16.8805 9.50547 17 9.79375 17 10.0914ZM14 8.21641V10H15.7836L14 8.21641ZM15.875 17.875V11.125H13.4375C13.1258 11.125 12.875 10.8742 12.875 10.5625V8.125H9.125V17.875H15.875Z" fill="#2C6DF9"/>
</svg>
