<svg width="13" height="12" viewBox="0 0 13 12" fill="none" xmlns="http://www.w3.org/2000/svg">
<path d="M5.37109 4.7793C5.35677 4.70768 5.37826 4.64323 5.43555 4.58594C5.49284 4.52865 5.55729 4.5 5.62891 4.5H6.78906C6.84635 4.5 6.88932 4.51432 6.91797 4.54297C6.96094 4.55729 6.98958 4.58594 7.00391 4.62891C7.03255 4.67188 7.04688 4.72201 7.04688 4.7793L6.91797 7.18555C6.90365 7.24284 6.86784 7.30013 6.81055 7.35742C6.76758 7.40039 6.71745 7.42188 6.66016 7.42188H5.75781C5.60026 7.42188 5.51432 7.3431 5.5 7.18555L5.37109 4.7793ZM6.83203 8.00195C7.01823 8.17383 7.11133 8.38151 7.11133 8.625C7.11133 8.86849 7.01823 9.08333 6.83203 9.26953C6.66016 9.44141 6.45247 9.52734 6.20898 9.52734C5.96549 9.52734 5.75065 9.44141 5.56445 9.26953C5.39258 9.08333 5.30664 8.86849 5.30664 8.625C5.30664 8.38151 5.39258 8.17383 5.56445 8.00195C5.75065 7.81576 5.96549 7.72266 6.20898 7.72266C6.45247 7.72266 6.66016 7.81576 6.83203 8.00195ZM7.11133 0.890625L12.2676 9.82812C12.4538 10.1719 12.4466 10.5156 12.2461 10.8594C12.0599 11.2031 11.7663 11.375 11.3652 11.375H1.05273C0.651693 11.375 0.350911 11.2031 0.150391 10.8594C-0.0358073 10.5156 -0.0358073 10.1719 0.150391 9.82812L5.30664 0.890625C5.50716 0.546875 5.80794 0.375 6.20898 0.375C6.61003 0.375 6.91081 0.546875 7.11133 0.890625ZM1.16016 10.1504C1.08854 10.2793 1.12435 10.3438 1.26758 10.3438H11.1504C11.1934 10.3438 11.2292 10.3223 11.2578 10.2793C11.2865 10.2363 11.2865 10.1934 11.2578 10.1504L6.31641 1.59961C6.28776 1.55664 6.25195 1.53516 6.20898 1.53516C6.16602 1.53516 6.13021 1.55664 6.10156 1.59961L1.16016 10.1504Z" fill="#464646"/>
</svg>
