<svg width="11" height="11" viewBox="0 0 11 11" fill="none" xmlns="http://www.w3.org/2000/svg">
<path d="M5.3173 0V2.73854C4.62069 2.7301 3.99334 2.63258 3.45417 2.49682C3.55558 2.15224 3.67159 1.83127 3.80325 1.5463C4.21953 0.645052 4.75991 0.0990665 5.3173 0ZM5.68408 0C6.24078 0.0997557 6.78116 0.645914 7.19727 1.54613C7.32445 1.82127 7.43738 2.12915 7.53638 2.46012C6.88119 2.63345 6.26227 2.71287 5.68425 2.732V0H5.68408ZM4.35961 0.101306C4.01655 0.412806 3.71628 0.857657 3.46981 1.39141C3.32905 1.69585 3.20633 2.03474 3.09994 2.39655C2.32203 2.16206 1.76464 1.86762 1.50012 1.70963C2.25448 0.910034 3.24431 0.336482 4.35961 0.101306ZM6.64073 0.101306C7.7495 0.335103 8.73417 0.903486 9.48664 1.69567C8.93784 1.98081 8.40366 2.19824 7.88941 2.35744C7.78559 2.01027 7.66648 1.68516 7.5307 1.39141C7.28406 0.857657 6.98363 0.412806 6.64073 0.101306ZM9.73878 1.97806C10.4933 2.88964 10.9587 4.04898 11 5.31686H8.31462C8.30105 4.37495 8.18675 3.48869 7.98789 2.70805C8.55216 2.53559 9.13756 2.29679 9.73878 1.97806ZM1.25297 1.98805C1.49497 2.13622 2.09653 2.46839 3.00437 2.73837C2.8105 3.51126 2.69895 4.38735 2.68572 5.31668H0C0.04125 4.05363 0.503594 2.89791 1.25297 1.98805ZM7.63417 2.8097C7.82272 3.55502 7.93375 4.40889 7.94733 5.31686H5.68408V3.08846C6.29372 3.07072 6.9453 2.99026 7.63417 2.8097ZM3.35878 2.83795C3.92683 2.98078 4.58666 3.08364 5.3173 3.09415V5.31668H3.05267C3.06608 4.42043 3.17453 3.57639 3.35878 2.83795ZM0 5.68469H2.68555C2.6993 6.61781 2.81136 7.49753 3.00713 8.273C2.44062 8.4465 1.85281 8.68667 1.24919 9.00764C0.502219 8.09864 0.0414219 6.94534 0 5.68469ZM3.05267 5.68469H5.3173V7.88897C5.07066 7.89603 4.81817 7.91205 4.55761 7.94289C4.17261 7.98855 3.77266 8.06281 3.36067 8.171C3.17522 7.43085 3.06625 6.58387 3.05267 5.68469ZM5.68408 5.68469H7.94733C7.93392 6.57302 7.82736 7.40948 7.64586 8.14344C7.0773 8.00027 6.41592 7.89793 5.68408 7.8869V5.68469ZM8.31462 5.68469H11C10.9587 6.94103 10.5012 8.09089 9.75855 8.99834C9.51053 8.84741 8.89728 8.508 8.00095 8.24095C8.19173 7.4734 8.30139 6.60506 8.31462 5.68469ZM5.68408 8.24026C5.6858 8.24026 5.68769 8.24026 5.68906 8.24026C6.38602 8.24957 7.0125 8.34864 7.55167 8.48492C7.44906 8.83708 7.33133 9.16494 7.19709 9.45525C6.78098 10.3556 6.24078 10.9004 5.68391 11V8.24026H5.68408ZM5.3173 8.2475V11C4.76008 10.9013 4.21953 10.3565 3.80308 9.45525C3.67331 9.17476 3.55902 8.85913 3.45864 8.52058C4.11623 8.34622 4.73739 8.26645 5.3173 8.2475ZM7.90573 8.58519C8.69223 8.82295 9.25358 9.12153 9.51277 9.2771C8.7572 10.0834 7.76308 10.662 6.64228 10.8987C6.98483 10.5877 7.28423 10.1432 7.5307 9.61014C7.67387 9.30019 7.79831 8.95441 7.90573 8.58519ZM3.10527 8.62327C3.21045 8.97818 3.33145 9.3107 3.46981 9.61014C3.71628 10.1432 4.01552 10.5877 4.35823 10.8987C3.24328 10.6633 2.25414 10.0896 1.50012 9.29037C2.05184 9.00282 2.58844 8.78349 3.10527 8.62327Z" fill="#73788B"/>
</svg>
