<svg width="9" height="10" viewBox="0 0 9 10" fill="none" xmlns="http://www.w3.org/2000/svg">
<path d="M5.71484 4.75L8.64062 7.70312C8.85938 7.90365 8.85938 8.10417 8.64062 8.30469L7.95703 8.98828C7.75651 9.20703 7.55599 9.20703 7.35547 8.98828L4.40234 6.0625L1.44922 8.98828C1.2487 9.20703 1.04818 9.20703 0.847656 8.98828L0.164062 8.30469C-0.0546875 8.10417 -0.0546875 7.90365 0.164062 7.70312L3.08984 4.75L0.164062 1.79688C-0.0546875 1.59635 -0.0546875 1.39583 0.164062 1.19531L0.847656 0.511719C1.04818 0.292969 1.2487 0.292969 1.44922 0.511719L4.40234 3.4375L7.35547 0.511719C7.55599 0.292969 7.75651 0.292969 7.95703 0.511719L8.64062 1.19531C8.85938 1.39583 8.85938 1.59635 8.64062 1.79688L5.71484 4.75Z" fill="#464646"/>
</svg>
