<svg width="38" height="38" viewBox="0 0 38 38" fill="none" xmlns="http://www.w3.org/2000/svg">
<g filter="url(#filter0_d_19356_34340)">
<rect x="5" y="5" width="28" height="28" rx="14" fill="white"/>
<path d="M18.3333 13.6671H13.6666C13.313 13.6671 12.9739 13.8076 12.7238 14.0577C12.4738 14.3077 12.3333 14.6469 12.3333 15.0005V24.3338C12.3333 24.6874 12.4738 25.0266 12.7238 25.2766C12.9739 25.5267 13.313 25.6671 13.6666 25.6671H23C23.3536 25.6671 23.6927 25.5267 23.9428 25.2766C24.1928 25.0266 24.3333 24.6874 24.3333 24.3338V19.6671M23.3333 12.6671C23.5985 12.4019 23.9582 12.2529 24.3333 12.2529C24.7084 12.2529 25.0681 12.4019 25.3333 12.6671C25.5985 12.9324 25.7475 13.2921 25.7475 13.6671C25.7475 14.0422 25.5985 14.4019 25.3333 14.6671L19 21.0005L16.3333 21.6671L17 19.0005L23.3333 12.6671Z" stroke="#2C6DF9" stroke-linecap="round" stroke-linejoin="round"/>
</g>
<defs>
<filter id="filter0_d_19356_34340" x="0" y="0" width="38" height="38" filterUnits="userSpaceOnUse" color-interpolation-filters="sRGB">
<feFlood flood-opacity="0" result="BackgroundImageFix"/>
<feColorMatrix in="SourceAlpha" type="matrix" values="0 0 0 0 0 0 0 0 0 0 0 0 0 0 0 0 0 0 127 0" result="hardAlpha"/>
<feOffset/>
<feGaussianBlur stdDeviation="2.5"/>
<feColorMatrix type="matrix" values="0 0 0 0 0 0 0 0 0 0 0 0 0 0 0 0 0 0 0.23 0"/>
<feBlend mode="normal" in2="BackgroundImageFix" result="effect1_dropShadow_19356_34340"/>
<feBlend mode="normal" in="SourceGraphic" in2="effect1_dropShadow_19356_34340" result="shape"/>
</filter>
</defs>
</svg>
