<svg xmlns="http://www.w3.org/2000/svg" width="22" height="22" viewBox="0 0 22 22">
    <g fill="#e41313" transform="translate(-917.5 -784.5)">
        <circle cx="11" cy="11" r="11" opacity="0.06" transform="translate(917.5 784.5)"/>
        <path stroke="#e41313" stroke-miterlimit="10" stroke-width="0.4px" d="M7.712.144a.486.486 0 0 0-.69 0L3.928 3.237.834.144a.488.488 0 0 0-.69.69l3.093 3.093L.144 7.021a.486.486 0 0 0 0 .69.491.491 0 0 0 .343.145.476.476 0 0 0 .343-.145l3.094-3.093 3.094 3.093a.491.491 0 0 0 .343.145.47.47 0 0 0 .339-.145.486.486 0 0 0 0-.69L4.618 3.927 7.712.834a.486.486 0 0 0 0-.69z" transform="translate(925 792)"/>
    </g>
</svg>
